<svg width="24" height="24" viewBox="0 0 24 24" fill="none" xmlns="http://www.w3.org/2000/svg">
<g opacity="0.5">
<path d="M5.10825 8.48325C5.25723 8.33397 5.34085 8.13165 5.34075 7.92075V6.46575L9.60825 10.7332C9.75868 10.8763 9.95904 10.9548 10.1666 10.9522C10.3741 10.9496 10.5724 10.866 10.7192 10.7192C10.866 10.5724 10.9496 10.3741 10.9522 10.1666C10.9548 9.95904 10.8763 9.75868 10.7332 9.60825L6.46575 5.34075H7.92075C8.12747 5.3344 8.3236 5.24782 8.46757 5.09935C8.61155 4.95088 8.69207 4.75219 8.69207 4.54538C8.69207 4.33856 8.61155 4.13987 8.46757 3.9914C8.3236 3.84293 8.12747 3.75635 7.92075 3.75H4.54575C4.33476 3.7502 4.13248 3.8341 3.98329 3.98329C3.8341 4.13248 3.7502 4.33476 3.75 4.54575V7.92075C3.75007 8.07808 3.79678 8.23186 3.88422 8.36266C3.97167 8.49345 4.09592 8.59539 4.24128 8.65559C4.38664 8.71579 4.54658 8.73154 4.70089 8.70087C4.85521 8.6702 4.99696 8.59446 5.10825 8.48325Z" fill="black"/>
<path d="M18.8909 15.5159C18.7419 15.6652 18.6583 15.8675 18.6584 16.0784V17.5334L14.3909 13.2659C14.2405 13.1229 14.0401 13.0443 13.8326 13.0469C13.625 13.0496 13.4267 13.1332 13.2799 13.2799C13.1332 13.4267 13.0496 13.625 13.0469 13.8326C13.0443 14.0401 13.1229 14.2405 13.2659 14.3909L17.5334 18.6584H16.0784C15.8717 18.6647 15.6755 18.7513 15.5316 18.8998C15.3876 19.0483 15.3071 19.2469 15.3071 19.4538C15.3071 19.6606 15.3876 19.8593 15.5316 20.0077C15.6755 20.1562 15.8717 20.2428 16.0784 20.2491H19.4534C19.6644 20.2489 19.8667 20.165 20.0158 20.0158C20.165 19.8667 20.2489 19.6644 20.2491 19.4534V16.0784C20.2491 15.9211 20.2024 15.7673 20.1149 15.6365C20.0275 15.5057 19.9032 15.4037 19.7579 15.3435C19.6125 15.2833 19.4526 15.2676 19.2982 15.2983C19.1439 15.3289 19.0022 15.4047 18.8909 15.5159Z" fill="black"/>
<path d="M6.46575 18.6584L10.7332 14.3909C10.8763 14.2405 10.9548 14.0401 10.9522 13.8326C10.9496 13.625 10.866 13.4267 10.7192 13.2799C10.5724 13.1332 10.3741 13.0496 10.1666 13.0469C9.95904 13.0443 9.75868 13.1229 9.60825 13.2659L5.34075 17.5334V16.0784C5.3344 15.8717 5.24782 15.6755 5.09935 15.5316C4.95088 15.3876 4.75219 15.3071 4.54538 15.3071C4.33856 15.3071 4.13987 15.3876 3.9914 15.5316C3.84293 15.6755 3.75635 15.8717 3.75 16.0784V19.4534C3.7502 19.6644 3.8341 19.8667 3.98329 20.0158C4.13248 20.165 4.33476 20.2489 4.54575 20.2491H7.92075C8.02726 20.2524 8.13333 20.2343 8.23269 20.1958C8.33205 20.1573 8.42266 20.0992 8.49915 20.025C8.57565 19.9508 8.63646 19.862 8.67799 19.7639C8.71953 19.6658 8.74093 19.5603 8.74093 19.4538C8.74093 19.3472 8.71953 19.2417 8.67799 19.1436C8.63646 19.0455 8.57565 18.9567 8.49915 18.8825C8.42266 18.8083 8.33205 18.7503 8.23269 18.7118C8.13333 18.6733 8.02726 18.6551 7.92075 18.6584H6.46575Z" fill="black"/>
<path d="M19.4534 3.7494H16.0784C15.9719 3.74613 15.8658 3.76428 15.7664 3.80278C15.6671 3.84128 15.5765 3.89934 15.5 3.97352C15.4235 4.0477 15.3627 4.13649 15.3211 4.23462C15.2796 4.33275 15.2582 4.43822 15.2582 4.54477C15.2582 4.65133 15.2796 4.7568 15.3211 4.85493C15.3627 4.95306 15.4235 5.04184 15.5 5.11602C15.5765 5.19021 15.6671 5.24827 15.7664 5.28677C15.8658 5.32527 15.9719 5.34342 16.0784 5.34015H17.5334L13.2659 9.60765C13.1229 9.75808 13.0443 9.95844 13.0469 10.166C13.0496 10.3735 13.1332 10.5718 13.2799 10.7186C13.4267 10.8654 13.625 10.949 13.8326 10.9516C14.0401 10.9542 14.2405 10.8757 14.3909 10.7326L18.6584 6.46515V7.92015C18.6647 8.12687 18.7513 8.32299 18.8998 8.46697C19.0483 8.61095 19.2469 8.69147 19.4538 8.69147C19.6606 8.69147 19.8593 8.61095 20.0077 8.46697C20.1562 8.32299 20.2428 8.12687 20.2491 7.92015V4.54515C20.2489 4.33416 20.165 4.13188 20.0158 3.98269C19.8667 3.8335 19.6644 3.7496 19.4534 3.7494Z" fill="black"/>
</g>
</svg>
