<svg width="113" height="105" viewBox="0 0 113 105" fill="none" xmlns="http://www.w3.org/2000/svg">
<g opacity="0.2" clip-path="url(#clip0_2414_18046)">
<path d="M15.4873 59.5752C15.4873 60.0866 15.9013 60.5012 16.4119 60.5012C16.9225 60.5012 17.3365 60.0866 17.3365 59.5752C17.3365 59.5363 17.3821 55.6644 21.3218 53.1586C21.7529 52.8843 21.8805 52.3123 21.6066 51.8806C21.3329 51.4491 20.7617 51.3216 20.3304 51.5954C15.5426 54.6408 15.4873 59.3752 15.4873 59.5752Z" fill="#FB8036"/>
<path d="M10.8302 60.4989C10.842 60.4994 10.8538 60.4996 10.8654 60.4996C11.3589 60.4996 11.7687 60.1079 11.7888 59.6098C11.7992 59.351 12.1191 53.2399 18.544 50.4168C19.0116 50.2112 19.2243 49.6652 19.019 49.1967C18.8138 48.7286 18.2685 48.5154 17.8009 48.7207C10.2861 52.0233 9.95141 59.2373 9.941 59.5427C9.92321 60.0531 10.3208 60.4797 10.8302 60.4989Z" fill="#FB8036"/>
<path d="M44.4317 91.2562C44.2287 90.787 43.6843 90.5718 43.2158 90.7745C42.7472 90.9778 42.532 91.5229 42.7348 91.9923C44.1171 95.1889 40.4281 99.3562 40.3916 99.3969C40.0495 99.7766 40.0793 100.362 40.4584 100.705C40.6352 100.864 40.8569 100.943 41.0776 100.943C41.3303 100.943 41.5818 100.84 41.7644 100.637C41.9498 100.432 46.2873 95.5467 44.4317 91.2562Z" fill="#FB8036"/>
<path d="M48.3041 94.2536C47.7935 94.235 47.3636 94.6302 47.3428 95.141C47.1597 99.6482 42.6256 101.941 42.5817 101.963C42.1229 102.188 41.9324 102.742 42.1564 103.202C42.3168 103.53 42.6457 103.722 42.9881 103.722C43.1242 103.722 43.2625 103.691 43.3931 103.628C43.6203 103.516 48.962 100.841 49.1906 95.2167C49.2112 94.7054 48.8143 94.2744 48.3041 94.2536Z" fill="#FB8036"/>
<path d="M32.6211 75.7976C31.6361 87.0117 34.281 94.4505 36.218 98.2396C36.2079 94.4508 36.8394 91.2228 37.4128 88.2932C38.4872 82.8022 39.4183 78.027 35.832 71.4863C34.6231 72.4766 33.5325 73.8261 32.6211 75.7976Z" fill="#FB8036"/>
<path d="M26.1542 76.7637C25.0297 78.9637 23.8013 80.6819 22.5053 82.0643C21.4752 85.5261 21.2697 89.7566 21.2432 92.0654C23.8057 90.1416 29.1959 85.2148 30.581 77.0264C29.9726 77.2021 29.3584 77.2926 28.7445 77.2926C27.8731 77.2926 27.0032 77.1155 26.1542 76.7637Z" fill="#FB8036"/>
<path d="M21.0314 71.7164C20.3515 70.4247 19.862 69.0053 19.6077 67.5627C12.2309 63.2009 3.01098 68.0164 0 69.8435C1.68302 71.09 6.08854 73.5328 14.7854 73.4784C17.3357 72.4249 19.6192 71.9374 21.0314 71.7164Z" fill="#FB8036"/>
<path d="M53.5966 15.6969C54.585 14.3467 57.661 10.7009 62.4442 10.0624C62.1448 3.76039 58.5135 1.00995 56.6259 0C55.9606 6.68375 52.1117 12.0675 50.8496 13.6733C51.2178 14.3052 52.0622 15.4043 53.5966 15.6969Z" fill="#FB8036"/>
<path d="M86.2115 27.5539C86.3386 29.0029 86.4588 30.3714 87.5792 31.7515C90.4913 35.3392 96.2671 35.508 97.5687 34.9047C100.643 33.48 106.532 23.1946 107.02 12.4736C100.889 13.578 96.1654 16.2012 91.8803 18.5833C89.1286 20.1129 86.5589 21.5395 83.9795 22.2988C85.8946 23.9643 86.0619 25.849 86.2115 27.5539Z" fill="#FB8036"/>
<path d="M49.2295 12.7339C49.5032 12.3925 50.0822 11.6381 50.7706 10.5652C50.3878 9.14043 48.6666 3.99301 43.4276 2.23145C43.714 4.58143 44.0367 9.55732 42.7646 15.4728C44.6349 14.3182 46.7867 13.4091 49.2295 12.7339Z" fill="#FB8036"/>
<path d="M22.1122 73.4395C20.7324 73.6031 16.7365 74.2499 12.7374 76.5348C6.94006 79.8473 3.55785 85.0586 2.6582 92.0479C5.75795 89.0271 9.04493 87.6433 12.2418 86.2975C16.8153 84.3718 21.1437 82.5482 24.5404 75.86C23.6311 75.2142 22.814 74.3876 22.1122 73.4395Z" fill="#FB8036"/>
<path d="M102.523 52.1355C102.521 53.8045 103.666 55.3385 106.236 57.1096C109.864 59.6102 110.684 61.5521 111.551 63.6081C111.934 64.5165 112.328 65.4479 113.001 66.5076V40.499C105.957 45.4032 102.528 49.2131 102.523 52.1355Z" fill="#FB8036"/>
<path d="M48.0428 39.0713C46.6778 39.0713 45.5674 40.1835 45.5674 41.5504C45.5674 42.9173 46.6778 44.0294 48.0428 44.0294C49.4077 44.0294 50.5182 42.9173 50.5182 41.5504C50.5182 40.1835 49.408 39.0713 48.0428 39.0713Z" fill="#FB8036"/>
<path d="M40.9781 68.8711C39.7292 69.3181 38.5106 69.7783 37.3652 70.4343C38.962 73.3037 39.7572 75.878 40.0669 78.2942C43.9651 86.4124 54.1741 92.9003 58.668 95.4561C56.3211 89.6416 49.58 74.5074 40.9781 68.8711Z" fill="#FB8036"/>
<path d="M112.594 38.5308C112.72 38.4447 112.859 38.3982 113 38.3804V11.9375C111.56 11.9421 110.189 12.0312 108.882 12.1914C108.49 23.5601 102.322 34.7422 98.3453 36.5855C97.772 36.8512 96.831 37.0112 95.6988 37.0112C92.7868 37.0112 88.6071 35.9542 86.1442 32.92C84.6664 31.0994 84.5085 29.3019 84.3694 27.7163C84.1921 25.6973 84.062 24.2228 81.456 22.8043C81.0718 22.8432 80.6864 22.8689 80.2983 22.8689C78.8936 22.8689 77.4603 22.5981 75.9696 21.9768C72.8576 24.0117 67.3941 25.9966 58.5398 24.6652C57.1785 24.4592 56.1037 24.758 55.6652 25.4612C55.3815 25.9159 55.4058 26.4971 55.7257 26.9881C55.9936 27.399 55.9525 27.9596 55.5716 28.2682C55.3982 28.4087 55.1925 28.4756 54.9891 28.4756C54.6953 28.4756 54.4063 28.3357 54.2269 28.0751C53.4595 26.9596 53.4094 25.5823 54.0966 24.4807C54.9502 23.1115 56.6695 22.5108 58.8144 22.8339C65.6167 23.8575 71.2952 22.961 75.2359 20.2416C76.9924 19.0298 78.0485 17.6983 78.6181 16.8136C74.9386 16.0141 72.5437 14.7914 70.5819 13.7898C68.2745 12.6118 66.4537 11.6805 63.4407 11.8303C63.437 11.8303 63.4335 11.8305 63.4298 11.8308C58.0911 12.1011 54.852 17.1286 54.8199 17.1791C54.6386 17.4657 54.3148 17.6319 53.9771 17.609C51.3223 17.4342 49.8979 15.6879 49.2782 14.6453C35.7635 18.6238 35.0113 29.9929 34.4052 39.1595C34.3268 40.344 34.2529 41.463 34.1546 42.5456C33.6285 48.3416 29.8686 52.428 26.5511 56.0335C24.0813 58.7177 21.7485 61.2531 21.3532 63.952C20.9418 66.7614 21.877 70.0042 23.5998 72.3382C25.0604 71.2044 28.3738 68.1214 27.3849 64.0987C27.2564 63.5756 27.5994 63.0469 28.1428 62.9621C28.6243 62.8871 29.0774 63.2256 29.1913 63.7001C30.391 68.691 26.6561 72.3065 24.8392 73.7273C25.1108 73.9762 25.3937 74.2047 25.6875 74.4077C26.9009 75.2463 28.7912 75.9868 31.0047 74.8836C33.5217 69.5575 37.3924 68.1813 40.8144 66.9649C43.174 66.1262 45.403 65.3339 47.1592 63.3652C50.6094 59.4983 55.5084 59.0587 55.7153 59.0416C56.2246 59.0022 56.6705 59.38 56.7118 59.8895C56.7532 60.3985 56.375 60.8448 55.867 60.8874C55.8335 60.8902 53.2365 61.1348 50.6989 62.7668C53.6583 62.62 56.6952 62.8756 59.457 63.2913C60.1749 62.02 61.7047 58.4606 58.4059 55.5302C58.0329 55.199 57.9369 54.6261 58.2423 54.2314C58.5714 53.8062 59.1847 53.752 59.5827 54.1006C63.1573 57.2328 62.5547 61.186 61.3866 63.6135C66.1001 64.4772 69.6362 65.6718 69.906 65.7642C70.2049 65.8665 70.4309 66.1147 70.5054 66.4218C70.5798 66.7292 70.4926 67.0536 70.274 67.2816C70.2049 67.3538 69.6936 67.8709 68.6263 68.5767C70.8962 71.9584 73.6527 72.4933 76.8112 73.1054C78.923 73.5146 81.1067 73.9378 83.2795 75.2396C87.0318 77.488 89.4168 80.8092 89.504 83.9069C89.5638 86.0374 88.556 87.8689 86.5894 89.2034C85.1461 90.1826 83.8116 90.9198 82.6341 91.5703C79.9881 93.0316 78.1909 94.027 77.0465 96.5233L84.0772 103.896L91.9045 104.141C94.7627 100.33 96.7793 96.4985 97.9803 92.6474C98.7739 87.4842 99.5935 82.1444 107.737 82.6523C108.247 82.684 108.634 83.1236 108.603 83.6338C108.571 84.1444 108.131 84.5294 107.622 84.5004C101.167 84.0976 100.596 87.802 99.808 92.9288C98.6456 98.1274 96.4725 102.143 94.4617 104.221L113 104.801V69.1873C112.766 69.1577 112.543 69.0447 112.387 68.844C111.002 67.0665 110.388 65.6126 109.847 64.3297C109.022 62.3744 108.37 60.83 105.187 58.6358C103.083 57.186 100.669 55.137 100.674 52.1335C100.68 48.4169 104.468 44.0944 112.594 38.5308ZM48.0429 45.881C45.6584 45.881 43.7183 43.9382 43.7183 41.5502C43.7183 39.1623 45.6584 37.2193 48.0429 37.2193C50.4275 37.2193 52.3676 39.1623 52.3676 41.5502C52.3676 43.9382 50.4277 45.881 48.0429 45.881Z" fill="#FB8036"/>
<path d="M46.8577 71.5431C58.9234 71.691 65.1719 68.6422 67.6427 67.0029C64.0748 65.9709 55.439 63.8288 48.2992 64.852C46.7419 66.4899 44.9313 67.3883 43.0957 68.0992C44.4026 69.0816 45.6587 70.2494 46.8577 71.5431Z" fill="#FB8036"/>
<path d="M81.7411 89.9475C82.8837 89.3163 84.1788 88.601 85.5521 87.6691C86.9896 86.6936 87.6974 85.445 87.6556 83.9578C87.5871 81.5238 85.4966 78.7252 82.33 76.8275C80.4362 75.6928 78.4148 75.3009 76.4597 74.9224C73.1529 74.2817 69.7401 73.6187 67.031 69.5176C65.556 70.3 63.5284 71.1588 60.8486 71.8699C65.7255 75.1016 68.414 80.5469 71.2391 86.2723C72.6593 89.1503 74.1024 92.0737 75.8645 94.7977C77.2648 92.4267 79.2848 91.3042 81.7411 89.9475Z" fill="#FB8036"/>
</g>
<defs>
<clipPath id="clip0_2414_18046">
<rect width="113" height="105" fill="white"/>
</clipPath>
</defs>
</svg>
