<svg width="61" height="61" viewBox="0 0 61 61" fill="none" xmlns="http://www.w3.org/2000/svg">
<path d="M3.37609 13.2133C2.69899 13.4585 2.17378 13.9258 1.84682 14.5913L1.54304 15.1983V18.5606C1.54304 22.273 1.56622 22.4487 2.2787 23.1838C2.94421 23.8841 3.44624 24.0713 4.83582 24.1177L6.0851 24.1647L7.14772 25.8458C7.73149 26.7681 8.29208 27.5739 8.40859 27.6319C8.56048 27.7136 8.49033 27.7722 8.09322 27.8887C7.50945 28.0644 6.65728 28.7763 6.44683 29.2783L6.30653 29.6284H3.45783H0.609131V30.5629V31.4969H3.44624L6.27176 31.5084L6.61031 32.0337C7.49786 33.4348 9.54075 33.68 10.7437 32.5125C10.9657 32.3027 11.2109 31.9989 11.3043 31.8122L11.4793 31.4969H16.2312L20.9831 31.5084L21.2753 31.9873C21.5907 32.5009 22.3727 33.0731 22.9449 33.2012C23.2249 33.2598 23.2603 33.2945 23.12 33.3763C23.015 33.4348 22.4429 34.2638 21.8475 35.2209L20.7617 36.9606L19.3959 37.0076C18.0881 37.0424 18.0063 37.054 17.5281 37.3931C17.2481 37.5914 16.8626 37.9769 16.6643 38.2569L16.3142 38.7589L16.2794 42.1566C16.2562 44.5033 16.291 45.7178 16.3843 46.0563C16.5594 46.6871 17.178 47.4105 17.8087 47.7143C18.2991 47.9479 18.4742 47.9595 23.5646 47.9595H28.807L29.4024 47.6789C30.0563 47.3758 30.5467 46.8152 30.8035 46.1259C31.0256 45.4957 31.0256 39.4476 30.8035 38.8175C30.5583 38.152 30.0794 37.5914 29.4493 37.276C28.9473 37.0192 28.7253 36.9838 27.651 36.9838H26.4365L25.4093 35.3374C24.8487 34.4267 24.2887 33.5977 24.1716 33.4812C23.9618 33.2945 23.9734 33.2829 24.4284 33.1426C24.9652 32.9792 25.7594 32.3252 26.0162 31.8232L26.1913 31.4962H30.9432L35.6951 31.5078L36.0105 32.0215C36.8627 33.4226 38.9641 33.6794 40.167 32.5119C40.3891 32.3021 40.6343 31.9983 40.7276 31.8116L40.9027 31.4962H45.6546L50.4065 31.5078L50.6987 31.9867C51.014 32.5003 51.7961 33.0725 52.3682 33.2006C52.6482 33.2591 52.6836 33.2939 52.5433 33.3757C52.4384 33.4342 51.8662 34.2632 51.2709 35.2203L50.1851 36.96L48.8193 37.007C47.5114 37.0418 47.4297 37.0533 46.9508 37.3925C46.6708 37.5908 46.2853 37.9763 46.0871 38.2563L45.7369 38.7583L45.7022 42.2957C45.6674 45.7166 45.679 45.8569 45.9242 46.3705C46.2042 46.9658 46.8002 47.5496 47.3833 47.7948C47.6987 47.9235 48.8308 47.9583 52.999 47.9583H58.2297L58.8251 47.6777C59.479 47.3745 59.9694 46.814 60.2263 46.1247C60.4129 45.5757 60.4599 39.6099 60.2732 38.9443C60.0982 38.3142 59.479 37.567 58.8721 37.2632C58.4286 37.0296 58.1718 36.9948 57.0976 36.9832H55.8568L54.8296 35.3368C54.269 34.4261 53.7084 33.5971 53.5919 33.4806C53.3815 33.2939 53.3936 33.2823 53.8487 33.142C54.3855 32.9785 55.1797 32.3246 55.4365 31.8226L55.6116 31.4956H57.5264H59.4528V30.5617V29.6278H57.5496H55.658L55.4243 29.2075C54.8058 28.0632 53.4748 27.5264 52.1669 27.8881C51.6417 28.0284 50.7774 28.7872 50.5791 29.2777L50.4388 29.6278H45.6759H40.924L40.7959 29.3478C40.5507 28.811 39.9438 28.2388 39.313 27.982C38.811 27.7722 38.7177 27.6898 38.8458 27.5965C38.9391 27.5264 39.4765 26.7328 40.0481 25.8336L41.0753 24.1988L42.3594 24.1287C44.146 24.0353 44.8811 23.615 45.4301 22.3889C45.6515 21.8985 45.6753 21.6301 45.6753 18.6411C45.6753 15.0098 45.6168 14.6712 44.8817 13.924C44.0173 13.0602 44.3565 13.1066 38.3083 13.1066H32.8678L32.2956 13.4567C31.9454 13.6788 31.5953 14.0289 31.3733 14.379L31.0231 14.9512L30.9883 18.3489C30.9652 20.6254 30.9883 21.8985 31.0817 22.1901C31.2452 22.7507 31.9107 23.4979 32.5292 23.8249C32.9025 24.0115 33.2765 24.0817 34.2573 24.1165L35.5066 24.1634L36.5692 25.8446C37.153 26.7669 37.7136 27.5727 37.8301 27.6307C37.982 27.7124 37.9118 27.771 37.5147 27.8875C36.931 28.0626 36.0788 28.775 35.8684 29.2771L35.7281 29.6272H30.9646H26.2127L26.0962 29.3588C25.5472 28.1565 24.088 27.5142 22.7454 27.8875C22.2202 28.0278 21.3558 28.7866 21.1576 29.2771L21.0173 29.6272H16.2538H11.5019L11.3738 29.3472C11.1286 28.8104 10.5216 28.2382 9.89089 27.9814C9.38886 27.7716 9.29553 27.6892 9.42363 27.5959C9.51696 27.5258 10.0544 26.7321 10.6259 25.833L11.6532 24.1982L12.9256 24.1281C14.7239 24.0347 15.459 23.6144 16.008 22.3883C16.23 21.8979 16.2532 21.6295 16.2532 18.6405C16.2532 14.9628 16.2062 14.7176 15.4126 13.9002C14.5836 13.048 14.5373 13.048 8.85084 13.048C4.95233 13.0614 3.72623 13.0962 3.37609 13.2133ZM9.30712 29.6986C9.57552 29.8035 9.85612 30.4111 9.76218 30.7142C9.62188 31.1693 9.35348 31.3797 8.88683 31.3797C8.06943 31.3797 7.68452 30.4806 8.25609 29.92C8.53669 29.6406 8.92221 29.5589 9.30712 29.6986ZM24.0185 29.6986C24.2869 29.8035 24.5675 30.4111 24.4736 30.7142C24.3333 31.1693 24.0648 31.3797 23.5982 31.3797C22.7808 31.3797 22.3959 30.4806 22.9675 29.92C23.2474 29.6406 23.633 29.5589 24.0185 29.6986ZM38.7293 29.6986C38.9977 29.8035 39.2782 30.4111 39.1849 30.7142C39.0446 31.1693 38.7762 31.3797 38.309 31.3797C37.4916 31.3797 37.106 30.4806 37.6782 29.92C37.9588 29.6406 38.3437 29.5589 38.7293 29.6986ZM53.44 29.6986C53.7084 29.8035 53.989 30.4111 53.8951 30.7142C53.7548 31.1693 53.4864 31.3797 53.0191 31.3797C52.2017 31.3797 51.8168 30.4806 52.3884 29.92C52.6696 29.6406 53.0551 29.5589 53.44 29.6986Z" fill="white"/>
</svg>
