<svg width="100" height="100" viewBox="0 0 100 100" fill="none" xmlns="http://www.w3.org/2000/svg">
<g opacity="0.2">
<path d="M49.5234 6.66699C25.3772 6.66699 5.71387 26.3303 5.71387 50.4765C5.71387 74.6227 25.3772 94.286 49.5234 94.286C73.6696 94.286 93.3329 74.6227 93.3329 50.4765C93.3329 26.3303 73.6696 6.66699 49.5234 6.66699ZM67.9641 45.5862L42.5954 77.7811C41.9841 78.4942 41.169 78.9018 40.2521 78.9018C38.5201 78.9018 37.1956 77.5773 37.1956 75.8453C37.1956 75.6415 37.1956 75.4378 37.2975 75.234L41.5765 55.265H33.5278C31.7958 55.265 30.4713 53.9405 30.4713 52.2085C30.4713 52.0048 30.4713 51.6991 30.5732 51.4953L37.2975 24.3946C37.6031 23.0701 38.8257 22.0513 40.2521 22.0513H60.5267C62.2587 22.0513 63.5832 23.4776 63.5832 25.1077C63.5832 25.5153 63.4813 25.9228 63.2775 26.3303L56.7571 40.5939H65.519C67.251 40.5939 68.5754 41.9184 68.5754 43.6504C68.5754 44.3636 68.3717 44.9749 67.9641 45.5862Z" fill="#403B79"/>
</g>
</svg>
