<svg width="90" height="78" viewBox="0 0 90 78" fill="none" xmlns="http://www.w3.org/2000/svg">
<path d="M66.8919 0.123902C59.8268 0.0837666 52.3265 7.44919 45.7601 13.2407C45.3328 13.5829 44.6672 13.5829 44.2399 13.2407C38.0507 8.28765 29.5946 0.123902 21.8919 0.123902C10.2973 0.123902 0 8.03202 0 22.0234C0 30.5803 6.1145 39.5115 15.0127 48.8654C23.6664 57.9623 34.8375 67.4224 45 77.4944C55.1625 67.4224 66.3336 57.9623 74.9873 48.8654C78.1527 45.5378 80.9619 42.2789 83.2728 39.0563H79.0541C78.6457 39.0563 78.2448 38.8321 78.0279 38.4859L73.4671 31.2242L69.2863 49.0555C69.1453 49.5721 68.6433 49.9766 68.1081 49.9681C67.5729 49.9559 67.0543 49.5383 66.9299 49.0174L61.1149 21.9093L57.1622 52.5913C57.1039 53.1581 56.5904 53.6576 56.022 53.6938C55.4535 53.7302 54.8972 53.2983 54.7677 52.7434L50.0549 35.7485L47.3944 49.0174C47.1962 50.0034 45.5636 50.2211 45.114 49.3216L40.5912 40.2728H30.7855C30.2801 41.6821 28.9476 42.7061 27.3649 42.7061C25.3498 42.7061 23.7162 41.0721 23.7162 39.0563C23.7162 37.0404 25.3498 35.4063 27.3649 35.4063C28.9602 35.4063 30.2896 36.4128 30.7855 37.8397H41.3514C41.7996 37.8275 42.2434 38.0897 42.4535 38.4859L45.7221 45.0634L48.6867 30.2736C48.8021 29.7502 49.2912 29.3404 49.8269 29.3231C50.3625 29.3061 50.8944 29.6825 51.0431 30.1977L55.4899 46.2419L59.5946 14.5335C59.6867 13.8932 60.3631 13.3993 61.0008 13.507C61.4795 13.5872 61.8895 13.9821 61.989 14.4573L68.1461 43.2765L71.7948 27.8023C72.0334 26.8919 73.4959 26.6647 73.9992 27.4602L79.7382 36.623H84.9071C88.1091 31.6309 90 26.7762 90 22.0234C89.3738 8.82669 78.9862 -0.0242334 66.8919 0.123902Z" fill="#FF8383"/>
</svg>
