<svg width="95" height="77" viewBox="0 0 95 77" fill="none" xmlns="http://www.w3.org/2000/svg">
<path d="M94.8449 56.9L86.4449 75.9C86.0449 76.8 85.0449 77.2 84.1449 76.8L75.4449 72.9C74.5449 72.5 74.1449 71.5 74.5449 70.6L82.9449 51.6C83.3449 50.7 84.3449 50.3 85.2449 50.7L93.9449 54.6C94.8449 55 95.2449 56 94.8449 56.9Z" fill="#53AA7E"/>
<path d="M9.64473 50.0003L21.8447 55.8003L29.8447 58.9003C28.7447 60.5003 28.7447 62.2003 28.8447 63.3003C29.0447 64.4003 29.9447 65.2003 31.0447 65.2003C31.1447 65.2003 31.2447 65.2003 31.3447 65.2003L44.7447 63.4003C46.0447 63.2003 47.3447 62.8003 48.6447 62.3003L54.0447 60.1003C54.2447 60.0003 54.3447 59.8003 54.2447 59.6003C54.1447 59.4003 53.9447 59.3003 53.7447 59.4003L48.3447 61.6003C47.1447 62.1003 45.9447 62.4003 44.6447 62.6003L31.2447 64.4003C30.4447 64.5003 29.6447 63.9003 29.5447 63.1003C29.2447 60.9003 29.8447 58.0003 34.5447 56.4003L47.3447 51.8003L53.1447 49.2003C55.2447 48.3003 57.4447 47.9003 59.7447 48.1003L68.0447 48.8003C69.2447 48.9003 70.4447 49.2003 71.6447 49.6003L81.3447 53.2003L74.5447 68.6003L68.7447 65.6003C67.2447 64.8003 65.5447 64.7003 63.9447 65.2003L39.7447 73.3003C38.0447 73.9003 36.2447 73.7003 34.6447 72.8003L1.14473 54.0003C1.04473 54.0003 -0.855278 52.8003 0.544724 50.3003C1.54472 48.6003 4.84473 47.7003 9.64473 50.0003Z" fill="#53AA7E"/>
<path d="M11.7446 12.3C11.7446 12.3 13.3446 14.4 20.8446 16.4C28.3446 18.4 27.9446 27 27.9446 27C27.9446 27 24.4446 22.1 19.3446 20.7C19.3446 20.7 26.4446 25.7 28.3446 28.8L32.8446 35.1L34.4446 29.7C35.5446 24.7 42.7446 14.8 42.7446 14.8C36.6446 18.9 34.2446 27 34.2446 27C34.2446 27 29.7446 15.7 38.8446 9.6C47.9446 3.5 49.1446 0 49.1446 0C49.1446 0 55.0446 8.6 52.6446 16.2C51.4446 19.9 48.4446 22.7 45.2446 24.7C43.9446 25.5 42.5446 26.2 41.1446 26.8C40.5446 27 39.9446 27.2 39.4446 27.6C38.3446 28.3 37.4446 29.5 36.6446 30.5C35.7446 31.7 35.0446 33 34.4446 34.3C33.8446 35.8 33.4446 37.4 33.2446 39C33.2446 39 33.2446 39.9 33.2446 40.4L47.1446 50.9L47.0446 51L34.3446 55.6C32.4446 56.3 31.1446 57.1 30.2446 58.1L22.2446 55L16.0446 52L31.7446 40.3L32.4446 37.1C32.1446 36.4 31.5446 35 31.5446 34.9C31.0446 33.9 30.3446 32.9 29.6446 32C28.9446 31.2 28.1446 30.5 27.3446 29.9C26.5446 29.4 25.7446 28.8 24.7446 28.6C24.3446 28.5 23.8446 28.5 23.3446 28.5C22.2446 28.4 21.1446 28.3 20.1446 28C17.5446 27.4 14.8446 26.2 13.1446 24C9.74458 19.5 11.7446 12.3 11.7446 12.3Z" fill="#53AA7E"/>
</svg>
