<svg width="90" height="101" viewBox="0 0 90 101" fill="none" xmlns="http://www.w3.org/2000/svg">
<path d="M29.9748 57.1089C29.9748 52.6977 31.9014 46.3915 34.7749 39.4326C29.5519 30.157 24.9842 22.9873 24.9842 22.9873C24.9842 22.9873 0.0498047 62.1147 0.0498047 75.8835C0.0498047 89.6549 11.2141 100.818 24.9842 100.818C35.0526 100.818 43.7058 94.8387 47.6423 86.2461C37.1522 80.7467 29.9748 69.7528 29.9748 57.1089Z" fill="#3166E0"/>
<path d="M62.8589 0C55.6778 11.6857 43.7889 32.4526 38.7111 46.6241C37.2012 50.8384 36.2871 54.4769 36.2871 57.1105C36.2871 66.9062 41.63 75.4596 49.5408 80.069C53.4622 82.3491 58.0008 83.681 62.8589 83.681C77.5103 83.681 89.4308 71.7618 89.4308 57.1092C89.4308 45.6129 72.1749 15.1588 62.8589 0Z" fill="#3166E0"/>
</svg>
