<svg width="44" height="42" viewBox="0 0 44 42" fill="none" xmlns="http://www.w3.org/2000/svg">
<path d="M5.01859 23.8281H5.7175V26.6237H4.31968V28.0216H8.51314V26.6237H7.11532V23.8281H7.81423C11.0264 23.8281 12.7066 21.3672 12.7066 18.9357V18.2368H12.0077C8.72968 18.2368 7.16835 19.5816 6.41641 20.8618C5.66445 19.5816 4.10314 18.2368 0.82513 18.2368H0.126221V18.9357C0.126221 21.3672 1.8064 23.8281 5.01859 23.8281Z" fill="#E68331"/>
<path d="M14.8032 35.0112C18.0154 35.0112 19.6956 32.5503 19.6956 30.1188V29.4199H18.9967C15.7187 29.4199 14.1574 30.7647 13.4054 32.0449C12.6535 30.7647 11.0921 29.4199 7.81414 29.4199H7.11523V30.1188C7.11523 32.5503 8.79541 35.0112 12.0076 35.0112H12.7065V37.8068H11.3087V39.2047H15.5021V37.8068H14.1043V35.0112H14.8032Z" fill="#E68331"/>
<path d="M30.8781 39.2041V34.6855L34.7605 32.0977L33.9848 30.9346L33.2216 31.4435L32.9386 30.5964L31.6132 31.0382L32.016 32.2473L30.2678 33.4124L28.8821 32.0264L30.1429 28.2426L28.8175 27.8008L27.7769 30.9215L26.4799 29.6242L25.4915 30.6126L29.4803 34.6011V39.2043L30.8781 39.2041Z" fill="#E68331"/>
<path d="M22.4913 21.0327H21.0935V40.6022H0.126221V42H43.4586V40.6022H22.4913V21.0327Z" fill="#E68331"/>
<path d="M42.0608 19.6348H43.4586V21.0326H42.0608V19.6348Z" fill="#E68331"/>
<path d="M23.8892 23.8286H32.975V25.2264H23.8892V23.8286Z" fill="#E68331"/>
<path d="M39.2651 28.022H42.0608V29.4198H39.2651V28.022Z" fill="#E68331"/>
<path d="M36.4697 37.8066H42.061V39.2045H36.4697V37.8066Z" fill="#E68331"/>
<path d="M35.0718 33.6128H39.2652V35.0106H35.0718V33.6128Z" fill="#E68331"/>
<path d="M21.0935 18.2368H18.9968C18.6111 18.2368 18.2979 18.5501 18.2979 18.9357V19.5738L21.0935 19.5822V18.2368Z" fill="#E68331"/>
<path d="M14.1045 14.7428C14.1045 14.3572 13.7913 14.0439 13.4056 14.0439H9.21216C8.05613 14.0439 7.11543 13.1032 7.11543 11.9472C7.11543 10.7911 8.05613 9.85046 9.21216 9.85046H10.61C10.9956 9.85046 11.3089 9.53719 11.3089 9.15155C11.3089 8.7659 10.9956 8.45264 10.61 8.45264H7.67864C6.53386 10.5453 5.84334 12.9194 5.73511 15.4417H13.4056C13.7913 15.4417 14.1045 15.1285 14.1045 14.7428Z" fill="#E68331"/>
<path d="M28.0827 5.65644C28.0827 4.88546 27.4559 4.25862 26.6849 4.25862H25.986C24.83 4.25862 23.8893 3.31793 23.8893 2.16189C23.8893 1.4037 24.298 0.743783 24.9027 0.375637C24.113 0.221813 23.3087 0.128207 22.4915 0.0932617V7.05424H26.6849C27.4559 7.05424 28.0827 6.42742 28.0827 5.65644Z" fill="#E68331"/>
<path d="M25.287 18.9362C25.287 17.7802 26.2277 16.8395 27.3837 16.8395H28.7815C29.1672 16.8395 29.4805 16.5262 29.4805 16.1406C29.4805 15.7549 29.1672 15.4417 28.7815 15.4417H25.9859C24.8299 15.4417 23.8892 14.501 23.8892 13.3449C23.8892 12.1889 24.8299 11.2482 25.9859 11.2482H32.2761V12.646H25.9859C25.6003 12.646 25.287 12.9593 25.287 13.3449C25.287 13.7306 25.6003 14.0438 25.9859 14.0438H28.7815C29.9376 14.0438 30.8783 14.9845 30.8783 16.1406C30.8783 17.2966 29.9376 18.2373 28.7815 18.2373H27.3837C26.9981 18.2373 26.6848 18.5506 26.6848 18.9362C26.6848 19.2626 26.9132 19.524 27.2159 19.6008L34.3391 19.6223L34.126 20.261L33.3622 19.7521L32.5872 20.915L36.4695 23.5035V28.022H37.8674V23.4189L41.1573 20.129L40.1691 19.1408L39.2653 20.0447L37.8674 18.6469V16.1405C37.8674 14.4653 37.5985 12.8235 37.0946 11.2447C33.6599 11.2041 30.8784 8.40128 30.8784 4.95793C30.8784 4.30863 30.9776 3.68176 31.1607 3.0918C30.2718 2.45093 29.3345 1.90365 28.3526 1.46338H25.986C25.6004 1.46338 25.2871 1.77664 25.2871 2.16229C25.2871 2.54793 25.6004 2.8612 25.986 2.8612H26.6849C28.2266 2.8612 29.4806 4.11516 29.4806 5.65684C29.4806 7.19851 28.2266 8.45248 26.6849 8.45248H22.4915V19.5863L25.4038 19.5947C25.3339 19.3866 25.2871 19.1679 25.2871 18.9358L25.287 18.9362ZM37.0798 22.2301L35.3319 21.0651L35.735 19.8566L35.8189 19.6273L36.8742 19.6307L38.2769 21.0329L37.0798 22.2301Z" fill="#E68331"/>
<path d="M42.0609 4.9578C42.0609 7.65982 39.8705 9.85016 37.1685 9.85016C34.4665 9.85016 32.2761 7.65982 32.2761 4.9578C32.2761 2.25577 34.4665 0.0654297 37.1685 0.0654297C39.8705 0.0654297 42.0609 2.25577 42.0609 4.9578Z" fill="#E68331"/>
<path d="M19.6957 3.56006C19.6957 4.7161 18.755 5.65679 17.5989 5.65679H16.2011C15.8155 5.65679 15.5022 5.97005 15.5022 6.3557C15.5022 6.74135 15.8155 7.05461 16.2011 7.05461H21.0935V0.0830078C19.0192 0.172556 17.0476 0.658358 15.2485 1.46333H17.5989C18.755 1.46333 19.6957 2.40403 19.6957 3.56006Z" fill="#E68331"/>
<path d="M12.0075 16.8394H5.71729V18.1583C5.97033 18.3295 6.20434 18.509 6.41619 18.7005C7.58964 17.6425 9.36064 16.8394 12.0075 16.8394Z" fill="#E68331"/>
<path d="M12.7066 9.15152C12.7066 10.3076 11.7659 11.2482 10.6099 11.2482H9.21209C8.82645 11.2482 8.51318 11.5615 8.51318 11.9472C8.51318 12.3328 8.82645 12.6461 9.21209 12.6461H13.4056C14.5616 12.6461 15.5023 13.5868 15.5023 14.7428C15.5023 15.6542 14.9179 16.4314 14.1045 16.72V18.9363C14.1045 19.1447 14.092 19.3528 14.0717 19.5618L16.9001 19.5703V18.9362C16.9001 17.7802 17.8408 16.8395 18.9968 16.8395H21.0935V8.4526H16.2012C15.0451 8.4526 14.1044 7.51191 14.1044 6.35588C14.1044 5.19984 15.0451 4.25915 16.2012 4.25915H17.599C17.9846 4.25915 18.2979 3.94588 18.2979 3.56024C18.2979 3.17459 17.9846 2.86133 17.599 2.86133H12.745C11.0975 3.98741 9.67104 5.41111 8.54025 7.05479H10.6098C11.7659 7.05479 12.7065 7.99548 12.7065 9.15151L12.7066 9.15152Z" fill="#E68331"/>
</svg>
