<svg width="24" height="20" viewBox="0 0 24 20" fill="none" xmlns="http://www.w3.org/2000/svg">
<path d="M0.323683 14.5606L2.39545 19.2468C2.49403 19.4688 2.74074 19.5675 2.96269 19.4688L5.10845 18.5069C5.33039 18.4083 5.42914 18.1616 5.33039 17.9396L3.25862 13.2534C3.16004 13.0314 2.91333 12.9327 2.69138 13.0314L0.545623 13.9934C0.323683 14.0919 0.224933 14.3387 0.323683 14.5606Z" fill="#D29434"/>
<path d="M21.3378 12.8591L18.3287 14.2896L16.3555 15.0542C16.6269 15.4489 16.6269 15.8681 16.6022 16.1395C16.5529 16.4108 16.3309 16.6081 16.0596 16.6081H15.9857L12.6807 16.1643C12.36 16.1149 12.0394 16.0163 11.7188 15.8929L10.387 15.3503C10.3376 15.3257 10.313 15.2763 10.3376 15.227C10.3622 15.1776 10.4116 15.153 10.4609 15.1776L11.7927 15.7202C12.0887 15.8436 12.3847 15.9175 12.7053 15.9669L16.0103 16.4108C16.2076 16.4354 16.4049 16.2874 16.4295 16.0901C16.5035 15.5475 16.3556 14.8323 15.1963 14.4376L12.0393 13.3029L10.6087 12.6617C10.0907 12.4398 9.54825 12.341 8.98083 12.3904L6.93369 12.5631C6.63777 12.5877 6.3417 12.6617 6.04577 12.7605L3.65332 13.6484L5.33076 17.4466L6.7613 16.7066C7.1312 16.5093 7.55065 16.4847 7.94515 16.6081L13.9139 18.6058C14.3332 18.7538 14.7773 18.7044 15.1718 18.4825L23.4344 13.8456C23.459 13.8456 23.9276 13.5496 23.5823 12.933C23.3358 12.5137 22.5218 12.2918 21.3378 12.859L21.3378 12.8591Z" fill="#D29434"/>
<path d="M20.8198 3.56022C20.8198 3.56022 20.4251 4.07826 18.5753 4.57151C16.7254 5.06475 16.824 7.18589 16.824 7.18589C16.824 7.18589 17.6873 5.97729 18.9451 5.63199C18.9451 5.63199 17.1939 6.86521 16.7254 7.62976L15.6156 9.18366L15.2209 7.85187C14.9496 6.61865 13.1738 4.17683 13.1738 4.17683C14.6783 5.18812 15.2703 7.18589 15.2703 7.18589C15.2703 7.18589 16.3802 4.39877 14.1357 2.89424C11.8912 1.38971 11.5952 0.526367 11.5952 0.526367C11.5952 0.526367 10.1401 2.64751 10.7319 4.52196C11.0278 5.4345 11.7678 6.12506 12.5571 6.61852C12.8778 6.81586 13.2231 6.98842 13.5684 7.13656C13.7164 7.18594 13.8643 7.23514 13.9877 7.3339C14.259 7.50663 14.4809 7.80257 14.6783 8.04908C14.9002 8.345 15.0729 8.66569 15.2209 8.98637C15.3688 9.35627 15.4676 9.75092 15.5168 10.1456V10.4909L12.0885 13.0807L12.1131 13.1053L15.2455 14.24C15.7141 14.4127 16.0348 14.6098 16.2568 14.8566L18.23 14.092L19.7591 13.352L15.8869 10.4663L15.7141 9.67695C15.7881 9.50421 15.9361 9.15891 15.9361 9.13433C16.0594 8.88762 16.232 8.64109 16.4048 8.41915C16.5775 8.22181 16.7747 8.04925 16.972 7.90111C17.1693 7.77775 17.3667 7.62979 17.6132 7.58042C17.7118 7.55582 17.8352 7.55582 17.9585 7.55582C18.2298 7.53122 18.5011 7.50644 18.7479 7.43246C19.3891 7.2845 20.0551 6.98859 20.4743 6.44597C21.3131 5.33612 20.8198 3.56022 20.8198 3.56022Z" fill="#D29434"/>
</svg>
