<svg width="52" height="52" viewBox="0 0 52 52" fill="none" xmlns="http://www.w3.org/2000/svg">
<path d="M48.7895 16.8126C48.5733 16.9466 48.3329 17.0368 48.082 17.0779H47.8962C47.388 17.1862 46.8615 17.174 46.3589 17.042C45.8563 16.9101 45.3916 16.6623 45.002 16.3183C44.6125 15.9744 44.309 15.5439 44.1159 15.0615C43.9228 14.5791 43.8454 14.0581 43.89 13.5404C43.8941 13.3602 43.9239 13.1815 43.9784 13.0098C44.0282 12.856 44.0873 12.7054 44.1553 12.5587C44.2421 12.3361 44.3613 12.1275 44.5091 11.9397C44.5558 11.8409 44.6152 11.7488 44.6859 11.6655C44.9337 11.4073 45.2029 11.1706 45.4907 10.958C41.5111 6.05233 35.7908 2.87286 29.5235 2.08302C23.2562 1.29318 16.9259 2.95399 11.8536 6.71889C6.78123 10.4838 3.35861 16.062 2.29987 22.2895C1.24113 28.5171 2.62805 34.9129 6.17124 40.1425L6.25968 40.0541C6.35424 39.9553 6.47844 39.8901 6.61343 39.8684C6.71096 39.8195 6.80289 39.7602 6.88759 39.6915C7.45485 39.4228 8.08599 39.3184 8.70954 39.3901C9.33309 39.4617 9.92414 39.7066 10.4157 40.0969C10.9072 40.4872 11.2797 41.0073 11.4908 41.5984C11.7019 42.1895 11.7432 42.8279 11.6102 43.4413C11.4994 43.812 11.3512 44.1706 11.168 44.5114C11.0454 44.7366 10.8938 44.9447 10.717 45.1304C14.32 48.036 18.6712 49.8635 23.2684 50.4018C27.8657 50.9402 32.5214 50.1675 36.6982 48.1729C40.8751 46.1784 44.4027 43.0433 46.8739 39.1295C49.3451 35.2158 50.6592 30.683 50.6643 26.0544C50.5974 22.8864 49.9624 19.7562 48.7895 16.8126Z" fill="white"/>
<path d="M11.5219 43.0789C11.4573 43.5793 11.3046 44.0644 11.0708 44.5116C10.9652 44.6684 10.8469 44.8163 10.7171 44.9538C10.4096 45.3154 10.0275 45.6061 9.59697 45.8061C9.16648 46.0061 8.69782 46.1105 8.22315 46.1123C7.77801 46.1135 7.33702 46.0266 6.92554 45.8568C6.51406 45.687 6.1402 45.4376 5.82543 45.1228C5.51067 44.808 5.26122 44.4342 5.09141 44.0227C4.9216 43.6112 4.83479 43.1703 4.83596 42.7251C4.83411 42.2283 4.94545 41.7375 5.1615 41.29C5.37756 40.8426 5.69267 40.4503 6.08294 40.1427C6.12458 40.0876 6.17789 40.0424 6.23904 40.0103C6.3002 39.9782 6.36768 39.96 6.43668 39.957L6.52513 39.8686C6.98423 39.5894 7.50906 39.4369 8.04626 39.4264C8.52244 39.4097 8.99676 39.4941 9.4379 39.6742C9.87904 39.8543 10.277 40.1259 10.6054 40.471C10.9339 40.8162 11.1854 41.2271 11.3434 41.6767C11.5014 42.1262 11.5622 42.6041 11.5219 43.0789Z" fill="white"/>
<path d="M47.2769 17.1308C46.8114 17.1363 46.3501 17.0427 45.9236 16.8562C45.4971 16.6697 45.1151 16.3946 44.8031 16.0491C44.4911 15.7036 44.2562 15.2957 44.1139 14.8525C43.9717 14.4092 43.9254 13.9408 43.9782 13.4783C43.9822 13.2981 44.012 13.1194 44.0666 12.9477V12.762C44.1597 12.443 44.3095 12.1434 44.5088 11.8776C44.5555 11.7788 44.6149 11.6867 44.6856 11.6034C45.0036 11.2227 45.3993 10.9145 45.8463 10.6994C46.2932 10.4843 46.781 10.3674 47.2769 10.3564C48.1752 10.3564 49.0368 10.7133 49.672 11.3485C50.3072 11.9837 50.6641 12.8453 50.6641 13.7436C50.6785 14.3516 50.5199 14.9512 50.2068 15.4726C49.8936 15.994 49.4388 16.4157 48.8953 16.6886C48.6652 16.7916 48.4289 16.8802 48.1878 16.9539H48.0021C47.8183 17.074 47.6025 17.1357 47.383 17.1308H47.2769Z" fill="white"/>
<path d="M5.103 40.8502C2.07355 36.5122 0.455308 31.3456 0.468834 26.0546C0.470641 21.6961 1.5851 17.4102 3.70664 13.6029C5.82817 9.79553 8.88654 6.59284 12.5921 4.29814C16.2976 2.00344 20.5276 0.692706 24.8814 0.490087C29.2352 0.287468 33.5686 1.19967 37.4713 3.1403C40.9105 4.87159 43.9291 7.33475 46.3151 10.3568C46.4267 10.4705 46.5132 10.6062 46.5691 10.7554C46.6251 10.9045 46.6492 11.0637 46.6399 11.2227C46.6306 11.3817 46.5881 11.537 46.5152 11.6786C46.4422 11.8202 46.3404 11.9449 46.2164 12.0448C46.0923 12.1447 45.9487 12.2175 45.7948 12.2585C45.6409 12.2995 45.4801 12.3078 45.3228 12.2829C45.1655 12.2581 45.0151 12.2005 44.8814 12.114C44.7476 12.0275 44.6335 11.914 44.5463 11.7807C41.5419 7.93146 37.4102 5.11678 32.7284 3.72983C28.0466 2.34288 23.0485 2.45292 18.4322 4.04459C13.816 5.63626 9.81222 8.63006 6.98014 12.6078C4.14807 16.5855 2.62915 21.3485 2.63557 26.2314C2.62887 31.0855 4.11383 35.8244 6.88943 39.8067C6.97817 39.922 7.04179 40.0547 7.0762 40.1962C7.11061 40.3376 7.11505 40.4847 7.08923 40.6279C7.06341 40.7712 7.0079 40.9075 6.92627 41.028C6.84465 41.1485 6.73872 41.2506 6.61528 41.3278C6.34583 41.4262 6.05142 41.4327 5.77789 41.3463C5.50436 41.2599 5.26707 41.0855 5.103 40.8502Z" fill="#2E5F44"/>
<path d="M42.8219 13.275C42.9642 12.1484 43.5295 11.118 44.4033 10.3927C45.2771 9.66731 46.3939 9.30128 47.5275 9.36875C48.6611 9.43623 49.7266 9.93216 50.5082 10.756C51.2897 11.5799 51.7288 12.6701 51.7365 13.8057C51.7323 14.7953 51.3962 15.7549 50.7822 16.5309C50.1681 17.3069 49.3114 17.8545 48.3493 18.0861C47.6504 18.2723 46.9164 18.2842 46.2118 18.1207C45.5072 17.9573 44.8534 17.6235 44.3078 17.1486C43.7622 16.6737 43.3414 16.0723 43.0824 15.3969C42.8233 14.7216 42.7339 13.993 42.8219 13.275ZM47.2438 16.0343C47.7821 15.9661 48.2769 15.7039 48.6356 15.2968C48.9943 14.8898 49.1922 14.3659 49.1922 13.8234C49.1922 13.2808 48.9943 12.7569 48.6356 12.3499C48.2769 11.9428 47.7821 11.6806 47.2438 11.6124C46.7604 11.607 46.2895 11.766 45.9084 12.0635C45.6975 12.2406 45.5156 12.4494 45.369 12.6825C45.369 12.771 45.2805 12.8594 45.2805 12.9567C45.1699 13.1446 45.109 13.3577 45.1036 13.5757V13.6642C45.0572 13.9706 45.0796 14.2836 45.1693 14.5803C45.2589 14.877 45.4135 15.15 45.6218 15.3795C45.8302 15.609 46.087 15.7893 46.3737 15.9071C46.6604 16.025 46.9697 16.0775 47.2792 16.0608L47.2438 16.0343Z" fill="#2E5F44"/>
<path d="M8.22337 47.271C7.05061 47.271 5.92587 46.8051 5.0966 45.9758C4.26734 45.1466 3.80148 44.0218 3.80148 42.8491C3.78936 42.1776 3.93604 41.5128 4.22958 40.9088C4.52312 40.3049 4.95522 39.7788 5.49064 39.3734C6.26437 38.7224 7.2477 38.3737 8.25873 38.3918C8.95694 38.3986 9.64405 38.5673 10.2659 38.8848C10.8878 39.2024 11.4275 39.6599 11.8424 40.2215C12.2574 40.783 12.5363 41.4333 12.6572 42.121C12.7781 42.8087 12.7377 43.5151 12.5391 44.1845C12.4227 44.5545 12.2716 44.9128 12.0881 45.2546C11.9286 45.5558 11.7193 45.8279 11.469 46.0594C10.5611 46.8287 9.41331 47.2572 8.22337 47.271ZM5.99472 42.8491C5.99236 43.1424 6.0484 43.4332 6.15957 43.7047C6.27073 43.9762 6.43482 44.2228 6.64224 44.4302C6.84966 44.6376 7.09628 44.8017 7.36773 44.9129C7.63919 45.024 7.93005 45.0801 8.22337 45.0777C8.81221 45.0613 9.37745 44.8427 9.82409 44.4586C9.89683 44.3769 9.95648 44.2844 10.001 44.1845C10.2387 43.846 10.3785 43.4485 10.4047 43.0357C10.431 42.6229 10.3428 42.2109 10.1498 41.845C9.95679 41.4792 9.66655 41.1737 9.31103 40.9623C8.95551 40.7509 8.54852 40.6418 8.13493 40.647H7.94036C7.6662 40.647 7.6662 40.647 7.57776 40.7354C7.48933 40.8238 7.48934 40.7354 7.4009 40.8238C7.31954 40.8713 7.22918 40.9015 7.13557 40.9123C7.04714 41.0007 7.04713 41.0007 6.77298 41.0891C6.36659 41.5857 6.09816 42.1805 5.99472 42.8137V42.8491Z" fill="#2E5F44"/>
<path d="M26.0542 18.9177H20.8806C20.0371 18.92 19.2016 18.7555 18.4221 18.4336C17.6425 18.1116 16.9344 17.6386 16.3384 17.0418C15.7424 16.445 15.2704 15.7362 14.9496 14.9562C14.6287 14.1763 14.4653 13.3405 14.4688 12.4971H19.6336C20.4774 12.4948 21.3134 12.6592 22.0934 12.9811C22.8734 13.3029 23.5821 13.7758 24.1788 14.3724C24.7755 14.9691 25.2483 15.6778 25.5702 16.4579C25.892 17.2379 26.0565 18.0739 26.0542 18.9177Z" fill="#67BD8C"/>
<path d="M32.4754 22.756H37.649C37.6513 23.5998 37.4869 24.4357 37.165 25.2158C36.8432 25.9958 36.3703 26.7045 35.7736 27.3012C35.177 27.8979 34.4682 28.3707 33.6882 28.6926C32.9082 29.0144 32.0722 29.1789 31.2284 29.1765H26.0548C26.0501 28.3321 26.2129 27.4951 26.534 26.714C26.855 25.9329 27.3277 25.2232 27.9249 24.626C28.522 24.0289 29.2317 23.5561 30.0128 23.2351C30.7939 22.9141 31.6309 22.7513 32.4754 22.756Z" fill="#67BD8C"/>
<path d="M26.0542 39.4265H20.8806C20.0369 39.43 19.2008 39.2663 18.4207 38.9447C17.6407 38.6232 16.932 38.1503 16.3358 37.5532C15.7396 36.9562 15.2677 36.2469 14.9472 35.4664C14.6268 34.6859 14.4642 33.8496 14.4688 33.0059H19.6336C20.4774 33.0035 21.3134 33.168 22.0934 33.4899C22.8735 33.8117 23.5822 34.2846 24.1789 34.8812C24.7755 35.4779 25.2484 36.1866 25.5702 36.9667C25.8921 37.7467 26.0566 38.5827 26.0542 39.4265Z" fill="#67BD8C"/>
<path d="M32.4753 33.0059H37.6489C37.6512 33.8497 37.4868 34.6857 37.1649 35.4657C36.8431 36.2457 36.3702 36.9545 35.7736 37.5511C35.1769 38.1478 34.4682 38.6207 33.6881 38.9425C32.9081 39.2643 32.0721 39.4288 31.2283 39.4265H26.0547C26.0524 38.5827 26.2168 37.7467 26.5387 36.9667C26.8605 36.1866 27.3334 35.4779 27.93 34.8812C28.5267 34.2846 29.2354 33.8117 30.0155 33.4899C30.7955 33.168 31.6315 33.0035 32.4753 33.0059Z" fill="#67BD8C"/>
<path d="M37.6489 12.3906C37.6524 13.2348 37.4887 14.0713 37.1673 14.8519C36.8459 15.6324 36.3731 16.3416 35.7762 16.9385C35.1793 17.5354 34.4701 18.0082 33.6895 18.3297C32.909 18.6511 32.0725 18.8147 31.2283 18.8112H26.0547C26.0524 17.9674 26.2168 17.1315 26.5387 16.3514C26.8605 15.5714 27.3334 14.8627 27.93 14.266C28.5267 13.6693 29.2354 13.1965 30.0155 12.8746C30.7955 12.5528 31.6315 12.3883 32.4753 12.3906H37.6489Z" fill="#67BD8C"/>
<path d="M26.0542 29.1941H20.8806C20.0369 29.1976 19.2008 29.0339 18.4207 28.7124C17.6407 28.3909 16.932 27.9179 16.3358 27.3209C15.7396 26.7239 15.2677 26.0146 14.9472 25.2341C14.6268 24.4535 14.4642 23.6173 14.4688 22.7735H19.6336C20.4781 22.7688 21.3151 22.9317 22.0962 23.2527C22.8773 23.5737 23.587 24.0465 24.1841 24.6436C24.7813 25.2408 25.254 25.9504 25.575 26.7315C25.896 27.5126 26.0589 28.3496 26.0542 29.1941Z" fill="#67BD8C"/>
<path d="M43.3884 30.6966L41.8125 32.2725L43.3884 33.8483L44.9643 32.2725L43.3884 30.6966Z" fill="#2E5F44"/>
<path d="M40.5329 16.6658L38.957 18.2417L40.5329 19.8176L42.1088 18.2417L40.5329 16.6658Z" fill="#2E5F44"/>
<path d="M11.529 28.908L9.95312 30.4839L11.529 32.0598L13.1049 30.4839L11.529 28.908Z" fill="#2E5F44"/>
<path d="M6.65791 21.1106L5.08203 22.6865L6.65792 24.2624L8.23379 22.6865L6.65791 21.1106Z" fill="#2E5F44"/>
<path d="M26.0531 46.563C25.7479 46.5563 25.4571 46.4321 25.2413 46.2162C25.0255 46.0004 24.9013 45.7097 24.8945 45.4045V9.28648C24.8945 8.97921 25.0166 8.68453 25.2338 8.46726C25.4511 8.25 25.7458 8.12793 26.0531 8.12793C26.3603 8.12793 26.655 8.25 26.8723 8.46726C27.0895 8.68453 27.2116 8.97921 27.2116 9.28648V45.4045C27.207 45.7104 27.0835 46.0024 26.8672 46.2187C26.6509 46.435 26.3589 46.5585 26.0531 46.563Z" fill="#2E5F44"/>
<path d="M31.2267 40.5848H26.0531C25.7472 40.5803 25.4552 40.4567 25.2389 40.2405C25.0226 40.0242 24.8991 39.7321 24.8945 39.4263C24.9015 37.4183 25.7023 35.4946 27.1221 34.0748C28.542 32.6549 30.4657 31.8542 32.4736 31.8472H37.6473C37.9531 31.8517 38.2451 31.9753 38.4614 32.1915C38.6777 32.4078 38.8012 32.6999 38.8058 33.0057C38.7988 35.0137 37.998 36.9374 36.5782 38.3572C35.1583 39.7771 33.2346 40.5778 31.2267 40.5848ZM27.3 38.3562H31.2267C31.9275 38.3662 32.6227 38.2288 33.2671 37.9531C33.9115 37.6774 34.4909 37.2693 34.9676 36.7555C35.695 36.0307 36.1932 35.1081 36.4003 34.1023H32.4736C31.7719 34.0924 31.0761 34.2306 30.4314 34.5079C29.7868 34.7853 29.208 35.1955 28.7327 35.7119C27.9902 36.4217 27.4892 37.3466 27.3 38.3562Z" fill="#2E5F44"/>
<path d="M26.0535 40.5848H20.8799C18.8734 40.5732 16.9523 39.771 15.5335 38.3521C14.1146 36.9333 13.3124 35.0122 13.3008 33.0057C13.3076 32.6991 13.4331 32.407 13.6508 32.191C13.8685 31.9749 14.1615 31.8517 14.4682 31.8472H19.6329C21.6409 31.8542 23.5646 32.6549 24.9845 34.0748C26.4043 35.4946 27.2051 37.4183 27.2121 39.4263C27.2075 39.7321 27.084 40.0242 26.8677 40.2405C26.6514 40.4567 26.3594 40.5803 26.0535 40.5848ZM15.7151 34.0758C15.9187 35.0809 16.414 36.0037 17.139 36.7289C18.1276 37.7328 19.4712 38.3077 20.8799 38.3297H24.8066C24.6025 37.3248 24.1073 36.4021 23.3827 35.6765C22.8948 35.1741 22.3123 34.7731 21.6687 34.4969C21.0252 34.2206 20.3333 34.0745 19.6329 34.067L15.7151 34.0758Z" fill="#2E5F44"/>
<path d="M31.2267 30.2377H26.0531C25.7472 30.2331 25.4552 30.1096 25.2389 29.8933C25.0226 29.677 24.8991 29.385 24.8945 29.0791C24.9061 27.0726 25.7084 25.1516 27.1272 23.7327C28.5461 22.3138 30.4671 21.5116 32.4736 21.5H37.6473C37.9539 21.5068 38.246 21.6323 38.462 21.85C38.6781 22.0677 38.8013 22.3607 38.8058 22.6674C38.803 23.6552 38.6046 24.6326 38.2221 25.5434C37.8396 26.4541 37.2805 27.2801 36.5772 27.9736C35.8964 28.7082 35.0674 29.2899 34.145 29.6802C33.2227 30.0705 32.2279 30.2605 31.2267 30.2377ZM27.3 28.009H31.2267C31.9279 28.0212 32.6237 27.8849 33.2684 27.609C33.9132 27.3331 34.4923 26.9239 34.9676 26.4083C35.6946 25.6832 36.1927 24.7607 36.4003 23.7552H32.4736C31.7726 23.7441 31.0771 23.8809 30.4325 24.1567C29.7879 24.4325 29.2088 24.8411 28.7327 25.3559C28.0255 26.0955 27.5306 27.012 27.3 28.009Z" fill="#2E5F44"/>
<path d="M26.0535 30.2377H20.8799C18.8749 30.2261 16.9552 29.4251 15.5366 28.0081C14.118 26.5912 13.3147 24.6724 13.3008 22.6674C13.3075 22.3599 13.4327 22.0669 13.6502 21.8494C13.8677 21.6319 14.1607 21.5068 14.4682 21.5H19.6329C21.6395 21.5116 23.5605 22.3138 24.9794 23.7327C26.3982 25.1516 27.2005 27.0726 27.2121 29.0791C27.217 29.2326 27.1904 29.3855 27.1339 29.5282C27.0774 29.671 26.9922 29.8007 26.8837 29.9093C26.7751 30.0178 26.6454 30.103 26.5026 30.1595C26.3599 30.216 26.207 30.2426 26.0535 30.2377ZM15.7151 23.8259C15.9172 24.8315 16.4127 25.7548 17.139 26.479C17.6258 26.9805 18.2069 27.3808 18.8489 27.657C19.4909 27.9332 20.1811 28.0799 20.8799 28.0886H24.8066C24.57 26.888 23.9257 25.8061 22.9829 25.026C22.0401 24.2459 20.8566 23.8157 19.6329 23.8082L15.7151 23.8259Z" fill="#2E5F44"/>
<path d="M31.2267 19.9877H26.0531C25.7472 19.9831 25.4552 19.8596 25.2389 19.6433C25.0226 19.427 24.8991 19.135 24.8945 18.8291C24.9015 16.8212 25.7023 14.8974 27.1221 13.4776C28.542 12.0578 30.4657 11.257 32.4736 11.25H37.6473C37.9501 11.2544 38.2396 11.3755 38.4554 11.588C38.6712 11.8005 38.7967 12.0881 38.8058 12.3908C38.8093 13.388 38.6158 14.3759 38.2364 15.2981C37.8569 16.2202 37.299 17.0582 36.5948 17.7641C35.8905 18.47 35.0538 19.0298 34.1326 19.4114C33.2113 19.793 32.2238 19.9888 31.2267 19.9877ZM27.3 17.759H31.2267C32.4498 17.763 33.6376 17.3498 34.5943 16.5877C35.5509 15.8256 36.2192 14.7601 36.4887 13.5671H32.5621C31.8604 13.5571 31.1645 13.6953 30.5199 13.9727C29.8752 14.25 29.2964 14.6603 28.8211 15.1766C28.0384 15.8421 27.5025 16.7518 27.3 17.759Z" fill="#2E5F44"/>
<path d="M26.0535 19.9877H20.8799C18.8698 19.9877 16.942 19.1892 15.5207 17.7678C14.0993 16.3464 13.3008 14.4186 13.3008 12.4085C13.3076 12.1019 13.4331 11.8098 13.6508 11.5938C13.8685 11.3777 14.1615 11.2545 14.4682 11.25H19.6329C21.6409 11.257 23.5646 12.0578 24.9845 13.4776C26.4043 14.8974 27.2051 16.8212 27.2121 18.8291C27.217 18.9826 27.1904 19.1354 27.1339 19.2782C27.0774 19.421 26.9922 19.5507 26.8837 19.6593C26.7751 19.7678 26.6454 19.853 26.5026 19.9095C26.3599 19.966 26.207 19.9926 26.0535 19.9877ZM15.7151 13.5671C15.9817 14.7616 16.6492 15.8289 17.6065 16.5916C18.5638 17.3542 19.7533 17.7662 20.9772 17.759H24.895C24.6909 16.7541 24.1957 15.8315 23.4711 15.1059C22.9833 14.6034 22.4007 14.2025 21.7572 13.9262C21.1136 13.65 20.4217 13.5039 19.7214 13.4963H15.7151V13.5671Z" fill="#2E5F44"/>
<path d="M26.0537 51.7281C20.1791 51.7059 14.487 49.6848 9.91382 45.9973C9.70249 45.8004 9.57374 45.5306 9.55357 45.2424C9.53339 44.9542 9.62328 44.6691 9.80511 44.4446C9.98693 44.2202 10.2472 44.073 10.5332 44.0329C10.8193 43.9928 11.11 44.0627 11.3465 44.2286C14.7779 47.0269 18.9332 48.7934 23.3292 49.3228C27.7252 49.8521 32.1811 49.1224 36.1786 47.2186C40.1762 45.3148 43.551 42.3151 45.9106 38.5685C48.2701 34.8219 49.5175 30.4823 49.5075 26.0546C49.4898 23.0273 48.9141 20.0293 47.8094 17.2108C47.7426 17.0736 47.7049 16.9241 47.6987 16.7716C47.6925 16.6192 47.7179 16.4671 47.7733 16.325C47.8287 16.1828 47.913 16.0537 48.0208 15.9457C48.1285 15.8377 48.2575 15.7531 48.3996 15.6974C48.5416 15.6417 48.6937 15.616 48.8461 15.6219C48.9986 15.6278 49.1482 15.6653 49.2855 15.7318C49.4228 15.7984 49.5448 15.8926 49.6439 16.0087C49.743 16.1247 49.817 16.26 49.8612 16.406C51.1073 19.4976 51.7439 22.8009 51.7361 26.1342C51.7456 29.4956 51.0885 32.8256 49.8027 35.9315C48.517 39.0373 46.6281 41.8574 44.2454 44.2286C39.4127 49.0369 32.8711 51.7337 26.0537 51.7281Z" fill="#2E5F44"/>
</svg>
