<svg width="43" height="42" viewBox="0 0 43 42" fill="none" xmlns="http://www.w3.org/2000/svg">
<circle cx="21.75" cy="21" r="20.5" fill="white" stroke="#D9D9D9"/>
<path d="M35.1502 20.5C34.9502 20.2 34.6502 20 34.2502 20C32.0502 20 29.9502 21 28.6502 22.8L27.7502 24C26.6502 25.3 24.9502 26 23.2502 26H20.2502C19.6502 26 19.2502 25.6 19.2502 25C19.2502 24.4 19.6502 24 20.2502 24H22.1502C23.7502 24 25.2502 22.7 25.2502 21.1V21C25.2502 20.5 24.7502 20 24.2502 20H18.1502C14.5502 20 11.6502 21.6 10.0502 24.2L7.3502 28.4C7.1502 28.7 7.1502 29.1 7.3502 29.4L10.3502 34.4C10.4502 34.6 10.7502 34.8 10.9502 34.9C11.0502 34.9 11.0502 34.9 11.1502 34.9C11.3502 34.9 11.5502 34.8 11.7502 34.7C15.5502 32.2 19.9502 30.9 24.4502 30.9C27.7502 30.9 30.7502 29.1 32.3502 26.2L35.0502 21.4C35.2502 21.2 35.2502 20.8 35.1502 20.5Z" fill="#AE7003"/>
<path d="M23.8982 6.68595C23.8982 5.75512 24.6107 5 25.4903 5C26.3699 5 27.0824 5.75453 27.0824 6.68595C27.0824 7.61736 26.3699 8.37189 25.4903 8.37189C24.6107 8.37189 23.8982 7.61677 23.8982 6.68595ZM25.9714 12.7081C26.3133 12.3214 26.7922 12.0764 27.4004 11.9765C27.5386 11.9542 27.6851 11.9406 27.8366 11.9312C27.8854 11.9295 27.9315 11.9242 27.9803 11.9242H28.9276C28.2322 11.618 27.7395 10.8894 27.7395 10.042C27.7395 9.70408 27.8188 9.38381 27.9581 9.1041C27.4642 8.91311 27.0086 8.91605 27.0086 8.91605H23.816C23.4592 8.92487 23.1595 8.97246 22.9082 9.05121C23.0641 9.34503 23.1534 9.68351 23.1534 10.042C23.1534 10.8894 22.6612 11.6174 21.9648 11.9242H22.7483C22.7578 11.923 22.7666 11.923 22.7766 11.923C22.8321 11.923 22.8926 11.9254 22.9537 11.9301C23.0841 11.9401 23.2267 11.9612 23.3743 11.9929C24.1756 12.171 25.1423 12.7293 25.2494 14.0656L25.2506 14.0955V15.138H25.4514L25.4526 14.0955C25.4514 14.0808 25.4237 13.3275 25.9714 12.7081ZM21.1307 11.7456C22.0086 11.7456 22.7228 10.9893 22.7228 10.0584C22.7228 9.1276 22.0086 8.37248 21.1307 8.37248C20.2517 8.37248 19.5386 9.1276 19.5386 10.0584C19.5386 10.9887 20.2522 11.7456 21.1307 11.7456ZM22.6484 12.2891H19.4564C17.1712 12.3338 17.2506 14.1126 17.2506 14.1126L17.25 18.259H17.2522C17.2522 18.269 17.2506 18.2796 17.2506 18.2884C17.2506 18.6821 17.553 19 17.9237 19C18.295 19 18.5946 18.6821 18.5946 18.2884C18.5946 18.279 18.5935 18.269 18.5918 18.259H18.5946V14.4205H19.0153L19.0119 18.5093L23.0441 18.5128L23.0408 14.4017H23.477V18.2584H23.4792C23.4792 18.2584 23.4792 18.2619 23.4792 18.2643C23.4792 18.6574 23.7794 18.9759 24.149 18.9759C24.5203 18.9759 24.821 18.6574 24.821 18.2643C24.821 18.2619 24.821 18.2584 24.821 18.2584V14.112C24.674 12.2615 22.6484 12.2891 22.6484 12.2891ZM29.5613 11.745C30.4409 11.745 31.154 10.9898 31.154 10.0584C31.154 9.12702 30.4409 8.37189 29.5613 8.37189C28.6817 8.37189 27.9686 9.12702 27.9686 10.0584C27.9692 10.9898 28.6817 11.745 29.5613 11.745ZM31.0796 12.2891H27.8865C25.6007 12.3338 25.6817 14.1126 25.6817 14.1126L25.6806 18.259H25.6834C25.6834 18.269 25.6817 18.2796 25.6817 18.2884C25.6817 18.6821 25.9836 19 26.3543 19C26.7256 19 27.0247 18.6821 27.0247 18.2884C27.0247 18.279 27.023 18.269 27.0225 18.259H27.0247V14.4205H27.4464L27.4415 18.5093L31.4736 18.5128L31.4703 14.4017H31.9065V18.2584H31.9076C31.9076 18.2584 31.9076 18.2619 31.9076 18.2643C31.9076 18.6574 32.2084 18.9759 32.5791 18.9759C32.9492 18.9759 33.25 18.6574 33.25 18.2643C33.25 18.2619 33.25 18.2584 33.25 18.2584V14.112C33.1046 12.2615 31.0796 12.2891 31.0796 12.2891Z" fill="#2E5F44"/>
</svg>
