<svg width="43" height="42" viewBox="0 0 43 42" fill="none" xmlns="http://www.w3.org/2000/svg">
<circle cx="21.75" cy="21" r="20.5" fill="white" stroke="#D9D9D9"/>
<path d="M29.0547 17.1734C30.0695 17.1734 30.8922 17.9962 30.8922 19.0109C30.8922 20.0257 30.0695 20.8484 29.0547 20.8484C28.0399 20.8484 27.2172 20.0257 27.2172 19.0109C27.2172 17.9962 28.0399 17.1734 29.0547 17.1734ZM26.7906 21.7453C27.8054 21.7453 28.6281 22.568 28.6281 23.5828C28.6281 24.5976 27.8054 25.4203 26.7906 25.4203C25.7758 25.4203 24.9531 24.5976 24.9531 23.5828C24.9531 22.568 25.7758 21.7453 26.7906 21.7453ZM23.8594 25.7594H21.7922H19.725C18.4672 25.7594 17.6797 26.7984 17.6797 28.1V31.3047H19.0906V28.4719C19.0906 28.3406 19.2 28.2531 19.3094 28.2531C19.4406 28.2531 19.5281 28.3406 19.5281 28.4719V31.2937H24.0672V28.4719C24.0672 28.3406 24.1766 28.2531 24.2859 28.2531C24.4172 28.2531 24.5047 28.3625 24.5047 28.4719V31.2937H25.9156V28.1109C25.9375 26.7984 25.1391 25.7594 23.8594 25.7594ZM24.3734 17.1734C25.3882 17.1734 26.2109 17.9962 26.2109 19.0109C26.2109 20.0257 25.3882 20.8484 24.3734 20.8484C23.3587 20.8484 22.5359 20.0257 22.5359 19.0109C22.5359 17.9962 23.3587 17.1734 24.3734 17.1734ZM29.7766 23.5828C29.7766 24.6 30.5969 25.4203 31.6141 25.4203C32.6312 25.4203 33.4516 24.6 33.4516 23.5828C33.4516 22.5656 32.6312 21.7453 31.6141 21.7453C30.5969 21.7453 29.7766 22.5656 29.7766 23.5828ZM29.5906 25.7594C28.3328 25.7594 27.5453 26.7984 27.5453 28.1V31.3047H28.9562V28.4719C28.9562 28.3406 29.0656 28.2531 29.175 28.2531C29.3062 28.2531 29.3937 28.3406 29.3937 28.4719V31.2937H33.9328V28.4719C33.9328 28.3406 34.0422 28.2531 34.1516 28.2531C34.2828 28.2531 34.3703 28.3625 34.3703 28.4719V31.2937H35.7812V28.1109C35.8031 26.7875 35.0047 25.7484 33.7359 25.7484H31.6687H29.5906V25.7594ZM12.3531 21.7453C13.3679 21.7453 14.1906 22.568 14.1906 23.5828C14.1906 24.5976 13.3679 25.4203 12.3531 25.4203C11.3383 25.4203 10.5156 24.5976 10.5156 23.5828C10.5156 22.568 11.3383 21.7453 12.3531 21.7453ZM9.61875 31.2937V28.4719C9.61875 28.3406 9.72812 28.2531 9.8375 28.2531C9.96875 28.2531 10.0562 28.3406 10.0562 28.4719V31.2937H14.5953V28.4719C14.5953 28.3406 14.7047 28.2531 14.8141 28.2531C14.9453 28.2531 15.0328 28.3625 15.0328 28.4719V31.2937H16.4437V28.1109C16.4656 26.7875 15.6672 25.7484 14.3984 25.7484H12.3312H10.2641C9.00625 25.7484 8.21875 26.7875 8.21875 28.0891V31.2937H9.61875ZM19.9547 23.5828C19.9547 24.6 20.775 25.4203 21.7922 25.4203C22.8094 25.4203 23.6297 24.6 23.6297 23.5828C23.6297 22.5656 22.8094 21.7453 21.7922 21.7453C20.775 21.7453 19.9547 22.5656 19.9547 23.5828ZM14.7047 17.1734C15.7195 17.1734 16.5422 17.9962 16.5422 19.0109C16.5422 20.0257 15.7195 20.8484 14.7047 20.8484C13.6899 20.8484 12.8672 20.0257 12.8672 19.0109C12.8672 17.9962 13.6899 17.1734 14.7047 17.1734ZM19.6703 17.1734C20.6851 17.1734 21.5078 17.9962 21.5078 19.0109C21.5078 20.0257 20.6851 20.8484 19.6703 20.8484C18.6555 20.8484 17.8328 20.0257 17.8328 19.0109C17.8328 17.9962 18.6555 17.1734 19.6703 17.1734ZM17.1984 21.7453C18.2132 21.7453 19.0359 22.568 19.0359 23.5828C19.0359 24.5976 18.2132 25.4203 17.1984 25.4203C16.1837 25.4203 15.3609 24.5976 15.3609 23.5828C15.3609 22.568 16.1837 21.7453 17.1984 21.7453ZM24.5009 10.3165C24.5009 11.7025 23.3803 12.8053 22.012 12.8053C20.6437 12.8053 19.5232 11.6907 19.5232 10.3165C19.5232 8.9305 20.6437 7.82767 22.012 7.82767C23.3803 7.82767 24.5009 8.93641 24.5009 10.3165ZM29.4549 6.69531V13.9141H14.5455V6.69531H29.4549ZM27.2668 7.42069H16.7218C16.5272 8.14016 15.9905 8.73002 15.265 8.91278V11.6788C15.9846 11.8735 16.539 12.4632 16.7218 13.0648H27.2787C27.4732 12.4632 28.0217 11.8616 28.7471 11.6788V8.91289C28.0158 8.73002 27.4379 8.14027 27.2668 7.42069Z" fill="#78AF0A"/>
<path d="M30.8922 19.0109C30.8922 17.9962 30.0695 17.1734 29.0547 17.1734C28.0399 17.1734 27.2172 17.9962 27.2172 19.0109C27.2172 20.0257 28.0399 20.8484 29.0547 20.8484C30.0695 20.8484 30.8922 20.0257 30.8922 19.0109Z" fill="#2E5F44"/>
<path d="M28.6281 23.5828C28.6281 22.568 27.8054 21.7453 26.7906 21.7453C25.7758 21.7453 24.9531 22.568 24.9531 23.5828C24.9531 24.5976 25.7758 25.4203 26.7906 25.4203C27.8054 25.4203 28.6281 24.5976 28.6281 23.5828Z" fill="#2E5F44"/>
<path d="M21.7922 25.7594H23.8594C25.1391 25.7594 25.9375 26.7984 25.9156 28.1109V31.2937H24.5047V28.4719C24.5047 28.3625 24.4172 28.2531 24.2859 28.2531C24.1766 28.2531 24.0672 28.3406 24.0672 28.4719V31.2937H19.5281V28.4719C19.5281 28.3406 19.4406 28.2531 19.3094 28.2531C19.2 28.2531 19.0906 28.3406 19.0906 28.4719V31.3047H17.6797V28.1C17.6797 26.7984 18.4672 25.7594 19.725 25.7594H21.7922Z" fill="#2E5F44"/>
<path d="M26.2109 19.0109C26.2109 17.9962 25.3882 17.1734 24.3734 17.1734C23.3587 17.1734 22.5359 17.9962 22.5359 19.0109C22.5359 20.0257 23.3587 20.8484 24.3734 20.8484C25.3882 20.8484 26.2109 20.0257 26.2109 19.0109Z" fill="#2E5F44"/>
<path d="M31.6141 25.4203C30.5969 25.4203 29.7766 24.6 29.7766 23.5828C29.7766 22.5656 30.5969 21.7453 31.6141 21.7453C32.6312 21.7453 33.4516 22.5656 33.4516 23.5828C33.4516 24.6 32.6312 25.4203 31.6141 25.4203Z" fill="#2E5F44"/>
<path d="M27.5453 28.1C27.5453 26.7984 28.3328 25.7594 29.5906 25.7594V25.7484H31.6687H33.7359C35.0047 25.7484 35.8031 26.7875 35.7812 28.1109V31.2937H34.3703V28.4719C34.3703 28.3625 34.2828 28.2531 34.1516 28.2531C34.0422 28.2531 33.9328 28.3406 33.9328 28.4719V31.2937H29.3937V28.4719C29.3937 28.3406 29.3062 28.2531 29.175 28.2531C29.0656 28.2531 28.9562 28.3406 28.9562 28.4719V31.3047H27.5453V28.1Z" fill="#2E5F44"/>
<path d="M14.1906 23.5828C14.1906 22.568 13.3679 21.7453 12.3531 21.7453C11.3383 21.7453 10.5156 22.568 10.5156 23.5828C10.5156 24.5976 11.3383 25.4203 12.3531 25.4203C13.3679 25.4203 14.1906 24.5976 14.1906 23.5828Z" fill="#2E5F44"/>
<path d="M9.61875 28.4719V31.2937H8.21875V28.0891C8.21875 26.7875 9.00625 25.7484 10.2641 25.7484H12.3312H14.3984C15.6672 25.7484 16.4656 26.7875 16.4437 28.1109V31.2937H15.0328V28.4719C15.0328 28.3625 14.9453 28.2531 14.8141 28.2531C14.7047 28.2531 14.5953 28.3406 14.5953 28.4719V31.2937H10.0562V28.4719C10.0562 28.3406 9.96875 28.2531 9.8375 28.2531C9.72812 28.2531 9.61875 28.3406 9.61875 28.4719Z" fill="#2E5F44"/>
<path d="M21.7922 25.4203C20.775 25.4203 19.9547 24.6 19.9547 23.5828C19.9547 22.5656 20.775 21.7453 21.7922 21.7453C22.8094 21.7453 23.6297 22.5656 23.6297 23.5828C23.6297 24.6 22.8094 25.4203 21.7922 25.4203Z" fill="#2E5F44"/>
<path d="M16.5422 19.0109C16.5422 17.9962 15.7195 17.1734 14.7047 17.1734C13.6899 17.1734 12.8672 17.9962 12.8672 19.0109C12.8672 20.0257 13.6899 20.8484 14.7047 20.8484C15.7195 20.8484 16.5422 20.0257 16.5422 19.0109Z" fill="#2E5F44"/>
<path d="M21.5078 19.0109C21.5078 17.9962 20.6851 17.1734 19.6703 17.1734C18.6555 17.1734 17.8328 17.9962 17.8328 19.0109C17.8328 20.0257 18.6555 20.8484 19.6703 20.8484C20.6851 20.8484 21.5078 20.0257 21.5078 19.0109Z" fill="#2E5F44"/>
<path d="M19.0359 23.5828C19.0359 22.568 18.2132 21.7453 17.1984 21.7453C16.1837 21.7453 15.3609 22.568 15.3609 23.5828C15.3609 24.5976 16.1837 25.4203 17.1984 25.4203C18.2132 25.4203 19.0359 24.5976 19.0359 23.5828Z" fill="#2E5F44"/>
</svg>
