<svg width="43" height="42" viewBox="0 0 43 42" fill="none" xmlns="http://www.w3.org/2000/svg">
<circle cx="21.75" cy="21" r="20.5" fill="white" stroke="#D9D9D9"/>
<path d="M30.1665 9.3335H23.1665C22.8571 9.3335 22.5603 9.45641 22.3415 9.6752C22.1228 9.894 21.9998 10.1907 21.9998 10.5002C21.9998 10.1907 21.8769 9.894 21.6581 9.6752C21.4393 9.45641 21.1426 9.3335 20.8332 9.3335H13.8332C13.5238 9.3335 13.227 9.45641 13.0082 9.6752C12.7894 9.894 12.6665 10.1907 12.6665 10.5002V31.5002C12.6665 31.8096 12.7894 32.1063 13.0082 32.3251C13.227 32.5439 13.5238 32.6668 13.8332 32.6668H20.8332C21.1426 32.6668 21.4393 32.5439 21.6581 32.3251C21.8769 32.1063 21.9998 31.8096 21.9998 31.5002C21.9998 31.8096 22.1228 32.1063 22.3415 32.3251C22.5603 32.5439 22.8571 32.6668 23.1665 32.6668H30.1665C30.4759 32.6668 30.7727 32.5439 30.9915 32.3251C31.2103 32.1063 31.3332 31.8096 31.3332 31.5002V10.5002C31.3332 10.1907 31.2103 9.894 30.9915 9.6752C30.7727 9.45641 30.4759 9.3335 30.1665 9.3335Z" fill="#2CA9BC"/>
<path d="M17.3332 14.0002V18.6668V14.0002ZM26.6665 14.0002V18.6668V14.0002ZM20.8332 32.6668H13.8332C13.5238 32.6668 13.227 32.5439 13.0082 32.3251C12.7894 32.1063 12.6665 31.8096 12.6665 31.5002V10.5002C12.6665 10.1907 12.7894 9.894 13.0082 9.6752C13.227 9.45641 13.5238 9.3335 13.8332 9.3335H20.8332C21.1426 9.3335 21.4393 9.45641 21.6581 9.6752C21.8769 9.894 21.9998 10.1907 21.9998 10.5002V31.5002C21.9998 31.8096 21.8769 32.1063 21.6581 32.3251C21.4393 32.5439 21.1426 32.6668 20.8332 32.6668ZM31.3332 31.5002V10.5002C31.3332 10.1907 31.2103 9.894 30.9915 9.6752C30.7727 9.45641 30.4759 9.3335 30.1665 9.3335H23.1665C22.8571 9.3335 22.5603 9.45641 22.3415 9.6752C22.1228 9.894 21.9998 10.1907 21.9998 10.5002V31.5002C21.9998 31.8096 22.1228 32.1063 22.3415 32.3251C22.5603 32.5439 22.8571 32.6668 23.1665 32.6668H30.1665C30.4759 32.6668 30.7727 32.5439 30.9915 32.3251C31.2103 32.1063 31.3332 31.8096 31.3332 31.5002Z" fill="#4C9F74"/>
<path d="M17.3332 14.0002V18.6668M26.6665 14.0002V18.6668M21.9998 10.5002C21.9998 10.1907 21.8769 9.894 21.6581 9.6752C21.4393 9.45641 21.1426 9.3335 20.8332 9.3335H13.8332C13.5238 9.3335 13.227 9.45641 13.0082 9.6752C12.7894 9.894 12.6665 10.1907 12.6665 10.5002V31.5002C12.6665 31.8096 12.7894 32.1063 13.0082 32.3251C13.227 32.5439 13.5238 32.6668 13.8332 32.6668H20.8332C21.1426 32.6668 21.4393 32.5439 21.6581 32.3251C21.8769 32.1063 21.9998 31.8096 21.9998 31.5002M21.9998 10.5002V31.5002M21.9998 10.5002C21.9998 10.1907 22.1228 9.894 22.3415 9.6752C22.5603 9.45641 22.8571 9.3335 23.1665 9.3335H30.1665C30.4759 9.3335 30.7727 9.45641 30.9915 9.6752C31.2103 9.894 31.3332 10.1907 31.3332 10.5002V31.5002C31.3332 31.8096 31.2103 32.1063 30.9915 32.3251C30.7727 32.5439 30.4759 32.6668 30.1665 32.6668H23.1665C22.8571 32.6668 22.5603 32.5439 22.3415 32.3251C22.1228 32.1063 21.9998 31.8096 21.9998 31.5002" stroke="black" stroke-linecap="round" stroke-linejoin="round"/>
<path d="M17.3916 26.8335H17.2749" stroke="black" stroke-width="2" stroke-linecap="round" stroke-linejoin="round"/>
<path d="M26.7251 26.8335H26.6084" stroke="black" stroke-width="2" stroke-linecap="round" stroke-linejoin="round"/>
</svg>
