<svg width="24" height="24" viewBox="0 0 24 24" fill="none" xmlns="http://www.w3.org/2000/svg">
<g clip-path="url(#clip0_1194_3833)">
<path d="M16.2615 12.828C15.9688 12.7927 15.6677 12.8802 15.4349 13.0681C15.1714 13.2809 14.826 13.3564 14.5112 13.27C14.0289 13.1377 13.5243 13.2741 13.2256 13.6174C13.0479 13.8217 12.9487 14.0953 12.9464 14.3877C12.9434 14.7644 12.7402 15.112 12.4161 15.2953C12.3164 15.3518 12.2341 15.428 12.1717 15.5218C12.0236 15.7444 12.0064 16.0305 12.1195 16.2768C14.2111 16.1645 16.0218 14.9772 17.0077 13.2587C16.826 13.0192 16.5596 12.864 16.2616 12.828L16.2615 12.828Z" fill="#D29434"/>
<path d="M17.3383 10.6778C17.0723 10.6778 16.8116 10.5981 16.5961 10.439C16.5618 10.4138 16.5287 10.3863 16.4976 10.3577C16.2862 10.1631 15.9973 10.1114 15.761 10.2262C15.3583 10.422 14.8962 10.4293 14.4928 10.2459C14.0018 10.0229 13.6699 9.54724 13.6262 9.00475C13.6057 8.75025 13.4554 8.53173 13.2339 8.43467C12.7356 8.21632 12.4075 7.72526 12.4538 7.26693C12.4916 6.89247 12.7831 6.5349 13.1962 6.35603C13.3861 6.27371 13.524 6.11877 13.574 5.93087C13.6512 5.64191 13.8006 5.40029 14.0181 5.21306C14.1672 5.08473 14.3395 4.99053 14.5239 4.93263C13.7044 4.51266 12.7762 4.27539 11.7939 4.27539C9.73825 4.27539 7.92064 5.31394 6.83763 6.89361C7.11706 6.88558 7.39632 6.96405 7.62873 7.12518C7.85043 7.27877 8.01775 7.49545 8.11245 7.75179C8.20565 8.00394 8.43404 8.17511 8.69439 8.18784C9.20771 8.21277 9.66702 8.50826 9.8372 8.92304C9.93274 9.15578 9.9401 9.43186 9.85811 9.70039C9.78316 9.94601 9.86146 10.2151 10.0579 10.3857C10.1295 10.4481 10.1929 10.5198 10.2461 10.5987C10.5379 11.0326 10.4658 11.5774 10.2435 11.8915C9.92086 12.3471 9.16473 12.4797 8.4046 12.2144C8.1747 12.1341 7.92306 12.1839 7.74753 12.3442C7.64027 12.4423 7.52148 12.5261 7.39465 12.5932C7.11656 12.7404 6.83682 12.7891 6.58834 12.7891C6.49732 12.7891 6.41082 12.7823 6.32983 12.7716C7.26614 14.8174 9.31835 16.2494 11.7029 16.2849C11.604 15.9548 11.6509 15.5947 11.8438 15.3044C11.9407 15.1585 12.068 15.0404 12.2221 14.9534C12.4272 14.8374 12.5507 14.6247 12.5527 14.3848C12.5559 13.9987 12.6893 13.6346 12.9285 13.3595C13.3257 12.9029 13.9877 12.719 14.6148 12.891C14.808 12.944 15.0222 12.896 15.1875 12.7623C15.5024 12.508 15.9108 12.3897 16.3084 12.4377C16.6534 12.4794 16.9671 12.6385 17.2042 12.8851C17.5415 12.187 17.7478 11.4143 17.7905 10.5988C17.6429 10.6509 17.4897 10.6776 17.3382 10.6776L17.3383 10.6778Z" fill="#D29434"/>
<path d="M7.21074 12.245C7.30828 12.1935 7.39964 12.1289 7.4823 12.0533C7.76456 11.7951 8.16781 11.7143 8.53438 11.8423C9.1983 12.0742 9.73523 11.9278 9.92245 11.6634C10.0652 11.4616 10.1032 11.09 9.91978 10.8174C9.88598 10.7671 9.84549 10.7214 9.79981 10.6817C9.48642 10.4092 9.36162 9.97867 9.4819 9.58465C9.53745 9.4026 9.53444 9.22039 9.4732 9.0715C9.35976 8.79509 9.03899 8.5975 8.67508 8.57976C8.25695 8.55935 7.89135 8.28763 7.74344 7.88723C7.67685 7.70703 7.55972 7.5551 7.40445 7.4475C7.1605 7.2785 6.84208 7.23935 6.559 7.33991C6.06876 8.20948 5.78833 9.21256 5.78833 10.2801C5.78833 11.0016 5.91633 11.6938 6.15058 12.3351C6.40423 12.4039 6.81416 12.4549 7.21071 12.2451L7.21074 12.245Z" fill="#D29434"/>
<path d="M15.0946 5.26671C14.7948 5.23073 14.4981 5.31824 14.2742 5.51099C14.1178 5.64568 14.0099 5.82104 13.9535 6.03219C13.8722 6.33688 13.653 6.58651 13.352 6.71685C13.0674 6.84 12.8682 7.07156 12.8445 7.3065C12.8154 7.59513 13.0503 7.92523 13.3909 8.07451C13.7453 8.22978 13.9854 8.57412 14.0176 8.97316C14.0499 9.37339 14.294 9.72391 14.6549 9.88788C14.9512 10.0226 15.2914 10.0169 15.5884 9.87249C15.9709 9.68642 16.4321 9.76323 16.7633 10.0684C16.784 10.0875 16.8061 10.1057 16.8289 10.1225C17.0994 10.3221 17.4773 10.3368 17.7973 10.1688C17.76 8.12233 16.6935 6.3228 15.0946 5.26648L15.0946 5.26671Z" fill="#D29434"/>
<path d="M10.9377 21.6544C11.172 21.3286 11.2585 20.9411 11.175 20.5907C11.094 20.2507 10.852 19.9487 10.5112 19.7621C10.1786 19.5801 9.78874 19.5317 9.42264 19.6233C9.41946 20.6742 9.64735 21.5672 9.96595 22.259C10.3556 22.1934 10.7053 21.9776 10.9378 21.6544L10.9377 21.6544ZM10.2969 21.1869C10.0606 21.1869 9.8692 20.9953 9.8692 20.7592C9.8692 20.5229 10.0608 20.3315 10.2969 20.3315C10.5331 20.3315 10.7245 20.5231 10.7245 20.7592C10.7247 20.9953 10.5331 21.1869 10.2969 21.1869Z" fill="#D29434"/>
<path d="M11.7937 22.8896C11.2474 22.8896 10.892 23.2372 10.7402 23.4244C10.882 23.5683 11.0264 23.6861 11.1694 23.7763V23.5405C11.1694 23.4319 11.2574 23.3439 11.366 23.3439C11.4746 23.3439 11.5626 23.4319 11.5626 23.5405V23.9536C11.6418 23.9744 11.7191 23.9854 11.7937 23.9854C11.8683 23.9854 11.9456 23.9744 12.0248 23.9536V23.5405C12.0248 23.4319 12.1128 23.3439 12.2214 23.3439C12.3299 23.3439 12.418 23.4319 12.418 23.5405V23.7763C12.561 23.6861 12.7054 23.5683 12.8472 23.4244C12.6956 23.2372 12.3402 22.8896 11.7937 22.8896Z" fill="#D29434"/>
<path d="M10.1676 18.2113C9.98972 17.9391 9.77572 17.6969 9.52841 17.4891C9.42249 17.4 9.31056 17.3175 9.1936 17.2422C9.19394 17.3392 9.19913 17.4361 9.209 17.5323C9.23292 17.7636 9.28496 17.9915 9.3631 18.2113L10.1676 18.2113Z" fill="#D29434"/>
<path d="M14.3939 17.2422C14.2769 17.3175 14.165 17.4002 14.0589 17.4892C13.8118 17.697 13.5978 17.9391 13.4199 18.2113H14.2244C14.3027 17.9913 14.3546 17.7634 14.3785 17.5323C14.3884 17.4361 14.3936 17.3393 14.3939 17.2422Z" fill="#D29434"/>
<path d="M14.8549 18.3783C14.72 18.4272 14.5897 18.4924 14.4675 18.5721C14.4356 18.5928 14.3983 18.604 14.3601 18.604H9.22734C9.18919 18.604 9.15188 18.593 9.11992 18.5721C8.99778 18.4924 8.86744 18.4272 8.73257 18.3783C8.29922 18.2212 7.88142 18.2507 7.56201 18.3253C7.66458 18.5543 7.86871 18.8775 8.25339 19.0909C8.62501 19.2971 8.99176 19.3013 9.1882 19.2829C9.6885 19.1165 10.2378 19.1651 10.6996 19.4181C11.1379 19.658 11.4503 20.0525 11.5571 20.5005C11.667 20.9618 11.5575 21.4662 11.2566 21.8847C10.9876 22.2588 10.594 22.5187 10.1513 22.623C10.256 22.8089 10.3666 22.9761 10.4792 23.1227C10.6969 22.872 11.1334 22.4959 11.7937 22.4959C12.4543 22.4959 12.8905 22.8718 13.1082 23.1225C13.6801 22.3776 14.2008 21.113 14.1635 19.4811C14.1622 19.4245 14.1852 19.3703 14.2269 19.332C14.2686 19.2937 14.3246 19.2753 14.3807 19.2812C14.5723 19.3012 14.9509 19.3034 15.3339 19.0909C15.7187 18.8774 15.9227 18.5543 16.0253 18.3253C15.706 18.2506 15.2882 18.2212 14.8549 18.3783ZM13.2909 21.1876C13.0547 21.1876 12.8633 20.996 12.8633 20.76C12.8633 20.5237 13.0548 20.3323 13.2909 20.3323C13.5272 20.3323 13.7186 20.5239 13.7186 20.76C13.7186 20.996 13.527 21.1876 13.2909 21.1876Z" fill="#D29434"/>
<path d="M20.0796 4.90493C20.2861 5.24843 20.8483 5.73214 21.4516 5.73214C21.5838 5.73214 21.7203 5.70905 21.8577 5.66337C22.2904 5.51562 22.6675 5.16474 22.8237 4.90491C22.9097 4.76185 22.988 4.53362 23.0502 4.24518C23.1309 3.87072 23.158 3.46663 23.131 3.04416C23.0385 1.59968 22.4894 0.897461 21.4518 0.897461C20.4143 0.897461 19.8649 1.59972 19.7726 3.04416C19.7455 3.46665 19.7728 3.87073 19.8534 4.24518C19.9152 4.53347 19.9935 4.76174 20.0796 4.90493Z" fill="#D29434"/>
<path d="M22.9458 7.195C22.6446 6.95289 22.2909 6.77068 21.8945 6.65307C21.811 6.62831 21.7538 6.55151 21.7538 6.4645L21.754 6.09473C21.6526 6.11414 21.5515 6.12434 21.4518 6.12434C21.3516 6.12434 21.2533 6.11447 21.1578 6.09657V6.46467C21.1578 6.55168 21.1006 6.62848 21.0171 6.65324C20.6207 6.77087 20.267 6.95324 19.9658 7.19517C19.1578 7.84419 18.9572 8.73569 18.9114 9.23847H24C23.9544 8.73569 23.7538 7.84419 22.9458 7.195Z" fill="#D29434"/>
<path d="M9.40216 0.933955C9.41806 0.933955 9.43412 0.932115 9.45018 0.927932C9.75872 0.85063 10.0751 0.787887 10.3907 0.741703C10.4981 0.725975 10.5724 0.626086 10.5567 0.518668C10.5409 0.411249 10.4414 0.336958 10.3336 0.352687C10.0052 0.400875 9.67575 0.466128 9.35466 0.546608C9.24925 0.573045 9.18534 0.679796 9.21177 0.785205C9.23403 0.874385 9.31415 0.933955 9.40216 0.933955Z" fill="#D29434"/>
<path d="M7.48309 1.63611C7.51203 1.63611 7.54148 1.62975 7.56942 1.61603C7.87461 1.46678 8.19103 1.33226 8.50993 1.21647C8.61199 1.17933 8.6647 1.06655 8.62755 0.964489C8.59041 0.862425 8.47763 0.809718 8.37557 0.846863C8.04361 0.9675 7.71417 1.10738 7.3966 1.26282C7.29906 1.31051 7.25873 1.4283 7.30642 1.52584C7.34055 1.59562 7.4103 1.63611 7.48309 1.63611Z" fill="#D29434"/>
<path d="M2.34455 12.1623C2.28331 11.8529 2.23697 11.5363 2.20651 11.2216C2.19597 11.1135 2.09959 11.0342 1.99184 11.0449C1.88375 11.0555 1.80461 11.1515 1.81515 11.2596C1.84677 11.5872 1.8953 11.9165 1.95888 12.2386C1.97729 12.3322 2.05961 12.397 2.15146 12.397C2.16401 12.397 2.1769 12.3958 2.18978 12.3932C2.29636 12.3722 2.36563 12.2689 2.34455 12.1623Z" fill="#D29434"/>
<path d="M2.58019 13.1031C2.5484 12.9992 2.43831 12.9406 2.33473 12.9726C2.23083 13.0044 2.17243 13.1141 2.20422 13.2181C2.30529 13.5488 2.42508 13.8783 2.56045 14.1972C2.59224 14.2722 2.66502 14.3172 2.74149 14.3172C2.76709 14.3172 2.79302 14.3121 2.81812 14.3014C2.91818 14.2589 2.9647 14.1437 2.92236 14.0436C2.79235 13.7371 2.67724 13.4207 2.58019 13.1031Z" fill="#D29434"/>
<path d="M3.38372 14.9834C3.33068 14.8887 3.21088 14.8549 3.11618 14.9079C3.02148 14.9609 2.98768 15.0807 3.04072 15.1754C3.24551 15.5414 3.47608 15.8984 3.72589 16.2364C3.76437 16.2886 3.82394 16.3163 3.88417 16.3163C3.92466 16.3163 3.96565 16.3037 4.00079 16.2778C4.08814 16.2132 4.10654 16.0902 4.04212 16.0029C3.80218 15.6781 3.58067 15.3351 3.38372 14.9834Z" fill="#D29434"/>
<path d="M5.92309 17.9226C5.5933 17.6686 5.2769 17.3903 4.98242 17.0957C4.90561 17.0189 4.78113 17.0189 4.70433 17.0957C4.62753 17.1725 4.62753 17.297 4.70433 17.3738C5.01069 17.6803 5.33998 17.9698 5.68317 18.2341C5.71897 18.2617 5.76114 18.275 5.80297 18.275C5.86187 18.275 5.92009 18.2487 5.95891 18.1983C6.02517 18.1123 6.00909 17.9889 5.92309 17.9226Z" fill="#D29434"/>
<path d="M13.213 0.74174C13.5285 0.787919 13.845 0.850666 14.1535 0.927969C14.1695 0.931984 14.1856 0.933992 14.2013 0.933992C14.2893 0.933992 14.3695 0.874427 14.3919 0.785076C14.4184 0.679666 14.3543 0.572916 14.249 0.546646C13.9278 0.466165 13.5983 0.400912 13.2701 0.352724C13.1623 0.336829 13.0628 0.411286 13.047 0.518705C13.0313 0.626124 13.1056 0.726011 13.213 0.74174Z" fill="#D29434"/>
<path d="M15.0939 1.21647C15.4128 1.33225 15.7292 1.46678 16.0344 1.61603C16.0621 1.62958 16.0916 1.63611 16.1207 1.63611C16.1933 1.63611 16.2634 1.59561 16.2974 1.52584C16.3451 1.4283 16.3048 1.3105 16.2072 1.26282C15.8895 1.10738 15.5602 0.967333 15.2282 0.846863C15.1262 0.809718 15.0134 0.862424 14.9763 0.964489C14.9391 1.06655 14.9918 1.17932 15.0939 1.21647Z" fill="#D29434"/>
<path d="M16.9752 2.14451C17.3006 2.35182 17.6172 2.58137 17.9158 2.82668C17.9525 2.85663 17.9967 2.87136 18.0405 2.87136C18.0974 2.87136 18.1538 2.84676 18.1926 2.79958C18.2615 2.71575 18.2493 2.59177 18.1655 2.52283C17.8546 2.26767 17.5253 2.02875 17.1866 1.81308C17.095 1.75468 16.9735 1.78162 16.9153 1.87331C16.8567 1.96467 16.8836 2.08612 16.9752 2.14451Z" fill="#D29434"/>
<path d="M21.6121 11.0439C21.5045 11.0335 21.408 11.1125 21.3974 11.2206C21.367 11.5355 21.3205 11.8519 21.2594 12.1611C21.2383 12.2677 21.3076 12.3711 21.414 12.3921C21.4269 12.3947 21.4398 12.396 21.4523 12.396C21.5443 12.396 21.6265 12.3311 21.6449 12.2375C21.7085 11.9156 21.757 11.5863 21.7886 11.2586C21.7993 11.1505 21.7202 11.0544 21.6121 11.0439Z" fill="#D29434"/>
<path d="M21.2689 12.9725C21.165 12.9407 21.055 12.9993 21.0234 13.103C20.9262 13.4209 20.8111 13.7374 20.6812 14.0434C20.6387 14.1434 20.6854 14.2587 20.7855 14.3012C20.8106 14.3117 20.8367 14.3169 20.8623 14.3169C20.9387 14.3169 21.0115 14.2719 21.0433 14.1971C21.1785 13.8784 21.2983 13.5489 21.3995 13.218C21.4312 13.1141 21.3728 13.0041 21.2689 12.9725Z" fill="#D29434"/>
<path d="M20.4874 14.9079C20.3925 14.8549 20.2729 14.8887 20.2199 14.9834C20.0231 15.3349 19.8016 15.6779 19.5616 16.0029C19.4972 16.0902 19.5156 16.2133 19.603 16.2778C19.6381 16.3037 19.6791 16.3162 19.7196 16.3162C19.7798 16.3162 19.8394 16.2886 19.8779 16.2364C20.1277 15.8983 20.3581 15.5412 20.563 15.1754C20.6159 15.0807 20.5821 14.9609 20.4874 14.9079Z" fill="#D29434"/>
<path d="M18.6211 17.0957C18.3266 17.3903 18.0102 17.6686 17.6804 17.9226C17.5944 17.9888 17.5783 18.1123 17.6446 18.1983C17.6833 18.2487 17.7416 18.275 17.8005 18.275C17.8424 18.275 17.8847 18.2616 17.9203 18.2341C18.2635 17.9698 18.5928 17.6803 18.8992 17.3738C18.976 17.297 18.976 17.1725 18.8992 17.0957C18.8222 17.0189 18.6977 17.0189 18.6211 17.0957Z" fill="#D29434"/>
<path d="M11.3311 0.651608C11.6425 0.636716 11.9604 0.636549 12.272 0.651608C12.2751 0.651775 12.2783 0.651775 12.2815 0.651775C12.3857 0.651775 12.4726 0.569787 12.4778 0.464544C12.483 0.356124 12.3993 0.263928 12.2907 0.258741C11.9668 0.24318 11.6362 0.24318 11.312 0.258741C11.2036 0.263928 11.12 0.356119 11.125 0.464544C11.1305 0.573137 11.2227 0.656294 11.3311 0.651608Z" fill="#D29434"/>
<path d="M5.19193 5.36196C5.19193 4.7628 4.70452 4.27539 4.10536 4.27539C3.50638 4.27539 3.0188 4.7628 3.0188 5.36196C3.0188 5.6459 3.12839 5.90457 3.30726 6.09831L3.9481 5.24399C4.01335 5.15715 4.1365 5.13958 4.22334 5.20467C4.31017 5.26992 4.32774 5.39307 4.26266 5.47991L3.62165 6.33441C3.76738 6.40719 3.93169 6.44835 4.10537 6.44835C4.70453 6.44852 5.19193 5.96112 5.19193 5.36196Z" fill="#D29434"/>
<path d="M2.62575 4.38469L1.41334 3.37424C1.32985 3.3048 1.31864 3.18065 1.38824 3.09733C1.45785 3.01384 1.58183 3.00263 1.66515 3.07223L2.62575 3.87284V2.79548C2.62575 2.68689 2.71376 2.59888 2.82234 2.59888C2.93094 2.59888 3.01894 2.68689 3.01894 2.79548V4.35857C3.2895 4.06576 3.67636 3.88205 4.10551 3.88205C4.51946 3.88205 4.89425 4.05321 5.16299 4.32812C5.46249 3.87335 5.61977 3.34829 5.61977 2.79548C5.61977 1.25295 4.36487 -0.00195312 2.82234 -0.00195312C1.2798 -0.00195312 0.0249023 1.25295 0.0249023 2.79548C0.0249023 4.27192 1.17473 5.48399 2.62573 5.5852L2.62575 4.38469Z" fill="#D29434"/>
<path d="M3.01893 7.13883L3.34771 6.70047C3.41297 6.61363 3.39523 6.49031 3.30839 6.42522C3.22156 6.35997 3.09824 6.3777 3.03315 6.46454L3.01893 6.48362L3.06879 6.41719C3.05173 6.40046 3.03516 6.38339 3.01893 6.36582V6.21808C3.01893 6.10949 2.93092 6.02148 2.82233 6.02148C2.71374 6.02148 2.62573 6.10949 2.62573 6.21808V9.63995C2.62573 9.74854 2.71374 9.83655 2.82233 9.83655C2.93092 9.83655 3.01893 9.74854 3.01893 9.63995V7.13883Z" fill="#D29434"/>
</g>
<defs>
<clipPath id="clip0_1194_3833">
<rect width="24" height="24" fill="white"/>
</clipPath>
</defs>
</svg>
