<svg width="25" height="24" viewBox="0 0 25 24" fill="none" xmlns="http://www.w3.org/2000/svg">
<path d="M24.162 16.9592L18.9119 14.7092C18.6876 14.6136 18.4384 14.5935 18.2016 14.6518C17.9649 14.7102 17.7536 14.8438 17.5994 15.0327L15.2743 17.8733C11.6254 16.1529 8.68885 13.2163 6.96842 9.5674L9.80909 7.24236C9.99832 7.08846 10.1322 6.87709 10.1906 6.64026C10.249 6.40344 10.2286 6.15404 10.1325 5.92984L7.8825 0.679743C7.77708 0.438056 7.59063 0.240726 7.35531 0.12178C7.11998 0.00283372 6.85053 -0.0302726 6.59341 0.0281692L1.71833 1.15319C1.47043 1.21043 1.24926 1.35001 1.09091 1.54914C0.932558 1.74827 0.846378 1.9952 0.846436 2.24961C0.846436 14.2733 10.5919 24 22.5968 24C22.8513 24.0002 23.0983 23.914 23.2976 23.7557C23.4968 23.5973 23.6364 23.3761 23.6937 23.1281L24.8187 18.253C24.8768 17.9947 24.843 17.7241 24.7231 17.488C24.6033 17.2519 24.4048 17.0649 24.162 16.9592Z" fill="white"/>
</svg>
