<?xml version="1.0" encoding="utf-8"?>
<!-- Generator: Adobe Illustrator 19.0.0, SVG Export Plug-In . SVG Version: 6.00 Build 0)  -->
<svg version="1.1" id="layer" xmlns="http://www.w3.org/2000/svg" xmlns:xlink="http://www.w3.org/1999/xlink" x="0px" y="0px"
	 viewBox="-153 -46 652 652" style="enable-background:new -153 -46 652 652;" xml:space="preserve" fill="#fff">
<g>
	<path d="M147.7,227.1C147.7,227.2,147.7,227.2,147.7,227.1c-24.5-9.7-28.8-7.8-25.7-44.2C150.9,200.3,148.9,206.7,147.7,227.1
		 M155.1,191.6c-4.8-6-16.2-15.8-22.1-21.7c-9.2-9-11.6-11.7-11.6-27V77.6c0-9.3-14.6-8-14.6,0.3c0,0-1,113.6,0,123.3
		c1,9.7-3.9,17.2,11.9,27c17.5,10.8,42.5,18,42.5,18s0.3-25,0.7-34.3C162.3,202.6,159.9,197.6,155.1,191.6 M216.4,183
		c3,36.4-1.2,34.5-25.7,44.3c0,0,0,0,0-0.1C189.5,206.7,187.4,200.3,216.4,183 M176.4,211.9c0.3,9.3,0.7,34.3,0.7,34.3
		s25.1-7.1,42.6-18c15.8-9.8,10.9-17.3,11.9-27c1-9.7,0-123.3,0-123.3c0-8.3-14.6-9.7-14.6-0.3V143c0,15.3-2.4,18-11.6,27
		c-5.9,5.8-17.4,15.7-22.1,21.6C178.5,197.6,176.1,202.6,176.4,211.9"/>
	<path d="M169.6,167.2c-28.2-14.8-8-34.8,0-48l0.7,1.1C191,150.6,185.4,155.2,169.6,167.2 M188.5,125.2c-8.6-14.9,0,0-11.8-19.4
		V33.6c0-11.3-14.5-10.4-14.5,0l0.2,72c0,0-12.4,20.4-15.9,28.6s-8.1,17.9,3.6,31c0.9,1,2.4,3.8,19.5,19.5l0.4-0.4
		c0,0-0.1-0.1,15-14.7C203.8,151.6,197,140.1,188.5,125.2 M148.1,286.6c-21.9-8.2-36.5-10.3-75.9-18.1c-39.4-7.8-63-14.9-84.3-36.8
		c34.2,12.9,89.1,17.5,119,23.7C136.8,261.6,145,269.2,148.1,286.6L148.1,286.6L148.1,286.6z M160.8,279.7
		c-0.7-14.2-5.8-26.7-35.4-37.5c-24.9-9.1-60-11.1-85.5-15.1c-25.5-4-67.9-10.8-89.1-30.6c15.9,51.7,55.7,73.4,96.1,81.9
		c45.8,9.6,86.8,13.6,111.8,30.6l2.5,1.7C159.7,298.7,161.5,293.9,160.8,279.7L160.8,279.7z M189.8,286.6
		c3.2-17.4,11.3-25,41.3-31.2c29.9-6.2,84.7-10.9,119-23.7c-21.3,22-44.9,29.1-84.3,36.8C226.3,276.3,211.7,278.4,189.8,286.6
		C189.8,286.6,189.8,286.6,189.8,286.6z M176.8,310.6l2.5-1.7c25-17,66-21,111.8-30.6c40.4-8.5,80.2-30.1,96.1-81.9
		c-21.2,19.8-63.6,26.7-89.1,30.7c-25.6,4-60.7,6-85.5,15.1c-29.6,10.8-34.7,23.4-35.4,37.5C176.5,293.9,178.2,298.7,176.8,310.6z"
		/>
	<path d="M145.5,377.6h-19.4c0,0,0.4-7.8-0.7-21.4c-1.5-17.8-22.7-19.4-57.7-28.9c-24-6.5-55.3-15-69.3-38.4
		c8.5,3.7,25.5,10.7,53.4,16.3c26.5,5.3,41.6,8.4,65.9,13.3c23.2,4.7,27.7,18.6,27.7,34C145.5,352.5,145.5,377.6,145.5,377.6z
		 M159.3,345.5c0.3-27.8-16-35.6-40.2-41.9c-24.3-6.2-58.1-10.9-86.8-19.1c-28.7-8.1-44.7-13.4-64.2-34.1
		c4.1,40.3,32.9,68.8,68.3,81c35.4,12.2,33.5,9.7,52.7,14.4c19.2,4.7,22.7,11.6,22.7,23.1v23.7h47.6
		C160.3,338.9,159,373.3,159.3,345.5L159.3,345.5z M191.6,352.5c0-15.3,4.5-29.2,27.7-33.9c24.4-5,39.5-8,65.9-13.3
		c27.8-5.6,44.9-12.6,53.4-16.3c-14,23.5-45.3,31.9-69.3,38.4c-34.9,9.5-56.2,11.1-57.7,28.9c-1.1,13.5-0.7,21.4-0.7,21.4h-19.4
		C191.6,377.7,191.6,352.5,191.6,352.5z M177.8,392.8h47.6V369c0-11.6,3.5-18.4,22.7-23.1c19.2-4.7,17.2-2.2,52.7-14.4
		c35.4-12.2,64.2-40.7,68.3-81c-19.5,20.6-35.4,25.9-64.2,34.1c-28.7,8.1-62.6,12.8-86.8,19.1c-24.3,6.2-40.6,14.1-40.2,41.9
		C178.1,373.4,176.8,339,177.8,392.8z M63.2,522.9c-6.1,1.4-12.7,2.6-19,2.6c-27,0-45.8-13.2-45.8-40.9c0-28,17.5-43.7,45.8-43.7
		c5.5,0,12.8,1,18.9,3.4l-1.2,13.8c-6.3-3.5-12.1-4.3-18.1-4.3c-17.2,0-28,12.9-28,29.6c0,16.6,10.6,29.2,28.4,29.2
		c6.6,0,14.4-1.4,18.3-3.4L63.2,522.9z M140.8,458.2c-6.5-2.9-14.8-4.3-21.6-4.3c-19.5,0-30.3,12.9-30.3,29.6
		c0,16.6,10.5,29.2,28.4,29.2c4.5,0,8.1-0.5,11-1.2v-21.3h-17.7v-12.9h33.7v44c-8.9,2.4-18.1,4.2-27,4.2
		c-27.1,0-45.8-13.2-45.8-40.9c0-28,17.5-43.7,45.8-43.7c9.7,0,17.3,1.3,24.5,3.4L140.8,458.2L140.8,458.2z M160.5,524.1h16.7v-81.8
		h-16.7V524.1z M186.6,524.1h17.3l7.3-18.7h33.9l7.2,18.7h18.5L238,442.3h-18.9C219.1,442.3,186.6,524.1,186.6,524.1z M240.4,492.5
		H216l12.1-33.7h0.2L240.4,492.5z M280.1,524.1h16.8v-34h5.4c7.1,0,9.2,2.4,11.6,8.4l10.1,25.5h18.7l-13.4-32
		c-1.7-3.6-4.3-8.1-8.9-8.4v-0.2c10.6-1.4,17.2-9.4,17.2-19c0-22.7-21.4-22.1-39.4-22.1h-18.1C280.1,442.3,280.1,524.1,280.1,524.1z
		 M296.9,455.2h5.5c8.4,0,17.7,0.8,17.7,10.7c0,10.2-9.5,11.4-17.7,11.4h-5.5V455.2z"/>
</g>
</svg>
