<svg width="62" height="62" viewBox="0 0 62 62" fill="none" xmlns="http://www.w3.org/2000/svg">
<path d="M51.2156 34.1652H51.0218C49.2554 28.1403 43.6415 23.8813 37.2899 23.8813C32.2204 23.8813 27.6107 26.5071 25.034 30.8263C23.9933 30.4512 22.9044 30.2699 21.7917 30.2699C16.7832 30.2699 12.6332 34.0329 12.0278 38.8966C7.70864 38.7272 4.11572 42.248 4.11572 46.5547C4.11572 50.7774 7.55176 54.2255 11.7865 54.2255H51.2162C56.7456 54.2255 61.2461 49.725 61.2461 44.1957C61.2454 38.6663 56.7449 34.1652 51.2156 34.1652Z" fill="white"/>
<path d="M9.76514 22.8048C9.76514 26.0953 12.4391 28.7694 15.7298 28.7694C19.021 28.7694 21.6944 26.0955 21.6944 22.8048C21.6944 19.5261 19.0205 16.8522 15.7298 16.8522C12.4392 16.8522 9.76514 19.5255 9.76514 22.8048Z" fill="white"/>
<path d="M24.6105 12.2193L21.1261 15.7037C20.6419 16.1753 20.6419 16.95 21.1261 17.4217C21.3557 17.6512 21.6706 17.7723 21.9729 17.7723C22.2878 17.7723 22.5901 17.6512 22.8316 17.4217L26.3279 13.9254C26.7996 13.4537 26.7996 12.6916 26.3279 12.2193C25.8562 11.7476 25.0821 11.7476 24.6105 12.2193Z" fill="white"/>
<path d="M1.96145 24.0197H6.89791C7.56343 24.0197 8.1079 23.4872 8.1079 22.8097C8.1079 22.1442 7.56344 21.5997 6.89791 21.5997H1.96145C1.284 21.5997 0.751465 22.1442 0.751465 22.8097C0.751465 23.4878 1.284 24.0197 1.96145 24.0197Z" fill="white"/>
<path d="M16.9395 13.9742V9.03835C16.9395 8.37284 16.395 7.82837 15.7295 7.82837C15.064 7.82837 14.5195 8.37282 14.5195 9.03835V13.9742C14.5195 14.6516 15.064 15.1842 15.7295 15.1842C16.395 15.1842 16.9395 14.6516 16.9395 13.9742Z" fill="white"/>
<path d="M5.13252 33.4063C5.37463 33.6484 5.68888 33.7569 5.99123 33.7569C6.30611 33.7569 6.60846 33.6478 6.85058 33.4063L10.3349 29.9101C10.8186 29.4384 10.8186 28.6762 10.3349 28.2039C9.86325 27.7322 9.10113 27.7322 8.62881 28.2039L5.13256 31.7002C4.66024 32.1725 4.66019 32.9346 5.13252 33.4063Z" fill="white"/>
<path d="M6.85011 12.2193C6.37841 11.7476 5.6163 11.7476 5.13209 12.2193C4.6604 12.691 4.6604 13.4531 5.13209 13.9254L8.62834 17.4217C8.87046 17.6512 9.17279 17.7723 9.48769 17.7723C9.79002 17.7723 10.1049 17.6512 10.3345 17.4217C10.8181 16.95 10.8181 16.1879 10.3345 15.7037L6.85011 12.2193Z" fill="white"/>
<path d="M23.3521 22.8029C23.3521 23.4803 23.8965 24.0129 24.562 24.0129H29.4985C30.1759 24.0129 30.7085 23.4803 30.7085 22.8029C30.7085 22.1374 30.1759 21.5929 29.4985 21.5929H24.562C23.8965 21.5929 23.3521 22.1374 23.3521 22.8029Z" fill="white"/>
</svg>
