<svg width="24" height="24" viewBox="0 0 24 24" fill="none" xmlns="http://www.w3.org/2000/svg">
<circle cx="12" cy="12" r="12" fill="#C53EF4"/>
<path d="M16.1996 13.6217C15.6979 14.0825 15.0329 14.3392 14.3504 14.3333H8.71543C6.34126 14.1642 6.33543 10.7167 8.71543 10.5475H8.73876C7.11126 6.02084 13.9888 4.21834 14.7763 8.96668C16.9754 9.24668 17.8679 12.1692 16.1996 13.6217Z" fill="white"/>
<path d="M15.9375 17.2502C15.9375 17.4893 15.7392 17.6877 15.5 17.6877H13.1667C13.1375 17.6877 13.1142 17.6877 13.085 17.676C12.9158 18.1077 12.49 18.4168 12 18.4168C11.51 18.4168 11.0842 18.1077 10.915 17.676C10.8858 17.6877 10.8625 17.6877 10.8333 17.6877H8.5C8.26083 17.6877 8.0625 17.4893 8.0625 17.2502C8.0625 17.011 8.26083 16.8127 8.5 16.8127H10.8333C10.8625 16.8127 10.8858 16.8127 10.915 16.8243C11.0317 16.521 11.2708 16.2818 11.5742 16.1652C11.5625 16.136 11.5625 16.1127 11.5625 16.0835V14.3335H12.4375V16.0835C12.4375 16.1127 12.4375 16.136 12.4258 16.1652C12.7292 16.2818 12.9683 16.521 13.085 16.8243C13.1142 16.8127 13.1375 16.8127 13.1667 16.8127H15.5C15.7392 16.8127 15.9375 17.011 15.9375 17.2502Z" fill="white"/>
</svg>
