<svg width="24" height="24" viewBox="0 0 24 24" fill="none" xmlns="http://www.w3.org/2000/svg">
<circle cx="12" cy="12" r="12" fill="#5D87C1"/>
<path d="M11.5657 9.9619H12.4914C12.6629 9.9619 12.8 9.82476 12.8 9.65333C12.8 9.4819 12.659 9.34476 12.4914 9.34476H11.5657C11.3943 9.34476 11.2571 9.48571 11.2571 9.65333C11.2571 9.82476 11.3943 9.9619 11.5657 9.9619ZM17.2076 13.0286C16.8076 11.36 15.3181 10.1714 13.5771 10.1714C12.1905 10.1714 10.9295 10.9371 10.2781 12.1448C9.98095 12.0305 9.66476 11.9695 9.34476 11.9695C8.13333 11.9695 7.10476 12.8076 6.8419 13.9581H6.78476C5.45905 13.9581 4.38095 15.0362 4.38095 16.3619C4.38095 17.6876 5.45905 18.7657 6.78476 18.7657H16.9562C18.541 18.7657 19.8324 17.4781 19.8324 15.8895C19.8324 14.3924 18.6781 13.1581 17.2076 13.0286ZM10.9371 7.82476L11.5924 7.16952C11.7143 7.04761 11.7143 6.85333 11.5924 6.73523C11.4705 6.61714 11.2762 6.61333 11.1581 6.73523L10.5029 7.39047C10.381 7.51238 10.381 7.70666 10.5029 7.82476C10.56 7.88571 10.6438 7.91618 10.72 7.91618C10.7962 7.91237 10.8762 7.88571 10.9371 7.82476ZM5.74857 6.73142C5.62667 6.85333 5.62667 7.04761 5.74857 7.16571L6.40381 7.82095C6.46095 7.8819 6.54476 7.91237 6.62095 7.91237C6.70095 7.91237 6.78095 7.88571 6.8419 7.82095C6.96381 7.69904 6.96381 7.50476 6.8419 7.38666L6.18667 6.73142C6.06095 6.61333 5.86667 6.61333 5.74857 6.73142ZM5.74857 12.5752C5.80571 12.6362 5.88952 12.6667 5.96571 12.6667C6.04571 12.6667 6.12571 12.64 6.18667 12.5752L6.8419 11.92C6.96381 11.7981 6.96381 11.6038 6.8419 11.4857C6.72 11.3638 6.52571 11.3638 6.40762 11.4857L5.75238 12.1409C5.62666 12.259 5.62667 12.4571 5.74857 12.5752ZM4.53714 9.65333C4.53714 9.82476 4.67809 9.9619 4.84571 9.9619H5.77143C5.94286 9.9619 6.08 9.82476 6.08 9.65333C6.08 9.4819 5.93905 9.34476 5.77143 9.34476H4.84571C4.67428 9.34476 4.53714 9.4819 4.53714 9.65333ZM8.66667 11.5467C9.71047 11.5467 10.56 10.6971 10.56 9.65333C10.56 8.61333 9.71047 7.7638 8.66667 7.7638C7.62666 7.7638 6.77714 8.61333 6.77714 9.65333C6.77714 10.6971 7.62666 11.5467 8.66667 11.5467ZM8.97524 6.75809V5.83238C8.97524 5.66095 8.83809 5.5238 8.66667 5.5238C8.49524 5.5238 8.35809 5.66476 8.35809 5.83238V6.75809C8.35809 6.92952 8.49905 7.06666 8.66667 7.06666C8.8419 7.06666 8.97524 6.92571 8.97524 6.75809Z" fill="white"/>
</svg>
