<svg width="164" height="175" viewBox="0 0 164 175" fill="none" xmlns="http://www.w3.org/2000/svg">
<path d="M6.04004 174.443C0.263878 174.398 -2.1231 166.897 2.7011 163.607C2.74257 163.578 18.0397 153.229 18.0397 106.94C18.0397 103.665 20.6998 101.003 23.9787 101.003H60.8775C64.1535 101.003 66.8165 103.663 66.8165 106.94C66.8165 116.201 67.4354 125.267 69.1079 134.375C72.5743 122.362 75.2254 105.812 75.2254 83.2635C75.2254 79.9848 77.8854 77.3252 81.1643 77.3252H132.254C135.533 77.3252 138.193 79.985 138.193 83.2635C138.193 144.157 157.489 161.333 160.168 163.424C165.247 166.505 163.106 174.444 157.088 174.444H6.03764L6.04004 174.443ZM72.6835 45.7569C82.6466 73.1461 119.169 70.632 126.875 45.0598C135.106 45.0598 142.639 40.0885 146.233 33.0262C158.496 8.94175 124.531 -11.6461 108.758 10.0107C102.298 7.81926 95.2043 7.99279 88.7554 10.6971C79.0687 -2.49893 58.7835 -0.845001 51.3438 13.7348C33.691 10.3255 19.3707 28.6524 27.3648 45.0691C13.8371 54.4584 14.9887 75.2224 29.9527 82.8379C48.8283 92.4466 68.9818 72.4075 59.7897 53.4862C62.76 51.4083 65.1699 48.6317 66.8161 45.4205C68.7405 45.7891 70.7172 45.9074 72.6831 45.7584L72.6835 45.7569Z" fill="black"/>
</svg>
