<?xml version="1.0" encoding="UTF-8"?>
<svg width="16px" height="17px" viewBox="0 0 16 17" version="1.1" xmlns="http://www.w3.org/2000/svg" xmlns:xlink="http://www.w3.org/1999/xlink">
    <!-- Generator: Sketch 55.2 (78181) - https://sketchapp.com -->
    <title>Compare</title>
    <desc>Created with Sketch.</desc>
    <g id="Page-1" stroke="none" stroke-width="1" fill="none" fill-rule="evenodd">
        <g id="Indicator-Perspective-Copy" transform="translate(-1344.000000, -104.000000)" fill="#4A4A4A">
            <g id="Group" transform="translate(1333.000000, 100.000000)">
                <g id="Compare" transform="translate(11.000000, 4.807692)">
                    <path d="M7.61904762,13.9194139 C7.61904762,14.3238095 7.27771429,14.6520147 6.85714286,14.6520147 L1.52380952,14.6520147 C1.1032381,14.6520147 0.761904762,14.3238095 0.761904762,13.9194139 L0.761904762,5.86080586 C0.761904762,5.45641026 1.1032381,5.12820513 1.52380952,5.12820513 L6.85714286,5.12820513 C7.27771429,5.12820513 7.61904762,5.45641026 7.61904762,5.86080586 L7.61904762,13.9194139 L7.61904762,13.9194139 Z M6.85714286,4.3956044 L6.85714286,3.66300366 L6.0952381,3.66300366 L6.0952381,4.3956044 L4.57142857,4.3956044 L4.57142857,3.66300366 L3.80952381,3.66300366 L3.80952381,4.3956044 L2.28571429,4.3956044 L2.28571429,3.66300366 L1.52380952,3.66300366 L1.52380952,4.3956044 C0.682285714,4.3956044 0,5.05164835 0,5.86080586 L0,13.9194139 C0,14.7285714 0.682285714,15.3846154 1.52380952,15.3846154 L6.85714286,15.3846154 C7.69866667,15.3846154 8.38095238,14.7285714 8.38095238,13.9194139 L8.38095238,5.86080586 C8.38095238,5.05164835 7.69866667,4.3956044 6.85714286,4.3956044 L6.85714286,4.3956044 Z M6.47619048,7.32600733 L1.9047619,7.32600733 C1.69447619,7.32600733 1.52380952,7.49010989 1.52380952,7.69230769 C1.52380952,7.89487179 1.69447619,8.05860806 1.9047619,8.05860806 L6.47619048,8.05860806 C6.68647619,8.05860806 6.85714286,7.89487179 6.85714286,7.69230769 C6.85714286,7.49010989 6.68647619,7.32600733 6.47619048,7.32600733 L6.47619048,7.32600733 Z M6.47619048,11.7216117 L1.9047619,11.7216117 C1.69447619,11.7216117 1.52380952,11.885348 1.52380952,12.0879121 C1.52380952,12.2904762 1.69447619,12.4542125 1.9047619,12.4542125 L6.47619048,12.4542125 C6.68647619,12.4542125 6.85714286,12.2904762 6.85714286,12.0879121 C6.85714286,11.885348 6.68647619,11.7216117 6.47619048,11.7216117 L6.47619048,11.7216117 Z M6.47619048,9.52380952 L1.9047619,9.52380952 C1.69447619,9.52380952 1.52380952,9.68791209 1.52380952,9.89010989 C1.52380952,10.092674 1.69447619,10.2564103 1.9047619,10.2564103 L6.47619048,10.2564103 C6.68647619,10.2564103 6.85714286,10.092674 6.85714286,9.89010989 C6.85714286,9.68791209 6.68647619,9.52380952 6.47619048,9.52380952 L6.47619048,9.52380952 Z" id="Fill-219-Copy-3"></path>
                    <path d="M14.4761905,10.989011 L9.14285714,10.989011 C8.72228571,10.989011 8.38095238,10.6608059 8.38095238,10.2564103 L8.38095238,2.1978022 C8.38095238,1.79340659 8.72228571,1.46520147 9.14285714,1.46520147 L14.4761905,1.46520147 C14.8967619,1.46520147 15.2380952,1.79340659 15.2380952,2.1978022 L15.2380952,10.2564103 C15.2380952,10.6608059 14.8967619,10.989011 14.4761905,10.989011 Z M14.4761905,0.732600733 L14.4761905,0 L13.7142857,0 L13.7142857,0.732600733 L12.1904762,0.732600733 L12.1904762,0 L11.4285714,0 L11.4285714,0.732600733 L9.9047619,0.732600733 L9.9047619,0 L9.14285714,0 L9.14285714,0.732600733 C8.30133333,0.732600733 7.61904762,1.38864469 7.61904762,2.1978022 L7.61904762,10.2564103 C7.61904762,11.0655678 8.30133333,11.7216117 9.14285714,11.7216117 L14.4761905,11.7216117 C15.3177143,11.7216117 16,11.0655678 16,10.2564103 L16,2.1978022 C16,1.38864469 15.3177143,0.732600733 14.4761905,0.732600733 L14.4761905,0.732600733 Z M14.0952381,3.66300366 L9.52380952,3.66300366 C9.31352381,3.66300366 9.14285714,3.82710623 9.14285714,4.02930403 C9.14285714,4.23186813 9.31352381,4.3956044 9.52380952,4.3956044 L14.0952381,4.3956044 C14.3055238,4.3956044 14.4761905,4.23186813 14.4761905,4.02930403 C14.4761905,3.82710623 14.3055238,3.66300366 14.0952381,3.66300366 L14.0952381,3.66300366 Z M14.0952381,8.05860806 L9.52380952,8.05860806 C9.31352381,8.05860806 9.14285714,8.22234432 9.14285714,8.42490842 C9.14285714,8.62747253 9.31352381,8.79120879 9.52380952,8.79120879 L14.0952381,8.79120879 C14.3055238,8.79120879 14.4761905,8.62747253 14.4761905,8.42490842 C14.4761905,8.22234432 14.3055238,8.05860806 14.0952381,8.05860806 L14.0952381,8.05860806 Z M14.0952381,5.86080586 L9.52380952,5.86080586 C9.31352381,5.86080586 9.14285714,6.02490842 9.14285714,6.22710623 C9.14285714,6.42967033 9.31352381,6.59340659 9.52380952,6.59340659 L14.0952381,6.59340659 C14.3055238,6.59340659 14.4761905,6.42967033 14.4761905,6.22710623 C14.4761905,6.02490842 14.3055238,5.86080586 14.0952381,5.86080586 L14.0952381,5.86080586 Z" id="Fill-219-Copy-2"></path>
                </g>
            </g>
        </g>
    </g>
</svg>