<svg width="55" height="55" viewBox="0 0 55 55" fill="none" xmlns="http://www.w3.org/2000/svg">
<g clip-path="url(#clip0_2906_6489)">
<path d="M12.7178 2.3125V16.3515" stroke="#2E5F44" stroke-linecap="round" stroke-linejoin="round"/>
<path d="M17.6724 6.77344V13.38" stroke="#2E5F44" stroke-linecap="round" stroke-linejoin="round"/>
<path d="M22.4624 2.3125V12.5527" stroke="#2E5F44" stroke-linecap="round" stroke-linejoin="round"/>
<path d="M36.1709 6.60938V13.3811" stroke="#2E5F44" stroke-linecap="round" stroke-linejoin="round"/>
<path d="M31.7114 2.14844V12.3887" stroke="#2E5F44" stroke-linecap="round" stroke-linejoin="round"/>
<path d="M40.9609 2.14844V16.3526" stroke="#2E5F44" stroke-linecap="round" stroke-linejoin="round"/>
<path d="M26.7563 5.45312V12.0597" stroke="#2E5F44" stroke-linecap="round" stroke-linejoin="round"/>
<path fill-rule="evenodd" clip-rule="evenodd" d="M8.25821 34.19C3.46842 10.4062 45.2552 3.46923 46.4114 33.6945C46.4114 33.6945 40.3002 24.1149 36.6666 34.19C36.6666 34.19 34.3543 27.4182 28.5735 30.8866C28.078 31.0518 27.5825 31.3821 27.087 31.8776C27.087 31.8776 26.9219 31.7125 26.4264 31.3821C24.7747 30.226 20.3153 28.0788 17.6726 34.0248C17.6726 34.0248 13.7087 24.28 8.25821 34.19Z" fill="#2E5F44"/>
<path fill-rule="evenodd" clip-rule="evenodd" d="M26.4263 47.7336V31.3822C26.9218 31.7125 27.0869 31.8777 27.0869 31.8777C27.5824 31.3822 28.0779 31.0519 28.5734 30.8867V47.0729C30.3902 49.7155 33.0329 45.0909 33.0329 45.0909C40.4653 44.9258 27.5824 55.0008 26.4263 47.7336Z" fill="#2E5F44"/>
</g>
<defs>
<clipPath id="clip0_2906_6489">
<rect width="55" height="55" fill="white"/>
</clipPath>
</defs>
</svg>
