<svg width="47" height="47" viewBox="0 0 47 47" fill="none" xmlns="http://www.w3.org/2000/svg">
<path fill-rule="evenodd" clip-rule="evenodd" d="M35.72 6.34889C42.441 13.0699 41.454 23.2078 35.72 30.7889L25.0181 44.9359C24.84 45.1697 24.6104 45.3592 24.3471 45.4896C24.0837 45.6201 23.7939 45.688 23.5 45.688C23.2061 45.688 22.9162 45.6201 22.6529 45.4896C22.3896 45.3592 22.1599 45.1697 21.9819 44.9359L11.28 30.7889C5.54599 23.2078 4.55899 13.0699 11.28 6.34889C14.5276 3.12061 18.9208 1.30859 23.5 1.30859C28.0792 1.30859 32.4723 3.12061 35.72 6.34889ZM23.5 12.9289C22.3845 12.9289 21.2941 13.2597 20.3666 13.8794C19.4391 14.4991 18.7162 15.38 18.2893 16.4106C17.8624 17.4411 17.7507 18.5751 17.9684 19.6692C18.186 20.7633 18.7231 21.7682 19.5119 22.557C20.3007 23.3457 21.3056 23.8829 22.3997 24.1005C23.4937 24.3181 24.6277 24.2065 25.6583 23.7796C26.6889 23.3527 27.5697 22.6298 28.1895 21.7023C28.8092 20.7748 29.14 19.6844 29.14 18.5689C29.1387 17.0739 28.544 15.6405 27.4864 14.5838C26.4288 13.5272 24.995 12.9336 23.5 12.9336V12.9289Z" fill="#2E5F44"/>
</svg>
