<svg width="68" height="68" viewBox="0 0 68 68" fill="none" xmlns="http://www.w3.org/2000/svg">
<path fill-rule="evenodd" clip-rule="evenodd" d="M38.3614 4.60873C35.9526 2.19292 32.0466 2.19292 29.6378 4.60873C27.229 7.02453 27.229 10.9417 29.6378 13.3577C32.0466 15.7736 35.9526 15.7735 38.3614 13.3577C40.7702 10.9417 40.7702 7.02453 38.3614 4.60873ZM52.9164 13.6083C51.2036 11.8906 48.4262 11.8906 46.7135 13.6083C45.0007 15.3261 45.0007 18.1115 46.7135 19.8292C48.4262 21.5469 51.2036 21.5469 52.9164 19.8292C54.629 18.1115 54.629 15.3261 52.9164 13.6083ZM21.2859 13.6083C19.5731 11.8906 16.7957 11.8906 15.083 13.6083C13.3702 15.3261 13.3702 18.1115 15.083 19.8292C16.7957 21.5469 19.5731 21.5469 21.2859 19.8292C22.9986 18.1115 22.9986 15.3261 21.2859 13.6083ZM49.0847 45.0885C49.1077 45.0451 49.0008 45.0619 48.9263 44.9541C47.204 42.4616 48.3184 40.7588 50.9429 40.5377C52.7776 40.3832 55.1654 40.9888 56.1627 41.8863C58.1334 43.66 57.8964 46.9627 55.3728 47.5297C53.4662 47.9581 51.6967 48.7815 50.3055 50.0526C47.1874 52.9016 44.5959 50.4564 45.2371 47.9147C45.5247 46.7751 46.4614 45.693 48.2366 45.3509C48.8103 45.2404 49.0486 45.1567 49.0847 45.0885ZM50.0157 44.1997C50.9041 45.4854 50.1658 46.3331 48.4853 46.6569C45.9716 47.1413 46.1166 49.5835 47.2376 49.9545C47.7401 50.1208 48.4812 49.9208 49.413 49.0694C50.9834 47.6346 52.9332 46.7182 55.0873 46.2343C56.5316 45.9098 56.4238 43.9037 55.2807 42.8749C53.9634 41.6894 49.7417 41.4297 49.4437 42.6218C49.3587 42.9611 49.5128 43.4718 50.0157 44.1997ZM25.5736 64.0284C26.1626 63.5222 26.8013 62.9003 27.1849 62.2996C27.6704 61.5392 27.3794 61.1026 26.8307 60.7501C26.4867 60.5292 26.0663 60.3274 25.6359 60.1208C23.7624 59.2213 21.7325 58.2467 22.876 55.4738C24.2257 52.2011 28.8821 53.0532 31.01 54.9758C33.1175 56.8798 34.2223 59.8742 36.6532 57.8667C38.592 56.2654 39.7789 55.3014 41.0602 54.8527C42.3825 54.3894 43.6838 54.5029 45.7993 55.081C47.8518 55.6417 49.9659 57.0195 51.8564 58.5251C57.2488 53.6476 60.4981 46.6885 60.6784 39.302H34.8961C33.3856 40.8873 33.3496 41.737 33.926 42.3119C35.6366 44.0179 41.5236 44.577 39.5477 49.3688C37.8554 53.4729 31.9632 52.359 29.2902 49.9438C26.5139 47.4354 25.0391 43.4179 21.6948 46.1802C17.4671 49.672 14.9613 51.5467 9.71271 49.7235C12.8076 56.5648 18.6158 61.7004 25.5736 64.0284ZM50.8293 59.4074C44.1803 64.8324 35.2843 66.7086 27.054 64.4763C27.5322 64.0187 27.9793 63.5202 28.3004 63.0176C29.3664 61.3482 28.7377 60.3965 27.5465 59.6314C25.9923 58.6332 23.2236 58.1043 24.1003 55.9783C25.0318 53.7192 28.6279 54.6135 30.1228 55.9641C32.4392 58.0569 33.8465 61.9036 37.4935 58.8914C39.3173 57.385 40.4301 56.4797 41.4958 56.1062C42.5206 55.7472 43.6143 55.8585 45.4516 56.3605C47.2546 56.8533 49.1417 58.0819 50.8293 59.4074ZM39.3096 34.964L38.7834 34.5082C34.606 31.2032 28.5057 33.0345 26.7195 37.9699H41.2801C40.8614 36.8094 40.1776 35.7859 39.3096 34.964ZM37.101 23.9977C38.8138 25.7155 38.8138 28.5009 37.101 30.2186C35.3883 31.9363 32.6109 31.9362 30.8982 30.2186C29.1854 28.5009 29.1854 25.7155 30.8982 23.9977C32.6109 22.28 35.3883 22.28 37.101 23.9977ZM50.8665 37.9698C49.6978 35.4807 46.5109 34.6936 44.3369 36.4135C43.8134 36.8277 43.3873 37.3604 43.1004 37.9698H50.8665ZM48.618 30.2033C49.5207 31.1086 49.5207 32.577 48.618 33.4823C47.1657 34.9389 44.6714 33.9026 44.6714 31.8428C44.6714 29.7817 47.1645 28.7456 48.618 30.2033ZM46.9832 28.1923C46.6537 28.1923 46.3346 28.2362 46.031 28.3185C46.031 26.5847 46.043 25.4962 45.5199 23.7627C50.6429 20.3106 57.5526 24.0461 57.5526 30.2098V37.97H52.2915C51.784 36.4909 50.6866 35.303 49.2915 34.6655C51.928 32.4932 50.3868 28.1923 46.9832 28.1923ZM24.8996 37.9698C23.7308 35.4807 20.544 34.6936 18.37 36.4135C17.8464 36.8277 17.4204 37.3604 17.1335 37.9698H24.8996ZM22.6509 30.2033C23.5536 31.1086 23.5536 32.577 22.6509 33.4823C21.1986 34.9389 18.7042 33.9026 18.7042 31.8428C18.7042 29.7765 21.204 28.7521 22.6509 30.2033ZM23.2965 28.9973V27.2355C23.2965 21.333 28.1143 16.5014 33.9996 16.5014C39.8851 16.5014 44.7028 21.3331 44.7028 27.2355V28.9972C42.9032 30.4496 42.8889 33.1928 44.674 34.6645C43.6706 35.1236 42.8195 35.8702 42.2317 36.8064C41.7717 35.8069 41.1387 34.9107 40.3753 34.1526V32.2548C40.3753 31.378 39.0471 31.378 39.0471 32.2548V33.0606C38.4021 32.6247 37.7008 32.2704 36.9597 32.0108C40.1216 30.0865 40.6674 25.6908 38.0402 23.0559C35.8085 20.8178 32.1908 20.8179 29.9592 23.0559C27.3321 25.6904 27.8779 30.085 31.0376 32.0096C30.4289 32.2227 29.8489 32.4995 29.3059 32.8319V32.2547C29.3059 31.3778 27.9778 31.3778 27.9778 32.2547V33.8203C27.0523 34.6486 26.2961 35.6641 25.7691 36.8063C25.1803 35.8679 24.3271 35.1232 23.3245 34.6651C25.1102 33.1941 25.0965 30.45 23.2965 28.9973ZM21.0161 28.1923C20.0111 28.1923 19.101 28.6009 18.4423 29.2616C16.9202 30.7882 17.045 33.2945 18.7069 34.6647C17.3089 35.3043 16.214 36.4987 15.7081 37.9699H10.4468V30.2097C10.4468 28.0764 11.3175 26.1364 12.7203 24.7295C15.3416 22.1006 19.4165 21.6986 22.4794 23.7625C21.9563 25.4962 21.9684 26.5847 21.9684 28.3184C21.6649 28.2361 21.3455 28.1923 21.0161 28.1923ZM7.32129 39.3019H33.1503C31.7883 41.0962 32.0275 42.2912 32.9922 43.2534C34.8481 45.1045 39.7004 45.5243 38.3233 48.864C37.0466 51.9604 32.2113 50.7928 30.1773 48.9551C27.1936 46.2593 25.4145 41.3885 20.8544 45.155C16.4547 48.7887 14.4408 50.2901 9.01797 48.0354C7.97194 45.2292 7.39752 42.2768 7.32129 39.3019Z" fill="#2E5F44"/>
</svg>
