<svg width="49" height="49" viewBox="0 0 49 49" fill="none" xmlns="http://www.w3.org/2000/svg">
<path d="M49 39.1623V41.7946C49 42.3405 48.6916 42.8395 48.2033 43.0836C40.1113 47.1296 31.9475 47.1296 23.8555 43.0836C22.9073 42.6095 21.9604 42.1972 21.0143 41.8466L20.8844 40.1629C20.1134 34.3802 17.7525 30.0518 13.797 27.283C9.91695 24.567 5.50082 23.398 0.607161 23.7844L0 23.8471V7.20634C0 6.66046 0.308406 6.16142 0.796654 5.9173C5.79927 3.41599 10.8294 2.46105 15.8529 3.05245V5.04458C15.8716 10.2873 16.9161 14.2042 19.0714 16.7785C20.3799 18.3414 21.8791 19.3556 24.569 20.7392C24.7486 20.8316 24.933 20.9257 25.1793 21.0508C25.4855 21.2062 25.6533 21.2913 25.7925 21.3622C26.2904 21.6155 26.6596 21.8064 27.0233 22C27.9531 22.4946 28.7337 22.9493 29.4744 23.4385C30.1591 23.8907 30.7966 24.3651 31.4023 24.8789C32.5947 25.8903 33.3742 27.037 34.0453 28.6021C34.2752 29.1382 34.3555 29.352 34.8248 30.6425C35.9559 33.7531 36.8424 35.2271 38.9012 36.5277C41.8999 38.422 44.7409 39.3169 47.4182 39.1623H49ZM49 36.2817L47.2854 36.2827C45.2601 36.4089 42.9805 35.6954 40.4406 34.0909C39.0731 33.227 38.4623 32.2113 37.5336 29.6574C37.0417 28.3048 36.9549 28.0737 36.6944 27.4661C35.8596 25.5195 34.8331 24.0095 33.2669 22.6809C32.5703 22.09 31.8407 21.5471 31.0628 21.0333C30.2379 20.4885 29.3815 19.9897 28.3772 19.4554C27.9953 19.2522 27.6119 19.0539 27.0998 18.7933C26.9589 18.7216 26.7893 18.6355 26.4845 18.4809C26.2423 18.3579 26.0618 18.2658 25.8874 18.176C23.515 16.9558 22.2788 16.1195 21.2815 14.9283C19.6288 12.9543 18.7518 9.6653 18.7353 5.03943V3.56166C20.8749 4.06593 23.0122 4.85115 25.1445 5.9173C32.4251 9.55757 39.6338 9.55757 46.9143 5.9173C47.8725 5.43818 49 6.135 49 7.20634V36.2817ZM39.6324 20.1769C40.8263 20.1769 41.7941 19.2091 41.7941 18.0152C41.7941 16.8213 40.8263 15.8534 39.6324 15.8534C38.4384 15.8534 37.4706 16.8213 37.4706 18.0152C37.4706 19.2091 38.4384 20.1769 39.6324 20.1769ZM18.0564 40.951C12.7337 39.7011 7.42904 40.412 2.0857 43.0836C1.12746 43.5627 0 42.8659 0 41.7946V26.7445L0.868893 26.6546C5.06781 26.3235 8.81834 27.3163 12.1441 29.6444C15.3861 31.9138 17.347 35.4991 18.0221 40.5046L18.0564 40.951Z" fill="#2E5F44"/>
</svg>
