<svg width="64" height="64" viewBox="0 0 64 64" fill="none" xmlns="http://www.w3.org/2000/svg">
<path fill-rule="evenodd" clip-rule="evenodd" d="M49.2608 37.2472V33.2152H43.1207C42.5984 33.2338 42.1038 33.4544 41.7409 33.8304C41.378 34.2065 41.1752 34.7086 41.1752 35.2312C41.1752 35.7538 41.378 36.256 41.7409 36.632C42.1038 37.0081 42.5984 37.2286 43.1207 37.2472H49.2608ZM19.7325 39.0751C17.7107 39.3792 15.8415 40.3291 14.4039 41.7829L17.8727 55.7912C20.4115 55.9147 22.841 56.1541 25.0957 56.3762C29.8778 56.8472 33.8515 57.2389 36.0807 56.2655L57.3331 45.6447C57.8387 45.4236 58.2721 45.0653 58.5843 44.6104C58.7129 44.3577 58.7671 44.0737 58.7406 43.7913C58.7141 43.509 58.608 43.24 58.4347 43.0157C58.2613 42.7913 58.0278 42.6207 57.7613 42.5238C57.4948 42.4269 57.2063 42.4077 56.9293 42.4683L45.5277 46.5413C45.42 46.9253 45.2604 47.2929 45.0535 47.6338C44.0384 49.3618 42.4218 48.9567 40.8435 48.9778C39.7735 48.9938 38.7712 49.013 37.8426 49.0309C32.0045 49.1423 29.0522 49.1986 24.7546 48.1029C24.5184 48.039 24.3168 47.8848 24.1933 47.6736C24.0698 47.4624 24.0344 47.211 24.0946 46.9739C24.1549 46.7367 24.306 46.5328 24.5153 46.4061C24.7247 46.2794 24.9754 46.2402 25.2135 46.2968C29.2909 47.3362 32.153 47.2818 37.8131 47.1736C38.8519 47.1538 40.4512 47.0968 41.6173 47.1327C42.425 47.1583 43.1642 47.1807 43.4515 46.6923C43.5503 46.5717 43.6196 46.4296 43.6538 46.2775C43.6879 46.1253 43.6861 45.9673 43.6483 45.8159C43.6106 45.6646 43.538 45.5242 43.4364 45.4059C43.3348 45.2876 43.207 45.1947 43.0631 45.1346C40.6451 43.7151 34.2656 43.8034 32.128 43.0514C29.6115 42.1669 28.4109 41.1954 26.3866 40.0978C24.3401 39.0362 22.0015 38.6765 19.7306 39.0738L19.7325 39.0751ZM12.0525 40.0152L16.6503 58.5835C16.6787 58.6566 16.69 58.7351 16.6832 58.8132C16.6765 58.8913 16.6519 58.9668 16.6114 59.0338C16.5709 59.1009 16.5156 59.1578 16.4496 59.2001C16.3837 59.2425 16.3089 59.2691 16.2311 59.2779L10.0851 60.7992L5.22754 41.1839L11.4355 39.6479C11.566 39.6163 11.7036 39.6373 11.8188 39.7063C11.9339 39.7752 12.0174 39.8866 12.0512 40.0165L12.0525 40.0152ZM36.1927 18.4664L34.3527 21.1455C34.2685 21.2729 34.1544 21.3776 34.0202 21.4505C33.8861 21.5233 33.7361 21.5621 33.5834 21.5633C33.4308 21.5645 33.2802 21.5281 33.1449 21.4573C33.0096 21.3866 32.8938 21.2837 32.8077 21.1576L30.9568 18.4664H23.424C22.9018 18.485 22.4071 18.7056 22.0443 19.0816C21.6814 19.4577 21.4786 19.9598 21.4786 20.4824C21.4786 21.005 21.6814 21.5072 22.0443 21.8832C22.4071 22.2593 22.9018 22.4798 23.424 22.4984H45.7376V20.62C45.7354 20.0495 45.5078 19.503 45.1044 19.0996C44.701 18.6962 44.1545 18.4686 43.584 18.4664H36.1927ZM31.6704 3.19922H35.4765V12.3768C35.4762 12.4994 35.5002 12.6209 35.5469 12.7343C35.5937 12.8476 35.6623 12.9506 35.7489 13.0374C35.8356 13.1242 35.9384 13.1931 36.0517 13.2401C36.1649 13.287 36.2864 13.3112 36.409 13.3112H37.4752L33.5712 18.9925L29.6672 13.3112H30.7335C30.9808 13.3112 31.2179 13.213 31.3928 13.0381C31.5677 12.8632 31.6659 12.626 31.6659 12.3787V3.19922H31.6704ZM46.6701 24.3653H47.1072C47.6777 24.3675 48.2242 24.5951 48.6276 24.9985C49.031 25.4019 49.2586 25.9484 49.2608 26.5189V31.3458H43.1207C42.6068 31.3392 42.0967 31.4347 41.62 31.6268C41.1433 31.8189 40.7095 32.1037 40.3438 32.4648C39.9781 32.8259 39.6877 33.256 39.4895 33.7301C39.2913 34.2043 39.1892 34.7131 39.1892 35.2271C39.1892 35.741 39.2913 36.2498 39.4895 36.724C39.6877 37.1982 39.9781 37.6283 40.3438 37.9893C40.7095 38.3504 41.1433 38.6352 41.62 38.8273C42.0967 39.0194 42.6068 39.1149 43.1207 39.1083H49.2608V43.2287L45.2627 44.6571C43.3466 41.7131 34.9875 42.0875 32.7386 41.2965C30.4896 40.5055 29.2295 39.5282 27.2743 38.4664C25.4691 37.5112 23.4513 37.0292 21.4093 37.0655V23.797C22.0161 24.1692 22.7141 24.3659 23.4259 24.3653H46.6701Z" fill="#2E5F44"/>
</svg>
