<svg width="62" height="62" viewBox="0 0 62 62" fill="none" xmlns="http://www.w3.org/2000/svg">
<g clip-path="url(#clip0_2898_5800)">
<path d="M52.767 36.8009L42.6274 16.793H19.3774L9.23782 36.8009C7.82241 40.0825 7.41435 43.7108 8.06525 47.2252C8.71614 50.7391 10.3967 53.9806 12.8934 56.5376C14.5688 58.2767 16.5798 59.6576 18.8046 60.5966C21.0295 61.5356 23.4213 62.0136 25.8359 62.0013H36.1693C38.5839 62.0136 40.9761 61.5357 43.2006 60.5966C45.4251 59.6575 47.4362 58.2767 49.1118 56.5376C51.6085 53.9805 53.2891 50.739 53.94 47.2252C54.5909 43.711 54.1828 40.0828 52.7674 36.8009H52.767ZM39.4757 45.778C39.8412 46.1398 40.0471 46.6329 40.0471 47.1471C40.0471 47.6616 39.8413 48.1546 39.4757 48.5165C39.1129 48.8802 38.6202 49.0846 38.1064 49.0846C37.5927 49.0846 37.0999 48.8802 36.7372 48.5165L31.0022 42.7815L25.2672 48.5165C24.9045 48.8804 24.4119 49.0848 23.898 49.0848C23.3842 49.0848 22.8916 48.8804 22.5289 48.5165C22.1632 48.1548 21.9573 47.6618 21.9573 47.1473C21.9573 46.6329 22.1632 46.1398 22.5289 45.7782L28.2639 40.0432L22.5289 34.3082H22.5291C22.0398 33.8192 21.8487 33.1061 22.0277 32.4379C22.207 31.7696 22.7289 31.2478 23.3971 31.0685C24.0654 30.8895 24.7784 31.0806 25.2674 31.5698L31.0024 37.3048L36.7374 31.5698C37.2264 31.0806 37.9395 30.8895 38.6077 31.0685C39.2759 31.2477 39.7978 31.7696 39.9771 32.4379C40.1561 33.1062 39.9649 33.8192 39.4757 34.3082L33.7407 40.0432L39.4757 45.778Z" fill="#2E5F44"/>
<path d="M19.3677 14.2071H29.7031L27.5734 4.60488C27.4459 4.03113 27.1264 3.51787 26.6679 3.15016C26.2091 2.78244 25.639 2.58203 25.0511 2.58203H18.0755C17.6836 2.58203 17.3131 2.75984 17.0678 3.0654C16.8226 3.37096 16.7294 3.77137 16.8146 4.15381L19.3677 14.2071Z" fill="#2E5F44"/>
<path d="M37.4595 14.2083H42.6225L45.1856 1.52416H45.1855C45.2527 1.14594 45.1487 0.75763 44.9019 0.463389C44.6551 0.169333 44.2906 -0.000402282 43.9065 7.18317e-07H40.0432C39.3602 0.00867917 38.7077 0.283361 38.2242 0.765701C37.7408 1.24826 37.4647 1.90035 37.4546 2.58333C37.4485 1.90216 37.1761 1.25028 36.6956 0.767509C36.2148 0.284746 35.5643 0.00924905 34.8832 7.18317e-07H31.0074C30.6235 -0.000402928 30.259 0.169328 30.0122 0.46359C29.7653 0.757646 29.6614 1.14616 29.7284 1.52415L32.2869 14.2083L37.4595 14.2083Z" fill="#2E5F44"/>
</g>
<defs>
<clipPath id="clip0_2898_5800">
<rect width="62" height="62" fill="white"/>
</clipPath>
</defs>
</svg>
