<svg width="57" height="56" viewBox="0 0 57 56" fill="none" xmlns="http://www.w3.org/2000/svg">
<g clip-path="url(#clip0_1098_2781)">
<path d="M7.16214 39.785C7.74661 39.3308 8.59085 39.4374 9.04544 40.0215C9.50003 40.6055 9.39334 41.4492 8.80886 41.9034L2.7322 46.6176L2.68582 52.8244L10.0056 52.4165L14.0552 45.9872C14.4495 45.3614 15.2752 45.176 15.9014 45.57C16.5276 45.964 16.7132 46.7891 16.3189 47.4149L11.9261 54.3911C11.708 54.7666 11.3091 55.0262 10.8406 55.054L1.41018 55.5778C1.38235 55.5778 1.35916 55.5778 1.33133 55.5778C0.593777 55.5731 -0.00461188 54.9752 2.6788e-05 54.2382L0.0603295 46.0567C0.0278588 45.6256 0.208767 45.1853 0.575222 44.8979L7.16214 39.785ZM18.6846 24.9426C21.7415 15.8155 25.856 9.34916 31.6497 5.27002C37.666 1.04256 45.3941 -0.561282 55.5203 0.171108C56.2207 0.222097 56.7542 0.796884 56.7681 1.48292C57.7469 12.441 55.6223 20.2098 51.0857 26.0968C46.7161 31.7566 40.1709 35.5854 32.0393 38.7977V49.4915C32.0393 50.0153 31.7378 50.4696 31.2971 50.6921L23.0218 55.8003C22.3955 56.1896 21.5699 55.995 21.1802 55.3646C21.0782 55.1977 21.0132 55.0169 20.99 54.8361C19.1577 40.8419 17.2095 40.1698 5.76126 36.2112C4.39749 35.7384 2.91775 35.2285 1.92044 34.8762C1.22464 34.6305 0.858181 33.8657 1.10403 33.1657C1.15506 33.0174 1.23391 32.883 1.32669 32.7671L6.78176 24.9936C7.05545 24.6042 7.49612 24.4049 7.94143 24.4234L18.6846 24.9426ZM39.2803 11.9218C40.8389 11.9218 42.2491 12.5522 43.2696 13.572C44.2901 14.5918 44.9209 16.0009 44.9209 17.5584C44.9209 19.1159 44.2901 20.5251 43.2696 21.5448C42.2491 22.5646 40.8389 23.195 39.2803 23.195C37.7217 23.195 36.3116 22.5646 35.291 21.5448C34.2705 20.5251 33.6397 19.1159 33.6397 17.5584C33.6397 16.0009 34.2705 14.5918 35.291 13.572C36.3116 12.5522 37.7217 11.9218 39.2803 11.9218ZM41.9707 14.8699C41.2842 14.1839 40.3333 13.7574 39.2803 13.7574C38.232 13.7574 37.281 14.1839 36.5899 14.8699C35.9033 15.5559 35.4766 16.5062 35.4766 17.5584C35.4766 18.606 35.9033 19.5563 36.5899 20.2469C37.2764 20.933 38.2273 21.3594 39.2803 21.3594C40.3286 21.3594 41.2796 20.933 41.9707 20.2469C42.6573 19.5609 43.084 18.6106 43.084 17.5584C43.084 16.5062 42.6573 15.5559 41.9707 14.8699ZM33.1897 7.46256C27.7115 11.3192 23.8289 17.6326 20.9297 26.6669C20.772 27.2649 20.2154 27.696 19.5706 27.6635L8.54446 27.1258L4.47171 32.934C5.3345 33.2353 5.99783 33.467 6.63333 33.6849C18.8423 37.9031 21.3797 38.7792 23.365 52.4443L29.3535 48.7499V37.8892H29.3582C29.3582 37.3515 29.6875 36.8462 30.2163 36.6423C38.3155 33.5273 44.7864 29.8746 48.9612 24.4605C52.9458 19.292 54.8755 12.4317 54.1844 2.77155C45.2642 2.2802 38.45 3.76816 33.1897 7.46256Z" fill="white"/>
</g>
<defs>
<clipPath id="clip0_1098_2781">
<rect width="57" height="56" fill="white"/>
</clipPath>
</defs>
</svg>
