<svg width="47" height="56" viewBox="0 0 47 56" fill="none" xmlns="http://www.w3.org/2000/svg">
<path d="M37.8613 36.5586H32.6391C28.6767 36.5586 25.4585 40.393 25.4585 45.1141C25.4585 45.5419 25.7522 45.8919 26.1113 45.8919H31.3335C35.2959 45.8919 38.5141 42.0575 38.5141 37.3364C38.5141 36.9086 38.2203 36.5586 37.8613 36.5586Z" fill="#2E5F44"/>
<path d="M14.3613 36.5586H9.13911C8.78008 36.5586 8.48633 36.9086 8.48633 37.3364C8.48633 42.0575 11.7045 45.8919 15.6669 45.8919H20.8891C21.2481 45.8919 21.5419 45.5419 21.5419 45.1141C21.5419 40.393 18.3237 36.5586 14.3613 36.5586Z" fill="#2E5F44"/>
<path d="M37.8613 25.668H32.6391C28.6767 25.668 25.4585 29.5024 25.4585 34.2235C25.4585 34.6513 25.7522 35.0013 26.1113 35.0013H31.3335C35.2959 35.0013 38.5141 31.1669 38.5141 26.4457C38.5141 26.018 38.2203 25.668 37.8613 25.668Z" fill="#2E5F44"/>
<path d="M14.3613 25.668H9.13911C8.78008 25.668 8.48633 26.018 8.48633 26.4457C8.48633 31.1669 11.7045 35.0013 15.6669 35.0013H20.8891C21.2481 35.0013 21.5419 34.6513 21.5419 34.2235C21.5419 29.5024 18.3237 25.668 14.3613 25.668Z" fill="#2E5F44"/>
<path d="M37.8613 14.7812H32.6391C28.6767 14.7812 25.4585 18.6157 25.4585 23.3368C25.4585 23.7646 25.7522 24.1146 26.1113 24.1146H31.3335C35.2959 24.1146 38.5141 20.2801 38.5141 15.559C38.5141 15.1312 38.2203 14.7812 37.8613 14.7812Z" fill="#2E5F44"/>
<path d="M14.3613 14.7812H9.13911C8.78008 14.7812 8.48633 15.1312 8.48633 15.559C8.48633 20.2801 11.7045 24.1146 15.6669 24.1146H20.8891C21.2481 24.1146 21.5419 23.7646 21.5419 23.3368C21.5419 18.6157 18.3237 14.7812 14.3613 14.7812Z" fill="#2E5F44"/>
<path d="M26.1113 13.224H31.3335C35.2959 13.224 38.5141 9.38951 38.5141 4.6684C38.5141 4.24062 38.2203 3.89062 37.8613 3.89062H32.6391C28.6767 3.89062 25.4585 7.72507 25.4585 12.4462C25.4585 12.874 25.7522 13.224 26.1113 13.224Z" fill="#2E5F44"/>
<path d="M14.3613 3.89062H9.13911C8.78008 3.89062 8.48633 4.24062 8.48633 4.6684C8.48633 9.38951 11.7045 13.224 15.6669 13.224H20.8891C21.2481 13.224 21.5419 12.874 21.5419 12.4462C21.5419 7.72507 18.3237 3.89062 14.3613 3.89062Z" fill="#2E5F44"/>
<path d="M23.5004 11.668C23.1414 11.668 22.8477 12.018 22.8477 12.4457V52.8902C22.8477 53.318 23.1414 53.668 23.5004 53.668C23.8595 53.668 24.1532 53.318 24.1532 52.8902V12.4457C24.1532 12.018 23.8595 11.668 23.5004 11.668Z" fill="#2E5F44"/>
</svg>
