<svg width="57" height="57" viewBox="0 0 57 57" fill="none" xmlns="http://www.w3.org/2000/svg">
<path d="M24.396 33.2296C26.334 33.2296 28.5 33.4576 30.609 33.6286C32.718 33.8566 34.941 34.0276 36.879 34.0276C37.221 34.0276 37.563 34.0276 37.905 34.0276C37.962 34.0276 38.019 34.0276 38.133 34.0276C40.413 34.0276 42.237 35.7946 42.465 38.2456C42.522 38.8156 42.465 39.3856 42.351 39.8986C44.688 39.4426 46.512 38.9866 47.595 38.5876C48.222 38.3596 48.849 38.2456 49.476 38.2456C49.533 38.2456 49.59 38.2456 49.704 38.2456C49.59 37.9036 49.362 37.5616 49.134 37.2196C48.792 36.8206 48.393 36.4786 47.937 36.3076C47.823 35.9656 47.595 35.6806 47.367 35.3386C46.854 34.7116 46.17 34.3126 45.486 34.1986C45.486 33.5146 45.201 32.7736 44.688 32.1466C44.061 31.4626 43.263 31.0066 42.522 30.9496C42.408 30.4366 42.18 29.8666 41.781 29.3536C41.154 28.6126 40.299 28.1566 39.444 28.1566C39.444 27.4726 39.216 26.6746 38.646 26.0476C38.019 25.2496 37.107 24.8506 36.252 24.8506C35.967 24.5086 35.568 24.2236 35.226 23.9956C35.397 23.2546 35.625 22.3996 35.853 21.5446C40.299 21.6016 45.315 17.2696 45.201 12.1966C45.144 7.63662 42.009 4.27362 37.848 1.19562C37.563 1.02462 37.221 1.25262 37.278 1.53762C38.361 7.75062 32.376 7.23762 29.982 12.1966C28.5 15.3316 30.267 18.5236 32.946 20.1766C34.371 16.8706 36.366 13.5076 37.563 11.2846C36.537 14.1346 34.599 19.6066 33.573 23.4256C32.946 23.5396 32.319 23.9386 31.92 24.5656C31.863 24.6796 31.806 24.7936 31.749 24.9076C30.723 24.6226 29.469 25.1926 28.728 26.3896C28.443 26.8456 28.272 27.3016 28.215 27.8146C27.132 27.7006 25.935 28.3276 25.194 29.4676C24.909 29.9236 24.738 30.4366 24.624 30.8926C23.541 30.8356 22.401 31.4626 21.66 32.6026C21.546 32.7736 21.432 33.0016 21.375 33.2296C21.546 33.1726 21.717 33.1726 21.888 33.1156C22.629 33.2866 23.427 33.2296 24.396 33.2296Z" fill="#2E5F44"/>
<path d="M48.1649 40.3558C46.7969 40.8118 44.5169 41.3248 42.0659 41.8378C41.1539 43.2628 39.5009 44.4028 36.9929 44.8018C36.4229 44.9158 35.7389 44.9158 35.0549 44.9158C33.3449 44.9158 31.2359 44.6878 28.9559 44.4028C28.7849 44.4028 28.6139 44.3458 28.4429 44.3458C27.9299 44.2888 27.4739 43.8898 27.4169 43.3198C27.3599 42.5788 27.9869 42.0088 28.6709 42.1228C28.8419 42.1228 29.0129 42.1798 29.1839 42.1798C32.0909 42.5218 34.8839 42.8068 36.6509 42.5788C39.8999 42.0658 40.8689 40.1278 40.6979 38.4748C40.5839 37.1068 39.6149 35.7958 38.0189 35.8528C35.7389 35.9668 33.0599 35.6818 30.4949 35.4538C27.5309 35.1688 24.4529 34.8838 22.2869 35.1688C21.0899 35.3398 18.9809 36.0808 16.8149 36.9928C16.3019 37.2208 15.3329 37.6198 15.3329 37.6198L5.6999 40.3558C4.8449 40.5838 4.2749 41.3818 4.2749 42.2368V50.7868C4.2749 51.9268 5.2439 52.8388 6.3839 52.7248L15.2189 51.9838C19.6649 53.5798 25.0229 55.2898 28.2149 55.5178C34.7129 56.0308 47.3099 48.7348 50.9579 46.3978C54.5489 44.0608 52.1549 38.9878 48.1649 40.3558Z" fill="#2E5F44"/>
</svg>
