<svg width="68" height="68" viewBox="0 0 68 68" fill="none" xmlns="http://www.w3.org/2000/svg">
<path d="M14.7491 23.385C13.4911 22.3106 12.6887 20.7126 12.6887 18.9242C12.6887 15.6874 15.3203 13.0626 18.5571 13.0626C21.7939 13.0626 24.4255 15.6942 24.4255 18.9242C24.4255 19.1418 24.4119 19.3526 24.3915 19.5634C25.3163 19.441 26.2547 19.373 27.2135 19.373C27.9207 19.373 28.6211 19.407 29.3079 19.475C29.6683 18.5366 30.2327 17.6662 30.9807 16.9318C28.1723 15.6602 26.4791 12.7362 26.7851 9.66257C26.1391 9.83937 25.4931 9.92777 24.8471 9.92777C22.5079 9.92777 20.2639 8.78537 18.8971 6.79297C17.5303 8.79217 15.2863 9.92777 12.9471 9.92777C12.3011 9.92777 11.6483 9.83937 11.0091 9.66257C11.3083 12.7362 9.62188 15.6602 6.81348 16.9318C9.01668 19.0874 9.60828 22.4126 8.26868 25.2006C9.44508 25.289 10.5467 25.663 11.4987 26.2546C12.4847 25.1938 13.5727 24.2282 14.7559 23.385H14.7491Z" fill="#2E5F44"/>
<path d="M23.3921 18.9314C23.3921 16.259 21.2161 14.0898 18.5437 14.0898C15.8713 14.0898 13.6953 16.2658 13.6953 18.9314C13.6953 20.509 14.4569 21.903 15.6197 22.787C17.9181 21.3046 20.5225 20.2506 23.3105 19.7338C23.3581 19.4686 23.3853 19.2034 23.3853 18.9246L23.3921 18.9314Z" fill="#2E5F44"/>
<path d="M27.1999 20.3984C24.8879 20.3984 22.6643 20.786 20.5903 21.5C20.8419 21.6904 21.1139 21.874 21.3995 22.0644C23.1403 23.234 25.3163 24.696 23.6979 27.8716C22.2019 30.8296 23.4463 33.8488 25.3843 35.1884C27.1115 36.3852 29.9335 36.6028 32.6535 33.6312C34.3943 31.734 36.1351 30.5984 37.7331 29.9456C37.4543 29.0344 37.3387 28.0688 37.4067 27.0556C37.4883 25.8724 37.7603 24.7096 38.1547 23.5944C34.9859 21.5748 31.2323 20.3984 27.1999 20.3984Z" fill="#2E5F44"/>
<path d="M18.6662 38.1939C18.6322 38.1735 17.8502 37.7383 16.8846 37.7383C16.5242 37.7383 16.1366 37.7995 15.749 37.9627C14.5046 38.4931 13.6002 39.9483 13.0494 42.2671C12.3422 45.2659 12.9338 45.7147 13.9946 46.5171C14.7766 47.1087 15.7558 47.8499 16.5514 49.6179C16.9662 50.5291 17.5102 51.0391 18.129 51.0935C18.7138 51.1479 19.353 50.7807 19.8154 50.1075C20.3866 49.2779 20.7402 47.8635 20.0194 46.3675C19.115 44.5043 20.0534 43.2599 20.7402 42.3487C21.2366 41.6891 21.5358 41.2607 21.4406 40.7779C21.3114 40.0979 20.373 39.2207 18.6594 38.1871L18.6662 38.1939Z" fill="#2E5F44"/>
<path d="M45.0979 50.5934C46.6891 47.683 47.6003 44.351 47.6003 40.8014C47.6003 38.7138 47.2875 36.6942 46.7027 34.797C46.1043 34.9398 45.4719 35.0214 44.8191 35.0214C41.8271 35.0214 39.2703 33.4166 38.0871 30.8802C36.6319 31.4922 35.0271 32.5462 33.4019 34.321C31.5863 36.3066 29.7027 37.0478 28.0367 37.0478C26.7991 37.0478 25.6839 36.6398 24.7999 36.0278C22.5083 34.4434 21.0259 30.8802 22.7871 27.4122C23.9975 25.039 22.5287 24.053 20.8287 22.9174C20.4411 22.659 20.0467 22.3938 19.6931 22.1082C19.6183 22.047 19.5775 21.9722 19.5435 21.8906C12.0703 24.9166 6.79346 32.2402 6.79346 40.8014C6.79346 52.069 15.9259 61.2014 27.1935 61.2014C28.0435 61.2014 28.8731 61.1402 29.6959 61.045C29.6959 60.9974 29.6823 60.943 29.6959 60.8954C29.9611 59.3722 29.4919 57.6042 28.3019 55.639C25.8267 51.5726 25.2691 47.4654 26.8467 44.9154C27.6491 43.6234 29.3763 42.141 33.0687 42.4538C37.9851 42.8686 39.9911 45.5002 41.6027 47.6082C42.5071 48.7914 43.2891 49.8182 44.3975 50.2262C44.6151 50.3078 44.8191 50.437 45.0095 50.5866H42.9627C42.1331 49.9814 41.4735 49.1246 40.7867 48.2202C39.2227 46.1666 37.4411 43.841 32.9735 43.4602C30.4507 43.2494 28.6351 43.9362 27.7035 45.439C26.3503 47.6218 26.9215 51.4162 29.1655 55.095C30.4439 57.203 30.9607 59.1478 30.7159 60.8818C35.1835 60.1066 39.1479 57.8762 42.1127 54.7006H57.6915C59.3439 54.7006 60.6835 56.0402 60.6835 57.6926C60.6835 59.345 59.3439 60.6846 57.6915 60.6846C56.0391 60.6846 54.6995 59.345 54.6995 57.6926C54.6995 57.4138 54.4683 57.1826 54.1895 57.1826C53.9107 57.1826 53.6795 57.4138 53.6795 57.6926C53.6795 59.9026 55.4815 61.7046 57.6915 61.7046C59.9015 61.7046 61.7035 59.9026 61.7035 57.6926C61.7035 55.4826 59.9015 53.6806 57.6915 53.6806H43.0035C43.5407 53.021 44.0371 52.3274 44.4859 51.6066H54.1351C57.0999 51.6066 59.5139 49.1926 59.5139 46.2278C59.5139 43.263 57.0999 40.849 54.1351 40.849C51.1703 40.849 48.7563 43.263 48.7563 46.2278C48.7563 46.5066 48.9875 46.7378 49.2663 46.7378C49.5451 46.7378 49.7763 46.5066 49.7763 46.2278C49.7763 43.8274 51.7279 41.869 54.1351 41.869C56.5423 41.869 58.4939 43.8206 58.4939 46.2278C58.4939 48.635 56.5423 50.5866 54.1351 50.5866H45.0843L45.0979 50.5934ZM21.5631 42.9706C20.8967 43.8614 20.3187 44.623 20.9443 45.9286C21.8555 47.819 21.3999 49.6278 20.6587 50.6954C20.0331 51.6066 19.1423 52.1302 18.2447 52.1302C18.1767 52.1302 18.1087 52.1302 18.0407 52.1234C17.4627 52.069 16.3883 51.7358 15.6267 50.0494C14.9331 48.5194 14.1035 47.887 13.3759 47.3362C12.0295 46.3094 11.2407 45.507 12.0567 42.039C12.6823 39.3734 13.7907 37.687 15.3547 37.0206C17.2723 36.2046 19.1083 37.2722 19.1831 37.3198C21.2435 38.5642 22.2431 39.5706 22.4403 40.5906C22.6239 41.5426 22.0799 42.2702 21.5563 42.9706H21.5631Z" fill="#2E5F44"/>
<path d="M38.4271 27.1245C38.3591 28.1309 38.4883 29.0285 38.7535 29.8173C39.6987 32.6053 42.2555 33.9993 44.8191 33.9993C47.3827 33.9993 49.9395 32.6053 50.8847 29.8173C50.9663 29.5793 51.0275 29.3277 51.0819 29.0761C48.7699 29.0149 46.8319 27.6481 46.1179 25.5333C45.8799 24.8329 45.7847 24.0781 45.8391 23.2961C45.9615 21.5621 46.6619 19.8893 47.4915 18.4885C46.0839 16.5981 44.8191 15.3945 44.8191 15.3945C44.8191 15.3945 38.8419 21.0725 38.4271 27.1245Z" fill="#2E5F44"/>
<path d="M46.8589 23.3638C46.8113 24.0574 46.8997 24.6626 47.0833 25.2066C47.7293 27.1106 49.4769 28.0626 51.2313 28.0626C52.9857 28.0626 54.7333 27.1106 55.3793 25.2066C55.5629 24.6694 55.6513 24.0574 55.6037 23.3638C55.3181 19.2226 51.2313 15.3398 51.2313 15.3398C51.2313 15.3398 47.1445 19.2226 46.8589 23.3638Z" fill="#2E5F44"/>
</svg>
