<svg width="16" height="16" viewBox="0 0 16 16" fill="none" xmlns="http://www.w3.org/2000/svg">
<g id="CrossCircle">
<circle id="Ellipse 48" cx="8" cy="8" r="8" fill="white"/>
<path id="Add" d="M10.5712 5.85795C10.6591 5.94582 10.6591 6.08828 10.5712 6.17615L8.74734 8L10.5712 9.82385C10.6591 9.91172 10.6591 10.0542 10.5712 10.1421L10.1413 10.572C10.0534 10.6599 9.91092 10.6599 9.82305 10.572L7.9992 8.74814L6.17535 10.572C6.08748 10.6599 5.94502 10.6599 5.85715 10.572L5.42721 10.1421C5.33934 10.0542 5.33934 9.91172 5.42721 9.82385L7.25106 8L5.42721 6.17615C5.33934 6.08828 5.33934 5.94582 5.42721 5.85795L5.85715 5.42801C5.94502 5.34014 6.08748 5.34014 6.17535 5.42801L7.9992 7.25186L9.82305 5.42801C9.91092 5.34014 10.0534 5.34014 10.1413 5.42801L10.5712 5.85795Z" fill="#003F35"/>
</g>
</svg>
