<svg width="24" height="24" viewBox="0 0 24 24" fill="none" xmlns="http://www.w3.org/2000/svg">
<path d="M11.8579 1.80078C7.91781 1.80078 4.72461 2.30502 4.72461 2.92974C4.72461 3.0423 4.84293 3.1359 4.87245 3.15894C5.12853 3.39438 5.45925 3.70158 5.93877 4.4787C6.56853 5.49894 7.43901 7.11318 6.74397 8.6211C6.13845 9.93822 5.52933 11.3105 5.28093 12.7251C4.73109 15.8547 5.66565 19.0501 10.1066 21.242C10.103 21.2415 10.0994 21.2417 10.0958 21.2415C10.1167 21.2518 10.1414 21.2609 10.1623 21.2713C10.4265 21.4004 10.7097 21.524 10.9992 21.6459C11.082 21.6807 11.1571 21.7177 11.242 21.752C11.6272 21.9073 12.0309 22.057 12.4603 22.1991C12.4603 22.1991 12.4461 22.1763 12.4248 22.1413C12.42 22.1333 12.4164 22.1276 12.4106 22.118C12.3996 22.1 12.3854 22.0757 12.3712 22.0522C12.365 22.0417 12.3597 22.0328 12.3528 22.0213C12.3372 21.9949 12.3189 21.9632 12.3004 21.9315C12.2918 21.9169 12.2839 21.9029 12.2748 21.8871C12.2539 21.8506 12.2308 21.8098 12.2073 21.7678C12.1992 21.7532 12.1912 21.739 12.1826 21.7239C12.1562 21.6766 12.1281 21.6253 12.0991 21.572C12.0921 21.5593 12.0852 21.5465 12.078 21.5333C12.0444 21.4712 12.0093 21.4054 11.9731 21.3361C11.9709 21.332 11.969 21.3281 11.9668 21.3243C11.9275 21.2489 11.8869 21.17 11.8452 21.0869C11.4566 20.3165 10.9824 19.2363 10.7296 18.1275C10.3833 16.6081 10.523 15.1335 11.7415 14.1721C12.402 13.6522 13.0754 13.2298 13.643 12.7678C16.3293 10.5853 17.5862 8.5539 18.2313 6.7119C18.712 5.34222 18.9136 3.98406 18.9912 2.93046C18.9909 2.30502 15.798 1.80078 11.8579 1.80078Z" fill="#AE7003"/>
<path d="M19.4552 4.36416C19.4521 4.32072 19.3912 4.32192 19.3868 4.36416C19.2524 5.54952 18.9829 6.54672 18.519 7.64376C18.4907 7.71024 18.5828 7.76928 18.6181 7.70136C19.1461 6.69504 19.5424 5.51232 19.4552 4.36416Z" fill="#AE7003"/>
<path d="M4.64746 14.3538C4.64746 14.3473 4.63666 14.3446 4.63546 14.3526C4.39666 15.3202 4.57282 16.6145 5.1985 17.4106C5.2177 17.4363 5.2633 17.4094 5.25178 17.3799C5.07898 16.9537 4.8877 16.549 4.77826 16.0986C4.63666 15.5214 4.65658 14.9413 4.64746 14.3538Z" fill="#AE7003"/>
</svg>
