<svg width="21" height="20" viewBox="0 0 21 20" fill="none" xmlns="http://www.w3.org/2000/svg">
<path d="M10.4329 18.9596C5.49961 18.9596 1.47461 14.943 1.47461 10.0013C1.47461 5.05964 5.49961 1.04297 10.4329 1.04297C15.3663 1.04297 19.3913 5.05964 19.3913 10.0013C19.3913 14.943 15.3746 18.9596 10.4329 18.9596ZM10.4329 2.29297C6.18294 2.29297 2.72461 5.7513 2.72461 10.0013C2.72461 14.2513 6.18294 17.7096 10.4329 17.7096C14.6829 17.7096 18.1413 14.2513 18.1413 10.0013C18.1413 5.7513 14.6829 2.29297 10.4329 2.29297Z" fill="#222222"/>
<path d="M13.7663 10.625H7.09961C6.75794 10.625 6.47461 10.3417 6.47461 10C6.47461 9.65833 6.75794 9.375 7.09961 9.375H13.7663C14.1079 9.375 14.3913 9.65833 14.3913 10C14.3913 10.3417 14.1163 10.625 13.7663 10.625Z" fill="#222222"/>
</svg>
