<svg width="30" height="22" viewBox="0 0 30 22" fill="none" xmlns="http://www.w3.org/2000/svg">
<path d="M10.25 14L10.9996 14.5997L10.1944 15.6062L9.4607 14.5464L10.25 14ZM16.25 6.5L15.5004 5.90029L16.2187 5.00238L16.9739 5.86949L16.25 6.5ZM29.75 22L19.2654 18.4011L27.6244 11.1206L29.75 22ZM2.0393 0.453558L11.0393 13.4536L9.4607 14.5464L0.460696 1.54644L2.0393 0.453558ZM9.50037 13.4003L15.5004 5.90029L16.9996 7.09971L10.9996 14.5997L9.50037 13.4003ZM16.9739 5.86949L24.7993 14.8542L23.3515 16.1152L15.5261 7.13051L16.9739 5.86949Z" fill="#029ED8"/>
</svg>
