<svg width="24" height="20" viewBox="0 0 24 20" fill="none" xmlns="http://www.w3.org/2000/svg">
<path d="M4.09507 13.2568C2.30391 13.2568 0.84668 14.7141 0.84668 16.5052C0.84668 18.2964 2.30391 19.7536 4.09507 19.7536C5.88623 19.7536 7.34345 18.2964 7.34345 16.5052C7.34345 14.7141 5.88623 13.2568 4.09507 13.2568ZM4.09507 18.9415C2.75149 18.9415 1.65878 17.8488 1.65878 16.5052C1.65878 15.1616 2.75149 14.0689 4.09507 14.0689C5.43864 14.0689 6.53136 15.1616 6.53136 16.5052C6.53136 17.8488 5.43864 18.9415 4.09507 18.9415Z" fill="#D29434"/>
<path d="M4.09505 12.4449C6.05586 12.4449 7.69635 13.8422 8.07358 15.6933H11.4039V13.6631H9.37367C8.25414 13.6631 7.34343 12.7524 7.34343 11.6328V11.2268C7.34343 10.7789 7.70761 10.4147 8.15553 10.4147H11.4039V10.3989C11.4039 9.51087 10.6836 8.79052 9.79513 8.79052H7.9719C7.56749 8.79052 7.17814 8.63825 6.88082 8.3638C6.29439 7.82253 5.70815 7.28126 5.1214 6.73998C3.53799 5.27784 2.36282 3.91797 0.0344238 3.91797V15.6934H0.116358C0.493583 13.8422 2.13407 12.445 4.09489 12.445L4.09505 12.4449ZM0.846659 6.35422L4.10029 8.79014C4.10029 8.79014 4.09866 8.7905 4.09503 8.7905H0.846646L0.846659 6.35422Z" fill="#D29434"/>
<path d="M23.9913 15.2876C23.9913 13.942 22.9006 12.8513 21.555 12.8513H19.5248C21.7675 12.8513 23.9913 11.0335 23.9913 8.79078C23.9913 7.52349 23.4107 6.39185 22.5011 5.64718C21.5521 4.87044 20.1119 5.27195 19.6259 6.39802C19.6247 6.40092 19.6239 6.40418 19.6227 6.4069C19.3696 6.35379 19.1021 6.33947 18.8264 6.37156C17.7552 6.49627 16.8685 7.35094 16.71 8.41757C16.596 9.18582 16.8413 9.8993 17.3028 10.415H16.4794C15.4705 10.415 14.6522 11.2333 14.6522 12.2422C14.6522 13.2512 15.4705 14.0694 16.4794 14.0694H17.4946C17.9432 14.0694 18.3067 14.4329 18.3067 14.8815C18.3067 15.3302 17.9432 15.6936 17.4946 15.6936H13.4341V17.3178H21.9611C23.0823 17.3178 23.9913 16.4087 23.9913 15.2876Z" fill="#D29434"/>
<path d="M16.6899 4.25165C16.6888 4.27612 16.6827 4.29914 16.6827 4.32397C16.6827 5.2209 17.41 5.94817 18.3069 5.94817C19.2038 5.94817 19.9311 5.2209 19.9311 4.32397C19.9311 3.42705 19.2038 2.69978 18.3069 2.69978C18.282 2.69978 18.259 2.70594 18.2345 2.70703C18.0689 2.23119 17.6211 1.8877 17.0888 1.8877C16.4159 1.8877 15.8706 2.43296 15.8706 3.10584C15.8706 3.63825 16.2141 4.08598 16.6899 4.25165Z" fill="#D29434"/>
<path d="M21.5551 1.07577C21.5551 1.52424 21.1915 1.88787 20.743 1.88787C20.2945 1.88787 19.9309 1.52424 19.9309 1.07577C19.9309 0.627301 20.2945 0.263672 20.743 0.263672C21.1915 0.263672 21.5551 0.627301 21.5551 1.07577Z" fill="#D29434"/>
<path d="M2.5944 15.8877C2.51554 16.0786 2.47095 16.2869 2.47095 16.5056C2.47095 16.7159 2.51445 16.9157 2.58714 17.1L3.4114 16.5004L2.5944 15.8877Z" fill="#D29434"/>
<path d="M8.15552 11.6326C8.15552 12.3042 8.70204 12.8508 9.37366 12.8508H11.4039V11.2266H8.15552V11.6326Z" fill="#D29434"/>
<path d="M5.12102 15.2565C4.84059 15.0253 4.48601 14.8809 4.09504 14.8809C3.71256 14.8809 3.3649 15.0194 3.08716 15.2414L4.09866 16.0004L5.12102 15.2565Z" fill="#D29434"/>
<path d="M4.77856 16.5105L5.59591 17.1232C5.67476 16.9326 5.71935 16.7244 5.71935 16.5055C5.71935 16.2953 5.67585 16.0955 5.60316 15.9111L4.77856 16.5105Z" fill="#D29434"/>
<path d="M3.06909 17.7547C3.34952 17.9858 3.7041 18.1303 4.09507 18.1303C4.47755 18.1303 4.82522 17.9918 5.10295 17.7697L4.09145 17.0107L3.06909 17.7547Z" fill="#D29434"/>
<path d="M8.15542 16.5057C8.15542 16.7837 8.12696 17.0555 8.07349 17.3178H11.8099V16.0996H8.13479C8.1482 16.2332 8.15542 16.3684 8.15542 16.5057Z" fill="#D29434"/>
</svg>
