<svg width="61" height="61" viewBox="0 0 61 61" fill="none" xmlns="http://www.w3.org/2000/svg">
<path fill-rule="evenodd" clip-rule="evenodd" d="M21.073 56.3093H39.9085C40.7251 56.3093 41.3929 56.9767 41.3929 57.7925C41.3929 58.6084 40.725 59.2757 39.9085 59.2757H21.073C20.2565 59.2757 19.5886 58.6083 19.5886 57.7925C19.5886 56.9766 20.2565 56.3093 21.073 56.3093ZM36.7065 54.8734L35.4059 50.5328H25.5749L24.2744 54.8734H36.7065ZM7.36101 15.2131H13.7172V20.1366L18.0345 20.8332C18.2928 21.7057 18.6421 22.5485 19.0777 23.3476L16.5176 26.8909L20.7428 31.1128L24.289 28.5557C25.0889 28.9901 25.9323 29.34 26.8055 29.598L27.5027 33.9118H33.479L34.1762 29.598C35.0494 29.34 35.8929 28.991 36.6927 28.5557L40.2389 31.1137L44.4641 26.8919L41.904 23.3486C42.3397 22.5494 42.6889 21.7066 42.9472 20.8341L47.2645 20.1375V15.214H53.6207C54.4697 15.214 55.1628 15.9064 55.1628 16.7548L55.1623 41.9931H5.8196V16.7525C5.8196 15.9041 6.51166 15.2121 7.36166 15.2121L7.36101 15.2131ZM32.9075 5.86303L32.2549 1.82678H28.7258L28.0733 5.86303C26.6757 6.16051 25.3714 6.71 24.2121 7.46183L20.894 5.06892L18.3984 7.56198L20.7941 10.8774C20.0417 12.0367 19.4917 13.3399 19.194 14.7355L15.1545 15.3875V18.9137L19.194 19.5658C19.4917 20.9622 20.0417 22.2654 20.7941 23.4238L18.3984 26.7393L20.894 29.2323L24.2121 26.8394C25.3723 27.5912 26.6766 28.1407 28.0733 28.4382L28.7258 32.4745H32.2549L32.9075 28.4382C34.3051 28.1407 35.6093 27.5912 36.7687 26.8394L40.0868 29.2323L42.5819 26.7393L40.1862 23.4238C40.9395 22.2645 41.4885 20.9613 41.7863 19.5658L45.8258 18.9137V15.3875L41.7863 14.7355C41.4885 13.339 40.9386 12.0358 40.1862 10.8774L42.5819 7.56198L40.0868 5.06892L36.7687 7.46183C35.6084 6.71 34.3046 6.16053 32.9075 5.86303ZM30.4904 9.74008C26.3938 9.74008 23.0728 13.0584 23.0728 17.1517C23.0728 21.2445 26.3938 24.5627 30.4904 24.5627C34.587 24.5627 37.908 21.2445 37.908 17.1512C37.908 13.0584 34.587 9.74008 30.4904 9.74008ZM30.4904 8.30417C25.6005 8.30417 21.6358 12.2657 21.6358 17.1517C21.6358 22.0376 25.6005 25.9991 30.4904 25.9991C35.3803 25.9991 39.3451 22.0376 39.3451 17.1517C39.3451 12.2652 35.3803 8.30417 30.4904 8.30417ZM5.81907 43.4296H55.1618V47.5558C55.1618 48.4042 54.4688 49.0966 53.6197 49.0966H7.36018C6.51114 49.0966 5.81812 48.4042 5.81812 47.5558L5.81907 43.4296Z" fill="white"/>
</svg>
