<svg width="24" height="24" viewBox="0 0 24 24" fill="none" xmlns="http://www.w3.org/2000/svg">
<circle cx="12" cy="12" r="12" fill="#07D7CA"/>
<path d="M16.9875 10.5064H16.3458C16.2583 10.5064 16.1708 10.5239 16.0892 10.5473L13.1783 7.63645C13.4583 7.27478 13.435 6.75561 13.1025 6.42895L12.6475 5.97395C12.3033 5.62978 11.6967 5.62978 11.3467 5.97395L10.8917 6.42895C10.565 6.75561 10.5417 7.27478 10.8217 7.63645L7.91082 10.5473C7.82915 10.5239 7.74165 10.5064 7.65415 10.5064H7.01249C6.50499 10.5064 6.09082 10.9206 6.09082 11.4281V12.0698C6.09082 12.5773 6.50499 12.9914 7.01249 12.9914H7.65415C8.16165 12.9914 8.57582 12.5773 8.57582 12.0698V11.4281C8.57582 11.3406 8.55832 11.2531 8.53499 11.1714L11.4458 8.26061C11.6033 8.38311 11.8017 8.44728 12 8.44728C12.1983 8.44728 12.3967 8.37728 12.56 8.25478L15.4708 11.1656C15.4475 11.2473 15.43 11.3348 15.43 11.4223V12.0639C15.43 12.5714 15.8442 12.9856 16.3517 12.9856H16.9933C17.5008 12.9856 17.915 12.5714 17.915 12.0639V11.4223C17.9033 10.9148 17.495 10.5064 16.9875 10.5064Z" fill="white"/>
<path d="M14.1879 14.6544L13.2313 15.5002H10.7463L9.7896 14.6544C9.23544 14.1994 9.23544 13.8494 9.65544 13.3127L11.3413 11.1777C11.4579 11.0319 11.5921 10.9327 11.7438 10.8802C11.9013 10.8277 12.0704 10.8277 12.2338 10.8802C12.3796 10.9327 12.5138 11.0319 12.6363 11.1777L14.3221 13.3127C14.7421 13.8435 14.7246 14.176 14.1879 14.6544Z" fill="white"/>
<path d="M12.7524 17.8334H11.2415C10.7049 17.8334 10.3024 17.3959 10.4074 16.9292L10.5882 16.1184C10.6232 15.9551 10.769 15.8442 10.9324 15.8442H13.0615C13.2249 15.8442 13.3649 15.9551 13.4057 16.1184L13.5865 16.9292C13.7032 17.4251 13.324 17.8334 12.7524 17.8334Z" fill="white"/>
</svg>
