<svg width="40" height="41" viewBox="0 0 40 41" fill="none" xmlns="http://www.w3.org/2000/svg">
<path d="M26.3333 4.04791C25.65 3.36457 24.4667 3.83124 24.4667 4.78124V10.5979C24.4667 13.0312 26.5333 15.0479 29.05 15.0479C30.6333 15.0646 32.8333 15.0646 34.7167 15.0646C35.6667 15.0646 36.1667 13.9479 35.5 13.2812C33.1 10.8646 28.8 6.51457 26.3333 4.04791Z" fill="#FB8036"/>
<path d="M34.1666 17.3482H29.35C25.4 17.3482 22.1833 14.1316 22.1833 10.1816V5.36491C22.1833 4.44824 21.4333 3.69824 20.5166 3.69824H13.45C8.31663 3.69824 4.16663 7.03158 4.16663 12.9816V27.7482C4.16663 33.6982 8.31663 37.0316 13.45 37.0316H26.55C31.6833 37.0316 35.8333 33.6982 35.8333 27.7482V19.0149C35.8333 18.0982 35.0833 17.3482 34.1666 17.3482ZM19.1666 29.9482H12.5C11.8166 29.9482 11.25 29.3816 11.25 28.6982C11.25 28.0149 11.8166 27.4482 12.5 27.4482H19.1666C19.85 27.4482 20.4166 28.0149 20.4166 28.6982C20.4166 29.3816 19.85 29.9482 19.1666 29.9482ZM22.5 23.2816H12.5C11.8166 23.2816 11.25 22.7149 11.25 22.0316C11.25 21.3482 11.8166 20.7816 12.5 20.7816H22.5C23.1833 20.7816 23.75 21.3482 23.75 22.0316C23.75 22.7149 23.1833 23.2816 22.5 23.2816Z" fill="#FB8036"/>
</svg>
