<svg width="52" height="53" viewBox="0 0 52 53" fill="none" xmlns="http://www.w3.org/2000/svg">
<g clip-path="url(#clip0_1107_3418)">
<path d="M26 52.2969C40.2472 52.2969 51.7969 40.7472 51.7969 26.5C51.7969 12.2528 40.2472 0.703125 26 0.703125C11.7528 0.703125 0.203125 12.2528 0.203125 26.5C0.203125 40.7472 11.7528 52.2969 26 52.2969Z" fill="#324A5E"/>
<path d="M41.5595 14.6373V18.6186C41.5595 20.6498 36.4813 22.3154 30.2251 22.3154C28.9251 22.3154 27.7063 22.2342 26.5282 22.1123C24.6595 19.8779 21.9376 18.3748 18.8501 18.0904V14.5967C18.8501 16.6279 23.9282 18.2936 30.1845 18.2936C36.4813 18.3342 41.5595 16.6686 41.5595 14.6373ZM41.5595 22.5186V26.4998C41.5595 26.5404 41.5595 26.5811 41.5595 26.5811V26.4998C41.5595 28.5311 36.4813 30.1967 30.2251 30.1967C29.8595 30.1967 29.5345 30.1967 29.2095 30.1967C29.2095 29.9529 29.2501 29.6686 29.2501 29.4248C29.2501 28.3279 29.0876 27.2311 28.8032 26.2561C29.2907 26.2561 29.7782 26.2967 30.2657 26.2967C35.3845 26.2967 39.6907 25.1998 41.1126 23.6967C41.2751 23.5342 41.397 23.3311 41.5188 23.1279C41.5188 22.8842 41.5595 22.7217 41.5595 22.5186ZM41.5595 30.4404V34.4217C41.5595 34.4623 41.5595 34.5029 41.5595 34.5029V34.3811C41.5595 36.4123 36.4813 38.0779 30.2251 38.0779C28.5595 38.0779 26.9751 37.9561 25.5532 37.7529C26.6501 36.7373 27.5845 35.4779 28.1938 34.0967C28.8438 34.1373 29.5345 34.1373 30.2251 34.1373C36.4813 34.1373 41.5595 32.5123 41.5595 30.4404Z" fill="#F9B54C"/>
<path d="M41.5594 22.5592V18.5779C41.5594 20.6092 36.4813 22.2748 30.225 22.2748C28.925 22.2748 27.7063 22.1936 26.5281 22.0717C24.4563 19.5936 21.3281 18.0498 17.875 18.0498C11.5781 18.0498 6.5 23.1279 6.5 29.3842C6.5 35.6404 11.5781 40.7186 17.8344 40.7186C18.8094 40.7186 19.7844 40.5967 20.6781 40.3529C22.7094 41.3686 26.2031 42.0186 30.1844 42.0186C36.4406 42.0186 41.5187 40.3529 41.5187 38.3217V34.3404C41.5187 36.3717 36.4406 38.0373 30.1844 38.0373C28.5188 38.0373 26.9344 37.9154 25.5125 37.7123C26.6094 36.6967 27.5438 35.4373 28.1531 34.0561C28.8031 34.0967 29.4938 34.0967 30.1844 34.0967C36.4406 34.0967 41.5187 32.4311 41.5187 30.3998V26.4998C41.5187 28.5311 36.4406 30.1967 30.1844 30.1967C29.8188 30.1967 29.4937 30.1967 29.1281 30.1967C29.1281 29.9529 29.1688 29.7092 29.1688 29.4248C29.1688 28.3279 29.0062 27.2311 28.7219 26.2154C29.2094 26.2154 29.6969 26.2561 30.1844 26.2561C36.4813 26.2561 41.5594 24.5904 41.5594 22.5592Z" fill="#FFD05B"/>
<path d="M17.8343 38.1594C22.6806 38.1594 26.6093 34.2307 26.6093 29.3844C26.6093 24.5381 22.6806 20.6094 17.8343 20.6094C12.988 20.6094 9.05933 24.5381 9.05933 29.3844C9.05933 34.2307 12.988 38.1594 17.8343 38.1594Z" fill="#F9B54C"/>
<path d="M21.125 31.7404C21.125 29.9123 19.6625 28.4498 17.8343 28.4498C17.0625 28.4498 16.4125 27.7998 16.4125 27.0279C16.4125 26.2561 17.0625 25.6061 17.8343 25.6061C18.2406 25.6061 18.6062 25.7686 18.85 26.0529C19.2156 26.4186 19.7843 26.4592 20.1906 26.0936C20.5562 25.7279 20.5968 25.1592 20.2312 24.7529C19.825 24.3467 19.3375 24.0217 18.7687 23.8592V23.2498C18.7687 22.7217 18.3625 22.3154 17.8343 22.3154C17.3062 22.3154 16.9 22.7217 16.9 23.2498V23.8998C15.5187 24.3061 14.5437 25.5654 14.5437 27.0686C14.5437 28.8967 16.0062 30.3592 17.8343 30.3592C18.6062 30.3592 19.2562 31.0092 19.2562 31.7811C19.2562 32.5529 18.6062 33.2029 17.8343 33.2029C17.4281 33.2029 17.0625 33.0404 16.8187 32.7561C16.4531 32.3904 15.8843 32.3498 15.4781 32.7154C15.1125 33.0811 15.0718 33.6498 15.4375 34.0561C15.8437 34.4623 16.3312 34.7873 16.9 34.9498V35.5998C16.9 36.1279 17.3062 36.5342 17.8343 36.5342C18.3625 36.5342 18.7687 36.1279 18.7687 35.5998V34.9498C20.15 34.5029 21.125 33.2436 21.125 31.7404Z" fill="#FFD05B"/>
<path d="M30.225 18.3342C36.4848 18.3342 41.5594 16.679 41.5594 14.6373C41.5594 12.5956 36.4848 10.9404 30.225 10.9404C23.9652 10.9404 18.8906 12.5956 18.8906 14.6373C18.8906 16.679 23.9652 18.3342 30.225 18.3342Z" fill="#FFD05B"/>
<path d="M30.225 17.4814C35.0713 17.4814 39 16.2083 39 14.6377C39 13.0671 35.0713 11.7939 30.225 11.7939C25.3787 11.7939 21.45 13.0671 21.45 14.6377C21.45 16.2083 25.3787 17.4814 30.225 17.4814Z" fill="#F9B54C"/>
<path d="M27.8688 15.6938C29.697 15.6938 31.1595 15.2062 31.1595 14.6375C31.1595 14.3937 31.8095 14.1906 32.5813 14.1906C33.3532 14.1906 34.0032 14.3937 34.0032 14.6375C34.0032 14.7594 33.8407 14.8812 33.5563 14.9625C33.1907 15.0844 33.1501 15.2875 33.5157 15.4094C33.8813 15.5313 34.4501 15.5313 34.8563 15.4094C35.2626 15.2875 35.5876 15.125 35.7501 14.9219H36.4001C36.9282 14.9219 37.3345 14.8 37.3345 14.5969C37.3345 14.4344 36.9282 14.2719 36.4001 14.2719H35.7501C35.3438 13.825 34.0845 13.5 32.5813 13.5C30.7532 13.5 29.2907 13.9875 29.2907 14.5562C29.2907 14.8 28.6407 15.0031 27.8688 15.0031C27.097 15.0031 26.447 14.8 26.447 14.5562C26.447 14.4344 26.6095 14.3125 26.8938 14.2312C27.2595 14.1094 27.3001 13.9063 26.9345 13.7844C26.5688 13.6625 26.0001 13.6625 25.5938 13.7844C25.1876 13.9063 24.8626 14.0688 24.7001 14.2719H24.0501C23.522 14.2719 23.1157 14.3938 23.1157 14.5969C23.1157 14.7594 23.522 14.9219 24.0501 14.9219H24.7001C25.1063 15.3687 26.3657 15.6938 27.8688 15.6938Z" fill="#FFD05B"/>
</g>
<defs>
<clipPath id="clip0_1107_3418">
<rect width="52" height="52" fill="white" transform="translate(0 0.5)"/>
</clipPath>
</defs>
</svg>
