<?xml version="1.0" encoding="utf-8"?>
<!-- Generator: Adobe Illustrator 24.1.0, SVG Export Plug-In . SVG Version: 6.00 Build 0)  -->
<svg version="1.1" id="Layer_1" xmlns="http://www.w3.org/2000/svg" xmlns:xlink="http://www.w3.org/1999/xlink" x="0px" y="0px"
	 viewBox="0 0 30 30" style="enable-background:new 0 0 30 30;" xml:space="preserve">
<style type="text/css">
	.st0{fill:#222240;}
	.st1{fill:#2050be;}
	.st2{fill:#81C45B;}
</style>
<g>
	<g>
		<path class="st0" d="M15,8V3C8.4,3,3,8.4,3,15h5C8,11.1,11.1,8,15,8z"/>
	</g>
	<g>
		<path class="st1" d="M19.9,10.1c1.3,1.3,2.1,3,2.1,4.9c0,3.9-3.1,7-7,7s-7-3.1-7-7H3c0,6.6,5.4,12,12,12s12-5.4,12-12
			c0-3.3-1.3-6.3-3.5-8.5L19.9,10.1z"/>
	</g>
	<g>
		<path class="st2" d="M23.5,6.5C21.3,4.3,18.3,3,15,3v5c1.9,0,3.7,0.8,4.9,2.1L23.5,6.5z"/>
	</g>
</g>
</svg>
