<svg width="61" height="56" viewBox="0 0 61 56" fill="none" xmlns="http://www.w3.org/2000/svg">
<path d="M2.09915 56.0001C2.78535 56.0001 3.34162 55.4438 3.34162 54.7576C3.34162 54.0714 2.78535 53.5151 2.09915 53.5151C1.41296 53.5151 0.856689 54.0714 0.856689 54.7576C0.856689 55.4438 1.41296 56.0001 2.09915 56.0001Z" fill="#DE6944"/>
<path d="M2.09915 45.2623C2.78535 45.2623 3.34162 44.706 3.34162 44.0198C3.34162 43.3336 2.78535 42.7773 2.09915 42.7773C1.41296 42.7773 0.856689 43.3336 0.856689 44.0198C0.856689 44.706 1.41296 45.2623 2.09915 45.2623Z" fill="#DE6944"/>
<path d="M2.09915 34.523C2.78535 34.523 3.34162 33.9667 3.34162 33.2806C3.34162 32.5944 2.78535 32.0381 2.09915 32.0381C1.41296 32.0381 0.856689 32.5944 0.856689 33.2806C0.856689 33.9667 1.41296 34.523 2.09915 34.523Z" fill="#DE6944"/>
<path d="M2.09915 23.8731C2.78535 23.8731 3.34162 23.3168 3.34162 22.6306C3.34162 21.9445 2.78535 21.3882 2.09915 21.3882C1.41296 21.3882 0.856689 21.9445 0.856689 22.6306C0.856689 23.3168 1.41296 23.8731 2.09915 23.8731Z" fill="#DE6944"/>
<path d="M2.09915 13.1353C2.78535 13.1353 3.34162 12.579 3.34162 11.8929C3.34162 11.2067 2.78535 10.6504 2.09915 10.6504C1.41296 10.6504 0.856689 11.2067 0.856689 11.8929C0.856689 12.579 1.41296 13.1353 2.09915 13.1353Z" fill="#DE6944"/>
<path d="M2.10062 2.48591C2.78681 2.48591 3.34308 1.92964 3.34308 1.24344C3.34308 0.557247 2.78681 0.000976562 2.10062 0.000976562C1.41442 0.000976562 0.858154 0.557247 0.858154 1.24344C0.858154 1.92964 1.41442 2.48591 2.10062 2.48591Z" fill="#DE6944"/>
<path d="M59.6094 55.9991C60.2956 55.9991 60.8519 55.4428 60.8519 54.7566C60.8519 54.0704 60.2956 53.5142 59.6094 53.5142C58.9232 53.5142 58.3669 54.0704 58.3669 54.7566C58.3669 55.4428 58.9232 55.9991 59.6094 55.9991Z" fill="#DE6944"/>
<path d="M59.6094 45.2613C60.2956 45.2613 60.8519 44.705 60.8519 44.0188C60.8519 43.3326 60.2956 42.7764 59.6094 42.7764C58.9232 42.7764 58.3669 43.3326 58.3669 44.0188C58.3669 44.705 58.9232 45.2613 59.6094 45.2613Z" fill="#DE6944"/>
<path d="M59.6094 34.522C60.2956 34.522 60.8519 33.9658 60.8519 33.2796C60.8519 32.5934 60.2956 32.0371 59.6094 32.0371C58.9232 32.0371 58.3669 32.5934 58.3669 33.2796C58.3669 33.9658 58.9232 34.522 59.6094 34.522Z" fill="#DE6944"/>
<path d="M59.6094 23.8721C60.2956 23.8721 60.8519 23.3159 60.8519 22.6297C60.8519 21.9435 60.2956 21.3872 59.6094 21.3872C58.9232 21.3872 58.3669 21.9435 58.3669 22.6297C58.3669 23.3159 58.9232 23.8721 59.6094 23.8721Z" fill="#DE6944"/>
<path d="M59.6094 13.1343C60.2956 13.1343 60.8519 12.5781 60.8519 11.8919C60.8519 11.2057 60.2956 10.6494 59.6094 10.6494C58.9232 10.6494 58.3669 11.2057 58.3669 11.8919C58.3669 12.5781 58.9232 13.1343 59.6094 13.1343Z" fill="#DE6944"/>
<path d="M59.6096 2.48493C60.2958 2.48493 60.8521 1.92866 60.8521 1.24246C60.8521 0.55627 60.2958 0 59.6096 0C58.9235 0 58.3672 0.55627 58.3672 1.24246C58.3672 1.92866 58.9235 2.48493 59.6096 2.48493Z" fill="#DE6944"/>
<path d="M48.1609 55.9991C48.8471 55.9991 49.4034 55.4428 49.4034 54.7566C49.4034 54.0704 48.8471 53.5142 48.1609 53.5142C47.4747 53.5142 46.9185 54.0704 46.9185 54.7566C46.9185 55.4428 47.4747 55.9991 48.1609 55.9991Z" fill="#DE6944"/>
<path d="M48.1609 45.2613C48.8471 45.2613 49.4034 44.705 49.4034 44.0188C49.4034 43.3326 48.8471 42.7764 48.1609 42.7764C47.4747 42.7764 46.9185 43.3326 46.9185 44.0188C46.9185 44.705 47.4747 45.2613 48.1609 45.2613Z" fill="#DE6944"/>
<path d="M48.1609 34.522C48.8471 34.522 49.4034 33.9658 49.4034 33.2796C49.4034 32.5934 48.8471 32.0371 48.1609 32.0371C47.4747 32.0371 46.9185 32.5934 46.9185 33.2796C46.9185 33.9658 47.4747 34.522 48.1609 34.522Z" fill="#DE6944"/>
<path d="M48.1609 23.8721C48.8471 23.8721 49.4034 23.3159 49.4034 22.6297C49.4034 21.9435 48.8471 21.3872 48.1609 21.3872C47.4747 21.3872 46.9185 21.9435 46.9185 22.6297C46.9185 23.3159 47.4747 23.8721 48.1609 23.8721Z" fill="#DE6944"/>
<path d="M48.1609 13.1343C48.8471 13.1343 49.4034 12.5781 49.4034 11.8919C49.4034 11.2057 48.8471 10.6494 48.1609 10.6494C47.4747 10.6494 46.9185 11.2057 46.9185 11.8919C46.9185 12.5781 47.4747 13.1343 48.1609 13.1343Z" fill="#DE6944"/>
<path d="M48.1604 2.48493C48.8466 2.48493 49.4029 1.92866 49.4029 1.24246C49.4029 0.55627 48.8466 0 48.1604 0C47.4742 0 46.918 0.55627 46.918 1.24246C46.918 1.92866 47.4742 2.48493 48.1604 2.48493Z" fill="#DE6944"/>
<path d="M36.6238 55.9991C37.31 55.9991 37.8663 55.4428 37.8663 54.7566C37.8663 54.0704 37.31 53.5142 36.6238 53.5142C35.9376 53.5142 35.3813 54.0704 35.3813 54.7566C35.3813 55.4428 35.9376 55.9991 36.6238 55.9991Z" fill="#DE6944"/>
<path d="M36.6238 45.2613C37.31 45.2613 37.8663 44.705 37.8663 44.0188C37.8663 43.3326 37.31 42.7764 36.6238 42.7764C35.9376 42.7764 35.3813 43.3326 35.3813 44.0188C35.3813 44.705 35.9376 45.2613 36.6238 45.2613Z" fill="#DE6944"/>
<path d="M36.6238 34.522C37.31 34.522 37.8663 33.9658 37.8663 33.2796C37.8663 32.5934 37.31 32.0371 36.6238 32.0371C35.9376 32.0371 35.3813 32.5934 35.3813 33.2796C35.3813 33.9658 35.9376 34.522 36.6238 34.522Z" fill="#DE6944"/>
<path d="M36.6238 23.8721C37.31 23.8721 37.8663 23.3159 37.8663 22.6297C37.8663 21.9435 37.31 21.3872 36.6238 21.3872C35.9376 21.3872 35.3813 21.9435 35.3813 22.6297C35.3813 23.3159 35.9376 23.8721 36.6238 23.8721Z" fill="#DE6944"/>
<path d="M36.6238 13.1343C37.31 13.1343 37.8663 12.5781 37.8663 11.8919C37.8663 11.2057 37.31 10.6494 36.6238 10.6494C35.9376 10.6494 35.3813 11.2057 35.3813 11.8919C35.3813 12.5781 35.9376 13.1343 36.6238 13.1343Z" fill="#DE6944"/>
<path d="M36.6233 2.48493C37.3095 2.48493 37.8658 1.92866 37.8658 1.24246C37.8658 0.55627 37.3095 0 36.6233 0C35.9371 0 35.3809 0.55627 35.3809 1.24246C35.3809 1.92866 35.9371 2.48493 36.6233 2.48493Z" fill="#DE6944"/>
<path d="M25.0865 55.9991C25.7727 55.9991 26.3289 55.4428 26.3289 54.7566C26.3289 54.0704 25.7727 53.5142 25.0865 53.5142C24.4003 53.5142 23.844 54.0704 23.844 54.7566C23.844 55.4428 24.4003 55.9991 25.0865 55.9991Z" fill="#DE6944"/>
<path d="M25.0865 45.2613C25.7727 45.2613 26.3289 44.705 26.3289 44.0188C26.3289 43.3326 25.7727 42.7764 25.0865 42.7764C24.4003 42.7764 23.844 43.3326 23.844 44.0188C23.844 44.705 24.4003 45.2613 25.0865 45.2613Z" fill="#DE6944"/>
<path d="M25.0865 34.522C25.7727 34.522 26.3289 33.9658 26.3289 33.2796C26.3289 32.5934 25.7727 32.0371 25.0865 32.0371C24.4003 32.0371 23.844 32.5934 23.844 33.2796C23.844 33.9658 24.4003 34.522 25.0865 34.522Z" fill="#DE6944"/>
<path d="M25.0865 23.8721C25.7727 23.8721 26.3289 23.3159 26.3289 22.6297C26.3289 21.9435 25.7727 21.3872 25.0865 21.3872C24.4003 21.3872 23.844 21.9435 23.844 22.6297C23.844 23.3159 24.4003 23.8721 25.0865 23.8721Z" fill="#DE6944"/>
<path d="M25.0865 13.1343C25.7727 13.1343 26.3289 12.5781 26.3289 11.8919C26.3289 11.2057 25.7727 10.6494 25.0865 10.6494C24.4003 10.6494 23.844 11.2057 23.844 11.8919C23.844 12.5781 24.4003 13.1343 25.0865 13.1343Z" fill="#DE6944"/>
<path d="M25.086 2.48493C25.7722 2.48493 26.3284 1.92866 26.3284 1.24246C26.3284 0.55627 25.7722 0 25.086 0C24.3998 0 23.8435 0.55627 23.8435 1.24246C23.8435 1.92866 24.3998 2.48493 25.086 2.48493Z" fill="#DE6944"/>
<path d="M13.5496 55.9991C14.2358 55.9991 14.7921 55.4428 14.7921 54.7566C14.7921 54.0704 14.2358 53.5142 13.5496 53.5142C12.8634 53.5142 12.3071 54.0704 12.3071 54.7566C12.3071 55.4428 12.8634 55.9991 13.5496 55.9991Z" fill="#DE6944"/>
<path d="M13.5496 45.2613C14.2358 45.2613 14.7921 44.705 14.7921 44.0188C14.7921 43.3326 14.2358 42.7764 13.5496 42.7764C12.8634 42.7764 12.3071 43.3326 12.3071 44.0188C12.3071 44.705 12.8634 45.2613 13.5496 45.2613Z" fill="#DE6944"/>
<path d="M13.5496 34.522C14.2358 34.522 14.7921 33.9658 14.7921 33.2796C14.7921 32.5934 14.2358 32.0371 13.5496 32.0371C12.8634 32.0371 12.3071 32.5934 12.3071 33.2796C12.3071 33.9658 12.8634 34.522 13.5496 34.522Z" fill="#DE6944"/>
<path d="M13.5496 23.8721C14.2358 23.8721 14.7921 23.3159 14.7921 22.6297C14.7921 21.9435 14.2358 21.3872 13.5496 21.3872C12.8634 21.3872 12.3071 21.9435 12.3071 22.6297C12.3071 23.3159 12.8634 23.8721 13.5496 23.8721Z" fill="#DE6944"/>
<path d="M13.5496 13.1343C14.2358 13.1343 14.7921 12.5781 14.7921 11.8919C14.7921 11.2057 14.2358 10.6494 13.5496 10.6494C12.8634 10.6494 12.3071 11.2057 12.3071 11.8919C12.3071 12.5781 12.8634 13.1343 13.5496 13.1343Z" fill="#DE6944"/>
<path d="M13.5489 2.48493C14.2351 2.48493 14.7913 1.92866 14.7913 1.24246C14.7913 0.55627 14.2351 0 13.5489 0C12.8627 0 12.3064 0.55627 12.3064 1.24246C12.3064 1.92866 12.8627 2.48493 13.5489 2.48493Z" fill="#DE6944"/>
</svg>
