<svg width="54" height="54" viewBox="0 0 54 54" fill="none" xmlns="http://www.w3.org/2000/svg">
<path d="M46.1665 43.496L49.2751 42.263L50.9059 36.4508L50.4001 36.0008L48.2635 40.877L46.1557 41.8472L47.2051 35.9576L45.6193 30.4892L45.0001 30.6008L46.3933 35.9864L44.6653 41.3162L41.9059 37.9142V33.8642L41.3713 33.5816L40.7809 38.3066L43.0939 41.6438L39.9007 40.958L38.3905 37.6046L37.8001 37.8008L39.2023 41.7644L43.7851 43.8776L43.2001 48.6008H30.6001L30.0619 41.4008L30.2653 37.1744L34.0885 35.4392L37.3879 32.0642L37.2007 31.463L33.3001 34.0136L30.4219 34.0586L30.6181 30.1292L38.2879 27.8396L46.5751 21.2642L46.8001 19.8008L37.4671 26.0882L31.4011 26.7272L36.7885 21.3758L41.5693 14.8508L39.6001 8.43919L38.1763 8.32578L39.1501 13.5566L35.3251 20.0258L29.5885 22.445L28.9783 20.3048L33.5251 14.2892L33.7879 8.51477L32.6629 7.67058L31.9879 13.427L28.1251 17.3816L25.8355 9.03679L29.4193 3.03919L28.8001 1.80078L23.4001 9.00078L26.8075 26.9252L26.3017 29.4272L22.5253 26.1674L18.0001 18.0008L19.1251 9.50659L18.0001 9.00078L15.6889 17.8982L15.6457 18.0602L15.7519 18.269L20.5687 27.6938L21.9619 29.3084L16.2001 27.0008L12.3193 24.3566L8.88852 18.1142L7.36931 18.0566L11.0251 25.2566L15.8527 29.258L25.0111 32.8418L24.2695 39.4982L20.1637 38.9672L16.8373 34.7264L16.0507 34.9136L19.2799 40.0832L23.8447 42.6644L22.8385 48.6008H10.8001L10.2763 43.2008L10.2637 43.073L12.9457 39.8006L13.7251 35.6912L12.9385 35.4392L11.8873 39.0014L9.71292 40.6898L8.0623 37.763L9.82631 33.1136L9.00011 32.4008L6.69072 37.7396L7.47731 41.9426L3.86292 40.6142L2.77571 39.0392L1.9873 39.338L3.39851 41.6618L7.68792 43.5914L7.20011 48.6008H3.60011V50.4008H50.4001V48.6008H46.8001L46.1665 43.496Z" fill="#5F432E"/>
</svg>
