<svg width="24" height="24" viewBox="0 0 24 24" fill="none" xmlns="http://www.w3.org/2000/svg">
<path d="M19.1282 0.282097C19.396 0.311593 19.6194 0.566401 19.6137 0.836051V1.92686C19.6177 2.21497 19.3566 2.48003 19.0686 2.48003C18.7807 2.48003 18.5196 2.21495 18.5236 1.92686V0.836051C18.5169 0.526624 18.8208 0.248239 19.1282 0.282097H19.1282ZM16.3691 1.7221L17.144 2.49757C17.3512 2.6991 17.3527 3.07301 17.1472 3.27645C16.9417 3.47969 16.5681 3.47398 16.3688 3.26446L15.6023 2.49757C15.3127 2.19575 15.4143 1.92135 15.5972 1.70461C15.8412 1.50727 16.1491 1.55028 16.3689 1.72212L16.3691 1.7221ZM22.4917 1.67453C22.776 1.92401 22.7203 2.29245 22.5348 2.49759L21.7682 3.26449C21.5692 3.47401 21.1954 3.47971 20.9899 3.27647C20.7844 3.07323 20.7861 2.69909 20.9931 2.4976L21.768 1.72213C22.0792 1.50043 22.263 1.53354 22.4914 1.67456L22.4917 1.67453ZM19.0686 3.56268C19.9716 3.56268 20.7037 4.29513 20.7037 5.19867C20.7037 6.10221 19.9716 6.83467 19.0686 6.83467C18.1657 6.83467 17.4336 6.10221 17.4336 5.19867C17.4336 4.29513 18.1657 3.56268 19.0686 3.56268ZM23.48 4.65349C23.7654 4.66681 24.013 4.93875 23.9995 5.22439C23.9861 5.51003 23.7142 5.75759 23.4288 5.7441H22.3387C22.0508 5.7481 21.7859 5.48682 21.7859 5.19872C21.7859 4.91061 22.0508 4.64935 22.3387 4.65334H23.48V4.65349ZM15.8495 4.65349C16.135 4.66681 16.3825 4.93875 16.369 5.22439C16.3557 5.51003 16.0838 5.75759 15.7983 5.7441H14.7083C14.4204 5.7481 14.1554 5.48682 14.1554 5.19872C14.1554 4.91061 14.4203 4.64935 14.7083 4.65334H15.8495V4.65349ZM17.1294 7.09369C17.3863 7.34127 17.3117 7.68988 17.1441 7.89162L16.3692 8.66708C16.1677 8.87432 15.7941 8.87603 15.5909 8.67032C15.3876 8.46479 15.3933 8.09084 15.6029 7.89164L16.3694 7.12474C16.6864 6.89448 16.8853 6.9 17.1298 7.09372L17.1294 7.09369ZM21.7684 7.12471L22.5349 7.8916C22.7442 8.09084 22.7499 8.4648 22.5468 8.67028C22.3436 8.87581 21.9699 8.87428 21.7685 8.66705L20.9936 7.89158C20.7479 7.6166 20.7731 7.34981 21.0041 7.10925C21.277 6.87023 21.5143 6.92884 21.7685 7.12466L21.7684 7.12471ZM19.1284 7.91713C19.3961 7.94663 19.6195 8.20143 19.6138 8.47108V9.56189C19.6178 9.85001 19.3567 10.1151 19.0688 10.1151C18.7809 10.1151 18.5197 9.84998 18.5237 9.56189V8.47108C18.5171 8.16166 18.821 7.88327 19.1283 7.91713H19.1284ZM20.4313 15.0151L23.4289 15.8332V23.7408H-0.00708008V15.8332L3.34826 15.1175L3.69746 16.6344C3.41011 16.7781 3.12183 16.9198 2.83732 17.069C2.63294 17.5899 2.42342 18.1088 2.2156 18.6283L3.22057 19.0289L3.68052 17.87C4.12164 17.6508 4.5618 17.4295 5.00045 17.2053C4.79397 16.5234 4.64173 15.8264 4.47236 15.1346L8.02354 15.7482L8.56858 17.2991C8.29835 17.5029 8.02661 17.7048 7.75964 17.9126C7.46183 18.395 7.17407 18.8836 6.88255 19.3697L7.81937 19.9321L8.58587 18.6539L9.06276 18.2959L9.59085 19.3441L10.5618 18.8584C9.99812 17.8666 9.58914 16.8181 9.18212 15.7568L13.3464 15.2881L15.9268 15.7141C15.4625 16.8118 14.8524 17.8088 14.2406 18.8244L15.1774 19.3867L15.7565 18.4153L17.2468 18.9776L17.4512 19.7785L18.5071 19.5144C18.3929 19.0573 18.2774 18.6004 18.1665 18.1426C17.5459 17.9281 16.9335 17.6904 16.3185 17.4609L17.1446 15.7311L20.4313 15.0151Z" fill="#D29434"/>
</svg>
