<svg width="76" height="75" viewBox="0 0 76 75" fill="none" xmlns="http://www.w3.org/2000/svg">
<path d="M70.3438 58.3008C70.8711 60.6445 69.4062 62.8125 67.2383 63.2812L39.8164 69.5508C36.5352 70.4297 32.7266 69.9609 29.6211 68.0273L16.9648 60.0586C15.3828 59.0625 13.5078 58.7109 11.8086 59.1211L1.08594 66.5625L1.02734 49.9219L16.0859 41.3672C19.3672 39.7266 22.8242 41.1914 25.8125 43.0664L43.9766 54.5508C45.8516 55.7812 46.4375 58.3594 45.207 60.2344C43.9766 62.1094 41.457 62.6367 39.5234 61.4648L24.9336 52.207C24.3477 51.7969 23.5273 51.9727 23.1172 52.6172C22.707 53.2617 22.8242 54.082 23.5273 54.4922L38.0586 63.75C39.582 64.8047 41.457 65.0977 43.2148 64.6875C44.9727 64.2188 46.4961 63.1055 47.4922 61.582C48.0195 60.8789 48.3711 60 48.4883 59.1797L65.3633 55.3125C67.5898 54.8438 69.7578 56.1914 70.3438 58.3008ZM35.832 28.125V38.3203C33.3711 39.3164 31.9062 40.5469 31.9062 41.8945C31.9062 45.1172 40.2266 44.2969 50.2461 44.2969C60.2656 44.2969 68.1758 45.0586 68.1758 41.8945C68.1758 40.6055 66.8867 39.4336 64.7188 38.4961V28.125C64.7188 28.125 71.8607 31.1547 73.1562 28.125C74.4142 25.1833 67.8828 21.8555 67.8828 21.8555H71.3984L66.0664 15.5273H69.582L63.1953 7.96875L58.6836 13.3008L62.6094 18.1055H58.6836L64.6016 25.0781H53.5273V28.125H61.5547V37.3828C58.918 36.6797 55.6367 36.2109 52.0625 36.0938V23.6719H61.5547L55.6367 16.6992H59.5625L53.5273 9.375H57.4531L50.3047 0.996094L43.1562 9.375H47.082L40.9883 16.5234H45.0898L39.0547 23.6719H48.5469V36.1523C45.0312 36.2695 41.75 36.6797 39.0547 37.3242V28.125H47.082V25.0781H36.0078L42.1016 17.9297H38L41.9844 13.3008L37.4727 7.96875L31.2031 15.4687H34.6016L29.2695 21.9141H32.8438L27.4531 28.125H35.832Z" fill="black"/>
<path d="M35.832 28.125V38.3203C33.3711 39.3164 31.9062 40.5469 31.9062 41.8945C31.9062 45.1172 40.2266 44.2969 50.2461 44.2969C60.2656 44.2969 68.1758 45.0586 68.1758 41.8945C68.1758 40.6055 66.8867 39.4336 64.7188 38.4961V28.125C64.7188 28.125 71.8607 31.1547 73.1562 28.125C74.4142 25.1833 67.8828 21.8555 67.8828 21.8555H71.3984L66.0664 15.5273H69.582L63.1953 7.96875L58.6836 13.3008L62.6094 18.1055H58.6836L64.6016 25.0781H53.5273V28.125H61.5547V37.3828C58.918 36.6797 55.6367 36.2109 52.0625 36.0938V23.6719H61.5547L55.6367 16.6992H59.5625L53.5273 9.375H57.4531L50.3047 0.996094L43.1563 9.375H47.082L40.9883 16.5234H45.0898L39.0547 23.6719H48.5469V36.1523C45.0313 36.2695 41.75 36.6797 39.0547 37.3242V28.125H47.082V25.0781H36.0078L42.1016 17.9297H38L41.9844 13.3008L37.4727 7.96875L31.2031 15.4687H34.6016L29.2695 21.9141H32.8438L27.4531 28.125H35.832Z" fill="#379B45"/>
</svg>
