<svg xmlns="http://www.w3.org/2000/svg" width="160.9" height="160.9" viewBox="0 0 42.571 42.571"><path d="M7.964 10.98H5.609v-.397c0-.661.238-.926.609-1.323l.926-.979c.74-.793.9-1.296.9-2.17v-.82c0-1.216-.583-1.798-1.88-1.798-1.27 0-1.904.661-1.904 1.878v1.032h1.323V5.318c0-.529.264-.661.555-.661.291 0 .53.106.53.635v.714c0 .714-.053.979-.53 1.482l-.82.873c-.794.847-1.085 1.402-1.085 2.249v1.587H7.99zM17.595 36.195v.661c0 .16.132.265.264.265h7.012c.159 0 .264-.132.264-.291v-.688c3.943-1.296 6.906-4.498 7.567-8.414v-.053a.294.294 0 00-.29-.29H10.027a.294.294 0 00-.291.29l.026.133c.767 3.916 3.81 7.143 7.832 8.387m7.593-18.389c-.079.133-2.249 3.255.053 5.768 1.059 1.165.953 2.17.662 2.858h1.481c.291-1.006.186-2.302-1.032-3.598-1.693-1.853.027-4.366.053-4.393.212-.29.106-.661-.238-.82-.344-.185-.767-.106-.979.185m-3.73 8.626h1.481c.291-1.006.186-2.302-1.032-3.598-1.693-1.853.027-4.366.053-4.393.212-.29.106-.661-.238-.82-.344-.159-.767-.08-.979.212-.106.132-2.249 3.254.053 5.768 1.059 1.138.953 2.143.662 2.83m-5.186-8.625c-.106.133-2.25 3.255.053 5.768 1.058 1.165.952 2.17.661 2.858h1.482c.291-1.006.185-2.302-1.032-3.598-1.693-1.853.026-4.366.053-4.393.212-.29.106-.661-.238-.82-.318-.185-.767-.106-.98.185M12.753 6.588h.9v.476h-1.509v-.476l.926-2.513h-.82v-.477h1.455v.477zm1.27-3.016h1.402v.476h-.82v1.006h.582v.476h-.582v1.058h.82v.476h-1.402zm2.355 1.878v1.588h-.582V3.572h.846c.582 0 .794.29.794.767v.45c0 .37-.132.582-.476.661l.555 1.588h-.608zm0-1.402v1.085h.185c.212 0 .291-.106.291-.291v-.503c0-.185-.08-.29-.291-.29zm1.428 2.117V4.47c0-.555.265-.926.874-.926.608 0 .9.397.9.926v1.694c0 .529-.265.926-.9.926-.609 0-.874-.397-.874-.926zm1.191.08v-1.88c0-.211-.08-.37-.291-.37-.212 0-.291.159-.291.37v1.88c0 .21.08.37.291.37.212 0 .291-.16.291-.37zM13.309 10.61h-.556v1.534h-.582V8.678h.582v1.482h.556V8.678h.582v3.466h-.582zm2.672-1.932v2.62c0 .529-.238.9-.82.9-.609 0-.874-.345-.874-.9v-2.62h.583v2.7c0 .21.079.343.29.343.212 0 .292-.132.292-.344V8.678zm.873 1.297v2.196h-.476V8.705h.582l.635 1.984V8.705h.476v3.466h-.503zm2.487.317h.82v1.852h-.423v-.37c-.08.265-.238.423-.556.423-.502 0-.74-.397-.74-.926V9.578c0-.556.264-.926.873-.926.635 0 .846.37.846.873v.317h-.529V9.5c0-.212-.08-.344-.291-.344-.212 0-.291.158-.291.37v1.879c0 .211.08.37.291.37.185 0 .291-.106.291-.344v-.609h-.265v-.529zm1.217-1.614h1.402v.477h-.82v1.005h.582v.476h-.582v1.059h.82v.476h-1.402zm2.328 1.879v1.587h-.582V8.678h.847c.582 0 .794.291.794.768v.45c0 .37-.133.581-.476.66l.555 1.588h-.608zm0-1.402v1.084h.186c.211 0 .29-.105.29-.29v-.503c0-.186-.079-.291-.29-.291z" class="st2" fill="#fff"/></svg>