<svg xmlns="http://www.w3.org/2000/svg" width="160.9" height="160.9" viewBox="0 0 42.571 42.571"><path class="st2" d="M6.059 12.277c1.455 0 2.09-.768 2.09-1.958v-1.27c0-.794-.344-1.297-1.058-1.455.582-.186.979-.662.979-1.403v-.74c0-1.218-.582-1.959-1.905-1.959-1.482 0-2.011.874-2.011 2.144v.767h1.323V5.53c0-.53.159-.847.608-.847.45 0 .609.291.609.767v.926c0 .45-.291.688-.767.688H5.37v1.112h.609c.502 0 .714.238.714.688v1.428c0 .45-.212.768-.635.768-.503 0-.662-.318-.662-.847V8.996H4.075v1.138c0 1.296.529 2.143 1.984 2.143" fill="#fff"/><g fill="#fff"><path class="st2" d="M35.56 26.617c0-1.19-.767-2.17-1.931-2.17-.583 0-1.297.636-1.667 1.032-.37-.396-1.032-1.031-1.614-1.031-1.164 0-1.985.978-1.985 2.17 0 .608.238 1.137.609 1.534l2.99 2.99 2.99-2.99c.37-.397.608-.926.608-1.535z"/><path class="st2" d="M22.86 36.01c-.265-.027-.45-.185-.476-.397l-1.508-8.837-2.302 4.26a.48.48 0 01-.53.238c-.211-.027-.37-.212-.396-.424l-.98-6.826-1.772 3.995a.489.489 0 01-.45.291H7.514a.502.502 0 110-1.005h6.615l2.355-5.265a.464.464 0 01.502-.291.505.505 0 01.424.423l1.005 7.038 2.275-4.207c.106-.185.291-.29.503-.238a.45.45 0 01.397.397l1.402 8.176L28.1 16.35c.053-.185.238-.344.423-.344a.48.48 0 01.476.265l2.7 5.583a.5.5 0 01-.239.661.5.5 0 01-.661-.238l-2.144-4.445-5.344 17.78c-.053.265-.238.397-.45.397z"/></g><path class="st2" d="M13.044 5.186h.82v1.852h-.423v-.37c-.08.264-.238.423-.556.423-.502 0-.74-.397-.74-.926V4.47c0-.555.264-.926.873-.926.635 0 .846.37.846.874v.317h-.529v-.344c0-.212-.08-.344-.291-.344-.212 0-.291.159-.291.37v1.88c0 .21.08.37.291.37.185 0 .291-.106.291-.344v-.609h-.265v-.53zm1.217.979V4.47c0-.555.265-.926.873-.926.609 0 .9.397.9.926v1.694c0 .529-.265.926-.9.926-.608 0-.873-.397-.873-.926zm1.19.08v-1.88c0-.211-.079-.37-.29-.37-.212 0-.291.159-.291.37v1.88c0 .21.079.37.29.37.186 0 .292-.16.292-.37zm.953-.08V4.47c0-.555.265-.926.873-.926.609 0 .9.397.9.926v1.694c0 .529-.265.926-.9.926-.608 0-.873-.397-.873-.926zm1.19.08v-1.88c0-.211-.079-.37-.29-.37-.212 0-.291.159-.291.37v1.88c0 .21.08.37.29.37.212 0 .292-.16.292-.37zm2.726-1.747v1.614c0 .529-.212.926-.847.926h-.9V3.572h.9c.609 0 .847.397.847.926zm-.926 2.064c.238 0 .344-.133.344-.344V4.392c0-.212-.08-.344-.344-.344h-.238v2.514zm3.254-1.032h-.555v1.534h-.582V3.598h.582V5.08h.555V3.598h.582v3.466h-.582zm1.006-1.958h1.402v.476h-.82v1.006h.582v.476h-.582v1.058h.82v.476h-1.402zm1.667 3.492l.661-3.466h.662l.661 3.466h-.609l-.105-.635h-.609l-.106.635zm.74-1.11h.477L26.3 4.55zm1.535-2.382h.582v2.99h.688v.476h-1.27zm1.19 0h1.562v.476h-.477v2.99h-.582v-2.99h-.476v-.476zM31.83 5.53h-.555v1.534h-.582V3.598h.582V5.08h.555V3.598h.582v3.466h-.582zM12.065 12.144l.661-3.466h.662l.661 3.466h-.608l-.106-.635h-.609l-.105.635zm.74-1.084h.477l-.238-1.403zm1.985-1.085v2.196h-.502V8.705h.582l.635 1.984V8.705h.476v3.466h-.503zm3.36-.37v1.613c0 .53-.211.926-.846.926h-.9V8.678h.9c.635 0 .846.397.846.926zm-.926 2.063c.239 0 .344-.132.344-.344V9.5c0-.212-.079-.344-.344-.344h-.238v2.513zm3.175-1.667l-.317 2.143h-.556l-.476-3.466h.556l.264 2.196.291-2.196h.477l.317 2.196.265-2.196h.502l-.45 3.466h-.555zm1.64-1.323h1.403v.477h-.82v1.005h.582v.476h-.582v1.059h.82v.476H22.04zm1.774 0h.582v2.99h.688v.476h-1.27zm1.587 0h.582v2.99h.688v.476H25.4zm1.217 1.43h.82v.475h-.82zm1.164-1.43h.847c.582 0 .767.265.767.768v.344c0 .29-.106.476-.344.555.291.08.424.265.424.582v.45c0 .503-.212.767-.794.767h-.9zm.582 1.456h.212c.185 0 .265-.106.265-.291v-.424c0-.185-.08-.29-.291-.29h-.212zm0 .45v1.084h.265c.185 0 .291-.106.291-.29v-.53c0-.185-.08-.291-.291-.291h-.265zm1.482-1.906h1.402v.477h-.82v1.005h.582v.476h-.582v1.059h.82v.476h-1.402zm1.746 0h.582v3.466h-.582zM33.1 9.975v2.196h-.502V8.705h.582l.635 1.984V8.705h.476v3.466h-.503zm2.487.317h.82v1.852h-.423v-.37c-.079.265-.238.423-.555.423-.503 0-.741-.397-.741-.926V9.578c0-.556.264-.926.873-.926.635 0 .847.37.847.873v.318h-.53v-.344c0-.212-.079-.344-.29-.344-.212 0-.292.158-.292.37v1.879c0 .211.08.37.291.37.186 0 .292-.106.292-.344v-.609h-.265v-.529z" fill="#fff"/></svg>