<svg xmlns="http://www.w3.org/2000/svg" width="160.9" height="160.9" viewBox="0 0 42.571 42.571"><path class="st2" d="M6.667 12.17h1.376V10.77h.582V9.63h-.582V3.57H6.615L4.127 9.87v.873h2.54zm-1.27-2.54l1.297-3.545v3.546z" fill="#fff"/><g fill="#fff"><path class="st2" d="M18.68 22.834l-7.647-4.419v14.287l7.647 2.302zm.82.026v12.144l7.7-2.328V18.415zm13.679-4.789c0-.503-.397-.9-.9-.9s-.9.397-.9.9v.979h1.8zm-1.561 14.367h-.238l.9 3.148.899-3.148h-.212.212v-12.7h-1.8v12.7z"/><path class="st2" d="M28.84 19.05l-.82-.661v14.684l-8.494 2.752h-.846l-8.467-2.355V18.389l-.82.661v14.975l9.234 2.567h.952l8.493-2.699.768-.238z"/></g><path class="st2" d="M12.17 8.678h1.403v.477h-.82v1.005h.582v.476h-.582v1.059h.82v.476h-1.402zm3.493.926v1.614c0 .53-.211.926-.846.926h-.9V8.678h.9c.635 0 .846.397.846.926zm-.926 2.064c.238 0 .344-.132.344-.344V9.5c0-.212-.08-.344-.344-.344H14.5v2.513zm3.017-2.99v2.62c0 .529-.239.9-.82.9-.61 0-.874-.345-.874-.9v-2.62h.582v2.7c0 .21.08.343.291.343.212 0 .291-.132.291-.344V8.678zm.37 2.567V9.55c0-.555.265-.926.873-.926.635 0 .82.37.82.874v.423h-.529v-.45c0-.212-.08-.344-.29-.344-.213 0-.292.159-.292.37v1.88c0 .21.08.37.291.37.212 0 .291-.133.291-.344v-.635h.53v.608c0 .503-.212.873-.82.873-.61-.053-.874-.45-.874-1.005zm1.905.9l.661-3.467h.662l.661 3.466h-.608l-.106-.635h-.609l-.105.635zm.714-1.085h.477l-.239-1.403zm1.191-2.382h1.561v.477h-.476v2.99h-.582v-2.99h-.477v-.477zm1.878 0h.583v3.466h-.583zm.98 2.567V9.55c0-.555.264-.926.873-.926.608 0 .9.397.9.926v1.694c0 .529-.265.926-.9.926-.609.026-.874-.37-.874-.926zm1.19.106V9.472c0-.212-.08-.37-.291-.37-.212 0-.291.158-.291.37v1.879c0 .211.08.37.291.37.185-.026.291-.159.291-.37zm1.455-1.376v2.196h-.502V8.705h.582l.635 1.984V8.705h.476v3.466h-.503zM12.832 7.276v-.238c-.476-.08-.661-.423-.661-.9V4.445c0-.556.264-.926.873-.926.608 0 .9.397.9.926v1.693c0 .37-.133.688-.424.82l.424.08v.423zm.53-1.005V4.366c0-.212-.08-.37-.292-.37-.211 0-.29.158-.29.37V6.27c0 .211.079.37.29.37.186 0 .291-.159.291-.37zm2.645-2.7v2.62c0 .53-.238.9-.82.9-.608 0-.873-.344-.873-.9v-2.62h.582v2.7c0 .211.08.344.291.344.212 0 .291-.133.291-.344v-2.7zm.238 3.467l.662-3.466h.661l.662 3.466h-.609l-.106-.635h-.608l-.106.635zm.715-1.085h.476l-.238-1.402zm1.534-2.381h.582v2.99h.688v.476h-1.27zm1.561 0h.582v3.466h-.582zm.874 0h1.56v.476h-.476v2.99h-.582v-2.99h-.476zm2.963 2.143v1.323h-.582V5.715l-.662-2.143h.609l.344 1.323.344-1.323h.555z" fill="#fff"/></svg>