<svg xmlns="http://www.w3.org/2000/svg" width="160.9" height="160.9" viewBox="0 0 42.571 42.571"><path class="st2" d="M6.773 6.297c-.582 0-.979.212-1.217.582V4.736h2.487v-1.19h-3.81v4.841h1.323v-.185c0-.503.238-.794.635-.794.45 0 .609.318.609.768v2.063c0 .45-.159.768-.609.768-.502 0-.661-.318-.661-.847V9.075H4.207v.98c0 1.296.529 2.142 1.984 2.142s2.064-.767 2.064-1.958V8.202c0-1.376-.688-1.905-1.482-1.905" fill="#fff"/><g fill="#fff"><path class="st2" d="M31.01 16.113h-5.293c-.026 0-.079.027-.079.08v1.746c0 .026.027.08.08.08h2.116l-2.328 2.327a6.953 6.953 0 00-4.286-1.481c-3.81 0-6.933 3.122-6.933 6.932 0 3.519 2.646 6.43 6.033 6.879v2.037h-2.09c-.027 0-.08.027-.08.08v1.878c0 .027.027.08.08.08h2.09v1.984c0 .026.026.08.08.08h1.878c.026 0 .08-.027.08-.08v-1.984h2.09c.026 0 .079-.027.079-.08v-1.878c0-.027-.027-.08-.08-.08h-2.09V32.65a6.917 6.917 0 005.795-6.827 6.966 6.966 0 00-1.27-3.995l2.302-2.302v1.958c0 .027.026.08.079.08h1.746c.027 0 .08-.027.08-.08v-5.292c0-.052-.053-.079-.08-.079m-9.79 14.79c-2.804 0-5.106-2.302-5.106-5.106a5.11 5.11 0 015.107-5.107 5.11 5.11 0 015.106 5.107c0 2.804-2.302 5.106-5.106 5.106"/><path class="st2" d="M24.368 23.707h-6.165c-.026 0-.079.026-.079.053v1.508c0 .026.026.053.08.053h6.19c.027 0 .08-.027.08-.053V23.76c-.027-.027-.053-.053-.106-.053m0 2.672h-6.165c-.026 0-.079.026-.079.053v1.508c0 .026.026.053.08.053h6.19c.027 0 .08-.027.08-.053v-1.508c-.027-.027-.053-.053-.106-.053"/></g><path class="st2" d="M12.144 8.678h1.403v.477h-.82v1.005h.582v.476h-.583v1.059h.82v.476h-1.402zm2.329 3.704v-.238c-.477-.079-.662-.423-.662-.9V9.552c0-.555.265-.926.873-.926.609 0 .9.397.9.926v1.694c0 .37-.132.688-.423.82l.423.08v.423zm.529-1.005V9.472c0-.212-.08-.37-.291-.37-.212 0-.291.158-.291.37v1.905c0 .212.08.37.29.37.212 0 .292-.158.292-.37zm2.672-2.699v2.62c0 .529-.238.9-.82.9-.609 0-.873-.345-.873-.9v-2.62h.582v2.7c0 .21.08.343.291.343.212 0 .291-.132.291-.344V8.678zm.291 3.466l.662-3.466h.661l.662 3.466h-.609l-.106-.635h-.608l-.106.635zm.741-1.084h.476l-.238-1.403zm1.535-2.382h.582v2.99h.688v.476h-1.27zm1.587 0h.582v3.466h-.582zm.9 0h1.56v.477h-.476v2.99h-.582v-2.99h-.476v-.477zm3.016 2.143v1.323h-.582v-1.323L24.5 8.678h.609l.344 1.323.344-1.323h.555zM13.044 5.186h.82v1.852h-.423v-.37c-.08.264-.238.423-.556.423-.503 0-.74-.397-.74-.926V4.47c0-.555.264-.926.872-.926.635 0 .847.37.847.874v.317h-.529v-.344c0-.212-.08-.344-.291-.344-.212 0-.291.159-.291.37v1.88c0 .21.08.37.291.37.185 0 .291-.106.291-.344v-.609h-.265v-.53zm1.217-1.614h1.402v.476h-.82v1.006h.582v.476h-.582v1.058h.82v.476h-1.402zm2.249 1.296v2.196h-.503V3.598h.582l.635 1.985V3.598h.477v3.466h-.503zm3.334-.37v1.614c0 .529-.212.926-.847.926h-.9V3.572h.9c.635 0 .847.397.847.926zm-.926 2.064c.238 0 .344-.133.344-.344V4.392c0-.212-.08-.344-.344-.344h-.238v2.514zm1.323-2.99h1.402v.476h-.82v1.006h.582v.476h-.582v1.058h.82v.476H20.24zm2.328 1.878v1.588h-.582V3.572h.847c.582 0 .793.29.793.767v.45c0 .37-.132.582-.476.661l.556 1.588h-.609zm0-1.402v1.085h.185c.212 0 .291-.106.291-.291v-.503c0-.185-.08-.29-.29-.29z" fill="#fff"/></svg>