<svg xmlns="http://www.w3.org/2000/svg" width="160.9" height="160.9" viewBox="0 0 42.571 42.571"><path class="st2" d="M6.456 12.277c1.534 0 2.116-.847 2.116-2.17v-1.27c0-1.402-.555-2.117-1.587-2.117-.609 0-.979.291-1.19.688V5.556c0-.529.158-.9.687-.9.53 0 .662.318.662.847v.582h1.323v-.45c0-1.27-.424-2.142-2.011-2.142-1.508 0-2.09.978-2.09 2.328V10c-.027 1.297.555 2.276 2.09 2.276m-.662-3.625c.027-.476.238-.794.688-.794.503 0 .688.291.688.873v1.482c0 .556-.211.873-.688.873-.476 0-.661-.317-.661-.873zm23.363 8.572a.202.202 0 00-.132-.053H13.573a.202.202 0 00-.132.053c-.027.053-.053.106-.027.16l2.593 15.689c.027.08.08.159.185.159h3.175l.212 2.566h-1.35l3.123 3.122 3.122-3.122h-1.35l.212-2.54h3.228c.08 0 .159-.053.185-.159l2.435-15.69c.026-.105 0-.158-.027-.185zm-5.953 12.568s-.714.714-1.852.635c-1.138.08-1.852-.635-1.852-.635-1.164-1.164-.741-2.593-.344-3.334.238-.476 2.037-3.148 2.17-3.36v-.026.026c.158.238 1.93 2.91 2.169 3.36.45.741.847 2.17-.291 3.334zm4.895-9.26c-.424-.186-.953-.106-1.455.079-1.905.767-3.228 1.058-5.24.423-1.27-.397-2.46-1.217-3.862-.714-.926.344-1.8.661-2.858.635l-.608-3.122h14.446zM12.118 12.144l.661-3.466h.662l.661 3.466h-.608l-.106-.635h-.609l-.105.635zm.74-1.084h.477l-.238-1.403zm1.985-1.085v2.196h-.503V8.705h.582l.635 1.984V8.705h.477v3.466h-.503zm3.36-.37v1.613c0 .53-.211.926-.846.926h-.9V8.678h.9c.635 0 .846.397.846.926zm-.9 2.063c.239 0 .345-.132.345-.344V9.5c0-.212-.08-.344-.344-.344h-.238v2.513zm2.223-.264v-.477h.556v.477c0 .185.08.317.29.317.186 0 .265-.132.265-.317v-.133c0-.211-.079-.317-.264-.502l-.344-.344c-.344-.318-.476-.53-.476-.926v-.106c0-.424.264-.768.82-.768.582 0 .82.291.82.794v.291h-.529v-.29c0-.213-.08-.292-.265-.292-.158 0-.264.08-.264.291v.08c0 .185.106.317.264.476l.37.37c.318.318.477.53.477.9v.159c0 .476-.265.82-.847.82-.661-.027-.873-.37-.873-.82zm1.852.74l.662-3.466h.661l.662 3.466h-.609l-.106-.635h-.608l-.106.635zm.715-1.084h.476l-.238-1.403zm2.037-1.085v2.196h-.503V8.705h.582l.635 1.984V8.705h.477v3.466h-.503zm1.667-1.297h.582v3.466h-.582zm.873 0h1.561v.477h-.476v2.99h-.582v-2.99h-.477zm1.402 3.466l.662-3.466h.661l.662 3.466h-.609l-.106-.635h-.608l-.106.635zm.741-1.084h.476l-.238-1.403zm1.058-2.382h1.561v.477h-.476v2.99h-.582v-2.99h-.476zm1.879 0h.582v3.466h-.582zm.952 2.567V9.55c0-.555.265-.926.874-.926.608 0 .9.397.9.926v1.694c0 .529-.265.926-.9.926-.582.026-.874-.37-.874-.926zm1.191.106V9.472c0-.212-.08-.37-.29-.37-.213 0-.292.158-.292.37v1.879c0 .211.08.37.291.37.212-.026.291-.159.291-.37zm1.482-1.376v2.196h-.503V8.705h.582l.635 1.984V8.705h.476v3.466h-.502zM12.197 6.112V4.419c0-.556.265-.926.873-.926.635 0 .82.37.82.873v.423h-.529v-.45c0-.212-.079-.344-.29-.344-.212 0-.292.159-.292.37v1.88c0 .21.08.37.291.37.212 0 .291-.133.291-.344v-.635h.53v.608c0 .503-.212.873-.82.873-.636-.053-.874-.45-.874-1.005zm2.064-2.567h.582v2.99h.688v.476h-1.27zm1.588 0h1.402v.477h-.82v1.005h.582v.476h-.582v1.059h.82v.476h-1.402zm1.666 3.466l.662-3.466h.661l.662 3.466h-.609l-.106-.635h-.608l-.106.635zm.741-1.084h.476l-.238-1.403zm2.038-1.085v2.196h-.503V3.572h.582l.635 1.984V3.572h.476v3.466h-.503zm3.704.026l-.318 2.143h-.555l-.477-3.466h.556l.265 2.196.29-2.196h.477l.317 2.196.265-2.196h.503l-.45 3.466h-.556zm1.35 2.143l.66-3.466h.662l.661 3.466h-.608l-.106-.635h-.608l-.106.635zm.713-1.084h.477L26.3 4.524zm1.191-2.382h1.561v.477h-.476v2.99h-.582v-2.99h-.476zm1.826 0h1.402v.477h-.82v1.005h.582v.476h-.582v1.059h.82v.476h-1.402zm2.302 1.879v1.587h-.583V3.545h.847c.582 0 .794.291.794.768v.45c0 .37-.132.582-.476.661l.555 1.587h-.608zm0-1.402v1.084h.185c.211 0 .29-.105.29-.29v-.503c0-.186-.079-.291-.29-.291z" fill="#fff"/></svg>