<svg xmlns="http://www.w3.org/2000/svg" width="160.9" height="160.9" viewBox="0 0 42.571 42.571"><path class="st2" d="M4.366 4.736h2.222l-1.931 7.408h1.428l1.905-7.25V3.573H4.366zM12.065 7.038l.661-3.466h.662l.661 3.466h-.608l-.106-.635h-.609l-.105.635zm.74-1.111h.477l-.238-1.403zm1.456-2.355h1.376v.476h-.794v1.006h.582v.476h-.582v1.534h-.582zm1.614 0h1.376v.476h-.794v1.006h.582v.476h-.582v1.534h-.582zm1.535 2.566V4.445c0-.556.264-.926.873-.926.608 0 .9.397.9.926v1.693c0 .53-.265.926-.9.926-.609.027-.873-.397-.873-.926zm1.19.106V4.366c0-.212-.08-.37-.29-.37-.213 0-.292.158-.292.37v1.878c0 .212.08.37.291.37.212-.026.291-.158.291-.37zm1.482-.794v1.588H19.5V3.572h.846c.583 0 .794.29.794.767v.45c0 .37-.132.582-.476.661l.556 1.588h-.609zm0-1.402v1.085h.185c.212 0 .291-.106.291-.291v-.503c0-.185-.08-.29-.29-.29zm3.122.45v1.614c0 .529-.212.926-.847.926h-.9V3.572h.9c.609 0 .847.397.847.926zm-.926 2.064c.238 0 .344-.133.344-.344V4.392c0-.212-.08-.344-.344-.344h-.238v2.514zm1.058.476l.662-3.466h.661l.662 3.466h-.609l-.106-.635h-.608l-.106.635zm.741-1.111h.476l-.238-1.403zm1.455-2.355h.847c.582 0 .767.264.767.767v.344c0 .291-.106.476-.344.556.291.08.424.264.424.582v.45c0 .502-.212.767-.794.767h-.9zm.582 1.455h.212c.185 0 .265-.106.265-.291v-.423c0-.186-.08-.291-.291-.291h-.212v1.005zm0 .45v1.085h.265c.185 0 .291-.106.291-.291v-.53c0-.185-.08-.29-.291-.29h-.265zm1.403-1.905h.582v2.99h.688v.476h-1.27zm1.534 0h1.403v.476h-.82v1.006h.581v.476h-.582v1.058h.82v.476h-1.402zm2.09 3.466l.662-3.466h.661l.662 3.466h-.609l-.106-.635h-.608l-.106.635zm.741-1.111h.477l-.239-1.403zm1.958-1.085v2.196h-.503V3.572h.583l.635 1.984V3.572h.476v3.466h-.503zm3.255-.344v1.614c0 .529-.212.926-.847.926h-.9V3.572h.9c.635 0 .847.397.847.926zm-.9 2.064c.238 0 .344-.133.344-.344V4.392c0-.212-.08-.344-.344-.344h-.238v2.514zM12.144 11.245V9.578c0-.53.265-.926.873-.926.635 0 .82.37.82.873v.397h-.528v-.45c0-.212-.08-.344-.292-.344-.211 0-.29.159-.29.37v1.853c0 .211.079.37.29.37.212 0 .292-.132.292-.344v-.635h.529v.609c0 .502-.212.873-.82.873-.609-.027-.874-.424-.874-.98zm2.064-2.567h.582v2.99h.688v.476h-1.27zm1.588 0h1.375v.477h-.793v.979h.582v.476h-.582v1.058h.793v.476h-1.375zm1.666 3.466l.662-3.466h.661l.662 3.466h-.609l-.106-.635h-.608l-.106.635zm.741-1.084h.477l-.239-1.403zm2.011-1.085v2.17h-.503V8.677h.583l.635 1.985V8.678h.476v3.466h-.503zm2.752-1.297h1.376v.477h-.794v.979h.582v.476h-.582v1.058h.794v.476h-1.376zm2.222 1.297v2.17h-.502V8.677h.582l.635 1.985V8.678h.476v3.466h-.503zm1.588-1.297h1.376v.477h-.794v.979h.582v.476h-.582v1.058h.794v.476h-1.376zm2.328 1.879v1.587h-.582V8.678h.847c.582 0 .793.291.793.768v.45c0 .37-.132.581-.476.66l.556 1.562h-.609zm0-1.402v1.084h.185c.212 0 .291-.105.291-.29v-.503c0-.186-.079-.291-.29-.291zm2.302 1.137h.82v1.852h-.423v-.37c-.08.265-.238.423-.556.423-.502 0-.74-.397-.74-.926V9.604c0-.529.264-.926.873-.926.635 0 .82.37.82.873v.318h-.53v-.344c0-.212-.079-.344-.29-.344-.212 0-.291.159-.291.37v1.853c0 .211.079.37.29.37.186 0 .292-.106.292-.344v-.609h-.265zm2.328.53v1.322h-.582v-1.323l-.661-2.143h.608l.344 1.323.344-1.323h.556zM21.325 37.677a.498.498 0 00.503-.477v-2.725c0-.238-.238-.476-.503-.476a.516.516 0 00-.502.476V37.2c0 .212.238.477.502.477m-.053-17.04c-3.44 0-6.244 2.805-6.244 6.245s2.805 6.244 6.244 6.244c3.44 0 6.245-2.805 6.245-6.244a6.222 6.222 0 00-6.245-6.245m-.45 2.461c0-.212.212-.423.477-.423a.46.46 0 01.45.423v2.143c0 .212-.212.424-.45.424-.265 0-.476-.239-.476-.424zm.45 6.959a3.252 3.252 0 01-3.254-3.255c0-1.455.953-2.698 2.276-3.095v1.217a2.105 2.105 0 00-1.165 1.878c0 1.164.953 2.117 2.117 2.117a2.123 2.123 0 002.117-2.117c0-.82-.477-1.534-1.164-1.905V23.68a3.224 3.224 0 012.275 3.096 3.181 3.181 0 01-3.202 3.28m-7.143-3.254a.498.498 0 00-.477-.502h-2.751c-.238 0-.476.238-.476.502 0 .291.264.503.476.503h2.725c.238.026.503-.212.503-.503m18.018 0a.498.498 0 00-.476-.502h-2.726c-.238 0-.476.238-.476.502 0 .291.265.503.476.503h2.726c.211.026.476-.212.476-.503M21.272 19.66a.498.498 0 00.503-.477v-2.725c0-.238-.238-.476-.503-.476a.516.516 0 00-.502.476v2.699c0 .238.238.503.502.503m-6.217 3.598c.132-.238.026-.582-.159-.688l-2.381-1.35c-.212-.105-.53-.052-.662.212-.132.238-.026.582.16.688l2.38 1.35c.186.105.53.026.662-.212M30.718 32.2c.132-.238.027-.582-.159-.688l-2.38-1.35c-.213-.105-.53-.052-.662.212-.133.238-.027.582.158.688l2.382 1.35c.185.105.502.052.661-.212m-5.874-11.615c.238.132.556.026.688-.16l1.35-2.38c.105-.212.053-.53-.212-.662-.238-.132-.582-.026-.688.159l-1.35 2.381a.523.523 0 00.212.662m-8.969 15.663c.238.132.556.026.688-.159l1.35-2.381c.105-.212.052-.53-.212-.662-.239-.132-.582-.026-.688.16l-1.35 2.38c-.106.186-.026.503.212.662m1.826-15.637c.238-.132.317-.476.211-.661l-1.35-2.382c-.105-.211-.449-.317-.687-.158-.238.132-.318.476-.212.687l1.35 2.382c.132.158.45.264.688.132m8.995 15.61c.239-.132.318-.476.212-.661l-1.35-2.381c-.105-.212-.449-.318-.687-.159-.238.132-.318.476-.212.688l1.35 2.381c.105.185.45.291.687.132m.794-12.99c.132.238.476.317.662.211l2.38-1.35c.213-.105.318-.45.16-.687-.133-.238-.477-.318-.688-.212l-2.382 1.35c-.158.132-.264.45-.132.687m-15.61 8.996c.132.238.476.318.661.212l2.381-1.35c.212-.105.318-.45.16-.687-.133-.239-.477-.318-.689-.212l-2.38 1.35c-.186.105-.292.45-.133.687" fill="#fff"/></svg>