<svg xmlns="http://www.w3.org/2000/svg" width="160.9" height="160.9" viewBox="0 0 42.571 42.571"><path class="st2" d="M8.281 10.054v-.952c0-.82-.29-1.43-.952-1.72.582-.291.847-.794.847-1.482v-.344c0-1.35-.688-2.063-2.038-2.063-1.323 0-2.01.714-2.01 2.063V5.9c0 .688.264 1.217.82 1.482-.662.29-.953.9-.953 1.72v.926c0 1.296.609 2.222 2.143 2.222 1.508.027 2.143-.9 2.143-2.196M5.477 5.45c0-.529.185-.82.635-.82.476 0 .661.291.661.82v.583c0 .529-.185.82-.661.82-.476 0-.635-.318-.635-.82zm1.35 4.763c0 .53-.186.9-.715.9-.503 0-.688-.37-.688-.9V8.81c0-.53.185-.873.688-.873.529 0 .714.37.714.873z" fill="#fff"/><g fill="#fff"><path class="st2" d="M29.554 20.955l-4.34 4.127c-.158.16-.237.292-.237.609v11.536c0 .132.105.238.238.238h4.471a.237.237 0 00.238-.238V21.06c.027-.159-.079-.397-.37-.106M17.092 26.3l-4.34 4.127c-.158.159-.237.291-.237.609V37.2c0 .133.106.239.238.239h4.471a.237.237 0 00.238-.239V26.405c.027-.132-.079-.37-.37-.105"/><path class="st2" d="M31.538 15.954c0-.026 0-.079-.026-.105-.027-.027-.053-.027-.08-.027h-.052l-3.308.74h-.053c-.026 0-.053.027-.053.027a.128.128 0 000 .186l.027.026.767.767-7.514 7.514-3.466-3.466c-.026-.026-.106-.026-.132 0l-.953.953-5.556 5.556c-.027.027-.027.106 0 .132l.952.953c.027.026.106.026.133 0l5.503-5.477 2.514 2.514.952.952c.027.027.106.027.132 0l8.52-8.52.794.794a.128.128 0 00.185 0c.026-.026.026-.053.026-.079l.741-3.387z"/><path class="st2" d="M23.363 27.04l-2.09 2.117c-.053.027-.106.027-.133 0l-1.905-1.931c-.344-.344-.423-.053-.423.079v9.948c0 .133.106.238.238.238h4.471a.237.237 0 00.239-.238V27.146c0-.185-.106-.423-.397-.106"/></g><path class="st2" d="M13.203 4.498v1.614c0 .529-.212.926-.847.926h-.9V3.572h.9c.635 0 .847.397.847.926zm-.926 2.064c.238 0 .344-.133.344-.344V4.392c0-.212-.08-.344-.344-.344h-.238v2.514zm1.296-2.99h1.402v.476h-.82v1.006h.582v.476h-.582v1.058h.82v.476h-1.402zm1.693 2.566V4.445c0-.556.265-.926.874-.926.635 0 .82.37.82.873v.423h-.53V4.34c0-.212-.079-.344-.29-.344-.212 0-.291.159-.291.37v1.88c0 .21.079.37.29.37.212 0 .292-.133.292-.344v-.635h.529v.608c0 .503-.212.873-.82.873-.609-.026-.874-.45-.874-.979zm2.064-2.566h1.402v.476h-.82v1.006h.582v.476h-.582v1.058h.82v.476H17.33zm2.223 1.27v2.196h-.503V3.572h.582l.635 1.984V3.572h.476v3.466h-.502zm1.508-1.27h1.56v.476h-.475v2.99h-.582v-2.99h-.477v-.476zm3.704 1.323l-.318 2.143h-.555l-.476-3.466h.555l.265 2.196.29-2.196h.477l.318 2.196.264-2.196h.503l-.45 3.466h-.529zm1.561 1.243V4.445c0-.556.265-.926.873-.926.609 0 .9.397.9.926v1.693c0 .53-.265.926-.9.926-.608.027-.873-.397-.873-.926zm1.164.106V4.366c0-.212-.08-.37-.29-.37-.213 0-.292.158-.292.37v1.878c0 .212.08.37.291.37.212-.026.291-.158.291-.37zm1.561-.794v1.588h-.582V3.572h.847c.582 0 .794.29.794.767v.45c0 .37-.133.582-.477.661l.556 1.588h-.609zm0-1.402v1.085h.185c.212 0 .291-.106.291-.291v-.503c0-.185-.079-.29-.29-.29zm2.011 1.297v1.693h-.582V3.572h.582v1.534l.635-1.534h.582l-.688 1.56.688 1.906h-.608zM33.1 7.038l.662-3.466h.661l.662 3.466h-.609l-.106-.635h-.608l-.106.635zm.741-1.111h.476l-.238-1.403zm1.932-1.085v2.196h-.503V3.572h.582l.635 1.984V3.572h.476v3.466h-.502zm3.333-.344v1.614c0 .529-.211.926-.846.926h-.9V3.572h.9c.635 0 .846.397.846.926zm-.926 2.064c.238 0 .344-.133.344-.344V4.392c0-.212-.079-.344-.344-.344h-.238v2.514zM11.456 8.678h1.403v.477h-.82v1.005h.582v.476h-.582v1.059h.82v.476h-1.403zm1.64 2.567V9.55c0-.555.265-.926.874-.926.635 0 .82.37.82.874v.423h-.529v-.45c0-.212-.08-.344-.291-.344-.212 0-.291.159-.291.37v1.88c0 .21.08.37.291.37.212 0 .291-.133.291-.344v-.635h.53v.608c0 .503-.212.873-.821.873-.609-.053-.873-.45-.873-1.005zm2.012 0V9.55c0-.555.264-.926.873-.926.608 0 .9.397.9.926v1.694c0 .529-.265.926-.9.926-.582.026-.873-.37-.873-.926zm1.19.106V9.472c0-.212-.079-.37-.29-.37-.212 0-.292.158-.292.37v1.879c0 .211.08.37.291.37.212-.026.291-.159.291-.37zm1.43-1.376v2.196h-.504V8.705h.582l.635 1.984V8.705h.477v3.466h-.503zm1.534 1.27V9.55c0-.555.264-.926.873-.926.608 0 .9.397.9.926v1.694c0 .529-.265.926-.9.926-.609.026-.873-.37-.873-.926zm1.164.106V9.472c0-.212-.08-.37-.291-.37-.212 0-.291.158-.291.37v1.879c0 .211.08.37.29.37.212-.026.292-.159.292-.37zm2.54-1.456l-.424 2.25h-.264l-.423-2.25v2.25h-.477V8.677h.688l.37 1.958.345-1.958h.74v3.466h-.529zm.873-1.217h.582v3.466h-.582zm.9 2.567V9.55c0-.555.264-.926.873-.926.635 0 .82.37.82.874v.423h-.53v-.45c0-.212-.079-.344-.29-.344-.212 0-.291.159-.291.37v1.88c0 .21.079.37.29.37.212 0 .292-.133.292-.344v-.635h.529v.608c0 .503-.212.873-.82.873-.609-.053-.873-.45-.873-1.005zm3.598-.953h.82v1.852h-.423v-.37c-.08.265-.238.423-.556.423-.503 0-.74-.397-.74-.926V9.578c0-.556.264-.926.872-.926.635 0 .847.37.847.873v.317h-.53V9.5c0-.212-.078-.344-.29-.344-.212 0-.291.158-.291.37v1.879c0 .211.08.37.29.37.186 0 .292-.106.292-.344v-.609h-.265v-.529zm1.799.265v1.587h-.582V8.678h.847c.582 0 .793.291.793.768v.45c0 .37-.132.581-.476.66l.556 1.588h-.609zm0-1.402v1.084h.185c.212 0 .291-.105.291-.29v-.503c0-.186-.08-.291-.29-.291zm1.323 2.09V9.55c0-.555.265-.926.873-.926.609 0 .9.397.9.926v1.694c0 .529-.265.926-.9.926-.608.026-.873-.37-.873-.926zm1.19.106V9.472c0-.212-.079-.37-.29-.37-.212 0-.292.158-.292.37v1.879c0 .211.08.37.292.37.211-.026.29-.159.29-.37zM34.74 10l-.317 2.143h-.555l-.477-3.466h.556l.265 2.196.29-2.196h.477l.317 2.196.265-2.196h.503l-.45 3.466h-.556zm1.535-1.323h1.561v.477h-.476v2.99h-.608v-2.99h-.477zm2.884 1.932h-.555v1.534h-.582V8.678h.582v1.482h.555V8.678h.582v3.466h-.582z" fill="#fff"/></svg>