<svg xmlns="http://www.w3.org/2000/svg" width="160.9" height="160.9" viewBox="0 0 42.571 42.571"><path class="st2" d="M7.805 5.715c0-1.323-.582-2.302-2.09-2.302-1.535 0-2.117.847-2.117 2.17v1.27c0 1.402.556 2.116 1.588 2.116.608 0 .979-.29 1.19-.688v1.853c0 .529-.211.873-.714.873-.53 0-.714-.291-.714-.847v-.582H3.625v.45c0 1.27.45 2.143 2.064 2.143 1.508 0 2.116-.98 2.116-2.328zM6.376 7.038c-.026.476-.238.794-.687.794-.503 0-.688-.291-.688-.873V5.477c0-.556.211-.873.688-.873.476 0 .661.317.661.873v1.56zm25.56 20.955l-5.054-2.91v-5.848c0-.132-.053-.238-.186-.29l-5.238-3.017a.392.392 0 00-.344 0l-5.239 3.016a.359.359 0 00-.185.291v5.848l-5.054 2.91a.359.359 0 00-.185.291v6.032c0 .133.053.239.185.292l5.239 3.016a.382.382 0 00.185.053.492.492 0 00.185-.053l5.054-2.91 5.053 2.91a.382.382 0 00.186.053c.08 0 .132-.027.185-.053l5.239-3.016a.359.359 0 00.185-.292v-6.032c-.053-.132-.106-.238-.212-.291zm-11.007 5.741L16.722 31.3l4.207-2.434zm4.894-8.466l-4.207 2.434V22.86zm-4.894 2.407l-4.207-2.434 4.207-2.434zm1.058.609l4.55-2.62 4.552 2.62-4.551 2.62zm4.18-3.625l-4.207-2.434 4.207-2.434zm-5.582-2.408l-4.207 2.435v-4.842zm-4.869 14.5l-4.55-2.62v-5.238l4.55 2.619zm.688 0v-4.842l4.207 2.434zm15.002-2.62l-4.55 2.62v-5.24l4.55-2.618zM10.054 3.625h.556v3.228h-.556zm1.323 1.217v2.037h-.45V3.651h.53l.582 1.852V3.651h.45V6.88h-.477zm3.07-.344v1.508c0 .503-.212.873-.795.873h-.846V3.651h.846c.609-.026.794.344.794.847zM13.6 6.429c.211 0 .317-.132.317-.317V4.419c0-.186-.08-.318-.317-.318h-.239v2.355zm2.778-2.804v2.434c0 .503-.212.82-.768.82-.582 0-.82-.317-.82-.82V3.625h.556v2.487c0 .185.08.317.264.317.186 0 .265-.132.265-.317V3.625zm.29 2.54V5.74h.503v.45c0 .185.08.291.265.291.159 0 .238-.106.238-.29v-.133c0-.185-.08-.291-.238-.45l-.317-.317c-.318-.318-.45-.503-.45-.873v-.106c0-.397.238-.715.767-.715.556 0 .767.265.767.741v.265h-.502v-.291c0-.185-.08-.265-.265-.265-.159 0-.265.08-.265.265v.08c0 .184.106.29.265.449l.344.344c.291.29.45.476.45.847v.158c0 .45-.238.768-.794.768-.556-.053-.767-.37-.767-.794zm1.694-2.54h1.455v.45h-.45v2.778h-.555V4.075h-.45zm2.249 1.746v1.482h-.53V3.625h.795c.555 0 .74.264.74.714v.424c0 .343-.132.555-.423.635l.53 1.455h-.583zm0-1.296V5.08h.185c.185 0 .265-.106.265-.265V4.34c0-.185-.08-.264-.265-.264zm2.275 1.56v1.218h-.555V5.636l-.609-2.011h.556l.317 1.217.318-1.217h.53zm1.138.741l-.264.741h-.318l.08-.767h.502zm.873-2.751h.556v3.228h-.556zm1.323 1.217v2.037h-.45V3.651h.53l.582 1.852V3.651h.45V6.88h-.477zm1.905 0v2.037h-.45V3.651h.53l.582 1.852V3.651h.45V6.88h-.477zm1.455 1.19v-1.56c0-.503.239-.874.82-.874.583 0 .82.37.82.873v1.562c0 .502-.237.873-.82.873-.581 0-.82-.37-.82-.873zm1.112.08V4.366c0-.186-.08-.344-.291-.344-.186 0-.265.132-.265.344v1.746c0 .185.08.344.265.344s.29-.132.29-.344zm2.619-2.487l-.609 3.228h-.582l-.608-3.228h.555l.37 2.249.371-2.25zm-.08 3.228l.61-3.228h.608l.608 3.228h-.555l-.106-.582h-.556l-.106.582zm.662-1.006h.423l-.211-1.296zm1.111-2.222h1.456v.45h-.45v2.778h-.556V4.075h-.45zm1.72 0h.556v3.228h-.556zm.9 2.408V4.47c0-.502.238-.873.82-.873s.82.37.82.873v1.562c0 .502-.238.873-.82.873s-.82-.37-.82-.873zm1.085.079V4.366c0-.186-.08-.344-.292-.344-.185 0-.264.132-.264.344v1.746c0 .185.08.344.264.344.212 0 .292-.132.292-.344zm1.349-1.27v2.037h-.45V3.651h.53l.581 1.852V3.651h.45V6.88h-.476zM9.948 11.986l.609-3.228h.608l.609 3.228h-.556l-.106-.582h-.555l-.106.582zm.688-1.032h.424l-.212-1.297zm1.826-1.006v2.038h-.45V8.758h.53l.581 1.852V8.758h.45v3.228h-.476zm3.069-.344v1.508c0 .503-.212.874-.794.874h-.846V8.758h.846c.582 0 .794.37.794.846zm-.847 1.932c.212 0 .318-.132.318-.318V9.525c0-.185-.08-.317-.318-.317h-.238v2.354zm1.694-2.778h.555v3.228h-.555zm1.35 1.19v2.038h-.45V8.758h.528l.583 1.852V8.758h.45v3.228h-.477zm1.454-1.19h1.27v.45h-.74v.926h.555v.45h-.556v1.428h-.555zm2.064 1.746v1.482h-.556V8.758h.794c.556 0 .741.264.741.714v.423c0 .344-.132.556-.423.635l.529 1.456h-.582zm0-1.323v1.005h.185c.185 0 .265-.105.265-.264v-.476c0-.186-.08-.265-.265-.265zm1.244 2.805l.608-3.228h.609l.608 3.228h-.555l-.106-.582h-.582l-.106.582zm.661-1.032h.423l-.211-1.297zm1.35.317v-.423h.502v.45c0 .185.08.29.265.29.158 0 .238-.105.238-.29v-.133c0-.185-.08-.29-.238-.45l-.318-.317c-.317-.317-.45-.503-.45-.873v-.106c0-.397.239-.714.768-.714.555 0 .767.264.767.74v.265h-.503v-.29c0-.186-.08-.265-.264-.265-.159 0-.265.079-.265.264v.08c0 .185.106.29.265.45l.344.343c.29.291.45.477.45.847v.159c0 .45-.239.767-.794.767-.556 0-.768-.37-.768-.794zm1.72-2.513h1.454v.45h-.45v2.778h-.555V9.208h-.45zm2.275 1.746v1.482h-.556V8.758h.794c.555 0 .74.264.74.714v.423c0 .344-.132.556-.423.635l.53 1.456h-.583zm0-1.323v1.005h.185c.185 0 .264-.105.264-.264v-.476c0-.186-.079-.265-.264-.265zm2.884-.423v2.434c0 .503-.212.82-.768.82-.582 0-.82-.317-.82-.82V8.758h.556v2.487c0 .185.08.317.264.317.185 0 .265-.132.265-.317V8.758zm.344 2.381V9.578c0-.503.238-.873.82-.873.608 0 .767.344.767.82v.37h-.503v-.423c0-.212-.079-.317-.264-.317s-.265.132-.265.344v1.746c0 .185.08.344.265.344s.264-.133.264-.318v-.608h.503v.555c0 .45-.185.794-.767.794-.582 0-.82-.37-.82-.873zm1.693-2.381h1.455v.45h-.45v2.778h-.555V9.208h-.45zm3.307 0v2.434c0 .503-.212.82-.767.82-.582 0-.82-.317-.82-.82V8.758h.555v2.487c0 .185.08.317.265.317s.264-.132.264-.317V8.758zm.873 1.746v1.482h-.555V8.758h.793c.556 0 .741.264.741.714v.423c0 .344-.132.556-.423.635l.53 1.456H38.1zm0-1.323v1.005h.185c.186 0 .265-.105.265-.264v-.476c0-.186-.08-.265-.265-.265zm1.323-.423h1.297v.45h-.741v.926h.529v.45h-.53v.978h.742v.45H38.92z" fill="#fff"/></svg>