<svg xmlns="http://www.w3.org/2000/svg" width="160.9" height="160.9" viewBox="0 0 42.571 42.571"><path class="st2" d="M4.128 5.583v6.561h1.428V3.572H4.42l-1.35 1.534v1.509h.027L4.1 5.583zm6.72 4.365V5.794c0-1.349-.662-2.328-2.143-2.328-1.455 0-2.117.979-2.117 2.328v4.154c0 1.323.662 2.329 2.117 2.329 1.455-.027 2.143-1.006 2.143-2.329m-2.831.212V5.556c0-.529.185-.9.688-.9.502 0 .688.371.688.9v4.604c0 .53-.186.9-.688.9-.503 0-.688-.37-.688-.9M14.182 5.45v1.588H13.6V3.545h.846c.582 0 .794.291.794.768v.45c0 .37-.132.582-.476.661l.555 1.587h-.608zm0-1.428v1.084h.185c.212 0 .29-.105.29-.29v-.503c0-.186-.078-.291-.29-.291zm1.455-.477h1.402v.477h-.82v1.005h.582v.476h-.582v1.059h.82v.476h-1.402zm3.387.953v1.614c0 .529-.212.926-.847.926h-.9V3.545h.9c.635 0 .847.397.847.953zm-.927 2.064c.239 0 .344-.133.344-.344V4.392c0-.212-.079-.344-.344-.344h-.238v2.514zm3.017-3.017v2.62c0 .529-.238.9-.82.9-.609 0-.874-.345-.874-.9v-2.62h.582v2.7c0 .21.08.343.292.343.211 0 .29-.132.29-.344V3.545zm.37 2.593V4.445c0-.556.265-.926.873-.926.635 0 .82.37.82.873v.423h-.529V4.34c0-.212-.079-.344-.29-.344-.212 0-.292.159-.292.37v1.88c0 .21.08.37.291.37.212 0 .291-.133.291-.344v-.635h.53v.608c0 .503-.212.873-.82.873-.61-.053-.874-.45-.874-.979zm2.064-2.593h1.402v.477h-.82v1.005h.582v.476h-.582v1.059h.82v.476h-1.402zm3.519.953v1.614c0 .529-.212.926-.847.926h-.9V3.545h.9c.635 0 .847.397.847.953zm-.926 2.064c.238 0 .344-.133.344-.344V4.392c0-.212-.08-.344-.344-.344h-.238v2.514zM13.6 8.625h.582v3.466H13.6zm1.455 1.27v2.196h-.503V8.625h.582l.635 1.985V8.625h.476v3.466h-.502zm1.534-1.27h1.403v.477h-.82v1.005h.582v.476h-.583v1.059h.82v.476H16.59zm2.276 3.705v-.239c-.476-.079-.662-.423-.662-.9V9.5c0-.556.265-.927.873-.927.609 0 .9.397.9.927v1.693c0 .37-.132.688-.423.82l.423.08v.423zm.529-1.006V9.42c0-.212-.08-.37-.291-.37-.212 0-.291.158-.291.37v1.905c0 .212.08.37.29.37.186-.026.292-.158.292-.37zm2.593-2.699v2.62c0 .529-.238.9-.82.9-.609 0-.873-.345-.873-.9v-2.62h.582v2.7c0 .21.079.343.29.343.212 0 .292-.132.292-.344V8.625zm.185 3.466l.662-3.466h.661l.661 3.466h-.608l-.106-.635h-.608l-.106.635zm.74-1.11h.477l-.238-1.403zm1.509-2.356h.582v2.99h.688v.476h-1.27zm1.535 0h.582v3.466h-.582zm.846 0h1.561v.477h-.476v2.99h-.582v-2.99h-.476v-.477zm1.826 0h.582v3.466h-.582zm.926 0h1.402v.477h-.82v1.005h.582v.476h-.582v1.059h.82v.476h-1.402zm1.64 2.726v-.477h.556v.477c0 .185.08.317.291.317.185 0 .265-.132.265-.317v-.133c0-.211-.08-.317-.265-.502l-.344-.344c-.344-.318-.476-.53-.476-.926V9.34c0-.424.264-.768.82-.768.582 0 .82.292.82.794v.291h-.529v-.29c0-.212-.08-.292-.265-.292-.158 0-.264.08-.264.291v.08c0 .185.106.317.264.476l.37.37c.318.318.477.53.477.9v.159c0 .476-.264.82-.847.82-.661-.027-.873-.37-.873-.82zM14.05 23.257l-3.996 3.995 3.995 4.022zm14.499 8.017l3.995-4.022-3.995-3.995zM25.32 20.029l-4.022-3.995-3.995 3.995zm-8.017 14.473l3.995 3.995 4.022-3.995zm-.344-10.98h8.705v2.407H16.96zm0 4.974h8.705v2.513H16.96z" fill="#fff"/></svg>