<svg xmlns="http://www.w3.org/2000/svg" width="160.9" height="160.9" viewBox="0 0 42.571 42.571"><path class="st2" d="M3.07 5.133V6.64L4.1 5.583v6.561h1.455V3.572H4.392zm3.28 0V6.64h.026l1.006-1.058v6.561h1.455V3.572H7.673zM7.038 32.411h6.403a.17.17 0 00.159-.158c0-.053-.027-.08-.053-.106l-3.175-4.128-.027-.026a.2.2 0 00-.106-.053.2.2 0 00-.105.053l-.027.026-.026.027-3.122 4.074-.053.053c-.027.027-.027.053-.027.08 0 .08.08.158.159.158zm6.376.583H6.985a.17.17 0 00-.159.158v5.027c0 .08.08.16.159.16h2.064v-3.15c0-.079.08-.158.158-.158h1.905c.08 0 .16.08.16.159v3.148h2.116a.17.17 0 00.159-.159v-5.027c.026-.08-.027-.158-.133-.158zm22.172-1.323h-6.35a.17.17 0 00-.158.158v6.403c0 .08.08.159.158.159h6.35a.17.17 0 00.16-.159V31.83c0-.079-.054-.158-.16-.158m-3.466 4.206a.17.17 0 01-.158.16h-1.905a.17.17 0 01-.16-.16v-1.164c0-.079.08-.158.16-.158h1.905c.079 0 .158.079.158.158zm0-2.143a.17.17 0 01-.158.16h-1.905a.17.17 0 01-.16-.16V32.57c0-.08.08-.159.16-.159h1.905c.079 0 .158.08.158.16zm2.91 2.143a.17.17 0 01-.158.16h-1.905a.17.17 0 01-.159-.16v-1.164c0-.079.08-.158.16-.158h1.904c.08 0 .159.079.159.158zm0-2.143a.17.17 0 01-.158.16h-1.905a.17.17 0 01-.159-.16V32.57c0-.08.08-.159.16-.159h1.904c.08 0 .159.08.159.16zM20.824 16.801H14.63a.17.17 0 00-.158.159v21.246c0 .08.08.159.158.159h6.218a.17.17 0 00.159-.16V16.96c-.027-.106-.08-.159-.185-.159m-3.678 19.13c0 .052-.026.079-.08.079h-1.428c-.053 0-.08-.027-.08-.08v-1.587c0-.053.027-.08.08-.08h1.429c.053 0 .079.027.079.08zm0-3.652c0 .053-.026.08-.08.08h-1.428c-.053 0-.08-.027-.08-.08v-1.587c0-.053.027-.08.08-.08h1.429c.053 0 .079.027.079.08zm0-3.651c0 .053-.026.08-.08.08h-1.428c-.053 0-.08-.027-.08-.08V27.04c0-.053.027-.079.08-.079h1.429c.053 0 .079.026.079.08zm0-3.625c0 .053-.026.08-.08.08h-1.428c-.053 0-.08-.027-.08-.08v-1.587c0-.053.027-.08.08-.08h1.429c.053 0 .079.027.079.08zm0-3.651c0 .053-.026.08-.08.08h-1.428c-.053 0-.08-.027-.08-.08v-1.588c0-.053.027-.079.08-.079h1.429c.053 0 .079.026.079.08zm2.778 14.578c0 .053-.026.08-.08.08h-1.428c-.053 0-.08-.027-.08-.08v-1.587c0-.053.027-.08.08-.08h1.429c.053 0 .08.027.08.08zm0-3.65c0 .052-.026.079-.08.079h-1.428c-.053 0-.08-.027-.08-.08v-1.587c0-.053.027-.08.08-.08h1.429c.053 0 .08.027.08.08zm0-3.652c0 .053-.026.08-.08.08h-1.428c-.053 0-.08-.027-.08-.08V27.04c0-.053.027-.079.08-.079h1.429c.053 0 .08.026.08.08zm0-3.625c0 .053-.026.08-.08.08h-1.428c-.053 0-.08-.027-.08-.08v-1.587c0-.053.027-.08.08-.08h1.429c.053 0 .08.027.08.08zm0-3.651c0 .053-.026.08-.08.08h-1.428c-.053 0-.08-.027-.08-.08v-1.588c0-.053.027-.079.08-.079h1.429c.053 0 .08.026.08.08zm15.822 9.684c0 .079-.053.132-.132.132H29.21c-.08 0-.132-.053-.132-.132v-1.27c0-.08.053-.133.132-.133h6.403c.08 0 .132.053.132.133zm-7.408-10.24c-.027-.08-.08-.106-.159-.106-.026 0-.053 0-.08.027l-.052.053-6.112 7.752-.027.027a.202.202 0 00-.052.132v9.525c0 .08.079.159.158.159h6.218a.17.17 0 00.159-.16V20.85c-.027 0-.027-.026-.053-.053zm-2.567 4.207l.053-.053c.424-.529 1.112-1.402 1.456-1.825l.052-.053a.202.202 0 01.133-.053c.08 0 .158.053.158.132v1.958c0 .106-.079.159-.158.185h-1.535c-.106 0-.159-.08-.159-.185a.08.08 0 010-.106zm-.979 10.848a.17.17 0 01-.158.159H22.78a.17.17 0 01-.16-.159v-1.164c0-.08.08-.159.16-.159h1.852c.08 0 .158.08.158.159zm0-2.117a.17.17 0 01-.158.16H22.78a.17.17 0 01-.16-.16V32.57c0-.08.08-.159.16-.159h1.852c.08 0 .158.08.158.16zm0-2.143a.17.17 0 01-.158.159H22.78a.17.17 0 01-.16-.159v-1.164c0-.08.08-.159.16-.159h1.852c.08 0 .158.08.158.16zm.027-4.71v2.54a.17.17 0 01-.159.16h-1.852a.17.17 0 01-.159-.16v-.396s0-.027.027-.027c0 0 0-.026.026-.026.238-.344 1.297-1.667 1.746-2.196l.053-.053a.202.202 0 01.133-.053c.08 0 .158.053.158.132v.08zm2.831 8.97a.17.17 0 01-.159.159h-1.852a.17.17 0 01-.159-.159v-1.164c0-.08.08-.159.16-.159h1.851c.08 0 .159.08.159.159zm0-2.117a.17.17 0 01-.159.16h-1.852a.17.17 0 01-.159-.16V32.57c0-.08.08-.159.16-.159h1.851c.08 0 .159.08.159.16zm0-2.143a.17.17 0 01-.159.159h-1.852a.17.17 0 01-.159-.159v-1.164c0-.08.08-.159.16-.159h1.851c.08 0 .159.08.159.16zm0-2.143a.17.17 0 01-.159.159h-1.852a.17.17 0 01-.159-.159v-1.164c0-.08.08-.159.16-.159h1.851c.08 0 .159.08.159.159zm0-2.143a.17.17 0 01-.159.159h-1.852a.17.17 0 01-.159-.159v-1.164c0-.08.08-.159.16-.159h1.851c.08 0 .159.08.159.159zM11.642 6.297v-.476h.555v.476c0 .185.08.318.291.318.186 0 .265-.133.265-.318v-.132c0-.212-.08-.318-.265-.503l-.344-.344c-.344-.317-.476-.529-.476-.926v-.106c0-.423.265-.767.82-.767.582 0 .82.291.82.794v.29h-.529v-.29c0-.212-.079-.291-.264-.291-.159 0-.265.079-.265.29v.08c0 .185.106.318.265.476l.37.37c.318.318.476.53.476.9v.16c0 .475-.264.82-.846.82s-.873-.371-.873-.82zm3.624-2.725v2.62c0 .528-.238.899-.82.899-.608 0-.873-.344-.873-.9v-2.62h.582v2.7c0 .211.08.344.291.344.212 0 .291-.133.291-.344v-2.7zm.318 2.725v-.476h.556v.476c0 .185.079.318.29.318.186 0 .265-.133.265-.318v-.132c0-.212-.08-.318-.264-.503l-.344-.344c-.344-.317-.477-.529-.477-.926v-.106c0-.423.239-.767.82-.767.583 0 .82.291.82.794v.29h-.528v-.29c0-.212-.08-.291-.265-.291-.159 0-.265.079-.265.29v.08c0 .185.106.318.265.476l.37.37c.318.318.477.53.477.9v.16c0 .475-.265.82-.847.82-.661-.027-.873-.371-.873-.82zm1.8-2.725h1.56v.476h-.476v2.99h-.582v-2.99h-.476v-.476zm1.454 3.466l.662-3.466h.661l.662 3.466h-.609l-.106-.635H19.5l-.106.635zm.741-1.111h.476l-.238-1.403zm1.482-2.355h.582v3.466h-.582zm1.402 1.27v2.196h-.503V3.572h.582l.635 1.984V3.572h.477v3.466h-.503zm1.402 2.196l.662-3.466h.661l.662 3.466h-.609l-.106-.635h-.608l-.106.635zm.741-1.111h.476l-.238-1.403zm1.429-2.355h.847c.582 0 .767.264.767.767v.344c0 .291-.106.476-.344.556.291.08.423.264.423.582v.45c0 .502-.211.767-.793.767h-.9zm.582 1.455h.212c.185 0 .264-.106.264-.291v-.423c0-.186-.079-.291-.29-.291h-.212zm0 .45v1.085h.265c.185 0 .29-.106.29-.291v-.53c0-.185-.079-.29-.29-.29h-.265zm1.376-1.905h.582v2.99h.688v.476h-1.27zm1.508 0h1.402v.476h-.82v1.006h.582v.476h-.582v1.058h.82v.476h-1.402zm2.381 2.566V4.445c0-.556.265-.926.873-.926.635 0 .82.37.82.873v.423h-.529V4.34c0-.212-.079-.344-.29-.344-.212 0-.292.159-.292.37v1.88c0 .21.08.37.291.37.212 0 .291-.133.291-.344v-.635h.53v.608c0 .503-.212.873-.82.873-.636-.026-.874-.45-.874-.979zm1.958-2.566h.582v3.466h-.582zm.794 0h1.561v.476h-.476v2.99h-.582v-2.99h-.477v-.476zm1.8 0h.581v3.466h-.582zm.899 0h1.402v.476h-.82v1.006h.582v.476h-.582v1.058h.82v.476h-1.402zm1.534 2.725v-.476h.556v.476c0 .185.08.318.291.318.185 0 .265-.133.265-.318v-.132c0-.212-.08-.318-.265-.503l-.344-.344c-.344-.317-.476-.529-.476-.926v-.106c0-.423.264-.767.82-.767.582 0 .82.291.82.794v.29h-.529v-.29c0-.212-.08-.291-.265-.291-.158 0-.264.079-.264.29v.08c0 .185.106.318.264.476l.37.37c.318.318.477.53.477.9v.16c0 .475-.265.82-.847.82s-.873-.371-.873-.82zM11.642 12.144l.661-3.466h.662l.661 3.466h-.582l-.106-.635h-.608l-.106.635zm.74-1.084h.477l-.238-1.403zm1.985-1.085v2.196h-.503V8.705h.582l.635 1.984V8.705h.476v3.466h-.502zm3.28-.37v1.613c0 .53-.211.926-.846.926h-.9V8.678h.9c.609 0 .847.397.847.926zm-.925 2.063c.238 0 .344-.132.344-.344V9.5c0-.212-.08-.344-.344-.344h-.238v2.513zm1.772-.423V9.55c0-.555.265-.926.873-.926.635 0 .82.37.82.874v.423h-.528v-.45c0-.212-.08-.344-.292-.344-.211 0-.29.159-.29.37v1.88c0 .21.079.37.29.37.212 0 .292-.133.292-.344v-.635h.529v.608c0 .503-.212.873-.82.873-.636-.053-.874-.45-.874-1.005zm2.011 0V9.55c0-.555.265-.926.873-.926.609 0 .9.397.9.926v1.694c0 .529-.265.926-.9.926-.608.026-.873-.37-.873-.926zm1.164.106V9.472c0-.212-.079-.37-.29-.37-.212 0-.292.158-.292.37v1.879c0 .211.08.37.291.37.212-.026.291-.159.291-.37zm2.54-1.456l-.423 2.25h-.265l-.423-2.25v2.25h-.476V8.677h.688l.37 1.958.344-1.958h.741v3.466h-.53zm2.461 0l-.423 2.25h-.265l-.423-2.25v2.25h-.477V8.677h.688l.37 1.958.345-1.958h.74v3.466h-.529V9.895zm2.566-1.217v2.62c0 .529-.238.9-.82.9-.608 0-.873-.345-.873-.9v-2.62h.582v2.7c0 .21.08.343.291.343.212 0 .291-.132.291-.344V8.678zm.794 1.297v2.196h-.503V8.705h.583l.635 1.984V8.705h.476v3.466h-.503zm1.535-1.297h.582v3.466h-.582zm.846 0h1.561v.477h-.476v2.99h-.608v-2.99h-.477zm1.826 0h.582v3.466h-.582zm.9 0h1.402v.477h-.82v1.005h.582v.476h-.582v1.059h.82v.476h-1.402zm1.64 2.726v-.477h.556v.477c0 .185.08.317.29.317.186 0 .265-.132.265-.317v-.133c0-.211-.079-.317-.264-.502l-.344-.344c-.344-.318-.476-.53-.476-.926v-.106c0-.424.238-.768.82-.768s.82.291.82.794v.291h-.53v-.29c0-.213-.079-.292-.264-.292-.159 0-.264.08-.264.291v.08c0 .185.105.317.264.476l.37.37c.318.318.477.53.477.9v.159c0 .476-.265.82-.847.82-.635-.027-.873-.37-.873-.82z" fill="#fff"/></svg>