<svg xmlns="http://www.w3.org/2000/svg" width="160.9" height="160.9" viewBox="0 0 42.571 42.571"><path class="st2" d="M4.26 5.583h.026v6.588h1.429v-8.6H4.577l-1.35 1.562V6.64h.027zm2.328-.238v1.031h1.323V5.292c0-.53.265-.662.556-.662.29 0 .529.106.529.635v.715c0 .714-.053.979-.53 1.481l-.82.873c-.793.847-1.084 1.403-1.084 2.25v1.587h3.757v-1.19H7.937v-.398c0-.661.239-.926.609-1.323l.926-.979c.74-.793.9-1.296.9-2.17v-.846c0-1.217-.582-1.799-1.879-1.799-1.27 0-1.905.688-1.905 1.879m26.564 17.462c-1.746-1.376-3.81-1.508-4.63-1.508-.423 0-.82.026-1.111.106l-.106.026c-1.111.265-2.937.688-5.08 3.36l-.053.08c-.026.053-.053.106-.053.159 0 .053 0 .105.027.132l.053.08c.343.581.635 1.11.873 1.534.079.159.317.211.45.053.026-.027.026-.053.052-.053 1.852-2.567 3.308-2.91 4.26-3.122l.106-.027a3.12 3.12 0 01.582-.053c.45 0 1.984.08 3.202 1.032 1.084.847 1.614 2.196 1.614 4.022 0 3.07-1.482 4.26-2.726 4.71a4.115 4.115 0 01-1.508.264c-1.27 0-2.275-.503-2.275-.53l-.08-.052c-1.058-.476-2.672-1.429-4.18-4.471-3.096-6.218-5.689-6.8-7.408-7.197l-.08-.027c-.132-.026-.502-.105-1.111-.105-1.005 0-2.91.185-4.55 1.508-1.112.9-2.461 2.646-2.461 5.82 0 1.958.396 3.228 1.428 4.578.186.264 1.985 2.566 5.424 2.566.503 0 1.032-.053 1.561-.158.635-.133 1.588-.424 2.673-1.218l.9.82c.105.08.264.08.37-.026.053-.053.079-.106.053-.159l.687-4.312v-.053a.24.24 0 00-.079-.185.24.24 0 00-.185-.08l-4.207 1.164h-.08a.146.146 0 00-.132.08.286.286 0 00-.08.185c0 .08.027.132.08.185l.873.794c-.45.291-.926.476-1.349.556-.37.079-.74.105-1.111.105-2.381 0-3.546-1.56-3.599-1.64l-.026-.026c-.714-.953-.979-1.773-.979-3.202 0-1.826.53-3.201 1.588-4.048 1.19-.953 2.698-1.005 3.122-1.005.238 0 .45.026.582.052l.106.027c1.375.317 3.254.74 5.873 5.98 1.376 2.778 3.096 4.577 5.266 5.53a7.749 7.749 0 003.333.767c.794 0 1.588-.133 2.329-.424 1.27-.476 4.206-2.09 4.206-6.879.08-3.07-1.296-4.815-2.434-5.715zM14.182 5.45v1.588H13.6V3.572h.846c.582 0 .794.29.794.767v.45c0 .37-.132.582-.476.661l.555 1.588h-.608zm0-1.402v1.085h.185c.212 0 .29-.106.29-.291v-.503c0-.185-.078-.29-.29-.29zm1.455-.476h1.402v.476h-.82v1.006h.582v.476h-.582v1.058h.82v.476h-1.402zm1.72 2.725v-.476h.555v.476c0 .185.08.318.291.318.186 0 .265-.133.265-.318v-.132c0-.212-.08-.318-.265-.503l-.344-.344c-.344-.317-.476-.529-.476-.926v-.106c0-.423.265-.767.82-.767.582 0 .82.291.82.794v.29h-.529v-.29c0-.212-.079-.291-.264-.291-.159 0-.265.079-.265.29v.08c0 .185.106.318.265.476l.37.37c.318.318.476.53.476.9v.16c0 .475-.264.82-.846.82-.635-.027-.873-.371-.873-.82zm2.037-2.725h.873c.582 0 .794.29.794.767v.741c0 .476-.212.794-.794.794h-.291v1.19h-.582zm.582.476v1.376h.212c.211 0 .29-.106.29-.291v-.794c0-.185-.079-.29-.29-.29zm1.455 2.09V4.445c0-.556.265-.926.873-.926.609 0 .9.397.9.926v1.693c0 .53-.265.926-.9.926-.608.027-.873-.397-.873-.926zm1.19.106V4.366c0-.212-.079-.37-.29-.37-.212 0-.291.158-.291.37v1.878c0 .212.08.37.29.37.186-.026.292-.158.292-.37zm1.456-1.402v2.196h-.503V3.572h.582l.635 1.984V3.572h.477v3.466h-.503zm1.588 1.455v-.476h.555v.476c0 .185.08.318.291.318.185 0 .265-.133.265-.318v-.132c0-.212-.08-.318-.265-.503l-.344-.344c-.344-.317-.476-.529-.476-.926v-.106c0-.423.265-.767.82-.767.582 0 .82.291.82.794v.29h-.529v-.29c0-.212-.08-.291-.264-.291-.159 0-.265.079-.265.29v.08c0 .185.106.318.265.476l.37.37c.318.318.476.53.476.9v.16c0 .475-.264.82-.846.82-.662-.027-.873-.371-.873-.82zm2.01-2.725h.582v3.466h-.582zm.98 0h.846c.582 0 .767.264.767.767v.344c0 .291-.106.476-.344.556.291.08.424.264.424.582v.45c0 .502-.212.767-.794.767h-.9zm.608 1.455h.212c.185 0 .264-.106.264-.291v-.423c0-.186-.08-.291-.29-.291h-.213zm0 .45v1.085h.264c.186 0 .292-.106.292-.291v-.53c0-.185-.08-.29-.292-.29h-.264zm1.455-1.905h.582v2.99h.688v.476h-1.27zm1.614 0h1.402v.476h-.82v1.006h.582v.476h-.582v1.058h.82v.476h-1.402zM13.6 11.245V9.55c0-.555.264-.926.873-.926.635 0 .82.37.82.874v.423h-.53v-.45c0-.212-.079-.344-.29-.344-.212 0-.291.159-.291.37v1.88c0 .21.079.37.29.37.212 0 .292-.133.292-.344v-.635h.529v.608c0 .503-.212.873-.82.873-.609-.053-.873-.45-.873-1.005zm2.063 0V9.55c0-.555.265-.926.873-.926.609 0 .9.397.9.926v1.694c0 .529-.265.926-.9.926-.608.026-.873-.37-.873-.926zm1.191.106V9.472c0-.212-.08-.37-.291-.37-.212 0-.291.158-.291.37v1.879c0 .211.08.37.29.37.213-.026.292-.159.292-.37zm1.455-1.376v2.196h-.503V8.705h.583l.635 1.984V8.705h.476v3.466h-.503zm1.561 1.429v-.477h.556v.477c0 .185.08.317.29.317.186 0 .265-.132.265-.317v-.133c0-.211-.079-.317-.264-.502l-.344-.344c-.344-.318-.476-.53-.476-.926v-.106c0-.424.264-.768.82-.768.582 0 .82.291.82.794v.291h-.53v-.29c0-.213-.078-.292-.264-.292-.158 0-.264.08-.264.291v.08c0 .185.106.317.264.476l.37.37c.318.318.477.53.477.9v.159c0 .476-.265.82-.847.82-.635-.027-.873-.37-.873-.82zm3.73-2.726v2.62c0 .529-.237.9-.82.9-.608 0-.873-.345-.873-.9v-2.62h.583v2.7c0 .21.079.343.29.343.212 0 .292-.132.292-.344V8.678zm2.012 1.217l-.424 2.25h-.264l-.424-2.25v2.25h-.476V8.677h.688l.37 1.958.344-1.958h.741v3.466h-.529V9.895zm.926-1.217h.873c.582 0 .794.291.794.768v.74c0 .477-.212.794-.794.794h-.291v1.19h-.582zm.582.477v1.375h.211c.212 0 .291-.105.291-.29v-.794c0-.186-.079-.291-.29-.291zm1.27-.477h1.56v.477h-.475v2.99h-.583v-2.99h-.476zm1.825 0h.582v3.466h-.582zm.926 2.567V9.55c0-.555.265-.926.874-.926.608 0 .9.397.9.926v1.694c0 .529-.265.926-.9.926-.609.026-.874-.37-.874-.926zm1.191.106V9.472c0-.212-.08-.37-.291-.37-.212 0-.291.158-.291.37v1.879c0 .211.08.37.291.37.185-.026.291-.159.291-.37zm1.429-1.376v2.196h-.503V8.705h.582l.635 1.984V8.705h.476v3.466h-.502zM13.52 17.25l.662-3.465h.661l.662 3.466h-.609l-.106-.635h-.608l-.106.635zm.715-1.084h.476l-.238-1.402zm2.01-1.085v2.196h-.502v-3.466h.582l.635 1.985V13.81h.476v3.466h-.503zm3.308-.37v1.614c0 .529-.212.926-.847.926h-.9v-3.466h.9c.609 0 .847.397.847.926zm-.926 2.064c.238 0 .344-.133.344-.344v-1.826c0-.212-.08-.344-.344-.344h-.238v2.514zm1.825-2.99h.873c.582 0 .794.29.794.767v.74c0 .477-.212.795-.794.795h-.29v1.19h-.583zm.582.476v1.376h.212c.212 0 .291-.106.291-.291v-.794c0-.185-.08-.291-.291-.291zm1.985 1.402v1.588h-.582v-3.466h.846c.582 0 .794.29.794.767v.45c0 .37-.132.582-.476.661l.555 1.588h-.608zm0-1.402v1.085h.185c.212 0 .291-.106.291-.291v-.503c0-.185-.08-.291-.291-.291zm1.402 2.09v-1.693c0-.556.265-.926.873-.926.609 0 .9.397.9.926v1.693c0 .53-.265.926-.9.926-.608.027-.873-.37-.873-.926zm1.19.106V14.58c0-.212-.079-.37-.29-.37-.212 0-.291.158-.291.37v1.878c0 .212.079.37.29.37.212-.026.292-.158.292-.37zm2.7-1.746v1.614c0 .529-.212.926-.847.926h-.9v-3.466h.9c.608 0 .846.397.846.926zm-.927 2.064c.238 0 .344-.133.344-.344v-1.826c0-.212-.079-.344-.344-.344h-.238v2.514zm2.964-2.99v2.62c0 .528-.238.899-.82.899-.609 0-.874-.344-.874-.9v-2.62h.582v2.7c0 .211.08.343.291.343.212 0 .292-.132.292-.343v-2.7zm.344 2.566v-1.693c0-.556.264-.926.873-.926.635 0 .82.37.82.873v.423h-.53v-.45c0-.211-.079-.343-.29-.343-.212 0-.291.158-.291.37v1.879c0 .211.08.37.29.37.212 0 .292-.132.292-.344v-.635h.529v.609c0 .502-.212.873-.82.873-.609-.053-.873-.45-.873-1.006zm1.984-2.566h1.561v.476h-.476v2.99h-.582v-2.99h-.477zm1.826 0h.582v3.466h-.582zm.926 2.566v-1.693c0-.556.264-.926.873-.926.608 0 .9.397.9.926v1.693c0 .53-.265.926-.9.926-.609.027-.873-.37-.873-.926zm1.19.106V14.58c0-.212-.079-.37-.29-.37-.212 0-.292.158-.292.37v1.878c0 .212.08.37.291.37.185-.026.291-.158.291-.37zm1.403-1.376v2.196h-.503v-3.466h.582l.635 1.985V13.81h.476v3.466h-.502z" fill="#fff"/></svg>