<svg xmlns="http://www.w3.org/2000/svg" width="160.9" height="160.9" viewBox="0 0 42.571 42.571"><path class="st2" d="M5.371 3.572v8.599H3.916V5.583L2.91 6.64h-.026V5.133l1.323-1.561zm4.763 1.878v.741c0 .715-.397 1.19-.98 1.403.715.158 1.059.661 1.059 1.455v1.27c0 1.19-.635 1.958-2.09 1.958-1.456 0-1.985-.847-1.985-2.143V8.996h1.323v1.217c0 .503.185.847.662.847.45 0 .635-.318.635-.768V8.864c0-.45-.212-.688-.715-.688h-.608V7.064h.555c.477 0 .768-.238.768-.688V5.45c0-.476-.159-.767-.609-.767-.45 0-.608.291-.608.847v.873H6.218v-.767c0-1.27.529-2.143 2.01-2.143 1.323 0 1.906.74 1.906 1.957m26.775 21.22c-1.11-1.561-6.19-7.858-15.637-7.858-9.445 0-14.499 6.27-15.636 7.858-.053.08-.08.132-.133.185.027.053.08.106.133.185 1.11 1.561 6.19 7.859 15.636 7.859 9.42 0 14.5-6.271 15.637-7.859.053-.079.08-.132.133-.185-.053-.053-.08-.132-.133-.185m-20.902-3.89c.08-.132.37-.476.397-.529.08-.105.212-.105.318-.132.105-.026.238.027.238.106.026.08-.027.37-.08.423-.132.133-.502.344-.688.318-.132-.027-.211-.132-.185-.185m-.317.661c.026-.026.026-.026.026-.053.106-.132.344-.159.53-.185.158-.027.37.053.396.159.027.106-.397.317-.502.37-.239.212-.582.635-.794.688-.08.026-.132 0-.159-.026.132-.291.318-.635.503-.953m3.519 7.25c-.133.502-.265.688-.397.846-.132.16-.609.37-.9.344-.29-.026-.344-.82-.344-1.217 0-.132-.211.291-.317-.582-.08-.556-.423.053-.45-.317-.026-.37-.212-.291-.397-.53-.185-.238-.423.027-.661.133-.265.106-.159.185-.503.053h-.026a6.362 6.362 0 01-.53-2.567c0-.211 0-.45.027-.661 0-.027.026-.053.053-.053.344-.424.344-.503.344-.503l.397-.132s.608.106 1.084.264c.37.133.98.477 1.323.318.265-.106.45-.238.424-.45-.027-.264-.239-.317-.477-.159-.105.053-.29-.397-.45-.37-.158.026.186.556.053.556-.132.026-.396-.556-.45-.635-.052-.08-.237-.318-.423-.133-.397.37-1.005.344-1.137.45-.397.291-.477-.106-.477-.317.027-.053.027-.106.053-.16.133-.131.582-.184.741-.079.159.106.291-.026.37-.105.08-.08.053-.186 0-.265-.052-.08.08-.159.186-.185.08-.027.37-.238.502-.291.106-.08.715-.132 1.006 0 .264.132.529.026.661-.132.16-.212.37-.344.477-.397.105-.053-.239-.344-.503-.027-.265.344-.397.37-.53.37-.132 0-.872-.185-.978-.423-.08-.238.238-.423.529-.555.291-.133 1.058-.133 1.243-.186.397-.079.9-.29 1.165-.105.264.158-1.059.476-.635.714.158.08.846-.397 1.084-.53.556-.29-.555-.396-.396-.978.158-.662-1.376-.424-2.117-.344a6.476 6.476 0 013.545-1.032 6.556 6.556 0 016.377 5.027c0 .132-.027.238-.027.291-.053.238-.502.45-.767.053-.08-.106-.344-.37-.344.106 0 .45.45.503.027.767-.424.265-.503.212-.688.265-.186.08-.37.529-.344.794.053.238.635.926.211.9-.106 0-.9-.557-1.032-.9-.132-.37-.29-.715-.396-1.006-.106-.264-.397-.344-.609-.185-.238.159.053.317-.106.661-.159.344-.29.635-.529.37-.635-.74-1.561-.37-1.72-1.19-.08-.45-.45-.397-.767-.661-.318-.238-.503-.397-.556-.212-.053.159 1.006 1.005 1.085 1.217.106.318-.317.609-.635.662-.317.079-.45-.186-.767-.503-.318-.318-.45-.556-.45-.291-.026.37.291.9.609 1.085.264.158.555.238.476.529-.08.264 0 .106-.291.423-.291.291-.344.397-.344.794.026.423-.08.423-.159.767-.132.397-.291.106-.423.609m7.064-2.62c.212-.026.556.291.423.397-.132.106-.45.08-.635-.053-.158-.132.106-.344.212-.344m-.291-.211c-.08-.027-.132-.106-.185-.265-.053-.159.08-.265.211-.185.133.08.318.264.318.37 0 .133-.265.133-.344.08m-2.91 0c-.133.105-.45.079-.635-.053-.16-.133.105-.344.211-.344.238-.027.556.29.424.397m-2.673 1.296c-.08.159-.344 1.244-.502 1.111-.16-.132.079-1.27.105-1.376.265-.45.82-.423.397.265m.9 4.286c-.635 0-1.27-.106-1.852-.264-.08-.08-.132-.185-.08-.318.212-.529.82-.74 1.297-.794 1.058-.105 2.46.688 2.699.556.211-.132.661-.714 1.323-.688.45.027.45.106.608.159a6.61 6.61 0 01-3.995 1.35m4.63-1.906a1.82 1.82 0 00-.212-.079c-.37-.185-.317.106-.502.053s.211-.476-.344-.132c-.53.344-.397-.053-.609-.635-.238-.582.265-1.244.688-1.403.582-.211.926-.238 1.19-.317.795-.185.953-.662 1.112-.37l.08.158c.052.08.105.265.105.423a6.687 6.687 0 01-1.508 2.302m1.8-3.307c-.186-.053-.927-1.058-.318-1.746.106-.106-.185-.424-.106-.45.317-.026.476.185.582.45v.37c-.026.476-.08.926-.159 1.376M13.573 6.165V4.47c0-.555.265-.926.873-.926.635 0 .82.37.82.874v.423h-.529v-.45c0-.212-.08-.344-.29-.344-.212 0-.292.159-.292.37v1.88c0 .21.08.37.291.37.212 0 .291-.133.291-.344v-.635h.53v.608c0 .503-.212.873-.82.873-.61-.08-.874-.476-.874-1.005zm2.064-2.593h.582v2.99h.688v.476h-1.27zm1.614 0h.582v3.466h-.582zm2.62 1.217l-.424 2.249h-.265l-.423-2.249v2.249h-.476V3.572h.688l.37 1.958.344-1.958h.74v3.466h-.528zm.846 2.275l.661-3.466h.662l.661 3.466h-.608l-.106-.635h-.609l-.106.635zm.714-1.11h.476L21.67 4.55zm1.19-2.382h1.562v.476h-.476v2.99h-.582v-2.99h-.477zm1.88 0h1.402v.476h-.82v1.006h.582v.476h-.583v1.058h.82v.476H24.5zm-11.034 8.52l.662-3.467h.661l.662 3.466h-.582l-.106-.635h-.609l-.106.635zm.741-1.112h.476l-.238-1.402zm1.429.212V9.499c0-.556.264-.926.873-.926.635 0 .82.37.82.873v.423h-.529v-.45c0-.211-.08-.344-.291-.344-.212 0-.291.159-.291.37v1.88c0 .21.08.37.29.37.213 0 .292-.133.292-.344v-.635h.53v.608c0 .503-.213.873-.821.873-.635-.053-.873-.476-.873-1.005zm1.905-2.567h1.56v.477h-.475v2.99h-.582v-2.99h-.477zm1.878 0h.582v3.466h-.582zm.98 2.567V9.499c0-.556.264-.926.872-.926.609 0 .9.396.9.926v1.693c0 .529-.265.926-.9.926-.608.026-.873-.397-.873-.926zm1.163.106V9.419c0-.211-.079-.37-.29-.37-.212 0-.292.159-.292.37v1.879c0 .211.08.37.291.37.212-.026.291-.159.291-.37zm1.482-1.403v2.196h-.503V8.625h.583l.635 1.985V8.625h.476v3.466h-.503z" fill="#fff"/></svg>