<svg xmlns="http://www.w3.org/2000/svg" width="160.9" height="160.9" viewBox="0 0 42.571 42.571"><path class="st2" d="M5.556 3.598v8.573H4.101V5.609L3.096 6.667h-.027V5.16L4.392 3.6zm4.392 8.573v-1.402h.582V9.63h-.582V3.57H8.52L6.032 9.87v.9h2.54v1.402zM7.302 9.657L8.6 6.112v3.545zm25.48 21.432c-.53-.715-3.995-5.133-8.837-5.133-4.207 0-8.731 3.81-8.731 3.81s-1.694-3.466-5.16-3.81h-.08c-.079 0-.132.079-.132.132 0 .053.053.132.053.132.45.741 1.588 2.858 1.588 4.948 0 2.117-1.138 4.233-1.588 4.974l-.026.053c0 .026-.027.053-.027.08 0 .079.053.132.133.132h.053c3.466-.318 5.185-3.81 5.185-3.81s4.498 3.81 8.732 3.81c4.842 0 8.308-4.419 8.837-5.133.026-.027.026-.027.026-.053v-.106l-.026-.026m-6.165.661a1.423 1.423 0 01-1.429-1.429c0-.793.635-1.402 1.429-1.402s1.429.635 1.429 1.402c0 .794-.635 1.429-1.43 1.429M9.923 17.648h-.027c-.079 0-.132.053-.132.132v.979c0 .053.027.08.053.106 2.355 2.037 4.55.132 5.08-.37 0-.027.026-.027.026-.027.027-.027.053-.027.08-.027.026 0 .08.027.106.027 2.646 2.513 5.424.476 6.006 0l.053-.053h.105l.053.053c.582.476 3.36 2.513 6.006 0 .027-.027.053-.027.106-.027.027 0 .053 0 .08.027.026 0 .026.026.026.026.503.503 2.725 2.408 5.08.37.027-.026.053-.052.053-.105v-.979c0-.08-.053-.132-.132-.132h-.027c-.026 0-.053.026-.08.026-.713.37-2.962 1.217-4.973-.688l-.053-.053h-.106c-.026 0-.053.027-.08.053-.608.45-3.386 2.329-5.847.027l-.026-.027c-.027-.026-.053-.053-.106-.053a.2.2 0 00-.106.053l-.026.027c-2.461 2.302-5.24.423-5.848-.027-.026-.026-.026-.053-.079-.053h-.106l-.053.053c-2.037 1.932-4.26 1.059-4.974.688-.08 0-.106-.026-.132-.026m4.947 4.339c0-.027.027-.027.027-.027.026-.026.053-.026.08-.026.026 0 .079.026.105.026 2.646 2.514 5.424.477 6.006 0l.053-.053h.106l.053.053c.582.477 3.36 2.514 6.006 0 .026-.026.053-.026.106-.026.026 0 .053 0 .08.026.026 0 .026.027.026.027.502.503 2.725 2.408 5.08.37.026-.026.053-.053.053-.106v-.979c0-.079-.053-.132-.133-.132h-.026c-.027 0-.053.027-.08.027-.714.37-2.963 1.217-4.974-.688l-.053-.053c-.026 0-.026-.027-.053-.027h-.053c-.026 0-.052.027-.079.053-.608.45-3.387 2.329-5.847.027l-.027-.027c-.026-.026-.053-.026-.106-.026-.026 0-.079.026-.105.026l-.027.027c-2.46 2.302-5.239.423-5.847-.027-.027-.026-.027-.053-.08-.053h-.052c-.027 0-.027 0-.053.027l-.053.053c-2.038 1.905-4.26 1.058-4.974.688-.027 0-.053-.027-.08-.027h-.026c-.08 0-.133.053-.133.132v.98c0 .052.027.079.053.105 2.302 2.038 4.525.133 5.027-.37M13.6 3.572h.582v2.99h.688v.476H13.6zm1.561 0h.582v3.466h-.582zm.953 0h1.376v.476h-.794v1.006h.582v.476h-.582v1.534h-.582zm1.64 0h1.403v.476h-.82v1.006h.581v.476h-.582v1.058h.82v.476h-1.402zm2.487 0h.847c.582 0 .767.264.767.767v.344c0 .291-.105.476-.344.556.291.08.424.264.424.582v.45c0 .502-.212.767-.794.767h-.9zm.582 1.482h.212c.185 0 .265-.106.265-.292V4.34c0-.185-.08-.29-.291-.29h-.212v1.005zm0 .45v1.084h.265c.185 0 .291-.106.291-.29v-.53c0-.185-.08-.291-.29-.291zm1.376-1.932h1.403v.476h-.82v1.006h.581v.476h-.582v1.058h.82v.476h-1.402zm1.773 0h.582v2.99h.688v.476h-1.27zm1.508 2.593V4.47c0-.555.265-.926.873-.926.609 0 .9.397.9.926v1.694c0 .529-.265.926-.9.926-.608 0-.873-.397-.873-.926zm1.164.08v-1.88c0-.211-.08-.37-.29-.37-.212 0-.292.159-.292.37v1.88c0 .21.08.37.291.37.212 0 .291-.16.291-.37zm2.143-1.35l-.317 2.143h-.556l-.476-3.466h.556l.264 2.196.291-2.196h.477l.317 2.196.265-2.196h.502l-.45 3.466h-.555zM14.87 10.001l-.318 2.143h-.556l-.476-3.466h.556l.264 2.196.291-2.196h.477l.317 2.196.265-2.196h.502l-.45 3.466h-.555zm1.296 2.17l.661-3.466h.662l.661 3.466h-.608l-.106-.635h-.609l-.105.635zm.714-1.111h.477l-.238-1.403zm1.138-2.382h1.561v.477h-.476v2.99h-.582v-2.99h-.476v-.477zm1.826 0h1.402v.477h-.82v1.005h.582v.476h-.582v1.059h.82v.476h-1.402zm2.302 1.879v1.587h-.582V8.678h.846c.582 0 .794.291.794.768v.45c0 .37-.132.581-.476.66l.555 1.588h-.608zm0-1.402v1.084h.185c.211 0 .29-.105.29-.29v-.503c0-.186-.079-.291-.29-.291z" fill="#fff"/></svg>