<svg xmlns="http://www.w3.org/2000/svg" width="160.9" height="160.9" viewBox="0 0 42.571 42.571"><path class="st2" d="M3.122 5.133V6.64l1.006-1.058h.026v6.588h1.429v-8.6H4.445zm5.9 1.164c-.582 0-.979.212-1.217.582V4.736h2.487V3.572h-3.81v4.842h1.323v-.185c0-.503.238-.794.635-.794.45 0 .609.29.609.767v2.064c0 .45-.159.767-.609.767-.502 0-.661-.317-.661-.847V9.102H6.456v.979c0 1.296.529 2.143 1.984 2.143s2.064-.768 2.064-1.958v-2.09c0-1.323-.714-1.879-1.482-1.879M17.833 28.787c.053 0 .106.053.106.106v3.095a.114.114 0 01-.106.106h-1.244a.114.114 0 01-.105-.106v-3.095c0-.053.052-.106.105-.106zm13.785 4.63H10.954a.114.114 0 00-.106.106v1.27c0 .053.053.106.106.106h20.664a.114.114 0 00.106-.106v-1.27a.114.114 0 00-.106-.106m0 2.513H10.954a.114.114 0 00-.106.106v1.27c0 .053.053.106.106.106h20.664a.114.114 0 00.106-.106v-1.27a.114.114 0 00-.106-.106m-3.943-10.556c-.264-.212-.952-.662-1.799-.662-.608 0-1.164.238-1.667.714a.202.202 0 00-.053.133v.106c0 .053.027.105.053.132.053.026.08.053.16.026h.026c.026-.026.079-.026.105-.053.106-.079.397-.185.82-.185.45 0 1.297.106 2.144.9l.026.026a.24.24 0 00.185.08.286.286 0 00.186-.08l.026-.026c.847-.767 1.693-.9 2.143-.9.424 0 .715.106.82.185a.365.365 0 00.106.08c.027 0 .08.026.133 0 .079-.027.132-.08.132-.159v-.106a.202.202 0 00-.053-.132c-.503-.476-1.058-.714-1.693-.714-.847-.053-1.535.423-1.8.635m-1.27-8.255c-.052.026-.079.052-.079.105l-.026.08c-.027.053 0 .106.026.159.027.052.08.079.132.079h.027c.026 0 .08 0 .106-.027.026 0 .053-.026.132-.026.08 0 .926.026 1.482.952v.027c.026.053.079.08.132.106h.053c.026 0 .08 0 .106-.027h.026a1.93 1.93 0 01.926-.238c.53 0 .873.212.953.291l.079.08c.026 0 .053.026.08.026h.052c.027 0 .053 0 .08-.026.053-.027.079-.053.079-.106l.027-.053v-.053c0-.027 0-.053-.027-.08-.397-.687-.979-.846-1.402-.846-.318 0-.582.08-.741.132-.185-.264-.662-.794-1.402-.794-.291.053-.556.106-.82.239M22.04 20.32v.106c0 .053.026.106.08.132a.288.288 0 00.131.027h.027c.026-.027.053-.027.08-.053.079-.053.37-.186.793-.186.397 0 1.005.106 1.64.609l.027.026c.053.027.106.053.159.053h.026c.053 0 .132-.026.159-.079l.026-.026c.688-.741 1.43-.847 1.826-.847.265 0 .476.053.53.106.026.026.052.053.105.053h.132c.08-.027.133-.106.106-.186v-.079c0-.053-.026-.08-.053-.132-.423-.344-.846-.53-1.323-.53-.714 0-1.296.424-1.534.636a2.447 2.447 0 00-1.376-.45c-.556 0-1.032.238-1.455.688-.106.026-.106.08-.106.132m-10.478 1.64a2.247 2.247 0 012.25-2.249h.132c.105-1.56 1.428-2.804 3.016-2.804a3.043 3.043 0 013.043 3.043c0 .476-.106.926-.318 1.323a3.403 3.403 0 012.646 3.307 3.376 3.376 0 01-3.387 3.386l-4.524-.026a2.416 2.416 0 01-2.408-2.408c0-.635.238-1.217.662-1.64a2.246 2.246 0 01-1.112-1.932zM13.6 3.572h.582v2.99h.688v.476H13.6zm1.614 0h.582v3.466h-.582zm1.005 0h1.376v.476H16.8v1.006h.582v.476h-.582v1.534h-.582zm1.693 0h1.403v.476h-.82v1.006h.581v.476h-.582v1.058h.82v.476h-1.402zM13.6 11.271V9.578c0-.556.264-.926.873-.926.608 0 .9.397.9.926v1.693c0 .53-.265.926-.9.926-.609 0-.873-.397-.873-.926zm1.19.08V9.472c0-.212-.08-.37-.29-.37-.212 0-.292.158-.292.37v1.879c0 .211.08.37.291.37.185 0 .291-.159.291-.37zm1.403-1.376v2.196h-.503V8.705h.582l.635 1.984V8.705h.476v3.466h-.503zm2.46-1.297h.582v2.99h.688v.476h-1.27zm1.429 3.493l.661-3.466h.662l.661 3.466h-.608l-.106-.635h-.609l-.105.635zm.74-1.111h.477l-.238-1.403zm1.985-1.085v2.196h-.503V8.705h.582l.635 1.984V8.705h.477v3.466h-.503zm3.334-.344v1.614c0 .529-.212.926-.847.926h-.9V8.705h.9c.609-.027.847.37.847.926zm-.926 2.064c.238 0 .344-.133.344-.344V9.525c0-.212-.08-.344-.344-.344h-.238v2.514z" fill="#fff"/></svg>