<svg xmlns="http://www.w3.org/2000/svg" width="160.9" height="160.9" viewBox="0 0 42.571 42.571"><path class="st2" d="M3.28 5.133V6.64h.027l1.006-1.058v6.588h1.455v-8.6H4.604zm7.541 4.974v-1.27c0-1.402-.555-2.117-1.587-2.117-.609 0-.979.291-1.19.688V5.556c0-.529.158-.9.687-.9.53 0 .662.292.662.847v.582h1.323v-.45c0-1.27-.424-2.142-2.011-2.142-1.508 0-2.09.978-2.09 2.328V10c0 1.323.582 2.302 2.09 2.302 1.508-.026 2.116-.873 2.116-2.196m-1.428.132c0 .556-.212.874-.688.874s-.662-.318-.662-.874V8.68c.027-.477.238-.794.688-.794.503 0 .688.29.688.873zM13.6 3.572h.873c.582 0 .793.29.793.767v.741c0 .476-.211.794-.793.794h-.291v1.19H13.6zm.582.476v1.376h.211c.212 0 .291-.106.291-.291v-.794c0-.185-.079-.29-.29-.29zm1.376-.476h1.402v.476h-.82v1.006h.582v.476h-.582v1.058h.82v.476h-1.402zm1.64 3.492l.661-3.466h.662l.661 3.466h-.608l-.106-.635h-.609l-.105.635zm.74-1.11h.477l-.238-1.403zm1.456.21V4.472c0-.555.265-.926.873-.926.635 0 .82.37.82.874v.423h-.529v-.45c0-.212-.08-.344-.29-.344-.213 0-.292.159-.292.37v1.88c0 .21.08.37.291.37.212 0 .291-.133.291-.344v-.635h.53v.608c0 .503-.212.873-.82.873-.61-.08-.874-.476-.874-1.005zm2.064-2.592h1.402v.476h-.82v1.006h.582v.476h-.582v1.058h.82v.476h-1.402zm2.355 2.963l-.292.794h-.317l.08-.82zm2.54-2.963V6.27c0 .502-.212.82-.794.82-.609 0-.768-.344-.768-.767v-.688h.556v.714c0 .185.053.265.212.265s.211-.106.211-.291V3.572zm2.063 0v2.62c0 .528-.238.899-.82.899-.608 0-.873-.344-.873-.9v-2.62h.582v2.7c0 .211.08.344.291.344.212 0 .291-.133.291-.344v-2.7zm.37 2.725v-.45h.556v.477c0 .185.08.317.291.317.186 0 .265-.132.265-.317V6.19c0-.211-.08-.317-.265-.502l-.344-.344c-.344-.318-.476-.53-.476-.926v-.106c0-.424.265-.768.82-.768.582 0 .82.291.82.794v.291h-.529v-.29c0-.213-.079-.292-.264-.292-.159 0-.265.08-.265.291v.08c0 .185.106.317.265.476l.37.37c.318.318.476.53.476.9v.159c0 .476-.264.82-.846.82-.662-.053-.873-.37-.873-.847zm1.959-2.725h1.56v.476h-.476v2.99h-.582v-2.99h-.502zm1.878 0h.582v3.466h-.582zm.98 2.593V4.47c0-.555.264-.926.872-.926.635 0 .82.37.82.874v.423h-.529v-.45c0-.212-.08-.344-.29-.344-.212 0-.292.159-.292.37v1.88c0 .21.08.37.291.37.212 0 .291-.133.291-.344v-.635h.53v.608c0 .503-.212.873-.82.873-.61-.08-.874-.476-.874-1.005zm2.063-2.593h1.402v.476h-.82v1.006h.582v.476h-.582v1.058h.82v.476h-1.402zM13.494 12.277l.661-3.466h.662l.661 3.466h-.608l-.106-.635h-.609l-.106.635zm.74-1.112h.477l-.238-1.402zm2.038-1.084v2.196h-.503V8.81h.582l.635 1.984V8.811h.477v3.466h-.503zm3.334-.344v1.614c0 .529-.212.926-.847.926h-.9V8.81h.9c.635-.027.847.37.847.926zm-.9 2.063c.238 0 .344-.132.344-.344V9.631c0-.212-.08-.344-.344-.344h-.238V11.8zm1.852-.264v-.476h.556v.476c0 .185.08.317.29.317.186 0 .265-.132.265-.317v-.132c0-.212-.079-.318-.264-.503l-.344-.344c-.344-.318-.476-.53-.476-.926v-.106c0-.423.264-.767.82-.767.582 0 .82.29.82.793v.291h-.53v-.29c0-.212-.079-.292-.264-.292-.158 0-.264.08-.264.291v.08c0 .185.106.317.264.476l.37.37c.318.318.477.53.477.9v.159c0 .476-.265.82-.847.82-.635-.053-.873-.37-.873-.82zm1.905-2.752h1.561v.476h-.476v2.99h-.582V9.26h-.476v-.476zm2.46 1.905v1.588h-.581V8.81h.846c.582 0 .794.29.794.767v.45c0 .37-.132.582-.476.661l.555 1.588h-.608zm0-1.429v1.085h.186c.212 0 .291-.106.291-.29V9.55c0-.185-.08-.29-.291-.29zm1.43 2.117V9.684c0-.556.264-.926.873-.926.608 0 .9.397.9.926v1.693c0 .53-.265.926-.9.926-.609 0-.873-.397-.873-.926zm1.19.08v-1.88c0-.21-.08-.37-.29-.37-.213 0-.292.16-.292.37v1.88c0 .211.08.37.291.37.185 0 .291-.159.291-.37zm1.455-1.376v2.196h-.502V8.81h.582l.635 1.984V8.811h.476v3.466h-.503zm2.487.344h.82v1.852h-.423v-.37c-.08.264-.238.423-.555.423-.503 0-.741-.397-.741-.926V9.71c0-.555.264-.926.873-.926.635 0 .847.37.847.873v.318h-.53V9.63c0-.212-.079-.344-.29-.344-.212 0-.292.159-.292.37v1.879c0 .211.08.37.291.37.186 0 .291-.106.291-.344v-.688h-.264v-.45zM13.6 13.785h.582v3.466H13.6zm1.481 1.296v2.196h-.476v-3.492h.582l.635 1.984v-1.984h.476v3.466h-.502zm1.561 1.429v-.476h.556v.476c0 .185.08.317.291.317.185 0 .265-.132.265-.317v-.132c0-.212-.08-.318-.265-.503l-.344-.344c-.344-.317-.476-.53-.476-.926v-.106c0-.423.264-.767.82-.767.582 0 .82.29.82.794v.29h-.529v-.29c0-.212-.08-.291-.265-.291-.158 0-.264.079-.264.29v.08c0 .185.106.317.264.476l.37.37c.318.318.477.53.477.9v.159c0 .476-.264.82-.847.82-.635-.026-.873-.37-.873-.82zm1.905-2.725h1.561v.476h-.476v2.99h-.582v-2.99h-.476zm1.879 0h.582v3.466h-.582zm.9 0h1.56v.476h-.476v2.99h-.582v-2.99h-.476v-.476zm3.571 0v2.62c0 .528-.238.899-.82.899-.608 0-.873-.344-.873-.9v-2.62h.582v2.7c0 .211.08.343.291.343.212 0 .291-.132.291-.343v-2.7zm.318 0h1.56v.476H26.3v2.99h-.582v-2.99h-.477v-.476zm1.878 0h.582v3.466h-.582zm.98 2.566v-1.693c0-.556.264-.926.872-.926.609 0 .9.397.9.926v1.693c0 .53-.265.926-.9.926-.608.027-.873-.37-.873-.926zm1.19.106V14.58c0-.212-.08-.37-.291-.37-.212 0-.291.158-.291.37v1.878c0 .212.08.37.29.37.186-.026.292-.158.292-.37zm1.455-1.376v2.196h-.503v-3.492h.583l.635 1.984v-1.984h.476v3.466h-.503zm1.561 1.429v-.476h.556v.476c0 .185.08.317.29.317.186 0 .265-.132.265-.317v-.132c0-.212-.079-.318-.264-.503l-.344-.344c-.344-.317-.476-.53-.476-.926v-.106c0-.423.264-.767.82-.767.582 0 .82.29.82.794v.29h-.53v-.29c0-.212-.078-.291-.264-.291-.158 0-.264.079-.264.29v.08c0 .185.106.317.264.476l.37.37c.318.318.477.53.477.9v.159c0 .476-.265.82-.847.82-.635-.026-.873-.37-.873-.82z" fill="#fff"/><g fill="#fff"><path class="st2" d="M27.517 20.955s-.37.476-.265.952c.106.477.635.741.635.741s.37-.476.265-.952c-.106-.476-.635-.741-.635-.741m-.582 2.699s.37-.477.264-.953c-.106-.476-.635-.74-.635-.74s-.37.476-.264.925c.105.503.635.768.635.768m1.481-.503s.37.37.82.344c.424-.026.741-.476.741-.476s-.37-.37-.82-.344c-.423.026-.74.476-.74.476m.608-2.037c-.344.344-.291.979-.291.979s.608.053.979-.291c.344-.344.29-.98.29-.98s-.634-.052-.978.292m-.767 3.466c.423.053.82-.318.82-.318s-.291-.45-.715-.502c-.423-.053-.82.317-.82.317s.291.45.715.503m.37 7.435h-3.202a.464.464 0 00-.45.45c0 .237.212.45.45.45h3.202c.238 0 .45-.213.45-.45.026-.239-.185-.45-.45-.45m0 5.027h-3.202a.464.464 0 00-.45.45c0 .238.212.45.45.45h3.202c.238 0 .45-.212.45-.45.026-.265-.185-.45-.45-.45m-14.42-6.112c-.08-.027-.159-.053-.212-.053 0 0 .08.026.212.053"/><path class="st2" d="M28.522 33.258H25.56a.265.265 0 00-.265.265v.9l-1.931.211-2.831-.053v-1.746c.37-.053.74-.133 1.137-.238 2.726-.768 3.334-3.017 3.255-4.578-.053-1.587.45-2.196 1.19-2.487.212-.08.424-.132.609-.158 0 .396.08.846.265 1.375.052 0 .132 0 .185-.026-.185-.556-.265-1.006-.265-1.402.37-.053.635-.027.635-.027s-.264-.132-.608-.45c.132-.74.582-1.217 1.031-1.693.265-.265.53-.53.715-.847l-.159-.105c-.185.317-.45.555-.688.82-.45.45-.9.926-1.058 1.693a4.041 4.041 0 01-.476-.476c-.662-.767-1.535-.212-2.779.952-1.243 1.138-2.778 1.191-4.312-.37-2.011-2.064-3.757-2.037-4.948-1.932.82.344 1.111 1.112 1.535 3.07.423 2.037 1.534 2.963 3.042 3.095-.846.291-.873.768-1.984 1.535-.873.608-2.09.423-2.593.29.926.292 1.984 1.244 2.963 1.588a7.817 7.817 0 001.773.37v1.668l-5.08-.106v1.164l9.499-.212 1.931.212v.9c0 .132.106.264.265.264h2.963a.265.265 0 00.265-.264v-2.964c-.053-.132-.186-.238-.318-.238zm-9.102-.37c.212 0 .424 0 .635-.027v1.667l-.635-.026zm-5.847 2.487c0 .238-.159.45-.37.45h-.238c-.212 0-.37-.186-.37-.45v-.794c0-.238.158-.45.37-.45h.238c.211 0 .37.185.37.45z"/></g></svg>