<svg xmlns="http://www.w3.org/2000/svg" width="160.9" height="160.9" viewBox="0 0 42.571 42.571"><path class="st2" d="M6.376 3.572v8.599H4.921V5.583L3.89 6.64V5.133l1.323-1.561zm.662 0h3.598v1.35L8.758 12.17H7.329L9.26 4.763H7.038zm25.056 22.251c0-2.99-2.381-5.424-5.345-5.53-.767-2.143-2.83-3.704-5.238-3.704a5.557 5.557 0 00-5.24 3.705c-2.962.105-5.344 2.54-5.344 5.53a5.53 5.53 0 002.143 4.365 5.809 5.809 0 00-.211 1.535 5.556 5.556 0 005.556 5.556c1.164 0 2.249-.37 3.122-.98a5.556 5.556 0 008.625-4.63c0-.529-.079-1.031-.211-1.507 1.323-.98 2.143-2.567 2.143-4.34m-6.138-3.677c0 2.222-1.64 4.048-3.784 4.365a5.586 5.586 0 01-.053-.688c0-2.222 1.64-4.048 3.784-4.365.026.211.053.45.053.688m-4.392 12.726a4.435 4.435 0 01-1.35-3.175c0-1.217.503-2.328 1.297-3.148a4.437 4.437 0 01.053 6.324M17.17 21.457c2.144.317 3.784 2.143 3.784 4.365 0 .238-.026.45-.053.688-2.143-.317-3.783-2.143-3.783-4.365 0-.238 0-.477.052-.688m3.308 6.35c-.741 1.455-2.223 2.46-3.943 2.46a4.38 4.38 0 01-2.037-.502c.741-1.456 2.223-2.461 3.969-2.461.688 0 1.402.185 2.01.503m2.117-.027a4.38 4.38 0 012.038-.502 4.392 4.392 0 013.968 2.487 4.462 4.462 0 01-2.037.502 4.392 4.392 0 01-3.969-2.487m-1.058-10.08a4.357 4.357 0 014.048 2.672 5.52 5.52 0 00-4.048 3.122 5.52 5.52 0 00-4.048-3.122 4.398 4.398 0 014.048-2.672m-9.446 8.122c0-2.275 1.747-4.154 3.943-4.392-.027.238-.053.477-.053.715 0 1.614.688 3.069 1.799 4.1a5.562 5.562 0 00-4.26 2.885 4.508 4.508 0 01-1.429-3.308m1.905 5.927c0-.317.027-.609.106-.926.741.344 1.535.556 2.408.556.979 0 1.879-.239 2.672-.688a6.183 6.183 0 00-.106 1.032c0 1.508.609 2.857 1.561 3.862a4.315 4.315 0 01-2.222.609c-2.434-.026-4.419-2.01-4.419-4.445m15.082-.053a4.426 4.426 0 01-4.419 4.419 4.463 4.463 0 01-2.196-.582 5.496 5.496 0 001.535-3.81c0-.37-.027-.715-.106-1.059.794.45 1.72.688 2.699.688.873 0 1.693-.212 2.407-.556.027.318.08.609.08.9m-3.784-5.503a5.548 5.548 0 001.773-4.075c0-.238-.027-.476-.053-.714a4.416 4.416 0 013.942 4.392c0 1.296-.555 2.46-1.455 3.28-.794-1.534-2.355-2.645-4.207-2.883M13.573 3.572h.873c.582 0 .794.29.794.767v.741c0 .476-.212.794-.794.794h-.29v1.19h-.583zm.609.476v1.376h.211c.212 0 .291-.106.291-.291v-.794c0-.185-.079-.29-.29-.29zm1.137 3.016l.662-3.466h.661l.662 3.466h-.609l-.106-.635h-.608l-.106.635zm.741-1.11h.476l-.238-1.403zm2.143-.504v1.588h-.582V3.572h.847c.582 0 .794.29.794.767v.45c0 .37-.133.582-.477.661l.556 1.588h-.609zm0-1.402v1.085h.186c.211 0 .29-.106.29-.291v-.503c0-.185-.079-.29-.29-.29zm1.27-.476h1.561v.476h-.476v2.99h-.582v-2.99H19.5v-.476zm2.408 1.296v2.196h-.503V3.598h.582l.635 1.985V3.598h.477v3.466h-.503zm1.693-1.296h1.403v.476h-.82v1.006h.582v.476h-.583v1.058h.82v.476h-1.402zM25.93 5.45v1.588h-.582V3.572h.847c.582 0 .793.29.793.767v.45c0 .37-.132.582-.476.661l.556 1.588h-.609zm0-1.402v1.085h.185c.212 0 .291-.106.291-.291v-.503c0-.185-.079-.29-.29-.29zm1.35 2.25v-.45h.555v.476c0 .185.08.317.291.317.185 0 .265-.132.265-.317V6.19c0-.211-.08-.317-.265-.502l-.344-.344c-.344-.318-.476-.53-.476-.926v-.106c0-.424.265-.768.82-.768.582 0 .82.291.82.794v.291h-.529v-.29c0-.213-.08-.292-.264-.292-.16 0-.265.08-.265.291v.08c0 .185.106.317.265.476l.37.37c.318.318.476.53.476.9v.159c0 .476-.264.82-.846.82-.635-.053-.873-.37-.873-.847zm3.201-.768h-.556v1.534h-.608V3.598h.582V5.08h.556V3.598h.582v3.466h-.582V5.53zm.979-1.958h.582v3.466h-.582zm.952 0h.874c.582 0 .793.29.793.767v.741c0 .476-.211.794-.793.794h-.265v1.19h-.582zm.609.476v1.376h.212c.211 0 .29-.106.29-.291v-.794c0-.185-.079-.29-.29-.29zm1.296 2.25v-.45h.556v.476c0 .185.08.317.291.317.185 0 .265-.132.265-.317V6.19c0-.211-.08-.317-.265-.502l-.344-.344c-.344-.318-.476-.53-.476-.926v-.106c0-.424.264-.768.82-.768.582 0 .82.291.82.794v.291h-.529v-.29c0-.213-.08-.292-.264-.292-.16 0-.265.08-.265.291v.08c0 .185.106.317.265.476l.37.37c.317.318.476.53.476.9v.159c0 .476-.264.82-.846.82-.635-.053-.874-.37-.874-.847zM13.573 8.625h1.376v.477h-.794v1.005h.582v.476h-.582v1.535h-.582zm1.588 2.593V9.525c0-.556.264-.926.873-.926.608 0 .9.397.9.926v1.693c0 .53-.265.926-.9.926-.609 0-.873-.397-.873-.926zm1.19.08V9.419c0-.212-.08-.37-.29-.37-.212 0-.292.158-.292.37v1.879c0 .211.08.37.291.37.185 0 .291-.159.291-.37zm1.535-.794v1.587h-.582V8.625h.846c.582 0 .794.291.794.768v.45c0 .37-.132.582-.476.661l.556 1.587h-.609zm0-1.402v1.084h.185c.212 0 .291-.105.291-.29v-.503c0-.186-.08-.291-.291-.291zm2.01-.477h1.562v.477h-.477v2.99H20.4v-2.99h-.476v-.477zm2.964 1.958h-.556v1.535h-.582V8.652h.582v1.482h.556V8.652h.582v3.466h-.582zm.979-1.958h1.402v.477h-.82v1.005h.582v.476h-.582v1.059h.82v.476H23.84zm3.28 1.64h.821v1.853h-.423v-.37c-.08.264-.238.423-.556.423-.503 0-.74-.397-.74-.926V9.55c0-.555.264-.926.872-.926.635 0 .847.37.847.874v.317h-.53v-.344c0-.212-.079-.344-.29-.344-.212 0-.291.159-.291.37v1.88c0 .21.08.37.29.37.186 0 .292-.106.292-.344v-.609h-.265v-.53zm1.138.953V9.525c0-.556.265-.926.874-.926.608 0 .9.397.9.926v1.693c0 .53-.265.926-.9.926-.582 0-.874-.397-.874-.926zm1.191.08V9.419c0-.212-.08-.37-.29-.37-.213 0-.292.158-.292.37v1.879c0 .211.08.37.291.37.212 0 .291-.159.291-.37zm.767.82l.662-3.466h.661l.662 3.466h-.609l-.106-.635h-.608l-.106.635zm.715-1.111h.476l-.238-1.403zm1.56-2.382h.583v2.99h.688v.476h-1.27zm1.482 2.726v-.477h.556v.477c0 .185.08.317.291.317.185 0 .265-.132.265-.317v-.133c0-.211-.08-.317-.265-.502l-.344-.344c-.344-.318-.476-.53-.476-.926V9.34c0-.424.265-.768.82-.768.582 0 .82.292.82.794v.291h-.529v-.29c0-.212-.08-.292-.264-.292-.16 0-.265.08-.265.291v.08c0 .185.106.317.265.476l.37.37c.318.318.476.53.476.9v.159c0 .476-.264.82-.846.82-.635-.027-.874-.344-.874-.82z" fill="#fff"/></svg>