<svg width="24" height="24" viewBox="0 0 24 24" fill="none" xmlns="http://www.w3.org/2000/svg">
<path d="M23.7151 19.6913C22.9587 19.086 21.8746 18.5564 20.5131 18.1277L22.2779 5.36615C22.3787 4.71047 21.8998 4.10513 21.2695 4.02947L13.3529 2.94508C12.6975 2.84427 12.0923 3.32331 12.0167 3.95381L10.7561 13.134L9.82328 6.7785C9.72251 6.12281 9.11734 5.66875 8.46192 5.76977L2.5623 6.65258C1.90683 6.75338 1.45293 7.35875 1.55391 8.01439L3.06672 18.3295C1.93222 18.7331 0.999244 19.2124 0.343821 19.7418C-0.261313 20.2211 0.142102 21.1795 0.923653 21.0785C3.79783 20.7003 6.99975 20.4732 10.3782 20.4228L12.6725 17.9765C12.6977 17.9513 12.6977 17.9008 12.6977 17.8757L11.8655 15.757C11.8403 15.7319 11.8655 15.6814 11.8906 15.6562L13.6808 14.1682C13.7059 14.1431 13.7059 14.1178 13.7059 14.0926L13.6303 12.6046C13.6303 12.5038 13.7564 12.4785 13.8069 12.5541L14.7145 14.2187C14.7397 14.2439 14.7397 14.2944 14.7145 14.3195L13.5295 15.9336C13.5044 15.9588 13.5044 15.9841 13.5295 16.0345L14.6136 18.607C14.6387 18.6321 14.6136 18.6826 14.6136 18.7078L13.353 20.3976C16.8826 20.448 20.1854 20.675 23.1604 21.0786C23.8917 21.129 24.2949 20.1706 23.7151 19.6914L23.7151 19.6913ZM3.57065 9.60314L3.44473 8.69521C3.41958 8.51858 3.5455 8.34213 3.72207 8.31697L4.60458 8.19083C4.78115 8.16568 4.95754 8.29164 4.98269 8.46827L5.10878 9.35107C5.13393 9.5277 5.00801 9.70415 4.83144 9.72931L3.94893 9.8806C3.77236 9.90576 3.59597 9.77977 3.57065 9.60314ZM3.9994 12.5036L3.87331 11.6208C3.84816 11.4441 3.97408 11.2677 4.15065 11.2425L5.03316 11.1164C5.20973 11.0912 5.38612 11.2172 5.41127 11.3938L5.53737 12.2766C5.56251 12.4533 5.43659 12.6297 5.26002 12.6549L4.37751 12.781C4.20094 12.8313 4.0497 12.7052 3.9994 12.5036ZM5.71373 15.5803L4.83122 15.7064C4.65465 15.7316 4.47826 15.6056 4.45311 15.429L4.32702 14.5462C4.30187 14.3696 4.42779 14.1931 4.60436 14.168L5.48687 14.0418C5.66344 14.0167 5.83983 14.1426 5.86498 14.3193L5.99108 15.2021C6.01622 15.3787 5.8903 15.5551 5.71373 15.5803ZM6.74747 9.12386L6.62138 8.24106C6.59623 8.06443 6.72215 7.88798 6.89872 7.86282L7.78123 7.73668C7.9578 7.71153 8.13419 7.83749 8.15934 8.01412L8.28543 8.89692C8.31058 9.07355 8.18466 9.25 8.00809 9.27516L7.12558 9.4013C6.94919 9.42663 6.77262 9.32565 6.74747 9.12386ZM7.17605 12.0495L7.04996 11.1667C7.02481 10.99 7.15073 10.8136 7.3273 10.7884L8.20981 10.6623C8.38638 10.6371 8.56277 10.7631 8.58792 10.9397L8.71402 11.8225C8.73916 11.9992 8.61324 12.1756 8.43667 12.2008L7.55416 12.3269C7.37777 12.3521 7.2012 12.2261 7.17605 12.0495ZM8.86526 15.1012L7.98275 15.2272C7.80618 15.2524 7.62979 15.1264 7.60464 14.9498L7.47854 14.0671C7.4534 13.8905 7.57932 13.7141 7.75589 13.6889L8.6384 13.5628C8.81497 13.5376 8.99136 13.6636 9.01651 13.8402L9.1426 14.723C9.19308 14.8995 9.06698 15.0759 8.86526 15.1012ZM15.2439 10.8389C15.2188 11.0156 15.0422 11.1415 14.8658 11.1164L13.6052 10.9397C13.4286 10.9146 13.3027 10.738 13.3279 10.5615L13.5044 9.30049C13.5296 9.12386 13.7061 8.9979 13.8825 9.02306L15.1431 9.19969C15.3197 9.22484 15.4456 9.40147 15.4205 9.57792L15.2439 10.8389ZM15.7481 7.23233C15.723 7.40896 15.5464 7.53492 15.37 7.50976L14.1094 7.33314C13.9328 7.30798 13.8069 7.13135 13.8321 6.9549L14.0086 5.69388C14.0338 5.51725 14.2103 5.39129 14.3867 5.41645L15.6473 5.59307C15.8239 5.61823 15.9498 5.79486 15.9247 5.97131L15.7481 7.23233ZM18.6979 15.0254C18.6728 15.2021 18.4962 15.328 18.3198 15.3029L17.0592 15.1263C16.8826 15.1011 16.7567 14.9245 16.7819 14.748L16.9584 13.487C16.9836 13.3104 17.1601 13.1844 17.3365 13.2096L18.5971 13.3862C18.7737 13.4113 18.8996 13.588 18.8745 13.7644L18.6979 15.0254ZM19.177 11.3937C19.1518 11.5703 18.9753 11.6962 18.7989 11.6711L17.5383 11.4945C17.3617 11.4693 17.2358 11.2927 17.2609 11.1162L17.4375 9.85521C17.4627 9.67858 17.6392 9.55262 17.8156 9.57777L19.0762 9.7544C19.2528 9.77956 19.3787 9.95619 19.3536 10.1326L19.177 11.3937ZM19.6812 7.76187C19.656 7.9385 19.4795 8.06446 19.3031 8.0393L18.0425 7.86267C17.8659 7.83752 17.74 7.66089 17.7651 7.48444L17.9417 6.22342C17.9668 6.04679 18.1434 5.92083 18.3198 5.94598L19.5804 6.12261C19.757 6.14777 19.8829 6.3244 19.8577 6.50085L19.6812 7.76187Z" fill="#D29434"/>
</svg>
