<svg width="24" height="24" viewBox="0 0 24 24" fill="none" xmlns="http://www.w3.org/2000/svg">
<path d="M23.3996 18.6958V20.1118C23.3996 20.4958 23.0876 20.8078 22.7036 20.8078H13.6316L15.0476 18.7918C15.0716 18.7438 15.0956 18.6958 15.0716 18.6478L13.0796 14.5438C13.0556 14.4958 13.0556 14.4478 13.1036 14.3998L14.8796 11.6638C14.9036 11.6158 14.9036 11.5438 14.8796 11.4958L13.2716 8.85577C13.1996 8.71177 12.9836 8.78377 13.0076 8.95177L13.2716 11.3758C13.2716 11.4238 13.2476 11.4718 13.2236 11.4958L10.3916 14.0878C10.3436 14.1358 10.3196 14.2078 10.3676 14.2558L11.8796 17.5678C11.9036 17.6158 11.9036 17.6878 11.8556 17.7358L8.97561 20.8078H1.29561C0.911609 20.8078 0.599609 20.4958 0.599609 20.1118V18.6958C0.599609 18.3118 0.887609 17.9998 1.27161 17.9998L4.48761 17.8078L6.04761 8.73577L4.96761 8.54377C4.63161 8.49577 4.41561 8.18377 4.48761 7.84777L4.60761 7.12777C4.65561 6.91177 4.79961 6.74377 4.99161 6.67177L8.71161 5.35177L9.02361 3.57577C9.07161 3.31177 9.31161 3.14377 9.57561 3.19177L10.7996 3.40777C11.0636 3.45577 11.2316 3.69577 11.1836 3.95977L11.0876 4.53577L14.3996 3.35977C14.5916 3.28777 14.8076 3.33577 14.9756 3.45577L22.6556 9.74377C22.8236 9.88777 22.8956 10.1038 22.8716 10.2958L22.7516 11.0158C22.7036 11.3518 22.3916 11.5678 22.0556 11.4958L20.9756 11.3038L19.8476 17.8318L22.7516 17.9998C23.1116 17.9998 23.3996 18.3118 23.3996 18.6958Z" fill="#D29434"/>
</svg>
