<svg width="48" height="48" viewBox="0 0 48 48" fill="none" xmlns="http://www.w3.org/2000/svg">
<g clip-path="url(#clip0_1871_10590)">
<path d="M32.4639 27.5076C31.6469 28.3229 30.6915 28.9863 29.6421 29.4671C28.7113 29.8937 27.6407 30.1175 27.0469 31.0456C27.1501 28.7554 26.982 26.4288 28.1193 24.3606C28.8379 23.0825 29.8961 22.0281 31.1768 21.3141C33.6433 19.9054 36.6341 19.5884 39.4258 19.6478C41.0433 19.6732 42.6551 19.8472 44.2408 20.1676C44.2408 20.1676 40.088 38.4532 27.6717 31.3379C29.6093 30.598 31.4801 29.5712 32.844 28.0146C33.4697 27.3002 33.9776 26.4881 34.618 25.7875C35.9654 24.3122 37.8043 23.4471 39.7226 22.9903C37.7458 23.1831 35.6292 24.1651 34.2097 25.5637C33.5912 26.1775 33.0778 26.8892 32.4639 27.5076Z" fill="#4F903C"/>
<path d="M28.4973 14.6619C28.1622 15.6654 28.0075 16.7203 28.0406 17.7778C28.0689 18.7169 28.3219 19.687 27.8012 20.5521C29.6401 19.5345 31.6188 18.7251 32.8538 16.9475C33.6106 15.8368 34.045 14.5382 34.109 13.1957C34.2615 10.5959 33.3024 8.01066 32.1157 5.74243C31.4359 4.42343 30.6362 3.1697 29.7269 1.99707C29.7269 1.99707 16.4035 12.865 27.3016 20.1584C27.1189 18.2656 27.2002 16.3107 27.9237 14.5559C28.2553 13.7511 28.7147 13.0029 29.0299 12.1927C29.6913 10.4844 29.6483 8.62088 29.2428 6.85965C29.8904 8.5615 29.9452 10.6964 29.3761 12.432C29.1286 13.1939 28.7549 13.9064 28.4973 14.6619Z" fill="#50B848"/>
<path d="M9.15007 8.77072L9.54196 8.86207C11.8166 6.69184 14.5504 5.06131 17.5409 4.09132C20.5314 3.12132 23.7018 2.83674 26.8172 3.25865C27.5093 2.50975 28.2476 1.80498 29.0279 1.14846L29.6189 0.666128C25.3695 -0.353573 20.9224 -0.194923 16.7565 1.125C12.5905 2.44492 8.86346 4.87611 5.97656 8.15685C6.95949 8.31397 8.02646 8.51494 9.15007 8.77072Z" fill="#8FB73E"/>
<path d="M30.1915 0.807617L30.5925 1.31735C31.5144 2.50508 32.3282 3.7729 33.0242 5.10565C36.5899 6.80998 39.6003 9.48881 41.7074 12.8324C43.8144 16.1759 44.932 20.0476 44.9308 23.9996C44.9308 35.4184 35.7958 44.6987 24.43 44.9298C25.7911 40.0097 26.194 36.2424 26.0889 33.3648C26.012 31.4332 26.0425 29.4988 26.1803 27.5705C27.5387 9.45026 0.352817 8.78067 0.352817 8.78067C0.352817 8.78067 -0.228175 41.284 23.6152 34.4501C20.66 32.402 17.9368 29.8981 16.2852 26.7109C15.5279 25.2493 15.0109 23.6726 14.2234 22.2274C12.5654 19.1864 9.8231 16.973 6.78388 15.409C10.0314 16.5509 13.1857 19.0822 14.9972 22.0237C15.7883 23.3099 16.3583 24.7213 17.1348 26.0166C18.622 28.4959 20.8153 30.4572 23.237 32.0649C23.7527 32.4066 24.17 32.8773 24.4476 33.4301C24.7251 33.983 24.8532 34.5988 24.8192 35.2165C24.5552 39.8754 22.6797 45.2815 22.17 46.9888C22.1224 47.1501 22.1275 47.3223 22.1847 47.4804C22.2419 47.6385 22.3481 47.7742 22.4879 47.8676C22.5759 47.9266 22.6749 47.9671 22.7791 47.9866C22.8832 48.0061 22.9902 48.0041 23.0936 47.9809C23.3923 47.9928 23.691 48.0001 23.9924 48.0001C37.2474 48.0001 47.992 37.2545 47.992 23.9996C48.0002 12.8859 40.4455 3.53808 30.1915 0.807617Z" fill="#476E30"/>
<path d="M21.0222 46.6501C21.0898 46.4217 21.182 46.1275 21.2908 45.7786C21.3821 45.4917 21.4844 45.1629 21.5959 44.8011C12.4435 43.7533 5.08522 36.8062 3.41716 27.8557C2.13826 25.5378 1.13127 22.7942 0.396209 19.625C0.12971 21.0695 -0.00421923 22.5354 -0.0039057 24.0043C-0.0039057 36.2544 9.17406 46.3568 21.0277 47.8193C20.9084 47.439 20.9065 47.0315 21.0222 46.6501Z" fill="#8FB73E"/>
</g>
<defs>
<clipPath id="clip0_1871_10590">
<rect width="48" height="48" fill="white"/>
</clipPath>
</defs>
</svg>
