<svg width="44" height="44" viewBox="0 0 44 44" fill="none" xmlns="http://www.w3.org/2000/svg">
<path d="M40.3357 14C37.2495 6.93638 30.2012 2 21.9999 2C13.7986 2 6.75029 6.93638 3.66406 14" stroke="#AE7003" stroke-width="4" stroke-linecap="round" stroke-linejoin="round"/>
<path d="M22 12C18.2973 15.6298 16 20.6881 16 26.2829C16 26.7833 16.0184 27.2795 16.0545 27.7708C19.7253 31.3967 22 36.4327 22 42C22 36.4327 24.2747 31.3967 27.9455 27.7708C27.9816 27.2795 28 26.7833 28 26.2829C28 20.6881 25.7027 15.6298 22 12Z" fill="#4C9F74" stroke="#2E5F44" stroke-width="4" stroke-linecap="round" stroke-linejoin="round"/>
<path d="M2 22C2 33.0457 10.9543 42 22 42C22 36.4327 19.7253 31.3967 16.0545 27.7708C12.4424 24.2027 7.47841 22 2 22Z" fill="#D9BA83" stroke="#AE7003" stroke-width="4" stroke-linecap="round" stroke-linejoin="round"/>
<path d="M42 22C42 33.0457 33.0457 42 22 42C22 36.4327 24.2747 31.3967 27.9455 27.7708C31.5576 24.2027 36.5216 22 42 22Z" fill="#F6F6F6" stroke="#2E5F44" stroke-width="4" stroke-linecap="round" stroke-linejoin="round"/>
</svg>
