<svg width="23" height="22" viewBox="0 0 23 22" fill="none" xmlns="http://www.w3.org/2000/svg">
<path d="M19.8071 0.00390625H2.61963C1.99803 0.00390625 1.40189 0.250836 0.962347 0.690375C0.522809 1.12991 0.275879 1.72606 0.275879 2.34766L0.275879 19.5352C0.275879 20.1568 0.522809 20.7529 0.962347 21.1924C1.40189 21.632 1.99803 21.8789 2.61963 21.8789H9.32129V14.4419H6.24512V10.9414H9.32129V8.27344C9.32129 5.23877 11.1279 3.5625 13.895 3.5625C15.2202 3.5625 16.606 3.79883 16.606 3.79883V6.77734H15.0791C13.5747 6.77734 13.1055 7.71094 13.1055 8.66846V10.9414H16.4639L15.9268 14.4419H13.1055V21.8789H19.8071C20.4287 21.8789 21.0249 21.632 21.4644 21.1924C21.9039 20.7529 22.1509 20.1568 22.1509 19.5352V2.34766C22.1509 1.72606 21.9039 1.12991 21.4644 0.690375C21.0249 0.250836 20.4287 0.00390625 19.8071 0.00390625Z" fill="white"/>
</svg>
