<?xml version="1.0" encoding="UTF-8"?>
<svg width="30px" height="48px" viewBox="0 0 30 48" version="1.1" xmlns="http://www.w3.org/2000/svg" xmlns:xlink="http://www.w3.org/1999/xlink">
    <!-- Generator: Sketch 55.2 (78181) - https://sketchapp.com -->
    <title>Farmer</title>
    <desc>Created with Sketch.</desc>
    <g id="Page-1" stroke="none" stroke-width="1" fill="none" fill-rule="evenodd">
        <g id="Dashboard-UI-Design-Tabs" transform="translate(-657.000000, -509.000000)">
            <g id="Farmer" transform="translate(657.000000, 509.000000)">
                <path d="M18.4260114,3.55320811 L18.9616448,0 L24.036635,0 L24.5128588,3.55320811 C26.926918,3.36704687 28.4226317,3.36704687 29,3.55320811 C29.5773683,3.73936935 29.5773683,4.22163331 29,5 L14,5 C13.498322,4.19946253 13.498322,3.71719857 14,3.55320811 C14.501678,3.38921765 15.9770151,3.38921765 18.4260114,3.55320811 Z" id="Rectangle" fill="#4FA9C9"></path>
                <path d="M5,39 L5,27" id="Line-5" stroke="#4FA9C9" stroke-linecap="square"></path>
                <path d="M21.5,9 C19.5670034,9 18,7.43299662 18,5.5 C18,3.56700338 19.5670034,2 21.5,2 C23.4329966,2 25,3.56700338 25,5.5 C25,7.43299662 23.4329966,9 21.5,9 Z M22,31 L21,31 L21,46 C21,47.1045695 20.1045695,48 19,48 C17.8954305,48 17,47.1045695 17,46 L17,28.5 L17,18 L16,18 L16,28.5 C16,29.3284271 15.3284271,30 14.5,30 C13.6715729,30 13,29.3284271 13,28.5 L13,15.5 C13,15.4298281 13.0048185,15.3607817 13.0141426,15.2931734 C13.0047872,15.1967131 13,15.0989156 13,15 L13,14 C13,12.3431458 14.3431458,11 16,11 L27,11 C28.6568542,11 30,12.3431458 30,14 L30,15 C30,15.0989156 29.9952128,15.1967131 29.9858574,15.2931734 C29.9951815,15.3607817 30,15.4298281 30,15.5 L30,28.5 C30,29.3284271 29.3284271,30 28.5,30 C27.6715729,30 27,29.3284271 27,28.5 L27,18 L26,18 L26,28.5 L26,46 C26,47.1045695 25.1045695,48 24,48 C22.8954305,48 22,47.1045695 22,46 L22,31 Z" id="Male-Copy-2" fill="#4FA9C9"></path>
                <circle id="Oval" stroke="#FFFFFF" stroke-width="0.5" cx="19.5" cy="17.5" r="1"></circle>
                <circle id="Oval-Copy-8" stroke="#FFFFFF" stroke-width="0.5" cx="23.5" cy="17.5" r="1"></circle>
                <path d="M19,20 L24,20 L24,24 C24,24.5522847 23.5522847,25 23,25 L20,25 C19.4477153,25 19,24.5522847 19,24 L19,20 Z" id="Rectangle-Copy-51" fill="#FFFFFF"></path>
                <rect id="Rectangle" stroke="#4FA9C9" x="2.5" y="24.5" width="5" height="2" rx="1"></rect>
                <path d="M0.635163294,39.7241994 C1.86723904,39.2413998 3.2298693,39 4.72305406,39 C6.24960782,39 7.77945906,39.2523098 9.31260778,39.7569293 C9.72280653,39.8919078 10,40.274965 10,40.7068009 L10,41.8705295 C10.0000134,41.9574385 9.98868405,42.0439766 9.96631163,42.1279567 C8.92342972,46.0426522 7.26799251,48 5,48 C2.73200121,48 1.07656112,46.0426414 0.0336797205,42.1279242 C0.0113288723,42.0439421 4.92366171e-17,41.9574074 0,41.8705019 L0,40.6552409 C2.79911646e-05,40.2437798 0.252065226,39.8743197 0.635163294,39.7241994 Z" id="Rectangle-Copy-50" fill="#4FA9C9"></path>
                <path d="M19.5,17 L19.5,11.3514378" id="Line-10" stroke="#FFFFFF" stroke-width="0.5" stroke-linecap="square"></path>
                <path d="M23.5,17 L23.5,11.3514378" id="Line-10-Copy" stroke="#FFFFFF" stroke-width="0.5" stroke-linecap="square"></path>
            </g>
        </g>
    </g>
</svg>