<svg width="18" height="19" viewBox="0 0 18 19" fill="none" xmlns="http://www.w3.org/2000/svg">
<g clip-path="url(#clip0_423_1401)">
<path fill-rule="evenodd" clip-rule="evenodd" d="M3.00658 15.1184V14.741C3.00658 13.9144 3.68003 13.2443 4.50445 13.2443H6.00684C6.83402 13.2443 7.50458 13.9142 7.50458 14.741V15.1184H17.2498C17.6641 15.1184 17.9999 15.4511 17.9999 15.868C17.9999 16.2821 17.6645 16.6178 17.2498 16.6178H7.50458V16.9952C7.50458 17.8218 6.83126 18.4919 6.00684 18.4919H4.50445C3.67714 18.4919 3.00658 17.822 3.00658 16.9952V16.6178H0.758102C0.343804 16.6178 0.00796509 16.285 0.00796509 15.868C0.00796509 15.454 0.343419 15.1184 0.758102 15.1184H3.00658ZM15.0014 10.2455V10.623C15.0014 11.4496 14.328 12.1197 13.5036 12.1197H12.0012C11.174 12.1197 10.5035 11.4498 10.5035 10.623V10.2455H0.75823C0.343933 10.2455 0.00809353 9.91279 0.00809353 9.49586C0.00809353 9.08182 0.343547 8.74624 0.75823 8.74624H10.5035V8.36873C10.5035 7.54216 11.1768 6.87199 12.0012 6.87199H13.5036C14.3309 6.87199 15.0014 7.54193 15.0014 8.36873V8.74624H17.2499C17.6642 8.74624 18.0001 9.07893 18.0001 9.49586C18.0001 9.9099 17.6646 10.2455 17.2499 10.2455H15.0014ZM3.00658 2.374V1.99662C3.00658 1.16995 3.68003 0.499878 4.50445 0.499878H6.00684C6.83402 0.499878 7.50458 1.16982 7.50458 1.99662V2.374H17.2498C17.6641 2.374 17.9999 2.70682 17.9999 3.12375C17.9999 3.53779 17.6645 3.87337 17.2498 3.87337H7.50458V4.25075C7.50458 5.07742 6.83126 5.74749 6.00684 5.74749H4.50445C3.67714 5.74749 3.00658 5.07755 3.00658 4.25075V3.87337H0.758102C0.343804 3.87337 0.00796509 3.54068 0.00796509 3.12375C0.00796509 2.70971 0.343419 2.374 0.758102 2.374H3.00658ZM4.50596 4.24825H6.00533V1.99925H4.50596V4.24825ZM12.0025 10.6203H13.5019V8.3713H12.0025V10.6203ZM4.50596 16.9923H6.00533V14.7433H4.50596V16.9923Z" fill="#53AA7E"/>
</g>
<defs>
<clipPath id="clip0_423_1401">
<rect width="18" height="18" fill="white" transform="translate(0 0.5)"/>
</clipPath>
</defs>
</svg>
