<svg width="24" height="24" viewBox="0 0 24 24" fill="none" xmlns="http://www.w3.org/2000/svg">
<path d="M19.6976 10.3232C19.4997 11.243 19.026 12.058 18.3693 12.6834C17.5669 7.95657 14.5108 8.01444 14.5108 3.65879C14.5108 2.66907 14.6217 1.7138 14.8135 0.796875C10.5306 1.79753 7.29053 6.44285 7.29053 12.0301C7.29053 12.5321 7.31789 13.0266 7.3689 13.5116C6.62491 12.5021 6.18417 11.2549 6.18417 9.90408C6.18417 9.10281 6.34303 8.33919 6.62403 7.6386C4.58203 9.24201 3.26562 11.7288 3.26562 14.5279C3.26562 19.0001 6.61486 22.6862 10.9396 23.2197C10.0216 22.4973 9.40428 21.175 9.40428 19.6597C9.40428 17.3707 11.1362 14.8529 12.0221 11.8006C12.909 14.8288 15.6718 17.3707 15.6718 19.6597C15.6718 21.0009 15.1874 22.19 14.4397 22.9476C18.0989 21.8974 20.7771 18.527 20.7771 14.5275C20.7765 13.0021 20.3843 11.5706 19.6972 10.3232L19.6976 10.3232Z" fill="#D29434"/>
</svg>
