<svg width="24" height="19" viewBox="0 0 24 19" fill="none" xmlns="http://www.w3.org/2000/svg">
<path fill-rule="evenodd" clip-rule="evenodd" d="M24 9.14088V18.2259H0V9.11139C0.858206 9.46656 1.83483 9.14099 2.33787 8.37157C3.07769 9.52577 4.82373 9.52577 5.56354 8.37157C6.984 10.591 10.0618 7.98678 8.10857 6.50715C6.71774 5.47134 5.50433 5.73775 4.35017 6.35916C5.85943 4.52433 8.52274 4.05091 10.5648 5.35294C11.275 5.82639 11.8077 6.41834 12.1628 7.12857C12.0444 5.76732 11.3342 4.49474 10.0913 3.69588C8.67089 2.77846 6.92489 2.74887 5.50426 3.48869C7.48694 1.06205 10.5943 0.884451 13.0505 1.97943C17.8149 4.11012 16.809 7.60229 20.1528 8.87464C20.9519 9.17062 20.7447 7.98681 20.0048 7.45418C21.8693 7.45418 22.6387 9.61445 23.9998 9.141L24 9.14088Z" fill="#D29434"/>
<path fill-rule="evenodd" clip-rule="evenodd" d="M12.1629 0.618105C13.5242 -0.151301 14.3824 -0.0921237 15.2702 0.203865C15.8621 0.411054 16.7203 1.18046 16.0988 1.62432C15.0038 2.39373 14.708 -0.0920894 12.1628 0.618105H12.1629Z" fill="#D29434"/>
<path fill-rule="evenodd" clip-rule="evenodd" d="M4.67577 4.61277C4.97175 4.55358 5.23799 4.37599 5.41559 4.16895C5.26759 4.67199 4.91255 5.02715 4.49817 5.20475C4.23179 5.29354 3.99513 5.11596 4.05434 4.90877C4.11354 4.58319 4.37992 4.67197 4.67577 4.61277Z" fill="#D29434"/>
<path fill-rule="evenodd" clip-rule="evenodd" d="M5.03063 7.77954C5.03063 8.05731 4.80536 8.28258 4.52745 8.28258C4.24968 8.28258 4.02441 8.05732 4.02441 7.77954C4.02441 7.50164 4.24968 7.27637 4.52745 7.27637C4.80536 7.27637 5.03063 7.50163 5.03063 7.77954Z" fill="#D29434"/>
<path fill-rule="evenodd" clip-rule="evenodd" d="M6.59928 4.16859C6.59928 4.31578 6.48008 4.43498 6.33303 4.43498C6.18598 4.43498 6.06665 4.31578 6.06665 4.16859C6.06665 4.02154 6.18598 3.90234 6.33303 3.90234C6.48009 3.90234 6.59928 4.02154 6.59928 4.16859Z" fill="#D29434"/>
<path fill-rule="evenodd" clip-rule="evenodd" d="M5.32658 6.74392C5.32658 6.89098 5.20738 7.0103 5.06019 7.0103C4.91314 7.0103 4.79395 6.89097 4.79395 6.74392C4.79395 6.59687 4.91314 6.47754 5.06019 6.47754C5.20738 6.47754 5.32658 6.59687 5.32658 6.74392Z" fill="#D29434"/>
</svg>
