<svg width="24" height="24" viewBox="0 0 24 24" fill="none" xmlns="http://www.w3.org/2000/svg">
<path fill-rule="evenodd" clip-rule="evenodd" d="M11.6767 6.71132H10.4247V7.97859H11.6767V6.71132ZM17.1088 18.2822C15.6052 19.3435 13.9032 19.0584 12.2221 18.196C10.2152 17.1661 8.14414 16.9003 6.33088 18.1797C4.82625 19.241 3.12521 18.9559 1.4441 18.0935L1.00103 18.9823C3.00785 20.0121 5.07894 20.278 6.8922 18.9985C8.39683 17.9372 10.0979 18.2223 11.779 19.0848C13.7858 20.1146 15.8569 20.3805 17.6701 19.101L17.1088 18.2822ZM23 21.3353L22.5569 22.2241C20.8759 21.3616 19.1747 21.0765 17.6701 22.1378C16.4021 23.0327 14.9698 23.1971 13.457 22.7872L13.7106 21.8253C14.9406 22.1581 16.0783 22.0465 17.1077 21.32C18.9221 20.0396 20.9922 20.3054 23 21.3353ZM12.2221 21.2328L11.779 22.1216C10.0979 21.2592 8.39675 20.974 6.8922 22.0354L6.32985 21.2176C8.14421 19.9371 10.2143 20.2019 12.2221 21.2328ZM5.22819 21.7563C3.98621 22.1195 2.66601 21.7573 1.44308 21.1293L1 22.0181C2.44948 22.7618 4.0073 23.1484 5.50082 22.7111L5.22819 21.7563ZM23 18.2975C22.2081 17.8907 21.4523 17.6259 20.7325 17.5011C19.9928 17.3732 19.2941 17.3945 18.6355 17.565L18.8781 18.5309C20.101 18.2143 21.3871 18.5857 22.557 19.1854L23 18.2975ZM13.5772 4.78766H12.3242V6.05595H13.5772V4.78766ZM13.5772 6.71139H12.3242V7.97866H13.5772V6.71139ZM11.6767 4.78766H10.4247V6.05595H11.6767V4.78766ZM3.19932 17.0547V7.59006C3.19932 7.39423 3.2745 7.2461 3.42987 7.13145L11.6617 1.11263C11.8672 0.962458 12.1338 0.962458 12.3393 1.11263L20.5711 7.13249C20.7274 7.24613 20.8016 7.39527 20.8016 7.59109V15.498C17.8446 15.3418 17.6701 17.1985 15.1961 17.1752C12.7352 17.1518 11.5544 15.4047 8.81372 15.3783C5.94192 15.3519 5.82053 17.2219 3.19918 17.0544L3.19932 17.0547Z" fill="#83B4FF"/>
</svg>
