<svg width="68" height="49" viewBox="0 0 68 49" fill="none" xmlns="http://www.w3.org/2000/svg">
<path d="M7.915 0C3.57056 0 0 3.80342 0 8.4312V13.6184C0 18.2466 3.57056 22.05 7.915 22.05H12.7846C17.1295 22.05 20.7 18.2466 20.7 13.6184V8.4312C20.7 3.80342 17.1295 0 12.7846 0H7.915ZM7.915 26.9504C3.57056 26.95 0 30.7534 0 35.3816V40.5688C0 45.1966 3.57056 49 7.915 49H12.7846C17.1295 49 20.7 45.1966 20.7 40.5688V35.3816C20.7 30.7534 17.1295 26.95 12.7846 26.95L7.915 26.9504ZM33.2154 26.9504C28.8705 26.95 25.3 30.7534 25.3 35.3816V40.5688C25.3 45.1966 28.8705 49 33.2154 49H38.085C42.4294 49 46 45.1966 46 40.5688V35.3816C46 30.7534 42.4294 26.95 38.085 26.95L33.2154 26.9504Z" fill="white"/>
<path d="M57 0C56.3518 0 55.7302 0.2574 55.2718 0.716143C54.8131 1.17448 54.5557 1.79614 54.5557 2.4443V8.55528L48.4447 8.55569C47.7961 8.55569 47.1745 8.81309 46.7161 9.27142C46.2578 9.72976 46 10.3517 46 11C46 11.6483 46.2578 12.2702 46.7161 12.7286C47.1745 13.1869 47.7961 13.4443 48.4447 13.4443H54.5557V19.5557C54.5557 20.2039 54.8131 20.8255 55.2718 21.2839C55.7302 21.7426 56.3518 22 57 22C57.6486 22 58.2702 21.7426 58.7286 21.2839C59.1869 20.8255 59.4447 20.2039 59.4447 19.5557V13.4447L65.5557 13.4443C66.2039 13.4443 66.8259 13.1869 67.2843 12.7286C67.7426 12.2702 68 11.6483 68 11C68 10.3517 67.7426 9.72977 67.2843 9.27143C66.8259 8.8131 66.204 8.5557 65.5557 8.5557H59.4447V2.4443C59.4447 1.79608 59.1869 1.17448 58.7286 0.716143C58.2702 0.257401 57.6486 0 57 0Z" fill="white"/>
</svg>
