<svg width="62" height="61" viewBox="0 0 62 61" fill="none" xmlns="http://www.w3.org/2000/svg">
<rect x="0.500488" width="61" height="61" rx="30.5" fill="#F3F3F3"/>
<path fill-rule="evenodd" clip-rule="evenodd" d="M42.0405 30.7615C42.0405 29.946 41.9673 29.1619 41.8314 28.4092H31.0005V32.8576H37.1896C36.923 34.2951 36.1128 35.513 34.8948 36.3285V39.214H38.6114C40.7859 37.2119 42.0405 34.2637 42.0405 30.7615Z" fill="#4285F4"/>
<path fill-rule="evenodd" clip-rule="evenodd" d="M31.0005 41.9998C34.1055 41.9998 36.7086 40.97 38.6114 39.2137L34.8948 36.3282C33.865 37.0182 32.5477 37.4259 31.0005 37.4259C28.0052 37.4259 25.47 35.403 24.5657 32.6848H20.7236V35.6644C22.6159 39.4228 26.505 41.9998 31.0005 41.9998Z" fill="#34A853"/>
<path fill-rule="evenodd" clip-rule="evenodd" d="M24.5657 32.685C24.3357 31.995 24.205 31.2579 24.205 30.5C24.205 29.742 24.3357 29.005 24.5657 28.315V25.3354H20.7237C19.9448 26.8879 19.5005 28.6443 19.5005 30.5C19.5005 32.3557 19.9448 34.112 20.7237 35.6645L24.5657 32.685Z" fill="#FBBC05"/>
<path fill-rule="evenodd" clip-rule="evenodd" d="M31.0005 23.5739C32.6889 23.5739 34.2048 24.1541 35.3966 25.2936L38.695 21.9952C36.7034 20.1395 34.1002 19 31.0005 19C26.505 19 22.6159 21.577 20.7236 25.3355L24.5657 28.315C25.47 25.5968 28.0052 23.5739 31.0005 23.5739Z" fill="#EA4335"/>
</svg>
