<svg width="104" height="72" viewBox="0 0 104 72" fill="none" xmlns="http://www.w3.org/2000/svg">
<g filter="url(#filter0_d_299_1425)">
<path d="M10 32C10 17.6406 21.6406 6 36 6H68C82.3594 6 94 17.6406 94 32C94 46.3594 82.3594 58 68 58H36C21.6406 58 10 46.3594 10 32Z" fill="white"/>
</g>
<path d="M61.8055 30.0415H61V30H52V34H57.6515C56.827 36.3285 54.6115 38 52 38C48.6865 38 46 35.3135 46 32C46 28.6865 48.6865 26 52 26C53.5295 26 54.921 26.577 55.9805 27.5195L58.809 24.691C57.023 23.0265 54.634 22 52 22C46.4775 22 42 26.4775 42 32C42 37.5225 46.4775 42 52 42C57.5225 42 62 37.5225 62 32C62 31.3295 61.931 30.675 61.8055 30.0415Z" fill="#FFC107"/>
<path d="M43.153 27.3455L46.4385 29.755C47.3275 27.554 49.4805 26 52 26C53.5295 26 54.921 26.577 55.9805 27.5195L58.809 24.691C57.023 23.0265 54.634 22 52 22C48.159 22 44.828 24.1685 43.153 27.3455Z" fill="#FF3D00"/>
<path d="M52 41.9999C54.583 41.9999 56.93 41.0114 58.7045 39.4039L55.6095 36.7849C54.5718 37.574 53.3038 38.0009 52 37.9999C49.399 37.9999 47.1905 36.3414 46.3585 34.0269L43.0975 36.5394C44.7525 39.7779 48.1135 41.9999 52 41.9999Z" fill="#4CAF50"/>
<path d="M61.8055 30.0415H61V30H52V34H57.6515C57.2571 35.1082 56.5467 36.0766 55.608 36.7855L55.6095 36.7845L58.7045 39.4035C58.4855 39.6025 62 37 62 32C62 31.3295 61.931 30.675 61.8055 30.0415Z" fill="#1976D2"/>
<defs>
<filter id="filter0_d_299_1425" x="0" y="0" width="104" height="72" filterUnits="userSpaceOnUse" color-interpolation-filters="sRGB">
<feFlood flood-opacity="0" result="BackgroundImageFix"/>
<feColorMatrix in="SourceAlpha" type="matrix" values="0 0 0 0 0 0 0 0 0 0 0 0 0 0 0 0 0 0 127 0" result="hardAlpha"/>
<feOffset dy="4"/>
<feGaussianBlur stdDeviation="5"/>
<feColorMatrix type="matrix" values="0 0 0 0 0 0 0 0 0 0 0 0 0 0 0 0 0 0 0.08 0"/>
<feBlend mode="normal" in2="BackgroundImageFix" result="effect1_dropShadow_299_1425"/>
<feBlend mode="normal" in="SourceGraphic" in2="effect1_dropShadow_299_1425" result="shape"/>
</filter>
</defs>
</svg>
