<svg width="267" height="457" viewBox="0 0 267 457" fill="none" xmlns="http://www.w3.org/2000/svg">
<path d="M41.6 64.8579L42.06 64.3979L42.9799 63.4779V62.5579L42.5201 62.0979L41.6 61.6379L40.6799 62.5579L39.76 63.018L41.6 64.8579ZM26.4201 31.2779H27.34L27.8 30.818L28.26 28.518L27.8 26.6779L26.4201 25.7579H25.5V26.218L25.96 27.5979L25.5 28.0579H24.5799L23.66 27.1379L22.74 24.8379L22.2799 24.3779L21.8201 24.8379V29.4379L22.74 30.3579L26.4201 31.2779ZM247.22 249.778V251.158L247.68 252.538L248.6 254.838V256.218L252.74 261.738L253.2 262.658L254.58 263.578L255.04 266.338L254.58 274.158V275.538L255.5 276.458L257.34 277.838L259.18 276.458V274.158L257.34 264.038L253.2 257.598L251.82 253.918L250.9 252.538L249.52 249.318L248.14 247.938L248.6 249.318V250.238L247.22 249.778ZM8.93997 86.018L8.47994 86.9379L8.93997 87.8579L10.3201 88.318L13.0799 88.7779L15.84 89.6979L20.44 91.9979L25.5 96.1379L26.8799 96.5979L27.8 97.518L29.1799 98.8979L31.0201 100.278L33.7799 100.738L32.86 98.8979L27.34 92.918L29.1799 93.3779L32.4 95.218L34.24 95.6779L30.1 91.9979L25.5 89.2379L20.44 87.3979L15.84 86.018H10.7799H8.93997ZM30.1 23.4579L31.94 24.8379H33.3201L35.6201 23.4579H36.54L37.9201 24.3779L39.76 24.8379H41.14L42.06 23.918L41.6 22.9979L40.2201 22.0779L38.3799 21.1579L37 20.2379L36.54 19.318V17.4779L36.0799 17.018H33.7799H33.3201L32.4 16.0979L31.94 14.718V13.3379V11.4979L32.4 10.118L32.86 8.73788V7.81797L31.4799 7.35794L28.7201 7.81797L27.8 10.118L27.34 12.8779L25.96 14.718L28.7201 20.2379L30.1 23.4579ZM266.54 328.438L265.16 324.298L264.7 322.458L265.16 294.858L262.4 284.738L260.56 281.978L260.1 279.678L259.64 278.758L258.72 277.838L258.26 277.378V277.838L258.72 278.758V279.678L257.8 280.598L257.34 281.978L256.88 283.818V285.658H255.96V283.818L255.04 279.218H254.12L253.2 280.598H252.28V279.678L253.66 278.758L252.74 277.838L252.28 277.378L251.82 276.918L251.36 275.998L250.9 275.078L251.36 274.158L252.28 273.698L252.74 272.778V272.318L252.28 271.398V270.938L253.2 268.178V267.718L250.9 262.198L250.44 261.278L247.68 259.438L246.3 258.978L246.76 260.818L245.84 261.738L245.38 260.818V259.898V259.438L245.84 258.518L244.46 256.218L243.08 254.838L239.86 252.078V250.698L238.94 249.778L237.56 249.318L236.18 248.858L235.26 250.238L233.88 250.698H232.5L231.12 250.238L232.04 247.478L233.42 246.098H235.26L237.1 247.018L238.48 248.398L241.24 252.078L242.62 252.998L245.38 252.078L244.92 249.778L243.08 247.018L238.02 241.958L236.64 240.118L235.72 237.818H234.8L232.5 238.278L230.2 235.518L228.82 231.378L229.74 228.618L230.2 228.158L230.66 227.698H231.12L230.2 226.318L227.9 224.478L226.98 223.098V221.718L227.44 220.798L227.9 219.878L227.44 218.498L226.98 218.958L225.6 219.418L225.14 219.878V219.418V218.958L224.68 218.498L224.22 218.038L224.68 217.578L224.22 216.658L223.76 217.118L222.84 217.578L222.38 218.038L221 214.818L220.08 213.438L218.7 212.058L217.78 210.218L216.86 206.078L215.94 204.238H215.02L214.1 206.998H212.26L210.42 205.618L209.5 203.318V202.858L208.58 202.398L208.12 201.938V201.018V200.558V200.098V198.718V195.038H209.04L210.88 200.098L212.26 205.618L214.56 202.858L213.64 197.338L210.88 187.678L210.42 185.838L209.5 182.158L208.58 177.558L207.2 177.098H205.82L204.44 176.178L203.98 174.798L203.52 170.658V169.738L204.9 170.198L206.28 173.418L207.66 174.338V171.118L205.82 165.138L204.9 160.538L203.98 158.698L202.6 157.318L201.22 156.398H199.84L198.46 156.858L195.24 158.238L196.62 160.998L194.78 162.378H189.26L186.5 161.458L184.66 159.618L183.28 157.318L181.44 155.478L179.14 157.318L177.3 157.778L176.84 156.858L178.22 155.018L180.06 154.098L181.9 154.558L183.74 155.938L185.58 157.318L186.5 155.478L186.04 154.098L185.12 153.178L184.66 151.798L185.58 149.958H186.96L187.88 151.338L187.42 153.178L190.18 152.718L189.72 149.958L186.96 144.438L186.5 144.898L184.66 145.358L185.58 143.978L186.96 143.518L187.88 142.598V140.298L186.96 138.458L183.74 134.778L184.2 133.858L183.28 133.398H182.82L182.36 133.858L181.9 134.778L180.06 128.798L178.68 125.578L175.92 124.198L174.54 122.818L172.24 116.838L170.4 115.458L168.1 114.998L166.72 113.618L163.04 107.178L158.9 102.118L157.98 103.958L156.6 106.258L155.22 107.638H153.38L151.54 106.258L152.46 104.878L153.84 103.498L152.46 102.578V100.278L148.32 96.1379L146.94 94.2979L148.78 95.218L152 96.1379L153.38 97.0579L154.76 98.8979L155.22 99.3579L156.14 98.8979L156.6 97.9779V97.0579L156.14 96.5979L153.84 95.218L151.54 91.9979L149.7 88.318L149.24 85.5579L148.78 86.018H148.32L147.86 86.4779L147.4 86.9379H146.48L146.02 84.1779L144.18 83.2579L142.34 82.7979L141.42 82.3379L141.88 80.4979H143.26L146.48 81.8779L140.96 70.8379L139.58 67.1579L138.66 66.6979L136.82 67.1579L136.36 68.0779L136.82 69.4579L137.74 70.8379L135.44 69.4579L129.46 63.9379L129 62.5579L129.92 62.0979L132.22 62.5579L133.14 63.018L134.52 64.3979L135.44 64.8579L136.82 63.9379L135.44 62.0979L132.68 59.7979L131.3 57.9579L130.38 56.5779L97.7201 30.3579L93.1201 27.5979L90.8201 25.7579L75.1799 7.81797L74.26 5.97786L73.34 2.29791L71.5 1.37786L69.2 0.917969L64.14 1.37786L60.9201 1.83788L58.6201 2.75794V4.59791L60.46 5.97786L67.36 7.35794L71.5 9.65794L79.7799 19.318L89.9 27.5979L94.04 29.8979V30.818L85.3 26.6779L81.6201 24.3779L67.8201 9.65794L66.44 8.73788H65.5201L64.14 9.19791H62.76L62.3 8.27786L61.84 7.81797L59.0799 6.89791H58.16L57.24 6.43788L56.7799 5.51797V3.21797L56.3201 1.83788H54.4799L49.8799 2.29791L40.6799 1.37786L38.3799 2.29791L33.7799 6.43788L31.0201 7.81797L31.94 9.19791L33.7799 11.4979L34.7 12.8779L35.16 14.2579V15.6379L35.6201 16.5579L37 17.4779V16.5579L37.9201 17.018L39.3 17.9379L42.06 18.8579L46.66 22.5379L52.1799 25.7579L54.94 27.1379L57.7 27.5979L56.3201 26.218L54.0201 24.3779L52.64 22.9979L55.4 23.918L60 27.5979L62.3 28.9779L63.2201 29.4379L64.14 29.8979L65.06 29.4379L65.9799 28.0579L65.06 26.6779L63.6799 25.7579L62.76 24.8379L62.3 22.0779H63.6799L65.9799 23.4579L73.34 26.6779L77.0201 28.9779L85.3 36.3379L86.2201 36.7979H89.9H90.36L91.74 37.718L92.2 37.2579L92.66 36.7979L93.5799 36.3379H95.8799H96.8L97.7201 36.7979L100.02 38.1779L100.94 38.6379L103.24 39.0979L106 40.4779L113.82 45.9979L108.3 45.0779L100.94 41.8579L94.5 40.018L91.74 39.5579L81.16 43.6979L75.1799 45.0779L72.8799 43.2379L73.8 42.318L73.34 41.3979L72.8799 40.4779L74.26 39.5579L73.8 38.1779L71.04 35.8779L69.2 34.9579L62.3 33.118L55.4 28.9779L51.7201 27.5979H48.04L49.8799 29.8979L58.6201 34.9579L60.9201 36.7979L62.76 38.6379L64.14 40.4779L65.06 42.318H63.6799L62.76 42.7779L61.84 43.2379L60.9201 43.6979L58.16 46.918L57.24 47.3779L54.94 47.8379L52.1799 48.7579L49.4201 50.1379L48.04 51.518V52.8979L48.5 55.6579L49.4201 58.418L50.8 59.7979L54.0201 61.6379L55.4 62.0979V62.5579L54.94 63.4779V70.3779L53.56 74.9779L49.8799 84.6379L48.96 88.7779L47.5799 91.5379L46.66 94.2979L45.2799 95.6779L41.6 97.518L34.7 103.498L33.7799 103.958L32.4 104.418L31.4799 104.878L31.94 106.258L32.4 107.178L32.86 108.558L33.3201 111.318V119.598V120.978L36.0799 128.338L35.16 139.838L34.24 142.138L33.7799 143.058L33.3201 143.518L31.94 147.658L30.56 149.498L28.7201 150.878L27.34 152.258L26.8799 154.558V159.618L26.4201 161.458L25.96 162.378L25.04 162.838L24.1201 164.218L23.2 175.718L22.2799 180.778L21.8201 183.078L21.36 184.458L19.9799 186.298L19.5201 187.218V188.598V189.058L19.9799 189.518L20.44 190.438V191.358V193.658V195.038L20.9 195.958L21.36 196.878L21.8201 197.798V199.178L17.6799 206.538L18.14 207.918L19.5201 208.838L20.9 210.678L22.2799 212.978L22.74 215.278L19.9799 217.118L14.46 216.658L10.7799 213.898L13.0799 208.838L10.3201 205.618V201.938L12.16 195.498V194.578V191.818V190.438L12.6201 189.978H13.0799L13.54 189.518L14.9201 187.218L16.3 183.998H14.9201L14 183.538L13.0799 182.618L12.6201 181.238L14.9201 177.098L16.76 172.958L13.0799 178.478L12.6201 179.858L12.16 182.158L10.7799 184.918L8.93997 187.218L7.1 188.598L7.56003 190.898L8.02006 197.798L7.56003 200.098L7.1 199.638H6.63997V203.318L9.4 216.658L11.24 221.258L12.6201 227.238L14 229.998L17.2201 244.718V248.858L17.6799 251.158L18.6 252.998L19.06 254.838L18.6 257.138L18.14 259.438V261.278L17.2201 260.818H16.76L16.3 261.278L17.2201 262.658L23.2 304.518L22.74 305.438L22.2799 306.358V307.278L22.74 308.198L23.66 308.658L25.04 309.118L25.5 309.578L25.96 310.958L26.4201 312.338V316.018H25.96L25.5 316.478V317.398H24.5799L24.1201 316.478L23.2 312.338L22.74 311.418L22.2799 310.498L21.8201 309.578V307.738L20.9 310.498L26.4201 330.278V331.658L25.96 333.038L24.5799 336.258V344.538L26.4201 354.198L38.84 386.398L39.76 392.838H39.3H38.84H38.3799V393.298L38.84 393.758L39.3 394.218L39.76 394.678H40.2201L42.06 402.038L44.36 405.718L45.2799 411.238L46.2 413.078V413.538V415.378V416.298L51.7201 427.798L53.1 429.638L53.56 430.098V431.018V431.478L54.0201 431.938L54.94 432.398L64.6 442.518L66.9 444.358L67.8201 443.438L69.66 444.358L72.4201 446.198L76.1 447.118L82.0799 449.418L82.54 449.878L83.46 450.798L83.9201 451.258H84.3799L84.84 450.798L85.3 450.338H85.76L86.6799 450.798L87.14 451.258L87.6 451.718L88.06 452.178L92.2 452.638H94.04L95.8799 451.258L96.8 452.638L97.26 454.018L98.1799 454.938L100.02 455.398L106.92 454.478L108.76 454.938L110.6 455.858L112.44 456.778L114.28 456.318L117.04 454.018L118.42 453.098L119.8 452.638L121.64 452.178L126.24 452.638L128.54 450.338L137.74 443.438L140.96 442.058L144.18 442.518L146.02 440.218L148.78 439.298L155.22 437.918L161.2 436.078L173.62 433.318L176.38 432.398L179.14 431.018L180.52 430.558L181.44 430.098L181.9 429.178L182.36 427.338L182.82 426.418L183.74 425.958L184.66 426.418V428.258L198.92 423.198L203.52 420.898L225.6 403.878L228.82 402.498L231.12 402.038L238.02 397.438L241.7 393.758L252.74 376.278L254.12 373.058L253.2 370.298L256.42 365.238L256.88 363.398L257.34 362.018L259.18 358.798L259.64 356.498V353.738L260.1 351.898L265.62 333.038L266.08 328.438H266.54ZM34.24 103.958L33.7799 103.038L33.3201 104.878L34.24 103.958ZM12.6201 38.6379L11.24 35.8779L10.7799 35.418H8.47994L6.63997 34.9579L6.17994 33.5779L5.26003 32.6579H4.33997L3.87994 34.0379V38.6379L5.26003 40.018L8.02006 40.9379H10.7799L12.6201 38.6379ZM2.03997 88.7779L0.660028 89.6979H2.03997L2.5 89.2379H4.8L4.33997 88.7779H2.03997Z" fill="#2E5F44"/>
</svg>
