<?xml version="1.0"?>
    
<!--********* Copyright (c) 2024 Pareto Softare, LLC DBA Simplemaps.com ***************************************
************* Free for Commercial Use, full terms at  https://simplemaps.com/resources/svg-license ************
************* Attribution is appreciated! https://simplemaps.com *******************************************-->

<svg baseprofile="tiny" fill="#2e5f44" height="1000" stroke="#ffffff" stroke-linecap="round" stroke-linejoin="round" stroke-width=".5" version="1.2" viewbox="0 0 1000 1000" width="1000" xmlns="http://www.w3.org/2000/svg">
 <g id="features">
  <path d="M131.6 121.5l9.5-9.4 9.4-9.4 9.5-9.3 9.4-9.4 7.4-3.8 6.5-3.4 6.4-3.2 6.4-3.2 9.1-3.4 7.6-2.8 7.1-2.7 7.7-2.9 8.5-3.2 7.7-2.9 6.5-2.5 1.7 3.1 6.5-3.6 7.3-4 2.1 2.4-3.5 7.3 9.3 0 7 2.1-4.5 11.6 3.7 6.9 4.5 8.1 0 0.1 0.2 0 8.2 2.9 0.5-2.9 0.1 0 0.5-3.9 2.6-1.9 3.6 0.3 0.3 5.5 7 0 6.1 0 0.1 1.7 1.3 2.2 0.1 1.8-0.3 1.9 0 1.6 0.6 1.3 1.7 1 3.6 3.2 2 1.3 2.1 0.5 0.4 0 13.6-0.1 3.3-0.4 1 0 0.9 0.2 1.7 0.8 1.2 0.2 17.4-0.4 14.6-0.3 0.8 0.2 1.4 0.9 0.5 0.1 0.3 0 18-0.1 5.6 1.5 6.6 3.4 3.9 0.9 0.9 0.7 1.4 2.4 0.7 0.5 1.9-0.1 0.7 0.2 0.6 0.8 0.4 0.9 0.5 2.1 0.3 0.5 0.4 0.1 0.6 0 0.6 0.2 5 3.2 9.1 5.9 9.1 5.9 10.7 6.8 7.6 4.9 8.6 5.6 9.6 6.2 8.9 5.7 9.4 6 2.8 1.9 1.8 1.7 2.4 3.8 1.4 1.7 1.2 0.7 2.8 0.9 2.1 1.8 1.2 0.2 2.9-0.7 3-0.2 9.9 1.1 10 1.1 5.2-0.4 4.8-2.1 0.1-0.6-0.1-0.8 0.2-0.8 0.9-0.3 0.5 0.2 1.8 1.4 0.7 0.9 0.2 0.8 0.4 0.5 1.3 0.4 1.2 0.1 0.5-0.1 1.4-0.5 0.1 0.3 0.1 0.5 0.5 0.3 5.5 0.4 0-0.6 0.1-1.3-0.1-0.6 2.6 3.3 1.4 1.5 1.8 0.9 9.2 2.5 7 1.9 2.4 0 3.9-0.8 1.6 0.2 1.4 0.6 1.4-0.1 5.4-1.1 0.9 0.2 1.2 0.6 8.4 3.9 3.7 0.7 3.5-0.1 3.7-2.1 0.6-0.3 1.2 0.1 0.4 0.9-0.8 1.8 11.6 0.3 2.9 1 0.8 1 0.5 1.3 0.7 1.3 1.5 1 3-0.2 1.6-2.5 2-6.2 2.4-2.9 6.2-5.6 7.3-6.8 1.8-2.3 1.6-2.9 2.6-6.9 1.8-4.9 1.9-2.3 8-3.9 8.1-3.9 9-4.4 4.3-2.1 0.4-0.5-0.1-0.6 0.1-0.4 0.9 0.1 0.3 0.2 0.3 0 0.2 0 9.5-3.3 7.4-2.6 0.5-0.4 0.5-1.6 0.6-0.5 12.1-4.6 9.8-3.8 7.8-3 5.9-3.9 2.1 2.7 5.6 3.9 2.3 2.6 1.6 2.9 0.9 0.9 1.7 0.9 4.5 1.5 1.5 0.9 2.5 2.3 6 8.4 4.1 3.3 4.6 1.8 4.9 0.6 9.5-0.6 10.5-0.6 4.7-1.3 2.5-0.1 7.5-1.9 1.4 0.1 2.5 1 1.4 0.3 1.3-0.3 4-2.3 4.4 1.5 4.1 2.2 4.2 0.8 4.6-2.6-7.8 11.2-7.9 11.3-7.8 11.2-7.9 11.3-4.8 6.9-4.9 6.9-4.8 7-4.8 6.9-7.7 7.6-7.7 7.6-7.7 7.7-7.7 7.6-3.2 3.1-1.3 2.6 0 5.1 0.1 12 0.2 12.6 0 7 0 9.9 0 10 0 10 0 9.9 0 11.7 0 11.7 0 11.7 0 11.7 0 11.7 0 11.7 0 1.6 0 10.1 0 11.7 0 11.7 0 11.7 0 11.7 0 11.6 0 11.7 0 11.7 0 11.7 0 11.7 0.1 7.7 0.1 6.3 0 6.3 0.2 10.2 0.1 10.1 0.1 10.2 0.2 10.1 0 6.6 0.1 6.6 0.1 7.1 2.4 3.1 2.4 3.1 2.4 3.1 2.3 3 4.7 6 4.8 6.2 5.1 6.7 4.3 5.5 4.6 5.9 4.8 6.3 4.7 6.1 4.7 6 3.6 4.7 1.2 2 0.3 1.8-0.3 5.9 0 1.8-0.1 0.1-7.1 7.3-3.4 5.1-0.4 1.7-2 1.2-5.4 4.9-3.3 4.1-1.9 1.1-1.5-1.7-1.7 0.7-1.6-0.2-1.1-1.1-0.1-2-1.9 1.9-0.3 2.3-0.9 2.1-2.7-0.2-3.7-0.9-0.8 0-1.1 0.7-1.9 2-2.5 1.1-1 1.3-1 1-1.5-0.1-1.2-0.6-0.9-0.6-0.6-0.9-0.4-1.4 0.1-1.4 0.9-2.5-0.1-1.2-0.2-1.3 0.4-1.1 1.4-2.1-3.3 2.5-0.4 11-2 2.5-1.7-1.3-1.8-5.7-1.7-1.4-0.9-0.5-0.9-1-0.9-0.4-1.1 1.4 0.6 1.4 0.3 1.2-0.3 1.2 1.6-0.7 1.2 0.4 0.8 1 0.3 1.5-0.2 0.7-0.9 0.5-0.2 0.5 0.3 0.9 0.7 0.2 0.7 0.2 0.3 0.6 0.1 6.8 0.6 3.6 1.2 2.4 0.8 0.2 1-0.1 1.2 0.1 1.2 0.8 0.9 1.3 0.1 1-1 2.5-2.3 2.8-2.1 0.4-0.3-1 3-1.6-1.6-0.5-1.3-0.9-2.2-2.4-0.4-0.7 0.1-0.5 0-0.4-1-0.4 0.1 0.2-0.6 0.3-1.4 0.2-2.3 1.3-2.1 2.5-2 1.8-1.9-1.1 0 0.8 0.3 0.8 0.5 0.7 0.7 0.3 0.5 0.3-0.2 0.6-0.6 1 0.6 1.4 2.6 1.7 0.7 1.3-1.1 2.2-2.6 2.5-2.9 2.1-4.3 1.8-5.8 6.8-3.2 1.3-2.9-0.6-2.8-1.3-2.9-0.7-3.1 0.3-9.5 3-3.8 2.8-2.4 0.7-2.7 1.8-4.7 3.7-1.1 1.2-0.8 1.3-1.8 3.9-2.8 3.6-0.4 1.5 0.2 0.8 1.4 1.8 0.1 0.6-0.3 1.5-0.1 0.8-1.8 6-0.2 3 2 1.5-0.5 2.5 1.1 1.1 1.9-0.2 2-1.5 0.1 1.1-0.8 1.1-3.2 3.1-2 2.6-0.5 1.2-0.4 4.7-0.6 1.6-3.2 4.6 0 1.2 1 3.4 0 1.8-0.6 1.4-0.9 1.4-1 1.1-1.4 0.9-4.5 2.1-1.2 0.8-2.3 2.6-1.2 1-1.7 0.3 0.7-1.6 1.1-3.6 0.1-1.2-1.7 0.4-0.7 0.9-0.1 1.2 0 1.3-0.1 0.9-0.6 2.3 0.2 0.5 0.4 0.5 0.1 0.6-1.6 2.7-1.9 5-2.5 4-1 5.4-1.1 2.2-1.2 1-0.8 0.2-2-0.9-0.4-0.2-1.3-1.5-0.4-0.1-2.5-0.2 0.4-0.8 0.1-0.4-1-0.7-0.7 1.7 0.2 1.4 1.1 0.9 1.9-0.1-1.1 1.4 0.4 1.1 1.3 0.4 3.3-1.3 1 0.7 0.6 1.4 0.2 1.4-0.2 3-7.5 20.8-2.4 2.3-2.7 0.5-1.9-1.4 0.1-3.2-2.1 1.1-0.6 0.7 0.3 1 0.7 0.9 0.3 0.9 0.4 0.9 1 0.8 2-0.1 1.1 0.5-0.3 1.6-2 2.2-0.3 0.6-0.2 0.9-0.7 1.1-0.8 1-0.8 0.5-0.9-0.5-0.7-2.2-0.7-0.5-0.6-1.1 0.2-2.1-0.2-1.3-1.6 1.3-2.4-1.3-1.1-0.2-1 0.9 0.9 0.9 1.1 0.4 2.5 0.6-0.7 1.7-0.9 0.8-2.9 0.7-1 0-1-0.1-0.9 0.1-0.3 0.6 0.1 2 0.1 0.9 0.4 1 1.4-1.8 3.1-0.2 3.3 0.9 1.8 1.7-0.4 2.3-4.6 8-3 7.7-3.1 11.5-1 2.7-0.9-1.3-0.8 0.1-0.8 0.8-0.7 1.1-0.2 0.5 0.1 1.2-0.3 0.5-1.3 1.2-0.3 0.4-3.2 9.7-0.6-1.8 0.3-2.7-0.3-1.3-1.2 0.9-0.7 1.3-0.6 1.5-0.7 1.4-0.5-0.1-0.6-0.3-0.6 0.1-0.3 1.3 0.2 0.8 1.5 2-1 1.3-3.1 0.5-3.6-0.9-2.2-2.8-0.1 0.5-0.6 1.4-2.7-0.8-2 1.9-1.8 2.7-1.8 1.4-0.4 0.1-0.3 0-0.3 0.1-0.3 0.4-8-5.7-7.9-5.8-8-5.7-8-5.8-8-5.8-8-5.7-8-5.8-7.9-5.7-8-5.8-0.7-0.5-7.3-5.3-8-5.7-8-5.8-8-5.8-7.9-5.7-8-5.8-8-5.7-5.1-3.7-1.3-1.7-0.9-1.9-1.7-5.8-0.7-1.4-1.3-1.2-1.7-0.9-2-0.5-2-0.2-4.5 0.3-0.2-1.3 0.7-1.8 0.4-1.6-0.5-0.7-1.5-0.2-0.7-0.7-0.2-1 0.3-1.1 0.4-1 0.5-0.9 1.4-1.5 2.1-1.6 2.2-1.2 1.7-0.2-0.1-1.6 0.3-1.3 1-0.8 1.7-0.2-1.9-11.4-0.2-1.2-1.7-10.2-1.4-2.3-7.7-4.3-12.9-7.2-7.2-4.1-20.1-11.2-20.1-11.2-20-11.2-20.1-11.2-20.1-11.2-20.1-11.3-20.1-11.2-20-11.2-20.1-11.2-15.8-8.9-4.3-2.3-20.1-11.3-20-11.2-5-2.7-15.1-8.5-20.1-11.2-20.1-11.2-5-2.8 0.1-0.4-0.2-0.2-0.5-0.2-0.2-0.8 0.7-0.9 1.3-0.3 1-0.3-0.5-1.5-1.2 0.8-1.5 0.4-1.4-0.4-1-1.3 2 0.4 0.7-0.6 0.5-2.4 4.3 2.7 1.5 0.4 0-0.5-0.9-1.9 0.3-2.2 1.2-3.9 0.9-1.3 1.9-1.1 1.2-1.4-0.7-2.3-0.9-0.5-4.3-1.5-3.9-2.6-0.6-0.3 0-1.7-0.4-2.6-0.9-1.9-1.9 0.2 1-8.4 0.6-1.2 0.7-0.3 1-0.7 0.8-0.9 0.4-0.8-0.3-1.2-0.7-0.9-0.9-0.8-0.7-0.9 0.5-0.3 1.4-0.1 0.7-0.2 1.5-1.6 0.1-0.3 3.2 0.3 1.2-0.3 1.1-1.3 1.2-6.3 1.4-2.6 3.1-0.7-0.2 0.3-0.4 0.9 2.7 0.1 3.7 3.4 2.5 1.1-0.3-0.7-0.3-0.9 0-0.7 0.6-0.3 0.7 0.4 0.7 1.6 0.5 0.6 1.5 0.2 1.2-0.6 0.5-1.3-0.6-1.6 1.4 0 1.1 0.3 0.9 0.5 0.8 0.9 0.5 0.8 0.9 1.9 0.1 0.8-0.4 0.6-0.7 0.9-0.1 0.8 1.5 0.3 1.2-0.4 2.3-1.8 1.1-0.4 0.2-0.3 2.7-1.6 0.2-0.9-0.1-1.3-0.5-1.1-4-1.7-0.7-2.5 0.2-2.8-0.2-1.9 1.7-0.9 2.9-0.7 2.7-0.5 1.6 0.1 0.9-0.6 0.8-0.1 0.6 0.4 0.7 0.6 1 0.7 0.8-0.1 0.9-0.2 0.7-0.1 4.3 1.2 1.8 0.2 5.8-0.6 1.3-0.4 0-1.5-0.5-1.8 0.1-1.3 2 0.4 1.1-0.4 2.5 1.8 1.8 0.6 0.9-0.3 0.5-0.7 0.3-0.7 0.2-0.3 0.5-0.3-0.7-0.8-1-0.7-0.3-0.1-3.2-6-0.3-1-1.3-0.5-1.3-1.1-1-1.2-0.6-1.1-0.7 0.7-1.1-2.2 0-1.4 0.4-1.3 0.1-2.2-1.3 0.5-4.5-0.2-0.5 0.9-1 0.9-1.1 0.8-2.2 0.6-2.2 1.3-3.3 0.5-1.5 0.6-1.4 1-1.2 1.1-1.4 0.9-1.3-0.1-2.8-1.1-1.4 0-3.8 1.3-2.7-0.3-1.7 0-1.3 0.9-0.4 1.4 0.5 1.5 1 0.9 1.5-0.6 0.9 2 0.5 2-0.1 1.8-1 1.6-4.8 3.7-0.6 1.4-0.5 1.6-1 1.6-1.4 0.5-1.6-1.4 0.1-0.4 0.4-0.8 0.3-0.9-0.2-1.1-0.5-0.6-0.8-0.6-1-0.5-0.9-0.3 1-1 0.3-0.9-0.5-0.6-1.4 0 1.6-3.2-0.4-1.2-1.9-1.4-3.1-1.4-1-1.2 0.3-1.9-2.8 0.2-3.4-0.5-2.6-1.5-0.8-2.7 0.5-0.5 2.3-1.1 0.7-0.3 1.4-0.3 0-0.5-0.9-0.5-1.5 0 1.7-2.5 0.4-1.4-1.1-0.6-2.7 0.1-1.6 0.4-1.1 0.9 0.6 0-0.3 0.8-0.2 0.7-0.1 0.7 0 0.9-0.8-0.4-0.2-0.5 0-0.5-0.3-0.5 0.3 0.2-1-1.4-0.5 0.1-1.1 0.1-0.6-0.4 0.9-1.2 0-0.5-0.5-0.4-0.6-0.3-1.7-0.1-0.4-0.3 0-2.8-0.6-2.7 0-0.9-0.3-1-0.8-0.6-0.8-0.6-0.7-0.6-0.3-0.8-0.2-0.9-0.1-1.8 0.3-1 0.7 0 0.8 0.2 0.7-0.3 0.6-1.2 0.2-1.5-0.1-2.7 0.2-1.6 0.9-3 0.2-1.1-0.1-0.7-0.6-1.2 4.2-5.6 3.4-2.7 0.8-1.2 0.2-1.9-1-3.4-0.1-1.7 0.4-0.9 1.6-1.9 0.7-1 0.2-0.8 2.3-9.2 0.1-0.3 1.6-2.9 2.7-1.9 3.8-1.4 3.1-1.5 2.2-2.4 1.5-4 0.4-2.2 0.2-1.2 0.8-0.8 6-3 1.6-1.4 1.3-3.8 2.7-3.5 2.4-6 0.6-1.9 0.1-4.2 0.4-2 0.8-1.9 0.9-1.7 2-1.9 1.5 0.4 1.5 0.9 1.9-0.4 0.1 0 0.5-0.9 0.5-0.8 0.1-2.1 0.7-1.7 4.5-1.1 3.2-3 1.9-1.2 7.7-0.8 3-1.4 1.2-3.8-1-3.7-1.6-3.8-0.2-1.8-0.1-1.5 5.5-4.6 2-7.5 2.1-3.2 1-0.5 1.9-0.4 1-0.4 0.9-0.9 0.7-1.1 3-6.3 0.5-2 0.1-18.2 0.4-1.1 1.8-2.3 0.3-1-0.4-1-2.2-2.1-0.9-0.9-0.6-1.7-0.4-1.8-0.1-2 0.1-1.8 0.9-4.2 0-1.8-4.2-10.2-1.7-4-3.6-8.8-0.7-3.6 0.9-2.4 1.7-1.3 1.8-1 1.4-1.7 0.3-2.1-0.9-1.6-2.5-2.6-0.6-1.8-0.5-4.7-0.9-1.3-0.9 0.2-0.6 0.7-0.8 0.7-1.3-0.1-0.8-0.8-4-8.2-1.4-8.2-1.9-5.9-0.4-0.8-0.6-0.8-0.5-0.1-2.7-1.3-0.1-0.2-0.2-0.2-0.2-0.3-0.2-0.3-0.3-0.2-0.3 0.1-0.4 0.8-0.2 0.1-0.4 0.2-1 0.9-0.6 0.2-1.3-0.4-0.9-0.8-1.4-2.3-2.9-3.3-1-1.6-2.7-14.2-1.1-2-1.9-1.3-4.4-1.2-2-1.3-1-2.1-0.9-11.5-1.3-3.8-0.6-1-0.9-0.9-0.8-1-0.2-1.1 0.3-1.1 0.9-2.3 0.2-0.9-0.4-1-1.2-2 0-1 0.5-0.9 0.8-0.3 1-0.3 0.9-0.4 1.7-2.8 0.9-3.7 0.2-7.6-0.6-1.9-1.4-0.9-1.7-0.5-1.8-1-3-3.2-1.7-0.7-2.5 0.7-1 1-0.4 0.9-0.4 0.4-1.1-0.7-1.4-3.7-2.1-2.7-0.1-0.5-1 0.1-1.8 0.5-1.9 0.1-1.6 0.5-0.8 0-1.1-0.4 0.6-0.8 1.8-1.2-1.1-1.4-1.5-0.5-0.2-0.5 4.5-2.4 1-1.2-0.2-1.3-2.1-1.1-1.8 0-3.7 1.3-1.5 0.3-2.2-0.8 0.2-1.6 1.1-2.2 1-2.4-0.2-1.5-1.1-1.1-1.3-0.9-1.2-1-0.7-1.5 0-1 0.5-0.8 0.3-1.3 0.3-2.2 0-1.1-0.3-1.1-0.8-1.1-1.1-0.9-0.8-1.1-0.1-1.2 0.1-2.9-1.1-2.2-2.1-1.7-2.8-1.3z m662 586.8l1.1-1.2 2.5 0.1 2.8 0.9 1.9 1.1 1.8 3-0.7 2-1.7 0.3-1.2-2.1 0 1.1-0.1 1-0.4 0.8-0.6 0.3-0.2 0.1-0.2 0.3-0.3 0.2-0.5 0.1-0.7-0.2-0.5-0.4-0.3-0.5-0.1-0.2-1.3 0.2-1.6 0.6-3.5 1.8-0.9-0.6-0.8 0.1-0.6 0.8-0.3 1.3 0.5 0.7 1 0.6 0.7 0.7-0.3 0.9-1.2 0-0.7-0.5-0.4-0.9-0.2-1.2-2.1 0.4 0-2.1 1.1-2.9 1.3-2.1 1.7-1 2.2-0.6 1.9-1 0.9-1.9z m-646.1-153.8l0.7-0.4 0.4-0.7 0.8-2.5 1.4 1.9 0.9 0.7 1 0 0.5-0.6 0.6-1.9 0.8-0.7-0.5 2.6-1.2 1.8-4 2.6-1.1-0.3-1.6-0.1-1.2-0.3 0-1.2 2.5-0.9z m-18.7 5.5l0.4-0.9 0.4-0.5 0.8-0.4 3-0.3 3.2-0.9 1.4 0.5 0.6 2.1 0.2 0.7 0.5 0.3 0.3 0.3-0.4 0.8-0.8 0.7-2.1 0.7-0.9 0.7-1.7-0.7-2.5-1.6-1.9-0.3-0.6-0.4 0.1-0.8z" id="KE" name="Kenya">
  </path>
 </g>
 <g id="points">
  <circle class="-4.192110202148614|34.34260288439534" cx="165.8" cy="909" id="0">
  </circle>
  <circle class="-0.3089581919908171|38.31229566304197" cx="537.1" cy="545.5" id="1">
  </circle>
  <circle class="4.544981820706429|41.48804988595928" cx="834.2" cy="91" id="2">
  </circle>
 </g>
 <g id="label_points">
  <circle class="Kenya" cx="499.3" cy="465.2" id="KE">
  </circle>
 </g>
</svg>