<svg width="94" height="69" viewBox="0 0 94 69" fill="none" xmlns="http://www.w3.org/2000/svg">
<g clip-path="url(#clip0_3726_7007)">
<path fill-rule="evenodd" clip-rule="evenodd" d="M5.03989 33.2547L2.87644 33.9323C2.42076 34.0751 1.92796 33.875 1.69977 33.4547L0.121923 30.5484C-0.159573 30.0299 0.0647276 29.3811 0.605932 29.1483L6.96122 26.4144L15.7269 13.7295V10.6196C15.7269 10.4705 15.7601 10.3233 15.824 10.1887L19.0766 3.3425C19.1963 3.09053 19.4155 2.9 19.6812 2.81675L22.2833 2.00168C22.6007 1.90226 22.9466 1.96742 23.2062 2.17563L24.4256 3.15342L26.6904 2.48581C26.9011 2.42367 27.1265 2.43276 27.3315 2.51181L28.9905 3.15146L31.8248 1.44687C32.0286 1.32432 32.2693 1.27855 32.5037 1.31772L35.769 1.86313L36.7114 0.446262C36.9054 0.154552 37.2374 -0.0142805 37.5869 0.000949517L48.8083 0.489963C49.0368 0.499913 49.255 0.588049 49.4265 0.739719L54.9559 5.62986C55.0412 5.70536 55.1131 5.795 55.1684 5.89475L56.5278 8.34739L61.5087 8.64096C61.7247 8.65369 61.9307 8.73636 62.0959 8.87644L64.21 10.6695C64.35 10.7883 64.4548 10.9433 64.5128 11.1176L66.3427 16.6201L69.7482 18.5493C69.9427 18.6595 70.0947 18.8318 70.1801 19.0387L71.9863 23.4135L77.0107 25.8553C77.2668 25.9797 77.4578 26.2076 77.536 26.4818L78.0941 28.4397L81.728 31.1715C82.0137 31.3862 82.1635 31.7374 82.1209 32.0927L81.6974 35.6305L84.3743 37.8899C84.6232 38.1 84.7546 38.4184 84.7264 38.7434L84.4342 42.1108L85.1807 43.1084C85.3558 43.3425 85.4201 43.6416 85.3568 43.9272L85.0316 45.3943C84.9811 45.6219 84.853 45.8248 84.6693 45.968L83.7531 46.6823L84.27 48.3403L85.827 49.6173C86.0592 49.8076 86.1938 50.0924 86.1938 50.393V51.3629L86.1951 51.3646L86.6898 50.7448C86.9683 50.3959 87.4437 50.2739 87.8552 50.4458L89.8068 51.2608C90.0391 51.3579 90.2264 51.5391 90.3312 51.7684L92.063 55.5556L93.7634 57.5698C93.9671 57.8111 94.0453 58.1346 93.9744 58.4426L93.0599 62.4143L93.9536 65.2507C94.0448 65.5403 94.0001 65.8558 93.832 66.1085L93.1815 67.0865C92.9018 67.5071 92.3534 67.653 91.9023 67.427L90.928 66.9388L86.5668 67.9939C86.288 68.0613 85.9937 68.0055 85.7587 67.8407L84.6204 67.042L83.8521 67.427C83.6385 67.534 83.3939 67.5609 83.1624 67.5029L82.2105 67.2644L78.7948 68.9018C78.3707 69.1051 77.8627 68.9849 77.574 68.613L76.8355 67.6612L75.5159 67.9919C75.2578 68.0566 74.9845 68.0155 74.7567 67.8777L71.3854 65.8381L70.9633 66.2612C70.7411 66.4839 70.4273 66.589 70.1162 66.5449L67.8151 66.219C67.3505 66.1531 66.9941 65.7723 66.9581 65.3033L66.8594 64.0184L61.4435 63.4577L36.4944 63.2964L29.5656 67.0844C29.3837 67.1839 29.1756 67.2242 28.9699 67.1999L23.5698 66.5632L21.5566 66.8514L19.0793 67.9378C18.9529 67.9933 18.8164 68.0218 18.6784 68.0218H13.6369C13.3283 68.0218 13.0371 67.879 12.8476 67.6349L11.7092 66.1678C11.4449 65.8273 11.4277 65.3555 11.6665 64.9966L12.0013 64.4933C11.9091 64.3601 11.8476 64.2019 11.8293 64.0273L11.504 60.9303C11.4951 60.8455 11.4971 60.76 11.5097 60.6758L12.1603 56.3561C12.1835 56.2018 12.2423 56.0552 12.3321 55.9277L13.3079 54.5421C13.4952 54.276 13.7999 54.1179 14.1248 54.1179H26.1352V52.186C26.1352 51.6324 26.5829 51.1837 27.1352 51.1837H30.2476L30.9715 50.7C31.2214 50.533 31.5331 50.4875 31.8202 50.576L33.6138 51.1291L34.675 50.7424L35.3193 49.1925C35.3782 49.0509 35.4687 48.9247 35.5839 48.8237L36.8849 47.6826C37.2811 47.3351 37.8783 47.355 38.2505 47.7281L40.0352 49.5169L42.7385 50.4201C42.8331 50.4517 42.9224 50.4973 43.0035 50.5554L43.8812 51.1837H45.187C45.3481 51.1837 45.5068 51.2228 45.6496 51.2975L47.5198 52.2755L47.6819 52.3814L48.6278 53.1397H51.157L51.5106 52.6081C51.6486 52.4007 51.8588 52.2522 52.1002 52.1917L54.0517 51.7027C54.131 51.6829 54.2125 51.6727 54.2943 51.6727H55.8542L55.982 51.4679L54.6892 48.9704L52.108 49.2168L51.0496 50.145C50.8673 50.3049 50.6333 50.393 50.3911 50.393H48.7648C48.5674 50.393 48.3744 50.3344 48.2101 50.2246L46.5026 49.0836C46.3956 49.0121 46.3034 48.9207 46.231 48.8143L45.4105 47.608L43.6558 48.0771C43.4014 48.1451 43.1305 48.1098 42.9019 47.9789L41.7636 47.3269C41.5499 47.2045 41.3888 47.0075 41.311 46.7735L40.8559 45.4051L38.3489 45.0461L35.855 46.2224C35.5276 46.3768 35.1425 46.342 34.848 46.1312L34.3053 45.7425L33.3393 46.4687V47.4345C33.3393 47.9881 32.8916 48.4369 32.3393 48.4369H15.7511C15.4168 48.4369 15.1045 48.2694 14.9191 47.9906L13.9433 46.5235C13.7721 46.2662 13.7291 45.944 13.8267 45.6506L13.8855 45.4737C13.5849 45.3993 13.3197 45.1866 13.1944 44.8678L11.8218 42.3769L10.872 41.5609C10.7571 41.4622 10.666 41.3386 10.6057 41.1996L9.10318 37.7358L8.06543 37.0858C7.94175 37.0083 7.83648 36.9046 7.75699 36.7821L5.76349 33.708L5.03989 33.2547Z" fill="#2E5F44"/>
</g>
<defs>
<clipPath id="clip0_3726_7007">
<rect width="94" height="69" fill="white"/>
</clipPath>
</defs>
</svg>
