<svg width="24" height="24" viewBox="0 0 24 24" fill="none" xmlns="http://www.w3.org/2000/svg">
<path d="M4.09507 15.2568C2.30391 15.2568 0.84668 16.7141 0.84668 18.5052C0.84668 20.2964 2.30391 21.7536 4.09507 21.7536C5.88623 21.7536 7.34345 20.2964 7.34345 18.5052C7.34345 16.7141 5.88623 15.2568 4.09507 15.2568ZM4.09507 20.9415C2.75149 20.9415 1.65878 19.8488 1.65878 18.5052C1.65878 17.1616 2.75149 16.0689 4.09507 16.0689C5.43864 16.0689 6.53136 17.1616 6.53136 18.5052C6.53136 19.8488 5.43864 20.9415 4.09507 20.9415Z" fill="#D29434"/>
<path d="M4.09505 14.4449C6.05586 14.4449 7.69635 15.8422 8.07358 17.6933H11.4039V15.6631H9.37367C8.25414 15.6631 7.34343 14.7524 7.34343 13.6328V13.2268C7.34343 12.7789 7.70761 12.4147 8.15553 12.4147H11.4039V12.3989C11.4039 11.5109 10.6836 10.7905 9.79513 10.7905H7.9719C7.56749 10.7905 7.17814 10.6382 6.88082 10.3638C6.29439 9.82253 5.70815 9.28126 5.1214 8.73998C3.53799 7.27784 2.36282 5.91797 0.0344238 5.91797V17.6934H0.116358C0.493583 15.8422 2.13407 14.445 4.09489 14.445L4.09505 14.4449ZM0.846659 8.35422L4.10029 10.7901C4.10029 10.7901 4.09866 10.7905 4.09503 10.7905H0.846646L0.846659 8.35422Z" fill="#D29434"/>
<path d="M23.9913 17.2876C23.9913 15.942 22.9006 14.8513 21.555 14.8513H19.5248C21.7675 14.8513 23.9913 13.0335 23.9913 10.7908C23.9913 9.52349 23.4107 8.39185 22.5011 7.64718C21.5521 6.87044 20.1119 7.27195 19.6259 8.39802C19.6247 8.40092 19.6239 8.40418 19.6227 8.4069C19.3696 8.35379 19.1021 8.33947 18.8264 8.37156C17.7552 8.49627 16.8685 9.35094 16.71 10.4176C16.596 11.1858 16.8413 11.8993 17.3028 12.415H16.4794C15.4705 12.415 14.6522 13.2333 14.6522 14.2422C14.6522 15.2512 15.4705 16.0694 16.4794 16.0694H17.4946C17.9432 16.0694 18.3067 16.4329 18.3067 16.8815C18.3067 17.3302 17.9432 17.6936 17.4946 17.6936H13.4341V19.3178H21.9611C23.0823 19.3178 23.9913 18.4087 23.9913 17.2876Z" fill="#D29434"/>
<path d="M16.6899 6.25165C16.6888 6.27612 16.6827 6.29914 16.6827 6.32397C16.6827 7.2209 17.41 7.94817 18.3069 7.94817C19.2038 7.94817 19.9311 7.2209 19.9311 6.32397C19.9311 5.42705 19.2038 4.69978 18.3069 4.69978C18.282 4.69978 18.259 4.70594 18.2345 4.70703C18.0689 4.23119 17.6211 3.8877 17.0888 3.8877C16.4159 3.8877 15.8706 4.43296 15.8706 5.10584C15.8706 5.63825 16.2141 6.08598 16.6899 6.25165Z" fill="#D29434"/>
<path d="M21.5551 3.07577C21.5551 3.52424 21.1915 3.88787 20.743 3.88787C20.2945 3.88787 19.9309 3.52424 19.9309 3.07577C19.9309 2.6273 20.2945 2.26367 20.743 2.26367C21.1915 2.26367 21.5551 2.6273 21.5551 3.07577Z" fill="#D29434"/>
<path d="M2.5944 17.8877C2.51554 18.0786 2.47095 18.2869 2.47095 18.5056C2.47095 18.7159 2.51445 18.9157 2.58714 19.1L3.4114 18.5004L2.5944 17.8877Z" fill="#D29434"/>
<path d="M8.15552 13.6326C8.15552 14.3042 8.70204 14.8508 9.37366 14.8508H11.4039V13.2266H8.15552V13.6326Z" fill="#D29434"/>
<path d="M5.12102 17.2565C4.84059 17.0253 4.48601 16.8809 4.09504 16.8809C3.71256 16.8809 3.3649 17.0194 3.08716 17.2414L4.09866 18.0004L5.12102 17.2565Z" fill="#D29434"/>
<path d="M4.77856 18.5105L5.59591 19.1232C5.67476 18.9326 5.71935 18.7244 5.71935 18.5055C5.71935 18.2953 5.67585 18.0955 5.60316 17.9111L4.77856 18.5105Z" fill="#D29434"/>
<path d="M3.06909 19.7547C3.34952 19.9858 3.7041 20.1303 4.09507 20.1303C4.47755 20.1303 4.82522 19.9918 5.10295 19.7697L4.09145 19.0107L3.06909 19.7547Z" fill="#D29434"/>
<path d="M8.15542 18.5057C8.15542 18.7837 8.12696 19.0555 8.07349 19.3178H11.8099V18.0996H8.13479C8.1482 18.2332 8.15542 18.3684 8.15542 18.5057Z" fill="#D29434"/>
</svg>
