<svg width="24" height="24" viewBox="0 0 24 24" fill="none" xmlns="http://www.w3.org/2000/svg">
<circle cx="12" cy="12" r="12" fill="#E91C1C"/>
<path d="M17.6934 14.2865L13.9601 7.5665C13.4584 6.66234 12.7643 6.1665 12.0001 6.1665C11.2359 6.1665 10.5418 6.66234 10.0401 7.5665L6.30678 14.2865C5.83428 15.144 5.78178 15.9665 6.16094 16.614C6.54011 17.2615 7.28678 17.6173 8.26678 17.6173H15.7334C16.7134 17.6173 17.4601 17.2615 17.8393 16.614C18.2184 15.9665 18.1659 15.1382 17.6934 14.2865ZM11.5626 10.2498C11.5626 10.0107 11.7609 9.81234 12.0001 9.81234C12.2393 9.81234 12.4376 10.0107 12.4376 10.2498V13.1665C12.4376 13.4057 12.2393 13.604 12.0001 13.604C11.7609 13.604 11.5626 13.4057 11.5626 13.1665V10.2498ZM12.4143 15.3307C12.3851 15.354 12.3559 15.3773 12.3268 15.4007C12.2918 15.424 12.2568 15.4415 12.2218 15.4532C12.1868 15.4707 12.1518 15.4823 12.1109 15.4882C12.0759 15.494 12.0351 15.4998 12.0001 15.4998C11.9651 15.4998 11.9243 15.494 11.8834 15.4882C11.8484 15.4823 11.8134 15.4707 11.7784 15.4532C11.7434 15.4415 11.7084 15.424 11.6734 15.4007C11.6443 15.3773 11.6151 15.354 11.5859 15.3307C11.4809 15.2198 11.4168 15.0682 11.4168 14.9165C11.4168 14.7648 11.4809 14.6132 11.5859 14.5023C11.6151 14.479 11.6443 14.4557 11.6734 14.4323C11.7084 14.409 11.7434 14.3915 11.7784 14.3798C11.8134 14.3623 11.8484 14.3507 11.8834 14.3448C11.9593 14.3273 12.0409 14.3273 12.1109 14.3448C12.1518 14.3507 12.1868 14.3623 12.2218 14.3798C12.2568 14.3915 12.2918 14.409 12.3268 14.4323C12.3559 14.4557 12.3851 14.479 12.4143 14.5023C12.5193 14.6132 12.5834 14.7648 12.5834 14.9165C12.5834 15.0682 12.5193 15.2198 12.4143 15.3307Z" fill="white"/>
</svg>
