<svg width="74" height="74" viewBox="0 0 74 74" fill="none" xmlns="http://www.w3.org/2000/svg">
<path d="M54.9823 37.4065C54.7071 31.4333 51.2591 26.2894 46.2819 23.6235C45.8892 23.4096 45.485 23.2134 45.0723 23.0347C43.0566 22.1587 40.8332 21.6724 38.4956 21.6724C29.7153 21.6724 22.548 28.5308 22.0348 37.1846L22.0411 37.184V37.2131C22.0411 37.5324 22.0235 39.0804 22.0235 39.0804L19.0761 47.1847C18.7861 47.9879 19.377 48.7793 20.2309 48.7793H22.0073L21.994 58.0999C21.994 59.9119 23.4627 61.4981 25.2747 61.4981H31.4357V69.7907C31.4357 71.135 32.492 72.1934 33.8363 72.1934H48.93C50.2743 72.1934 51.2364 71.135 51.2364 69.7907V52.6265C51.2364 50.2624 51.9302 47.9541 53.0344 45.8634C54.1884 43.6794 54.8996 41.2053 54.9623 38.5782C54.9652 38.4464 54.9837 38.3117 54.9837 38.1771C54.9838 37.919 54.9941 37.6613 54.9823 37.4065ZM44.1709 39.3848H32.2349C29.2454 39.3848 26.8221 36.9972 26.8221 34.0074C26.8221 31.0176 29.2456 28.6122 32.2349 28.6122C32.7453 28.6122 33.2368 28.697 33.7045 28.829C34.4819 26.7922 36.4483 25.3475 38.758 25.3475C40.9977 25.3475 42.9195 26.7103 43.7426 28.6496C43.8843 28.6386 44.0264 28.6291 44.1709 28.6291C47.1607 28.6291 49.5843 31.0173 49.5843 34.0069C49.5843 36.9966 47.1607 39.3848 44.1709 39.3848Z" fill="#2E5F44"/>
<path d="M47.1307 16.5491H48.3458V17.6673C48.3458 18.161 48.647 18.5617 49.1407 18.5617C49.6344 18.5617 49.9356 18.1612 49.9356 17.6673V16.5491H51.2715C51.7652 16.5491 52.1659 16.1033 52.1659 15.6096C52.1659 15.1159 51.7654 14.6702 51.2715 14.6702H49.9356V13.5262C49.9356 13.0322 49.6344 12.6318 49.1407 12.6318C48.647 12.6318 48.3458 13.0322 48.3458 13.5262V14.6702H47.1307C46.6367 14.6702 46.2363 15.1159 46.2363 15.6096C46.2363 16.1033 46.6367 16.5491 47.1307 16.5491Z" fill="#2E5F44"/>
<path d="M27.2073 5.85347H28.1114V7.03024C28.1114 7.52396 28.6294 7.9246 29.1231 7.9246C29.6168 7.9246 30.1348 7.52411 30.1348 7.03024V5.85347H31.3485C31.8422 5.85347 32.2428 5.40773 32.2428 4.91402C32.2428 4.4203 31.8423 3.97456 31.3485 3.97456H30.1348V2.88899C30.1348 2.39527 29.6168 1.99463 29.1231 1.99463C28.6294 1.99463 28.1114 2.39513 28.1114 2.88899V3.97456H27.2073C26.7133 3.97456 26.313 4.4203 26.313 4.91402C26.313 5.40773 26.7133 5.85347 27.2073 5.85347Z" fill="#2E5F44"/>
<path d="M33.3145 31.8691H29.4121V35.7715H33.3145V31.8691Z" fill="#2E5F44"/>
<path d="M35.9521 35.4823H40.832L38.3918 31.7612L35.9521 35.4823Z" fill="#2E5F44"/>
<path d="M45.253 35.7955C46.3849 35.7955 47.3026 34.8778 47.3026 33.7459C47.3026 32.6139 46.3849 31.6963 45.253 31.6963C44.121 31.6963 43.2034 32.6139 43.2034 33.7459C43.2034 34.8778 44.121 35.7955 45.253 35.7955Z" fill="#2E5F44"/>
<path d="M37.5414 18.2268C37.6888 18.3678 37.8779 18.4377 38.0668 18.4377C38.2563 18.4377 38.4453 18.3672 38.5925 18.2265L41.4078 15.537C41.6338 15.3213 41.7051 15.0719 41.5884 14.7811C41.4724 14.4908 41.1949 14.3809 40.8821 14.3809H38.958L38.9479 8.54743C38.947 8.054 38.5468 7.44336 38.0535 7.44336C38.0529 7.44336 38.0526 7.44336 38.0518 7.44336C37.558 7.87695 37.1583 8.05646 37.1591 8.55047L37.1693 14.3809H35.2513C34.9386 14.3809 34.6611 14.4908 34.5447 14.7814C34.4284 15.0719 34.4993 15.3599 34.7254 15.5763L37.5414 18.2268Z" fill="#2E5F44"/>
<path d="M37.9395 5.85405C38.4332 5.85405 38.9512 5.4537 38.9512 4.95969V2.8387C38.9512 2.34498 38.4332 1.94434 37.9395 1.94434C37.4457 1.94434 36.9277 2.34483 36.9277 2.8387V4.95984C36.9277 5.4537 37.4457 5.85405 37.9395 5.85405Z" fill="#2E5F44"/>
</svg>
