<svg width="16" height="24" viewBox="0 0 16 24" fill="none" xmlns="http://www.w3.org/2000/svg">
<path d="M10.3354 5.25336C10.2486 5.04768 10.3308 4.81054 10.5264 4.70187C10.8406 4.52733 11.4754 4.21362 12.2048 4.0584V3.48826C11.8846 3.50611 11.0254 3.70383 9.72061 5.11163C9.62182 5.2182 9.48411 5.27644 9.34397 5.27644C9.29352 5.27644 9.24291 5.26881 9.1936 5.25324C8.94591 5.17522 8.79765 4.9238 8.84875 4.66832C8.96619 4.08162 9.30357 2.76694 10.0886 1.76109C9.87323 1.70253 9.65018 1.65711 9.42262 1.62402C9.29934 1.76579 9.16163 1.9061 9.02489 2.04496C8.61759 2.45842 8.19668 2.88584 8.21159 3.27675C8.21516 3.3671 8.15433 3.44739 8.06658 3.46897C8.05149 3.4727 8.03624 3.47432 8.02148 3.47432C7.94914 3.47432 7.88134 3.4328 7.84938 3.36499C7.64955 2.94098 7.59245 2.26604 7.68864 1.63391C6.84905 1.76497 6.09222 2.07316 5.47291 2.53724C6.53229 3.18897 7.67942 4.25645 8.10031 5.20973C8.18661 5.40487 8.17412 5.60844 8.06674 5.75408C7.96763 5.88904 7.80558 5.95571 7.61515 5.93283C7.54265 5.92472 7.47614 5.91888 7.40672 5.91223L7.82716 6.54291L8.43122 5.63813C8.46658 5.58541 8.52595 5.55362 8.58953 5.55362H8.5897C8.65328 5.55362 8.71265 5.58557 8.74785 5.63845L9.34963 6.54245L9.9524 5.63816C9.99879 5.56825 10.0859 5.53711 10.1659 5.5616C10.2462 5.58593 10.301 5.66006 10.301 5.74376V17.3134C11.1373 17.8829 11.6332 18.8153 11.6332 19.8279C11.6332 21.5069 10.2671 22.8732 8.58792 22.8732C6.9089 22.8732 5.54265 21.5071 5.54265 19.8279C5.54265 18.8153 6.03867 17.8827 6.87485 17.3134L6.8755 5.86999C6.01905 5.82425 5.42815 5.89935 4.97217 6.03349V22.0666C4.97217 22.1716 5.01824 22.2752 5.09869 22.3512C6.92221 24.0759 10.2486 24.0761 12.0774 22.351C12.1583 22.2751 12.2045 22.1711 12.2045 22.066L12.2047 5.7891C11.8574 5.65722 11.3756 5.54303 10.7223 5.51983C10.5526 5.51351 10.4008 5.40872 10.3354 5.25349L10.3354 5.25336Z" fill="#D29434"/>
<path d="M9.50809 6.99136C9.47273 7.04424 9.41337 7.07604 9.34978 7.07604C9.28603 7.07604 9.22667 7.04408 9.19147 6.9912L8.58969 6.08691L7.98563 6.99153C7.95027 7.04425 7.8909 7.07604 7.82731 7.07604C7.76356 7.07604 7.70436 7.04425 7.669 6.99137L7.25618 6.3724V17.4159C7.25618 17.4811 7.22261 17.542 7.16762 17.5767C6.38886 18.0694 5.92383 18.911 5.92383 19.8278C5.92383 21.297 7.11912 22.4923 8.58839 22.4923C10.0577 22.4923 11.253 21.297 11.253 19.8278C11.253 18.911 10.7881 18.0693 10.0092 17.5767C9.95418 17.5418 9.92076 17.4811 9.92076 17.4158V6.37224L9.50809 6.99136ZM10.3013 19.8275C10.3013 20.7902 9.50714 21.5675 8.53828 21.5396C7.64712 21.5141 6.9042 20.773 6.87633 19.882C6.85233 19.1128 7.33634 18.4551 8.01731 18.214L8.01747 7.83697C8.01747 7.73187 8.10279 7.64671 8.20774 7.64671H8.96897C9.07408 7.64671 9.15924 7.73203 9.15924 7.83697V18.214C9.8243 18.4494 10.3013 19.0818 10.3013 19.8273L10.3013 19.8275Z" fill="#D29434"/>
<path d="M4.97192 4.55966C5.26876 4.58172 5.5338 4.61935 5.75051 4.65877C5.5291 4.49932 5.25853 4.38447 4.97192 4.29883V4.55966Z" fill="#D29434"/>
<path d="M2.63487 6.70281C3.06959 6.57986 3.37858 6.39786 3.70625 6.20563C4.4772 5.75193 5.27414 5.28316 7.65858 5.55453C7.68632 5.55745 7.73806 5.55858 7.76044 5.52825C7.7791 5.50294 7.78818 5.44455 7.75234 5.36328C7.33968 4.42897 6.10903 3.32533 5.06003 2.7326C5.05825 2.73179 5.05695 2.73066 5.05549 2.73001C4.78866 2.57948 4.53319 2.46058 4.30659 2.38791C3.47319 2.18402 3.1152 2.40511 2.97746 2.5558C2.83553 2.71152 2.79563 2.93487 2.87089 3.15355C2.96189 3.41714 3.19012 3.60368 3.48143 3.6528L3.62207 3.66967C4.53902 3.77948 5.92524 3.94542 6.46959 4.88718C6.50868 4.95482 6.50235 5.03965 6.45353 5.10064C6.40454 5.16196 6.3236 5.18693 6.24866 5.16422C6.2352 5.16001 5.45238 4.92643 4.44769 4.92643C3.68857 4.92643 2.80227 5.0596 2.02497 5.52596C1.65173 5.75386 1.59967 6.11674 1.71385 6.37543C1.82189 6.61939 2.12764 6.85135 2.63487 6.70277L2.63487 6.70281Z" fill="#D29434"/>
<path d="M8.75367 1.77718C9.18399 1.34034 9.59031 0.927711 9.438 0.613659C9.40248 0.540343 9.33062 0.479513 9.24059 0.445936C9.14133 0.409278 9.04806 0.390625 8.9603 0.390625C8.78463 0.390625 8.6307 0.464589 8.49398 0.613173C8.11279 1.02794 7.96504 1.9173 8.0419 2.6057C8.22081 2.31778 8.48974 2.04498 8.75367 1.77718Z" fill="#D29434"/>
<path d="M9.30836 4.88916C9.35411 4.90376 9.40682 4.88932 9.44137 4.85185C11.189 2.96671 12.2607 3.08771 12.4247 3.12014C13.5929 3.23872 14.1989 2.69485 14.2678 2.13684C14.3319 1.61744 13.9436 0.99345 12.9394 0.851019C12.832 0.840152 12.7272 0.834961 12.6255 0.834961C10.1999 0.834961 9.41058 3.80058 9.22226 4.7417C9.20945 4.80626 9.24624 4.86953 9.30836 4.88916Z" fill="#D29434"/>
<path d="M14.8199 5.26404C13.6585 3.58083 11.3812 4.66276 10.7111 5.03452C10.6851 5.04896 10.6747 5.07864 10.6858 5.10557C10.6942 5.12536 10.7137 5.13849 10.736 5.13947C11.5121 5.16704 12.0709 5.31546 12.4661 5.484C12.4682 5.48481 12.4702 5.48578 12.4723 5.48643C13.0457 5.73217 13.2687 6.01977 13.2837 6.03971C13.7886 6.77822 14.3914 6.86501 14.7398 6.63613C15.0619 6.42428 15.2245 5.90477 14.8199 5.26404Z" fill="#D29434"/>
<path d="M15.4399 3.55501C15.4399 3.71268 15.312 3.8405 15.1544 3.8405C14.9967 3.8405 14.8689 3.71268 14.8689 3.55501C14.8689 3.39735 14.9967 3.26953 15.1544 3.26953C15.312 3.26953 15.4399 3.39735 15.4399 3.55501Z" fill="#D29434"/>
<path d="M5.16244 1.17574C5.16244 1.42943 4.78174 1.42943 4.78174 1.17574C4.78174 0.921888 5.16244 0.921888 5.16244 1.17574Z" fill="#D29434"/>
<path d="M1.54615 3.74528C1.54615 4.00805 1.33317 4.2212 1.0704 4.2212C0.807625 4.2212 0.594482 4.00806 0.594482 3.74528C0.594482 3.4825 0.807621 3.26953 1.0704 3.26953C1.33318 3.26953 1.54615 3.48251 1.54615 3.74528Z" fill="#D29434"/>
<path d="M3.62065 16.2115C3.72593 16.2115 3.81092 16.1265 3.81092 16.0213C3.81092 15.7218 3.69592 15.5622 3.60362 15.4339C3.52495 15.3246 3.46818 15.2457 3.46818 15.0689C3.46818 14.8921 3.52511 14.8131 3.60362 14.704C3.69592 14.5757 3.81092 14.416 3.81092 14.1166C3.81092 13.8173 3.69592 13.6577 3.60362 13.5296C3.52495 13.4202 3.46818 13.3416 3.46818 13.1649C3.46818 12.9886 3.52511 12.9099 3.60362 12.8008C3.69592 12.6725 3.81092 12.5132 3.81092 12.2141C3.81092 11.9148 3.69592 11.7553 3.60362 11.627C3.52495 11.518 3.46818 11.4392 3.46818 11.2625C3.46818 11.0862 3.52511 11.0076 3.60362 10.8984C3.69592 10.7701 3.81092 10.6106 3.81092 10.3114C3.81092 10.2061 3.72592 10.1211 3.62065 10.1211C3.51539 10.1211 3.43039 10.2061 3.43039 10.3114C3.43039 10.4878 3.37345 10.5665 3.29495 10.6757C3.20265 10.804 3.08765 10.9634 3.08765 11.2624C3.08765 11.5618 3.20265 11.7213 3.29495 11.8496C3.37362 11.9586 3.43039 12.0374 3.43039 12.2139C3.43039 12.3902 3.37345 12.4689 3.29495 12.578C3.20265 12.7063 3.08765 12.8656 3.08765 13.1648C3.08765 13.464 3.20265 13.6236 3.29495 13.7518C3.37362 13.8611 3.43039 13.9398 3.43039 14.1164C3.43039 14.2932 3.37345 14.3722 3.29495 14.4814C3.20265 14.6097 3.08765 14.7693 3.08765 15.0688C3.08765 15.3682 3.20265 15.5278 3.29495 15.6561C3.37362 15.7655 3.43039 15.8443 3.43039 16.0211C3.43023 16.1264 3.51555 16.2115 3.62065 16.2115Z" fill="#D29434"/>
<path d="M3.82993 17.1637C3.83025 17.0585 3.74542 16.973 3.64031 16.9727H3.6395C3.53455 16.9727 3.44955 17.0573 3.44923 17.1623C3.44907 17.195 3.44826 17.9704 3.65004 18.5571C3.67729 18.6359 3.75093 18.6856 3.82993 18.6856C3.85036 18.6856 3.87145 18.6822 3.89173 18.675C3.991 18.641 4.04404 18.5326 4.00965 18.4332C3.8296 17.9083 3.82993 17.1712 3.82993 17.1637Z" fill="#D29434"/>
<path d="M2.31261 15.0502C2.30677 14.9451 2.21642 14.867 2.11164 14.8713C2.00653 14.8774 1.9264 14.9674 1.93272 15.0722C1.93483 15.1089 1.98658 15.9767 2.13289 16.4619C2.1577 16.5443 2.23313 16.5971 2.31504 16.5971C2.33305 16.5971 2.35154 16.5945 2.37003 16.589C2.4706 16.5587 2.5277 16.4526 2.4972 16.3519C2.36403 15.9096 2.31326 15.0585 2.31261 15.0502Z" fill="#D29434"/>
<path d="M2.56516 9.5533C2.46508 9.52443 2.35884 9.5825 2.32996 9.68372C2.32315 9.70789 2.16014 10.2797 2.11391 10.8518C2.10547 10.9564 2.18349 11.0482 2.28844 11.0568C2.29363 11.0571 2.29866 11.0574 2.30385 11.0574C2.40198 11.0574 2.4852 10.982 2.49347 10.8824C2.53645 10.3492 2.69428 9.79452 2.69574 9.789C2.72461 9.68762 2.66638 9.58218 2.56516 9.5533Z" fill="#D29434"/>
<path d="M3.87237 8.40636C3.76823 8.38738 3.67059 8.4594 3.65388 8.56321C3.65031 8.58446 3.56743 9.08941 3.54974 9.34425C3.54277 9.4492 3.62193 9.53987 3.72671 9.54717C3.73109 9.54733 3.73547 9.5475 3.73985 9.5475C3.83896 9.5475 3.92249 9.47077 3.92963 9.37004C3.94585 9.13322 4.02858 8.62991 4.02922 8.62471C4.04625 8.52139 3.97602 8.42355 3.87237 8.40636Z" fill="#D29434"/>
<path d="M13.7649 13.3207C13.9177 13.1721 14.108 12.9871 14.108 12.5853C14.108 12.1768 13.9047 12.0023 13.756 11.8748C13.6243 11.7614 13.537 11.6868 13.537 11.4529C13.537 11.3704 13.5897 11.2945 13.6757 11.1773C13.9279 10.834 14.1031 10.4705 13.4867 9.80151C13.4155 9.7243 13.2953 9.71943 13.2178 9.79048C13.1406 9.86168 13.1355 9.9822 13.2067 10.0594C13.6621 10.5534 13.5391 10.7206 13.3691 10.952C13.2694 11.0876 13.1563 11.2414 13.1563 11.4529C13.1563 11.8615 13.3595 12.036 13.5083 12.1635C13.6402 12.2767 13.7274 12.3518 13.7274 12.5852C13.7274 12.8264 13.6319 12.9192 13.4995 13.0482C13.3467 13.1967 13.1563 13.382 13.1563 13.7836C13.1563 13.9654 13.2548 14.1406 13.3586 14.3262C13.579 14.7189 13.7693 15.0581 13.2277 15.4913C13.1456 15.5572 13.1323 15.6769 13.198 15.759C13.2356 15.806 13.2909 15.8303 13.3469 15.8303C13.3886 15.8303 13.4304 15.8169 13.4656 15.7886C14.2596 15.1533 13.9036 14.5187 13.6908 14.1397C13.615 14.005 13.537 13.866 13.537 13.7836C13.537 13.5426 13.6325 13.4495 13.7649 13.3207Z" fill="#D29434"/>
<path d="M13.5367 16.5957H13.5359C13.4308 16.596 13.346 16.6815 13.3463 16.7868C13.3463 16.7943 13.3466 17.5313 13.1664 18.0564C13.1322 18.1556 13.1851 18.2642 13.2843 18.2982C13.3048 18.3052 13.3259 18.3088 13.3461 18.3088C13.4251 18.3088 13.4989 18.2591 13.526 18.1803C13.7278 17.5936 13.727 16.8181 13.7268 16.7855C13.7267 16.6804 13.6417 16.5957 13.5367 16.5957Z" fill="#D29434"/>
<path d="M15.0644 14.4945C14.9595 14.4882 14.8695 14.5685 14.8635 14.6734C14.8628 14.6818 14.812 15.5329 14.6789 15.9751C14.6484 16.0757 14.7055 16.1818 14.8062 16.2121C14.8245 16.2176 14.8429 16.2202 14.861 16.2202C14.9429 16.2202 15.0184 16.1672 15.0432 16.0848C15.1895 15.5996 15.2412 14.7323 15.2433 14.6955C15.2497 14.5907 15.1695 14.5008 15.0644 14.4945Z" fill="#D29434"/>
<path d="M14.8727 10.6804C14.8777 10.6804 14.8829 10.6802 14.8881 10.6797C14.993 10.6711 15.071 10.5795 15.0626 10.4747C15.0164 9.9026 14.8534 9.3308 14.8465 9.30664C14.8177 9.20558 14.7114 9.14768 14.6113 9.17622C14.5103 9.2051 14.4519 9.31053 14.4808 9.41142C14.4822 9.41694 14.6401 9.97168 14.683 10.5049C14.6912 10.6049 14.7744 10.6804 14.8727 10.6804Z" fill="#D29434"/>
<path d="M13.4367 9.17131C13.4411 9.17131 13.4455 9.17114 13.4498 9.17098C13.5548 9.16368 13.6339 9.07285 13.6268 8.96806C13.6091 8.71324 13.5262 8.20845 13.5227 8.18702C13.5058 8.08337 13.4078 8.012 13.3042 8.03017C13.2005 8.04737 13.1303 8.14517 13.1473 8.24866C13.1481 8.25385 13.2307 8.75718 13.2469 8.99399C13.2541 9.0944 13.3374 9.17131 13.4367 9.17131Z" fill="#D29434"/>
</svg>
