<svg width="24" height="20" viewBox="0 0 24 20" fill="none" xmlns="http://www.w3.org/2000/svg">
<path d="M6.88131 9.15318L8.28777 5.86097L9.78192 10.6857L10.4598 9.1807H12.3654L13.5088 5.32958L15.4231 11.0033L16.2554 9.15322H21.8564C22.2191 8.17392 22.3823 7.13194 22.3364 6.08854C22.1027 2.03404 19.223 0.0322266 16.4781 0.0322266C14.4971 0.0322266 12.7921 1.44797 11.9932 3.49083C11.1944 1.44793 9.48925 0.0322266 7.50833 0.0322266C4.76329 0.0322266 1.88357 2.03422 1.64997 6.08854H1.65015C1.60425 7.13194 1.76747 8.17392 2.13015 9.15322L6.88131 9.15318Z" fill="#D29434"/>
<path d="M23.5284 10.1207H19.3462V10.1297H16.8869L15.2932 13.6724L13.5683 8.56055L13.0942 10.1572H11.0912L9.61258 13.4397L8.14148 8.68951L7.52629 10.1297H4.87003V10.1208H0.488525V11.0974H3.03338C5.85806 16.0405 11.9935 19.9812 11.9935 19.9812C11.9935 19.9812 18.1289 16.0406 20.9536 11.0974H23.5287L23.5284 10.1207Z" fill="#D29434"/>
</svg>
