<?xml version="1.0" encoding="UTF-8"?>
<svg width="24px" height="19px" viewBox="0 0 24 19" version="1.1" xmlns="http://www.w3.org/2000/svg" xmlns:xlink="http://www.w3.org/1999/xlink">
    <!-- Generator: Sketch 55.2 (78181) - https://sketchapp.com -->
    <title>Icon/Heat map_Unelected</title>
    <desc>Created with Sketch.</desc>
    <g id="Page-1" stroke="none" stroke-width="1" fill="none" fill-rule="evenodd" fill-opacity="0.1">
        <g id="Map-view-" transform="translate(-841.000000, -119.000000)" fill="#006699" fill-rule="nonzero" stroke="#006699" stroke-width="0.8">
            <g id="view-switcher/Bubble---Selected" transform="translate(800.000000, 109.000000)">
                <path d="M54.2884719,25.1286758 L54.1915492,25.3278212 L53.8755984,24.6016643 L53.6188305,24.424098 L53.3760507,24.5416712 L53.1221644,24.5341555 L52.7818667,24.8345258 L52.667559,25.1088411 L52.2238942,25.2166418 L52.1891467,25.3534201 L51.9821405,25.5375605 L51.7288178,25.6651942 L51.6698269,26.9429708 L51.6271254,27.2387466 L51.7014322,27.3743318 L51.5395381,27.6257662 L51.3324545,27.9683281 L51.0418179,28.2205076 L50.6766967,28.3593228 L50.2842832,28.6 L49.8258806,28.5111547 L49.7618829,28.5454346 L49.1109359,28.0359579 L48.8731579,27.9566499 L48.5988036,28.1383082 L48.2331947,27.9789062 L47.7669311,27.9777096 L47.6784225,27.1823758 L47.5698785,26.9661242 L46.8410542,26.950938 L46.207332,26.4803328 L45.8264179,26.3631741 L45.5293479,26.0873476 L45.1033787,26.0028349 L44.6898673,25.690556 L44.6052489,25.2574176 L44.2975299,24.6389633 L44.4987861,23.8572605 L44.3331729,23.4794523 L44.4175749,22.6502209 L44.2084958,22.2374012 L44.1494194,21.4398074 L43.8721311,20.911656 L44.0370652,20.1060326 L44.5539483,20.0684475 L44.7195532,19.6836559 L45.0359076,19.2779439 L45.8199239,18.9908895 L45.9552467,18.7530691 L46.0288064,18.1170977 L45.099616,17.7577406 L44.3065137,16.6375219 L43.6700385,16.2985622 L43.2173779,15.9391616 L43.269019,15.5100674 L43.0822119,15.3365622 L42.4511882,15.3344035 L42.2147457,15.4648284 L41.8101144,15.3871785 L41.4,15.1955833 L41.6262161,14.7938604 L41.4625224,14.4499762 L41.5780216,13.977411 L41.9602293,13.8284611 L42.8181286,13.1120683 L43.1624287,12.6209804 L43.1269357,12.2579012 L44.1215796,12.0838053 L44.8707189,12.276483 L45.2479389,12.1909275 L45.6794181,11.8110762 L46.1060729,11.8154855 L46.9888767,11.2110924 L47.8155315,11 L48.4873688,11.3298269 L49.0494563,11.2165682 L49.7742947,11.5092303 L49.9559772,12.1312277 L50.1957021,12.2319813 L50.4254235,12.0608591 L51.0684081,12.3506087 L51.3187325,12.6088114 L51.6334291,13.2510533 L52.1318504,13.3246956 L52.4029584,13.7175114 L52.8416077,13.7453839 L52.9572001,14.0040453 L53.3815818,14.1784601 L53.6741651,14.173455 L53.9379498,14.474343 L54.0208035,15.2199167 L54.1972567,15.4089724 L54.7016448,15.5458762 L54.9502112,15.8347947 L55.3077286,15.9398674 L55.7225349,15.895922 L56.203735,16.4042641 L56.2473898,16.742664 L56.8478538,16.7713223 L57.1568167,16.6377615 L57.4043548,16.7774193 L57.5747707,16.3872511 L58.0818861,16.495422 L58.4663651,15.8030866 L61.2864206,14.6944384 L61.7169482,14.6634796 L61.8458031,15.020033 L62.1241388,15.0521976 L62.8126062,15.3244099 L63.1789603,15.3737798 L63.5571672,15.1500764 L63.9347164,15.730504 L64.4775844,15.9726062 L64.6,16.4530256 L64.3552278,17.384463 L64.2369599,17.6175486 L64.2382789,18.285802 L63.9732687,18.9004086 L63.9867432,19.3186695 L63.36097,19.4534156 L63.1103953,19.7152356 L63.2061569,20.2197834 L62.5545511,20.2294326 L62.5075971,20.5372698 L62.6177515,21.1769552 L62.0174176,21.9633671 L61.4749486,21.920075 C61.35821,22.6252985 61.2873696,23.174938 61.2624275,23.5689936 C61.2374853,23.9630492 61.2485277,24.3581463 61.2955546,24.7542849 L61.7325633,24.7237282 L62.3911339,24.8403799 L62.1884214,25.4939268 L62.2255064,25.910213 L62.4860103,26.1013639 L63.0121707,26.7537907 L62.4994889,27.5462296 L62.1556853,27.336398 L61.7231087,27.7623053 L61.4950947,28.1334858 L61.0191646,28.2215054 L60.5931358,27.9794875 L59.0449068,27.9138788 L58.354175,27.2377407 L58.1823719,27.5028866 L58.0021065,27.5086453 L57.7653732,27.1436508 L57.8030944,26.9054806 L57.3055304,26.5141687 L57.3907111,26.3536236 L57.1501724,26.1123095 L56.7498692,26.2477594 L56.566502,26.4446279 L56.3625726,26.5516073 L55.9616035,26.6972322 L55.6406479,26.434131 L55.4417902,26.3823334 L55.373079,26.1243031 L54.9507198,26.0997439 L54.6963466,25.9470272 L54.5647788,25.6449029 L54.3186611,25.4239389 L54.3939781,25.1515195 L54.2884719,25.1286758 Z" id="Icon/Heat-map_Unelected"></path>
            </g>
        </g>
    </g>
</svg>