<svg width="24" height="24" viewBox="0 0 24 24" fill="none" xmlns="http://www.w3.org/2000/svg">
<path d="M11.6074 11.2456C11.6074 11.0887 11.702 10.9472 11.8471 10.8873C11.9922 10.8272 12.1591 10.8603 12.2702 10.9713C12.3813 11.0823 12.4144 11.2491 12.3543 11.394C12.2943 11.539 12.1527 11.6335 11.9956 11.6335C11.7814 11.6328 11.6081 11.4597 11.6074 11.2456ZM9.66594 11.2456C9.66472 10.5844 9.94744 9.95437 10.4425 9.51554V2.32317C10.4425 1.76881 10.7386 1.25653 11.2191 0.979302C11.6996 0.702212 12.2917 0.702212 12.7722 0.979302C13.2527 1.25657 13.5488 1.76885 13.5488 2.32317V9.51554C14.1361 10.0418 14.4167 10.8295 14.2943 11.6081C14.172 12.3867 13.663 13.0505 12.9426 13.3716C12.2221 13.6925 11.3877 13.6272 10.7261 13.1979C10.0645 12.7687 9.66545 12.0337 9.66594 11.2456ZM10.8308 11.2456C10.8299 11.5317 10.9346 11.8079 11.1248 12.0218C11.3151 12.2357 11.5774 12.3722 11.8618 12.4049C12.1463 12.4378 12.4328 12.3649 12.6668 12.2C12.9009 12.0351 13.0659 11.7901 13.1305 11.5113C13.195 11.2326 13.1546 10.9399 13.017 10.6892C12.8792 10.4384 12.6538 10.2471 12.3839 10.1516V2.71143C12.3839 2.4972 12.21 2.3235 11.9956 2.3235C11.7812 2.3235 11.6073 2.4972 11.6073 2.71143V10.1516C11.3808 10.2316 11.1846 10.3799 11.0455 10.5758C10.9065 10.7715 10.8315 11.0056 10.8308 11.2456ZM14.3254 4.1583V9.19736C14.8554 9.79778 15.1326 10.5797 15.0992 11.3796C15.0657 12.1796 14.7242 12.9357 14.1458 13.4899C13.5674 14.044 12.797 14.3535 11.9957 14.3535C11.1944 14.3535 10.424 14.044 9.84557 13.4899C9.26713 12.9357 8.92566 12.1796 8.89221 11.3796C8.85875 10.5797 9.13592 9.79778 9.66603 9.19736V4.1583C9.11599 4.292 8.57936 4.47522 8.06243 4.70539C8.55366 5.05106 8.85857 5.60316 8.88945 6.2027C8.88945 7.64583 7.74022 8.21211 7.04889 8.54967C6.84279 8.63748 6.6483 8.75091 6.47046 8.88721C6.4897 9.01069 6.51813 9.13261 6.55592 9.25175C6.72441 9.68748 6.75613 10.1641 6.6464 10.618C6.53685 11.072 6.29123 11.4818 5.9423 11.7926C5.56909 12.1702 5.06016 12.3825 4.52903 12.3823C3.72264 12.3574 2.98525 11.921 2.57598 11.2264C2.38513 11.9941 2.28857 12.7822 2.28857 13.5733C2.28857 13.7595 2.29239 13.9419 2.30417 14.1242C2.79368 13.9524 3.30746 13.8596 3.82612 13.8487C4.29051 13.8252 4.75157 13.937 5.15357 14.1705C5.55537 14.4039 5.88075 14.7491 6.08998 15.1638C6.32156 15.758 6.34479 16.413 6.15585 17.0221C6.07161 17.3009 6.04907 17.5948 6.08998 17.8831C6.33855 18.3796 6.66859 18.4922 7.23163 18.6512C7.78685 18.8064 8.54798 19.0197 8.8508 19.9235L8.85062 19.9237C9.10959 20.8333 9.30303 21.7601 9.42923 22.6974L9.46806 22.9379C10.8534 23.3108 12.3045 23.3719 13.7165 23.117C15.1285 22.8621 16.4664 22.2975 17.6336 21.4638L17.2726 21.1031C17.0666 20.9013 16.5114 20.556 15.102 20.556C14.5209 20.5783 13.9555 20.3658 13.5332 19.9665C13.111 19.5673 12.8674 19.0148 12.8577 18.434C12.858 17.8192 13.1451 17.2397 13.6343 16.8669C14.2281 16.4329 14.9534 16.2166 15.6882 16.2538C15.9101 16.2557 16.1318 16.2685 16.3523 16.2926H16.3795C16.4415 16.2926 16.4804 16.281 16.531 16.1956C16.7367 15.8659 16.7407 15.0938 16.3485 14.3064L16.3483 14.3066C16.1866 14.0129 16.1053 13.6815 16.1127 13.3465C16.1202 13.0114 16.2162 12.6841 16.3911 12.3979C16.9182 11.6451 17.7899 11.2089 18.7092 11.238C19.1436 11.2184 19.5747 11.322 19.9526 11.5367C20.3305 11.7516 20.6397 12.0691 20.8447 12.4521C21.0406 12.8761 21.1765 13.3253 21.2485 13.7867C21.2882 14.1689 21.413 14.5373 21.6135 14.8651C21.6747 14.4373 21.7045 14.0056 21.7028 13.5733C21.7031 11.4059 20.9767 9.30109 19.6395 7.59435C18.3022 5.88783 16.4313 4.67798 14.3255 4.15807L14.3254 4.1583ZM20.1496 12.7973C19.3731 11.2456 16.1581 12.1922 17.0434 13.9611C17.8199 15.5128 17.4238 17.1925 16.2668 17.0645C12.7722 16.6766 13.1605 19.78 15.1019 19.78C16.6551 19.78 17.4316 20.1679 17.8199 20.5558L18.2509 20.9864C19.8536 19.6437 20.9753 17.8165 21.4466 15.7806C20.34 14.966 20.6582 13.8098 20.1496 12.7974L20.1496 12.7973ZM5.3948 18.2283C5.00651 17.4524 5.78308 16.2886 5.3948 15.5128C4.75792 14.2443 3.18539 14.6206 2.38561 14.9193C2.62777 16.656 3.33724 18.2944 4.43815 19.66C5.53906 21.0255 6.99027 22.0672 8.637 22.6737C8.51722 21.8279 8.34215 20.9907 8.11284 20.1678C7.74397 19.0622 6.17141 19.7799 5.39484 18.2281L5.3948 18.2283ZM5.3948 11.2456C6.55965 10.0818 5.3948 9.30597 5.78308 8.53012C6.17137 7.75427 8.11279 7.75427 8.11279 6.20256C8.11279 5.77585 7.74392 5.39953 7.278 5.09318C5.26638 6.21453 3.71634 8.01043 2.90201 10.1633C3.48062 11.719 4.72695 11.9129 5.39484 11.2457L5.3948 11.2456Z" fill="#D29434"/>
</svg>
