<svg width="52" height="65" viewBox="0 0 52 65" fill="none" xmlns="http://www.w3.org/2000/svg">
<g clip-path="url(#clip0_130_2939)">
<path d="M27.85 42.91V10.93C27.85 7.65997 25.19 5 21.92 5C18.65 5 15.99 7.65997 15.99 10.93V42.91C12.9 44.92 11 48.38 11 52.08C11 58.1 15.9 63 21.92 63C27.95 63 32.85 58.1 32.85 52.08C32.85 48.38 30.95 44.92 27.85 42.91ZM21.92 61C17 61 13 57 13 52.08C13 48.9 14.72 45.93 17.49 44.34L17.99 44.05V10.93C17.99 8.76001 19.76 7 21.92 7C24.09 7 25.85 8.76001 25.85 10.93V44.05L26.36 44.34C29.13 45.93 30.85 48.9 30.85 52.08C30.85 57 26.84 61 21.92 61Z" fill="#D52B2B"/>
<path d="M27.85 52.0801C27.85 55.35 25.19 58.0101 21.92 58.0101C18.65 58.0101 15.99 55.35 15.99 52.0801C15.99 49.1501 18.13 46.72 20.92 46.2401V10.8301H22.92V46.2401C25.72 46.72 27.85 49.1501 27.85 52.0801Z" fill="#D52B2B"/>
<path d="M34.3199 8.82788H30.1237V10.8279H34.3199V8.82788Z" fill="#D52B2B"/>
<path d="M36.3199 14.8279H30.1237V16.8279H36.3199V14.8279Z" fill="#D52B2B"/>
<path d="M34.3199 20.8279H30.1237V22.8279H34.3199V20.8279Z" fill="#D52B2B"/>
<path d="M36.3199 26.8279H30.1237V28.8279H36.3199V26.8279Z" fill="#D52B2B"/>
<path d="M34.3199 32.8279H30.1237V34.8279H34.3199V32.8279Z" fill="#D52B2B"/>
<path d="M36.3199 38.8279H30.1237V40.8279H36.3199V38.8279Z" fill="#D52B2B"/>
<path opacity="0.5" d="M39.9833 11.0298C39.8242 11.0298 39.6825 11.0025 39.5582 10.9478C39.4347 10.8924 39.337 10.8164 39.2653 10.7198C39.1942 10.6225 39.1577 10.5103 39.1555 10.3832H39.62C39.6229 10.4364 39.6403 10.4833 39.6722 10.5238C39.7049 10.5636 39.7482 10.5945 39.8022 10.6165C39.8562 10.6385 39.9169 10.6495 39.9844 10.6495C40.0547 10.6495 40.1168 10.6371 40.1708 10.6122C40.2248 10.5874 40.267 10.5529 40.2976 10.5089C40.3281 10.4648 40.3434 10.4141 40.3434 10.3565C40.3434 10.2983 40.3271 10.2468 40.2944 10.2021C40.2624 10.1566 40.2163 10.1211 40.1559 10.0955C40.0962 10.07 40.0252 10.0572 39.9428 10.0572H39.7393V9.71839H39.9428C40.0124 9.71839 40.0739 9.70632 40.1271 9.68217C40.1811 9.65803 40.223 9.62464 40.2528 9.58203C40.2827 9.53871 40.2976 9.48828 40.2976 9.43075C40.2976 9.37607 40.2844 9.32812 40.2582 9.28693C40.2326 9.24503 40.1964 9.21236 40.1495 9.18892C40.1033 9.16548 40.0494 9.15376 39.9876 9.15376C39.9251 9.15376 39.8679 9.16513 39.8161 9.18786C39.7642 9.20987 39.7227 9.24148 39.6914 9.28267C39.6602 9.32386 39.6435 9.37216 39.6413 9.42756H39.1992C39.2013 9.30185 39.2372 9.19105 39.3068 9.09517C39.3764 8.99929 39.4702 8.92436 39.5881 8.87038C39.7067 8.8157 39.8406 8.78835 39.9897 8.78835C40.1403 8.78835 40.272 8.8157 40.3849 8.87038C40.4979 8.92507 40.5856 8.99893 40.6481 9.09197C40.7113 9.1843 40.7425 9.288 40.7418 9.40305C40.7425 9.52521 40.7045 9.62713 40.6278 9.70881C40.5518 9.79048 40.4528 9.84233 40.3306 9.86435V9.88139C40.4911 9.90199 40.6133 9.95774 40.6971 10.0487C40.7816 10.1388 40.8235 10.2518 40.8228 10.3874C40.8235 10.5117 40.7876 10.6222 40.7152 10.7188C40.6435 10.8153 40.5444 10.8913 40.418 10.9467C40.2915 11.0021 40.1467 11.0298 39.9833 11.0298Z" fill="black"/>
<path opacity="0.5" d="M39.1768 17V16.6676L39.9535 15.9485C40.0195 15.8846 40.0749 15.8271 40.1197 15.7759C40.1651 15.7248 40.1996 15.6747 40.223 15.6257C40.2464 15.576 40.2582 15.5224 40.2582 15.4648C40.2582 15.4009 40.2436 15.3459 40.2145 15.2997C40.1854 15.2528 40.1456 15.217 40.0952 15.1921C40.0447 15.1665 39.9876 15.1538 39.9237 15.1538C39.8569 15.1538 39.7987 15.1673 39.7489 15.1942C39.6992 15.2212 39.6609 15.2599 39.6339 15.3104C39.6069 15.3608 39.5934 15.4208 39.5934 15.4904H39.1555C39.1555 15.3477 39.1879 15.2237 39.2525 15.1186C39.3171 15.0135 39.4077 14.9322 39.5241 14.8746C39.6406 14.8171 39.7749 14.7884 39.9268 14.7884C40.0831 14.7884 40.2191 14.8161 40.3349 14.8714C40.4513 14.9261 40.5419 15.0021 40.6065 15.0994C40.6712 15.1967 40.7035 15.3082 40.7035 15.4339C40.7035 15.5163 40.6871 15.5977 40.6545 15.6779C40.6225 15.7582 40.5653 15.8473 40.483 15.9453C40.4006 16.0426 40.2844 16.1594 40.1346 16.2958L39.8161 16.608V16.6229H40.7322V17H39.1768ZM41.336 17.0277C41.2657 17.0277 41.2053 17.0028 41.1549 16.9531C41.1052 16.9027 41.0803 16.8423 41.0803 16.772C41.0803 16.7024 41.1052 16.6428 41.1549 16.593C41.2053 16.5433 41.2657 16.5185 41.336 16.5185C41.4042 16.5185 41.4639 16.5433 41.515 16.593C41.5661 16.6428 41.5917 16.7024 41.5917 16.772C41.5917 16.8189 41.5796 16.8619 41.5555 16.9009C41.532 16.9393 41.5012 16.9702 41.4628 16.9936C41.4244 17.0163 41.3822 17.0277 41.336 17.0277ZM42.7393 17.0298C42.5888 17.0298 42.4545 17.0021 42.3366 16.9467C42.2195 16.8913 42.1264 16.815 42.0575 16.7177C41.9886 16.6204 41.9528 16.5089 41.9499 16.3832H42.3974C42.4023 16.4677 42.4379 16.5362 42.5039 16.5888C42.57 16.6413 42.6484 16.6676 42.7393 16.6676C42.8118 16.6676 42.8757 16.6516 42.9311 16.6197C42.9872 16.587 43.0309 16.5419 43.0621 16.4844C43.0941 16.4261 43.1101 16.3594 43.1101 16.2841C43.1101 16.2074 43.0938 16.1399 43.0611 16.0817C43.0291 16.0234 42.9847 15.978 42.9279 15.9453C42.8711 15.9126 42.8061 15.896 42.733 15.8952C42.669 15.8952 42.6069 15.9084 42.5465 15.9347C42.4869 15.9609 42.4403 15.9968 42.407 16.0423L41.9968 15.9688L42.1001 14.8182H43.4339V15.1953H42.4805L42.424 15.7418H42.4368C42.4751 15.6879 42.533 15.6431 42.6104 15.6076C42.6879 15.5721 42.7745 15.5543 42.8704 15.5543C43.0018 15.5543 43.119 15.5852 43.2219 15.647C43.3249 15.7088 43.4062 15.7937 43.4659 15.9016C43.5256 16.0089 43.555 16.1325 43.5543 16.2724C43.555 16.4194 43.521 16.5501 43.4521 16.6644C43.3839 16.7781 43.2884 16.8675 43.1655 16.9329C43.0433 16.9975 42.9013 17.0298 42.7393 17.0298Z" fill="black"/>
<path opacity="0.5" d="M39.1768 23V22.6676L39.9535 21.9485C40.0195 21.8846 40.0749 21.8271 40.1197 21.7759C40.1651 21.7248 40.1996 21.6747 40.223 21.6257C40.2464 21.576 40.2582 21.5224 40.2582 21.4648C40.2582 21.4009 40.2436 21.3459 40.2145 21.2997C40.1854 21.2528 40.1456 21.217 40.0952 21.1921C40.0447 21.1665 39.9876 21.1538 39.9237 21.1538C39.8569 21.1538 39.7987 21.1673 39.7489 21.1942C39.6992 21.2212 39.6609 21.2599 39.6339 21.3104C39.6069 21.3608 39.5934 21.4208 39.5934 21.4904H39.1555C39.1555 21.3477 39.1879 21.2237 39.2525 21.1186C39.3171 21.0135 39.4077 20.9322 39.5241 20.8746C39.6406 20.8171 39.7749 20.7884 39.9268 20.7884C40.0831 20.7884 40.2191 20.8161 40.3349 20.8714C40.4513 20.9261 40.5419 21.0021 40.6065 21.0994C40.6712 21.1967 40.7035 21.3082 40.7035 21.4339C40.7035 21.5163 40.6871 21.5977 40.6545 21.6779C40.6225 21.7582 40.5653 21.8473 40.483 21.9453C40.4006 22.0426 40.2844 22.1594 40.1346 22.2958L39.8161 22.608V22.6229H40.7322V23H39.1768Z" fill="black"/>
<path opacity="0.5" d="M40.1261 26.8182V29H39.6648V27.256H39.652L39.1523 27.5692V27.1602L39.6925 26.8182H40.1261ZM40.797 29.0277C40.7267 29.0277 40.6663 29.0028 40.6159 28.9531C40.5661 28.9027 40.5413 28.8423 40.5413 28.772C40.5413 28.7024 40.5661 28.6428 40.6159 28.593C40.6663 28.5433 40.7267 28.5185 40.797 28.5185C40.8651 28.5185 40.9248 28.5433 40.9759 28.593C41.0271 28.6428 41.0526 28.7024 41.0526 28.772C41.0526 28.8189 41.0406 28.8619 41.0164 28.9009C40.993 28.9393 40.9621 28.9702 40.9237 28.9936C40.8854 29.0163 40.8431 29.0277 40.797 29.0277ZM42.2003 29.0298C42.0497 29.0298 41.9155 29.0021 41.7976 28.9467C41.6804 28.8913 41.5874 28.815 41.5185 28.7177C41.4496 28.6204 41.4137 28.5089 41.4109 28.3832H41.8583C41.8633 28.4677 41.8988 28.5362 41.9648 28.5888C42.0309 28.6413 42.1094 28.6676 42.2003 28.6676C42.2727 28.6676 42.3366 28.6516 42.392 28.6197C42.4482 28.587 42.4918 28.5419 42.5231 28.4844C42.555 28.4261 42.571 28.3594 42.571 28.2841C42.571 28.2074 42.5547 28.1399 42.522 28.0817C42.4901 28.0234 42.4457 27.978 42.3888 27.9453C42.332 27.9126 42.267 27.896 42.1939 27.8952C42.13 27.8952 42.0678 27.9084 42.0075 27.9347C41.9478 27.9609 41.9013 27.9968 41.8679 28.0423L41.4577 27.9688L41.5611 26.8182H42.8949V27.1953H41.9414L41.8849 27.7418H41.8977C41.9361 27.6879 41.994 27.6431 42.0714 27.6076C42.1488 27.5721 42.2354 27.5543 42.3313 27.5543C42.4627 27.5543 42.5799 27.5852 42.6829 27.647C42.7859 27.7088 42.8672 27.7937 42.9268 27.9016C42.9865 28.0089 43.016 28.1325 43.0153 28.2724C43.016 28.4194 42.9819 28.5501 42.913 28.6644C42.8448 28.7781 42.7493 28.8675 42.6264 28.9329C42.5043 28.9975 42.3622 29.0298 42.2003 29.0298Z" fill="black"/>
<path opacity="0.5" d="M40.1261 32.8182V35H39.6648V33.256H39.652L39.1523 33.5692V33.1602L39.6925 32.8182H40.1261Z" fill="black"/>
<path opacity="0.5" d="M40.0323 41.0479C39.8491 41.0472 39.6914 41.0021 39.5593 40.9126C39.4279 40.8232 39.3267 40.6935 39.2557 40.5238C39.1854 40.354 39.1506 40.1499 39.1513 39.9112C39.1513 39.6733 39.1864 39.4705 39.2567 39.3029C39.3278 39.1353 39.429 39.0078 39.5604 38.9205C39.6925 38.8324 39.8498 38.7884 40.0323 38.7884C40.2148 38.7884 40.3718 38.8324 40.5032 38.9205C40.6353 39.0085 40.7369 39.1364 40.8079 39.304C40.8789 39.4709 40.9141 39.6733 40.9134 39.9112C40.9134 40.1506 40.8778 40.3551 40.8068 40.5249C40.7365 40.6946 40.6357 40.8242 40.5043 40.9137C40.3729 41.0032 40.2156 41.0479 40.0323 41.0479ZM40.0323 40.6655C40.1573 40.6655 40.2571 40.6026 40.3317 40.4769C40.4063 40.3512 40.4432 40.1626 40.4425 39.9112C40.4425 39.7457 40.4254 39.608 40.3913 39.4979C40.358 39.3878 40.3104 39.305 40.2486 39.2496C40.1875 39.1942 40.1154 39.1665 40.0323 39.1665C39.908 39.1665 39.8086 39.2287 39.734 39.353C39.6594 39.4773 39.6218 39.6634 39.6211 39.9112C39.6211 40.0788 39.6378 40.2188 39.6712 40.331C39.7053 40.4425 39.7532 40.5263 39.815 40.5824C39.8768 40.6378 39.9492 40.6655 40.0323 40.6655ZM41.4239 41.0277C41.3536 41.0277 41.2932 41.0028 41.2428 40.9531C41.1931 40.9027 41.1682 40.8423 41.1682 40.772C41.1682 40.7024 41.1931 40.6428 41.2428 40.593C41.2932 40.5433 41.3536 40.5185 41.4239 40.5185C41.4921 40.5185 41.5518 40.5433 41.6029 40.593C41.654 40.6428 41.6796 40.7024 41.6796 40.772C41.6796 40.8189 41.6675 40.8619 41.6434 40.9009C41.6199 40.9393 41.589 40.9702 41.5507 40.9936C41.5123 41.0163 41.4701 41.0277 41.4239 41.0277ZM42.8272 41.0298C42.6767 41.0298 42.5424 41.0021 42.4245 40.9467C42.3074 40.8913 42.2143 40.815 42.1454 40.7177C42.0765 40.6204 42.0407 40.5089 42.0378 40.3832H42.4853C42.4902 40.4677 42.5257 40.5362 42.5918 40.5888C42.6578 40.6413 42.7363 40.6676 42.8272 40.6676C42.8997 40.6676 42.9636 40.6516 43.019 40.6197C43.0751 40.587 43.1188 40.5419 43.15 40.4844C43.182 40.4261 43.198 40.3594 43.198 40.2841C43.198 40.2074 43.1816 40.1399 43.149 40.0817C43.117 40.0234 43.0726 39.978 43.0158 39.9453C42.959 39.9126 42.894 39.896 42.8208 39.8952C42.7569 39.8952 42.6948 39.9084 42.6344 39.9347C42.5748 39.9609 42.5282 39.9968 42.4949 40.0423L42.0847 39.9688L42.188 38.8182H43.5218V39.1953H42.5684L42.5119 39.7418H42.5247C42.563 39.6879 42.6209 39.6431 42.6983 39.6076C42.7757 39.5721 42.8624 39.5543 42.9583 39.5543C43.0897 39.5543 43.2069 39.5852 43.3098 39.647C43.4128 39.7088 43.4941 39.7937 43.5538 39.9016C43.6135 40.0089 43.6429 40.1325 43.6422 40.2724C43.6429 40.4194 43.6088 40.5501 43.54 40.6644C43.4718 40.7781 43.3762 40.8675 43.2534 40.9329C43.1312 40.9975 42.9892 41.0298 42.8272 41.0298Z" fill="black"/>
</g>
<defs>
<clipPath id="clip0_130_2939">
<rect width="52" height="65" fill="white"/>
</clipPath>
</defs>
</svg>
