<svg width="52" height="53" viewBox="0 0 52 53" fill="none" xmlns="http://www.w3.org/2000/svg">
<g clip-path="url(#clip0_1194_3309)">
<path d="M52 26.5C52 40.8813 40.3406 52.5 26 52.5C19.4594 52.5 13.4469 50.0625 8.89687 46.0812C7.9625 45.2687 7.06875 44.375 6.25625 43.4406L6.13438 43.3188C3.65625 40.3531 1.7875 36.8594 0.8125 33C0.284375 30.9281 0 28.7344 0 26.5C0 12.1187 11.6187 0.5 26 0.5C40.3813 0.5 52 12.1187 52 26.5Z" fill="#EE4C68"/>
<path d="M33.1501 24.8896H41.1533V28.8709H33.1501V24.8896Z" fill="#353944"/>
<path d="M34.6125 29.6426H40.0969V36.0207H34.6125V29.6426Z" fill="#FDFEFF"/>
<path d="M37.3749 31.6732C37.532 31.6732 37.6593 31.5459 37.6593 31.3889C37.6593 31.2318 37.532 31.1045 37.3749 31.1045C37.2179 31.1045 37.0906 31.2318 37.0906 31.3889C37.0906 31.5459 37.2179 31.6732 37.3749 31.6732Z" fill="#FDFEFF"/>
<path d="M37.375 31.5928C37.4872 31.5928 37.5781 31.5018 37.5781 31.3896C37.5781 31.2775 37.4872 31.1865 37.375 31.1865C37.2628 31.1865 37.1719 31.2775 37.1719 31.3896C37.1719 31.5018 37.2628 31.5928 37.375 31.5928Z" fill="#E8E7E8"/>
<path d="M37.3749 33.2582C37.532 33.2582 37.6593 33.1309 37.6593 32.9738C37.6593 32.8168 37.532 32.6895 37.3749 32.6895C37.2179 32.6895 37.0906 32.8168 37.0906 32.9738C37.0906 33.1309 37.2179 33.2582 37.3749 33.2582Z" fill="#FDFEFF"/>
<path d="M37.375 33.1768C37.4872 33.1768 37.5781 33.0858 37.5781 32.9736C37.5781 32.8614 37.4872 32.7705 37.375 32.7705C37.2628 32.7705 37.1719 32.8614 37.1719 32.9736C37.1719 33.0858 37.2628 33.1768 37.375 33.1768Z" fill="#E8E7E8"/>
<path d="M37.3749 34.8832C37.532 34.8832 37.6593 34.7559 37.6593 34.5988C37.6593 34.4418 37.532 34.3145 37.3749 34.3145C37.2179 34.3145 37.0906 34.4418 37.0906 34.5988C37.0906 34.7559 37.2179 34.8832 37.3749 34.8832Z" fill="#FDFEFF"/>
<path d="M37.375 34.8018C37.4872 34.8018 37.5781 34.7108 37.5781 34.5986C37.5781 34.4864 37.4872 34.3955 37.375 34.3955C37.2628 34.3955 37.1719 34.4864 37.1719 34.5986C37.1719 34.7108 37.2628 34.8018 37.375 34.8018Z" fill="#E8E7E8"/>
<path d="M35.1814 25.499H39.5283V29.9678H35.1814V25.499Z" fill="#F0B97C"/>
<path d="M36.8875 29.6426H37.8624V36.0207H36.8875V29.6426Z" fill="#D2D2D4"/>
<path d="M40.3812 28.4639L38.1062 36.0201H39.2437L41.8437 32.4857L41.0312 31.3482L42.3312 29.3982L40.3812 28.4639Z" fill="#70B1E1"/>
<path d="M42.3312 29.3984L40.9906 31.3484L41.8031 32.4859L39.2031 36.0203H45.6219V32.1203C45.6219 31.4297 45.2156 30.7797 44.5656 30.4547L42.3312 29.3984Z" fill="#5F87C4"/>
<path d="M39.5688 31.0639L40.3813 28.4639L39.5688 28.0576C39.2438 28.9514 38.3906 29.642 37.375 29.642C37.5781 30.4951 38.35 31.1045 39.2437 31.1045C39.3656 31.1045 39.4469 31.1045 39.5688 31.0639Z" fill="#E8E7E8"/>
<path d="M34.3688 28.4639L36.6438 36.0201H35.5063L32.8657 32.4857L33.7188 31.3482L32.3782 29.3982L34.3688 28.4639Z" fill="#70B1E1"/>
<path d="M32.3783 29.3984L33.7189 31.3484L32.9064 32.4859L35.5064 36.0203H29.0876V32.1203C29.0876 31.4297 29.4939 30.7797 30.1439 30.4547L32.3783 29.3984Z" fill="#5F87C4"/>
<path d="M35.1814 31.0639L34.3689 28.4639L35.1814 28.0576C35.5064 28.9514 36.3595 29.642 37.3751 29.642C37.172 30.4951 36.4001 31.1045 35.5064 31.1045C35.3845 31.1045 35.2626 31.1045 35.1814 31.0639Z" fill="#E8E7E8"/>
<path d="M40.323 25.8256C40.5615 25.889 40.8903 25.4305 41.0573 24.8016C41.2243 24.1728 41.1663 23.6116 40.9278 23.5483C40.6892 23.4849 40.3605 23.9434 40.1935 24.5723C40.0265 25.2011 40.0845 25.7623 40.323 25.8256Z" fill="#F0B97C"/>
<path d="M33.8117 23.5639C33.5732 23.6273 33.5152 24.1884 33.6822 24.8173C33.8492 25.4462 34.1779 25.9046 34.4165 25.8413C34.655 25.7779 34.713 25.2168 34.546 24.5879C34.379 23.959 34.0503 23.5006 33.8117 23.5639Z" fill="#F0B97C"/>
<path d="M40.7468 23.6707C40.7468 25.8645 39.2437 27.6113 37.3749 27.6113C35.5062 27.6113 34.003 25.8645 34.003 23.6707C34.003 21.477 32.7843 17.252 37.3749 17.252C40.4218 17.252 40.7468 21.5176 40.7468 23.6707Z" fill="#F7CFA3"/>
<path d="M35.0186 19.1616C35.0186 19.1616 39.203 19.2022 39.8124 24.5241C39.8124 24.5241 40.2592 28.3428 38.7155 31.9178C38.7155 31.9178 42.778 31.9585 42.778 25.5397C42.778 19.1616 40.2592 17.5772 40.2592 17.5772C40.2592 17.5772 36.6842 15.1803 33.9217 18.1866C33.9217 18.1866 31.8092 20.3803 31.9311 25.946C31.9311 25.946 31.6467 31.5928 35.9124 31.9178C35.9124 31.9178 34.4905 29.2772 34.2874 24.2803C34.328 24.2803 34.003 21.4772 35.0186 19.1616Z" fill="#4D535F"/>
<path d="M23.4406 36.0201V31.917C23.1156 31.1045 22.7906 30.942 22.7906 30.942C22.3844 30.3732 18.2812 28.8701 18.2812 28.8701L17.875 29.0732L17.7937 29.3576L17.0625 31.9576H12.8781L12.1469 29.3576L12.0656 29.0732L11.6594 28.8701C11.6594 28.8701 7.55625 30.3732 7.15 30.942C7.15 30.942 6.825 31.1045 6.5 31.917V36.0201H23.4406Z" fill="#F5EA07"/>
<path d="M17.4281 29.9264H12.5125C12.9187 28.667 12.9187 27.2857 12.5125 26.0264H17.4281C17.0218 27.3264 17.0218 28.667 17.4281 29.9264Z" fill="#F0B97C"/>
<path d="M14.2186 36.0205H15.7624L16.128 34.9236L16.7374 33.1768L17.9967 29.3174H12.1467L13.853 34.8018L14.2186 36.0205Z" fill="#FDFEFF"/>
<path d="M16.3314 36.0203L16.1689 35.0859L16.1283 34.9234L15.9251 33.5422L15.4783 30.8203H14.4626L14.0564 33.5422L13.8533 34.8016L13.8126 35.0859L13.6501 36.0203H16.3314Z" fill="#F1592F"/>
<path d="M14.9905 29.3178L17.1436 28.1396L16.5749 30.5771C16.5749 30.6178 16.0061 29.9678 14.9905 29.3178Z" fill="#E8E7E8"/>
<path d="M16.0876 30.1299L15.4783 30.8205H14.4626L13.8533 30.1299C14.1376 29.8861 14.5033 29.6018 14.9501 29.3174C15.4376 29.6018 15.8439 29.8861 16.0876 30.1299Z" fill="#E34E30"/>
<path d="M16.5343 36.0203L18.4843 32.1203L17.6312 31.7547L18.6468 31.0641L18.2812 28.8703L17.1437 28.1797V28.2203L16.8593 29.3172L16.7375 29.9266L16.575 30.6172L15.925 33.5422L15.3562 36.0203H16.5343Z" fill="#E8BB20"/>
<path d="M14.9908 29.3178L12.8376 28.1396L13.4064 30.5771C13.3658 30.6178 13.9345 29.9678 14.9908 29.3178Z" fill="#E8E7E8"/>
<path d="M11.4562 32.1203L13.4062 36.0203H14.625L14.0562 33.5422L13.3656 30.6172L13.2437 29.9266L13.0812 29.3172L12.8375 28.2203V28.1797L11.6593 28.8703L11.2937 31.0641L12.3093 31.7547L11.4562 32.1203Z" fill="#E8BB20"/>
<path d="M18.4305 24.4661C18.7619 24.5244 19.1282 24.0163 19.2487 23.3312C19.3691 22.6462 19.198 22.0437 18.8665 21.9854C18.5351 21.9271 18.1687 22.4352 18.0483 23.1202C17.9279 23.8053 18.099 24.4078 18.4305 24.4661Z" fill="#F0B97C"/>
<path d="M10.6438 23.3456C10.7657 24.0362 11.1313 24.5237 11.4563 24.4831C11.7813 24.4424 11.9438 23.8331 11.8219 23.1424C11.5375 21.5174 10.3594 21.7206 10.6438 23.3456Z" fill="#F0B97C"/>
<path d="M18.7281 22.452C18.7281 25.702 16.2906 28.1801 14.95 28.1801C13.6094 28.1801 11.1719 25.702 11.1719 22.452C11.1719 20.2582 12.8781 17.4551 14.95 17.4551C17.0219 17.4551 18.7281 20.2582 18.7281 22.452Z" fill="#F7CFA3"/>
<path d="M18.4844 21.7207C18.4844 22.127 18.4031 22.5332 18.2812 22.9395L18.8094 22.8582C19.0937 22.2895 19.2563 21.6395 19.2563 20.9488C19.2563 20.4613 19.175 19.9738 19.0125 19.4863C18.8094 19.6488 18.4844 19.852 18.0781 20.0145C18.3219 20.5426 18.4844 21.1113 18.4844 21.7207Z" fill="#353944"/>
<path d="M19.3374 19.1606C19.3374 19.2013 19.2155 19.3638 18.9717 19.5263C18.7686 19.6888 18.4436 19.8919 18.0374 20.0544C15.7624 21.1106 12.9592 20.7044 11.8217 19.9731C11.2936 20.9075 11.2124 22.0044 11.578 22.9388L11.0499 22.8575C8.77487 18.1856 15.3155 13.6763 19.3374 19.1606Z" fill="#4D535F"/>
<path d="M36.0751 36.0201V31.0232C35.6688 30.0076 35.2626 29.8045 35.2626 29.8045C34.775 29.1139 29.7375 27.2857 29.7375 27.2857L29.25 27.5295L29.1688 27.8545L28.2344 31.0232H23.1563L22.2219 27.8545L22.1407 27.4889L21.6532 27.2451C21.6532 27.2451 16.6157 29.0732 16.1282 29.7639C16.1282 29.7639 15.7219 29.967 15.3157 30.9826V35.9795H36.0751V36.0201Z" fill="#353944"/>
<path d="M28.7217 28.5861H22.7092C23.2374 27.0424 23.2374 25.3768 22.7092 23.833H28.7217C28.2342 25.3768 28.2342 27.0424 28.7217 28.5861Z" fill="#F0B97C"/>
<path d="M24.7813 36.0201H26.6907L27.1376 34.6795L27.8688 32.5264L29.4126 27.8545H22.2219L24.3344 34.517L24.7813 36.0201Z" fill="#FDFEFF"/>
<path d="M27.3406 36.0201L27.1781 34.8826L27.1375 34.6795L26.8531 32.9732L26.325 29.6826H25.1062L24.5781 32.9732L24.3343 34.517L24.2937 34.8826L24.0906 36.0201H27.3406Z" fill="#F1592F"/>
<path d="M25.7156 27.8545L28.3562 26.4326L27.6656 29.4389C27.6656 29.3982 26.975 28.5857 25.7156 27.8545Z" fill="#E8E7E8"/>
<path d="M27.0969 28.8295L26.325 29.6826H25.1063L24.375 28.8295C24.7 28.5451 25.1469 28.1795 25.7563 27.8545C26.2844 28.1795 26.7719 28.5451 27.0969 28.8295Z" fill="#E34E30"/>
<path d="M27.6249 36.0207L30.0217 31.2676L28.9655 30.7801L30.2249 29.927L29.778 27.2863L28.3561 26.3926V26.4738L28.0311 27.8551L27.8686 28.5863L27.6655 29.3988L26.853 32.9738L26.1624 36.0207H27.6249Z" fill="#656D7A"/>
<path d="M25.7156 27.8545L23.075 26.4326L23.7656 29.4389C23.7656 29.3982 24.4562 28.5857 25.7156 27.8545Z" fill="#E8E7E8"/>
<path d="M21.4094 31.2676L23.8063 36.0207H25.2688L24.5782 32.9738L23.7657 29.3988L23.5625 28.5863L23.4 27.8551L23.075 26.4738V26.3926L21.6532 27.2863L21.2063 29.927L22.4657 30.7801L21.4094 31.2676Z" fill="#656D7A"/>
<path d="M29.9152 21.8989C30.3129 21.9688 30.755 21.3448 30.9026 20.5051C31.0502 19.6654 30.8475 18.928 30.4497 18.858C30.0519 18.7881 29.6098 19.4122 29.4622 20.2519C29.3146 21.0916 29.5174 21.829 29.9152 21.8989Z" fill="#F0B97C"/>
<path d="M20.4343 20.5018C20.5968 21.3549 21.0031 21.9643 21.4093 21.883C21.8156 21.8018 22.0187 21.0705 21.8562 20.258C21.4906 18.2268 20.0687 18.5112 20.4343 20.5018Z" fill="#F0B97C"/>
<path d="M30.3062 19.4053C30.3062 23.3865 27.3 26.4334 25.675 26.4334C24.0093 26.4334 21.0437 23.3865 21.0437 19.4053C21.0437 16.724 23.1156 13.3115 25.675 13.3115C28.2343 13.3115 30.3062 16.7646 30.3062 19.4053Z" fill="#F7CFA3"/>
<path d="M29.9814 18.5109C29.9814 19.0391 29.9001 19.5266 29.7376 19.9734L30.3876 19.8922C30.7126 19.2016 30.9158 18.3891 30.9158 17.5766C30.9158 16.9672 30.7939 16.3578 30.6314 15.7891C30.347 15.9922 29.9814 16.2359 29.4939 16.4391C29.8189 17.0484 29.9814 17.7797 29.9814 18.5109Z" fill="#353944"/>
<path d="M31.078 15.3831C31.078 15.4644 30.9155 15.6269 30.6311 15.83C30.3467 16.0331 29.9811 16.2769 29.4936 16.48C26.6905 17.78 23.278 17.2519 21.8967 16.3581C21.2467 17.4956 21.1655 18.8362 21.5717 19.9737L20.9217 19.8925C18.1186 14.1644 26.1624 8.63936 31.078 15.3831Z" fill="#353944"/>
</g>
<defs>
<clipPath id="clip0_1194_3309">
<rect width="52" height="52" fill="white" transform="translate(0 0.5)"/>
</clipPath>
</defs>
</svg>
