<svg width="24" height="24" viewBox="0 0 24 24" fill="none" xmlns="http://www.w3.org/2000/svg">
<path d="M11.9803 7.8908C9.34511 7.8908 7.21753 10.0184 7.21753 12.6536V14.7328C7.21753 15.7482 8.03949 16.5944 9.07916 16.5944H9.39351V20.8737C9.39351 22.3244 10.5539 23.4847 12.0046 23.4847C13.4552 23.4847 14.6156 22.3243 14.6156 20.8737L14.6155 16.5942H14.9298C15.9452 16.5942 16.7915 15.7723 16.7915 14.7326V12.6534C16.7431 10.0425 14.6155 7.89062 11.9803 7.89062L11.9803 7.8908Z" fill="#D29434"/>
<path d="M15.2199 3.75621C15.2199 5.54549 13.7696 6.99582 11.9803 6.99582C10.1911 6.99582 8.74072 5.54549 8.74072 3.75621C8.74072 1.96711 10.1911 0.516602 11.9803 0.516602C13.7696 0.516602 15.2199 1.96711 15.2199 3.75621Z" fill="#D29434"/>
</svg>
