<svg width="40" height="40" viewBox="0 0 40 40" fill="none" xmlns="http://www.w3.org/2000/svg">
<mask id="mask0_1871_10617" style="mask-type:luminance" maskUnits="userSpaceOnUse" x="0" y="0" width="40" height="40">
<path d="M2 29V35C2 35.7956 2.31607 36.5587 2.87868 37.1213C3.44129 37.6839 4.20435 38 5 38H11M29 38H35C35.7956 38 36.5587 37.6839 37.1213 37.1213C37.6839 36.5587 38 35.7956 38 35V29M38 11V5C38 4.20435 37.6839 3.44129 37.1213 2.87868C36.5587 2.31607 35.7956 2 35 2H29M2 11V5C2 4.20435 2.31607 3.44129 2.87868 2.87868C3.44129 2.31607 4.20435 2 5 2H11" stroke="white" stroke-width="4" stroke-linecap="round" stroke-linejoin="round"/>
<path d="M30.0014 20.0001L20.0014 30.0001L10.0014 20.0001C9.00138 19.0001 8.50138 17.0001 10.0014 15.0001C11.5014 13.0001 14.5014 13.0001 16.0014 14.0001C17.5014 15.0001 18.0014 16.0001 20.0014 16.0001C22.0014 16.0001 22.5014 15.0001 24.0014 14.0001C25.5014 13.0001 28.5014 13.0001 30.0014 15.0001C31.5014 17.0001 31.0014 19.0001 30.0014 20.0001Z" fill="#555555" stroke="white" stroke-width="4" stroke-linecap="round" stroke-linejoin="round"/>
</mask>
<g mask="url(#mask0_1871_10617)">
<path d="M-4 -4H44V44H-4V-4Z" fill="#CC0024"/>
</g>
</svg>
