<svg width="24" height="24" viewBox="0 0 24 24" fill="none" xmlns="http://www.w3.org/2000/svg">
<circle cx="12" cy="12" r="12" fill="#4326F3"/>
<path d="M12.0124 5.13477C10.9499 6.27986 7.29492 10.4888 7.29492 14.1719C7.29492 15.8574 8.19413 17.4148 9.65379 18.2578C11.1133 19.1004 12.9116 19.1004 14.371 18.2578C15.8307 17.4148 16.7299 15.8574 16.7299 14.1719C16.7299 10.4889 13.075 6.27999 12.0124 5.13477ZM11.0051 17.3183C10.9391 17.4625 10.7955 17.5553 10.6372 17.5558C10.5777 17.5551 10.5192 17.5421 10.4652 17.5179C9.5682 17.0981 8.87524 16.3385 8.53975 15.4066C8.47883 15.1998 8.58988 14.9818 8.79279 14.9096C8.9957 14.8374 9.21971 14.9362 9.30294 15.1348C9.5658 15.8626 10.1078 16.4553 10.8089 16.7819C10.9065 16.8268 10.9818 16.9086 11.0188 17.0093C11.0555 17.1101 11.0507 17.2214 11.0051 17.3183Z" fill="white"/>
</svg>
