<svg width="39" height="39" viewBox="0 0 39 39" fill="none" xmlns="http://www.w3.org/2000/svg">
<path d="M19.5 24.4131L17.4129 27.8941C17.1844 28.275 17.0625 28.7092 17.0625 29.151V29.2576C17.0625 30.6059 18.1518 31.6951 19.5 31.6951C20.8482 31.6951 21.9375 30.6059 21.9375 29.2576V29.151C21.9375 28.7092 21.8156 28.275 21.5871 27.8941L19.5 24.4131ZM20.7188 29.25C20.7188 29.9203 20.1703 30.4688 19.5 30.4688C18.8297 30.4688 18.2812 29.9203 18.2812 29.25V29.1434C18.2812 28.9225 18.3422 28.7092 18.4564 28.5187L19.5 26.7744L20.5436 28.5187C20.6578 28.7092 20.7188 28.9225 20.7188 29.1434V29.25Z" fill="black"/>
<path d="M14.625 29.25V29.1434C14.625 28.7016 14.5031 28.2674 14.2746 27.8865L12.1875 24.4131L10.1004 27.8941C9.87188 28.275 9.75 28.7092 9.75 29.151V29.2576C9.75 30.6059 10.8393 31.6951 12.1875 31.6951C13.5357 31.6951 14.625 30.5982 14.625 29.25ZM13.4062 29.25C13.4062 29.9203 12.8578 30.4688 12.1875 30.4688C11.5172 30.4688 10.9688 29.9203 10.9688 29.25V29.1434C10.9688 28.9225 11.0297 28.7092 11.1439 28.5187L12.1875 26.7744L13.2311 28.5187C13.3453 28.7092 13.4062 28.9225 13.4062 29.1434V29.25Z" fill="black"/>
<path d="M7.3125 29.25V29.1434C7.3125 28.7016 7.19063 28.2674 6.96211 27.8865L4.875 24.4131L2.78789 27.8941C2.55937 28.275 2.4375 28.7092 2.4375 29.151V29.2576C2.4375 30.6059 3.52676 31.6951 4.875 31.6951C6.22324 31.6951 7.3125 30.5982 7.3125 29.25ZM6.09375 29.25C6.09375 29.9203 5.54531 30.4688 4.875 30.4688C4.20469 30.4688 3.65625 29.9203 3.65625 29.25V29.1434C3.65625 28.9225 3.71719 28.7092 3.83145 28.5187L4.875 26.7744L5.91855 28.5187C6.03281 28.7092 6.09375 28.9225 6.09375 29.1434V29.25Z" fill="black"/>
<path d="M15.8438 30.5068L13.7566 33.9879C13.5281 34.3688 13.4062 34.8029 13.4062 35.2447V35.3514C13.4062 36.6996 14.4955 37.7889 15.8438 37.7889C17.192 37.7889 18.2812 36.6996 18.2812 35.3514V35.2447C18.2812 34.8029 18.1594 34.3688 17.9309 33.9879L15.8438 30.5068ZM17.0625 35.3438C17.0625 36.0141 16.5141 36.5625 15.8438 36.5625C15.1734 36.5625 14.625 36.0141 14.625 35.3438V35.2371C14.625 35.0162 14.6859 34.8029 14.8002 34.6125L15.8438 32.8682L16.8873 34.6125C17.0016 34.8029 17.0625 35.0162 17.0625 35.2371V35.3438Z" fill="black"/>
<path d="M8.53125 30.5068L6.44414 33.9879C6.21562 34.3688 6.09375 34.8029 6.09375 35.2447V35.3514C6.09375 36.6996 7.18301 37.7889 8.53125 37.7889C9.87949 37.7889 10.9688 36.6996 10.9688 35.3514V35.2447C10.9688 34.8029 10.8469 34.3688 10.6184 33.9879L8.53125 30.5068ZM9.75 35.3438C9.75 36.0141 9.20156 36.5625 8.53125 36.5625C7.86094 36.5625 7.3125 36.0141 7.3125 35.3438V35.2371C7.3125 35.0162 7.37344 34.8029 7.4877 34.6125L8.53125 32.8682L9.5748 34.6125C9.68906 34.8029 9.75 35.0162 9.75 35.2371V35.3438Z" fill="black"/>
<path d="M32.2724 4.87479L30.4671 1.866L28.6619 4.87479H23.1546V11.4789C22.69 11.2732 22.2025 11.1285 21.6998 11.0523C22.7509 6.80956 20.1611 2.51346 15.9183 1.45467C11.6755 0.395884 7.37945 2.98573 6.32828 7.23612C6.01597 8.48534 6.01597 9.79549 6.32828 11.0523C3.00718 11.5932 0.752494 14.7314 1.30093 18.0525C1.78081 20.9928 4.32495 23.156 7.31089 23.156H20.7171C21.555 23.156 22.3853 22.9808 23.1546 22.6457V35.9529C23.1546 36.9584 23.9773 37.781 24.9828 37.781H35.9515C36.957 37.781 37.7796 36.9584 37.7796 35.9529V4.87479H32.2724ZM29.2484 6.59627C29.2484 6.37538 29.3093 6.1621 29.4236 5.97167L30.4671 4.22733L31.5107 5.97167C31.625 6.1621 31.6859 6.37538 31.6859 6.59627V6.70292C31.6859 7.37323 31.1375 7.92167 30.4671 7.92167C29.7968 7.92167 29.2484 7.37323 29.2484 6.70292V6.59627ZM20.7171 21.9373H7.31089C4.62203 21.9373 2.43589 19.7512 2.43589 17.0623C2.43589 14.3734 4.62203 12.1873 7.31089 12.1873C9.99976 12.1873 12.1859 14.3734 12.1859 17.0623H13.4046C13.397 13.7945 10.83 11.1133 7.56988 10.9762C6.55679 7.41893 8.62105 3.70936 12.1859 2.69627C15.7507 1.68319 19.4527 3.74745 20.4582 7.31229C20.9533 9.05663 20.7248 10.9228 19.8183 12.492L20.8695 13.1014C21.0294 12.8195 21.1818 12.5224 21.3037 12.2254C23.9773 12.5529 25.874 14.9828 25.5464 17.6564C25.257 20.1015 23.1775 21.9373 20.7171 21.9373ZM28.0296 36.5623H24.9828C24.6476 36.5623 24.3734 36.2881 24.3734 35.9529V21.9373H24.3658C26.4148 20.4062 27.2908 17.7555 26.5443 15.3027L28.022 16.1939V36.5623H28.0296ZM31.6859 29.2498H30.4671V30.4685H31.6859V32.906H30.4671V34.1248H31.6859V36.5623H29.2484V26.8123H31.6859V29.2498ZM36.5609 35.9529C36.5609 36.2881 36.2867 36.5623 35.9515 36.5623H32.9046V16.1787L36.5609 13.8935V35.9529ZM36.5609 12.4615L31.6859 15.5084V18.281H30.4671V19.4998H31.6859V21.9373H30.4671V23.156H31.6859V25.5935H29.2484V15.5008L25.4322 13.2156C25.1199 12.8348 24.7619 12.492 24.3734 12.1949V11.5855H36.5609V12.4615ZM36.5609 10.3592H24.3734V6.09354H28.083C28.0449 6.26112 28.0296 6.4287 28.0296 6.59627V6.70292C28.0296 8.05116 29.1189 9.14042 30.4671 9.14042C31.8154 9.14042 32.9046 8.05116 32.9046 6.70292V6.59627C32.9046 6.4287 32.8894 6.2535 32.8513 6.09354H36.5609V10.3592Z" fill="black"/>
</svg>
