<svg width="69" height="74" viewBox="0 0 69 74" fill="none" xmlns="http://www.w3.org/2000/svg">
<path d="M6.43784 58.3631C6.10559 58.3613 5.77625 58.4252 5.46862 58.551C5.16099 58.6767 4.8811 58.862 4.64493 59.0962C4.40876 59.3304 4.22092 59.6088 4.09217 59.9158C3.96341 60.2227 3.89627 60.552 3.89453 60.8849C3.89453 61.5608 4.16247 62.2089 4.63943 62.6869C5.11639 63.1648 5.76332 63.4333 6.43784 63.4333C7.11236 63.4333 7.75925 63.1648 8.23621 62.6869C8.71316 62.2089 8.98111 61.5608 8.98111 60.8849C8.97937 60.552 8.91222 60.2227 8.78347 59.9158C8.65472 59.6088 8.46692 59.3304 8.23075 59.0962C7.99458 58.862 7.71468 58.6767 7.40706 58.551C7.09943 58.4252 6.77009 58.3613 6.43784 58.3631Z" fill="#AE7003"/>
<path d="M62.4828 46.683C61.8296 46.6909 61.1932 46.8921 60.6539 47.2615C60.1146 47.6308 59.6963 48.1518 59.4517 48.7588C59.2072 49.3657 59.1473 50.0316 59.2795 50.6726C59.4117 51.3136 59.7302 51.9012 60.1949 52.3612C60.6595 52.8213 61.2496 53.1334 61.8909 53.2582C62.5322 53.3831 63.196 53.3151 63.7988 53.0628C64.4016 52.8106 64.9165 52.3853 65.2786 51.8405C65.6408 51.2957 65.834 50.6558 65.8341 50.0012C65.8359 49.5616 65.7502 49.126 65.5819 48.72C65.4136 48.314 65.1662 47.9457 64.8541 47.6367C64.542 47.3277 64.1715 47.0842 63.7644 46.9204C63.3572 46.7567 62.9215 46.676 62.4828 46.683Z" fill="#AE7003"/>
<path d="M61.6883 71.6358H33.9902L34.1227 51.7267C40.8992 51.4643 47.3026 48.5489 51.957 43.6068C56.6113 38.6648 59.1453 32.0906 59.0143 25.2968C58.8833 18.5029 56.0979 12.0317 51.2565 7.27343C46.4151 2.5152 39.9042 -0.150269 33.1226 -0.150269C26.341 -0.150269 19.8301 2.5152 14.9887 7.27343C10.1473 12.0317 7.36188 18.5029 7.23091 25.2968C7.09994 32.0906 9.63389 38.6648 14.2883 43.6068C18.9426 48.5489 25.346 51.4643 32.1225 51.7267L32.255 71.6358H16.4654C16.2546 71.6358 16.0524 71.7197 15.9034 71.8691C15.7543 72.0184 15.6706 72.221 15.6706 72.4322C15.6706 72.6434 15.7543 72.846 15.9034 72.9953C16.0524 73.1447 16.2546 73.2286 16.4654 73.2286H61.5028C61.7085 73.2132 61.9019 73.1244 62.0478 72.9782C62.1937 72.8321 62.2823 72.6383 62.2976 72.4322C62.3167 72.339 62.3157 72.2427 62.2945 72.1499C62.2732 72.0572 62.2323 71.97 62.1745 71.8945C62.1167 71.819 62.0434 71.7568 61.9595 71.7122C61.8756 71.6675 61.7831 71.6415 61.6883 71.6358ZM33.9902 51.0631C33.8578 50.7976 32.5199 50.7976 32.255 51.0631V41.5067L24.3072 36.5958C24.1855 36.5336 24.0838 36.4385 24.0135 36.3211C23.9432 36.2038 23.9073 36.069 23.9098 35.9322V30.8885C23.9349 30.6933 24.0301 30.514 24.1776 30.384C24.3251 30.2541 24.5148 30.1824 24.7112 30.1824C24.9076 30.1824 25.0973 30.2541 25.2448 30.384C25.3923 30.514 25.4875 30.6933 25.5126 30.8885V35.4013L32.1358 39.3831V28.1013L25.9232 25.0486C25.744 24.9456 25.6063 24.7832 25.5337 24.5893C25.4612 24.3955 25.4584 24.1824 25.5259 23.9867C25.631 23.8061 25.7954 23.6677 25.9911 23.595C26.1868 23.5224 26.4016 23.5201 26.5988 23.5885L32.0828 26.2431V20.934C32.1079 20.7388 32.2031 20.5595 32.3506 20.4295C32.4981 20.2995 32.6878 20.2278 32.8842 20.2278C33.0806 20.2278 33.2703 20.2995 33.4178 20.4295C33.5653 20.5595 33.6605 20.7388 33.6856 20.934V32.614L38.6397 28.8976V24.3849C38.6648 24.1897 38.76 24.0104 38.9075 23.8804C39.055 23.7504 39.2447 23.6787 39.4411 23.6787C39.6375 23.6787 39.8272 23.7504 39.9747 23.8804C40.1222 24.0104 40.2174 24.1897 40.2425 24.3849V29.4286C40.245 29.5654 40.2091 29.7001 40.1388 29.8175C40.0685 29.9348 39.9668 30.03 39.8451 30.0922L33.5531 34.8704L33.9505 51.0631H33.9902Z" fill="#363434"/>
<path d="M64.271 12.6253L66.6288 10.276L68.9999 12.6253L66.6288 14.9613L64.271 12.6253Z" fill="#AE7003"/>
<path d="M0 37.6311L2.35784 35.2819L4.72893 37.6311L2.35784 39.9804L0 37.6311Z" fill="#D9BA83"/>
<path d="M21.7505 58.4295L24.1216 56.0802L26.4927 58.4295L24.1216 60.7787L21.7505 58.4295Z" fill="#AE7003"/>
</svg>
