<svg width="19" height="39" viewBox="0 0 19 39" fill="none" xmlns="http://www.w3.org/2000/svg">
<g clip-path="url(#clip0_1871_10629)">
<path fill-rule="evenodd" clip-rule="evenodd" d="M11.6142 4.47001C11.6142 3.65756 11.2925 2.91827 10.7732 2.38248C10.2546 1.84669 9.53975 1.51363 8.75336 1.51363C7.96697 1.51363 7.25213 1.84669 6.73279 2.38248C6.21418 2.91827 5.89254 3.65756 5.89254 4.47001V25.1586C3.91033 26.2088 2.55443 28.3406 2.55443 30.8C2.55443 34.2998 5.30016 37.1365 8.68771 37.1365C12.0745 37.1365 14.8202 34.2998 14.8202 30.8C14.8202 28.3954 13.5241 26.3041 11.6142 25.2302V4.47001ZM14.6262 7.20918V5.83731H18.0861C18.2622 5.83731 18.431 5.90958 18.5555 6.03822C18.68 6.16685 18.75 6.34132 18.75 6.52325C18.75 6.70517 18.68 6.87964 18.5555 7.00828C18.431 7.13691 18.2622 7.20918 18.0861 7.20918H14.6262ZM14.6262 10.9544V9.58252H18.0861C18.2622 9.58252 18.431 9.65479 18.5555 9.78342C18.68 9.91206 18.75 10.0865 18.75 10.2685C18.75 10.4504 18.68 10.6248 18.5555 10.7535C18.431 10.8821 18.2622 10.9544 18.0861 10.9544H14.6262ZM14.6262 14.6996V13.3277H18.0861C18.2622 13.3277 18.431 13.4 18.5555 13.5286C18.68 13.6573 18.75 13.8317 18.75 14.0137C18.75 14.1956 18.68 14.3701 18.5555 14.4987C18.431 14.6273 18.2622 14.6996 18.0861 14.6996H14.6262ZM14.6262 18.4448V17.0729H18.0861C18.2622 17.0729 18.431 17.1452 18.5555 17.2738C18.68 17.4025 18.75 17.5769 18.75 17.7589C18.75 17.9408 18.68 18.1153 18.5555 18.2439C18.431 18.3725 18.2622 18.4448 18.0861 18.4448H14.6262ZM14.6262 22.19V20.8181H18.0861C18.2622 20.8181 18.431 20.8904 18.5555 21.019C18.68 21.1477 18.75 21.3222 18.75 21.5041C18.75 21.686 18.68 21.8605 18.5555 21.9891C18.431 22.1177 18.2622 22.19 18.0861 22.19H14.6262ZM13.0793 23.9689C15.2164 25.4383 16.6247 27.9488 16.6247 30.8C16.6247 35.3287 13.0711 39 8.68771 39C4.30352 39 0.75 35.3287 0.75 30.8C0.75 27.8909 2.21656 25.3362 4.42672 23.8805V4.47001C4.42672 3.2399 4.91361 2.12183 5.69705 1.31242C6.48123 0.502257 7.56271 0 8.75336 0C9.94328 0 11.0255 0.502257 11.8097 1.31242C12.5931 2.12183 13.0793 3.2399 13.0793 4.47001V23.9689Z" fill="black"/>
<path fill-rule="evenodd" clip-rule="evenodd" d="M9.93504 26.3209C11.8191 26.8803 13.1972 28.6737 13.1972 30.8001C13.1972 33.3739 11.1781 35.4599 8.68685 35.4599C6.19562 35.4599 4.17578 33.3739 4.17578 30.8001C4.17578 28.6744 5.55455 26.8803 7.43791 26.3209V5.27567C7.43791 3.67286 9.93504 3.73612 9.93504 5.27567V26.3209Z" fill="#EF1C25"/>
</g>
<defs>
<clipPath id="clip0_1871_10629">
<rect width="18" height="39" fill="white" transform="translate(0.75)"/>
</clipPath>
</defs>
</svg>
