<svg width="80" height="82" viewBox="0 0 80 82" fill="none" xmlns="http://www.w3.org/2000/svg">
<path d="M18.9113 76.4527C18.6088 76.8501 18.228 77.1811 17.7924 77.4254C17.3568 77.6696 16.8757 77.8218 16.3788 77.8725C15.882 77.9232 15.3801 77.8714 14.9041 77.7202C14.4281 77.569 13.9882 77.3217 13.6117 76.9936C12.8708 76.3555 12.4017 75.4585 12.3003 74.486C12.1988 73.5135 12.4727 72.539 13.066 71.7618L14.1147 70.4069C15.6279 68.3905 16.5375 65.9859 16.7377 63.4728C16.9379 60.9597 16.4204 58.4414 15.2454 56.2109C13.5689 52.9471 12.2327 49.5194 11.2581 45.982C10.7315 41.8483 13.1934 43.1586 13.7253 43.2251C13.683 40.1145 14.301 37.0304 15.5386 34.1764C16.4288 32.8416 17.3875 33.9408 18.0647 33.9888C18.1119 33.4627 18.2216 32.9442 18.3913 32.444C18.9765 30.6113 22.3045 23.1278 24.456 25.1622C24.6366 25.397 24.7984 25.6456 24.94 25.9058C25.4514 25.7064 25.2005 25.7384 25.4178 25.4423L26.6669 23.6592C27.9445 21.9933 31.4472 17.8831 32.8999 17.698C33.8112 17.5819 34.3232 18.3354 34.6768 19.109C35.0525 18.7927 35.2681 18.4834 35.6439 18.1671C37.1793 16.6294 41.5533 12.9316 43.389 12.6978C44.1946 12.5951 44.565 13.5009 44.7997 14.2897L47.1407 12.6493C48.013 12.1221 48.6229 11.6418 49.629 11.111C51.399 9.99401 53.3278 9.151 55.3499 8.61056C56.5517 8.45746 56.5932 9.94193 56.6454 10.3513C59.2706 8.66739 62.065 7.26327 64.983 6.16202C65.7454 5.93068 69.1413 4.14255 69.3785 6.0047C69.6511 8.1442 68.3557 14.8319 67.717 17.0874C67.5069 17.651 67.2764 17.9488 67.3437 18.4771C67.7938 18.3634 68.2685 18.397 68.6981 18.573C70.8658 19.7866 67.1201 29.3633 66.4177 31.2243C67.2101 31.1234 68.1814 31.2681 68.3009 32.2057C68.5045 33.8038 66.263 38.4378 65.5252 40.0215L64.2094 42.2291C64.5974 42.3041 64.9719 42.4374 65.32 42.6245C65.5017 42.7277 65.6565 42.8722 65.772 43.0464C65.8874 43.2205 65.9602 43.4194 65.9846 43.6269C66.104 44.5646 64.0204 48.2256 63.4442 48.97C62.656 50.1576 61.851 51.213 60.8287 52.5646C60.4698 53.0129 60.2188 53.0449 60.0105 53.6217C60.6876 53.6697 61.3985 53.9818 61.4994 54.7742C61.6004 55.5666 61.0426 56.4563 60.2376 57.5117C59.1347 58.8849 57.8491 60.1008 56.4167 61.1256L54.1794 62.632C54.494 62.9945 55.0576 63.2046 55.14 63.8517C55.4294 66.1233 47.8528 68.8064 46.5321 68.9747C46.711 69.2203 48.8698 71.5221 44.2475 72.111C40.824 71.8694 37.431 71.304 34.1141 70.4224C31.6523 69.7873 29.0576 69.8944 26.6566 70.7305C24.2556 71.5665 22.1554 73.0941 20.6206 75.121L18.9113 76.4527Z" fill="#67BD8C"/>
<path d="M56.8143 70.3492L59.453 72.4154L57.4166 75.0772L54.791 73.0093L56.8143 70.3492Z" fill="#010101"/>
<path d="M74.2044 46.4182L76.8432 48.4844L74.805 51.133L72.168 49.08L74.2044 46.4182Z" fill="#010101"/>
<path d="M5.33818 32.8051L7.97526 34.8581L5.93883 37.5199L3.30007 35.4537L5.33818 32.8051Z" fill="#010101"/>
<path d="M35.1185 5.51081L37.7572 7.57702L35.7208 10.2388L33.0952 8.17094L35.1185 5.51081Z" fill="#010101"/>
<path d="M10.6648 74.9266C10.5565 74.2086 10.5962 73.4759 10.7814 72.7738C10.9666 72.0716 11.2934 71.4148 11.7418 70.8436L12.7773 69.4903C13.6965 68.3047 14.3713 66.9485 14.7627 65.5002C15.1542 64.052 15.2544 62.5405 15.0577 61.0532C14.8873 59.6366 14.4439 58.2665 13.7519 57.0188C12.0713 53.6515 10.6819 50.1467 9.59883 46.5426L9.56518 46.2784C9.40257 45.5496 9.41448 44.7927 9.59987 44.0694C9.78527 43.3461 10.1389 42.6769 10.632 42.1162C11.0379 41.703 11.5727 41.4407 12.1479 41.3728C12.3531 38.7698 13.0656 34.8809 14.1995 33.2467C14.439 32.8137 14.7944 32.4561 15.2258 32.2138C15.6572 31.9716 16.1476 31.8544 16.6419 31.8752L16.8928 31.8433C17.4375 30.3614 18.1081 28.9289 18.8974 27.5616C20.3381 25.0696 21.6377 23.6827 22.9415 23.3824C23.2514 23.2729 23.5811 23.2306 23.9086 23.2583C24.2361 23.286 24.5539 23.3831 24.841 23.5431L25.2551 22.685C25.9581 21.7768 27.1256 20.4067 28.4253 19.0199C30.8109 16.6759 31.8037 16.1468 32.6093 16.0442C32.976 15.986 33.3509 16.0052 33.7097 16.1005C34.0685 16.1957 34.4034 16.365 34.693 16.5974C35.8942 15.4915 40.5723 11.2316 43.0816 10.9119C43.475 10.855 43.8764 10.9004 44.2472 11.0435C44.618 11.1867 44.9458 11.4228 45.1989 11.7293L46.0676 11.0683C46.9116 10.424 47.6686 10.0457 48.5407 9.41115C50.5008 8.16646 52.6504 7.24892 54.9052 6.69452C55.3466 6.65224 55.7918 6.71313 56.2057 6.87235C56.6196 7.03157 56.9909 7.28477 57.2902 7.612C59.5143 6.31358 61.8413 5.20016 64.2477 4.28299C64.3205 4.28249 64.3923 4.26587 64.4579 4.2343C64.5235 4.20274 64.5813 4.15701 64.6271 4.10044C66.4088 3.33662 68.2055 2.69167 69.5304 3.61C69.8625 3.80926 70.1426 4.0844 70.3478 4.41288C70.5529 4.74136 70.6773 5.11383 70.7106 5.49967C71.0169 7.9033 69.7046 14.4589 69.0811 16.8333C69.5097 17.1022 69.8696 17.4675 70.1321 17.9001C70.3946 18.3327 70.5524 18.8206 70.593 19.3249C70.8992 21.7286 69.6921 25.949 68.2857 29.6579C68.4362 29.7863 68.5683 29.7695 68.5851 29.9016C68.8664 30.1116 69.1033 30.3752 69.2822 30.6772C69.4612 30.9792 69.5787 31.3135 69.628 31.6611C69.7138 32.3346 69.9174 33.9327 66.7209 40.4465L66.7394 40.5918L66.563 41.4195C67.1508 41.8913 67.5277 42.5768 67.6111 43.326C67.85 45.2013 64.8108 49.7893 64.8276 49.9214L63.9074 51.1257C63.4208 51.7508 62.9659 52.4 62.5447 53.0709C62.8739 53.4759 63.0807 53.9663 63.1408 54.4847C63.1933 55.1516 63.091 55.8215 62.8418 56.4423C62.5926 57.063 62.2034 57.6178 61.7043 58.0633L61.4871 58.3593C60.2944 59.8736 58.8795 61.1987 57.2904 62.2895L56.5353 62.7884L56.6042 63.3299C56.9105 65.7335 54.1581 67.3055 52.0287 68.3954C50.9178 68.9586 49.7603 69.4249 48.5692 69.789C48.6044 70.2792 48.5033 70.7696 48.2769 71.2059C48.0506 71.6421 47.708 72.0073 47.287 72.2608C46.3143 72.8691 45.212 73.2394 44.0694 73.3418L43.6732 73.3922C40.1675 73.0943 36.6881 72.5417 33.2625 71.739C31.1097 71.1962 28.8453 71.2933 26.7469 72.0183C24.6484 72.7434 22.8071 74.0649 21.4486 75.821L20.1826 77.472C19.7502 78.0465 19.2061 78.5275 18.5828 78.8859C17.9596 79.2444 17.2702 79.473 16.5562 79.5579C15.8304 79.6317 15.0972 79.5601 14.3994 79.3471C13.7017 79.1341 13.0534 78.784 12.4926 78.3174C11.4973 77.4422 10.8487 76.2392 10.6648 74.9266ZM18.2405 60.6477C18.7627 64.5466 17.7161 68.4934 15.3304 71.6211L14.308 72.9727C14.1191 73.2059 13.9808 73.4759 13.9022 73.7656C13.8235 74.0552 13.8062 74.3581 13.8513 74.6548C13.8717 74.9 13.9431 75.1383 14.0607 75.3544C14.1784 75.5705 14.3398 75.7596 14.5346 75.9099C14.9699 76.2659 15.5257 76.4403 16.0864 76.3967C16.6056 76.2862 17.0844 76.0348 17.4701 75.6701L18.7229 74.0208C20.4591 71.7524 22.8278 70.0484 25.5306 69.1237C28.2334 68.199 31.1494 68.095 33.9112 68.8246C37.1116 69.6049 40.3657 70.1459 43.6464 70.443C44.0522 70.4289 44.4508 70.3325 44.8182 70.1595L44.7997 70.0142C44.6376 69.9007 44.6208 69.7686 44.455 69.5213C44.3625 69.279 44.3228 69.0198 44.3384 68.7609C44.354 68.502 44.4246 68.2494 44.5456 68.02C44.6672 67.7897 44.8433 67.5926 45.0586 67.4458C45.2738 67.2991 45.5216 67.2073 45.7805 67.1782C47.1176 66.8632 48.4089 66.3785 49.6231 65.7358C50.7801 65.3278 51.8405 64.6856 52.738 63.8492C52.5759 63.7357 52.5591 63.6036 52.4102 63.4884C52.2579 63.3124 52.1423 63.1077 52.0703 62.8864C51.9983 62.6651 51.9714 62.4316 51.991 62.1997C52.0316 61.9593 52.1214 61.7299 52.2547 61.5259C52.3881 61.3218 52.5622 61.1475 52.766 61.0138L55.0033 59.5075C56.3202 58.593 57.4912 57.4845 58.4766 56.2197L58.6938 55.9236L59.2684 55.1659C58.8041 55.0236 58.394 54.7435 58.0924 54.3629C57.9495 54.1193 57.8694 53.8441 57.8592 53.5619C57.849 53.2798 57.9091 52.9995 58.0341 52.7464C58.259 52.2926 58.5667 51.8847 58.9411 51.5437L59.1848 51.2442C59.7552 50.5289 60.2828 49.7805 60.7648 49.0029C61.1106 48.5563 61.3225 48.1132 61.6683 47.6665C62.5123 46.4304 63.2212 45.1072 63.7826 43.7197L63.6373 43.7383C63.5053 43.7551 63.3563 43.6399 63.2243 43.6567C63.0088 43.5737 62.8148 43.4433 62.6564 43.2754C62.4979 43.1074 62.3792 42.9061 62.3088 42.6862C62.2198 42.4691 62.181 42.2346 62.1953 42.0004C62.2097 41.7662 62.2767 41.5382 62.3915 41.3336L63.5885 39.141C64.6733 37.1444 65.5297 35.0319 66.1415 32.8434C65.8516 32.8706 65.5594 32.8286 65.289 32.7207C65.0186 32.6128 64.7776 32.4422 64.5861 32.2229C64.4311 31.9903 64.3321 31.725 64.2968 31.4477C64.2615 31.1705 64.2908 30.8889 64.3825 30.6249C64.3657 30.4928 64.4809 30.3439 64.4641 30.2118C66.7513 23.9346 67.2206 21.298 67.1996 20.0794L67.0675 20.0962C66.8433 20.1353 66.613 20.1216 66.395 20.0562C66.177 19.9908 65.9773 19.8754 65.8116 19.7193C65.4953 19.3436 65.1807 18.9811 65.2755 18.5663C65.2263 17.9897 65.3333 17.4105 65.5853 16.8895C65.5889 16.7852 65.6283 16.6854 65.6969 16.6068C66.546 13.4341 67.0717 10.1835 67.2659 6.90484C66.6831 7.02606 66.1215 7.23329 65.5996 7.51974C65.4107 7.65303 65.187 7.72818 64.956 7.73594C62.2011 8.83819 59.5472 10.1777 57.0242 11.7393C56.7948 11.9013 56.5291 12.0046 56.2505 12.0401C55.9719 12.0756 55.6889 12.0422 55.4262 11.9429C55.1675 11.8079 54.9441 11.6141 54.7741 11.377C54.604 11.1399 54.492 10.8662 54.447 10.5779L54.4117 10.3006C52.8745 10.8552 51.3905 11.5473 49.9777 12.3686C49.1604 12.8246 48.3734 13.3328 47.6216 13.8901L45.2937 15.5288C45.0638 15.6897 44.7983 15.7923 44.5199 15.8278C44.2415 15.8633 43.9586 15.8305 43.6957 15.7323C43.4382 15.6382 43.212 15.4742 43.0423 15.2588C42.8727 15.0434 42.7663 14.785 42.7351 14.5126C40.4131 15.835 38.2777 17.4611 36.3855 19.3479C36.257 19.4984 36.1418 19.6473 36.0097 19.6641C35.8777 19.681 35.5336 20.1408 35.2995 20.3049C35.0844 20.4873 34.8273 20.6135 34.5513 20.6721C34.2753 20.7307 33.9891 20.7198 33.7183 20.6405C33.4527 20.561 33.2079 20.424 33.0011 20.2393C32.7943 20.0546 32.6307 19.8266 32.5219 19.5716L32.5051 19.4396C30.5997 20.9403 28.9219 22.7091 27.5238 24.691L26.2578 26.3421C26.1625 26.6349 25.987 26.8953 25.7514 27.0937C25.5158 27.2921 25.2294 27.4207 24.9245 27.4648C24.492 27.6081 24.0267 27.6207 23.587 27.501C23.2758 27.3288 23.0133 27.0806 22.8241 26.7795C22.1104 27.5416 21.5015 28.3955 21.0136 29.3186C20.3234 30.5022 19.7633 31.757 19.343 33.0612L19.2145 33.2117C19.0792 33.4694 19.023 33.7614 19.053 34.051C19.0943 34.2912 19.0689 34.5382 18.9794 34.7649C18.89 34.9917 18.74 35.1896 18.5458 35.3369C18.3752 35.4976 18.1718 35.6194 17.9497 35.6941C17.7275 35.7687 17.4918 35.7943 17.2588 35.7693C16.9017 35.7215 16.5639 35.5792 16.2802 35.3571C15.3151 37.7911 14.8213 40.3863 14.8252 43.0046C14.8466 43.2602 14.8138 43.5174 14.729 43.7595C14.6442 44.0016 14.5093 44.223 14.3332 44.4094C14.169 44.6143 13.948 44.7661 13.6979 44.8457C13.4477 44.9254 13.1796 44.9293 12.9273 44.8569C12.7952 44.8738 12.501 44.777 12.369 44.7939C12.3522 44.7961 12.3351 44.7948 12.3189 44.7899C12.3027 44.7851 12.2877 44.7769 12.2749 44.7659C12.2621 44.7548 12.2517 44.7412 12.2446 44.7259C12.2374 44.7105 12.2336 44.6938 12.2333 44.6769C12.2097 44.9945 12.2055 45.3133 12.2207 45.6314C13.2451 49.0125 14.5618 52.2981 16.1559 55.4509C17.3849 56.9179 18.115 58.7381 18.2405 60.6477Z" fill="#010101"/>
<path d="M13.5361 13.1861C13.4146 12.5107 13.4318 11.8177 13.5866 11.1492C13.7413 10.4806 14.0305 9.85055 14.4365 9.2973C14.8424 8.74404 15.3567 8.27915 15.948 7.93092C16.5393 7.58269 17.1953 7.35839 17.876 7.27167C18.5567 7.18495 19.248 7.23761 19.9077 7.42647C20.5674 7.61533 21.1818 7.93643 21.7135 8.37023C22.2452 8.80403 22.6831 9.34146 23.0006 9.94984C23.318 10.5582 23.5084 11.2248 23.5601 11.9091C23.6474 12.5656 23.6025 13.233 23.4281 13.8719C23.2537 14.5108 22.9532 15.1084 22.5443 15.6294C22.1355 16.1505 21.6266 16.5845 21.0475 16.9059C20.4684 17.2273 19.8309 17.4296 19.1724 17.501C17.854 17.669 16.5226 17.3101 15.4673 16.5022C14.412 15.6943 13.718 14.5027 13.5361 13.1861ZM20.1395 12.3449C20.0913 12.0077 19.9446 11.6923 19.7179 11.4381C19.4912 11.1839 19.1946 11.0022 18.8651 10.9158C18.5356 10.8295 18.188 10.8422 17.8657 10.9525C17.5435 11.0628 17.261 11.2658 17.0535 11.5359C16.8461 11.806 16.723 12.1314 16.6996 12.4712C16.6762 12.811 16.7536 13.1501 16.922 13.4461C17.0905 13.7421 17.3426 13.9818 17.6466 14.1353C17.9507 14.2887 18.2933 14.349 18.6315 14.3086C19.0797 14.2226 19.4808 13.9752 19.7587 13.6133C20.0366 13.2513 20.1721 12.8 20.1395 12.3449Z" fill="#010101"/>
<path d="M64.0517 66.9038C63.9186 65.7552 64.1285 64.5929 64.6548 63.5633C65.1811 62.5337 66.0003 61.6829 67.0093 61.1181C68.0183 60.5533 69.1718 60.2997 70.3247 60.3893C71.4775 60.4789 72.578 60.9077 73.4876 61.6216C74.3972 62.3356 75.0751 63.3027 75.436 64.4013C75.7969 65.4998 75.8247 66.6806 75.5157 67.7948C75.2067 68.9091 74.5749 69.907 73.6998 70.6628C72.8247 71.4187 71.7456 71.8986 70.5982 72.0422C69.0513 72.2146 67.4985 71.7728 66.2742 70.8118C65.0498 69.8508 64.2517 68.4474 64.0517 66.9038ZM72.3588 65.8455C72.32 65.5134 72.2157 65.1922 72.052 64.9005C71.8883 64.6089 71.6684 64.3526 71.405 64.1466C71.1416 63.9405 70.8399 63.7886 70.5175 63.6999C70.195 63.6111 69.8582 63.5872 69.5265 63.6295C69.0232 63.6883 68.5487 63.8953 68.1633 64.2243C67.778 64.5533 67.4991 64.9894 67.3621 65.4772C67.2251 65.9651 67.2361 66.4826 67.3939 66.9641C67.5516 67.4456 67.8489 67.8694 68.2479 68.1816C68.647 68.4939 69.1298 68.6805 69.6351 68.7177C70.1405 68.755 70.6455 68.6412 71.086 68.3908C71.5265 68.1405 71.8827 67.7649 72.1093 67.3117C72.3359 66.8585 72.4228 66.3482 72.3588 65.8455Z" fill="#010101"/>
</svg>
