<svg width="62" height="62" viewBox="0 0 62 62" fill="none" xmlns="http://www.w3.org/2000/svg">
<path d="M25.4939 6.3964C24.8111 5.95312 24.0303 5.6813 23.2187 5.60422C22.674 5.56787 22.1277 5.64494 21.6147 5.83054C21.6065 6.3812 21.7232 6.92661 21.9559 7.42628C22.2486 8.20727 22.7672 8.88459 23.4462 9.37285C24.1532 9.8709 24.9921 10.1504 25.858 10.1764C26.3843 10.1974 26.9097 10.1167 27.4051 9.93871C27.4017 9.38805 27.2815 8.8443 27.0525 8.34297C26.6935 7.58155 26.1596 6.91475 25.4939 6.3964Z" fill="#D9BA83"/>
<path d="M24.6862 15.6539C23.7085 14.9724 22.5568 14.58 21.3644 14.5222C20.5111 14.523 19.6617 14.6371 18.8389 14.8617C18.8686 15.7166 19.0219 16.5627 19.2939 17.3742C19.7096 18.4981 20.4254 19.488 21.3644 20.2374C22.3716 20.9279 23.555 21.3203 24.7772 21.3691C25.594 21.37 26.4066 21.2518 27.189 21.0183C27.1693 20.203 27.0156 19.3963 26.7339 18.6304C26.3295 17.4747 25.6227 16.4473 24.6862 15.6539Z" fill="#D9BA83"/>
<path d="M32.8431 11.3194C33.5511 10.8116 34.0741 10.0888 34.3334 9.25968C34.5815 8.72059 34.7021 8.13214 34.6861 7.53947C34.1184 7.40857 33.5393 7.33275 32.9569 7.31311C32.1292 7.31836 31.3274 7.60152 30.6817 8.11666C29.9742 8.62503 29.4514 9.34765 29.1914 10.1764C29.0776 10.6291 28.9639 11.0818 28.8501 11.659V11.7721C29.3769 11.8952 29.9137 11.971 30.4541 11.9985C30.8779 12.0585 31.3097 12.029 31.7213 11.912C32.1329 11.795 32.5152 11.5931 32.8431 11.3194Z" fill="#D9BA83"/>
<path d="M23.4235 59.6328C23.4235 59.2933 23.3097 59.0669 23.3097 58.8293V58.7161C23.3097 58.4897 23.196 58.2634 23.196 57.9239V57.8107C23.196 57.573 23.0822 57.2335 23.0822 57.0072V56.894C23.0932 56.6215 23.0547 56.3493 22.9684 56.0905V53.3517C22.9624 47.4766 20.6137 41.8437 16.4377 37.6894C12.2618 33.535 6.59964 31.1985 0.693925 31.1925H-1.14706e-05V34.1576C-0.0159161 34.3206 0.024184 34.4842 0.113748 34.6216C0.109013 34.7801 0.148381 34.9367 0.227508 35.0743V35.4139C0.210991 35.5785 0.255491 35.7435 0.352646 35.8779V36.1042C0.466408 36.8964 0.693932 37.5867 0.807694 38.3676H4.82347C4.93723 38.3676 4.93723 38.3676 5.05099 38.4808H5.16475C5.28989 38.4808 5.2899 38.4808 5.40366 38.594H5.51742C5.63118 38.594 5.63118 38.594 5.74494 38.7072H5.8587C5.97246 38.7072 5.97246 38.7072 6.08623 38.8204C6.1164 38.8204 6.14533 38.8323 6.16667 38.8535C6.188 38.8747 6.19999 38.9035 6.19999 38.9335C6.31375 38.9335 6.31375 38.9335 6.43888 39.0467C6.46905 39.0467 6.49799 39.0586 6.51932 39.0798C6.54066 39.1011 6.55264 39.1298 6.55264 39.1599C6.6664 39.1599 6.66641 39.1599 6.78017 39.273C6.79612 39.273 6.8119 39.2762 6.8265 39.2826C6.8411 39.289 6.85419 39.2983 6.86492 39.3101C6.87564 39.3218 6.88377 39.3357 6.88877 39.3507C6.89377 39.3658 6.89553 39.3817 6.89393 39.3975C7.00769 39.3975 7.00769 39.3975 7.12145 39.5107C7.15162 39.5107 7.18056 39.5226 7.20189 39.5438C7.22322 39.5651 7.23521 39.5939 7.23521 39.6239C7.34897 39.6239 7.34898 39.7371 7.46274 39.7371C7.49291 39.7371 7.52184 39.749 7.54318 39.7702C7.56451 39.7914 7.5765 39.8202 7.5765 39.8502C7.70164 39.8502 7.70163 39.9634 7.8154 39.9634C7.84557 39.9634 7.8745 39.9753 7.89584 39.9965C7.91717 40.0178 7.92916 40.0465 7.92916 40.0766C8.04292 40.0766 8.04292 40.1897 8.15668 40.1897C8.18686 40.1897 8.21579 40.2017 8.23712 40.2229C8.25846 40.2441 8.27044 40.2729 8.27044 40.3029C8.38421 40.3029 8.3842 40.4161 8.49796 40.4161C8.52813 40.4161 8.55708 40.428 8.57841 40.4492C8.59975 40.4704 8.61173 40.4992 8.61173 40.5292L8.72549 40.6424C8.74144 40.6423 8.75722 40.6456 8.77182 40.652C8.78642 40.6584 8.79951 40.6677 8.81024 40.6795C8.82096 40.6912 8.82909 40.7051 8.83409 40.7201C8.83909 40.7352 8.84085 40.7511 8.83925 40.7669L8.96439 40.8801L9.07815 40.9933L9.19191 41.1064L9.30567 41.2196L9.41944 41.3328L9.5332 41.4459L9.64696 41.5591L9.76072 41.6723L9.87448 41.7855L9.98825 41.9099L10.102 42.0231L10.2271 42.1363L10.3409 42.2495L10.4547 42.3626L10.5684 42.4758L10.6822 42.589L10.7959 42.7022L10.9097 42.8153L11.0235 42.9285L11.1372 43.0417L11.251 43.1662L11.3761 43.2793L11.4899 43.3925L11.6037 43.5057L11.7174 43.6189L11.8312 43.732L11.9449 43.8452L12.0587 43.9584L12.1725 44.0715L12.2862 44.1847L12.4 44.3092L12.5138 44.4224L12.6389 44.5356L12.7526 44.6487L12.8664 44.7619L12.9802 44.8751L13.0939 44.9882L13.2077 45.1014L13.3215 45.2146C13.3215 45.2446 13.3334 45.2734 13.3548 45.2946C13.3761 45.3158 13.405 45.3278 13.4352 45.3278L13.549 45.4409C13.549 45.4409 13.549 45.5654 13.6627 45.5654C13.7765 45.5654 13.7765 45.6786 13.7765 45.7918C13.7764 45.8076 13.7797 45.8233 13.7861 45.8379C13.7925 45.8524 13.8019 45.8654 13.8137 45.8761C13.8255 45.8868 13.8395 45.8949 13.8546 45.8998C13.8697 45.9048 13.8858 45.9065 13.9016 45.9049C13.9016 46.0181 14.0154 46.0181 14.0154 46.1313C14.0154 46.1613 14.0274 46.1901 14.0487 46.2113C14.0701 46.2325 14.099 46.2445 14.1292 46.2445C14.1292 46.3576 14.1292 46.3576 14.2429 46.4708C14.2429 46.5008 14.2549 46.5296 14.2762 46.5508C14.2976 46.572 14.3265 46.584 14.3567 46.584C14.3567 46.6972 14.3567 46.6971 14.4704 46.8216C14.4704 46.8516 14.4824 46.8804 14.5038 46.9017C14.5251 46.9229 14.554 46.9348 14.5842 46.9348C14.5842 47.048 14.5842 47.048 14.698 47.1612C14.698 47.1912 14.71 47.22 14.7313 47.2412C14.7526 47.2624 14.7816 47.2743 14.8117 47.2743C14.8117 47.3875 14.8117 47.3875 14.9255 47.5007C14.9254 47.5165 14.9287 47.5323 14.9351 47.5468C14.9415 47.5613 14.9509 47.5743 14.9627 47.585C14.9745 47.5956 14.9885 47.6037 15.0036 47.6087C15.0187 47.6137 15.0348 47.6154 15.0506 47.6139C15.0506 47.727 15.0506 47.727 15.1644 47.8402V47.9534C15.1644 48.0778 15.1644 48.0779 15.2781 48.191V55.2643C15.2865 55.3275 15.2806 55.3918 15.261 55.4525C15.2413 55.5132 15.2083 55.5687 15.1644 55.6152V55.7283C15.1644 55.8415 15.0506 56.0679 15.0506 56.181C17.2826 57.4722 19.6723 58.4725 22.1607 59.1575C22.6271 59.2706 23.0822 59.3838 23.4235 59.497V59.3838C23.5372 60.1986 23.5372 59.8591 23.4235 59.6328Z" fill="#363434"/>
<path d="M31.0113 24.1985H31.2388C32.4642 24.1671 33.6524 23.7731 34.6517 23.0668C35.6107 22.3437 36.3283 21.3498 36.7108 20.2148C36.9857 19.4037 37.1428 18.5577 37.1772 17.7024C36.3529 17.4831 35.5048 17.3653 34.6517 17.3516C33.4615 17.4384 32.3137 17.8281 31.3185 18.4833C30.3224 19.177 29.5924 20.1864 29.248 21.3466C29.0423 22.0164 28.8902 22.7013 28.793 23.395V23.7458C29.4808 24.0481 30.2252 24.2024 30.9772 24.1985H31.0113Z" fill="#D9BA83"/>
<path d="M27.337 35.4139V22.399C26.5526 22.6218 25.7411 22.736 24.9253 22.7385H24.6864C23.1686 22.6999 21.6946 22.2243 20.4431 21.3691C19.2661 20.5006 18.3528 19.3257 17.8038 17.974C17.4223 16.8314 17.2264 15.6356 17.2236 14.4317C17.2281 14.2846 17.2742 14.1417 17.3568 14.0196C17.4393 13.8974 17.5548 13.801 17.6901 13.7413C18.8333 13.342 20.0394 13.1504 21.2508 13.1755C22.6893 13.262 24.0772 13.7353 25.2666 14.5448C25.9633 15.1078 26.5795 15.7627 27.0981 16.4914V11.2289C26.5743 11.3687 26.0361 11.4484 25.4941 11.4665H25.2666C24.1107 11.4724 22.983 11.1116 22.0471 10.4367C21.1537 9.77039 20.4771 8.85724 20.1018 7.81106C19.7671 6.97295 19.6084 6.07558 19.6354 5.17416C19.6392 5.02833 19.6853 4.88671 19.768 4.76627C19.8507 4.64583 19.9666 4.55167 20.1018 4.49511C20.94 4.16714 21.8466 4.05052 22.7411 4.15561C23.8485 4.19775 24.9213 4.55087 25.8354 5.17416C26.2084 5.48849 26.5546 5.83296 26.8706 6.20403V3.46524C26.858 3.36794 26.8664 3.26909 26.8952 3.17526C26.924 3.08144 26.9726 2.99481 27.0378 2.92114C27.1029 2.84747 27.1831 2.78846 27.2729 2.74803C27.3628 2.70761 27.4603 2.6867 27.5589 2.6867C27.6575 2.6867 27.755 2.70761 27.8448 2.74803C27.9347 2.78846 28.0148 2.84747 28.08 2.92114C28.1451 2.99481 28.1937 3.08144 28.2225 3.17526C28.2513 3.26909 28.2597 3.36794 28.2471 3.46524V7.99214C28.4922 7.63053 28.8051 7.3193 29.1686 7.07545C30.0594 6.39713 31.1526 6.03461 32.2743 6.04557C33.2129 6.02923 34.1464 6.18657 35.0273 6.50958C35.1726 6.54927 35.2987 6.63982 35.3823 6.76457C35.4659 6.88933 35.5014 7.0399 35.4823 7.18863C35.4991 8.12146 35.3449 9.04954 35.0273 9.92742C34.6349 10.9706 33.9571 11.884 33.0706 12.5643C32.138 13.2358 31.0138 13.5928 29.8625 13.5829H29.6805C29.1811 13.597 28.6817 13.5591 28.1902 13.4697V19.1849C28.6444 18.5047 29.2327 17.9233 29.9194 17.476C31.1104 16.668 32.4968 16.1913 33.9352 16.0953C35.1479 16.0654 36.3555 16.2611 37.4959 16.6725C37.6413 16.7122 37.7673 16.8027 37.8509 16.9274C37.9345 17.0522 37.97 17.2028 37.951 17.3515C37.9385 18.5538 37.7468 19.7475 37.3822 20.8938C36.9058 22.2857 35.9772 23.4802 34.7429 24.289C33.5224 25.2134 32.0217 25.6964 30.4882 25.6584H30.2607C29.5279 25.639 28.7976 25.5633 28.0765 25.432V35.0291C30.7194 31.2725 34.1703 28.1487 38.1785 25.8847C43.1369 23.0339 48.765 21.5385 54.4919 21.5502C56.2242 21.5328 57.9541 21.6844 59.6567 22.0029C57.754 15.7267 53.8793 10.2224 48.6011 6.2979C43.3229 2.37337 36.9192 0.235211 30.3298 0.197231C23.7404 0.159251 17.3122 2.22345 11.9887 6.08688C6.66518 9.95031 2.7266 15.4095 0.750977 21.6634C6.24487 21.7627 11.6219 23.2588 16.3704 26.0092C20.8635 28.0227 24.673 31.2896 27.337 35.4139ZM46.1646 18.1664L44.6743 20.6788L42.1943 19.1962L43.6846 16.6838L46.1646 18.1664ZM40.886 5.26468L43.4115 6.74724L41.9099 9.25967L39.3844 7.77711L40.886 5.26468ZM9.64712 12.055L11.1374 9.48603L13.6629 10.9686L12.1726 13.481L9.64712 12.055ZM14.5844 21.7653L12.0589 20.2827L13.5491 17.7703L16.0291 19.1962L14.5844 21.7653Z" fill="#363434"/>
<path d="M14.2428 53.0122V49.0964C14.2428 49.0664 14.2308 49.0377 14.2095 49.0164C14.1881 48.9952 14.1592 48.9833 14.129 48.9833V48.8701C14.0154 48.757 14.0154 48.757 13.9016 48.6438C13.9016 48.6279 13.8983 48.6122 13.8919 48.5977C13.8855 48.5831 13.8761 48.5701 13.8643 48.5595C13.8525 48.5488 13.8385 48.5407 13.8234 48.5357C13.8083 48.5308 13.7922 48.529 13.7764 48.5306C13.6625 48.4173 13.6625 48.4173 13.5488 48.3041C13.4352 48.191 13.4352 48.191 13.3214 48.0778C13.3213 48.0779 13.3213 47.9534 13.2076 47.9534C13.0938 47.8403 13.0938 47.8403 12.98 47.7271C12.8664 47.6139 12.8664 47.6139 12.7526 47.5007L12.6387 47.3875C12.6388 47.3717 12.6356 47.356 12.6291 47.3415C12.6227 47.3269 12.6133 47.3139 12.6015 47.3032C12.5897 47.2926 12.5758 47.2845 12.5606 47.2795C12.5455 47.2745 12.5295 47.2728 12.5136 47.2744L12.3998 47.1612C12.3998 47.1312 12.3879 47.1024 12.3665 47.0812C12.3452 47.06 12.3163 47.048 12.2861 47.048L12.1723 46.9349C12.1723 46.9048 12.1603 46.8761 12.139 46.8548C12.1177 46.8336 12.0887 46.8217 12.0586 46.8217L11.9448 46.6972C11.9448 46.6672 11.9328 46.6384 11.9115 46.6172C11.8902 46.596 11.8612 46.584 11.831 46.584L11.7173 46.4708C11.7173 46.4408 11.7053 46.412 11.684 46.3908C11.6626 46.3696 11.6337 46.3577 11.6035 46.3577L11.4898 46.2445L11.376 46.1313L11.2509 46.0182C11.2509 45.9881 11.2389 45.9594 11.2175 45.9381C11.1962 45.9169 11.1673 45.905 11.1371 45.905L11.0233 45.7918C11.0233 45.7618 11.0113 45.733 10.99 45.7118C10.9687 45.6905 10.9397 45.6787 10.9096 45.6787L10.6821 45.441L10.4545 45.2146L10.3408 45.1015L10.227 44.9883L10.1019 44.8751L9.98811 44.762L9.87434 44.6488L9.76058 44.5356L9.64682 44.4224L9.53306 44.3092L9.4193 44.1848L9.30553 44.0716L9.19177 43.9584L9.07801 43.8452L8.96425 43.7321L8.83911 43.6189L8.72536 43.5057L8.6116 43.3925L8.49783 43.2794L8.38407 43.1662C8.36812 43.1663 8.35234 43.163 8.33774 43.1567C8.32314 43.1503 8.31005 43.1409 8.29932 43.1292C8.2886 43.1174 8.28047 43.1036 8.27547 43.0885C8.27047 43.0734 8.26871 43.0575 8.27031 43.0417L8.15655 42.9285C8.12638 42.9285 8.09744 42.9166 8.07611 42.8954C8.05477 42.8742 8.04279 42.8454 8.04279 42.8154L7.92902 42.7022C7.89885 42.7022 7.86991 42.6903 7.84858 42.6691C7.82725 42.6478 7.81526 42.619 7.81526 42.589L7.7015 42.4758C7.7015 42.4758 7.57636 42.4758 7.57636 42.3627C7.34897 42.1364 7.34898 42.1364 7.12145 41.9101C7.10537 41.9101 7.08958 41.9068 7.07498 41.9004C7.06038 41.894 7.0473 41.8847 7.03657 41.873C7.02584 41.8612 7.01772 41.8474 7.01272 41.8323C7.00772 41.8172 7.00596 41.8013 7.00755 41.7855C6.89376 41.6723 6.89376 41.6723 6.78002 41.5592C6.66629 41.4461 6.6663 41.4461 6.5525 41.3329C6.52234 41.3328 6.4934 41.3209 6.47207 41.2997C6.45073 41.2785 6.43875 41.2497 6.43875 41.2197C6.43875 41.2197 6.31361 41.2196 6.31361 41.1065H6.19985C6.16968 41.1065 6.14074 41.0945 6.11941 41.0733C6.09807 41.0521 6.08609 41.0233 6.08609 40.9933H5.97233C5.94216 40.9933 5.91322 40.9814 5.89188 40.9601C5.87055 40.9389 5.85856 40.9101 5.85856 40.8801H2.99178C2.7547 40.898 2.51676 40.8592 2.29783 40.767H1.95654C4.1237 47.5381 8.58709 53.3504 14.5841 57.2109C14.5766 57.1495 14.583 57.0872 14.6027 57.0285C14.6223 56.9698 14.6548 56.9161 14.6978 56.8714V55.8868V54.0534C14.5058 53.7252 14.3531 53.3757 14.2428 53.0122Z" fill="#363434"/>
<path d="M61.6587 29.7099V27.6502C61.6726 27.4512 61.6333 27.2521 61.545 27.073V26.7335C61.5746 26.5374 61.5344 26.3372 61.4312 26.1676V25.93C61.4312 25.7036 61.3174 25.3641 61.3174 25.1378C61.3174 24.9114 61.2037 24.7983 61.2037 24.6738C61.2111 24.6123 61.2048 24.55 61.1851 24.4913C61.1654 24.4326 61.1329 24.3789 61.0899 24.3342C61.0899 24.1079 60.9761 23.9947 60.9761 23.7684V23.542C60.9845 23.4788 60.9786 23.4146 60.959 23.3539C60.9393 23.2932 60.9063 23.2376 60.8624 23.1912C59.0411 22.872 57.1942 22.7205 55.3449 22.7385C47.1562 22.7475 39.3054 25.9876 33.5151 31.748C27.7247 37.5083 24.4678 45.3185 24.4587 53.4648V56.7808C24.441 56.9764 24.4805 57.1729 24.5725 57.3467V57.8107C24.5548 58.0063 24.5943 58.2028 24.6862 58.3766C24.6815 58.535 24.7209 58.6917 24.8 58.8292C24.8 59.0669 24.9251 59.18 24.9251 59.4064C24.9204 59.5648 24.9598 59.7215 25.0389 59.8591C25.0389 60.0855 25.1527 60.2099 25.1527 60.4363C25.1527 60.6626 25.2664 60.6626 25.2664 60.889C25.2664 61.1153 25.2664 61.1153 25.3802 61.1153H25.7215C25.8853 61.0995 26.0497 61.1394 26.1879 61.2285H33.1842V61.1153C33.1842 61.0021 33.1842 61.0022 33.0705 60.889C32.9567 60.7758 32.9567 60.6626 32.9567 60.5494C32.9567 60.4363 32.9567 60.4363 32.8429 60.3231C32.7292 60.2099 32.7292 60.0854 32.7292 59.9723C32.7292 59.8591 32.7292 59.8591 32.6154 59.7459C32.5017 59.6328 32.5017 59.5196 32.5017 59.4064V59.1801C32.5085 59.1169 32.5019 59.053 32.4823 58.9926C32.4627 58.9322 32.4305 58.8765 32.3879 58.8292V58.6029C32.3879 58.4897 32.2741 58.3765 32.2741 58.2634V58.1502C32.2741 57.9238 32.149 57.8107 32.149 57.573V57.4599C32.166 57.3003 32.1257 57.1399 32.0352 57.0071V52.7745C32.0473 46.5361 34.5445 40.5567 38.9798 36.1465C43.415 31.7363 49.4267 29.2549 55.6976 29.2459H57.4154C57.6524 29.2289 57.8902 29.2677 58.1094 29.3591H58.2231C58.4565 29.3413 58.6907 29.3801 58.9057 29.4723C59.1332 29.4723 59.3721 29.5855 59.5996 29.5855H59.7134C59.9409 29.5855 60.1684 29.7099 60.396 29.7099H60.5211C60.7486 29.7099 60.9761 29.8231 61.2037 29.8231H61.3174C61.5449 29.9363 61.7839 29.9363 62.0114 30.0495V29.8571C61.6587 30.2758 61.6587 30.0494 61.6587 29.7099Z" fill="#363434"/>
<path d="M60.8622 32.1205C60.521 31.996 60.2821 31.996 60.0545 31.8829C59.827 31.8829 59.5995 31.7697 59.372 31.7697H59.2582C59.0193 31.7697 58.7918 31.6565 58.5643 31.6565H58.4505C58.223 31.6565 57.9841 31.5433 57.7565 31.5433H57.6428C57.4094 31.5612 57.1752 31.5223 56.9602 31.4302H55.231C49.3194 31.4362 43.6521 33.7774 39.4752 37.939C35.2982 42.1007 32.9535 47.7423 32.9565 53.6233V58.1502C32.9565 58.2634 32.9566 58.3766 33.0703 58.3766V58.6029C33.0703 58.7161 33.0703 58.8292 33.1841 58.8292V59.0669C33.1841 59.1801 33.1841 59.2933 33.2978 59.2933V59.5196C33.2978 59.6327 33.4116 59.7459 33.4116 59.8591V60.0854C33.4116 60.1986 33.5367 60.3231 33.5367 60.4363V60.5494C33.5367 60.6626 33.6505 60.889 33.6505 61.0021H33.7643C33.9613 61.0317 34.1626 60.9916 34.3331 60.889H34.5606C34.7609 60.9075 34.9623 60.8682 35.1408 60.7758H35.4821C35.6449 60.7803 35.806 60.7412 35.9485 60.6626C37.5525 60.3231 39.1565 59.8591 40.7606 59.4064C40.7606 59.3764 40.7486 59.3476 40.7273 59.3264C40.7059 59.3051 40.677 59.2933 40.6468 59.2933C40.6468 59.1801 40.5331 59.1801 40.5331 59.0669C40.5331 59.0369 40.5211 59.0081 40.4997 58.9869C40.4784 58.9656 40.4495 58.9537 40.4193 58.9537C40.4193 58.8292 40.3055 58.8292 40.3055 58.7161V58.6029C40.3055 58.4897 40.3055 58.4897 40.1918 58.3766V58.2634C40.1918 58.1502 40.1918 58.1502 40.078 58.037V57.9238C40.078 57.8107 40.078 57.6862 39.9643 57.6862V57.573C39.9643 57.4598 39.8505 57.3467 39.8505 57.2335C39.8505 57.1203 39.7367 57.0072 39.7367 56.7808V54.1552C39.7487 50.1898 41.3367 46.3901 44.1542 43.5851C46.9717 40.78 50.79 39.1974 54.776 39.1825H56.1525C56.3491 39.1649 56.5466 39.2042 56.7213 39.2956H56.8465C57.0445 39.2765 57.2436 39.3201 57.4153 39.4202C57.6428 39.4202 57.7565 39.5333 57.9841 39.5333H58.1206C58.3481 39.5333 58.4619 39.6465 58.6894 39.6465H58.8032C59.0307 39.6465 59.1444 39.7597 59.3833 39.7597H59.4971C59.7246 39.8728 59.8384 39.8728 60.0659 39.986C60.0659 39.8728 60.1797 39.7597 60.1797 39.6465V39.5333C60.1797 39.2956 60.2934 39.1825 60.2934 38.9561C60.2934 38.7298 60.2934 38.7298 60.4072 38.7298C60.521 38.7298 60.5323 38.3903 60.5323 38.2771C60.625 38.0198 60.6637 37.7463 60.6461 37.4736V37.3604C60.6461 37.1341 60.7599 36.8964 60.7599 36.67V36.4437C60.7599 36.2174 60.8736 35.991 60.8736 35.7533V35.6402C60.8736 35.4138 60.9874 35.1875 60.9874 34.848V34.7348C61.0818 34.1665 61.1199 33.5903 61.1011 33.0146H60.9874C61.3173 32.2224 61.0898 32.1205 60.8622 32.1205Z" fill="#363434"/>
<path d="M24.4588 43.5283C24.4588 43.4152 24.5726 43.1888 24.5726 43.0643C24.5726 42.9399 24.5726 42.9512 24.6863 42.838C24.8001 42.7248 24.8001 42.6117 24.8001 42.4985C24.8001 42.3853 24.8001 42.3853 24.9252 42.2721C25.0504 42.159 25.039 42.0458 25.039 41.9326C25.039 41.8194 25.039 41.8081 25.1527 41.6949C25.2665 41.5818 25.2665 41.4686 25.3803 41.2423V41.1744C25.494 40.948 25.494 40.8348 25.6078 40.5972C25.6078 40.5671 25.6198 40.5384 25.6411 40.5171C25.6624 40.4959 25.6914 40.484 25.7216 40.484C25.8353 40.3708 25.8353 40.2576 25.9491 40.0313C26.0628 39.805 26.0628 39.9181 26.0628 39.805C26.0628 39.6918 26.188 39.5786 26.3017 39.4654C26.4155 39.3523 26.4155 39.341 26.4155 39.2278C26.4155 39.1146 26.5293 39.0014 26.643 38.8883C26.643 38.8583 26.655 38.8295 26.6763 38.8083C26.6977 38.787 26.7266 38.7751 26.7568 38.7751C26.8705 38.5488 26.9843 38.4356 26.9843 38.1979C27.0981 37.9716 27.2118 37.8584 27.337 37.632C24.6075 33.1454 20.7714 29.4266 16.1924 26.8281C11.6134 24.2296 6.44318 22.8375 1.17183 22.7838C0.966676 23.5267 0.814612 24.283 0.716786 25.0473V25.2736C0.716786 25.3868 0.603026 25.6131 0.603026 25.7263V26.0771C0.620049 26.2367 0.579741 26.397 0.489258 26.5298V29.7326H3.69734C3.89758 29.7154 4.09866 29.7546 4.27752 29.8458C4.47412 29.8282 4.67165 29.8675 4.84632 29.9589H5.07385C5.13736 29.9514 5.20176 29.9576 5.26263 29.9771C5.3235 29.9967 5.3794 30.0291 5.42651 30.0721H5.65403C5.71579 30.0647 5.77843 30.071 5.83744 30.0906C5.89645 30.1102 5.95037 30.1425 5.99532 30.1853H6.22284C6.28635 30.1778 6.35074 30.184 6.41161 30.2035C6.47248 30.223 6.52839 30.2554 6.5755 30.2985H6.80302C6.91678 30.2985 7.14431 30.4116 7.25807 30.4116H7.37183C7.59935 30.4116 7.72449 30.5248 7.95202 30.5248H8.06578C8.17954 30.5248 8.2933 30.638 8.40706 30.638C8.52083 30.638 8.52082 30.638 8.63458 30.7512C8.74835 30.8643 8.8621 30.8756 8.98724 30.8756C9.11238 30.8756 9.10101 30.8756 9.21477 30.9888C9.32853 31.102 9.44229 31.102 9.55605 31.102C9.66981 31.102 9.66982 31.102 9.78358 31.2152C9.89734 31.3284 10.0111 31.3283 10.25 31.3283H10.341C10.4548 31.4415 10.6823 31.4415 10.7961 31.5547C10.811 31.5547 10.8258 31.5576 10.8396 31.5633C10.8534 31.569 10.8659 31.5773 10.8765 31.5878C10.8871 31.5983 10.8954 31.6108 10.9012 31.6246C10.9069 31.6383 10.9098 31.653 10.9098 31.6679C11.0236 31.6679 11.1373 31.781 11.2511 31.781C11.3649 31.781 11.3762 31.8942 11.49 31.8942C11.6038 31.8942 11.7175 32.0074 11.8313 32.0074C11.945 32.0074 11.945 32.1319 12.0588 32.1319C12.1726 32.1319 12.2863 32.245 12.4001 32.245C12.5138 32.245 12.5138 32.3582 12.639 32.3582C12.7641 32.3582 12.8665 32.4714 12.9803 32.5846C13.0104 32.5846 13.0394 32.5965 13.0607 32.6177C13.082 32.6389 13.094 32.6677 13.094 32.6977C13.2078 32.8109 13.4353 32.8109 13.5491 32.9241L13.6628 33.0372C13.7766 33.1504 13.9017 33.1504 14.0155 33.2636C14.1293 33.3768 14.1293 33.3881 14.243 33.3881C14.3293 33.4 14.4092 33.4398 14.4705 33.5013C14.5843 33.5013 14.5843 33.6144 14.6981 33.6144C14.8118 33.6144 14.9256 33.7276 14.9256 33.8408C14.9256 33.9539 15.0507 33.9539 15.1645 33.9539C15.2783 33.9539 15.392 34.0671 15.5058 34.1803C15.5359 34.1803 15.5649 34.1922 15.5862 34.2135C15.6076 34.2347 15.6195 34.2635 15.6195 34.2935C15.7513 34.434 15.9049 34.5524 16.0746 34.6443L16.1883 34.7575C16.3135 34.8706 16.4272 34.8706 16.4272 34.9838L16.541 35.097L16.7685 35.3233C16.8823 35.3233 16.8823 35.4365 16.996 35.4365L17.2236 35.6629L17.3373 35.776C17.4511 35.9005 17.5762 35.9005 17.5762 36.0137L17.69 36.1269L18.0313 36.4664L18.145 36.5795L18.3726 36.8059L18.4863 36.9191L18.7139 37.1567L18.839 37.2699L19.0665 37.4962L19.1803 37.6094C19.294 37.7226 19.294 37.8357 19.4078 37.8357L19.5216 37.9489L19.8628 38.2998L19.988 38.4129C20.1017 38.5261 20.1017 38.6393 20.2155 38.6393L20.3293 38.7524L20.5568 38.9788C20.5568 39.092 20.6705 39.092 20.6705 39.2052L20.8981 39.4428C20.8981 39.556 21.0118 39.556 21.0118 39.6692C21.0118 39.7823 21.1256 39.8955 21.2507 40.0087L21.3645 40.1219C21.4339 40.1757 21.4903 40.2443 21.5297 40.3226C21.569 40.4009 21.5903 40.487 21.592 40.5745L21.7058 40.6877C21.8195 40.8122 21.8195 40.9254 21.9333 41.0385C22.0471 41.1517 22.0471 41.1517 22.0471 41.2649C22.0591 41.3507 22.099 41.4302 22.1608 41.4912C22.1608 41.6044 22.2746 41.6044 22.2746 41.7176C22.2873 41.8065 22.327 41.8894 22.3883 41.9552C22.3883 42.0684 22.5135 42.0684 22.5135 42.1816C22.5565 42.2263 22.589 42.2799 22.6087 42.3386C22.6283 42.3974 22.6347 42.4597 22.6272 42.5211C22.6272 42.5511 22.6392 42.5799 22.6606 42.6011C22.6819 42.6224 22.7108 42.6343 22.741 42.6343C22.8548 42.7475 22.8548 42.9738 22.9685 43.087C23.0823 43.2001 22.9685 43.2114 23.0823 43.2114C23.196 43.2114 23.1961 43.4378 23.1961 43.551C23.1961 43.6642 23.1961 43.6641 23.3098 43.7773C23.4236 43.8905 23.4236 44.0037 23.4236 44.1168C23.4236 44.23 23.4236 44.23 23.5373 44.3545C23.6511 44.479 23.6625 44.5808 23.6625 44.694C23.6625 44.8072 23.6625 44.8072 23.7762 44.9204C23.89 45.0335 23.89 45.1467 23.89 45.2599V45.373C24.0038 45.4862 24.0038 45.7239 24.1175 45.8371V45.9502C24.1175 46.0634 24.2313 46.1766 24.2313 46.2897C24.2313 46.4029 24.2313 46.4029 24.345 46.5161C24.4588 46.6293 24.4588 46.7424 24.4588 46.8669V47.0933C24.4588 46.9801 24.5726 46.7424 24.5726 46.6293V46.5161C24.5726 46.2897 24.6863 46.1766 24.6863 45.9502V45.8371C24.6863 45.7239 24.8001 45.6107 24.8001 45.373V45.1467C24.8001 45.0335 24.9252 44.9204 24.9252 44.8072C24.9252 44.694 24.9252 44.694 25.039 44.5809C25.1527 44.4677 25.1527 44.3545 25.1527 44.23V44.0037C24.345 43.8905 24.345 43.7773 24.4588 43.551V43.5283Z" fill="#363434"/>
<path d="M59.3722 40.5519C59.1333 40.4387 58.9058 40.4387 58.792 40.3255H58.6783C58.5645 40.3255 58.337 40.2124 58.2232 40.2124H58.1208C57.8819 40.2124 57.7682 40.0992 57.5406 40.0992C57.3131 40.0992 57.1994 39.986 56.9718 39.986H56.8581C56.6578 40.0046 56.4563 39.9653 56.2779 39.8729H54.9014C51.2808 39.8729 47.8085 41.3037 45.2484 43.8505C42.6883 46.3974 41.25 49.8517 41.25 53.4536V56.3055C41.25 56.4187 41.3638 56.5318 41.3638 56.6563V56.7695C41.3638 56.8827 41.3638 56.9959 41.4775 56.9959V57.109C41.4775 57.2222 41.4775 57.2222 41.5913 57.3354V57.4486C41.5913 57.5617 41.5913 57.5617 41.705 57.6749V57.7994C41.705 57.9126 41.705 57.9126 41.8188 58.0257V58.1389C41.8188 58.2521 41.9326 58.2521 41.9326 58.3653V58.5916C45.9215 56.9473 49.5172 54.4847 52.4849 51.3646C55.4527 48.2445 57.7258 44.537 59.1561 40.484C59.7135 40.6651 59.5997 40.6651 59.3722 40.5519Z" fill="#363434"/>
</svg>
