<svg width="207" height="204" viewBox="0 0 207 204" fill="none" xmlns="http://www.w3.org/2000/svg">
<g filter="url(#filter0_d_1518_8283)">
<path fill-rule="evenodd" clip-rule="evenodd" d="M74.3752 119.5C49.8675 119.5 30.0002 99.6326 30.0002 75.125C30.0002 50.6174 49.8675 30.75 74.3752 30.75C98.8828 30.75 118.75 50.6174 118.75 75.125C118.75 77.7114 118.529 80.2462 118.104 82.7113C118.501 80.677 118.655 79.1302 118.714 78.3019C118.734 77.8631 118.75 77.625 118.75 77.625C118.75 77.625 118.745 77.8622 118.714 78.3019C118.516 82.6318 117.91 106.498 128.125 113.875C139.375 122 156.25 124.014 156.25 124.014C156.25 124.014 143.789 127.625 135.625 136.375C127.46 145.125 125 153.25 125 153.25C125 153.25 123.125 136.375 113.75 126.375C106.793 118.954 90.887 118.417 83.1452 118.634C80.3101 119.202 77.3775 119.5 74.3752 119.5Z" fill="#0D2E4D"/>
</g>
<path d="M67.0833 74.5C66.5226 74.5 66.0522 74.69 65.6722 75.07C65.2922 75.45 65.1029 75.9197 65.1042 76.4792V82.4167C65.1042 82.9774 65.2942 83.4478 65.6742 83.8278C66.0542 84.2078 66.5239 84.3972 67.0833 84.3958C67.6441 84.3958 68.1145 84.2058 68.4945 83.8258C68.8745 83.4458 69.0638 82.9761 69.0625 82.4167V76.4792C69.0625 75.9184 68.8725 75.448 68.4925 75.068C68.1125 74.688 67.6428 74.4987 67.0833 74.5ZM82.9167 64.6042C82.3559 64.6042 81.8855 64.7942 81.5055 65.1742C81.1255 65.5542 80.9362 66.0239 80.9375 66.5833V82.4167C80.9375 82.9774 81.1275 83.4478 81.5075 83.8278C81.8875 84.2078 82.3572 84.3972 82.9167 84.3958C83.4774 84.3958 83.9478 84.2058 84.3278 83.8258C84.7078 83.4458 84.8972 82.9761 84.8958 82.4167V66.5833C84.8958 66.0226 84.7058 65.5522 84.3258 65.1722C83.9458 64.7922 83.4761 64.6029 82.9167 64.6042ZM75 78.4583C74.4392 78.4583 73.9689 78.6483 73.5889 79.0283C73.2089 79.4083 73.0195 79.8781 73.0208 80.4375V82.4167C73.0208 82.9774 73.2108 83.4478 73.5908 83.8278C73.9708 84.2078 74.4406 84.3972 75 84.3958C75.5608 84.3958 76.0311 84.2058 76.4111 83.8258C76.7911 83.4458 76.9805 82.9761 76.9792 82.4167V80.4375C76.9792 79.8767 76.7892 79.4064 76.4092 79.0264C76.0292 78.6464 75.5594 78.457 75 78.4583ZM61.1458 92.3125C60.0573 92.3125 59.1251 91.9246 58.3493 91.1488C57.5734 90.3729 57.1862 89.4414 57.1875 88.3542V60.6458C57.1875 59.5573 57.5754 58.6251 58.3513 57.8493C59.1271 57.0734 60.0586 56.6862 61.1458 56.6875H88.8542C89.9427 56.6875 90.8749 57.0754 91.6507 57.8513C92.4266 58.6271 92.8138 59.5586 92.8125 60.6458V88.3542C92.8125 89.4427 92.4246 90.3749 91.6488 91.1507C90.8729 91.9266 89.9414 92.3138 88.8542 92.3125H61.1458ZM75 74.5C75.5608 74.5 76.0311 74.31 76.4111 73.93C76.7911 73.55 76.9805 73.0803 76.9792 72.5208C76.9792 71.9601 76.7892 71.4897 76.4092 71.1097C76.0292 70.7297 75.5594 70.5404 75 70.5417C74.4392 70.5417 73.9689 70.7317 73.5889 71.1117C73.2089 71.4917 73.0195 71.9614 73.0208 72.5208C73.0208 73.0816 73.2108 73.552 73.5908 73.932C73.9708 74.312 74.4406 74.5013 75 74.5Z" fill="white"/>
<defs>
<filter id="filter0_d_1518_8283" x="0.000244141" y="0.75" width="206.25" height="202.5" filterUnits="userSpaceOnUse" color-interpolation-filters="sRGB">
<feFlood flood-opacity="0" result="BackgroundImageFix"/>
<feColorMatrix in="SourceAlpha" type="matrix" values="0 0 0 0 0 0 0 0 0 0 0 0 0 0 0 0 0 0 127 0" result="hardAlpha"/>
<feOffset dx="10" dy="10"/>
<feGaussianBlur stdDeviation="20"/>
<feComposite in2="hardAlpha" operator="out"/>
<feColorMatrix type="matrix" values="0 0 0 0 0.882353 0 0 0 0 0.882353 0 0 0 0 0.882353 0 0 0 0.5 0"/>
<feBlend mode="normal" in2="BackgroundImageFix" result="effect1_dropShadow_1518_8283"/>
<feBlend mode="normal" in="SourceGraphic" in2="effect1_dropShadow_1518_8283" result="shape"/>
</filter>
</defs>
</svg>
