<svg width="207" height="203" viewBox="0 0 207 203" fill="none" xmlns="http://www.w3.org/2000/svg">
<g filter="url(#filter0_d_1518_8304)">
<path fill-rule="evenodd" clip-rule="evenodd" d="M74.3752 119C49.8675 119 30.0002 99.1326 30.0002 74.625C30.0002 50.1174 49.8675 30.25 74.3752 30.25C98.8828 30.25 118.75 50.1174 118.75 74.625C118.75 77.2114 118.529 79.7462 118.104 82.2113C118.501 80.177 118.655 78.6302 118.714 77.8019C118.734 77.3631 118.75 77.125 118.75 77.125C118.75 77.125 118.745 77.3622 118.714 77.8019C118.516 82.1318 117.91 105.998 128.125 113.375C139.375 121.5 156.25 123.514 156.25 123.514C156.25 123.514 143.789 127.125 135.625 135.875C127.46 144.625 125 152.75 125 152.75C125 152.75 123.125 135.875 113.75 125.875C106.793 118.454 90.887 117.917 83.1452 118.134C80.3101 118.702 77.3775 119 74.3752 119Z" fill="#379B45"/>
</g>
<path d="M92.0832 84.9034C92.0832 84.3187 91.968 83.7398 91.7442 83.1996C91.5203 82.6594 91.1923 82.1686 90.7788 81.7553C90.3652 81.3419 89.8743 81.0141 89.334 80.7905C88.7938 80.567 88.2147 80.452 87.63 80.4523H64.8696C64.2848 80.452 63.7056 80.567 63.1652 80.7907C62.6248 81.0144 62.1338 81.3424 61.7202 81.756C61.3067 82.1696 60.9786 82.6606 60.7549 83.201C60.5313 83.7414 60.4162 84.3205 60.4165 84.9054V86.7262C60.4165 87.8563 60.7688 88.9607 61.4259 89.883C64.4797 94.1659 69.4712 96.2876 76.2419 96.2876C83.0107 96.2876 88.0081 94.1679 91.0659 89.885C91.7259 88.9631 92.0816 87.8581 92.0832 86.7243V84.9034ZM86.1397 66.608C86.14 64.5239 85.4822 62.4928 84.2602 60.8045C83.0382 59.1162 81.3144 57.8568 79.3345 57.2059C77.3546 56.555 75.2197 56.5458 73.2343 57.1797C71.2488 57.8136 69.5142 59.0581 68.2778 60.7358C68.1343 60.6904 67.9849 60.667 67.8344 60.6666H62.8905C62.4968 60.6666 62.1192 60.8229 61.8409 61.1013C61.5625 61.3797 61.4061 61.7572 61.4061 62.1509V73.0324C61.4056 73.7475 61.546 74.4556 61.8193 75.1164C62.0925 75.7772 62.4934 76.3777 62.9988 76.8835C63.5043 77.3893 64.1044 77.7906 64.765 78.0644C65.4256 78.3381 66.1337 78.479 66.8488 78.479H67.3436V78.4711H67.3634C67.6987 78.4717 68.0286 78.3868 68.3221 78.2246C68.6156 78.0623 68.8629 77.8281 69.0408 77.5438C69.2187 77.2596 69.3213 76.9347 69.3389 76.5999C69.3566 76.265 69.2887 75.9312 69.1416 75.6298C68.9946 75.3285 68.7733 75.0695 68.4985 74.8773C68.2237 74.6851 67.9045 74.5661 67.571 74.5313C67.2375 74.4966 66.9006 74.5474 66.5921 74.6788C66.2837 74.8103 66.0137 75.0181 65.8078 75.2827C65.3792 75.0839 65.0164 74.7665 64.7625 74.3681C64.5086 73.9696 64.3741 73.5068 64.3748 73.0344V72.5416H65.8553C66.6073 72.5416 67.306 72.3001 67.874 71.8924C69.0187 73.7072 70.7223 75.1008 72.728 75.8632C74.7337 76.6255 76.9329 76.7153 78.994 76.119C81.0552 75.5227 82.8667 74.2726 84.1556 72.5571C85.4444 70.8416 86.1408 68.7537 86.1397 66.608ZM66.3481 66.3982C66.3452 66.5381 66.3452 66.678 66.3481 66.8178V69.076C66.3481 69.2073 66.2959 69.3331 66.2031 69.4259C66.1104 69.5187 65.9845 69.5708 65.8533 69.5708H64.3748V63.6373H66.35L66.3481 66.3982Z" fill="white"/>
<defs>
<filter id="filter0_d_1518_8304" x="0.000244141" y="0.25" width="206.25" height="202.5" filterUnits="userSpaceOnUse" color-interpolation-filters="sRGB">
<feFlood flood-opacity="0" result="BackgroundImageFix"/>
<feColorMatrix in="SourceAlpha" type="matrix" values="0 0 0 0 0 0 0 0 0 0 0 0 0 0 0 0 0 0 127 0" result="hardAlpha"/>
<feOffset dx="10" dy="10"/>
<feGaussianBlur stdDeviation="20"/>
<feComposite in2="hardAlpha" operator="out"/>
<feColorMatrix type="matrix" values="0 0 0 0 0.882353 0 0 0 0 0.882353 0 0 0 0 0.882353 0 0 0 0.5 0"/>
<feBlend mode="normal" in2="BackgroundImageFix" result="effect1_dropShadow_1518_8304"/>
<feBlend mode="normal" in="SourceGraphic" in2="effect1_dropShadow_1518_8304" result="shape"/>
</filter>
</defs>
</svg>
