<svg width="65" height="61" viewBox="0 0 65 61" fill="none" xmlns="http://www.w3.org/2000/svg">
<path d="M60.7016 1.49632C61.2396 1.50277 61.7636 1.66788 62.2078 1.9709C62.652 2.27392 62.9965 2.70133 63.1979 3.1993C63.3994 3.69728 63.4487 4.24358 63.3398 4.76949C63.2309 5.2954 62.9686 5.77742 62.5859 6.15488C62.2032 6.53234 61.7172 6.78837 61.189 6.89079C60.6609 6.99321 60.1142 6.93745 59.6177 6.73048C59.1212 6.52351 58.6972 6.17457 58.3989 5.72762C58.1006 5.28067 57.9415 4.75567 57.9414 4.21865C57.9399 3.85796 58.0106 3.5006 58.1491 3.1675C58.2877 2.8344 58.4915 2.53224 58.7485 2.27872C59.0056 2.02521 59.3107 1.82544 59.6461 1.69109C59.9814 1.55674 60.3403 1.49052 60.7016 1.49632Z" fill="#D7DEED"/>
<path d="M55.2905 9.00991C55.3047 9.78473 55.1941 10.5568 54.9631 11.2967C54.6183 12.1895 54.0468 12.9775 53.3049 13.5834C52.4944 14.146 51.5319 14.4497 50.5447 14.4546C49.8049 14.4578 49.0691 14.3477 48.3628 14.1279V13.3656C48.3656 12.8052 48.4767 12.2506 48.6901 11.7322C49.0101 10.8262 49.5861 10.032 50.3484 9.44547C51.1184 8.88435 52.046 8.57957 52.9994 8.57434C53.7705 8.67748 54.5354 8.82288 55.2905 9.00991Z" fill="#67BD8C"/>
<path d="M47.6755 19.6815C48.0496 20.652 48.2024 21.6936 48.1228 22.7304C47.1346 23.086 46.0836 23.2343 45.0354 23.166C43.7228 23.1715 42.4439 22.7511 41.3915 21.9682C40.3739 21.1936 39.6136 20.1312 39.2095 18.9192C38.8516 17.9045 38.6672 16.837 38.6641 15.7613C39.6912 15.4108 40.7769 15.2629 41.8606 15.3257C43.1304 15.3741 44.3586 15.7903 45.3954 16.5235C46.4019 17.375 47.1846 18.4591 47.6755 19.6815Z" fill="#67BD8C"/>
<path d="M57.7015 18.7014C57.7445 19.7816 57.5548 20.8585 57.1451 21.8593C56.7174 23.0591 55.9616 24.1154 54.9632 24.9083C53.9027 25.6756 52.6291 26.0943 51.3194 26.1061C50.2743 26.1145 49.2338 25.9678 48.2319 25.6706V24.7994C48.3141 24.0622 48.4601 23.3336 48.6683 22.6215C49.1006 21.4241 49.8557 20.3691 50.8503 19.5726C51.8994 18.8313 53.1439 18.4147 54.4286 18.3747C55.53 18.2189 56.6529 18.331 57.7015 18.7014Z" fill="#67BD8C"/>
<path d="M47.7846 9.98992C48.0167 10.6923 48.131 11.4282 48.1228 12.1678C47.4131 12.3722 46.6794 12.4821 45.9409 12.4945C44.9906 12.4907 44.066 12.1856 43.3007 11.6233C42.5402 11.0812 41.9621 10.3219 41.6425 9.44545C41.4115 8.70559 41.301 7.93355 41.3152 7.15873C42.0671 6.94286 42.8456 6.83288 43.628 6.83203C44.5448 6.85546 45.4322 7.15959 46.17 7.70319C46.8985 8.31206 47.4551 9.10031 47.7846 9.98992Z" fill="#67BD8C"/>
<path d="M26.3798 9.00991C26.394 9.78473 26.2835 10.5568 26.0525 11.2967C25.7037 12.1873 25.133 12.9744 24.3942 13.5834C23.5837 14.146 22.6213 14.4497 21.6341 14.4546C20.8942 14.4594 20.1581 14.3492 19.4521 14.1279V13.3656C19.455 12.8052 19.5661 12.2506 19.7794 11.7322C20.0955 10.8241 20.6722 10.0289 21.4377 9.44547C22.2037 8.88452 23.1278 8.57963 24.0779 8.57434C24.7215 8.68323 25.4961 8.79212 26.3798 9.00991Z" fill="#67BD8C"/>
<path d="M18.6558 19.6815C19.021 20.6542 19.1699 21.6946 19.0922 22.7305C18.104 23.086 17.0529 23.2343 16.0047 23.166C14.6924 23.17 13.4141 22.7497 12.3609 21.9682C11.3393 21.1975 10.578 20.1337 10.179 18.9192C9.81713 17.9052 9.62902 16.8377 9.62256 15.7613C10.6535 15.4108 11.7427 15.2628 12.83 15.3257C14.096 15.3762 15.3201 15.7923 16.3539 16.5235C17.3997 17.3427 18.1967 18.4361 18.6558 19.6815Z" fill="#67BD8C"/>
<path d="M28.6926 18.7014C28.7337 19.7805 28.5479 20.8562 28.1471 21.8593C27.7148 23.0567 26.9598 24.1117 25.9652 24.9083C24.9081 25.6741 23.6384 26.0927 22.3322 26.1061C21.2836 26.1138 20.2396 25.9671 19.2339 25.6705V24.7994C19.3248 24.0627 19.4744 23.3345 19.6812 22.6215C20.1089 21.4217 20.8648 20.3655 21.8631 19.5725C22.8999 18.8393 24.1281 18.4231 25.3979 18.3747C26.5061 18.2029 27.6399 18.3153 28.6926 18.7014Z" fill="#67BD8C"/>
<path d="M18.765 9.98992C18.9881 10.6942 19.0986 11.4292 19.0922 12.1678C18.3829 12.3738 17.649 12.4837 16.9103 12.4945C15.9569 12.4893 15.0293 12.1844 14.2592 11.6233C13.5016 11.0783 12.9242 10.32 12.601 9.44545C12.37 8.7056 12.2595 7.93355 12.2737 7.15873C13.0295 6.94352 13.8115 6.83356 14.5974 6.83203C15.5106 6.85697 16.394 7.16107 17.1285 7.70319C17.8625 8.3118 18.4262 9.09954 18.765 9.98992Z" fill="#67BD8C"/>
<path d="M57.9741 28.665L59.3706 26.3239L61.7489 27.6959L60.3524 30.048L57.9741 28.665Z" fill="#363434"/>
<path d="M30.7109 7.91007L32.1074 5.55798L34.4857 6.94092L33.0893 9.28212L30.7109 7.91007Z" fill="#363434"/>
<path d="M8.68408 28.3601L10.0805 26.0081L12.4588 27.3801L11.0624 29.7322L8.68408 28.3601Z" fill="#363434"/>
<path d="M48.2321 39.6088C47.8547 39.6061 47.4933 39.4568 47.2245 39.1925C46.9556 38.9282 46.8005 38.5698 46.792 38.1932V5.52537C46.8005 5.14883 46.9556 4.79038 47.2245 4.5261C47.4933 4.26182 47.8547 4.11248 48.2321 4.10974C48.4126 4.11389 48.5905 4.15407 48.7552 4.22791C48.9199 4.30176 49.0681 4.40776 49.1912 4.53969C49.3142 4.67162 49.4095 4.82681 49.4715 4.99609C49.5335 5.16537 49.5609 5.34535 49.5521 5.52537V38.1932C49.5709 38.3754 49.5504 38.5595 49.492 38.7331C49.4337 38.9067 49.3389 39.0659 49.2138 39.2C49.0888 39.334 48.9366 39.4398 48.7673 39.5103C48.598 39.5809 48.4155 39.6145 48.2321 39.6088Z" fill="#363434"/>
<path d="M50.3267 15.8702C49.4596 15.8851 48.5973 15.7373 47.7848 15.4346C47.5166 15.3264 47.2828 15.1478 47.108 14.9177C46.9332 14.6877 46.824 14.4148 46.792 14.1279V13.2567C46.8364 12.5839 46.9874 11.9223 47.2393 11.2966C47.6712 10.1292 48.4282 9.10913 49.4212 8.35652C50.4403 7.66872 51.6205 7.25607 52.8469 7.15872C53.8209 7.14306 54.7908 7.29028 55.7161 7.59429C55.9849 7.68789 56.2161 7.86568 56.3754 8.10117C56.5346 8.33665 56.6133 8.61719 56.5998 8.90098C56.6253 9.86407 56.4737 10.8237 56.1525 11.7322C55.7489 12.8854 54.9838 13.8782 53.9706 14.5634C52.9338 15.2967 51.7056 15.7129 50.4358 15.7613C50.4358 15.8701 50.4358 15.8702 50.3267 15.8702ZM49.6612 13.0389H50.4358C51.1537 13.0583 51.8558 12.8272 52.4214 12.3856C52.9777 11.9698 53.4019 11.4027 53.6433 10.7522C53.7659 10.515 53.8401 10.2559 53.8615 9.98991C53.5694 9.93557 53.2699 9.93557 52.9778 9.98991C52.2935 9.97272 51.6264 10.205 51.1013 10.6433C50.545 11.0565 50.1236 11.6248 49.8903 12.2767C49.8343 12.5364 49.7577 12.7913 49.6612 13.0389Z" fill="#363434"/>
<path d="M46.0279 13.91H45.7988C44.5766 13.8994 43.3861 13.5198 42.3841 12.8211C41.394 12.1319 40.6581 11.1372 40.2895 9.98988C39.9683 9.11909 39.8164 8.19514 39.8421 7.26756C39.8416 6.98651 39.9255 6.71176 40.083 6.47881C40.2405 6.24586 40.4645 6.06544 40.7258 5.96086C41.6512 5.65686 42.621 5.50964 43.5951 5.5253C44.7593 5.61337 45.8837 5.98745 46.868 6.61423C47.8547 7.30691 48.5897 8.30033 48.9626 9.44542C49.2751 10.3182 49.4231 11.2412 49.3991 12.1677C49.3996 12.4488 49.3157 12.7236 49.1582 12.9565C49.0006 13.1895 48.7767 13.3699 48.5153 13.4745C47.7203 13.7718 46.8769 13.9194 46.0279 13.91ZM42.755 8.35649C42.7765 8.62249 42.8506 8.8816 42.9732 9.11875C43.1839 9.72032 43.5624 10.2493 44.0642 10.6432C44.623 11.0184 45.2693 11.2435 45.9407 11.2966H46.7152C46.6796 11.0334 46.6061 10.7767 46.4971 10.5343C46.2903 9.93077 45.9111 9.40081 45.4061 9.00985C44.8645 8.68068 44.2644 8.45883 43.6387 8.35649C43.3326 8.29604 43.0175 8.29604 42.7114 8.35649H42.755Z" fill="#363434"/>
<path d="M51.1558 27.4128C50.0446 27.3863 48.9427 27.203 47.8829 26.8683C47.6148 26.7601 47.3809 26.5816 47.2061 26.3515C47.0314 26.1215 46.9222 25.8486 46.8901 25.5617V24.5816C46.9758 23.6923 47.1625 22.8155 47.4465 21.9682C47.979 20.4885 48.9396 19.1999 50.2067 18.2658C51.4516 17.3485 52.9577 16.8525 54.5051 16.8502H54.9524C56.0638 16.8748 57.166 17.0581 58.2253 17.3947C58.4955 17.4998 58.7313 17.6775 58.9065 17.9082C59.0817 18.1388 59.1896 18.4133 59.2181 18.7014C59.2136 19.9194 59.0298 21.1302 58.6726 22.2949C58.1354 23.764 57.1585 25.0326 55.8743 25.9287C54.5901 26.8248 53.0609 27.3049 51.494 27.3039C51.2104 27.3039 51.2104 27.4128 51.1558 27.4128ZM49.7157 24.4727C50.2636 24.5628 50.819 24.5993 51.374 24.5816C52.4171 24.6078 53.435 24.2601 54.2433 23.6016C55.0674 23.0056 55.6852 22.1683 56.0107 21.2059C56.224 20.6876 56.3351 20.133 56.3379 19.5725C55.7612 19.4241 55.1613 19.3871 54.5706 19.4636C53.5636 19.4355 52.5826 19.7852 51.8213 20.4437C50.9972 21.0396 50.3794 21.8769 50.0539 22.8393C49.8706 23.3699 49.7391 23.9169 49.6612 24.4727H49.7157Z" fill="#363434"/>
<path d="M45.2535 24.6905H45.0353C43.4511 24.6875 41.9069 24.1928 40.6169 23.2749C39.3771 22.3594 38.4206 21.1141 37.8567 19.6814C37.3909 18.5439 37.2003 17.3128 37.3003 16.0879C37.3045 15.7929 37.4031 15.507 37.5817 15.2719C37.7603 15.0368 38.0096 14.8649 38.2931 14.7812C39.4911 14.3358 40.7705 14.1502 42.046 14.2368C43.604 14.2959 45.1149 14.786 46.4099 15.6524C47.677 16.5864 48.6377 17.875 49.1701 19.3547C49.5799 20.5069 49.7651 21.7266 49.7156 22.9482C49.7156 23.2277 49.6327 23.5009 49.4774 23.7334C49.3221 23.966 49.1013 24.1474 48.8428 24.2549C47.6601 24.4964 46.4597 24.642 45.2535 24.6905ZM40.0605 16.9591C40.1696 17.5036 40.2896 18.048 40.3987 18.5925C40.7506 19.538 41.3586 20.3674 42.1551 20.9881C43.0149 21.5564 44.0069 21.8939 45.0353 21.9682H45.2535C45.7325 21.9861 46.212 21.9496 46.6827 21.8593L46.3554 20.2259C46.0299 19.2635 45.4122 18.4262 44.588 17.8302C43.7632 17.281 42.8149 16.9442 41.8279 16.8502C41.2366 16.8287 40.6446 16.8652 40.0605 16.9591Z" fill="#363434"/>
<path d="M19.3214 39.6088C18.9441 39.606 18.5827 39.4567 18.3138 39.1924C18.045 38.9281 17.8898 38.5697 17.8813 38.1932V5.5253C17.9127 5.16708 18.0774 4.83359 18.343 4.59063C18.6085 4.34768 18.9557 4.21289 19.316 4.21289C19.6762 4.21289 20.0234 4.34768 20.289 4.59063C20.5546 4.83359 20.7193 5.16708 20.7506 5.5253V38.1932C20.7226 38.5612 20.5627 38.9068 20.3003 39.1668C20.0378 39.4268 19.6903 39.5837 19.3214 39.6088Z" fill="#363434"/>
<path d="M21.4161 15.8702C20.5489 15.8851 19.6867 15.7373 18.8741 15.4346C18.6046 15.3284 18.3695 15.1504 18.1944 14.92C18.0194 14.6895 17.9111 14.4155 17.8813 14.1279V13.2567C17.9204 12.5831 18.0716 11.9207 18.3286 11.2966C18.7606 10.1292 19.5176 9.10913 20.5106 8.35652C21.5265 7.67048 22.7028 7.25792 23.9253 7.15872C24.8994 7.14306 25.8692 7.29028 26.7946 7.59429C27.0643 7.68636 27.2966 7.86379 27.4561 8.09964C27.6156 8.33549 27.6936 8.61684 27.6783 8.90098C27.702 9.86307 27.5542 10.8217 27.2419 11.7322C26.8341 12.8832 26.0699 13.8748 25.0599 14.5634C24.0231 15.2967 22.7949 15.7129 21.5252 15.7613C21.5252 15.7901 21.5137 15.8178 21.4932 15.8383C21.4728 15.8587 21.445 15.8702 21.4161 15.8702ZM20.7506 13.0389H21.5252C22.2428 13.0564 22.9443 12.8256 23.5108 12.3856C24.0639 11.9692 24.4845 11.4019 24.7217 10.7522C24.8443 10.515 24.9185 10.2559 24.9399 9.98991C24.6479 9.93557 24.3483 9.93557 24.0562 9.98991C23.3752 9.97236 22.7114 10.2048 22.1907 10.6433C21.6344 11.059 21.2101 11.6262 20.9688 12.2767C20.8598 12.519 20.7863 12.7757 20.7506 13.0389Z" fill="#363434"/>
<path d="M17.1066 13.91H16.8884C15.6627 13.8996 14.4688 13.52 13.4628 12.8211C12.476 12.1284 11.741 11.135 11.3681 9.98988C11.0557 9.11707 10.9077 8.1941 10.9317 7.26756C10.9311 6.98651 11.015 6.71176 11.1726 6.47881C11.3301 6.24586 11.554 6.06544 11.8154 5.96086C12.7408 5.65686 13.7106 5.50964 14.6847 5.5253C15.8496 5.60976 16.9748 5.98413 17.9576 6.61423C18.9477 7.30344 19.6836 8.29812 20.0522 9.44542C20.3734 10.3162 20.5252 11.2402 20.4995 12.1677C20.4972 12.4481 20.4121 12.7216 20.255 12.954C20.0978 13.1864 19.8755 13.3675 19.6158 13.4745C18.8113 13.7647 17.9621 13.9121 17.1066 13.91ZM13.6919 8.35649C13.7133 8.62249 13.7874 8.8816 13.91 9.11875C14.1168 9.72233 14.496 10.2523 15.001 10.6432C15.5591 11.0198 16.2058 11.2449 16.8775 11.2966H17.6521C17.6164 11.0334 17.5429 10.7767 17.4339 10.5343C17.2271 9.93077 16.8479 9.40081 16.3429 9.00985C15.8053 8.68075 15.2088 8.45886 14.5865 8.35649C14.2909 8.30079 13.9875 8.30079 13.6919 8.35649Z" fill="#363434"/>
<path d="M22.0707 27.4128C20.9831 27.4002 19.9043 27.2165 18.8741 26.8683C18.6046 26.7622 18.3695 26.5842 18.1944 26.3538C18.0194 26.1233 17.9111 25.8493 17.8813 25.5617V24.5816C17.9565 23.6907 18.1434 22.8126 18.4378 21.9682C18.9624 20.4843 19.9246 19.1936 21.1979 18.2658C22.4417 17.3464 23.9486 16.8502 25.4963 16.8502H25.9327C27.0441 16.8749 28.1463 17.0583 29.2056 17.3947C29.4758 17.4998 29.7116 17.6775 29.8868 17.9082C30.062 18.1388 30.1699 18.4133 30.1984 18.7014C30.1959 19.9204 30.0083 21.132 29.642 22.2949C29.1054 23.7623 28.1302 25.0297 26.8482 25.9256C25.5662 26.8215 24.0393 27.3027 22.4743 27.3039C22.2998 27.3039 22.1907 27.4128 22.0707 27.4128ZM20.6088 24.4727C21.1566 24.5631 21.712 24.5996 22.267 24.5816C23.3101 24.6078 24.328 24.2601 25.1363 23.6016C25.9543 23.002 26.5676 22.1656 26.8928 21.2059C27.1143 20.6897 27.2293 20.1342 27.231 19.5725C26.6541 19.4246 26.0543 19.3876 25.4636 19.4636C24.4536 19.437 23.4697 19.7863 22.7034 20.4437C21.8824 21.0427 21.2654 21.8789 20.9361 22.8393L20.6088 24.4727Z" fill="#363434"/>
<path d="M16.3318 24.6905H16.1137C14.5294 24.6875 12.9853 24.1928 11.6952 23.2749C10.4557 22.3618 9.50216 21.1154 8.94597 19.6815C8.4728 18.546 8.2819 17.3131 8.38957 16.088C8.39025 15.7921 8.48753 15.5044 8.66667 15.2686C8.84581 15.0329 9.09706 14.8618 9.38236 14.7813C10.5802 14.3352 11.8597 14.1495 13.1353 14.2368C14.6929 14.2976 16.2033 14.7875 17.4992 15.6524C18.7665 16.5838 19.7243 17.8736 20.2484 19.3548C20.6673 20.5048 20.8563 21.7256 20.8048 22.9482C20.8054 23.2293 20.7215 23.504 20.564 23.737C20.4064 23.9699 20.1825 24.1504 19.9211 24.2549C18.7364 24.484 17.537 24.6296 16.3318 24.6905ZM11.0407 16.9591L11.3679 18.5925C11.7228 19.5394 12.3348 20.3689 13.1353 20.9882C13.9919 21.5547 14.9798 21.8921 16.0046 21.9682H16.2228C16.7054 21.9861 17.1884 21.9496 17.6628 21.8593C17.5537 21.3148 17.4446 20.7704 17.3246 20.2259C16.9995 19.2663 16.3862 18.4298 15.5682 17.8303C14.7434 17.281 13.7951 16.9443 12.808 16.8502C12.2168 16.8351 11.6255 16.8715 11.0407 16.9591Z" fill="#363434"/>
<path d="M63.4619 36.8865H38.6314C38.4447 36.8868 38.2599 36.8483 38.089 36.7733C37.918 36.6983 37.7646 36.5885 37.6386 36.4509L34.4312 33.293L31.2346 36.4509C30.9619 36.7031 30.6123 36.8565 30.2418 36.8865H1.44022C1.06407 36.8865 0.703355 36.7374 0.437379 36.4719C0.171403 36.2064 0.0219727 35.8464 0.0219727 35.4709C0.0219727 35.0955 0.171403 34.7354 0.437379 34.4699C0.703355 34.2044 1.06407 34.0553 1.44022 34.0553H29.8054L33.5584 30.3529C33.8221 30.0909 34.1791 29.9438 34.5512 29.9438C34.9233 29.9438 35.2802 30.0909 35.544 30.3529L39.286 34.0553H63.571C63.9483 34.058 64.3097 34.2074 64.5786 34.4716C64.8474 34.7359 65.0026 35.0944 65.0111 35.4709C64.9758 35.857 64.7974 36.2161 64.5109 36.4779C64.2244 36.7397 63.8503 36.8854 63.4619 36.8865Z" fill="#363434"/>
<path d="M13.8008 45.0535H4.0911C3.71495 45.0535 3.35423 44.9044 3.08826 44.6389C2.82228 44.3734 2.67285 44.0134 2.67285 43.6379C2.67285 43.2625 2.82228 42.9024 3.08826 42.6369C3.35423 42.3714 3.71495 42.2223 4.0911 42.2223H13.8008C14.1769 42.2223 14.5376 42.3714 14.8036 42.6369C15.0696 42.9024 15.219 43.2625 15.219 43.6379C15.219 44.0134 15.0696 44.3734 14.8036 44.6389C14.5376 44.9044 14.1769 45.0535 13.8008 45.0535Z" fill="#363434"/>
<path d="M24.8306 50.4981H17.8811C17.505 50.4981 17.1442 50.3489 16.8783 50.0835C16.6123 49.818 16.4629 49.4579 16.4629 49.0825C16.4629 48.7071 16.6123 48.347 16.8783 48.0815C17.1442 47.816 17.505 47.6669 17.8811 47.6669H24.8306C25.2068 47.6669 25.5675 47.816 25.8335 48.0815C26.0995 48.347 26.2489 48.7071 26.2489 49.0825C26.2489 49.4579 26.0995 49.818 25.8335 50.0835C25.5675 50.3489 25.2068 50.4981 24.8306 50.4981Z" fill="#363434"/>
<path d="M42.8207 53.2204H33.1111C32.735 53.2204 32.3743 53.0713 32.1083 52.8058C31.8423 52.5403 31.6929 52.1803 31.6929 51.8048C31.6929 51.4294 31.8423 51.0693 32.1083 50.8039C32.3743 50.5384 32.735 50.3892 33.1111 50.3892H42.8207C43.1981 50.392 43.5595 50.5413 43.8283 50.8056C44.0972 51.0699 44.2523 51.4283 44.2608 51.8048C44.2161 52.1684 44.0495 52.5062 43.788 52.7632C43.5266 53.0202 43.1856 53.1814 42.8207 53.2204Z" fill="#363434"/>
<path d="M53.8614 58.6651H46.9119C46.5358 58.6651 46.175 58.5159 45.9091 58.2505C45.6431 57.985 45.4937 57.6249 45.4937 57.2495C45.4937 56.874 45.6431 56.514 45.9091 56.2485C46.175 55.983 46.5358 55.8339 46.9119 55.8339H53.8614C54.2368 55.8394 54.5955 55.99 54.862 56.254C55.1285 56.518 55.2821 56.8748 55.2906 57.2495C55.2464 57.6114 55.0813 57.9479 54.822 58.2047C54.5627 58.4616 54.2243 58.6237 53.8614 58.6651Z" fill="#363434"/>
<path d="M42.8207 45.0535H35.8821C35.506 45.0535 35.1452 44.9044 34.8792 44.6389C34.6133 44.3734 34.4639 44.0134 34.4639 43.6379C34.4639 43.2625 34.6133 42.9024 34.8792 42.6369C35.1452 42.3714 35.506 42.2223 35.8821 42.2223H42.8316C43.2089 42.225 43.5703 42.3744 43.8392 42.6386C44.108 42.9029 44.2632 43.2614 44.2717 43.6379C44.2431 44.0094 44.0801 44.3579 43.8132 44.6183C43.5462 44.8788 43.1934 45.0335 42.8207 45.0535Z" fill="#363434"/>
<path d="M56.6106 49.1914H49.6502C49.274 49.1914 48.9133 49.0422 48.6473 48.7768C48.3814 48.5113 48.2319 48.1512 48.2319 47.7758C48.2319 47.4003 48.3814 47.0402 48.6473 46.7748C48.9133 46.5093 49.274 46.3602 49.6502 46.3602H56.6106C56.986 46.3657 57.3447 46.5163 57.6112 46.7803C57.8777 47.0443 58.0313 47.4011 58.0397 47.7758C57.9955 48.1377 57.8305 48.4742 57.5712 48.731C57.3119 48.9878 56.9735 49.15 56.6106 49.1914Z" fill="#363434"/>
<path d="M13.801 53.2204H6.84064C6.4645 53.2204 6.10375 53.0713 5.83777 52.8058C5.57179 52.5403 5.42236 52.1803 5.42236 51.8048C5.42236 51.4294 5.57179 51.0693 5.83777 50.8039C6.10375 50.5384 6.4645 50.3892 6.84064 50.3892H13.801C14.1772 50.3892 14.5379 50.5384 14.8039 50.8039C15.0699 51.0693 15.2193 51.4294 15.2193 51.8048C15.2193 52.1803 15.0699 52.5403 14.8039 52.8058C14.5379 53.0713 14.1772 53.2204 13.801 53.2204Z" fill="#363434"/>
<path d="M27.5909 57.3583H20.6087C20.2325 57.3583 19.8718 57.2092 19.6058 56.9438C19.3398 56.6783 19.1904 56.3182 19.1904 55.9428C19.1904 55.5673 19.3398 55.2072 19.6058 54.9418C19.8718 54.6763 20.2325 54.5272 20.6087 54.5272H27.5582C27.9343 54.5272 28.2951 54.6763 28.561 54.9418C28.827 55.2072 28.9764 55.5673 28.9764 55.9428C28.9764 56.3182 28.827 56.6783 28.561 56.9438C28.2951 57.2092 27.9343 57.3583 27.5582 57.3583H27.5909Z" fill="#363434"/>
<path d="M11.0407 60.0807H8.28059C7.90444 60.0807 7.54369 59.9316 7.27771 59.6661C7.01174 59.4006 6.8623 59.0405 6.8623 58.6651C6.8623 58.2897 7.01174 57.9296 7.27771 57.6641C7.54369 57.3986 7.90444 57.2495 8.28059 57.2495H11.0407C11.4169 57.2495 11.7776 57.3986 12.0436 57.6641C12.3096 57.9296 12.459 58.2897 12.459 58.6651C12.459 59.0405 12.3096 59.4006 12.0436 59.6661C11.7776 59.9316 11.4169 60.0807 11.0407 60.0807Z" fill="#363434"/>
<path d="M37.3004 60.0807H35.8821C35.506 60.0807 35.1452 59.9316 34.8792 59.6661C34.6133 59.4006 34.4639 59.0405 34.4639 58.6651C34.4639 58.2897 34.6133 57.9296 34.8792 57.6641C35.1452 57.3986 35.506 57.2495 35.8821 57.2495H37.3113C37.6886 57.2522 38.05 57.4016 38.3189 57.6659C38.5877 57.9301 38.7429 58.2886 38.7514 58.6651C38.7062 59.0303 38.538 59.3694 38.2743 59.6266C38.0106 59.8839 37.6672 60.044 37.3004 60.0807Z" fill="#363434"/>
<path d="M27.5906 45.0535H26.1614C25.7853 45.0535 25.4245 44.9044 25.1586 44.6389C24.8926 44.3734 24.7432 44.0134 24.7432 43.6379C24.7432 43.2625 24.8926 42.9024 25.1586 42.6369C25.4245 42.3714 25.7853 42.2223 26.1614 42.2223H27.5906C27.9667 42.2223 28.3275 42.3714 28.5935 42.6369C28.8594 42.9024 29.0089 43.2625 29.0089 43.6379C29.0089 44.0134 28.8594 44.3734 28.5935 44.6389C28.3275 44.9044 27.9667 45.0535 27.5906 45.0535Z" fill="#363434"/>
<path d="M57.9417 43.7467H56.5125C56.3263 43.7467 56.1418 43.7101 55.9698 43.639C55.7977 43.5678 55.6413 43.4636 55.5096 43.3321C55.3779 43.2007 55.2735 43.0446 55.2022 42.8729C55.1309 42.7011 55.0942 42.517 55.0942 42.3311C55.0942 42.1452 55.1309 41.9611 55.2022 41.7894C55.2735 41.6176 55.3779 41.4616 55.5096 41.3301C55.6413 41.1987 55.7977 41.0944 55.9698 41.0233C56.1418 40.9521 56.3263 40.9155 56.5125 40.9155H57.9417C58.1279 40.9155 58.3124 40.9521 58.4844 41.0233C58.6565 41.0944 58.8129 41.1987 58.9446 41.3301C59.0763 41.4616 59.1807 41.6176 59.252 41.7894C59.3233 41.9611 59.3599 42.1452 59.3599 42.3311C59.3599 42.517 59.3233 42.7011 59.252 42.8729C59.1807 43.0446 59.0763 43.2007 58.9446 43.3321C58.8129 43.4636 58.6565 43.5678 58.4844 43.639C58.3124 43.7101 58.1279 43.7467 57.9417 43.7467Z" fill="#363434"/>
<path d="M57.9417 55.9427H56.5125C56.1364 55.9427 55.7756 55.7936 55.5096 55.5281C55.2437 55.2626 55.0942 54.9026 55.0942 54.5271C55.0942 54.1517 55.2437 53.7916 55.5096 53.5261C55.7756 53.2607 56.1364 53.1115 56.5125 53.1115H57.9417C58.3178 53.1115 58.6786 53.2607 58.9446 53.5261C59.2105 53.7916 59.3599 54.1517 59.3599 54.5271C59.3599 54.9026 59.2105 55.2626 58.9446 55.5281C58.6786 55.7936 58.3178 55.9427 57.9417 55.9427Z" fill="#363434"/>
<path d="M4.85498 12.3856C4.18801 12.377 3.53846 12.1717 2.98806 11.7956C2.43767 11.4195 2.01099 10.8894 1.76169 10.2718C1.51239 9.65431 1.45161 8.977 1.587 8.32508C1.72238 7.67316 2.04788 7.07572 2.52255 6.60797C2.99722 6.14022 3.59987 5.82303 4.25469 5.69627C4.90952 5.56951 5.5873 5.63886 6.20274 5.89559C6.81819 6.15232 7.34382 6.58497 7.71355 7.13911C8.08327 7.69326 8.28059 8.34413 8.28064 9.00991C8.272 9.91008 7.90693 10.7703 7.26511 11.4027C6.6233 12.0352 5.75687 12.3885 4.85498 12.3856ZM4.85498 8.35655C4.68555 8.36913 4.52628 8.44201 4.40615 8.56192C4.28601 8.68183 4.21299 8.8408 4.20039 9.00991C4.22106 9.17006 4.29948 9.31721 4.42096 9.42384C4.54244 9.53048 4.69867 9.5893 4.86044 9.5893C5.02221 9.5893 5.17844 9.53048 5.29992 9.42384C5.42139 9.31721 5.49982 9.17006 5.52049 9.00991C5.50758 8.83906 5.43299 8.67868 5.3106 8.55853C5.18822 8.43838 5.02634 8.36661 4.85498 8.35655Z" fill="#363434"/>
<path d="M60.7017 8.35655C59.8836 8.34796 59.0864 8.098 58.4104 7.63812C57.7345 7.17825 57.2099 6.52903 56.9028 5.77221C56.5957 5.01538 56.5198 4.18478 56.6847 3.38499C56.8495 2.5852 57.2477 1.85196 57.8292 1.27761C58.4107 0.703263 59.1494 0.313478 59.9524 0.157314C60.7554 0.00114945 61.5867 0.0856071 62.3417 0.400037C63.0967 0.714466 63.7416 1.24479 64.1952 1.9243C64.6489 2.6038 64.8909 3.40209 64.891 4.21863C64.8881 4.7649 64.7775 5.30524 64.5654 5.80883C64.3533 6.31241 64.044 6.76939 63.6549 7.15364C63.2659 7.53788 62.8049 7.84186 62.2982 8.04826C61.7914 8.25466 61.2489 8.35942 60.7017 8.35655ZM60.7017 2.9119C60.4221 2.9162 60.1501 3.00287 59.9197 3.16101C59.6894 3.31914 59.511 3.5417 59.407 3.80071C59.303 4.05973 59.278 4.34366 59.3352 4.61681C59.3923 4.88996 59.5291 5.14014 59.7283 5.33594C59.9275 5.53175 60.1802 5.66443 60.4547 5.71731C60.7292 5.77019 61.0133 5.74092 61.2711 5.63316C61.529 5.52541 61.7493 5.344 61.9042 5.1117C62.0591 4.8794 62.1417 4.60658 62.1417 4.32753C62.1464 4.13852 62.1121 3.95057 62.0411 3.77529C61.9701 3.60001 61.8638 3.44113 61.7288 3.30846C61.5939 3.17579 61.4331 3.07213 61.2564 3.00392C61.0797 2.93572 60.8909 2.9044 60.7017 2.9119Z" fill="#363434"/>
</svg>
