<svg width="79" height="79" viewBox="0 0 79 79" fill="none" xmlns="http://www.w3.org/2000/svg">
<path d="M45.6598 42.4376C44.9427 42.4398 44.2293 42.5407 43.5398 42.7376C43.1764 41.2209 42.3108 39.8718 41.0834 38.9095C39.8561 37.9473 38.3393 37.4285 36.7798 37.4376C35.9843 37.4151 35.1923 37.551 34.4498 37.8376C33.9585 36.4309 33.084 35.1894 31.9249 34.253C30.7659 33.3165 29.3684 32.7224 27.8898 32.5376C28.3277 28.7504 29.4923 25.0834 31.3198 21.7376C32.8758 22.7726 34.7011 23.3288 36.5698 23.3376C38.6726 23.3119 40.704 22.5713 42.3298 21.2376C45.1598 18.9376 45.6598 15.2376 46.1698 11.9376C46.5698 9.23757 46.9798 6.63758 48.4898 5.53758C48.5881 5.45337 48.6595 5.34211 48.6951 5.21764C48.7306 5.09318 48.7288 4.96101 48.6898 4.83758C48.6324 4.70396 48.533 4.59266 48.4067 4.5205C48.2804 4.44834 48.1341 4.41923 47.9898 4.43757C47.5798 4.43757 47.0798 4.53758 46.5698 4.53758C45.7286 4.55226 44.8872 4.51887 44.0498 4.43757C43.0498 4.33757 42.0498 4.33758 40.9198 4.33758C37.1982 4.16274 33.5382 5.33424 30.6098 7.63758C29.7093 8.4052 28.9691 9.34285 28.4314 10.3969C27.8937 11.4509 27.5691 12.6006 27.4762 13.7802C27.3833 14.9598 27.524 16.1461 27.8901 17.2713C28.2562 18.3965 28.8406 19.4385 29.6098 20.3376C29.8571 20.6263 30.128 20.8939 30.4198 21.1376C29.1689 23.3464 28.1854 25.6963 27.4898 28.1376C27.4798 23.2021 26.4125 18.326 24.3598 13.8376C23.8087 12.6401 23.1387 11.501 22.3598 10.4376L22.4598 10.3376C23.4766 9.14474 23.9863 7.60136 23.8798 6.03758C23.8408 5.29729 23.6418 4.57424 23.2966 3.91824C22.9513 3.26223 22.468 2.68885 21.8798 2.23757C20.0385 0.796141 17.7467 0.0523012 15.4098 0.137581H12.2798C11.9432 0.163114 11.6047 0.129259 11.2798 0.0375751C11.1355 0.0192351 10.9892 0.048346 10.8629 0.120507C10.7366 0.192667 10.6373 0.303952 10.5798 0.437569C10.5263 0.559259 10.5169 0.695835 10.5535 0.823662C10.59 0.951489 10.67 1.06254 10.7798 1.13758C12.7798 2.53758 12.6998 3.23758 12.4998 4.53758C12.3511 5.36219 12.3141 6.20308 12.3898 7.03758C12.5855 8.44458 13.2986 9.72814 14.3898 10.6376C15.4306 11.5338 16.7564 12.0301 18.1298 12.0376C19.2812 12.0277 20.4043 11.68 21.3598 11.0376C22.0531 12.0175 22.662 13.0546 23.1798 14.1376C24.8998 17.6376 26.7198 23.5376 26.1098 31.8376C24.661 29.0669 22.7075 26.5911 20.3498 24.5376C20.3498 24.4376 20.4498 24.4376 20.4498 24.3376C20.882 23.6243 21.154 22.8257 21.2473 21.9969C21.3405 21.1682 21.2527 20.3291 20.9898 19.5376C20.7778 18.7447 20.4011 18.0053 19.8842 17.3678C19.3673 16.7303 18.7218 16.2089 17.9898 15.8376C16.5737 15.0321 14.9688 14.6179 13.3398 14.6376C11.773 14.7088 10.2179 14.9434 8.69983 15.3376C7.69983 15.5376 6.77982 15.7376 6.06982 15.8376C5.92815 15.8413 5.79186 15.8926 5.68298 15.9834C5.57411 16.0741 5.49898 16.1989 5.46979 16.3376C5.45008 16.4098 5.44479 16.4852 5.45422 16.5595C5.46366 16.6337 5.48764 16.7054 5.52478 16.7704C5.56193 16.8354 5.61152 16.8925 5.67072 16.9383C5.72991 16.9842 5.79758 17.0179 5.86981 17.0376C8.39981 18.2376 8.39982 18.9376 8.49982 20.4376C8.51302 21.3513 8.64749 22.2593 8.89978 23.1376C9.1378 23.8705 9.51951 24.5487 10.0226 25.1325C10.5257 25.7163 11.1401 26.1939 11.8298 26.5376C12.7702 27.1204 13.8534 27.4319 14.9598 27.4376C15.7911 27.4458 16.6151 27.2811 17.3794 26.954C18.1437 26.6269 18.8317 26.1446 19.3998 25.5376C21.6106 27.5379 23.4579 29.9063 24.8598 32.5376C23.4892 32.8134 22.2123 33.4363 21.1512 34.3468C20.0902 35.2572 19.2806 36.4247 18.7998 37.7376C18.0605 37.4523 17.272 37.3164 16.4798 37.3376C14.9185 37.3262 13.3995 37.844 12.1701 38.8064C10.9407 39.7689 10.0735 41.1193 9.70978 42.6376C9.60978 42.6376 9.50979 42.5376 9.40979 42.5376H9.2998C9.1998 42.5376 9.09979 42.5376 9.09979 42.4376H8.98981C8.78981 42.4376 8.58983 42.3376 8.38983 42.3376H7.67981C5.84982 42.3376 4.09478 43.0645 2.80078 44.3585C1.50678 45.6525 0.779785 47.4076 0.779785 49.2376C0.779785 51.0676 1.50678 52.8226 2.80078 54.1166C4.09478 55.4106 5.84982 56.1376 7.67981 56.1376H45.6798C47.4965 56.1376 49.2389 55.4159 50.5235 54.1313C51.8081 52.8466 52.5298 51.1043 52.5298 49.2876C52.5298 47.4708 51.8081 45.7285 50.5235 44.4439C49.2389 43.1593 47.4965 42.4376 45.6798 42.4376H45.6598ZM20.0098 51.4376C19.7681 51.6782 19.4409 51.8132 19.0998 51.8132C18.7587 51.8132 18.4316 51.6782 18.1898 51.4376C18.0713 51.3196 17.9773 51.1793 17.9131 51.0249C17.8489 50.8704 17.8159 50.7048 17.8159 50.5376C17.8159 50.3703 17.8489 50.2047 17.9131 50.0503C17.9773 49.8958 18.0713 49.7556 18.1898 49.6376C18.4316 49.397 18.7587 49.2619 19.0998 49.2619C19.4409 49.2619 19.7681 49.397 20.0098 49.6376C20.1295 49.7555 20.2242 49.8964 20.2882 50.0518C20.3522 50.2071 20.3843 50.3738 20.3824 50.5418C20.3805 50.7099 20.3448 50.8758 20.2773 51.0297C20.2099 51.1836 20.1121 51.3223 19.9898 51.4376H20.0098ZM23.8498 45.1376C23.608 45.3782 23.2809 45.5132 22.9398 45.5132C22.5988 45.5132 22.2715 45.3782 22.0298 45.1376C21.9113 45.0196 21.8172 44.8793 21.7531 44.7249C21.6889 44.5704 21.6559 44.4048 21.6559 44.2376C21.6559 44.0703 21.6889 43.9047 21.7531 43.7503C21.8172 43.5958 21.9113 43.4556 22.0298 43.3376C22.2715 43.097 22.5988 42.9619 22.9398 42.9619C23.2809 42.9619 23.608 43.097 23.8498 43.3376C23.9683 43.4556 24.0624 43.5958 24.1265 43.7503C24.1907 43.9047 24.2238 44.0703 24.2238 44.2376C24.2238 44.4048 24.1907 44.5704 24.1265 44.7249C24.0624 44.8793 23.9683 45.0196 23.8498 45.1376ZM31.4198 48.9376C31.1781 49.1782 30.8509 49.3132 30.5098 49.3132C30.1688 49.3132 29.8415 49.1782 29.5998 48.9376C29.4813 48.8196 29.3872 48.6793 29.3231 48.5249C29.2589 48.3704 29.2258 48.2048 29.2258 48.0376C29.2258 47.8703 29.2589 47.7047 29.3231 47.5503C29.3872 47.3958 29.4813 47.2556 29.5998 47.1376C29.8415 46.897 30.1688 46.7619 30.5098 46.7619C30.8509 46.7619 31.1781 46.897 31.4198 47.1376C31.5408 47.2542 31.637 47.394 31.7028 47.5486C31.7685 47.7032 31.8024 47.8695 31.8024 48.0376C31.8024 48.2056 31.7685 48.3719 31.7028 48.5265C31.637 48.6812 31.5408 48.821 31.4198 48.9376ZM38.6898 48.0376C38.5345 48.026 38.3885 47.9591 38.2784 47.849C38.1683 47.7389 38.1013 47.5929 38.0898 47.4376C38.0872 46.9359 37.9858 46.4397 37.7914 45.9772C37.597 45.5148 37.3134 45.0951 36.9568 44.7423C36.6003 44.3894 36.1777 44.1102 35.7132 43.9207C35.2487 43.7311 34.7515 43.6349 34.2498 43.6376C34.0907 43.6376 33.9381 43.5744 33.8256 43.4618C33.713 43.3493 33.6498 43.1967 33.6498 43.0376C33.6498 42.8784 33.713 42.7258 33.8256 42.6133C33.9381 42.5008 34.0907 42.4376 34.2498 42.4376C35.5759 42.4376 36.8477 42.9644 37.7853 43.902C38.723 44.8397 39.2498 46.1115 39.2498 47.4376C39.3998 47.7376 39.0998 48.0376 38.6898 48.0376Z" fill="#AE7003"/>
<path fill-rule="evenodd" clip-rule="evenodd" d="M27.8899 32.5376C29.3684 32.7224 25.8405 31.6012 26.9995 32.5376L25.4995 32.0376C26.5605 31.1271 23.4892 32.8134 24.8598 32.5376C23.458 29.9063 21.6106 27.5379 19.3998 25.5376C18.8317 26.1446 18.1437 26.6269 17.3794 26.954C16.6151 27.2811 15.7911 27.4458 14.9598 27.4376C13.8534 27.4319 12.7703 27.1204 11.8299 26.5376C11.1401 26.1939 10.5257 25.7163 10.0226 25.1325C9.51954 24.5487 9.13783 23.8705 8.89981 23.1376C8.64752 22.2593 8.51305 21.3513 8.49985 20.4376C8.49799 20.4098 8.49617 20.3823 8.49437 20.355C8.39898 18.9115 8.35297 18.2153 5.86984 17.0376C5.79761 17.0179 5.72994 16.9842 5.67074 16.9383C5.61155 16.8925 5.56195 16.8354 5.52481 16.7704C5.48766 16.7054 5.46369 16.6337 5.45425 16.5595C5.44482 16.4852 5.45011 16.4098 5.46982 16.3376C5.49901 16.1989 5.57414 16.0741 5.68301 15.9834C5.79188 15.8926 5.92818 15.8413 6.06985 15.8376C6.62258 15.7597 7.30257 15.6213 8.0485 15.4694C8.26075 15.4262 8.47834 15.3819 8.69986 15.3376C10.2179 14.9434 11.773 14.7088 13.3398 14.6376C14.9688 14.6179 16.5738 15.0321 17.9898 15.8376C18.7218 16.2089 19.3673 16.7303 19.8842 17.3678C20.4012 18.0053 20.7779 18.7447 20.9898 19.5376C21.2527 20.3291 21.3405 21.1682 21.2473 21.9969C21.154 22.8257 20.882 23.6243 20.4499 24.3376C20.4499 24.3876 20.4248 24.4126 20.3998 24.4376C20.3748 24.4626 20.3498 24.4876 20.3498 24.5376C22.7076 26.5911 24.6611 29.0669 26.1098 31.8376C26.7198 23.5376 24.8998 17.6376 23.1798 14.1376C22.662 13.0546 22.0532 12.0175 21.3598 11.0376C20.4043 11.68 19.2812 12.0277 18.1299 12.0376C16.7564 12.0301 15.4306 11.5338 14.3899 10.6376C13.2986 9.72814 12.5855 8.44458 12.3899 7.03758C12.3141 6.20308 12.3511 5.36219 12.4998 4.53758C12.6998 3.23758 12.7798 2.53758 10.7798 1.13758C10.6701 1.06254 10.59 0.951489 10.5535 0.823662C10.517 0.695835 10.5263 0.559259 10.5799 0.437569C10.6373 0.303952 10.7367 0.192667 10.8629 0.120507C10.9892 0.048346 11.1355 0.0192351 11.2798 0.0375751C11.6047 0.129259 11.9432 0.163114 12.2798 0.137581H15.4098C17.7467 0.0523012 20.0385 0.796141 21.8799 2.23757C22.468 2.68885 22.9513 3.26223 23.2966 3.91824C23.6419 4.57424 23.8408 5.29729 23.8799 6.03758C23.9863 7.60136 23.4766 9.14474 22.4598 10.3376L22.3598 10.4376C23.1387 11.501 23.8088 12.6401 24.3598 13.8376C26.4126 18.326 27.4799 23.2021 27.4898 28.1376C28.1854 25.6963 29.169 23.3464 30.4198 21.1376C30.128 20.8939 29.8571 20.6263 29.6098 20.3376C28.8406 19.4385 28.2562 18.3965 27.8901 17.2713C27.524 16.1461 27.3833 14.9598 27.4762 13.7802C27.5691 12.6006 27.8937 11.4509 28.4314 10.3969C28.9691 9.34285 29.7094 8.4052 30.6098 7.63758C33.5382 5.33424 37.1982 4.16274 40.9198 4.33758C42.0498 4.33758 43.0498 4.33757 44.0498 4.43757C44.8872 4.51887 45.7286 4.55226 46.5699 4.53758C46.8388 4.53758 47.1049 4.50977 47.3565 4.48349C47.5821 4.45992 47.796 4.43757 47.9898 4.43757C48.1341 4.41923 48.2804 4.44834 48.4067 4.5205C48.533 4.59266 48.6324 4.70396 48.6898 4.83758C48.7288 4.96101 48.7307 5.09318 48.6951 5.21764C48.6595 5.34211 48.5881 5.45337 48.4898 5.53758C46.9798 6.63758 46.5698 9.23757 46.1698 11.9376C46.1559 12.0279 46.1419 12.1185 46.1279 12.2093C45.6307 15.439 45.0824 19.0005 42.3299 21.2376C40.704 22.5713 38.6726 23.3119 36.5699 23.3376C34.7011 23.3288 32.8759 22.7726 31.3199 21.7376C29.4924 25.0834 28.3278 28.7504 27.8899 32.5376Z" fill="#4C9F74"/>
<path d="M5.2699 34.9375C5.88125 34.9296 6.47658 34.7411 6.98108 34.3958C7.48558 34.0504 7.87671 33.5635 8.10522 32.9964C8.33373 32.4293 8.38941 31.8073 8.26532 31.2086C8.14123 30.6099 7.84287 30.0613 7.40778 29.6318C6.97268 29.2022 6.42029 28.9109 5.82007 28.7945C5.21984 28.6781 4.59861 28.7418 4.03448 28.9775C3.47036 29.2133 2.98855 29.6106 2.64966 30.1195C2.31076 30.6284 2.12993 31.2261 2.12988 31.8375C2.1378 32.6642 2.47244 33.4541 3.06073 34.0349C3.64902 34.6157 4.44321 34.9402 5.2699 34.9375Z" fill="#D9BA83"/>
<path d="M51.3196 21.1376C50.5698 21.1455 49.8391 21.3751 49.2194 21.7974C48.5998 22.2197 48.119 22.8159 47.8375 23.5109C47.556 24.2059 47.4864 24.9687 47.6375 25.7032C47.7886 26.4377 48.1537 27.111 48.6867 27.6384C49.2197 28.1659 49.8968 28.5238 50.6328 28.6673C51.3688 28.8107 52.1309 28.7331 52.8229 28.4444C53.5149 28.1556 54.1061 27.6686 54.5219 27.0446C54.9377 26.4206 55.1595 25.6875 55.1596 24.9376C55.1569 24.436 55.0556 23.9397 54.8612 23.4773C54.6668 23.0148 54.3832 22.5952 54.0266 22.2423C53.67 21.8895 53.2474 21.6103 52.783 21.4207C52.3185 21.2312 51.8212 21.135 51.3196 21.1376Z" fill="#D9BA83"/>
<path d="M2.91992 9.81761L4.70992 8.04761L6.48992 9.81761L4.70992 11.5876L2.91992 9.81761Z" fill="#D9BA83"/>
<path d="M13.02 32.3176L14.81 30.5476L16.59 32.3176L14.81 34.0876L13.02 32.3176Z" fill="#D9BA83"/>
<path d="M36.8398 29.7676L38.6198 28.0076L40.4098 29.7676L38.6198 31.5376L36.8398 29.7676Z" fill="#D9BA83"/>
</svg>
