<svg width="89" height="90" viewBox="0 0 89 90" fill="none" xmlns="http://www.w3.org/2000/svg">
<mask id="mask0_424_2726" style="mask-type:luminance" maskUnits="userSpaceOnUse" x="0" y="0" width="89" height="90">
<path d="M44.3185 89.0807C19.842 89.0807 -0.000183105 69.2596 -0.000183105 44.8091C-0.000183105 20.3586 19.842 0.537598 44.3185 0.537598C68.7951 0.537598 88.6372 20.3586 88.6372 44.8091C88.6372 69.2596 68.7951 89.0807 44.3185 89.0807Z" fill="white"/>
</mask>
<g mask="url(#mask0_424_2726)">
<path d="M44.3185 89.0807C19.842 89.0807 -0.000183105 69.2596 -0.000183105 44.8091C-0.000183105 20.3586 19.842 0.537598 44.3185 0.537598C68.7951 0.537598 88.6372 20.3586 88.6372 44.8091C88.6372 69.2596 68.7951 89.0807 44.3185 89.0807Z" fill="white"/>
<path d="M136.014 99.5377C136.014 99.5377 104.503 65.7319 42.9444 69.7075C-18.6143 73.6831 -31.1742 53.4864 -40.9509 36.2471C-40.9509 36.2471 -43.5479 73.6831 14.1727 85.6187C71.8934 97.5543 63.854 71.2039 136.014 99.5377Z" fill="#494949"/>
<path d="M134.445 91.5776C134.445 91.5776 96.5789 40.8778 35.0114 44.8534C-26.5561 48.829 -37.8308 41.0461 -40.9863 26.4276C-40.9863 26.4276 -38.2297 55.9213 -0.709488 64.7402C45.834 75.6753 69.2609 48.2623 134.445 91.5776Z" fill="#D9BA83"/>
<path d="M21.9727 25.8787L21.8664 29.323L39.5141 29.8808C39.5141 29.8808 39.5761 26.6844 36.4738 26.3391L21.9727 25.8787Z" fill="#494949"/>
<path d="M47.4826 47.3061L49.6188 39.8596C49.6188 39.8596 51.3916 36.982 46.4101 36.8314L25.279 36.1674L25.2081 38.496L37.5553 39.0539L35.7825 46.9342L47.4826 47.3061Z" fill="#494949"/>
<path d="M37.9122 27.586L39.0806 38.1914L36.8779 38.4335L35.7096 27.8281L37.9122 27.586Z" fill="#494949"/>
<path d="M25.5492 27.2128L27.7642 27.2788L27.4454 37.9435L25.2305 37.8774L25.5492 27.2128Z" fill="#494949"/>
<path d="M22.6907 27.1306L24.6997 27.4766L21.9655 43.3223L19.9564 42.9764L22.6907 27.1306Z" fill="#494949"/>
<path d="M19.9114 44.3816L37.4434 44.9534L37.3768 46.9888L19.8448 46.417L19.9114 44.3816Z" fill="#494949"/>
<path d="M17.6562 44.3044C17.6063 45.9736 18.0527 47.6201 18.9391 49.036C19.8256 50.4518 21.1122 51.5734 22.6366 52.2591C24.1609 52.9447 25.8544 53.1636 27.5032 52.8882C29.1521 52.6127 30.6822 51.8553 31.9002 50.7115C33.1182 49.5677 33.9695 48.0889 34.3466 46.462C34.7236 44.8351 34.6095 43.133 34.0185 41.5709C33.4276 40.0088 32.3864 38.6567 31.0265 37.6855C29.6666 36.7142 28.049 36.1674 26.3781 36.1142C25.2668 36.0787 24.1594 36.2626 23.1193 36.6552C22.0792 37.0479 21.1268 37.6415 20.3167 38.4023C19.5066 39.163 18.8546 40.0759 18.3981 41.0887C17.9415 42.1014 17.6895 43.1942 17.6562 44.3044Z" fill="#494949"/>
<path d="M19.5532 44.3664C19.5135 45.6614 19.8591 46.9392 20.5462 48.038C21.2333 49.1369 22.2312 50.0076 23.4136 50.5401C24.596 51.0726 25.9099 51.2429 27.1892 51.0296C28.4685 50.8163 29.6558 50.2289 30.601 49.3416C31.5462 48.4544 32.2068 47.3071 32.4994 46.0449C32.792 44.7826 32.7034 43.4621 32.2448 42.2502C31.7862 41.0382 30.9782 39.9893 29.923 39.236C28.8677 38.4826 27.6126 38.0588 26.3162 38.0179C24.577 37.9654 22.8881 38.6044 21.6201 39.7947C20.3521 40.985 19.6087 42.6292 19.5532 44.3664Z" fill="white"/>
<path d="M23.1694 44.4727C23.1504 45.0523 23.3039 45.6245 23.6106 46.1169C23.9173 46.6093 24.3633 46.9997 24.8921 47.2388C25.421 47.4779 26.009 47.5549 26.5817 47.46C27.1544 47.3651 27.6861 47.1027 28.1094 46.7058C28.5327 46.309 28.8287 45.7957 28.9598 45.2307C29.0909 44.6658 29.0514 44.0747 28.8461 43.5323C28.6408 42.9899 28.279 42.5205 27.8066 42.1835C27.3341 41.8465 26.7722 41.6571 26.192 41.6393C25.4159 41.6178 24.6627 41.9035 24.0966 42.4342C23.5304 42.9649 23.1972 43.6976 23.1694 44.4727Z" fill="#494949"/>
<path d="M40.7464 48.1826C40.7171 49.2327 41.0001 50.268 41.5596 51.1575C42.1191 52.047 42.9301 52.7508 43.89 53.18C44.85 53.6091 45.9157 53.7444 46.9525 53.5686C47.9894 53.3928 48.9508 52.9139 49.7152 52.1923C50.4796 51.4708 51.0127 50.5391 51.2471 49.515C51.4815 48.4909 51.4067 47.4203 51.0321 46.4387C50.6575 45.457 50 44.6083 49.1426 43.9999C48.2853 43.3915 47.2666 43.0507 46.2154 43.0205C45.5169 43.0005 44.8213 43.1181 44.1684 43.3667C43.5154 43.6153 42.918 43.9901 42.4101 44.4694C41.9022 44.9488 41.4938 45.5235 41.2084 46.1606C40.9229 46.7978 40.766 47.4848 40.7464 48.1826Z" fill="#494949"/>
<path d="M44.6285 48.3331C44.6198 48.6153 44.6952 48.8937 44.845 49.133C44.9949 49.3723 45.2125 49.5618 45.4703 49.6774C45.728 49.793 46.0144 49.8296 46.293 49.7825C46.5716 49.7354 46.8299 49.6068 47.0353 49.4128C47.2406 49.2189 47.3837 48.9684 47.4464 48.6932C47.5091 48.418 47.4885 48.1303 47.3874 47.8668C47.2863 47.6032 47.1091 47.3755 46.8783 47.2127C46.6475 47.0498 46.3735 46.959 46.091 46.9519C45.904 46.946 45.7177 46.9771 45.5428 47.0434C45.3679 47.1098 45.2079 47.21 45.0719 47.3384C44.936 47.4668 44.8268 47.6208 44.7507 47.7915C44.6746 47.9622 44.6331 48.1463 44.6285 48.3331Z" fill="white"/>
<path d="M43.442 28.2856L45.5151 28.3503L45.189 38.7756L43.1159 38.7109L43.442 28.2856Z" fill="#494949"/>
<path d="M43.0405 28.5552L45.8857 28.6405L45.8709 29.1363L43.0256 29.0511L43.0405 28.5552Z" fill="#494949"/>
</g>
</svg>
