<svg width="69" height="70" viewBox="0 0 69 70" fill="none" xmlns="http://www.w3.org/2000/svg">
<g clip-path="url(#clip0_424_2793)">
<path d="M69 68.9458C68.8258 69.0091 68.6449 69.0525 68.4609 69.0751C65.792 69.0823 63.1242 69.0823 60.4577 69.0751H0V0.0751343H9.01133C8.88993 0.128071 8.76431 0.170747 8.63578 0.202714C6.25709 0.583894 4.09313 1.80317 2.53478 3.6403C0.976435 5.47742 0.126449 7.81128 0.138359 10.2203C0.138359 12.3765 0.172499 14.5238 0.116796 16.6747C0.098827 17.3683 0.330624 17.6935 0.937968 17.9738C3.1625 18.9998 4.21008 20.7841 4.17234 23.2243C4.15797 24.2719 4.17234 25.3176 4.17234 26.385H16.3749C16.3749 25.0643 16.3408 23.7903 16.3839 22.5181C16.4396 20.9009 17.1655 19.5946 18.4611 18.6333C18.9378 18.3003 19.4443 18.0122 19.9741 17.7726C20.1195 17.7217 20.2433 17.6228 20.325 17.4921C20.4066 17.3615 20.4413 17.2068 20.4233 17.0538C20.4035 14.7179 20.4466 12.3909 20.4035 10.0622C20.3701 7.94107 19.6728 5.88378 18.4097 4.17945C17.1466 2.47511 15.3812 1.20943 13.3616 0.560293C12.7722 0.371621 12.163 0.238652 11.5647 0.0805274H58.9123V4.14326H61.9814C61.8466 4.32295 61.7891 4.4092 61.7173 4.48107C59.9114 6.28873 58.1109 8.10178 56.2871 9.89147C56.0725 10.0699 55.8026 10.1683 55.5234 10.17C53.7535 10.1933 51.9836 10.1987 50.2119 10.17C50.0272 10.1527 49.8417 10.193 49.6808 10.2853C49.52 10.3776 49.3916 10.5175 49.3134 10.6857C47.5363 13.6883 45.7197 16.6711 43.948 19.6701C43.6587 20.1624 43.3388 20.3295 42.7764 20.3205C40.6465 20.2846 38.5172 20.2846 36.3885 20.3205C36.0027 20.337 35.6348 20.4876 35.3481 20.7464C32.9008 23.1488 30.4966 25.598 28.0492 27.995C27.7785 28.239 27.4321 28.3824 27.0681 28.4011C25.4779 28.4442 23.8859 28.4388 22.2938 28.4101C22.0638 28.396 21.8336 28.4336 21.62 28.52C21.4064 28.6065 21.2149 28.7396 21.0594 28.9096C18.7468 31.2563 16.3875 33.5635 14.0911 35.9174C13.8993 36.1278 13.6625 36.2923 13.3984 36.3987C13.1343 36.5051 12.8497 36.5506 12.5655 36.5319C10.0122 36.5014 7.45703 36.5194 4.90187 36.5194H4.21367V40.5264C4.30922 40.5466 4.4058 40.5616 4.50297 40.5713C7.9332 40.5713 11.3616 40.5839 14.7901 40.5569C15.0906 40.5183 15.3679 40.3752 15.5735 40.1526C18.0119 37.7412 20.4251 35.3011 22.8688 32.9005C23.1386 32.6562 23.4846 32.5127 23.8481 32.4944C25.3934 32.4512 26.9393 32.4512 28.4859 32.4944C28.7593 32.5139 29.0336 32.4706 29.2877 32.3679C29.5419 32.2651 29.7691 32.1055 29.9521 31.9014C32.2916 29.5187 34.6539 27.1588 37.039 24.8217C37.3087 24.5777 37.655 24.4354 38.0183 24.4192C40.4153 24.3851 42.8141 24.3904 45.2058 24.4102C45.4004 24.4315 45.5968 24.392 45.7679 24.297C45.9391 24.2021 46.0767 24.0565 46.1617 23.8801C47.9586 20.8344 49.7986 17.8139 51.6027 14.7718C51.6811 14.6039 51.8096 14.4645 51.9704 14.3725C52.1313 14.2805 52.3166 14.2404 52.5011 14.2579C53.9566 14.2848 55.4138 14.2399 56.8693 14.283C57.1329 14.2964 57.396 14.2497 57.6389 14.1463C57.8817 14.043 58.0978 13.8857 58.2709 13.6865C60.2798 11.6398 62.3174 9.62014 64.3479 7.59326C64.5078 7.43514 64.6803 7.28959 64.975 7.02185V10.1574H68.9874V56.8402H64.9373V22.4121H52.7401V56.7324H48.7564V32.5267H36.5772V56.7216H32.5198V40.609H20.3532V56.7396H16.3354V44.6628H4.16336V56.8007H0.17789V68.9458H69Z" fill="white"/>
<path d="M69 68.9459H0.179688V56.8008H4.16336V44.6629H16.3354V56.7397H20.3532V40.6092H32.5252V56.7218H36.5826V32.5269H48.7618V56.7397H52.7455V22.4194H64.9427V56.8476H69.0054L69 68.9459ZM64.9247 60.9229H4.23164V64.8455H64.9247V60.9229ZM60.8458 56.7487V26.475H56.9232V56.7487H60.8458ZM44.62 56.7308V36.5788H40.6669V56.7308H44.62ZM28.4373 56.7308V44.6917H24.513V56.7308H28.4373ZM8.2782 48.7562V56.7272H12.2673V48.7562H8.2782Z" fill="#363434"/>
<path d="M68.9998 10.1683H64.9874V7.0328C64.6927 7.30053 64.5202 7.44608 64.3603 7.6042C62.3298 9.63108 60.2922 11.6508 58.2833 13.6974C58.1102 13.8967 57.8941 14.0539 57.6513 14.1573C57.4084 14.2606 57.1453 14.3074 56.8817 14.294C55.4262 14.2508 53.969 14.294 52.5135 14.2688C52.329 14.2514 52.1437 14.2914 51.9828 14.3834C51.822 14.4754 51.6935 14.6149 51.6151 14.7827C49.8182 17.8248 47.9728 20.8454 46.1741 23.8911C46.0891 24.0674 45.9515 24.213 45.7804 24.308C45.6092 24.4029 45.4128 24.4424 45.2182 24.4212C42.8212 24.4014 40.4223 24.396 38.0307 24.4301C37.6674 24.4463 37.3211 24.5886 37.0514 24.8326C34.6687 27.1722 32.3064 29.5321 29.9645 31.9123C29.7815 32.1165 29.5543 32.276 29.3001 32.3788C29.046 32.4816 28.7717 32.5249 28.4983 32.5053C26.9529 32.4658 25.407 32.4658 23.8605 32.5053C23.497 32.5236 23.151 32.6671 22.8812 32.9114C20.4357 35.3156 18.0297 37.7522 15.5859 40.1636C15.3803 40.3862 15.103 40.5293 14.8025 40.5679C11.374 40.5948 7.94561 40.584 4.51537 40.5822C4.4182 40.5725 4.32163 40.5575 4.22607 40.5373V36.5303H4.8999C7.45506 36.5303 10.0102 36.5123 12.5636 36.5429C12.8477 36.5616 13.1324 36.5161 13.3965 36.4097C13.6606 36.3033 13.8973 36.1388 14.0891 35.9283C16.3927 33.5726 18.7448 31.2565 21.0574 28.9205C21.2129 28.7505 21.4045 28.6174 21.6181 28.531C21.8316 28.4445 22.0619 28.407 22.2919 28.421C23.8839 28.4498 25.4759 28.4551 27.0662 28.412C27.4301 28.3933 27.7766 28.2499 28.0472 28.0059C30.491 25.6017 32.8988 23.1544 35.3462 20.7573C35.6328 20.4986 36.0007 20.348 36.3865 20.3315C38.5152 20.2919 40.6445 20.2919 42.7744 20.3315C43.3369 20.3405 43.6567 20.1733 43.946 19.681C45.7177 16.6748 47.5397 13.692 49.3115 10.6966C49.3897 10.5284 49.518 10.3886 49.6789 10.2962C49.8397 10.2039 50.0252 10.1636 50.2099 10.1809C51.9816 10.2079 53.7515 10.2025 55.5215 10.1809C55.8006 10.1793 56.0705 10.0808 56.2851 9.90241C58.109 8.10553 59.9094 6.29967 61.7153 4.49201C61.7872 4.42014 61.8447 4.3285 61.9794 4.1542H58.9122V0.0806885H68.9998V10.1683Z" fill="#4C9F74"/>
<path d="M11.5667 0.0806885C12.1668 0.238813 12.776 0.371782 13.3635 0.560454C15.3831 1.20959 17.1486 2.47527 18.4117 4.17961C19.6748 5.88394 20.372 7.94123 20.4055 10.0623C20.4486 12.3983 20.4055 14.7234 20.4253 17.054C20.4433 17.207 20.4086 17.3616 20.3269 17.4923C20.2453 17.6229 20.1215 17.7219 19.976 17.7727C19.4462 18.0123 18.9398 18.3005 18.4631 18.6334C17.1675 19.5947 16.4416 20.8975 16.3859 22.5183C16.3428 23.7905 16.3769 25.0644 16.3769 26.3851H4.18151C4.18151 25.3178 4.16893 24.272 4.18151 23.2244C4.21385 20.7843 3.16628 19 0.947136 17.974C0.339792 17.6937 0.107995 17.3684 0.125964 16.6748C0.181667 14.5186 0.143933 12.3731 0.147527 10.2205C0.138196 7.81329 0.989349 5.48202 2.54747 3.64714C4.10558 1.81226 6.26809 0.594553 8.64495 0.213655C8.77347 0.181689 8.89909 0.139015 9.0205 0.0860789L11.5667 0.0806885ZM4.26596 14.276C4.08628 14.8438 4.22104 15.1511 4.62534 15.4565C6.09043 16.5495 7.17831 18.072 7.73753 19.8122C7.99807 20.6118 8.12745 21.4527 8.3269 22.3188H12.1902C12.2229 22.2705 12.2511 22.2194 12.2746 22.1661C12.3033 22.0574 12.3249 21.9469 12.3393 21.8355C12.4622 20.5618 12.852 19.3284 13.4833 18.2154C14.1145 17.1024 14.9731 16.1348 16.0031 15.3757C16.4182 15.0594 16.341 14.7144 16.2116 14.2598H12.2998V10.1809H16.2529C16.4542 7.02381 13.5756 4.156 10.2765 4.13803C6.97745 4.12006 4.03596 7.04897 4.25878 10.1989H8.19393V14.276H4.26596Z" fill="#363434"/>
<path d="M64.9245 60.9229V64.8454H4.23145V60.9229H64.9245Z" fill="white"/>
<path d="M60.8459 56.7487H56.9233V26.475H60.8459V56.7487Z" fill="white"/>
<path d="M44.6201 56.7308H40.667V36.5788H44.6201V56.7308Z" fill="white"/>
<path d="M28.4394 56.7325H24.5132V44.6935H28.4394V56.7325Z" fill="white"/>
<path d="M8.27832 48.7562H12.2674V56.7272H8.27832V48.7562Z" fill="white"/>
<path d="M4.26593 14.2706H8.1957V10.1935H4.26054C4.03773 7.04357 6.9864 4.11646 10.2783 4.13264C13.5702 4.14881 16.4559 7.01842 16.2547 10.1755H12.3016V14.2544H16.2205C16.3499 14.709 16.4272 15.054 16.0121 15.3703C14.9821 16.1294 14.1235 17.097 13.4922 18.21C12.861 19.323 12.4712 20.5564 12.3483 21.8301C12.3338 21.9415 12.3122 22.052 12.2836 22.1607C12.2601 22.214 12.2318 22.2652 12.1991 22.3134H8.33586C8.1364 21.4473 8.00703 20.6064 7.74648 19.8068C7.18727 18.0666 6.09939 16.5441 4.63429 15.4511C4.22101 15.1457 4.09164 14.8384 4.26593 14.2706Z" fill="white"/>
</g>
<defs>
<clipPath id="clip0_424_2793">
<rect width="69" height="69" fill="white" transform="translate(0 0.0806885)"/>
</clipPath>
</defs>
</svg>
