<svg width="207" height="203" viewBox="0 0 207 203" fill="none" xmlns="http://www.w3.org/2000/svg">
<g filter="url(#filter0_d_1518_8277)">
<path fill-rule="evenodd" clip-rule="evenodd" d="M112.375 118.75C136.882 118.75 156.75 98.8826 156.75 74.375C156.75 49.8674 136.882 30 112.375 30C87.8672 30 67.9998 49.8674 67.9998 74.375C67.9998 76.9614 68.2211 79.4962 68.6458 81.9613C68.2489 79.927 68.095 78.3802 68.0359 77.5519C68.0159 77.1131 68 76.875 68 76.875C68 76.875 68.0046 77.1122 68.0359 77.5519C68.234 81.8818 68.8399 105.748 58.625 113.125C47.375 121.25 30.5 123.264 30.5 123.264C30.5 123.264 42.9607 126.875 51.1251 135.625C59.2895 144.375 61.7501 152.5 61.7501 152.5C61.7501 152.5 63.6251 135.625 73.0001 125.625C79.9572 118.204 95.863 117.667 103.605 117.884C106.44 118.452 109.373 118.75 112.375 118.75Z" fill="#1D8ECA"/>
</g>
<path d="M134.042 90.3125H94.4585V54.6875H98.4168V86.3542H102.375V68.5417H110.292V86.3542H114.25V60.625H122.167V86.3542H126.125V76.4583H134.042V90.3125Z" fill="white"/>
<defs>
<filter id="filter0_d_1518_8277" x="0.5" y="0" width="206.25" height="202.5" filterUnits="userSpaceOnUse" color-interpolation-filters="sRGB">
<feFlood flood-opacity="0" result="BackgroundImageFix"/>
<feColorMatrix in="SourceAlpha" type="matrix" values="0 0 0 0 0 0 0 0 0 0 0 0 0 0 0 0 0 0 127 0" result="hardAlpha"/>
<feOffset dx="10" dy="10"/>
<feGaussianBlur stdDeviation="20"/>
<feComposite in2="hardAlpha" operator="out"/>
<feColorMatrix type="matrix" values="0 0 0 0 0.882353 0 0 0 0 0.882353 0 0 0 0 0.882353 0 0 0 0.5 0"/>
<feBlend mode="normal" in2="BackgroundImageFix" result="effect1_dropShadow_1518_8277"/>
<feBlend mode="normal" in="SourceGraphic" in2="effect1_dropShadow_1518_8277" result="shape"/>
</filter>
</defs>
</svg>
