<svg width="65" height="61" viewBox="0 0 65 61" fill="none" xmlns="http://www.w3.org/2000/svg">
<path d="M60.7016 1.95891C61.2396 1.96535 61.7636 2.13046 62.2078 2.43349C62.652 2.73651 62.9965 3.16392 63.1979 3.66189C63.3994 4.15986 63.4487 4.70617 63.3398 5.23208C63.2309 5.75798 62.9686 6.24 62.5859 6.61746C62.2032 6.99493 61.7172 7.25095 61.189 7.35337C60.6609 7.4558 60.1142 7.40004 59.6177 7.19307C59.1212 6.98609 58.6972 6.63715 58.3989 6.19021C58.1006 5.74326 57.9415 5.21826 57.9414 4.68123C57.9399 4.32055 58.0106 3.96319 58.1491 3.63009C58.2877 3.29698 58.4915 2.99483 58.7485 2.74131C59.0056 2.48779 59.3107 2.28802 59.6461 2.15368C59.9814 2.01933 60.3403 1.95311 60.7016 1.95891Z" fill="#D7DEED"/>
<path d="M55.29 9.47255C55.3042 10.2474 55.1936 11.0195 54.9627 11.7593C54.6178 12.6521 54.0464 13.4401 53.3044 14.0461C52.4939 14.6086 51.5314 14.9124 50.5442 14.9172C49.8045 14.9205 49.0686 14.8103 48.3623 14.5905V13.8283C48.3651 13.2679 48.4762 12.7133 48.6896 12.1949C49.0096 11.2888 49.5856 10.4946 50.3479 9.90812C51.1179 9.347 52.0455 9.04221 52.9989 9.03699C53.77 9.14013 54.5349 9.28553 55.29 9.47255Z" fill="#67BD8C"/>
<path d="M47.6755 20.1441C48.0496 21.1147 48.2024 22.1562 48.1228 23.1931C47.1346 23.5487 46.0836 23.6969 45.0354 23.6287C43.7228 23.6342 42.4439 23.2138 41.3915 22.4308C40.3739 21.6563 39.6136 20.5938 39.2095 19.3818C38.8516 18.3672 38.6672 17.2997 38.6641 16.2239C39.6912 15.8734 40.7769 15.7255 41.8606 15.7884C43.1304 15.8368 44.3586 16.2529 45.3954 16.9862C46.4019 17.8376 47.1846 18.9217 47.6755 20.1441Z" fill="#67BD8C"/>
<path d="M57.7011 19.164C57.744 20.2443 57.5543 21.3212 57.1447 22.322C56.717 23.5218 55.9611 24.578 54.9627 25.3709C53.9022 26.1383 52.6286 26.5569 51.3189 26.5688C50.2738 26.5772 49.2333 26.4304 48.2314 26.1332V25.262C48.3137 24.5249 48.4597 23.7962 48.6678 23.0842C49.1001 21.8868 49.8552 20.8317 50.8498 20.0352C51.8989 19.2939 53.1434 18.8773 54.4281 18.8374C55.5296 18.6816 56.6524 18.7936 57.7011 19.164Z" fill="#67BD8C"/>
<path d="M47.7841 10.4526C48.0162 11.155 48.1305 11.8908 48.1223 12.6304C47.4126 12.8348 46.679 12.9447 45.9404 12.9571C44.9901 12.9533 44.0656 12.6483 43.3002 12.086C42.5398 11.5439 41.9616 10.7846 41.642 9.9081C41.411 9.16824 41.3005 8.3962 41.3147 7.62138C42.0666 7.4055 42.8451 7.29553 43.6275 7.29468C44.5443 7.3181 45.4317 7.62224 46.1695 8.16584C46.8981 8.77471 47.4547 9.56296 47.7841 10.4526Z" fill="#67BD8C"/>
<path d="M26.3788 9.47255C26.393 10.2474 26.2825 11.0195 26.0515 11.7593C25.7027 12.65 25.132 13.4371 24.3933 14.0461C23.5828 14.6086 22.6203 14.9124 21.6331 14.9172C20.8932 14.9221 20.1571 14.8119 19.4512 14.5905V13.8283C19.454 13.2679 19.5651 12.7133 19.7784 12.1949C20.0945 11.2868 20.6712 10.4915 21.4367 9.90812C22.2028 9.34717 23.1268 9.04228 24.0769 9.03699C24.7205 9.14588 25.4952 9.25477 26.3788 9.47255Z" fill="#67BD8C"/>
<path d="M18.6553 20.1441C19.0205 21.1169 19.1694 22.1572 19.0917 23.1931C18.1035 23.5487 17.0525 23.697 16.0043 23.6287C14.6919 23.6326 13.4136 23.2124 12.3604 22.4308C11.3388 21.6601 10.5776 20.5963 10.1785 19.3818C9.81664 18.3679 9.62853 17.3003 9.62207 16.224C10.653 15.8734 11.7422 15.7255 12.8295 15.7884C14.0955 15.8389 15.3197 16.2549 16.3534 16.9862C17.3992 17.8054 18.1962 18.8988 18.6553 20.1441Z" fill="#67BD8C"/>
<path d="M28.6921 19.164C28.7332 20.2431 28.5474 21.3189 28.1466 22.3219C27.7143 23.5193 26.9593 24.5744 25.9647 25.3709C24.9076 26.1367 23.6379 26.5554 22.3317 26.5687C21.2831 26.5765 20.2391 26.4297 19.2334 26.1332V25.262C19.3243 24.5254 19.4739 23.7971 19.6807 23.0842C20.1084 21.8843 20.8643 20.8281 21.8626 20.0352C22.8994 19.3019 24.1277 18.8857 25.3974 18.8373C26.5056 18.6655 27.6394 18.7779 28.6921 19.164Z" fill="#67BD8C"/>
<path d="M18.764 10.4526C18.9871 11.1568 19.0976 11.8918 19.0913 12.6304C18.3819 12.8365 17.648 12.9464 16.9093 12.9571C15.9559 12.9519 15.0283 12.6471 14.2583 12.086C13.5007 11.5409 12.9233 10.7826 12.6 9.9081C12.369 9.16824 12.2585 8.3962 12.2727 7.62138C13.0285 7.40616 13.8105 7.29621 14.5965 7.29468C15.5096 7.31962 16.3931 7.62371 17.1275 8.16584C17.8615 8.77444 18.4252 9.56219 18.764 10.4526Z" fill="#67BD8C"/>
<path d="M57.9736 29.1277L59.3701 26.7865L61.7484 28.1586L60.3519 30.5106L57.9736 29.1277Z" fill="#363434"/>
<path d="M30.7109 8.37272L32.1074 6.02063L34.4857 7.40357L33.0893 9.74477L30.7109 8.37272Z" fill="#363434"/>
<path d="M8.68359 28.8229L10.08 26.4708L12.4584 27.8428L11.0619 30.1949L8.68359 28.8229Z" fill="#363434"/>
<path d="M48.2311 40.0715C47.8538 40.0688 47.4924 39.9194 47.2235 39.6551C46.9547 39.3909 46.7995 39.0324 46.791 38.6559V5.98802C46.7995 5.61148 46.9547 5.25303 47.2235 4.98874C47.4924 4.72446 47.8538 4.57512 48.2311 4.57239C48.4116 4.57653 48.5895 4.61672 48.7542 4.69056C48.9189 4.7644 49.0672 4.87041 49.1902 5.00234C49.3132 5.13427 49.4086 5.28946 49.4706 5.45874C49.5326 5.62802 49.56 5.80799 49.5512 5.98802V38.6559C49.5699 38.8381 49.5494 39.0221 49.4911 39.1957C49.4327 39.3694 49.3379 39.5286 49.2129 39.6626C49.0879 39.7967 48.9356 39.9025 48.7663 39.973C48.597 40.0435 48.4145 40.0771 48.2311 40.0715Z" fill="#363434"/>
<path d="M50.3257 16.3328C49.4586 16.3477 48.5963 16.1999 47.7838 15.8972C47.5156 15.789 47.2818 15.6104 47.107 15.3804C46.9322 15.1504 46.8231 14.8774 46.791 14.5905V13.7193C46.8354 13.0465 46.9864 12.385 47.2383 11.7593C47.6702 10.5918 48.4272 9.57178 49.4203 8.81916C50.4394 8.13136 51.6195 7.71872 52.8459 7.62137C53.82 7.60571 54.7898 7.75293 55.7151 8.05693C55.9839 8.15053 56.2151 8.32833 56.3744 8.56381C56.5336 8.7993 56.6124 9.07984 56.5988 9.36363C56.6243 10.3267 56.4727 11.2863 56.1515 12.1949C55.7479 13.3481 54.9828 14.3409 53.9696 15.0261C52.9328 15.7593 51.7046 16.1755 50.4349 16.2239C50.4349 16.3328 50.4348 16.3328 50.3257 16.3328ZM49.6603 13.5016H50.4349C51.1527 13.5209 51.8548 13.2899 52.4204 12.8482C52.9767 12.4324 53.401 11.8653 53.6423 11.2148C53.7649 10.9777 53.8391 10.7186 53.8605 10.4526C53.5685 10.3982 53.2689 10.3982 52.9768 10.4526C52.2926 10.4354 51.6255 10.6676 51.1004 11.1059C50.544 11.5191 50.1227 12.0875 49.8894 12.7393C49.8333 12.9991 49.7567 13.2539 49.6603 13.5016Z" fill="#363434"/>
<path d="M46.0274 14.3727H45.7983C44.5761 14.3621 43.3856 13.9825 42.3836 13.2838C41.3935 12.5946 40.6576 11.5999 40.289 10.4526C39.9678 9.5818 39.816 8.65784 39.8417 7.73027C39.8411 7.44922 39.925 7.17447 40.0825 6.94152C40.24 6.70857 40.464 6.52815 40.7253 6.42357C41.6507 6.11957 42.6205 5.97235 43.5946 5.98801C44.7588 6.07608 45.8832 6.45016 46.8675 7.07694C47.8542 7.76961 48.5892 8.76304 48.9622 9.90813C49.2746 10.7809 49.4226 11.7039 49.3986 12.6304C49.3991 12.9115 49.3152 13.1863 49.1577 13.4192C49.0002 13.6522 48.7762 13.8326 48.5149 13.9372C47.7198 14.2345 46.8764 14.3821 46.0274 14.3727ZM42.7545 8.8192C42.776 9.0852 42.8501 9.34431 42.9727 9.58146C43.1834 10.183 43.5619 10.712 44.0637 11.106C44.6225 11.4812 45.2688 11.7062 45.9402 11.7593H46.7148C46.6791 11.4961 46.6056 11.2394 46.4966 10.9971C46.2898 10.3935 45.9106 9.86352 45.4056 9.47256C44.8641 9.14339 44.2639 8.92154 43.6382 8.8192C43.3321 8.75875 43.0171 8.75875 42.7109 8.8192H42.7545Z" fill="#363434"/>
<path d="M51.1553 27.8755C50.0441 27.849 48.9422 27.6657 47.8824 27.331C47.6143 27.2228 47.3804 27.0442 47.2056 26.8142C47.0309 26.5841 46.9217 26.3112 46.8896 26.0243V25.0443C46.9753 24.1549 47.162 23.2781 47.4461 22.4308C47.9785 20.9511 48.9391 19.6625 50.2062 18.7285C51.4511 17.8111 52.9572 17.3151 54.5046 17.3129H54.9519C56.0634 17.3374 57.1655 17.5208 58.2248 17.8573C58.495 17.9625 58.7308 18.1402 58.906 18.3708C59.0812 18.6015 59.1891 18.876 59.2176 19.164C59.2131 20.382 59.0293 21.5928 58.6721 22.7575C58.1349 24.2266 57.158 25.4953 55.8738 26.3913C54.5896 27.2874 53.0604 27.7676 51.4935 27.7666C51.2099 27.7666 51.2099 27.8755 51.1553 27.8755ZM49.7153 24.9354C50.2631 25.0254 50.8186 25.0619 51.3736 25.0443C52.4166 25.0705 53.4345 24.7227 54.2428 24.0642C55.0669 23.4683 55.6847 22.631 56.0102 21.6686C56.2235 21.1502 56.3346 20.5956 56.3375 20.0352C55.7607 19.8867 55.1608 19.8497 54.5701 19.9263C53.5631 19.8981 52.5821 20.2478 51.8208 20.9063C50.9967 21.5022 50.379 22.3396 50.0535 23.302C49.8701 23.8325 49.7386 24.3795 49.6607 24.9354H49.7153Z" fill="#363434"/>
<path d="M45.2535 25.1531H45.0353C43.4511 25.1501 41.9069 24.6554 40.6169 23.7375C39.3771 22.822 38.4206 21.5767 37.8567 20.1441C37.3909 19.0065 37.2003 17.7754 37.3003 16.5506C37.3045 16.2556 37.4031 15.9696 37.5817 15.7345C37.7603 15.4994 38.0096 15.3275 38.2931 15.2439C39.4911 14.7984 40.7705 14.6128 42.046 14.6994C43.604 14.7585 45.1149 15.2486 46.4099 16.115C47.677 17.0491 48.6377 18.3377 49.1701 19.8174C49.5799 20.9695 49.7651 22.1893 49.7156 23.4109C49.7156 23.6903 49.6327 23.9636 49.4774 24.1961C49.3221 24.4286 49.1013 24.6101 48.8428 24.7176C47.6601 24.959 46.4597 25.1047 45.2535 25.1531ZM40.0605 17.4218C40.1696 17.9662 40.2896 18.5107 40.3987 19.0551C40.7506 20.0007 41.3586 20.83 42.1551 21.4508C43.0149 22.019 44.0069 22.3566 45.0353 22.4308H45.2535C45.7325 22.4487 46.212 22.4122 46.6827 22.3219L46.3554 20.6885C46.0299 19.7261 45.4122 18.8888 44.588 18.2929C43.7632 17.7436 42.8149 17.4069 41.8279 17.3129C41.2366 17.2914 40.6446 17.3278 40.0605 17.4218Z" fill="#363434"/>
<path d="M19.3209 40.0715C18.9436 40.0687 18.5822 39.9194 18.3133 39.6551C18.0445 39.3908 17.8894 39.0324 17.8809 38.6559V5.98801C17.9122 5.62979 18.0769 5.2963 18.3425 5.05334C18.6081 4.81038 18.9552 4.6756 19.3155 4.6756C19.6757 4.6756 20.0229 4.81038 20.2885 5.05334C20.5541 5.2963 20.7188 5.62979 20.7501 5.98801V38.6559C20.7221 39.0239 20.5622 39.3695 20.2998 39.6295C20.0373 39.8895 19.6899 40.0464 19.3209 40.0715Z" fill="#363434"/>
<path d="M21.4156 16.3328C20.5484 16.3477 19.6862 16.1999 18.8736 15.8972C18.6041 15.791 18.369 15.613 18.194 15.3826C18.0189 15.1522 17.9106 14.8782 17.8809 14.5905V13.7193C17.9199 13.0457 18.0711 12.3833 18.3282 11.7593C18.7601 10.5918 19.5171 9.57178 20.5101 8.81916C21.5261 8.13313 22.7023 7.72056 23.9248 7.62137C24.8989 7.60571 25.8687 7.75293 26.7941 8.05693C27.0639 8.149 27.2961 8.32644 27.4556 8.56229C27.6151 8.79814 27.6931 9.07949 27.6778 9.36363C27.7015 10.3257 27.5537 11.2844 27.2414 12.1949C26.8337 13.3459 26.0694 14.3375 25.0594 15.0261C24.0226 15.7593 22.7944 16.1755 21.5247 16.2239C21.5247 16.2528 21.5132 16.2805 21.4927 16.3009C21.4723 16.3213 21.4445 16.3328 21.4156 16.3328ZM20.7501 13.5016H21.5247C22.2423 13.5191 22.9438 13.2882 23.5103 12.8482C24.0634 12.4318 24.484 11.8645 24.7212 11.2148C24.8438 10.9777 24.918 10.7186 24.9394 10.4526C24.6474 10.3982 24.3478 10.3982 24.0558 10.4526C23.3747 10.435 22.7109 10.6675 22.1902 11.1059C21.6339 11.5217 21.2096 12.0888 20.9683 12.7393C20.8593 12.9816 20.7858 13.2384 20.7501 13.5016Z" fill="#363434"/>
<path d="M17.1061 14.3727H16.8879C15.6622 14.3623 14.4683 13.9827 13.4623 13.2838C12.4756 12.5911 11.7405 11.5977 11.3676 10.4526C11.0552 9.57978 10.9072 8.65681 10.9312 7.73027C10.9307 7.44922 11.0145 7.17447 11.1721 6.94152C11.3296 6.70857 11.5535 6.52815 11.8149 6.42357C12.7403 6.11957 13.7101 5.97235 14.6842 5.98801C15.8491 6.07247 16.9743 6.44684 17.9571 7.07694C18.9472 7.76615 19.6831 8.76083 20.0517 9.90813C20.3729 10.7789 20.5247 11.7029 20.499 12.6304C20.4967 12.9108 20.4116 13.1843 20.2545 13.4167C20.0973 13.6491 19.875 13.8302 19.6153 13.9372C18.8108 14.2274 17.9616 14.3748 17.1061 14.3727ZM13.6914 8.8192C13.7128 9.0852 13.787 9.34431 13.9096 9.58146C14.1163 10.185 14.4955 10.715 15.0005 11.106C15.5587 11.4825 16.2053 11.7077 16.877 11.7593H17.6516C17.6159 11.4961 17.5424 11.2394 17.4334 10.9971C17.2267 10.3935 16.8474 9.86352 16.3424 9.47256C15.8048 9.14345 15.2083 8.92156 14.586 8.8192C14.2904 8.76349 13.987 8.76349 13.6914 8.8192Z" fill="#363434"/>
<path d="M22.0702 27.8755C20.9826 27.8629 19.9038 27.6791 18.8736 27.331C18.6041 27.2248 18.369 27.0468 18.194 26.8164C18.0189 26.586 17.9106 26.312 17.8809 26.0243V25.0443C17.956 24.1533 18.143 23.2753 18.4373 22.4308C18.9619 20.947 19.9241 19.6563 21.1974 18.7285C22.4412 17.8091 23.9481 17.3128 25.4958 17.3129H25.9322C27.0436 17.3376 28.1458 17.5209 29.2051 17.8573C29.4753 17.9625 29.7111 18.1402 29.8863 18.3708C30.0615 18.6015 30.1694 18.876 30.1979 19.164C30.1954 20.383 30.0078 21.5946 29.6415 22.7575C29.1049 24.2249 28.1297 25.4923 26.8477 26.3882C25.5657 27.2841 24.0388 27.7653 22.4738 27.7666C22.2993 27.7666 22.1902 27.8755 22.0702 27.8755ZM20.6083 24.9354C21.1561 25.0258 21.7115 25.0623 22.2665 25.0443C23.3096 25.0705 24.3275 24.7227 25.1358 24.0642C25.9538 23.4646 26.5671 22.6282 26.8923 21.6686C27.1138 21.1523 27.2288 20.5968 27.2305 20.0352C26.6536 19.8872 26.0538 19.8503 25.4631 19.9263C24.4531 19.8996 23.4692 20.2489 22.703 20.9063C21.8819 21.5053 21.2649 22.3416 20.9356 23.302L20.6083 24.9354Z" fill="#363434"/>
<path d="M16.3318 25.1531H16.1137C14.5294 25.1501 12.9853 24.6554 11.6952 23.7375C10.4557 22.8244 9.50216 21.578 8.94597 20.144C8.4728 19.0086 8.2819 17.7756 8.38957 16.5506C8.39025 16.2546 8.48753 15.967 8.66667 15.7312C8.84581 15.4954 9.09706 15.3243 9.38236 15.2439C10.5802 14.7977 11.8597 14.6121 13.1353 14.6994C14.6929 14.7602 16.2033 15.2501 17.4992 16.115C18.7665 17.0463 19.7243 18.3362 20.2484 19.8173C20.6673 20.9674 20.8563 22.1882 20.8048 23.4108C20.8054 23.6919 20.7215 23.9666 20.564 24.1996C20.4064 24.4325 20.1825 24.6129 19.9211 24.7175C18.7364 24.9466 17.537 25.0921 16.3318 25.1531ZM11.0407 17.4217L11.3679 19.0551C11.7228 20.0019 12.3348 20.8314 13.1353 21.4507C13.9919 22.0172 14.9798 22.3547 16.0046 22.4308H16.2228C16.7054 22.4487 17.1884 22.4122 17.6628 22.3219C17.5537 21.7774 17.4446 21.233 17.3246 20.6885C16.9995 19.7289 16.3862 18.8924 15.5682 18.2928C14.7434 17.7436 13.7951 17.4069 12.808 17.3128C12.2168 17.2977 11.6255 17.3341 11.0407 17.4217Z" fill="#363434"/>
<path d="M63.4614 37.3491H38.6309C38.4442 37.3495 38.2594 37.3109 38.0885 37.2359C37.9175 37.1609 37.7641 37.0511 37.6381 36.9136L34.4307 33.7557L31.2341 36.9136C30.9615 37.1657 30.6118 37.3191 30.2413 37.3491H1.43973C1.06359 37.3491 0.702866 37.2 0.436891 36.9345C0.170915 36.669 0.0214844 36.309 0.0214844 35.9336C0.0214844 35.5581 0.170915 35.198 0.436891 34.9326C0.702866 34.6671 1.06359 34.5179 1.43973 34.5179H29.805L33.5579 30.8156C33.8216 30.5536 34.1786 30.4065 34.5507 30.4065C34.9228 30.4065 35.2797 30.5536 35.5435 30.8156L39.2855 34.5179H63.5705C63.9478 34.5207 64.3092 34.67 64.5781 34.9343C64.8469 35.1986 65.0021 35.557 65.0106 35.9336C64.9753 36.3197 64.7969 36.6787 64.5104 36.9405C64.2239 37.2023 63.8498 37.348 63.4614 37.3491Z" fill="#363434"/>
<path d="M13.8008 45.5161H4.0911C3.71495 45.5161 3.35423 45.3669 3.08826 45.1015C2.82228 44.836 2.67285 44.4759 2.67285 44.1005C2.67285 43.7251 2.82228 43.365 3.08826 43.0995C3.35423 42.834 3.71495 42.6849 4.0911 42.6849H13.8008C14.1769 42.6849 14.5376 42.834 14.8036 43.0995C15.0696 43.365 15.219 43.7251 15.219 44.1005C15.219 44.4759 15.0696 44.836 14.8036 45.1015C14.5376 45.3669 14.1769 45.5161 13.8008 45.5161Z" fill="#363434"/>
<path d="M24.8306 50.9607H17.8811C17.505 50.9607 17.1442 50.8116 16.8783 50.5461C16.6123 50.2806 16.4629 49.9206 16.4629 49.5451C16.4629 49.1697 16.6123 48.8096 16.8783 48.5441C17.1442 48.2787 17.505 48.1295 17.8811 48.1295H24.8306C25.2068 48.1295 25.5675 48.2787 25.8335 48.5441C26.0995 48.8096 26.2489 49.1697 26.2489 49.5451C26.2489 49.9206 26.0995 50.2806 25.8335 50.5461C25.5675 50.8116 25.2068 50.9607 24.8306 50.9607Z" fill="#363434"/>
<path d="M42.8203 53.6831H33.1106C32.7345 53.6831 32.3738 53.5339 32.1078 53.2685C31.8418 53.003 31.6924 52.6429 31.6924 52.2675C31.6924 51.8921 31.8418 51.532 32.1078 51.2665C32.3738 51.001 32.7345 50.8519 33.1106 50.8519H42.8203C43.1976 50.8546 43.559 51.0039 43.8279 51.2682C44.0967 51.5325 44.2518 51.891 44.2603 52.2675C44.2156 52.6311 44.049 52.9688 43.7875 53.2259C43.5261 53.4829 43.1851 53.644 42.8203 53.6831Z" fill="#363434"/>
<path d="M53.8609 59.1277H46.9114C46.5353 59.1277 46.1745 58.9786 45.9086 58.7131C45.6426 58.4476 45.4932 58.0876 45.4932 57.7121C45.4932 57.3367 45.6426 56.9766 45.9086 56.7111C46.1745 56.4457 46.5353 56.2965 46.9114 56.2965H53.8609C54.2364 56.3021 54.595 56.4526 54.8615 56.7166C55.128 56.9806 55.2817 57.3375 55.2901 57.7121C55.2459 58.0741 55.0808 58.4106 54.8215 58.6674C54.5622 58.9242 54.2238 59.0864 53.8609 59.1277Z" fill="#363434"/>
<path d="M42.8207 45.5161H35.8821C35.506 45.5161 35.1452 45.3669 34.8792 45.1015C34.6133 44.836 34.4639 44.4759 34.4639 44.1005C34.4639 43.7251 34.6133 43.365 34.8792 43.0995C35.1452 42.834 35.506 42.6849 35.8821 42.6849H42.8316C43.2089 42.6876 43.5703 42.837 43.8392 43.1012C44.108 43.3655 44.2632 43.724 44.2717 44.1005C44.2431 44.472 44.0801 44.8205 43.8132 45.0809C43.5462 45.3414 43.1934 45.4961 42.8207 45.5161Z" fill="#363434"/>
<path d="M56.6101 49.654H49.6497C49.2735 49.654 48.9128 49.5049 48.6469 49.2394C48.3809 48.9739 48.2314 48.6139 48.2314 48.2384C48.2314 47.863 48.3809 47.5029 48.6469 47.2374C48.9128 46.9719 49.2735 46.8228 49.6497 46.8228H56.6101C56.9855 46.8284 57.3442 46.9789 57.6107 47.2429C57.8772 47.5069 58.0308 47.8637 58.0393 48.2384C57.995 48.6003 57.83 48.9368 57.5707 49.1936C57.3114 49.4505 56.973 49.6126 56.6101 49.654Z" fill="#363434"/>
<path d="M13.8006 53.6831H6.84016C6.46401 53.6831 6.10326 53.5339 5.83728 53.2685C5.57131 53.003 5.42188 52.6429 5.42188 52.2675C5.42188 51.8921 5.57131 51.532 5.83728 51.2665C6.10326 51.001 6.46401 50.8519 6.84016 50.8519H13.8006C14.1767 50.8519 14.5374 51.001 14.8034 51.2665C15.0694 51.532 15.2188 51.8921 15.2188 52.2675C15.2188 52.6429 15.0694 53.003 14.8034 53.2685C14.5374 53.5339 14.1767 53.6831 13.8006 53.6831Z" fill="#363434"/>
<path d="M27.5899 57.821H20.6077C20.2316 57.821 19.8708 57.6719 19.6048 57.4064C19.3389 57.1409 19.1895 56.7808 19.1895 56.4054C19.1895 56.03 19.3389 55.6699 19.6048 55.4044C19.8708 55.1389 20.2316 54.9898 20.6077 54.9898H27.5572C27.9333 54.9898 28.2941 55.1389 28.56 55.4044C28.826 55.6699 28.9755 56.03 28.9755 56.4054C28.9755 56.7808 28.826 57.1409 28.56 57.4064C28.2941 57.6719 27.9333 57.821 27.5572 57.821H27.5899Z" fill="#363434"/>
<path d="M11.0407 60.5433H8.28059C7.90444 60.5433 7.54369 60.3942 7.27771 60.1288C7.01174 59.8633 6.8623 59.5032 6.8623 59.1278C6.8623 58.7523 7.01174 58.3922 7.27771 58.1268C7.54369 57.8613 7.90444 57.7122 8.28059 57.7122H11.0407C11.4169 57.7122 11.7776 57.8613 12.0436 58.1268C12.3096 58.3922 12.459 58.7523 12.459 59.1278C12.459 59.5032 12.3096 59.8633 12.0436 60.1288C11.7776 60.3942 11.4169 60.5433 11.0407 60.5433Z" fill="#363434"/>
<path d="M37.3004 60.5433H35.8821C35.506 60.5433 35.1452 60.3942 34.8792 60.1288C34.6133 59.8633 34.4639 59.5032 34.4639 59.1278C34.4639 58.7523 34.6133 58.3922 34.8792 58.1268C35.1452 57.8613 35.506 57.7122 35.8821 57.7122H37.3113C37.6886 57.7149 38.05 57.8642 38.3189 58.1285C38.5877 58.3928 38.7429 58.7512 38.7514 59.1278C38.7062 59.493 38.538 59.832 38.2743 60.0893C38.0106 60.3465 37.6672 60.5066 37.3004 60.5433Z" fill="#363434"/>
<path d="M27.5906 45.5161H26.1614C25.7853 45.5161 25.4245 45.3669 25.1586 45.1015C24.8926 44.836 24.7432 44.4759 24.7432 44.1005C24.7432 43.7251 24.8926 43.365 25.1586 43.0995C25.4245 42.834 25.7853 42.6849 26.1614 42.6849H27.5906C27.9667 42.6849 28.3275 42.834 28.5935 43.0995C28.8594 43.365 29.0089 43.7251 29.0089 44.1005C29.0089 44.4759 28.8594 44.836 28.5935 45.1015C28.3275 45.3669 27.9667 45.5161 27.5906 45.5161Z" fill="#363434"/>
<path d="M57.9412 44.2094H56.512C56.3258 44.2094 56.1413 44.1728 55.9693 44.1016C55.7972 44.0305 55.6409 43.9262 55.5092 43.7948C55.3775 43.6633 55.273 43.5073 55.2017 43.3355C55.1304 43.1638 55.0938 42.9797 55.0938 42.7938C55.0938 42.6079 55.1304 42.4238 55.2017 42.252C55.273 42.0803 55.3775 41.9242 55.5092 41.7928C55.6409 41.6613 55.7972 41.5571 55.9693 41.4859C56.1413 41.4148 56.3258 41.3782 56.512 41.3782H57.9412C58.1274 41.3782 58.3119 41.4148 58.484 41.4859C58.656 41.5571 58.8124 41.6613 58.9441 41.7928C59.0758 41.9242 59.1802 42.0803 59.2515 42.252C59.3228 42.4238 59.3594 42.6079 59.3594 42.7938C59.3594 42.9797 59.3228 43.1638 59.2515 43.3355C59.1802 43.5073 59.0758 43.6633 58.9441 43.7948C58.8124 43.9262 58.656 44.0305 58.484 44.1016C58.3119 44.1728 58.1274 44.2094 57.9412 44.2094Z" fill="#363434"/>
<path d="M57.9412 56.4054H56.512C56.1359 56.4054 55.7751 56.2562 55.5092 55.9908C55.2432 55.7253 55.0938 55.3652 55.0938 54.9898C55.0938 54.6143 55.2432 54.2543 55.5092 53.9888C55.7751 53.7233 56.1359 53.5742 56.512 53.5742H57.9412C58.3173 53.5742 58.6781 53.7233 58.9441 53.9888C59.21 54.2543 59.3594 54.6143 59.3594 54.9898C59.3594 55.3652 59.21 55.7253 58.9441 55.9908C58.6781 56.2562 58.3173 56.4054 57.9412 56.4054Z" fill="#363434"/>
<path d="M4.854 12.8482C4.18703 12.8397 3.53749 12.6344 2.98709 12.2583C2.43669 11.8822 2.01001 11.352 1.76071 10.7345C1.51141 10.117 1.45064 9.43965 1.58602 8.78772C1.7214 8.1358 2.0469 7.53837 2.52157 7.07062C2.99625 6.60287 3.59889 6.28568 4.25372 6.15892C4.90854 6.03216 5.58632 6.10151 6.20177 6.35824C6.81721 6.61497 7.34285 7.04762 7.71257 7.60176C8.0823 8.1559 8.27961 8.80678 8.27966 9.47256C8.27102 10.3727 7.90595 11.2329 7.26414 11.8654C6.62233 12.4978 5.75589 12.8512 4.854 12.8482ZM4.854 8.8192C4.68457 8.83177 4.5253 8.90466 4.40517 9.02457C4.28503 9.14448 4.21201 9.30345 4.19941 9.47256C4.22008 9.6327 4.29851 9.77986 4.41998 9.88649C4.54146 9.99312 4.69769 10.052 4.85946 10.052C5.02123 10.052 5.17746 9.99312 5.29894 9.88649C5.42042 9.77986 5.49884 9.6327 5.51951 9.47256C5.5066 9.3017 5.43201 9.14133 5.30963 9.02118C5.18725 8.90103 5.02537 8.82925 4.854 8.8192Z" fill="#363434"/>
<path d="M60.7017 8.8192C59.8836 8.8106 59.0864 8.56064 58.4104 8.10077C57.7345 7.64089 57.2099 6.99168 56.9028 6.23485C56.5957 5.47803 56.5198 4.64742 56.6847 3.84763C56.8495 3.04785 57.2477 2.31461 57.8292 1.74026C58.4107 1.16591 59.1494 0.776125 59.9524 0.61996C60.7554 0.463796 61.5867 0.548254 62.3417 0.862683C63.0967 1.17711 63.7416 1.70744 64.1952 2.38694C64.6489 3.06645 64.8909 3.86474 64.891 4.68128C64.8881 5.22754 64.7775 5.76788 64.5654 6.27147C64.3533 6.77506 64.044 7.23204 63.6549 7.61628C63.2659 8.00053 62.8049 8.30451 62.2982 8.51091C61.7914 8.71731 61.2489 8.82207 60.7017 8.8192ZM60.7017 3.37455C60.4221 3.37884 60.1501 3.46552 59.9197 3.62365C59.6894 3.78179 59.511 4.00434 59.407 4.26336C59.303 4.52238 59.278 4.80631 59.3352 5.07946C59.3923 5.35261 59.5291 5.60279 59.7283 5.79859C59.9275 5.99439 60.1802 6.12707 60.4547 6.17995C60.7292 6.23283 61.0133 6.20357 61.2711 6.09581C61.529 5.98806 61.7493 5.80664 61.9042 5.57434C62.0591 5.34204 62.1417 5.06923 62.1417 4.79018C62.1464 4.60116 62.1121 4.41322 62.0411 4.23794C61.9701 4.06266 61.8638 3.90377 61.7288 3.7711C61.5939 3.63843 61.4331 3.53477 61.2564 3.46657C61.0797 3.39837 60.8909 3.36705 60.7017 3.37455Z" fill="#363434"/>
</svg>
