<svg width="30" height="22" viewBox="0 0 30 22" fill="none" xmlns="http://www.w3.org/2000/svg">
<path d="M10 8L10.7496 7.40029L9.9444 6.39376L9.2107 7.45356L10 8ZM16 15.5L15.2504 16.0997L15.9687 16.9976L16.7239 16.1305L16 15.5ZM29.5 0L19.0154 3.59893L27.3744 10.8794L29.5 0ZM1.7893 21.5464L10.7893 8.54644L9.2107 7.45356L0.210696 20.4536L1.7893 21.5464ZM9.25037 8.59971L15.2504 16.0997L16.7496 14.9003L10.7496 7.40029L9.25037 8.59971ZM16.7239 16.1305L24.5493 7.14577L23.1015 5.88476L15.2761 14.8695L16.7239 16.1305Z" fill="#E85959"/>
</svg>
