<svg width="25" height="24" viewBox="0 0 25 24" fill="none" xmlns="http://www.w3.org/2000/svg">
<g id="info" clip-path="url(#clip0_1001_2383)">
<path id="Vector" d="M12.5244 0.448975C15.7597 0.448975 18.5259 1.5975 20.8237 3.89603C23.1215 6.19456 24.2707 8.96 24.2707 12.196C24.2707 15.4313 23.1215 18.1982 20.8237 20.496C18.5259 22.7938 15.7597 23.9431 12.5237 23.9431C9.28837 23.9431 6.5222 22.7938 4.2244 20.496C1.92661 18.1982 0.777344 15.4321 0.777344 12.1968C0.777344 8.96147 1.92587 6.1953 4.2244 3.8975C6.52293 1.59971 9.28837 0.450445 12.5237 0.450445L12.5244 0.448975ZM12.4957 2.75486C9.90308 2.75486 7.6869 3.67545 5.84573 5.51662C4.00455 7.3578 3.08396 9.57471 3.08396 12.1666C3.08396 14.7593 4.00455 16.9754 5.84573 18.8166C7.6869 20.6578 9.90382 21.5784 12.4957 21.5784C15.0884 21.5784 17.3045 20.6578 19.1457 18.8166C20.9869 16.9754 21.9075 14.7585 21.9075 12.1666C21.9075 9.57397 20.9869 7.3578 19.1457 5.51662C17.3045 3.67545 15.0876 2.75486 12.4957 2.75486ZM14.1112 7.5078C14.1112 8.37397 13.409 9.07618 12.5428 9.07618C11.6766 9.07618 10.9744 8.37397 10.9744 7.5078C10.9744 6.64162 11.6766 5.93942 12.5428 5.93942C13.409 5.93942 14.1112 6.64162 14.1112 7.5078ZM14.1112 17.7041C14.1112 18.5703 13.409 19.2725 12.5428 19.2725C11.6766 19.2725 10.9744 18.5703 10.9744 17.7041V12.2137C10.9744 11.3475 11.6766 10.6453 12.5428 10.6453C13.409 10.6453 14.1112 11.3475 14.1112 12.2137V17.7041Z" fill="black"/>
</g>
<defs>
<clipPath id="clip0_1001_2383">
<rect width="25" height="23.5294" fill="white" transform="translate(0 0.454102)"/>
</clipPath>
</defs>
</svg>
