<svg width="23" height="22" viewBox="0 0 23 22" fill="none" xmlns="http://www.w3.org/2000/svg">
<path d="M11.824 5.33081C8.71851 5.33081 6.21362 7.83569 6.21362 10.9412C6.21362 14.0466 8.71851 16.5515 11.824 16.5515C14.9294 16.5515 17.4343 14.0466 17.4343 10.9412C17.4343 7.83569 14.9294 5.33081 11.824 5.33081ZM11.824 14.5886C9.81714 14.5886 8.17651 12.9529 8.17651 10.9412C8.17651 8.92944 9.81226 7.2937 11.824 7.2937C13.8357 7.2937 15.4714 8.92944 15.4714 10.9412C15.4714 12.9529 13.8308 14.5886 11.824 14.5886V14.5886ZM18.9724 5.10132C18.9724 5.82886 18.3865 6.40991 17.6638 6.40991C16.9363 6.40991 16.3552 5.82397 16.3552 5.10132C16.3552 4.37866 16.9412 3.79272 17.6638 3.79272C18.3865 3.79272 18.9724 4.37866 18.9724 5.10132ZM22.6882 6.42944C22.6052 4.67651 22.2048 3.12378 20.9207 1.84448C19.6414 0.565185 18.0886 0.164795 16.3357 0.0769043C14.5291 -0.0256348 9.11401 -0.0256348 7.30737 0.0769043C5.55933 0.159912 4.00659 0.560303 2.72241 1.8396C1.43823 3.1189 1.04272 4.67163 0.954834 6.42456C0.852295 8.2312 0.852295 13.6462 0.954834 15.4529C1.03784 17.2058 1.43823 18.7585 2.72241 20.0378C4.00659 21.3171 5.55444 21.7175 7.30737 21.8054C9.11401 21.908 14.5291 21.908 16.3357 21.8054C18.0886 21.7224 19.6414 21.322 20.9207 20.0378C22.2 18.7585 22.6003 17.2058 22.6882 15.4529C22.7908 13.6462 22.7908 8.23608 22.6882 6.42944V6.42944ZM20.3542 17.3914C19.9734 18.3484 19.2361 19.0857 18.2742 19.4714C16.8337 20.0427 13.4158 19.9109 11.824 19.9109C10.2322 19.9109 6.80933 20.0378 5.37378 19.4714C4.41675 19.0906 3.67944 18.3533 3.2937 17.3914C2.72241 15.9509 2.85425 12.533 2.85425 10.9412C2.85425 9.34937 2.7273 5.92651 3.2937 4.49097C3.67456 3.53394 4.41187 2.79663 5.37378 2.41089C6.81421 1.8396 10.2322 1.97144 11.824 1.97144C13.4158 1.97144 16.8386 1.84448 18.2742 2.41089C19.2312 2.79175 19.9685 3.52905 20.3542 4.49097C20.9255 5.9314 20.7937 9.34937 20.7937 10.9412C20.7937 12.533 20.9255 15.9558 20.3542 17.3914Z" fill="white"/>
</svg>
