<svg width="60" height="60" viewBox="0 0 60 60" fill="none" xmlns="http://www.w3.org/2000/svg">
<path d="M20.133 25.338C25.6916 30.8907 34.7205 30.8907 40.2926 25.338C45.8647 19.7719 45.8647 10.7662 40.2926 5.20001C34.7205 -0.366149 25.7051 -0.366149 20.133 5.20001C14.5744 10.7526 14.5744 19.7719 20.133 25.338ZM23.2716 22.2028C27.1017 26.0288 33.3249 26.0288 37.155 22.2028C40.9851 18.3768 40.9851 12.1603 37.155 8.33428C33.3249 4.5083 27.1017 4.5083 23.2716 8.33428C19.4415 12.1603 19.4415 18.3773 23.2716 22.2028ZM30.2128 26.9317C23.7633 26.9317 18.5371 21.7112 18.5371 15.2686C18.5371 8.8259 23.7633 3.60536 30.2128 3.60536C36.6624 3.60536 41.8885 8.8259 41.8885 15.2686C41.8885 21.7112 36.6624 26.9317 30.2128 26.9317ZM31.1437 21.4722V22.3757C31.1437 22.8936 30.7313 23.3055 30.2128 23.3055C29.6943 23.3055 29.282 22.8936 29.282 22.3757V21.4722C27.2742 21.2197 25.04 20.011 25.04 17.9386C25.04 17.4206 25.4524 17.0088 25.9709 17.0088C26.4894 17.0088 26.9017 17.4206 26.9017 17.9386C26.9017 18.337 27.2073 18.7225 27.7129 19.0413C29.056 19.8914 31.37 19.8914 32.7261 19.0413C33.2182 18.7225 33.5373 18.337 33.5373 17.9386C33.5373 16.7034 31.8087 16.4509 30.0931 16.185C27.5664 15.813 25.053 15.428 25.053 12.5986C25.053 10.5262 27.2871 9.31752 29.295 9.06501V8.16156C29.295 7.64359 29.7073 7.23172 30.2258 7.23172C30.7444 7.23172 31.1567 7.6436 31.1567 8.16156V9.06501C33.1779 9.31751 35.3986 10.5262 35.3986 12.5986C35.3986 13.1166 34.9863 13.5285 34.4678 13.5285C33.9493 13.5285 33.537 13.1166 33.537 12.5986C33.537 12.2002 33.2313 11.8147 32.7258 11.496C31.3827 10.6458 29.0687 10.6458 27.7125 11.496C27.2204 11.8147 26.9014 12.2002 26.9014 12.5986C26.9014 13.8209 28.63 14.0863 30.3455 14.3388C32.8589 14.7108 35.3856 15.0958 35.3856 17.9252C35.3861 20.011 33.1654 21.2197 31.1437 21.4722ZM44.4951 38.1173C42.4874 38.1572 40.5853 37.7323 38.9899 36.8822C38.6174 36.7093 38.3781 36.2975 38.4579 35.8726C39.1095 32.0203 42.1016 28.7257 45.7322 26.9726C47.6871 26.0293 49.7348 25.5512 51.6762 25.5114C53.6839 25.4715 55.586 25.8964 57.1814 26.7465C57.5538 26.9193 57.7932 27.3312 57.7134 27.7561C57.0618 31.6084 54.0697 34.903 50.4391 36.6561C48.4847 37.5994 46.4365 38.0775 44.4951 38.1173ZM28.6978 40.3356C29.5887 40.4551 30.4133 40.7076 31.2376 41.0264V31.3289C30.3865 31.3822 29.5354 31.3688 28.6978 31.2891V40.3356ZM21.437 36.8822C18.0063 38.7154 13.6179 38.4097 10.0007 36.6565C6.35706 34.8899 3.37818 31.6088 2.72646 27.7565C2.64668 27.3312 2.88601 26.9198 3.25844 26.747C4.85432 25.8968 6.74253 25.4715 8.76371 25.5118C12.833 25.5915 16.9553 27.5842 19.535 30.7323C20.8248 32.2997 21.6759 34.0931 21.982 35.8732C22.0353 36.2976 21.8095 36.7093 21.437 36.8822ZM8.76353 42.9529H2.31445V58.9468H8.764L8.76353 42.9529ZM37.7936 48.1868L37.8335 48.0807C38.0863 47.0976 37.5409 46.2608 36.6369 45.5567C35.5331 44.7065 33.9241 44.0157 32.3816 43.4444C30.7458 42.8468 29.1234 42.023 27.4082 42.1425C22.1821 42.5275 23.0068 45.2906 17.1953 45.2906C14.2034 45.2906 12.9534 44.9853 10.6395 44.7194V56.9808C19.057 55.2805 21.9298 55.6655 26.6102 56.2766C29.0173 56.5954 31.9296 56.9808 36.3978 57.1532C37.1956 57.193 52.5941 49.0365 53.0334 45.875C53.1267 45.1578 52.7677 44.2543 51.9565 44.1482C51.611 44.1083 51.1986 44.188 50.6796 44.4535C47.2619 46.2201 43.9244 48.2127 39.4028 49.1426C37.7006 52.344 31.7297 50.0191 28.2726 48.518C27.8069 48.3054 27.5945 47.761 27.7939 47.2958C27.9934 46.8307 28.5388 46.6185 29.0175 46.8177C31.8235 48.0399 34.0042 48.7307 35.5602 48.8632C36.7823 48.9577 37.5271 48.745 37.793 48.1872L37.7936 48.1868Z" fill="white"/>
</svg>
