<svg width="26" height="41" viewBox="0 0 26 41" fill="none" xmlns="http://www.w3.org/2000/svg">
<g clip-path="url(#clip0_633_803)">
<path d="M5.57662 23.6615V3.37421C5.57662 2.47805 5.93771 1.61859 6.58045 0.98491C7.22319 0.351231 8.09492 -0.00476074 9.00389 -0.00476074C9.91286 -0.00476074 10.7846 0.351231 11.4273 0.98491C12.0701 1.61859 12.4312 2.47805 12.4312 3.37421V23.6615C14.3579 24.4439 15.9496 25.8611 16.9347 27.6715C17.9198 29.4818 18.2372 31.573 17.8327 33.5884C17.4283 35.6037 16.3271 37.4182 14.717 38.7223C13.1069 40.0264 11.0877 40.7393 9.00389 40.7393C6.92013 40.7393 4.90092 40.0264 3.29082 38.7223C1.68072 37.4182 0.579491 35.6037 0.175043 33.5884C-0.229404 31.573 0.0879879 29.4818 1.07306 27.6715C2.05814 25.8611 3.64986 24.4439 5.57662 23.6615Z" fill="white"/>
<path d="M9.00241 39.1194C10.708 39.1216 12.3613 38.5395 13.6797 37.4726C14.998 36.4058 15.8995 34.9205 16.2298 33.2708C16.5602 31.6211 16.2989 29.9095 15.4907 28.4287C14.6824 26.9479 13.3775 25.79 11.7991 25.153L10.78 24.7408V3.37444C10.7886 3.13886 10.7489 2.90398 10.6634 2.68384C10.5778 2.4637 10.4482 2.26282 10.2822 2.09317C10.1162 1.92352 9.91718 1.78859 9.6971 1.69643C9.47702 1.60427 9.24037 1.55676 9.00126 1.55676C8.76216 1.55676 8.5255 1.60427 8.30542 1.69643C8.08535 1.78859 7.88636 1.92352 7.72034 2.09317C7.55433 2.26282 7.42468 2.4637 7.33915 2.68384C7.25361 2.90398 7.21395 3.13886 7.22251 3.37444V24.7453L6.20347 25.1575C4.62483 25.7946 3.31979 26.9527 2.51159 28.4337C1.7034 29.9147 1.44228 31.6265 1.77292 33.2764C2.10356 34.9262 3.00539 36.4115 4.32415 37.4782C5.64291 38.5449 7.29663 39.1266 9.00241 39.1239V39.1194Z" fill="#B9D7FF"/>
<path d="M6.20375 25.1599L7.22051 24.7454V6.48315H10.7803V24.7454L11.7902 25.1599C13.366 25.7986 14.668 26.9568 15.4741 28.4367C16.2802 29.9165 16.5403 31.6264 16.2101 33.2743C15.8799 34.9222 14.9798 36.406 13.6635 37.4725C12.3471 38.539 10.6962 39.1219 8.9924 39.1219C7.28864 39.1219 5.63768 38.539 4.32135 37.4725C3.00502 36.406 2.10493 34.9222 1.77471 33.2743C1.4445 31.6264 1.70463 29.9165 2.51071 28.4367C3.31679 26.9568 4.61884 25.7986 6.19461 25.1599H6.20375Z" fill="#E84131"/>
<path d="M9.00053 35.7653C14.5527 35.7653 10.3075 29.1335 10.3075 29.1335V30.672L9.00053 27.6017L7.69817 30.672V29.1357C7.69817 29.1357 3.45064 35.7653 9.00053 35.7653Z" fill="white"/>
</g>
<defs>
<clipPath id="clip0_633_803">
<rect width="18" height="40.7368" fill="white" transform="matrix(-1 0 0 1 18 0)"/>
</clipPath>
</defs>
</svg>
