<svg width="19" height="41" viewBox="0 0 19 41" fill="none" xmlns="http://www.w3.org/2000/svg">
<g clip-path="url(#clip0_633_828)">
<path d="M5.82662 23.6615V3.37421C5.82662 2.47805 6.18771 1.61859 6.83045 0.98491C7.47319 0.351231 8.34492 -0.00476074 9.25389 -0.00476074C10.1629 -0.00476074 11.0346 0.351231 11.6773 0.98491C12.3201 1.61859 12.6812 2.47805 12.6812 3.37421V23.6615C14.6079 24.4439 16.1996 25.8611 17.1847 27.6715C18.1698 29.4818 18.4872 31.573 18.0827 33.5884C17.6783 35.6037 16.5771 37.4182 14.967 38.7223C13.3569 40.0264 11.3377 40.7393 9.25389 40.7393C7.17013 40.7393 5.15092 40.0264 3.54082 38.7223C1.93072 37.4182 0.829491 35.6037 0.425043 33.5884C0.0205956 31.573 0.337988 29.4818 1.32306 27.6715C2.30814 25.8611 3.89986 24.4439 5.82662 23.6615Z" fill="white"/>
<path d="M9.25241 39.1194C10.958 39.1216 12.6113 38.5395 13.9297 37.4726C15.248 36.4058 16.1495 34.9205 16.4798 33.2708C16.8102 31.6211 16.5489 29.9095 15.7407 28.4287C14.9324 26.9479 13.6275 25.79 12.0491 25.153L11.03 24.7408V3.37444C11.0386 3.13886 10.9989 2.90398 10.9134 2.68384C10.8278 2.4637 10.6982 2.26282 10.5322 2.09317C10.3662 1.92352 10.1672 1.78859 9.9471 1.69643C9.72702 1.60427 9.49037 1.55676 9.25126 1.55676C9.01216 1.55676 8.7755 1.60427 8.55542 1.69643C8.33535 1.78859 8.13636 1.92352 7.97034 2.09317C7.80433 2.26282 7.67468 2.4637 7.58915 2.68384C7.50361 2.90398 7.46395 3.13886 7.47251 3.37444V24.7453L6.45347 25.1575C4.87483 25.7946 3.56979 26.9527 2.76159 28.4337C1.9534 29.9147 1.69228 31.6265 2.02292 33.2764C2.35356 34.9262 3.25539 36.4115 4.57415 37.4782C5.89291 38.5449 7.54663 39.1266 9.25241 39.1239V39.1194Z" fill="#B9D7FF"/>
<path d="M6.45375 25.1599L7.47051 24.7454V6.48315H11.0303V24.7454L12.0402 25.1599C13.616 25.7986 14.918 26.9568 15.7241 28.4367C16.5302 29.9165 16.7903 31.6264 16.4601 33.2743C16.1299 34.9222 15.2298 36.406 13.9135 37.4725C12.5971 38.539 10.9462 39.1219 9.2424 39.1219C7.53864 39.1219 5.88768 38.539 4.57135 37.4725C3.25502 36.406 2.35493 34.9222 2.02471 33.2743C1.6945 31.6264 1.95463 29.9165 2.76071 28.4367C3.56679 26.9568 4.86884 25.7986 6.44461 25.1599H6.45375Z" fill="#E84131"/>
<path d="M9.25053 35.7653C14.8027 35.7653 10.5575 29.1335 10.5575 29.1335V30.672L9.25053 27.6017L7.94817 30.672V29.1357C7.94817 29.1357 3.70064 35.7653 9.25053 35.7653Z" fill="white"/>
</g>
<defs>
<clipPath id="clip0_633_828">
<rect width="18" height="40.7368" fill="white" transform="matrix(-1 0 0 1 18.25 0)"/>
</clipPath>
</defs>
</svg>
