<svg width="74" height="74" viewBox="0 0 74 74" fill="none" xmlns="http://www.w3.org/2000/svg">
<path d="M57.9418 68.0763H12.0896C11.0777 68.1092 10.0699 67.9352 9.12988 67.5653C8.18986 67.1953 7.33808 66.6375 6.62842 65.927C5.91182 65.2338 5.34804 64.4028 4.9722 63.4857C4.59637 62.5687 4.41655 61.5853 4.44394 60.5969V15.4198C4.41048 14.4243 4.58734 13.4327 4.96335 12.5079C5.33936 11.583 5.90633 10.7449 6.62842 10.0467C7.33808 9.33629 8.18986 8.77847 9.12988 8.40852C10.0699 8.03858 11.0777 7.86456 12.0896 7.89749H57.9636C58.9755 7.86456 59.9833 8.03858 60.9233 8.40852C61.8634 8.77847 62.7151 9.33629 63.4248 10.0467C64.1469 10.7449 64.7139 11.583 65.0899 12.5079C65.4659 13.4327 65.6427 14.4243 65.6093 15.4198V60.5539C65.5978 62.5492 64.7855 64.4592 63.3495 65.8681C61.9134 67.277 59.9698 68.0707 57.9418 68.0763ZM35.0266 19.095C32.511 19.0811 30.0196 19.5787 27.7086 20.5565C25.4631 21.4861 23.4228 22.8366 21.7013 24.5326C19.9463 26.2234 18.5373 28.2299 17.5508 30.443C16.5846 32.7244 16.0872 35.1715 16.0872 37.643C16.0872 40.1145 16.5846 42.5616 17.5508 44.843C18.532 47.0591 19.9417 49.0664 21.7013 50.7534C23.4275 52.4493 25.4663 53.806 27.7086 54.751C30.0274 55.7016 32.5146 56.191 35.0266 56.191C37.5386 56.191 40.0258 55.7016 42.3446 54.751C44.587 53.806 46.6257 52.4493 48.3519 50.7534C50.1115 49.0664 51.5212 47.0591 52.5024 44.843C53.4686 42.5616 53.966 40.1145 53.966 37.643C53.966 35.1715 53.4686 32.7244 52.5024 30.443C51.5159 28.2299 50.1069 26.2234 48.3519 24.5326C46.6305 22.8366 44.5901 21.4861 42.3446 20.5565C40.0336 19.5787 37.5422 19.0811 35.0266 19.095ZM20.8275 29.8413H26.7038C26.233 31.0903 25.8748 32.3776 25.6334 33.6884H19.3202C19.664 32.3512 20.1701 31.0595 20.8275 29.8413ZM20.8275 45.4448C20.1724 44.2631 19.6662 43.0073 19.3202 41.7051H25.6334C25.8884 42.9777 26.2463 44.2282 26.7038 45.4448H20.8275ZM29.1504 34.9994L27.3591 40.3296L26.2669 40.7809L25.1309 37.1487L24.1042 40.7809L22.9901 40.3296L21.2426 34.9994L22.3566 34.5266L23.6018 38.6317L24.5848 35.9881H25.83L26.7911 38.6317L28.1018 34.5266L29.1504 34.9994ZM23.5363 26.4025C25.7884 24.1439 28.682 22.6081 31.8373 21.9965C29.9834 23.8576 28.5014 26.0448 27.4683 28.4443H21.9198C22.3922 27.7019 22.9333 27.004 23.5363 26.3595V26.4025ZM23.5363 48.991C22.9042 48.3803 22.3336 47.7109 21.8324 46.9922H27.3154C28.4001 49.4005 29.9338 51.5875 31.8373 53.4399C28.6673 52.8163 25.7691 51.248 23.5363 48.948V48.991ZM27.2936 33.6884C27.5372 32.4038 27.9028 31.1445 28.3858 29.9272H34.2184V33.6884H27.2936ZM34.2184 45.5307H28.4732C27.9874 44.3217 27.6216 43.0693 27.3809 41.791H34.3057L34.2184 45.5307ZM34.2184 53.4185C32.0611 51.647 30.305 49.4506 29.063 46.9707H34.2184V53.4185ZM34.2184 22.0395V28.4872H29.1285C30.3342 25.9784 32.0693 23.751 34.2184 21.9535V22.0395ZM35.0266 37.1487L33.9125 40.7809L32.8203 40.3296L31.0072 34.9994L32.1213 34.5266L33.4319 38.6317L34.3931 35.9881H35.6601L36.6213 38.6317L37.8664 34.5266L39.0242 34.9994L37.2111 40.3296L36.097 40.7809L35.0266 37.1487ZM35.8349 21.8891C37.9857 23.6667 39.7407 25.8616 40.9902 28.3368H35.8349V21.8891ZM35.8349 29.8413H41.58C42.14 31.0738 42.5576 32.3643 42.8252 33.6884H35.8349V29.8413ZM42.8252 41.7051C42.5546 42.9938 42.1369 44.2483 41.58 45.4448H35.8349V41.7051H42.8252ZM35.8349 53.397V46.9492H40.9902C39.7402 49.4241 37.9852 51.6189 35.8349 53.397ZM46.517 26.3595C47.1428 26.9526 47.7131 27.6 48.2208 28.2938H42.7378C41.64 25.8928 40.1078 23.708 38.2159 21.8461C41.3842 22.4874 44.2792 24.0615 46.517 26.3595ZM46.517 48.948C44.2579 51.1771 41.3625 52.6765 38.2159 53.2465C40.1194 51.3941 41.6531 49.2071 42.7378 46.7988H48.1335C47.668 47.5659 47.1265 48.2858 46.517 48.948ZM42.6941 40.3511L40.9028 35.0209L42.0169 34.5481L43.3276 38.6532L44.2888 36.0096H45.5339L46.517 38.6532L47.7621 34.5481L48.8762 35.0209L47.1286 40.3511L45.949 40.7809L44.8568 37.1487L43.7645 40.7809L42.6941 40.3511ZM49.2475 29.8628C49.8958 31.0752 50.3945 32.3595 50.733 33.6884H44.4199C44.1883 32.4079 43.8448 31.1495 43.3932 29.9272L49.2475 29.8628ZM49.2475 45.4663H43.3932C43.8367 44.2488 44.18 42.9982 44.4199 41.7266H50.733C50.3853 43.0214 49.8792 44.2699 49.2257 45.4448L49.2475 45.4663Z" fill="#056EBB"/>
<path d="M47.4176 49.2087L47.4168 49.2013L47.4159 49.1939L46.7708 44.1042C46.4043 39.4393 50.2048 36.02 54.7604 36.02C59.3158 36.02 63.1162 39.4393 62.7496 44.1042L62.1045 49.1939L62.1036 49.2013L62.1029 49.2087C61.8839 51.4745 61.0459 53.3202 59.7786 54.595C58.5152 55.866 56.7988 56.597 54.7604 56.597C52.7219 56.597 51.0054 55.866 49.7418 54.595C48.4745 53.3203 47.6364 51.4746 47.4176 49.2087Z" fill="#EDF5F1" stroke="#056EBB"/>
<path d="M61.4169 55.9643C61.5009 56.028 61.5926 56.0865 61.6925 56.137L61.6925 56.137L68.2058 59.4306L68.2059 59.4307C69.5548 60.1124 70.4935 61.4017 70.7278 62.8952L70.7278 62.8953L71.0373 64.866C71.0826 65.1549 71.0756 65.5217 70.9908 65.865C70.9054 66.211 70.7534 66.4863 70.5492 66.6536C70.5491 66.6536 70.549 66.6537 70.549 66.6537L61.4169 55.9643ZM61.4169 55.9643C59.5267 57.8162 57.2435 58.9251 54.7601 58.9251C52.2768 58.9251 49.9933 57.8162 48.1032 55.9643C48.0191 56.028 47.9275 56.0865 47.8276 56.137L47.8276 56.137L41.3144 59.4306L41.3142 59.4307C39.9652 60.1124 39.0267 61.4016 38.7924 62.8952L38.7923 62.8953L38.4827 64.866C38.4374 65.1549 38.4444 65.5217 38.5292 65.865C38.6146 66.211 38.7667 66.4864 38.9709 66.6537" fill="#EDF5F1" stroke="#056EBB"/>
</svg>
