<svg width="24" height="24" viewBox="0 0 24 24" fill="none" xmlns="http://www.w3.org/2000/svg">
<path d="M0.456561 23.1567H23.1646C23.3926 23.1943 23.6078 23.04 23.6456 22.812C23.6832 22.5839 23.5288 22.3686 23.3008 22.331C23.2678 22.331 19.9978 21.1956 19.2093 20.828C18.8264 20.6238 18.4793 20.3588 18.1811 20.0436C17.6175 19.5234 17.0157 19.0458 16.3811 18.6151C15.1797 17.7894 14.7875 17.7068 14.0071 17.5996C13.7222 17.5623 13.4002 17.517 12.9336 17.4138C11.9717 17.1907 11.695 16.5508 11.2821 15.2462C11.1417 14.8333 10.9765 14.3502 10.762 13.8507L10.7618 13.8505C10.5608 13.374 10.3925 12.8843 10.2583 12.3848C10.0719 11.3451 9.45188 10.4338 8.55295 9.87886C7.88829 9.4247 7.44244 9.15636 7.06255 8.92095C6.42205 8.56375 5.82837 8.12838 5.2955 7.62444C4.7464 7.12069 4.44508 6.07213 4.20542 5.23384C3.88747 4.16461 3.64807 3.33887 2.93382 3.33887C2.04211 3.33887 0.456584 4.05311 0.28313 4.13569C0.13678 4.20352 0.0433342 4.35024 0.0437023 4.51151V22.744C0.0437023 22.8535 0.0872016 22.9585 0.164615 23.0359C0.242028 23.1133 0.347091 23.1568 0.456575 23.1568L0.456561 23.1567Z" fill="#D29434"/>
<path d="M6.58367 5.75466C6.74016 5.79429 6.90107 5.81511 7.06251 5.81659C7.61326 5.81438 8.13763 5.58066 8.50756 5.1726C8.74294 4.93114 8.91011 4.63162 8.99216 4.30448C9.07421 3.97735 9.06792 3.6345 8.9741 3.31047C8.71808 2.54664 7.56202 1.90265 6.59604 1.98928C5.71665 2.07186 5.13037 2.69522 4.98584 3.70268C4.98842 3.71964 4.99248 3.73623 4.99819 3.75226C4.99948 4.21545 5.15652 4.66483 5.44405 5.02811C5.73159 5.39122 6.13305 5.64722 6.58367 5.75466Z" fill="#D29434"/>
<path d="M12.0665 11.0521C12.2018 11.0845 12.3402 11.1013 12.4794 11.1017C12.8572 11.1067 13.2209 10.9576 13.4867 10.6888C13.788 10.329 13.9927 9.89846 14.0813 9.43783C14.3001 8.66168 14.4282 8.36842 14.9443 8.36842C15.2455 8.36455 15.5337 8.24567 15.7503 8.0361C15.9667 7.82653 16.0948 7.5423 16.1084 7.2413C16.2942 6.11419 15.6543 4.37186 14.7253 4.06218C13.6731 3.7905 12.5565 3.93076 11.6041 4.45441C10.9706 4.79854 10.5185 5.40143 10.3655 6.1059C10.08 7.20943 10.08 8.36731 10.3655 9.47079C10.635 10.2475 11.2724 10.8399 12.0666 11.0521L12.0665 11.0521Z" fill="#D29434"/>
<path d="M17.3349 10.5112C16.8422 10.7315 16.4278 11.0957 16.1459 11.5558C15.93 11.8835 15.6825 12.1891 15.4067 12.4681C14.3499 13.5705 13.652 14.2931 14.3373 15.6019H14.3375C14.6953 16.4 15.3634 17.0175 16.1871 17.3113C16.3512 17.3565 16.5206 17.3801 16.6909 17.3813C17.1014 17.3747 17.5012 17.2501 17.8427 17.0223C18.2545 16.7764 18.6835 16.5611 19.1268 16.3781C20.049 16.0314 20.8834 15.486 21.5711 14.7803C21.8857 14.4946 22.1191 14.1302 22.2466 13.7247C22.3743 13.3192 22.3918 12.887 22.2977 12.4724C22.1076 11.8203 21.7438 11.2324 21.2449 10.7714C20.2746 9.83835 18.491 9.90432 17.3349 10.5113L17.3349 10.5112Z" fill="#D29434"/>
<path d="M18.4908 9.11919C18.5347 9.1249 18.5791 9.1249 18.6229 9.11919C18.808 9.12878 18.9768 9.01413 19.0358 8.83848L19.4487 7.59986C19.5217 7.38329 19.4052 7.14846 19.1886 7.07549C18.972 7.00249 18.7372 7.11898 18.6642 7.33556L18.2514 8.57418C18.2086 8.67813 18.2099 8.7948 18.2551 8.89766C18.3002 9.00051 18.3854 9.08048 18.4908 9.11919Z" fill="#D29434"/>
<path d="M11.604 3.33975C11.7135 3.33975 11.8186 3.29626 11.896 3.21884C11.9734 3.14143 12.0169 3.03637 12.0169 2.92688V1.68826C12.0169 1.46026 11.832 1.27539 11.604 1.27539C11.376 1.27539 11.1912 1.46026 11.1912 1.68826V2.92688C11.1912 3.03637 11.2347 3.14143 11.3121 3.21884C11.3895 3.29625 11.4946 3.33975 11.604 3.33975Z" fill="#D29434"/>
<path d="M16.1457 4.16492C16.2554 4.16548 16.361 4.12253 16.4388 4.04511L17.2646 3.21937C17.4266 3.05754 17.4266 2.79507 17.2646 2.63323C17.1027 2.47121 16.8403 2.47121 16.6784 2.63323L15.8527 3.45898C15.7745 3.53639 15.7305 3.642 15.7305 3.75204C15.7305 3.86208 15.7745 3.96769 15.8527 4.0451C15.9305 4.12252 16.0361 4.16547 16.1457 4.16492Z" fill="#D29434"/>
<path d="M4.29224 2.39374C4.36965 2.47189 4.47527 2.51594 4.5853 2.51594C4.69534 2.51594 4.80095 2.47189 4.87837 2.39374C4.95651 2.31632 5.00057 2.21071 5.00057 2.10067C5.00057 1.99064 4.95652 1.88502 4.87837 1.80761L4.05262 0.981864C3.89079 0.819848 3.62832 0.819848 3.46648 0.981864C3.30447 1.1437 3.30447 1.40616 3.46648 1.568L4.29224 2.39374Z" fill="#D29434"/>
<path d="M13.8006 12.4434L12.562 12.0306C12.3454 11.9576 12.1106 12.0741 12.0376 12.2906C11.9647 12.5072 12.0811 12.742 12.2977 12.815L13.5363 13.2279C13.5793 13.2404 13.6237 13.2474 13.6685 13.2485C13.8535 13.2581 14.0224 13.1435 14.0814 12.9678C14.1158 12.8611 14.1055 12.7448 14.0524 12.646C13.9995 12.547 13.9086 12.4739 13.8006 12.4434Z" fill="#D29434"/>
<path d="M22.3387 10.3579C22.3835 10.3568 22.4279 10.3498 22.4709 10.3373L23.7095 9.92438C23.9261 9.85139 24.0425 9.61657 23.9696 9.40001C23.8966 9.18344 23.6617 9.06695 23.4452 9.13994L22.2066 9.55281C22.1024 9.58765 22.0164 9.66248 21.9675 9.76091C21.9188 9.85933 21.9111 9.97306 21.9465 10.0772C22.0033 10.2453 22.1612 10.3583 22.3387 10.3579Z" fill="#D29434"/>
</svg>
