<svg width="24" height="24" viewBox="0 0 24 24" fill="none" xmlns="http://www.w3.org/2000/svg">
<g clip-path="url(#clip0_946_3547)">
<path d="M17.0549 18.4724C17.0185 17.2724 16.2185 15.4178 15.0185 15.1633C11.9276 14.4724 11.5276 11.5269 11.5276 11.4906C11.4549 11.1269 11.2367 10.836 10.873 10.6906L10.073 10.3633C9.0185 9.96328 8.2185 9.01783 8.10941 7.89055C7.92759 6.18146 6.58214 3.99964 4.43668 3.99964C3.92759 3.99964 3.45487 3.63601 3.30941 3.12692C2.83668 1.16328 0.873047 0.363281 0.873047 0.363281V23.636H19.0185C19.673 23.0178 19.7821 22.3996 19.7458 21.9269C19.6367 20.6178 17.1276 20.6906 17.0549 18.4724Z" fill="#AE7003"/>
<path d="M22.0006 14.0003C21.9643 13.6367 22.437 12.5094 21.4552 11.8185L19.7825 10.5821C18.7279 9.8185 17.7461 10.7276 17.1643 10.9094C15.8188 11.5276 16.2552 13.3821 16.837 13.964C18.037 15.0185 18.1461 15.3094 18.6916 15.4912C19.0916 15.564 19.9643 16.1458 20.837 15.4912C21.0916 15.2367 21.8916 14.9458 22.0006 14.0003Z" fill="#AE7003"/>
<path d="M12.7997 9.81834L14.3633 10.0002C14.836 10.0365 15.236 9.70925 15.2724 9.27289C15.2724 8.43652 15.8906 7.12743 14.836 6.83652C13.9269 6.69107 12.9087 5.96379 12.3997 6.76379C12.036 7.41834 11.4906 7.81834 11.7451 8.43652C12.036 8.94561 12.0724 9.74561 12.7997 9.81834Z" fill="#AE7003"/>
<path d="M9.41909 5.34515C9.81909 5.23606 10.1464 5.27242 10.3282 4.94515C10.4736 4.50879 11.1645 3.81788 10.5464 3.41788C10.1827 3.27242 9.49181 2.54515 9.09181 3.16333C8.76454 3.81788 8.14636 4.25424 8.54636 4.69061C8.8009 4.94515 8.98272 5.45424 9.41909 5.34515Z" fill="#AE7003"/>
<path d="M19.5637 17.1615C19.2 17.2342 18.6909 17.0887 18.5091 17.5615C18.4 17.9615 18.1455 18.216 18.3273 18.5433C18.6182 18.9069 18.8 19.8887 19.4546 19.5615C19.7819 19.3433 20.8 19.1615 20.5091 18.5069C20.2182 17.8524 20.1819 17.1251 19.5637 17.1615Z" fill="#AE7003"/>
<path d="M17.6362 9.38225L18.1453 9.30953C18.3271 9.27316 18.3635 9.16407 18.7271 8.8368C18.8726 8.69134 18.7998 8.54589 18.8726 8.18225C18.9453 7.60043 17.9998 7.92771 17.4907 7.89134C17.3816 7.89134 17.2726 7.96407 17.2362 8.0368C17.1271 8.25498 16.9089 8.4368 17.018 8.69134C17.2362 9.01862 17.2726 9.45498 17.6362 9.38225Z" fill="#AE7003"/>
<path d="M14 11.782C13.891 11.782 13.8182 11.8547 13.7819 11.9274C13.6728 12.1456 13.491 12.2911 13.6 12.4729C13.7819 12.7274 13.8182 13.0911 14.1091 13.0547C14.5091 12.982 14.5819 13.0183 14.691 12.9092C14.9819 12.582 15.1273 12.582 15.1273 12.4001L15.1637 12.0001C15.2364 11.4911 14.4 11.782 14 11.782Z" fill="#AE7003"/>
<path d="M9.12682 6.76517C9.01773 6.98335 8.79955 7.16517 8.90864 7.41971C9.09046 7.71062 9.16318 8.14699 9.52682 8.11062C9.92682 8.03789 10.0723 8.07426 10.2177 7.96517C10.545 7.60153 10.6905 7.56517 10.7268 7.38335C10.7268 7.27426 10.945 6.54699 10.4359 6.58335C9.52682 6.61971 9.27227 6.51062 9.12682 6.76517Z" fill="#AE7003"/>
<path d="M22.5465 20.911C22.0011 20.6565 21.892 20.4747 21.6738 20.5474C21.4192 20.6929 20.9465 20.6929 21.0192 21.0565C21.1283 21.5656 21.092 21.711 21.2374 21.8201C21.492 22.002 21.6738 22.3292 21.9647 22.1838C22.3283 21.9656 22.4738 21.9292 22.5465 21.7838C22.5465 21.4929 22.8738 21.0929 22.5465 20.911Z" fill="#AE7003"/>
<path d="M22.3639 16.1445C22.2911 16.1081 22.1821 16.1081 22.1093 16.1445C21.8548 16.2899 21.3821 16.2899 21.4548 16.6536C21.5639 17.1626 21.5275 17.3081 21.673 17.4172C21.9275 17.599 22.1093 17.9263 22.4002 17.7808C22.7639 17.5626 22.9093 17.5263 22.9821 17.3808L23.1639 16.8717C23.2366 16.4717 22.7275 16.399 22.3639 16.1445Z" fill="#AE7003"/>
</g>
<defs>
<clipPath id="clip0_946_3547">
<rect width="24" height="24" fill="white"/>
</clipPath>
</defs>
</svg>
