<svg width="44" height="44" viewBox="0 0 44 44" fill="none" xmlns="http://www.w3.org/2000/svg">
<rect width="44" height="44" rx="8" fill="#003F35"/>
<path d="M32 32.75H15C12.93 32.75 11.25 31.07 11.25 29V12C11.25 11.59 11.59 11.25 12 11.25C12.41 11.25 12.75 11.59 12.75 12V29C12.75 30.24 13.76 31.25 15 31.25H32C32.41 31.25 32.75 31.59 32.75 32C32.75 32.41 32.41 32.75 32 32.75Z" fill="white"/>
<path d="M14.9998 27.7498C14.8298 27.7498 14.6498 27.6898 14.5098 27.5698C14.1998 27.2998 14.1598 26.8298 14.4298 26.5098L19.0198 21.1498C19.5198 20.5698 20.2398 20.2198 20.9998 20.1898C21.7598 20.1698 22.5098 20.4498 23.0498 20.9898L23.9998 21.9398C24.2498 22.1898 24.5698 22.3098 24.9298 22.3098C25.2798 22.2998 25.5998 22.1398 25.8298 21.8698L30.4198 16.5098C30.6898 16.1998 31.1598 16.1598 31.4798 16.4298C31.7898 16.6998 31.8298 17.1698 31.5598 17.4898L26.9698 22.8498C26.4698 23.4298 25.7498 23.7798 24.9898 23.8098C24.2198 23.8298 23.4798 23.5498 22.9398 23.0098L21.9998 22.0598C21.7498 21.8098 21.4198 21.6798 21.0698 21.6898C20.7198 21.6998 20.3998 21.8598 20.1698 22.1298L15.5798 27.4898C15.4198 27.6598 15.2098 27.7498 14.9998 27.7498Z" fill="white"/>
</svg>
