<svg width="62" height="61" viewBox="0 0 62 61" fill="none" xmlns="http://www.w3.org/2000/svg">
<rect x="0.500488" width="60.999" height="60.999" rx="30.4995" fill="#0A66C2"/>
<path d="M19.5005 20.6475C19.5005 19.7381 20.2618 19 21.2003 19H40.7997C41.7386 19 42.4995 19.7381 42.4995 20.6475V40.3518C42.4995 41.2614 41.7386 41.999 40.7997 41.999H21.2003C20.2619 41.999 19.5005 41.2615 19.5005 40.3521V20.6472V20.6475Z" fill="white"/>
<path d="M26.4897 38.2469V27.8927H23.0481V38.2469H26.49H26.4897ZM24.7696 26.4792C25.9695 26.4792 26.7165 25.6842 26.7165 24.6905C26.694 23.6743 25.9695 22.9014 24.7924 22.9014C23.6145 22.9014 22.8452 23.6743 22.8452 24.6904C22.8452 25.6841 23.592 26.4792 24.747 26.4792H24.7693L24.7696 26.4792ZM28.3946 38.2469H31.8359V32.4653C31.8359 32.1562 31.8584 31.8464 31.9493 31.6256C32.198 31.0071 32.7643 30.3668 33.7152 30.3668C34.9602 30.3668 35.4586 31.3162 35.4586 32.7083V38.2469H38.8998V32.3101C38.8998 29.1299 37.2022 27.6499 34.9379 27.6499C33.0816 27.6499 32.2663 28.6875 31.8133 29.3942H31.8362V27.8931H28.3948C28.4397 28.8644 28.3945 38.2473 28.3945 38.2473L28.3946 38.2469Z" fill="#0A66C2"/>
</svg>
