<svg width="22" height="22" viewBox="0 0 22 22" fill="none" xmlns="http://www.w3.org/2000/svg">
<path d="M20.4065 0.00390625H1.65161C0.792236 0.00390625 0.0939941 0.711914 0.0939941 1.58105V20.3018C0.0939941 21.1709 0.792236 21.8789 1.65161 21.8789H20.4065C21.2659 21.8789 21.969 21.1709 21.969 20.3018V1.58105C21.969 0.711914 21.2659 0.00390625 20.4065 0.00390625ZM6.70532 18.7539H3.46313V8.31445H6.71021V18.7539H6.70532ZM5.08423 6.88867C4.04419 6.88867 3.20435 6.04395 3.20435 5.00879C3.20435 3.97363 4.04419 3.12891 5.08423 3.12891C6.11938 3.12891 6.96411 3.97363 6.96411 5.00879C6.96411 6.04883 6.12427 6.88867 5.08423 6.88867ZM18.8586 18.7539H15.6165V13.6758C15.6165 12.4648 15.592 10.9072 13.9319 10.9072C12.2424 10.9072 11.9836 12.2256 11.9836 13.5879V18.7539H8.74146V8.31445H11.8518V9.74023H11.8958C12.3303 8.91992 13.3899 8.05566 14.967 8.05566C18.2483 8.05566 18.8586 10.2187 18.8586 13.0312V18.7539Z" fill="white"/>
</svg>
