<svg width="21" height="27" viewBox="0 0 21 27" fill="none" xmlns="http://www.w3.org/2000/svg">
<path d="M9.11023 26.4552C1.54263 15.3473 0.137939 14.2073 0.137939 10.125C0.137939 4.5331 4.61508 0 10.1379 0C15.6608 0 20.1379 4.5331 20.1379 10.125C20.1379 14.2073 18.7333 15.3473 11.1656 26.4552C10.669 27.1816 9.60679 27.1816 9.11023 26.4552ZM10.1379 14.3437C12.4391 14.3437 14.3046 12.455 14.3046 10.125C14.3046 7.79503 12.4391 5.90625 10.1379 5.90625C7.83674 5.90625 5.97127 7.79503 5.97127 10.125C5.97127 12.455 7.83674 14.3437 10.1379 14.3437Z" fill="white"/>
</svg>
