<svg width="119" height="40" viewBox="0 0 119 40" fill="none" xmlns="http://www.w3.org/2000/svg">
<path d="M6.35752 2.39C5.67352 2.39 5.05552 2.51 4.50352 2.75C3.95152 2.978 3.48352 3.32 3.09952 3.776C2.71552 4.22 2.42152 4.766 2.21752 5.414C2.01352 6.05 1.91152 6.77 1.91152 7.574C1.91152 8.63 2.07352 9.548 2.39752 10.328C2.73352 11.108 3.22552 11.708 3.87352 12.128C4.53352 12.548 5.35552 12.758 6.33952 12.758C6.90352 12.758 7.43752 12.71 7.94152 12.614C8.44552 12.518 8.93752 12.398 9.41752 12.254V13.658C8.93752 13.838 8.43952 13.97 7.92352 14.054C7.41952 14.138 6.81352 14.18 6.10552 14.18C4.79752 14.18 3.70552 13.91 2.82952 13.37C1.95352 12.83 1.29352 12.062 0.849516 11.066C0.417516 10.07 0.201516 8.9 0.201516 7.556C0.201516 6.584 0.333516 5.696 0.597516 4.892C0.873516 4.088 1.26952 3.392 1.78552 2.804C2.31352 2.216 2.96152 1.766 3.72952 1.454C4.49752 1.13 5.37952 0.967999 6.37552 0.967999C7.03552 0.967999 7.67152 1.034 8.28352 1.166C8.89552 1.298 9.44152 1.484 9.92152 1.724L9.27352 3.092C8.87752 2.912 8.43352 2.75 7.94152 2.606C7.46152 2.462 6.93352 2.39 6.35752 2.39ZM13.5906 14H12.0066V0.319999H13.5906V14ZM18.2312 4.352V14H16.6472V4.352H18.2312ZM17.4572 0.733999C17.6972 0.733999 17.9072 0.817999 18.0872 0.985999C18.2792 1.142 18.3752 1.394 18.3752 1.742C18.3752 2.078 18.2792 2.33 18.0872 2.498C17.9072 2.666 17.6972 2.75 17.4572 2.75C17.1932 2.75 16.9712 2.666 16.7912 2.498C16.6112 2.33 16.5212 2.078 16.5212 1.742C16.5212 1.394 16.6112 1.142 16.7912 0.985999C16.9712 0.817999 17.1932 0.733999 17.4572 0.733999ZM31.8718 4.172C32.9638 4.172 33.7798 4.454 34.3198 5.018C34.8598 5.57 35.1298 6.47 35.1298 7.718V14H33.5638V7.79C33.5638 7.034 33.4018 6.464 33.0778 6.08C32.7658 5.696 32.2738 5.504 31.6018 5.504C30.6658 5.504 29.9938 5.774 29.5858 6.314C29.1898 6.854 28.9918 7.64 28.9918 8.672V14H27.4258V7.79C27.4258 7.286 27.3538 6.866 27.2098 6.53C27.0658 6.182 26.8498 5.924 26.5618 5.756C26.2738 5.588 25.9018 5.504 25.4458 5.504C24.7978 5.504 24.2878 5.642 23.9158 5.918C23.5438 6.182 23.2738 6.572 23.1058 7.088C22.9498 7.604 22.8718 8.24 22.8718 8.996V14H21.2878V4.352H22.5658L22.7998 5.666H22.8898C23.0938 5.33 23.3398 5.054 23.6278 4.838C23.9278 4.61 24.2578 4.442 24.6178 4.334C24.9778 4.226 25.3498 4.172 25.7338 4.172C26.4778 4.172 27.0958 4.304 27.5878 4.568C28.0918 4.832 28.4578 5.24 28.6858 5.792H28.7758C29.0998 5.24 29.5378 4.832 30.0898 4.568C30.6538 4.304 31.2478 4.172 31.8718 4.172ZM41.7641 4.19C42.9401 4.19 43.8101 4.448 44.3741 4.964C44.9381 5.48 45.2201 6.302 45.2201 7.43V14H44.0681L43.7621 12.632H43.6901C43.4141 12.98 43.1261 13.274 42.8261 13.514C42.5381 13.742 42.2021 13.91 41.8181 14.018C41.4461 14.126 40.9901 14.18 40.4501 14.18C39.8741 14.18 39.3521 14.078 38.8841 13.874C38.4281 13.67 38.0681 13.358 37.8041 12.938C37.5401 12.506 37.4081 11.966 37.4081 11.318C37.4081 10.358 37.7861 9.62 38.5421 9.104C39.2981 8.576 40.4621 8.288 42.0341 8.24L43.6721 8.186V7.61C43.6721 6.806 43.4981 6.248 43.1501 5.936C42.8021 5.624 42.3101 5.468 41.6741 5.468C41.1701 5.468 40.6901 5.546 40.2341 5.702C39.7781 5.846 39.3521 6.014 38.9561 6.206L38.4701 5.018C38.8901 4.79 39.3881 4.598 39.9641 4.442C40.5401 4.274 41.1401 4.19 41.7641 4.19ZM42.2321 9.338C41.0321 9.386 40.1981 9.578 39.7301 9.914C39.2741 10.25 39.0461 10.724 39.0461 11.336C39.0461 11.876 39.2081 12.272 39.5321 12.524C39.8681 12.776 40.2941 12.902 40.8101 12.902C41.6261 12.902 42.3041 12.68 42.8441 12.236C43.3841 11.78 43.6541 11.084 43.6541 10.148V9.284L42.2321 9.338ZM51.4219 12.884C51.6619 12.884 51.9079 12.866 52.1599 12.83C52.4119 12.782 52.6159 12.734 52.7719 12.686V13.892C52.6039 13.976 52.3639 14.042 52.0519 14.09C51.7399 14.15 51.4399 14.18 51.1519 14.18C50.6479 14.18 50.1799 14.096 49.7479 13.928C49.3279 13.748 48.9859 13.442 48.7219 13.01C48.4579 12.578 48.3259 11.972 48.3259 11.192V5.576H46.9579V4.82L48.3439 4.19L48.9739 2.138H49.9099V4.352H52.6999V5.576H49.9099V11.156C49.9099 11.744 50.0479 12.182 50.3239 12.47C50.6119 12.746 50.9779 12.884 51.4219 12.884ZM58.4298 4.172C59.2578 4.172 59.9658 4.352 60.5538 4.712C61.1538 5.072 61.6098 5.582 61.9218 6.242C62.2458 6.89 62.4078 7.652 62.4078 8.528V9.482H55.8018C55.8258 10.574 56.1018 11.408 56.6298 11.984C57.1698 12.548 57.9198 12.83 58.8798 12.83C59.4918 12.83 60.0318 12.776 60.4998 12.668C60.9798 12.548 61.4718 12.38 61.9758 12.164V13.55C61.4838 13.766 60.9978 13.922 60.5178 14.018C60.0378 14.126 59.4678 14.18 58.8078 14.18C57.8958 14.18 57.0858 13.994 56.3778 13.622C55.6818 13.25 55.1358 12.698 54.7398 11.966C54.3558 11.222 54.1638 10.316 54.1638 9.248C54.1638 8.192 54.3378 7.286 54.6858 6.53C55.0458 5.774 55.5438 5.192 56.1798 4.784C56.8278 4.376 57.5778 4.172 58.4298 4.172ZM58.4118 5.468C57.6558 5.468 57.0558 5.714 56.6118 6.206C56.1798 6.686 55.9218 7.358 55.8378 8.222H60.7518C60.7518 7.67 60.6678 7.19 60.4998 6.782C60.3318 6.374 60.0738 6.056 59.7258 5.828C59.3898 5.588 58.9518 5.468 58.4118 5.468ZM77.0458 10.562C77.0458 11.33 76.8598 11.984 76.4878 12.524C76.1158 13.052 75.5818 13.46 74.8858 13.748C74.2018 14.036 73.3918 14.18 72.4558 14.18C71.9758 14.18 71.5138 14.156 71.0698 14.108C70.6378 14.06 70.2418 13.994 69.8818 13.91C69.5218 13.814 69.2038 13.7 68.9278 13.568V12.02C69.3598 12.212 69.8938 12.386 70.5298 12.542C71.1778 12.698 71.8438 12.776 72.5278 12.776C73.1638 12.776 73.6978 12.692 74.1298 12.524C74.5618 12.356 74.8858 12.116 75.1018 11.804C75.3178 11.492 75.4258 11.126 75.4258 10.706C75.4258 10.286 75.3358 9.932 75.1558 9.644C74.9758 9.356 74.6638 9.092 74.2198 8.852C73.7878 8.6 73.1818 8.336 72.4018 8.06C71.8498 7.856 71.3638 7.64 70.9438 7.412C70.5358 7.172 70.1938 6.902 69.9178 6.602C69.6418 6.302 69.4318 5.96 69.2878 5.576C69.1558 5.192 69.0898 4.748 69.0898 4.244C69.0898 3.56 69.2638 2.978 69.6118 2.498C69.9598 2.006 70.4398 1.628 71.0518 1.364C71.6758 1.1 72.3898 0.967999 73.1938 0.967999C73.9018 0.967999 74.5498 1.034 75.1378 1.166C75.7258 1.298 76.2598 1.472 76.7398 1.688L76.2358 3.074C75.7918 2.882 75.3058 2.72 74.7778 2.588C74.2618 2.456 73.7218 2.39 73.1578 2.39C72.6178 2.39 72.1678 2.468 71.8078 2.624C71.4478 2.78 71.1778 3.002 70.9978 3.29C70.8178 3.566 70.7278 3.89 70.7278 4.262C70.7278 4.694 70.8178 5.054 70.9978 5.342C71.1778 5.63 71.4718 5.888 71.8798 6.116C72.2878 6.344 72.8398 6.59 73.5358 6.854C74.2918 7.13 74.9278 7.43 75.4438 7.754C75.9718 8.066 76.3678 8.444 76.6318 8.888C76.9078 9.332 77.0458 9.89 77.0458 10.562ZM90.0027 4.172C91.0947 4.172 91.9107 4.454 92.4507 5.018C92.9907 5.57 93.2607 6.47 93.2607 7.718V14H91.6947V7.79C91.6947 7.034 91.5327 6.464 91.2087 6.08C90.8967 5.696 90.4047 5.504 89.7327 5.504C88.7967 5.504 88.1247 5.774 87.7167 6.314C87.3207 6.854 87.1227 7.64 87.1227 8.672V14H85.5567V7.79C85.5567 7.286 85.4847 6.866 85.3407 6.53C85.1967 6.182 84.9807 5.924 84.6927 5.756C84.4047 5.588 84.0327 5.504 83.5767 5.504C82.9287 5.504 82.4187 5.642 82.0467 5.918C81.6747 6.182 81.4047 6.572 81.2367 7.088C81.0807 7.604 81.0027 8.24 81.0027 8.996V14H79.4187V4.352H80.6967L80.9307 5.666H81.0207C81.2247 5.33 81.4707 5.054 81.7587 4.838C82.0587 4.61 82.3887 4.442 82.7487 4.334C83.1087 4.226 83.4807 4.172 83.8647 4.172C84.6087 4.172 85.2267 4.304 85.7187 4.568C86.2227 4.832 86.5887 5.24 86.8167 5.792H86.9067C87.2307 5.24 87.6687 4.832 88.2207 4.568C88.7847 4.304 89.3787 4.172 90.0027 4.172ZM99.8949 4.19C101.071 4.19 101.941 4.448 102.505 4.964C103.069 5.48 103.351 6.302 103.351 7.43V14H102.199L101.893 12.632H101.821C101.545 12.98 101.257 13.274 100.957 13.514C100.669 13.742 100.333 13.91 99.9489 14.018C99.5769 14.126 99.1209 14.18 98.5809 14.18C98.0049 14.18 97.4829 14.078 97.0149 13.874C96.5589 13.67 96.1989 13.358 95.9349 12.938C95.6709 12.506 95.5389 11.966 95.5389 11.318C95.5389 10.358 95.9169 9.62 96.6729 9.104C97.4289 8.576 98.5929 8.288 100.165 8.24L101.803 8.186V7.61C101.803 6.806 101.629 6.248 101.281 5.936C100.933 5.624 100.441 5.468 99.8049 5.468C99.3009 5.468 98.8209 5.546 98.3649 5.702C97.9089 5.846 97.4829 6.014 97.0869 6.206L96.6009 5.018C97.0209 4.79 97.5189 4.598 98.0949 4.442C98.6709 4.274 99.2709 4.19 99.8949 4.19ZM100.363 9.338C99.1629 9.386 98.3289 9.578 97.8609 9.914C97.4049 10.25 97.1769 10.724 97.1769 11.336C97.1769 11.876 97.3389 12.272 97.6629 12.524C97.9989 12.776 98.4249 12.902 98.9409 12.902C99.7569 12.902 100.435 12.68 100.975 12.236C101.515 11.78 101.785 11.084 101.785 10.148V9.284L100.363 9.338ZM110.831 4.172C111.011 4.172 111.203 4.184 111.407 4.208C111.623 4.22 111.809 4.244 111.965 4.28L111.767 5.738C111.611 5.702 111.437 5.672 111.245 5.648C111.065 5.624 110.891 5.612 110.723 5.612C110.351 5.612 109.997 5.69 109.661 5.846C109.325 6.002 109.025 6.224 108.761 6.512C108.497 6.788 108.287 7.124 108.131 7.52C107.987 7.916 107.915 8.36 107.915 8.852V14H106.331V4.352H107.627L107.807 6.116H107.879C108.083 5.756 108.329 5.432 108.617 5.144C108.905 4.844 109.235 4.61 109.607 4.442C109.979 4.262 110.387 4.172 110.831 4.172ZM116.988 12.884C117.228 12.884 117.474 12.866 117.726 12.83C117.978 12.782 118.182 12.734 118.338 12.686V13.892C118.17 13.976 117.93 14.042 117.618 14.09C117.306 14.15 117.006 14.18 116.718 14.18C116.214 14.18 115.746 14.096 115.314 13.928C114.894 13.748 114.552 13.442 114.288 13.01C114.024 12.578 113.892 11.972 113.892 11.192V5.576H112.524V4.82L113.91 4.19L114.54 2.138H115.476V4.352H118.266V5.576H115.476V11.156C115.476 11.744 115.614 12.182 115.89 12.47C116.178 12.746 116.544 12.884 116.988 12.884ZM6.42952 32.214H10.8755V38.514C10.1795 38.742 9.47752 38.91 8.76952 39.018C8.06152 39.126 7.25752 39.18 6.35752 39.18C5.02552 39.18 3.90352 38.916 2.99152 38.388C2.07952 37.848 1.38352 37.086 0.903516 36.102C0.435516 35.106 0.201516 33.93 0.201516 32.574C0.201516 31.23 0.465516 30.066 0.993516 29.082C1.52152 28.098 2.27752 27.336 3.26152 26.796C4.25752 26.244 5.45752 25.968 6.86152 25.968C7.58152 25.968 8.25952 26.034 8.89552 26.166C9.54352 26.298 10.1435 26.484 10.6955 26.724L10.0835 28.128C9.62752 27.924 9.11152 27.75 8.53552 27.606C7.97152 27.462 7.38352 27.39 6.77152 27.39C5.75152 27.39 4.87552 27.6 4.14352 28.02C3.41152 28.44 2.85352 29.04 2.46952 29.82C2.08552 30.588 1.89352 31.506 1.89352 32.574C1.89352 33.594 2.05552 34.5 2.37952 35.292C2.71552 36.072 3.23752 36.684 3.94552 37.128C4.65352 37.56 5.58352 37.776 6.73552 37.776C7.11952 37.776 7.45552 37.764 7.74352 37.74C8.04352 37.704 8.31352 37.662 8.55352 37.614C8.80552 37.566 9.03952 37.518 9.25552 37.47V33.654H6.42952V32.214ZM22.1172 34.158C22.1172 34.962 22.0092 35.676 21.7932 36.3C21.5892 36.912 21.2892 37.434 20.8932 37.866C20.5092 38.298 20.0352 38.628 19.4712 38.856C18.9192 39.072 18.3012 39.18 17.6172 39.18C16.9812 39.18 16.3932 39.072 15.8532 38.856C15.3132 38.628 14.8452 38.298 14.4492 37.866C14.0532 37.434 13.7412 36.912 13.5132 36.3C13.2972 35.676 13.1892 34.962 13.1892 34.158C13.1892 33.09 13.3692 32.19 13.7292 31.458C14.0892 30.714 14.6052 30.15 15.2772 29.766C15.9492 29.37 16.7472 29.172 17.6712 29.172C18.5472 29.172 19.3152 29.37 19.9752 29.766C20.6472 30.15 21.1692 30.714 21.5412 31.458C21.9252 32.19 22.1172 33.09 22.1172 34.158ZM14.8272 34.158C14.8272 34.914 14.9232 35.574 15.1152 36.138C15.3192 36.69 15.6312 37.116 16.0512 37.416C16.4712 37.716 17.0052 37.866 17.6532 37.866C18.3012 37.866 18.8352 37.716 19.2552 37.416C19.6752 37.116 19.9812 36.69 20.1732 36.138C20.3772 35.574 20.4792 34.914 20.4792 34.158C20.4792 33.39 20.3772 32.736 20.1732 32.196C19.9692 31.656 19.6572 31.242 19.2372 30.954C18.8292 30.654 18.2952 30.504 17.6352 30.504C16.6512 30.504 15.9372 30.828 15.4932 31.476C15.0492 32.124 14.8272 33.018 14.8272 34.158ZM26.4001 39L22.7461 29.352H24.4381L26.4901 35.04C26.5861 35.304 26.6881 35.598 26.7961 35.922C26.9041 36.246 27.0001 36.558 27.0841 36.858C27.1681 37.146 27.2281 37.392 27.2641 37.596H27.3361C27.3841 37.392 27.4501 37.14 27.5341 36.84C27.6301 36.54 27.7321 36.228 27.8401 35.904C27.9601 35.58 28.0621 35.292 28.1461 35.04L30.1981 29.352H31.8901L28.2181 39H26.4001ZM37.1427 29.172C37.9707 29.172 38.6787 29.352 39.2667 29.712C39.8667 30.072 40.3227 30.582 40.6347 31.242C40.9587 31.89 41.1207 32.652 41.1207 33.528V34.482H34.5147C34.5387 35.574 34.8147 36.408 35.3427 36.984C35.8827 37.548 36.6327 37.83 37.5927 37.83C38.2047 37.83 38.7447 37.776 39.2127 37.668C39.6927 37.548 40.1847 37.38 40.6887 37.164V38.55C40.1967 38.766 39.7107 38.922 39.2307 39.018C38.7507 39.126 38.1807 39.18 37.5207 39.18C36.6087 39.18 35.7987 38.994 35.0907 38.622C34.3947 38.25 33.8487 37.698 33.4527 36.966C33.0687 36.222 32.8767 35.316 32.8767 34.248C32.8767 33.192 33.0507 32.286 33.3987 31.53C33.7587 30.774 34.2567 30.192 34.8927 29.784C35.5407 29.376 36.2907 29.172 37.1427 29.172ZM37.1247 30.468C36.3687 30.468 35.7687 30.714 35.3247 31.206C34.8927 31.686 34.6347 32.358 34.5507 33.222H39.4647C39.4647 32.67 39.3807 32.19 39.2127 31.782C39.0447 31.374 38.7867 31.056 38.4387 30.828C38.1027 30.588 37.6647 30.468 37.1247 30.468ZM48.0769 29.172C48.2569 29.172 48.4489 29.184 48.6529 29.208C48.8689 29.22 49.0549 29.244 49.2109 29.28L49.0129 30.738C48.8569 30.702 48.6829 30.672 48.4909 30.648C48.3109 30.624 48.1369 30.612 47.9689 30.612C47.5969 30.612 47.2429 30.69 46.9069 30.846C46.5709 31.002 46.2709 31.224 46.0069 31.512C45.7429 31.788 45.5329 32.124 45.3769 32.52C45.2329 32.916 45.1609 33.36 45.1609 33.852V39H43.5769V29.352H44.8729L45.0529 31.116H45.1249C45.3289 30.756 45.5749 30.432 45.8629 30.144C46.1509 29.844 46.4809 29.61 46.8529 29.442C47.2249 29.262 47.6329 29.172 48.0769 29.172ZM55.6564 29.172C56.8084 29.172 57.6784 29.454 58.2664 30.018C58.8544 30.57 59.1484 31.47 59.1484 32.718V39H57.5824V32.826C57.5824 32.046 57.4084 31.464 57.0604 31.08C56.7124 30.696 56.1664 30.504 55.4224 30.504C54.3544 30.504 53.6164 30.804 53.2084 31.404C52.8004 32.004 52.5964 32.868 52.5964 33.996V39H51.0124V29.352H52.2904L52.5244 30.666H52.6144C52.8304 30.33 53.0944 30.054 53.4064 29.838C53.7304 29.61 54.0844 29.442 54.4684 29.334C54.8524 29.226 55.2484 29.172 55.6564 29.172ZM65.7934 29.19C66.9694 29.19 67.8394 29.448 68.4034 29.964C68.9674 30.48 69.2494 31.302 69.2494 32.43V39H68.0974L67.7914 37.632H67.7194C67.4434 37.98 67.1554 38.274 66.8554 38.514C66.5674 38.742 66.2314 38.91 65.8474 39.018C65.4754 39.126 65.0194 39.18 64.4794 39.18C63.9034 39.18 63.3814 39.078 62.9134 38.874C62.4574 38.67 62.0974 38.358 61.8334 37.938C61.5694 37.506 61.4374 36.966 61.4374 36.318C61.4374 35.358 61.8154 34.62 62.5714 34.104C63.3274 33.576 64.4914 33.288 66.0634 33.24L67.7014 33.186V32.61C67.7014 31.806 67.5274 31.248 67.1794 30.936C66.8314 30.624 66.3394 30.468 65.7034 30.468C65.1994 30.468 64.7194 30.546 64.2634 30.702C63.8074 30.846 63.3814 31.014 62.9854 31.206L62.4994 30.018C62.9194 29.79 63.4174 29.598 63.9934 29.442C64.5694 29.274 65.1694 29.19 65.7934 29.19ZM66.2614 34.338C65.0614 34.386 64.2274 34.578 63.7594 34.914C63.3034 35.25 63.0754 35.724 63.0754 36.336C63.0754 36.876 63.2374 37.272 63.5614 37.524C63.8974 37.776 64.3234 37.902 64.8394 37.902C65.6554 37.902 66.3334 37.68 66.8734 37.236C67.4134 36.78 67.6834 36.084 67.6834 35.148V34.284L66.2614 34.338ZM76.8732 29.172C78.0252 29.172 78.8952 29.454 79.4832 30.018C80.0712 30.57 80.3652 31.47 80.3652 32.718V39H78.7992V32.826C78.7992 32.046 78.6252 31.464 78.2772 31.08C77.9292 30.696 77.3832 30.504 76.6392 30.504C75.5712 30.504 74.8332 30.804 74.4252 31.404C74.0172 32.004 73.8132 32.868 73.8132 33.996V39H72.2292V29.352H73.5072L73.7412 30.666H73.8312C74.0472 30.33 74.3112 30.054 74.6232 29.838C74.9472 29.61 75.3012 29.442 75.6852 29.334C76.0692 29.226 76.4652 29.172 76.8732 29.172ZM87.2262 39.18C86.3742 39.18 85.6122 39.006 84.9402 38.658C84.2802 38.31 83.7582 37.77 83.3742 37.038C83.0022 36.306 82.8162 35.37 82.8162 34.23C82.8162 33.042 83.0142 32.076 83.4102 31.332C83.8062 30.588 84.3402 30.042 85.0122 29.694C85.6962 29.346 86.4702 29.172 87.3342 29.172C87.8262 29.172 88.3002 29.226 88.7562 29.334C89.2122 29.43 89.5842 29.55 89.8722 29.694L89.3862 31.008C89.0982 30.9 88.7622 30.798 88.3782 30.702C87.9942 30.606 87.6342 30.558 87.2982 30.558C86.6502 30.558 86.1162 30.696 85.6962 30.972C85.2762 31.248 84.9642 31.656 84.7602 32.196C84.5562 32.736 84.4542 33.408 84.4542 34.212C84.4542 34.98 84.5562 35.634 84.7602 36.174C84.9642 36.714 85.2702 37.122 85.6782 37.398C86.0862 37.674 86.5962 37.812 87.2082 37.812C87.7362 37.812 88.1982 37.758 88.5942 37.65C89.0022 37.542 89.3742 37.41 89.7102 37.254V38.658C89.3862 38.826 89.0262 38.952 88.6302 39.036C88.2462 39.132 87.7782 39.18 87.2262 39.18ZM95.7306 29.172C96.5586 29.172 97.2666 29.352 97.8546 29.712C98.4546 30.072 98.9106 30.582 99.2226 31.242C99.5466 31.89 99.7086 32.652 99.7086 33.528V34.482H93.1026C93.1266 35.574 93.4026 36.408 93.9306 36.984C94.4706 37.548 95.2206 37.83 96.1806 37.83C96.7926 37.83 97.3326 37.776 97.8006 37.668C98.2806 37.548 98.7726 37.38 99.2766 37.164V38.55C98.7846 38.766 98.2986 38.922 97.8186 39.018C97.3386 39.126 96.7686 39.18 96.1086 39.18C95.1966 39.18 94.3866 38.994 93.6786 38.622C92.9826 38.25 92.4366 37.698 92.0406 36.966C91.6566 36.222 91.4646 35.316 91.4646 34.248C91.4646 33.192 91.6386 32.286 91.9866 31.53C92.3466 30.774 92.8446 30.192 93.4806 29.784C94.1286 29.376 94.8786 29.172 95.7306 29.172ZM95.7126 30.468C94.9566 30.468 94.3566 30.714 93.9126 31.206C93.4806 31.686 93.2226 32.358 93.1386 33.222H98.0526C98.0526 32.67 97.9686 32.19 97.8006 31.782C97.6326 31.374 97.3746 31.056 97.0266 30.828C96.6906 30.588 96.2526 30.468 95.7126 30.468Z" fill="white"/>
</svg>
