<svg width="52" height="65" viewBox="0 0 52 65" fill="none" xmlns="http://www.w3.org/2000/svg">
<g clip-path="url(#clip0_130_2949)">
<path d="M26.85 40.91V8.92999C26.85 5.65997 24.19 3 20.92 3C17.65 3 14.99 5.65997 14.99 8.92999V40.91C11.9 42.92 10 46.38 10 50.08C10 56.1 14.9 61 20.92 61C26.95 61 31.85 56.1 31.85 50.08C31.85 46.38 29.95 42.92 26.85 40.91ZM20.92 59C16 59 12 55 12 50.08C12 46.9 13.72 43.93 16.49 42.34L16.99 42.05V8.92999C16.99 6.76001 18.76 5 20.92 5C23.09 5 24.85 6.76001 24.85 8.92999V42.05L25.36 42.34C28.13 43.93 29.85 46.9 29.85 50.08C29.85 55 25.84 59 20.92 59Z" fill="#D52B2B"/>
<path d="M26.85 50.0801C26.85 53.35 24.19 56.0101 20.92 56.0101C17.65 56.0101 14.99 53.35 14.99 50.0801C14.99 47.1501 17.13 44.72 19.92 44.2401V29.8301H21.92V44.2401C24.72 44.72 26.85 47.1501 26.85 50.0801Z" fill="#D52B2B"/>
<path d="M33.3199 6.82788H29.1237V8.82788H33.3199V6.82788Z" fill="#D52B2B"/>
<path d="M35.3199 12.8279H29.1237V14.8279H35.3199V12.8279Z" fill="#D52B2B"/>
<path d="M33.3199 18.8279H29.1237V20.8279H33.3199V18.8279Z" fill="#D52B2B"/>
<path d="M35.3199 24.8279H29.1237V26.8279H35.3199V24.8279Z" fill="#D52B2B"/>
<path d="M33.3199 30.8279H29.1237V32.8279H33.3199V30.8279Z" fill="#D52B2B"/>
<path d="M35.3199 36.8279H29.1237V38.8279H35.3199V36.8279Z" fill="#D52B2B"/>
<path opacity="0.5" d="M38.9833 9.02983C38.8242 9.02983 38.6825 9.00249 38.5582 8.9478C38.4347 8.8924 38.337 8.81641 38.2653 8.71982C38.1942 8.62251 38.1577 8.5103 38.1555 8.38317H38.62C38.6229 8.43643 38.6403 8.48331 38.6722 8.52379C38.7049 8.56357 38.7482 8.59446 38.8022 8.61648C38.8562 8.63849 38.9169 8.6495 38.9844 8.6495C39.0547 8.6495 39.1168 8.63707 39.1708 8.61222C39.2248 8.58736 39.267 8.55291 39.2976 8.50888C39.3281 8.46484 39.3434 8.41406 39.3434 8.35653C39.3434 8.2983 39.3271 8.2468 39.2944 8.20206C39.2624 8.15661 39.2163 8.12109 39.1559 8.09553C39.0962 8.06996 39.0252 8.05717 38.9428 8.05717H38.7393V7.71839H38.9428C39.0124 7.71839 39.0739 7.70632 39.1271 7.68217C39.1811 7.65803 39.223 7.62464 39.2528 7.58203C39.2827 7.53871 39.2976 7.48828 39.2976 7.43075C39.2976 7.37607 39.2844 7.32812 39.2582 7.28693C39.2326 7.24503 39.1964 7.21236 39.1495 7.18892C39.1033 7.16548 39.0494 7.15376 38.9876 7.15376C38.9251 7.15376 38.8679 7.16513 38.8161 7.18786C38.7642 7.20987 38.7227 7.24148 38.6914 7.28267C38.6602 7.32386 38.6435 7.37216 38.6413 7.42756H38.1992C38.2013 7.30185 38.2372 7.19105 38.3068 7.09517C38.3764 6.99929 38.4702 6.92436 38.5881 6.87038C38.7067 6.8157 38.8406 6.78835 38.9897 6.78835C39.1403 6.78835 39.272 6.8157 39.3849 6.87038C39.4979 6.92507 39.5856 6.99893 39.6481 7.09197C39.7113 7.1843 39.7425 7.288 39.7418 7.40305C39.7425 7.52521 39.7045 7.62713 39.6278 7.70881C39.5518 7.79048 39.4528 7.84233 39.3306 7.86435V7.88139C39.4911 7.90199 39.6133 7.95774 39.6971 8.04865C39.7816 8.13885 39.8235 8.25178 39.8228 8.38743C39.8235 8.51172 39.7876 8.62216 39.7152 8.71875C39.6435 8.81534 39.5444 8.89134 39.418 8.94673C39.2915 9.00213 39.1467 9.02983 38.9833 9.02983Z" fill="black"/>
<path opacity="0.5" d="M38.1768 15V14.6676L38.9535 13.9485C39.0195 13.8846 39.0749 13.8271 39.1197 13.7759C39.1651 13.7248 39.1996 13.6747 39.223 13.6257C39.2464 13.576 39.2582 13.5224 39.2582 13.4648C39.2582 13.4009 39.2436 13.3459 39.2145 13.2997C39.1854 13.2528 39.1456 13.217 39.0952 13.1921C39.0447 13.1665 38.9876 13.1538 38.9237 13.1538C38.8569 13.1538 38.7987 13.1673 38.7489 13.1942C38.6992 13.2212 38.6609 13.2599 38.6339 13.3104C38.6069 13.3608 38.5934 13.4208 38.5934 13.4904H38.1555C38.1555 13.3477 38.1879 13.2237 38.2525 13.1186C38.3171 13.0135 38.4077 12.9322 38.5241 12.8746C38.6406 12.8171 38.7749 12.7884 38.9268 12.7884C39.0831 12.7884 39.2191 12.8161 39.3349 12.8714C39.4513 12.9261 39.5419 13.0021 39.6065 13.0994C39.6712 13.1967 39.7035 13.3082 39.7035 13.4339C39.7035 13.5163 39.6871 13.5977 39.6545 13.6779C39.6225 13.7582 39.5653 13.8473 39.483 13.9453C39.4006 14.0426 39.2844 14.1594 39.1346 14.2958L38.8161 14.608V14.6229H39.7322V15H38.1768ZM40.336 15.0277C40.2657 15.0277 40.2053 15.0028 40.1549 14.9531C40.1052 14.9027 40.0803 14.8423 40.0803 14.772C40.0803 14.7024 40.1052 14.6428 40.1549 14.593C40.2053 14.5433 40.2657 14.5185 40.336 14.5185C40.4042 14.5185 40.4639 14.5433 40.515 14.593C40.5661 14.6428 40.5917 14.7024 40.5917 14.772C40.5917 14.8189 40.5796 14.8619 40.5555 14.9009C40.532 14.9393 40.5012 14.9702 40.4628 14.9936C40.4244 15.0163 40.3822 15.0277 40.336 15.0277ZM41.7393 15.0298C41.5888 15.0298 41.4545 15.0021 41.3366 14.9467C41.2195 14.8913 41.1264 14.815 41.0575 14.7177C40.9886 14.6204 40.9528 14.5089 40.9499 14.3832H41.3974C41.4023 14.4677 41.4379 14.5362 41.5039 14.5888C41.57 14.6413 41.6484 14.6676 41.7393 14.6676C41.8118 14.6676 41.8757 14.6516 41.9311 14.6197C41.9872 14.587 42.0309 14.5419 42.0621 14.4844C42.0941 14.4261 42.1101 14.3594 42.1101 14.2841C42.1101 14.2074 42.0938 14.1399 42.0611 14.0817C42.0291 14.0234 41.9847 13.978 41.9279 13.9453C41.8711 13.9126 41.8061 13.896 41.733 13.8952C41.669 13.8952 41.6069 13.9084 41.5465 13.9347C41.4869 13.9609 41.4403 13.9968 41.407 14.0423L40.9968 13.9688L41.1001 12.8182H42.4339V13.1953H41.4805L41.424 13.7418H41.4368C41.4751 13.6879 41.533 13.6431 41.6104 13.6076C41.6879 13.5721 41.7745 13.5543 41.8704 13.5543C42.0018 13.5543 42.119 13.5852 42.2219 13.647C42.3249 13.7088 42.4062 13.7937 42.4659 13.9016C42.5256 14.0089 42.555 14.1325 42.5543 14.2724C42.555 14.4194 42.521 14.5501 42.4521 14.6644C42.3839 14.7781 42.2884 14.8675 42.1655 14.9329C42.0433 14.9975 41.9013 15.0298 41.7393 15.0298Z" fill="black"/>
<path opacity="0.5" d="M38.1768 21V20.6676L38.9535 19.9485C39.0195 19.8846 39.0749 19.8271 39.1197 19.7759C39.1651 19.7248 39.1996 19.6747 39.223 19.6257C39.2464 19.576 39.2582 19.5224 39.2582 19.4648C39.2582 19.4009 39.2436 19.3459 39.2145 19.2997C39.1854 19.2528 39.1456 19.217 39.0952 19.1921C39.0447 19.1665 38.9876 19.1538 38.9237 19.1538C38.8569 19.1538 38.7987 19.1673 38.7489 19.1942C38.6992 19.2212 38.6609 19.2599 38.6339 19.3104C38.6069 19.3608 38.5934 19.4208 38.5934 19.4904H38.1555C38.1555 19.3477 38.1879 19.2237 38.2525 19.1186C38.3171 19.0135 38.4077 18.9322 38.5241 18.8746C38.6406 18.8171 38.7749 18.7884 38.9268 18.7884C39.0831 18.7884 39.2191 18.8161 39.3349 18.8714C39.4513 18.9261 39.5419 19.0021 39.6065 19.0994C39.6712 19.1967 39.7035 19.3082 39.7035 19.4339C39.7035 19.5163 39.6871 19.5977 39.6545 19.6779C39.6225 19.7582 39.5653 19.8473 39.483 19.9453C39.4006 20.0426 39.2844 20.1594 39.1346 20.2958L38.8161 20.608V20.6229H39.7322V21H38.1768Z" fill="black"/>
<path opacity="0.5" d="M39.1261 24.8182V27H38.6648V25.256H38.652L38.1523 25.5692V25.1602L38.6925 24.8182H39.1261ZM39.797 27.0277C39.7267 27.0277 39.6663 27.0028 39.6159 26.9531C39.5661 26.9027 39.5413 26.8423 39.5413 26.772C39.5413 26.7024 39.5661 26.6428 39.6159 26.593C39.6663 26.5433 39.7267 26.5185 39.797 26.5185C39.8651 26.5185 39.9248 26.5433 39.9759 26.593C40.0271 26.6428 40.0526 26.7024 40.0526 26.772C40.0526 26.8189 40.0406 26.8619 40.0164 26.9009C39.993 26.9393 39.9621 26.9702 39.9237 26.9936C39.8854 27.0163 39.8431 27.0277 39.797 27.0277ZM41.2003 27.0298C41.0497 27.0298 40.9155 27.0021 40.7976 26.9467C40.6804 26.8913 40.5874 26.815 40.5185 26.7177C40.4496 26.6204 40.4137 26.5089 40.4109 26.3832H40.8583C40.8633 26.4677 40.8988 26.5362 40.9648 26.5888C41.0309 26.6413 41.1094 26.6676 41.2003 26.6676C41.2727 26.6676 41.3366 26.6516 41.392 26.6197C41.4482 26.587 41.4918 26.5419 41.5231 26.4844C41.555 26.4261 41.571 26.3594 41.571 26.2841C41.571 26.2074 41.5547 26.1399 41.522 26.0817C41.4901 26.0234 41.4457 25.978 41.3888 25.9453C41.332 25.9126 41.267 25.896 41.1939 25.8952C41.13 25.8952 41.0678 25.9084 41.0075 25.9347C40.9478 25.9609 40.9013 25.9968 40.8679 26.0423L40.4577 25.9688L40.5611 24.8182H41.8949V25.1953H40.9414L40.8849 25.7418H40.8977C40.9361 25.6879 40.994 25.6431 41.0714 25.6076C41.1488 25.5721 41.2354 25.5543 41.3313 25.5543C41.4627 25.5543 41.5799 25.5852 41.6829 25.647C41.7859 25.7088 41.8672 25.7937 41.9268 25.9016C41.9865 26.0089 42.016 26.1325 42.0153 26.2724C42.016 26.4194 41.9819 26.5501 41.913 26.6644C41.8448 26.7781 41.7493 26.8675 41.6264 26.9329C41.5043 26.9975 41.3622 27.0298 41.2003 27.0298Z" fill="black"/>
<path opacity="0.5" d="M39.1261 30.8182V33H38.6648V31.256H38.652L38.1523 31.5692V31.1602L38.6925 30.8182H39.1261Z" fill="black"/>
<path opacity="0.5" d="M39.0323 39.0479C38.8491 39.0472 38.6914 39.0021 38.5593 38.9126C38.4279 38.8232 38.3267 38.6935 38.2557 38.5238C38.1854 38.354 38.1506 38.1499 38.1513 37.9112C38.1513 37.6733 38.1864 37.4705 38.2567 37.3029C38.3278 37.1353 38.429 37.0078 38.5604 36.9205C38.6925 36.8324 38.8498 36.7884 39.0323 36.7884C39.2148 36.7884 39.3718 36.8324 39.5032 36.9205C39.6353 37.0085 39.7369 37.1364 39.8079 37.304C39.8789 37.4709 39.9141 37.6733 39.9134 37.9112C39.9134 38.1506 39.8778 38.3551 39.8068 38.5249C39.7365 38.6946 39.6357 38.8242 39.5043 38.9137C39.3729 39.0032 39.2156 39.0479 39.0323 39.0479ZM39.0323 38.6655C39.1573 38.6655 39.2571 38.6026 39.3317 38.4769C39.4063 38.3512 39.4432 38.1626 39.4425 37.9112C39.4425 37.7457 39.4254 37.608 39.3913 37.4979C39.358 37.3878 39.3104 37.305 39.2486 37.2496C39.1875 37.1942 39.1154 37.1665 39.0323 37.1665C38.908 37.1665 38.8086 37.2287 38.734 37.353C38.6594 37.4773 38.6218 37.6634 38.6211 37.9112C38.6211 38.0788 38.6378 38.2188 38.6712 38.331C38.7053 38.4425 38.7532 38.5263 38.815 38.5824C38.8768 38.6378 38.9492 38.6655 39.0323 38.6655ZM40.4239 39.0277C40.3536 39.0277 40.2932 39.0028 40.2428 38.9531C40.1931 38.9027 40.1682 38.8423 40.1682 38.772C40.1682 38.7024 40.1931 38.6428 40.2428 38.593C40.2932 38.5433 40.3536 38.5185 40.4239 38.5185C40.4921 38.5185 40.5518 38.5433 40.6029 38.593C40.654 38.6428 40.6796 38.7024 40.6796 38.772C40.6796 38.8189 40.6675 38.8619 40.6434 38.9009C40.6199 38.9393 40.589 38.9702 40.5507 38.9936C40.5123 39.0163 40.4701 39.0277 40.4239 39.0277ZM41.8272 39.0298C41.6767 39.0298 41.5424 39.0021 41.4245 38.9467C41.3074 38.8913 41.2143 38.815 41.1454 38.7177C41.0765 38.6204 41.0407 38.5089 41.0378 38.3832H41.4853C41.4902 38.4677 41.5257 38.5362 41.5918 38.5888C41.6578 38.6413 41.7363 38.6676 41.8272 38.6676C41.8997 38.6676 41.9636 38.6516 42.019 38.6197C42.0751 38.587 42.1188 38.5419 42.15 38.4844C42.182 38.4261 42.198 38.3594 42.198 38.2841C42.198 38.2074 42.1816 38.1399 42.149 38.0817C42.117 38.0234 42.0726 37.978 42.0158 37.9453C41.959 37.9126 41.894 37.896 41.8208 37.8952C41.7569 37.8952 41.6948 37.9084 41.6344 37.9347C41.5748 37.9609 41.5282 37.9968 41.4949 38.0423L41.0847 37.9688L41.188 36.8182H42.5218V37.1953H41.5684L41.5119 37.7418H41.5247C41.563 37.6879 41.6209 37.6431 41.6983 37.6076C41.7757 37.5721 41.8624 37.5543 41.9583 37.5543C42.0897 37.5543 42.2069 37.5852 42.3098 37.647C42.4128 37.7088 42.4941 37.7937 42.5538 37.9016C42.6135 38.0089 42.6429 38.1325 42.6422 38.2724C42.6429 38.4194 42.6088 38.5501 42.54 38.6644C42.4718 38.7781 42.3762 38.8675 42.2534 38.9329C42.1312 38.9975 41.9892 39.0298 41.8272 39.0298Z" fill="black"/>
</g>
<defs>
<clipPath id="clip0_130_2949">
<rect width="52" height="65" fill="white"/>
</clipPath>
</defs>
</svg>
