<svg width="58" height="43" viewBox="0 0 58 43" fill="none" xmlns="http://www.w3.org/2000/svg">
<path d="M43.6125 31.4844H48.2033V36.3305H43.6125V31.4844Z" fill="white"/>
<path d="M49.3516 31.4844H53.9423V36.3305H49.3516V31.4844Z" fill="white"/>
<path d="M43.6125 37.5426H48.2033V42.3887H43.6125V37.5426Z" fill="white"/>
<path d="M48.2042 16.9454H47.0562C47.0571 13.2777 45.3106 9.85496 42.4088 7.83729C39.5069 5.81962 35.839 5.47679 32.6466 6.92608C30.5152 3.05911 26.7551 0.508044 22.5381 0.0678517C18.3206 -0.372795 14.1597 1.35126 11.3521 4.70201C8.54445 8.05323 7.43194 12.6231 8.36097 16.9881C6.07791 17.2046 3.95373 18.3146 2.40652 20.1006C0.859314 21.886 0.00049188 24.2181 0 26.6383C0 29.2092 0.967429 31.6741 2.68898 33.492C4.41106 35.3098 6.7465 36.3311 9.18143 36.3311H42.4657V30.273H55.091V33.0355C56.571 31.2709 57.3871 28.9951 57.3861 26.6383C57.3861 24.0674 56.4187 21.6025 54.6972 19.7846C52.9751 17.9667 50.6396 16.9455 48.2047 16.9455L48.2042 16.9454Z" fill="white"/>
<path d="M49.3516 37.5426H53.9423V42.3887H49.3516V37.5426Z" fill="white"/>
</svg>
