<svg width="52" height="53" viewBox="0 0 52 53" fill="none" xmlns="http://www.w3.org/2000/svg">
<path d="M51.1976 26.5004C51.1976 12.5863 39.914 1.30273 25.9999 1.30273C12.0858 1.30273 0.802246 12.5863 0.802246 26.5004C0.802246 40.4145 12.0858 51.698 25.9999 51.698C39.914 51.698 51.1976 40.4145 51.1976 26.5004Z" fill="#337180"/>
<path d="M26 51.698C33.1297 51.698 39.5688 48.7324 44.1493 43.9793C43.8649 42.4457 43.5805 41.0441 43.3063 40.1809C42.443 37.4082 35.0594 35.1738 25.9594 35.1738C16.8594 35.1738 9.55708 37.4082 8.6938 40.1809C8.42974 41.0441 8.13521 42.4355 7.85083 43.9793C12.4313 48.7324 18.8704 51.698 26 51.698Z" fill="#1D1D1E"/>
<path d="M26.0102 49.4834C27.8079 49.4834 29.8493 35.3662 29.8493 35.3662L25.9798 38.0779L22.1712 35.3662C22.161 35.3662 24.2126 49.4834 26.0102 49.4834Z" fill="#D4D6D8"/>
<path d="M22.1507 35.3668L25.9695 38.2207L29.8492 35.3668L30.0421 34.0363L25.9796 33.498L21.9578 34.0363L22.1507 35.3668Z" fill="#D4D6D8"/>
<path d="M29.9509 29.9531H22.0493C23.2782 33.6703 22.1509 35.3664 22.1509 35.3664L24.8829 35.9859H27.1173L29.8493 35.3664C29.8493 35.3664 28.722 33.6703 29.9509 29.9531Z" fill="#E2A379"/>
<path d="M29.4532 37.7432L30.0422 34.0361L31.8602 35.6104L29.4532 37.7432ZM22.5469 37.7432L21.9579 34.0361L20.1399 35.6104L22.5469 37.7432Z" fill="#F3FAFF"/>
<path d="M31.8602 35.6104L30.0422 34.0361L26 35.9861C26 35.9861 29.4532 37.7432 29.4735 37.7229L31.8602 35.6104ZM20.1399 35.6104L21.9579 34.0361L26 35.9861C26 35.9861 22.5469 37.7432 22.5266 37.7229L20.1399 35.6104Z" fill="#F3FAFF"/>
<path d="M26 35.9863L24.3953 36.7887L26 39.3887L27.5945 36.7887L26 35.9863Z" fill="#86B4D1"/>
<path d="M26.0103 49.4834C26.5282 49.4834 27.0665 48.3154 27.5642 46.6498L26.4063 38.0576H25.5837L24.436 46.6193C24.9438 48.3053 25.4923 49.4834 26.0103 49.4834Z" fill="#86B4D1"/>
<path d="M20.7695 35.0615L19.5 35.7115L20.3125 41.3279L21.968 40.9521L20.7492 42.4451L26 51.017V49.4834C26 49.4834 22.5469 37.7326 22.5266 37.7225L20.7695 35.0615ZM31.2305 35.0615L32.5 35.7115L31.6875 41.3279L30.032 40.9521L31.2508 42.4451L26 51.017V49.4834C26 49.4834 29.4531 37.7326 29.4734 37.7225L31.2305 35.0615Z" fill="#4A4A54"/>
<path d="M34.9679 19.0961C34.9679 9.71172 30.9562 7.55859 26 7.55859C21.0539 7.55859 17.032 9.71172 17.032 19.0961C17.032 22.275 17.6617 24.7633 18.6062 26.6828C20.6781 30.9078 24.2632 32.3805 26 32.3805C27.7367 32.3805 31.3218 30.9078 33.3937 26.6828C34.3382 24.7633 34.9679 22.275 34.9679 19.0961Z" fill="#F4B382"/>
<path d="M28.6406 28.2466C28.6406 28.4802 27.4625 29.12 26 29.12C24.5375 29.12 23.3594 28.4802 23.3594 28.2466C23.3594 28.1044 24.2023 27.688 24.7609 27.6169C25.1164 27.5661 26 27.8809 26 27.8809C26 27.8809 26.8734 27.5661 27.2289 27.6169C27.7977 27.688 28.6406 28.2466 28.6406 28.2466Z" fill="#D89364"/>
<path d="M28.6406 28.2471C28.6406 28.4807 27.4625 29.3846 26 29.3846C24.5375 29.3846 23.3594 28.4807 23.3594 28.2471C23.3594 28.2471 24.4359 28.3588 26 28.3588C27.5641 28.3588 28.6406 28.2471 28.6406 28.2471Z" fill="#CE8757"/>
<path d="M18.1087 25.5453C17.2556 25.6875 16.6462 25.5555 16.1688 22.732C15.6915 19.9086 16.3415 19.5328 17.1946 19.3906L18.1087 25.5453Z" fill="#F4B382"/>
<path d="M34.9679 19.4109C36.1257 17.0953 35.821 15.0336 35.2421 13.6727C34.2976 11.4383 33.0991 10.768 33.0991 10.768C32.3273 8.24922 28.8843 7.40625 25.9999 7.40625C21.0538 7.40625 16.3515 10.0164 17.0319 19.4109L19.0937 19.0656C19.0937 17.5625 30.4077 14.6172 31.4843 13.2969C31.4843 15.9375 31.8905 17.1562 32.9163 19.0656L34.9679 19.4109Z" fill="#141414"/>
<path d="M17.611 15.6025C17.1844 16.7096 17.0422 18.0807 17.0422 19.4111C17.0422 19.4111 17.936 19.2182 17.936 19.6752L18.2204 22.4783L18.6165 22.2854C18.5961 19.9494 19.1141 19.0557 19.1141 19.0557L17.611 15.6025Z" fill="#141414"/>
<path d="M33.9016 25.5453C34.7547 25.6875 35.354 25.5555 35.8415 22.732C36.329 19.9086 35.6688 19.5328 34.8157 19.3906L33.9016 25.5453Z" fill="#F4B382"/>
<path d="M34.3991 15.6025C34.8257 16.7096 34.9679 18.0807 34.9679 19.4111C34.9679 19.4111 34.0741 19.2182 34.0741 19.6752L33.7897 22.4783L33.3937 22.2854C33.414 19.9494 32.896 19.0557 32.896 19.0557L34.3991 15.6025Z" fill="#141414"/>
</svg>
