<?xml version="1.0" encoding="UTF-8"?>
<svg width="39px" height="45px" viewBox="0 0 39 45" version="1.1" xmlns="http://www.w3.org/2000/svg" xmlns:xlink="http://www.w3.org/1999/xlink">
    <!-- Generator: Sketch 55.2 (78181) - https://sketchapp.com -->
    <title>money_bag</title>
    <desc>Created with Sketch.</desc>
    <g id="Page-1" stroke="none" stroke-width="1" fill="none" fill-rule="evenodd">
        <g id="Dashboard-UI-Design-Tabs" transform="translate(-660.000000, -297.000000)">
            <g id="money_bag" transform="translate(660.616183, 297.886590)">
                <path d="M0.112298151,33.3220553 C1.4310803,40.827122 7.9323328,43.4512056 18.8838165,43.4512056 C29.8353002,43.4512056 37.0361088,40.618558 37.802082,33.3220553 C38.3990045,28.0041566 33.9762,20.1469531 24.5336685,9.7504448 C27.631073,7.67824122 29.2533193,6.02575865 29.4004074,4.79299709 C29.4862144,4.07383947 27.8639681,3.77440287 24.5336685,3.89468727 C25.0696264,2.80169212 25.5438174,1.84407502 25.9562415,1.02183597 C19.8983567,-0.724296518 13.7234379,0.104767081 11.6635187,1.02183597 C11.9565698,1.49362049 12.5381058,2.45123759 13.4081267,3.89468727 C10.1759188,3.97038761 8.55981481,4.26982422 8.55981481,4.79299709 C8.55981481,5.98283662 10.0271951,7.63531919 12.9619556,9.7504448 C3.51632918,20.461474 -0.76688995,28.3186775 0.112298151,33.3220553 Z" id="Path-7" fill="#369DC2"></path>
                <path d="M12.3838165,9.37200886 C15.2886339,8.82565376 17.4553006,8.55247622 18.8838165,8.55247622 C19.5414163,8.55247622 20.3406735,8.61036549 21.2815882,8.72614403 C21.4243791,8.74371428 22.5863634,6.5554481 22.7715617,6.58242952 C22.9092841,6.60249422 22.0939094,8.8416526 22.3214172,8.87882063 C22.7340197,8.94622766 23.6851458,9.11062373 25.1747955,9.37200886 L25.3838165,10.5946443 C24.2821635,10.3510004 23.5267683,10.1872273 23.117631,10.1033248 C22.8643329,10.0513806 23.9649118,12.8712971 23.7598873,12.8322721 C23.5389227,12.790213 22.0162538,9.89025575 21.8513609,9.86320279 C20.6744105,9.67010777 19.685229,9.57356027 18.8838165,9.57356027 C18.000909,9.57356027 16.8901026,9.69074183 15.5513975,9.92510497 C15.3305167,9.96377391 13.0910704,14.4217142 12.8577811,14.4667634 C12.6535201,14.506207 14.4780267,10.17635 14.2430904,10.17635 C13.838451,10.17635 13.218693,10.2609342 12.3838165,10.4301026 L12.3838165,9.37200886 Z" id="Rectangle" fill="#FFFFFF"></path>
                <polygon id="Rectangle" fill="#FFFFFF" points="12.9395125 3.90382986 13.3736726 3.82421664 14.648769 5.96126457"></polygon>
                <polygon id="Rectangle-Copy-6" fill="#FFFFFF" transform="translate(24.511767, 4.380895) scale(-1, 1) translate(-24.511767, -4.380895) " points="23.8668711 3.82421664 24.3888675 3.689218 25.1566631 5.07257272"></polygon>
                <text id="$" font-family="OpenSans-Bold, Open Sans" font-size="16" font-weight="bold" letter-spacing="-0.650875856" fill="#FFFFFF">
                    <tspan x="14.3838165" y="34.1134102">$</tspan>
                </text>
            </g>
        </g>
    </g>
</svg>