<svg width="40" height="41" viewBox="0 0 40 41" fill="none" xmlns="http://www.w3.org/2000/svg">
<path d="M31.95 11.4314C31.2333 7.81478 28.55 6.23145 24.8166 6.23145H10.1833C5.78331 6.23145 2.84998 8.43145 2.84998 13.5648V22.1481C2.84998 25.8481 4.36664 28.0148 6.86664 28.9481C7.23331 29.0814 7.63331 29.1981 8.04998 29.2648C8.71664 29.4148 9.43331 29.4814 10.1833 29.4814H24.8333C29.2333 29.4814 32.1666 27.2814 32.1666 22.1481V13.5648C32.1666 12.7814 32.1 12.0814 31.95 11.4314ZM9.21664 20.3648C9.21664 21.0481 8.64998 21.6148 7.96664 21.6148C7.28331 21.6148 6.71664 21.0481 6.71664 20.3648V15.3648C6.71664 14.6814 7.28331 14.1148 7.96664 14.1148C8.64998 14.1148 9.21664 14.6814 9.21664 15.3648V20.3648ZM17.5 22.2648C15.0666 22.2648 13.1 20.2981 13.1 17.8648C13.1 15.4314 15.0666 13.4648 17.5 13.4648C19.9333 13.4648 21.9 15.4314 21.9 17.8648C21.9 20.2981 19.9333 22.2648 17.5 22.2648ZM28.2666 20.3648C28.2666 21.0481 27.7 21.6148 27.0166 21.6148C26.3333 21.6148 25.7666 21.0481 25.7666 20.3648V15.3648C25.7666 14.6814 26.3333 14.1148 27.0166 14.1148C27.7 14.1148 28.2666 14.6814 28.2666 15.3648V20.3648Z" fill="#FB8036"/>
<path d="M37.1666 18.5649V27.1482C37.1666 32.2816 34.2333 34.4982 29.8166 34.4982H15.1833C13.9333 34.4982 12.8166 34.3149 11.85 33.9482C11.0666 33.6649 10.3833 33.2482 9.83331 32.7149C9.53331 32.4316 9.76665 31.9816 10.1833 31.9816H24.8166C30.9833 31.9816 34.65 28.3149 34.65 22.1649V13.5649C34.65 13.1649 35.1 12.9149 35.3833 13.2149C36.5166 14.4149 37.1666 16.1649 37.1666 18.5649Z" fill="#FB8036"/>
</svg>
