<svg width="62" height="62" viewBox="0 0 62 62" fill="none" xmlns="http://www.w3.org/2000/svg">
<path fill-rule="evenodd" clip-rule="evenodd" d="M20.8811 6.39101C16.2002 6.31751 12.5809 8.16687 10.109 11.1338C6.50236 15.4627 5.34528 22.489 7.73187 30.1048L24.7574 12.0995C25.2806 11.5557 26.2708 11.5768 26.7704 12.1424L33.2165 19.2673H39.9411C36.7283 15.7413 33.4557 12.1788 30.2183 8.64434C26.7559 7.12597 23.6257 6.43412 20.8811 6.39101Z" fill="white"/>
<path fill-rule="evenodd" clip-rule="evenodd" d="M41.3763 6.41317C38.9814 6.40697 36.2947 6.90705 33.3454 8.0227L41.8046 17.2292C42.2201 17.6798 42.5381 18.1012 42.7897 18.5598C43.0419 19.0192 43.2744 19.5853 43.1324 20.2766C42.9903 20.968 42.3891 21.5151 41.8689 21.7359C41.3486 21.9567 40.8401 22.0003 40.2627 22.0149C37.7158 22.0149 35.1655 22.0149 32.6175 22.0149C32.2322 22.018 31.8484 21.8503 31.5895 21.5643L25.743 15.0832L8.84604 32.9168C8.46761 33.315 8.34616 33.752 8.73911 34.14L10.5166 35.8997C11.0412 36.3803 11.335 36.1196 11.7157 35.7495L23.4087 23.839C23.6603 23.5841 24.0147 23.4341 24.3724 23.4312C24.9111 23.4269 25.4361 23.7734 25.6456 24.2707C25.855 24.768 25.7362 25.3865 25.3575 25.7704C21.1616 30.1835 16.6828 34.4543 12.5297 38.8613C12.1126 39.3548 12.2072 39.6828 12.5297 39.9987L14.3072 41.7799C14.6007 42.074 15.0736 42.05 15.3352 41.7799L27.8634 28.7319C28.1077 28.4615 28.4633 28.2952 28.8271 28.2813C29.3693 28.2686 29.9031 28.6115 30.1178 29.1106C30.3326 29.6097 30.2151 30.234 29.8337 30.6205C25.5984 35.0066 21.3912 39.4752 17.1553 43.84C16.9083 44.102 17.191 44.4263 17.4123 44.6341C18.1615 45.3332 18.9035 46.0928 19.6394 46.8231C20.0065 47.1791 20.4349 47.1767 20.6885 46.9304C21.8212 45.4882 23.049 44.2805 24.3292 42.9817C24.8837 42.4259 25.5932 42.1288 26.3209 42.0374C26.4201 41.3063 26.7421 40.6017 27.2846 40.0416C27.866 39.4275 28.5026 38.7935 29.0406 38.282C29.5985 37.7394 30.2902 37.4266 31.0109 37.3377C31.1108 36.6057 31.4169 35.9008 31.9746 35.3419C32.5533 34.769 33.1557 34.1832 33.7093 33.6036C34.2631 33.0651 34.9771 32.7515 35.7009 32.6594C35.7986 31.9284 36.1015 31.2394 36.6646 30.685C37.2427 30.1054 37.821 29.5261 38.3991 28.9468C39.069 28.2755 39.9517 27.9324 40.8405 27.9381C41.7293 27.9437 42.6162 28.3024 43.282 28.9897L51.1201 37.1018C56.5182 28.055 56.6269 18.8455 53.1974 13.0016C51.3898 9.92144 48.6504 7.75525 45.038 6.86394C43.758 6.60658 42.4682 6.42148 41.3763 6.41317Z" fill="white"/>
<path fill-rule="evenodd" clip-rule="evenodd" d="M40.8189 30.6852C40.6393 30.6847 40.4578 30.768 40.3263 30.8998C39.7487 31.4785 39.1678 32.0606 38.5918 32.638C38.1486 33.0821 38.4037 33.4624 38.7631 33.8613C41.7059 36.8855 44.6612 39.999 47.2007 42.5742C47.4816 42.8626 47.8813 42.849 48.1859 42.5525L49.8778 40.8571C50.2198 40.4605 50.1327 40.0664 49.899 39.8056L41.3115 30.8998C41.1648 30.7511 40.9677 30.6874 40.8189 30.6852Z" fill="white"/>
<path fill-rule="evenodd" clip-rule="evenodd" d="M36.1286 35.3618C35.9518 35.362 35.7886 35.4279 35.636 35.5763L33.9228 37.2932C33.487 37.7625 33.7211 38.1313 34.0729 38.5165C36.9175 41.3791 39.669 44.3821 42.5103 47.2294C42.7911 47.5177 43.1908 47.5256 43.4954 47.2294L45.2086 45.5125C45.4814 45.2393 45.5073 44.7686 45.2299 44.4824L36.6212 35.5764C36.4707 35.4134 36.2712 35.3726 36.1286 35.3618Z" fill="white"/>
<path fill-rule="evenodd" clip-rule="evenodd" d="M31.4604 40.0409C31.279 40.0409 31.094 40.1119 30.9465 40.2554L29.2546 41.9508C28.7934 42.4375 28.9614 42.7779 29.4049 43.2385C32.0245 45.9479 34.6762 48.6423 37.2855 51.3505C37.5757 51.6501 37.9676 51.6541 38.2706 51.3505L39.9838 49.6336C40.2566 49.3604 40.2825 48.8683 40.0051 48.5821C37.3547 45.8459 34.6917 43.0867 32.0384 40.3413C31.8565 40.1466 31.6516 40.0484 31.4604 40.0409Z" fill="white"/>
<path fill-rule="evenodd" clip-rule="evenodd" d="M26.7701 44.6981C26.5978 44.6981 26.429 44.7823 26.2775 44.9342C25.6768 45.5256 25.0553 46.1369 24.4784 46.7369C24.2769 47.0165 24.2924 47.4438 24.5428 47.7026L31.9955 55.3854C32.2858 55.685 32.6663 55.6872 32.9378 55.4071C33.521 54.829 34.1088 54.2478 34.6938 53.6688C34.9657 53.3955 34.9921 52.9246 34.715 52.6387C32.2913 50.1358 29.859 47.6161 27.4335 45.1061C27.2244 44.8889 26.9794 44.7026 26.7701 44.6981Z" fill="white"/>
<path fill-rule="evenodd" clip-rule="evenodd" d="M22.2952 49.29C22.2191 49.53 22.2692 49.8057 22.4451 49.9768C23.0488 50.6204 23.7154 51.2568 24.3511 51.8867C24.5057 52.037 24.723 52.0675 24.9293 52.0369C24.0358 51.0726 23.0608 50.151 22.2952 49.29Z" fill="white"/>
</svg>
