<svg width="45" height="44" viewBox="0 0 45 44" fill="none" xmlns="http://www.w3.org/2000/svg">
<rect x="0.0341797" width="44" height="44" rx="8" fill="#003F35"/>
<path d="M26.0342 22.9V27.1C26.0342 30.6 24.6342 32 21.1342 32H16.9342C13.4342 32 12.0342 30.6 12.0342 27.1V22.9C12.0342 19.4 13.4342 18 16.9342 18H21.1342C24.6342 18 26.0342 19.4 26.0342 22.9Z" fill="white"/>
<path d="M27.1342 12H22.9342C19.8511 12 18.4052 13.0941 18.1039 15.739C18.0409 16.2923 18.4992 16.75 19.0561 16.75H21.1342C25.3342 16.75 27.2842 18.7 27.2842 22.9V24.9781C27.2842 25.535 27.7418 25.9933 28.2952 25.9303C30.9401 25.629 32.0342 24.1831 32.0342 21.1V16.9C32.0342 13.4 30.6342 12 27.1342 12Z" fill="white"/>
</svg>
