<?xml version="1.0" encoding="UTF-8"?>
<svg width="20px" height="20px" viewBox="0 0 20 20" version="1.1" xmlns="http://www.w3.org/2000/svg" xmlns:xlink="http://www.w3.org/1999/xlink">
    <!-- Generator: Sketch 55.2 (78181) - https://sketchapp.com -->
    <title>Notification</title>
    <desc>Created with Sketch.</desc>
    <g id="Page-1" stroke="none" stroke-width="1" fill="none" fill-rule="evenodd">
        <g id="Indicator-Perspective-Copy" transform="translate(-1363.000000, -15.000000)">
            <g id="Notification" transform="translate(1358.000000, 10.000000)">
                <path d="M22.9594826,14.0792753 L20.3042257,18.5718125 L20.0375668,22.9130207 L7.38859785,15.7805596 L11.1044908,13.3846286 L13.7604143,8.89142473 C15.2270387,6.41082953 18.4756118,5.56018737 21.0148719,6.99347941 C23.5554654,8.42543815 24.426107,11.5980134 22.9594826,14.0792753 L22.9594826,14.0792753 Z M12.0531301,22.1550426 C11.1004909,21.6177247 10.7738336,20.4284257 11.3238178,19.4977858 L14.7737184,21.4430631 C14.2237343,22.373703 13.0057693,22.6916938 12.0531301,22.1550426 L12.0531301,22.1550426 Z M21.6795194,5.86951179 C18.5042776,4.07956336 14.4437279,5.14153277 12.6104474,8.2434434 L9.95519057,12.7359806 L5,15.9318885 L10.1745176,18.8498045 C9.25787733,20.4004265 9.80119501,22.383036 11.3891493,23.2776769 C12.9771035,24.1736511 15.007045,23.6423331 15.9236853,22.0917111 L21.0975362,25.009627 L21.4541926,19.2197938 L24.1094494,14.7272566 C25.94273,11.6260126 24.8547613,7.66079352 21.6795194,5.86951179 L21.6795194,5.86951179 Z" id="Fill-66" fill="#FFFFFF"></path>
                <rect id="Rectangle" opacity="0.300000012" x="0" y="0" width="30" height="30"></rect>
            </g>
        </g>
    </g>
</svg>