<svg width="62" height="62" viewBox="0 0 62 62" fill="none" xmlns="http://www.w3.org/2000/svg">
<g clip-path="url(#clip0_2949_6611)">
<path d="M9.59391 18.6558C8.21754 17.4478 7.33964 15.651 7.33964 13.6402C7.33964 10.0007 10.2189 7.04945 13.7602 7.04945C17.3016 7.04945 20.1808 10.0084 20.1808 13.6402C20.1808 13.8848 20.1659 14.1218 20.1436 14.3589C21.1554 14.2212 22.1821 14.1448 23.2311 14.1448C24.0049 14.1448 24.7712 14.183 25.5226 14.2595C25.9169 13.2043 26.5344 12.2257 27.3528 11.3999C24.2801 9.97016 22.4276 6.68245 22.7624 3.22654C22.0556 3.42533 21.3489 3.52473 20.6421 3.52473C18.0828 3.52473 15.6276 2.24023 14.1322 0C12.6368 2.24787 10.1817 3.52473 7.62235 3.52473C6.91557 3.52473 6.20134 3.42533 5.502 3.22654C5.82935 6.68245 3.98427 9.97016 0.911621 11.3999C3.32213 13.8237 3.96939 17.5625 2.50375 20.6972C3.79084 20.7966 4.99609 21.2172 6.03767 21.8824C7.11644 20.6896 8.30682 19.6039 9.60135 18.6558H9.59391Z" fill="#2E5F44"/>
<path d="M19.1472 13.7903C19.1472 10.7085 16.692 8.20703 13.6766 8.20703C10.6613 8.20703 8.20605 10.7163 8.20605 13.7903C8.20605 15.6095 9.06539 17.217 10.3774 18.2364C12.9708 16.527 15.9094 15.3115 19.0552 14.7156C19.1089 14.4097 19.1396 14.1039 19.1396 13.7824L19.1472 13.7903Z" fill="#2E5F44"/>
<path d="M24.7998 18.5977C22.6918 18.5977 20.6644 18.9511 18.7734 19.6021C19.0028 19.7757 19.2508 19.9431 19.5112 20.1167C21.0984 21.1831 23.0824 22.5161 21.6068 25.4115C20.2428 28.1085 21.3774 30.8613 23.1444 32.0827C24.7192 33.1739 27.2922 33.3723 29.7722 30.6629C31.3594 28.9331 32.9466 27.8977 34.4036 27.3025C34.1494 26.4717 34.044 25.5913 34.106 24.6675C34.1804 23.5887 34.4284 22.5285 34.788 21.5117C31.8988 19.6703 28.4764 18.5977 24.7998 18.5977Z" fill="#2E5F44"/>
<path d="M17.0194 34.8256C16.9884 34.807 16.2754 34.4102 15.395 34.4102C15.0664 34.4102 14.713 34.466 14.3596 34.6148C13.225 35.0984 12.4004 36.4252 11.8982 38.5394C11.2534 41.2736 11.7928 41.6828 12.76 42.4144C13.473 42.9538 14.3658 43.6296 15.0912 45.2416C15.4694 46.0724 15.9654 46.5374 16.5296 46.587C17.0628 46.6366 17.6456 46.3018 18.0672 45.688C18.588 44.9316 18.9104 43.642 18.2532 42.278C17.4286 40.5792 18.2842 39.4446 18.9104 38.6138C19.363 38.0124 19.6358 37.6218 19.549 37.1816C19.4312 36.5616 18.5756 35.7618 17.0132 34.8194L17.0194 34.8256Z" fill="#2E5F44"/>
<path d="M43.2503 49.5325C45.0469 46.2666 46.0758 42.5277 46.0758 38.5446C46.0758 36.202 45.7226 33.9358 45.0623 31.8069C44.3866 31.9671 43.6726 32.0587 42.9355 32.0587C39.5572 32.0587 36.6702 30.2579 35.3342 27.4117C33.6911 28.0985 31.8791 29.2812 30.0441 31.2727C27.9941 33.5008 25.8672 34.3326 23.9861 34.3326C22.5887 34.3326 21.3295 33.8747 20.3314 33.188C17.7439 31.4101 16.0701 27.4117 18.0587 23.5202C19.4254 20.8571 17.7669 19.7507 15.8474 18.4764C15.4098 18.1865 14.9645 17.8889 14.5652 17.5684C14.4807 17.4997 14.4347 17.4158 14.3963 17.3242C5.95814 20.7198 0 28.9378 0 38.5446C0 51.1883 10.3116 61.436 23.0341 61.436C23.9938 61.436 24.9305 61.3674 25.8596 61.2605C25.8596 61.2071 25.8442 61.1461 25.8596 61.0927C26.159 59.3834 25.6292 57.3995 24.2856 55.1943C21.4908 50.6313 20.8612 46.0225 22.6425 43.161C23.5485 41.7112 25.4987 40.0478 29.6679 40.3988C35.2191 40.8643 37.4841 43.8173 39.3038 46.1827C40.325 47.5104 41.2079 48.6626 42.4594 49.1204C42.7051 49.212 42.9355 49.357 43.1505 49.5249H40.8394C39.9027 48.8457 39.1579 47.8843 38.3824 46.8695C36.6165 44.565 34.6048 41.9554 29.5604 41.5281C26.7118 41.2916 24.6618 42.0622 23.6099 43.7486C22.082 46.198 22.7269 50.4558 25.2607 54.5839C26.7042 56.9493 27.2877 59.1316 27.0113 61.0774C32.0557 60.2075 36.532 57.7047 39.8796 54.1413H57.47C59.3357 54.1413 60.8483 55.6445 60.8483 57.4987C60.8483 59.3529 59.3357 60.8561 57.47 60.8561C55.6042 60.8561 54.0916 59.3529 54.0916 57.4987C54.0916 57.1859 53.8306 56.9264 53.5158 56.9264C53.201 56.9264 52.9399 57.1859 52.9399 57.4987C52.9399 59.9786 54.9746 62.0007 57.47 62.0007C59.9653 62.0007 62 59.9786 62 57.4987C62 55.0188 59.9653 52.9967 57.47 52.9967H40.8855C41.492 52.2566 42.0525 51.4783 42.5593 50.6694H53.4544C56.802 50.6694 59.5277 47.9606 59.5277 44.6337C59.5277 41.3068 56.802 38.598 53.4544 38.598C50.1068 38.598 47.3811 41.3068 47.3811 44.6337C47.3811 44.9466 47.6421 45.206 47.9569 45.206C48.2717 45.206 48.5328 44.9466 48.5328 44.6337C48.5328 41.9402 50.7364 39.7426 53.4544 39.7426C56.1724 39.7426 58.376 41.9325 58.376 44.6337C58.376 47.3349 56.1724 49.5249 53.4544 49.5249H43.2349L43.2503 49.5325ZM16.6767 40.9787C15.9242 41.9783 15.2716 42.8329 15.978 44.298C17.0068 46.4192 16.4924 48.449 15.6555 49.6469C14.9491 50.6694 13.9433 51.257 12.9298 51.257C12.853 51.257 12.7762 51.257 12.6994 51.2493C12.0468 51.1883 10.8337 50.8144 9.97375 48.922C9.19059 47.2052 8.25387 46.4956 7.43232 45.8775C5.91207 44.7253 5.02142 43.8249 5.94279 39.9333C6.64916 36.9422 7.90068 35.0498 9.66663 34.302C11.8318 33.3864 13.9049 34.5844 13.9893 34.6378C16.3158 36.0342 17.4445 37.1635 17.6671 38.308C17.8744 39.3763 17.2602 40.1928 16.669 40.9787H16.6767Z" fill="#2E5F44"/>
<path d="M35.5792 23.2528C35.5009 24.3872 35.6497 25.399 35.955 26.2881C37.043 29.4306 39.9863 31.0018 42.9374 31.0018C45.8885 31.0018 48.8318 29.4306 49.9198 26.2881C50.0138 26.0198 50.0842 25.7362 50.1468 25.4526C47.4854 25.3836 45.2544 23.843 44.4325 21.4593C44.1585 20.6698 44.0489 19.8191 44.1116 18.9376C44.2525 16.9831 45.0587 15.0976 46.0137 13.5187C44.3934 11.3879 42.9374 10.0312 42.9374 10.0312C42.9374 10.0312 36.0567 16.4313 35.5792 23.2528Z" fill="#2E5F44"/>
<path d="M45.6029 19.2317C45.5485 20.027 45.6496 20.721 45.8595 21.3447C46.5983 23.5279 48.5968 24.6195 50.6031 24.6195C52.6094 24.6195 54.6079 23.5279 55.3466 21.3447C55.5566 20.7288 55.6577 20.027 55.6032 19.2317C55.2766 14.4834 50.6031 10.0312 50.6031 10.0312C50.6031 10.0312 45.9295 14.4834 45.6029 19.2317Z" fill="#2E5F44"/>
</g>
<defs>
<clipPath id="clip0_2949_6611">
<rect width="62" height="62" fill="white"/>
</clipPath>
</defs>
</svg>
