<svg width="62" height="62" viewBox="0 0 62 62" fill="none" xmlns="http://www.w3.org/2000/svg">
<path d="M62 49.553V52.8837C62 53.5744 61.6098 54.2059 60.992 54.5148C50.7531 59.6342 40.4233 59.6342 30.1845 54.5148C28.9848 53.9149 27.7866 53.3931 26.5896 52.9495L26.4252 50.8192C25.4496 43.5022 22.4623 38.0255 17.4575 34.5222C12.548 31.0855 6.96022 29.6064 0.768244 30.0953L0 30.1747V9.11903C0 8.42832 0.390228 7.79688 1.00801 7.48799C7.33786 4.32307 13.7025 3.11478 20.0588 3.86308V6.38373C20.0825 13.0173 21.4041 17.9734 24.1312 21.2308C25.7868 23.2082 27.6838 24.4916 31.0873 26.2423C31.3145 26.3592 31.5479 26.4782 31.8595 26.6365C32.247 26.8331 32.4593 26.9409 32.6355 27.0305C33.2654 27.3511 33.7326 27.5926 34.1928 27.8375C35.3692 28.4634 36.3569 29.0387 37.2941 29.6577C38.1605 30.2299 38.9672 30.8301 39.7335 31.4802C41.2422 32.76 42.2285 34.2109 43.0777 36.1912C43.3686 36.8696 43.4702 37.1401 44.064 38.7729C45.4952 42.7088 46.617 44.5739 49.222 46.2195C53.0162 48.6164 56.611 49.7487 59.9986 49.553H62ZM62 45.9082L59.8305 45.9095C57.2678 46.0693 54.3835 45.1664 51.1698 43.1362C49.4395 42.0431 48.6665 40.7579 47.4915 37.5265C46.8691 35.8151 46.7593 35.5226 46.4296 34.7538C45.3734 32.2908 44.0745 30.3801 42.0928 28.699C41.2114 27.9514 40.2883 27.2645 39.304 26.6144C38.2602 25.9251 37.1766 25.2939 35.9059 24.6178C35.4226 24.3607 34.9375 24.1099 34.2896 23.7801C34.1113 23.6894 33.8967 23.5805 33.5111 23.3848C33.2046 23.2291 32.9762 23.1126 32.7555 22.9991C29.7537 21.455 28.1896 20.3969 26.9276 18.8896C24.8365 16.3919 23.7267 12.2304 23.7059 6.37722V4.50739C26.4132 5.14545 29.1175 6.13898 31.8155 7.48799C41.0276 12.094 50.1488 12.094 59.361 7.48799C60.5734 6.88176 62 7.76345 62 9.11903V45.9082ZM50.1471 25.5308C51.6577 25.5308 52.8824 24.3062 52.8824 22.7955C52.8824 21.2848 51.6577 20.0602 50.1471 20.0602C48.6364 20.0602 47.4118 21.2848 47.4118 22.7955C47.4118 24.3062 48.6364 25.5308 50.1471 25.5308ZM22.8469 51.8163C16.112 50.2348 9.4 51.1343 2.63905 54.5148C1.42658 55.121 0 54.2393 0 52.8837V33.8407L1.09942 33.727C6.41233 33.3081 11.1579 34.5643 15.3661 37.51C19.4681 40.3815 21.9492 44.918 22.8034 51.2515L22.8469 51.8163Z" fill="#2E5F44"/>
</svg>
