<svg width="62" height="62" viewBox="0 0 62 62" fill="none" xmlns="http://www.w3.org/2000/svg">
<g clip-path="url(#clip0_2949_6704)">
<path d="M52.7672 36.8009L42.6276 16.793H19.3776L9.23807 36.8009C7.82266 40.0825 7.41459 43.7108 8.06549 47.2252C8.71639 50.7391 10.3969 53.9806 12.8937 56.5376C14.569 58.2767 16.58 59.6576 18.8049 60.5966C21.0297 61.5356 23.4215 62.0136 25.8362 62.0013H36.1695C38.5841 62.0136 40.9763 61.5357 43.2008 60.5966C45.4253 59.6575 47.4365 58.2767 49.112 56.5376C51.6088 53.9805 53.2894 50.739 53.9402 47.2252C54.5911 43.711 54.183 40.0828 52.7676 36.8009H52.7672ZM39.476 45.778C39.8415 46.1398 40.0474 46.6329 40.0474 47.1471C40.0474 47.6616 39.8415 48.1546 39.476 48.5165C39.1131 48.8802 38.6204 49.0846 38.1066 49.0846C37.593 49.0846 37.1001 48.8802 36.7374 48.5165L31.0024 42.7815L25.2674 48.5165C24.9048 48.8804 24.4121 49.0848 23.8983 49.0848C23.3844 49.0848 22.8918 48.8804 22.5291 48.5165C22.1634 48.1548 21.9576 47.6618 21.9576 47.1473C21.9576 46.6329 22.1634 46.1398 22.5291 45.7782L28.2641 40.0432L22.5291 34.3082H22.5293C22.0401 33.8192 21.849 33.1061 22.028 32.4379C22.2072 31.7696 22.7291 31.2478 23.3974 31.0685C24.0656 30.8895 24.7786 31.0806 25.2676 31.5698L31.0026 37.3048L36.7376 31.5698C37.2267 31.0806 37.9397 30.8895 38.6079 31.0685C39.2762 31.2477 39.7981 31.7696 39.9773 32.4379C40.1563 33.1062 39.9652 33.8192 39.476 34.3082L33.741 40.0432L39.476 45.778Z" fill="#2E5F44"/>
<path d="M19.3679 14.2071H29.7033L27.5737 4.60488C27.4461 4.03113 27.1266 3.51787 26.6681 3.15016C26.2094 2.78244 25.6392 2.58203 25.0513 2.58203H18.0758C17.6839 2.58203 17.3133 2.75984 17.0681 3.0654C16.8229 3.37096 16.7296 3.77137 16.8148 4.15381L19.3679 14.2071Z" fill="#2E5F44"/>
<path d="M37.46 14.2083H42.623L45.1861 1.52416H45.1859C45.2531 1.14594 45.1492 0.75763 44.9024 0.463389C44.6555 0.169333 44.2911 -0.000402282 43.907 7.18317e-07H40.0437C39.3607 0.00867917 38.7082 0.283361 38.2247 0.765701C37.7413 1.24826 37.4652 1.90035 37.4551 2.58333C37.449 1.90216 37.1766 1.25028 36.6961 0.767509C36.2153 0.284746 35.5648 0.00924905 34.8837 7.18317e-07H31.0079C30.624 -0.000402928 30.2595 0.169328 30.0127 0.46359C29.7658 0.757646 29.6619 1.14616 29.7289 1.52415L32.2874 14.2083L37.46 14.2083Z" fill="#2E5F44"/>
</g>
<defs>
<clipPath id="clip0_2949_6704">
<rect width="62" height="62" fill="white"/>
</clipPath>
</defs>
</svg>
