<svg width="62" height="62" viewBox="0 0 62 62" fill="none" xmlns="http://www.w3.org/2000/svg">
<g clip-path="url(#clip0_2997_5754)">
<path d="M53.9306 16.6632V3.55078H46.6912V13.6756L30.9996 7.20234L-0.000488281 19.9957V27.4137L30.9996 14.6204L61.9998 27.4137V19.9957L53.9306 16.6632Z" fill="#2E5F44"/>
<path d="M33.6425 45.557C31.7588 43.6733 29.4101 42.2656 26.792 41.4956C28.7444 40.0819 30.0195 37.79 30.0195 35.1953C30.0195 30.8978 26.5357 27.4141 22.2383 27.4141C17.9408 27.4141 14.457 30.8978 14.457 35.1953C14.457 37.79 15.732 40.0818 17.6845 41.4956C10.9963 43.461 6.11523 49.6308 6.11523 56.9586V58.4525H27.5778H38.3666V56.9586C38.3666 52.7452 36.7578 48.9149 34.1149 46.0549C33.9617 45.889 33.8085 45.723 33.6425 45.557Z" fill="#2E5F44"/>
<path d="M47.0216 45.0276C48.3585 43.888 49.2243 42.2127 49.2243 40.3184C49.2243 36.8871 46.4427 34.1055 43.0114 34.1055C39.5801 34.1055 36.7985 36.8871 36.7985 40.3184C36.7985 42.2223 37.6732 43.9049 39.0218 45.0446C38.2002 45.3134 37.4051 45.6389 36.6689 46.0575C39.3119 48.9174 40.9206 52.7478 40.9206 56.9611V58.455H55.8844V57.2548C55.8844 53.7053 54.4416 50.4879 52.1179 48.1514C50.7083 46.7418 48.9665 45.6634 47.0216 45.0276Z" fill="#2E5F44"/>
</g>
<defs>
<clipPath id="clip0_2997_5754">
<rect width="62" height="62" fill="white"/>
</clipPath>
</defs>
</svg>
