<svg width="62" height="62" viewBox="0 0 62 62" fill="none" xmlns="http://www.w3.org/2000/svg">
<path fill-rule="evenodd" clip-rule="evenodd" d="M35.3225 1.79447C32.9351 -0.598156 29.0639 -0.598156 26.6765 1.79447C24.2891 4.18709 24.2891 8.06671 26.6765 10.4595C29.0639 12.8522 32.9351 12.8521 35.3225 10.4595C37.7099 8.06671 37.7099 4.18709 35.3225 1.79447ZM49.7479 10.7077C48.0504 9.00651 45.2978 9.00651 43.6002 10.7077C41.9027 12.409 41.9027 15.1677 43.6002 16.8689C45.2978 18.5701 48.0504 18.5701 49.7479 16.8689C51.4453 15.1677 51.4453 12.409 49.7479 10.7077ZM18.3989 10.7077C16.7014 9.00651 13.9487 9.00651 12.2512 10.7077C10.5537 12.409 10.5537 15.1677 12.2512 16.8689C13.9487 18.5701 16.7014 18.5701 18.3989 16.8689C20.0964 15.1677 20.0964 12.409 18.3989 10.7077ZM45.9504 41.8859C45.9732 41.8428 45.8672 41.8595 45.7933 41.7527C44.0864 39.2841 45.1909 37.5977 47.792 37.3787C49.6104 37.2257 51.977 37.8255 52.9654 38.7144C54.9185 40.471 54.6837 43.7421 52.1826 44.3037C50.2929 44.7279 48.5392 45.5435 47.1603 46.8024C44.0699 49.624 41.5015 47.2022 42.137 44.6849C42.422 43.5562 43.3504 42.4845 45.1098 42.1457C45.6784 42.0362 45.9146 41.9534 45.9504 41.8859ZM46.8731 41.0056C47.7536 42.279 47.0219 43.1185 45.3563 43.4392C42.865 43.919 43.0087 46.3377 44.1197 46.7051C44.6178 46.8699 45.3523 46.6718 46.2758 45.8285C47.8322 44.4075 49.7646 43.4999 51.8996 43.0206C53.331 42.6993 53.2242 40.7124 52.0912 39.6935C50.7857 38.5194 46.6016 38.2622 46.3062 39.4428C46.2219 39.7788 46.3746 40.2846 46.8731 41.0056ZM22.6485 60.644C23.2322 60.1427 23.8653 59.5268 24.2454 58.9318C24.7266 58.1787 24.4382 57.7463 23.8943 57.3972C23.5534 57.1784 23.1368 56.9785 22.7102 56.7739C20.8534 55.883 18.8416 54.9178 19.9749 52.1715C21.3125 48.9302 25.9275 49.7741 28.0365 51.6782C30.1252 53.564 31.2203 56.5297 33.6295 54.5414C35.551 52.9555 36.7274 52.0008 37.9973 51.5563C39.3078 51.0975 40.5975 51.2099 42.6942 51.7825C44.7285 52.3378 46.8238 53.7024 48.6974 55.1935C54.0418 50.3629 57.2622 43.4705 57.4409 36.1549H31.888C30.391 37.725 30.3553 38.5665 30.9266 39.1359C32.622 40.8255 38.4565 41.3793 36.4982 46.1251C34.821 50.1898 28.9812 49.0865 26.332 46.6946C23.5804 44.2103 22.1188 40.2313 18.8042 42.9671C14.6141 46.4253 12.1306 48.2821 6.92874 46.4764C9.99613 53.252 15.7526 58.3383 22.6485 60.644ZM47.6795 56.0673C41.0897 61.4403 32.2728 63.2985 24.1157 61.0877C24.5896 60.6344 25.0328 60.1407 25.351 59.6429C26.4076 57.9895 25.7844 57.047 24.6038 56.2892C23.0635 55.3006 20.3194 54.7768 21.1883 52.6712C22.1115 50.4337 25.6756 51.3194 27.1572 52.6571C29.453 54.7298 30.8477 58.5396 34.4623 55.5563C36.2699 54.0644 37.3728 53.1677 38.429 52.7978C39.4447 52.4423 40.5286 52.5525 42.3496 53.0497C44.1365 53.5378 46.0069 54.7546 47.6795 56.0673ZM36.2622 31.8585L35.7407 31.4071C31.6005 28.1338 25.5545 29.9475 23.7842 34.8355H38.2152C37.8002 33.6861 37.1226 32.6725 36.2622 31.8585ZM34.0733 20.9975C35.7709 22.6987 35.7709 25.4574 34.0733 27.1586C32.3758 28.8599 29.6232 28.8597 27.9257 27.1586C26.2282 25.4574 26.2282 22.6987 27.9257 20.9975C29.6232 19.2962 32.3758 19.2962 34.0733 20.9975ZM47.7163 34.8354C46.558 32.3702 43.3995 31.5907 41.2448 33.2941C40.726 33.7043 40.3037 34.2319 40.0194 34.8354H47.7163ZM45.4878 27.1435C46.3825 28.0401 46.3825 29.4944 45.4878 30.391C44.0484 31.8336 41.5763 30.8073 41.5763 28.7672C41.5763 26.7259 44.0473 25.6997 45.4878 27.1435ZM43.8676 25.1517C43.541 25.1517 43.2247 25.1953 42.9238 25.2768C42.9238 23.5596 42.9358 22.4816 42.4173 20.7646C47.4947 17.3457 54.3429 21.0453 54.3429 27.1499V34.8357H49.1286C48.6256 33.3707 47.538 32.1943 46.1553 31.5629C48.7683 29.4114 47.2409 25.1517 43.8676 25.1517ZM21.9804 34.8354C20.8221 32.3702 17.6636 31.5907 15.5089 33.2941C14.9901 33.7043 14.5678 34.2319 14.2835 34.8354H21.9804ZM19.7518 27.1435C20.6465 28.0401 20.6465 29.4944 19.7518 30.391C18.3124 31.8336 15.8403 30.8073 15.8403 28.7672C15.8403 26.7208 18.3178 25.7062 19.7518 27.1435ZM20.3917 25.9491V24.2042C20.3917 18.3583 25.1666 13.573 30.9995 13.573C36.8326 13.573 41.6075 18.3584 41.6075 24.2042V25.9489C39.8239 27.3874 39.8097 30.1043 41.5789 31.5618C40.5845 32.0166 39.741 32.756 39.1584 33.6832C38.7024 32.6933 38.075 31.8057 37.3184 31.0549V29.1753C37.3184 28.3069 36.0021 28.3069 36.0021 29.1753V29.9734C35.3628 29.5416 34.6678 29.1907 33.9333 28.9336C37.067 27.0278 37.608 22.6743 35.0041 20.0647C32.7923 17.848 29.2068 17.8481 26.995 20.0647C24.3914 22.6739 24.9323 27.0263 28.0639 28.9324C27.4606 29.1435 26.8858 29.4176 26.3475 29.7469V29.1751C26.3475 28.3067 25.0312 28.3067 25.0312 29.1751V30.7257C24.114 31.5461 23.3645 32.5519 22.8422 33.6831C22.2587 32.7537 21.4131 32.0162 20.4194 31.5625C22.1892 30.1056 22.1756 27.3878 20.3917 25.9491ZM18.1316 25.1517C17.1355 25.1517 16.2334 25.5565 15.5807 26.2108C14.0721 27.7227 14.1958 30.205 15.8429 31.5621C14.4574 32.1956 13.3722 33.3785 12.8708 34.8355H7.65626V27.1498C7.65626 25.037 8.51923 23.1156 9.90951 21.7222C12.5075 19.1185 16.5462 18.7204 19.5819 20.7645C19.0634 22.4816 19.0753 23.5596 19.0753 25.2767C18.7746 25.1951 18.458 25.1517 18.1316 25.1517ZM4.55859 36.1547H30.1577C28.8079 37.9318 29.0449 39.1154 30.0011 40.0684C31.8405 41.9017 36.6496 42.3175 35.2847 45.6251C34.0194 48.6918 29.2271 47.5354 27.2112 45.7153C24.2541 43.0454 22.4908 38.2214 17.9712 41.9517C13.6107 45.5506 11.6148 47.0376 6.24018 44.8044C5.20345 42.0252 4.63415 39.1012 4.55859 36.1547Z" fill="#2E5F44"/>
</svg>
