<svg width="62" height="62" viewBox="0 0 62 62" fill="none" xmlns="http://www.w3.org/2000/svg">
<g clip-path="url(#clip0_2949_6861)">
<path fill-rule="evenodd" clip-rule="evenodd" d="M36.889 7.62713C33.3606 4.12429 27.6392 4.12429 24.1108 7.62713C20.5823 11.13 20.5823 16.8098 24.1108 20.3128C27.6392 23.8159 33.3606 23.8157 36.889 20.3128C40.4175 16.8098 40.4175 11.13 36.889 7.62713ZM58.2089 20.6763C55.7001 18.1857 51.6318 18.1857 49.123 20.6763C46.6142 23.1669 46.6142 27.2057 49.123 29.6964C51.6318 32.187 55.7001 32.187 58.2089 29.6964C60.7175 27.2057 60.7175 23.1669 58.2089 20.6763ZM11.877 20.6763C9.36816 18.1857 5.29989 18.1857 2.79108 20.6763C0.282261 23.1669 0.282261 27.2057 2.79108 29.6964C5.29989 32.187 9.36816 32.187 11.877 29.6964C14.3858 27.2057 14.3858 23.1669 11.877 20.6763ZM38.2779 51.6414L37.5071 50.9805C31.3882 46.1883 22.4525 48.8437 19.8361 55.9998H41.1643C40.5509 54.3171 39.5494 52.833 38.2779 51.6414ZM35.0429 35.7406C37.5517 38.2313 37.5517 42.27 35.0429 44.7607C32.534 47.2513 28.4658 47.2511 25.957 44.7607C23.4481 42.27 23.4481 38.2313 25.957 35.7406C28.4658 33.25 32.534 33.25 35.0429 35.7406ZM55.2064 55.9996C53.4944 52.3906 48.8264 51.2493 45.6419 53.7431C44.875 54.3437 44.2509 55.116 43.8307 55.9996H55.2064ZM51.9128 44.7385C53.2351 46.0512 53.2351 48.1803 51.9128 49.493C49.7854 51.6049 46.1317 50.1023 46.1317 47.1157C46.1317 44.1272 49.7837 42.6248 51.9128 44.7385ZM49.5181 41.8225C49.0355 41.8225 48.568 41.8863 48.1233 42.0056C48.1233 39.4916 48.141 37.9134 47.3747 35.3997C54.8787 30.3943 65 35.8107 65 44.7479V56H57.2936C56.5503 53.8553 54.9427 52.1329 52.8993 51.2086C56.7611 48.0588 54.5037 41.8225 49.5181 41.8225ZM17.1703 55.9996C15.4583 52.3906 10.7903 51.2493 7.6058 53.7431C6.83891 54.3437 6.21482 55.116 5.79461 55.9996H17.1703ZM13.8765 44.7385C15.1988 46.0512 15.1988 48.1803 13.8765 49.493C11.7492 51.6049 8.09546 50.1023 8.09546 47.1157C8.09546 44.1197 11.7571 42.6343 13.8765 44.7385ZM14.8221 42.9898V40.4353C14.8221 31.8768 21.8792 24.8711 30.4999 24.8711C39.1208 24.8711 46.1779 31.877 46.1779 40.4353V42.9896C43.5418 45.0956 43.5208 49.0731 46.1356 51.207C44.6659 51.8728 43.4192 52.9553 42.5582 54.3128C41.8843 52.8635 40.9571 51.5641 39.8389 50.4648V47.7131C39.8389 46.4417 37.8935 46.4417 37.8935 47.7131V48.8815C36.9486 48.2494 35.9214 47.7357 34.8359 47.3593C39.4673 44.5691 40.2669 38.1955 36.4185 34.375C33.1496 31.1298 27.8504 31.13 24.5815 34.375C20.7335 38.1949 21.5329 44.567 26.1612 47.3575C25.2696 47.6665 24.4201 48.0679 23.6246 48.5499V47.7129C23.6246 46.4415 21.6792 46.4415 21.6792 47.7129V49.983C20.3236 51.1841 19.2159 52.6565 18.4439 54.3126C17.5815 52.952 16.3318 51.8722 14.8632 51.208C17.4788 49.0751 17.4588 45.0961 14.8221 42.9898ZM11.4819 41.8225C10.0098 41.8225 8.67656 42.4151 7.71182 43.373C5.48218 45.5865 5.66505 49.2207 8.09935 51.2074C6.0516 52.1348 4.4478 53.8667 3.70679 55.9998H-4V44.7477C-4 41.6545 -2.72458 38.8416 -0.669827 36.8017C3.16985 32.9898 9.13879 32.407 13.6253 35.3995C12.859 37.9134 12.8767 39.4916 12.8767 42.0054C12.4322 41.8861 11.9643 41.8225 11.4819 41.8225Z" fill="#2E5F44"/>
</g>
<defs>
<clipPath id="clip0_2949_6861">
<rect width="62" height="62" fill="white"/>
</clipPath>
</defs>
</svg>
