<svg width="70" height="71" viewBox="0 0 70 71" fill="none" xmlns="http://www.w3.org/2000/svg">
<circle opacity="0.1" cx="35" cy="35.5" r="35" fill="#4326F3"/>
<path d="M42.3734 30.3598C42.2801 30.3465 42.1867 30.3465 42.0934 30.3598C40.0267 30.2932 38.3867 28.5998 38.3867 26.5198C38.3867 24.3998 40.1067 22.6665 42.2401 22.6665C44.3601 22.6665 46.0934 24.3865 46.0934 26.5198C46.0801 28.5998 44.4401 30.2932 42.3734 30.3598Z" fill="#4326F3"/>
<path d="M46.72 39.6C45.2266 40.6 43.1333 40.9734 41.2 40.72C41.7066 39.6267 41.9733 38.4134 41.9866 37.1334C41.9866 35.8001 41.6933 34.5334 41.1333 33.4267C43.1066 33.16 45.2 33.5334 46.7066 34.5334C48.8133 35.92 48.8133 38.2 46.72 39.6Z" fill="#4326F3"/>
<path d="M27.5865 30.3598C27.6799 30.3465 27.7732 30.3465 27.8665 30.3598C29.9332 30.2932 31.5732 28.5998 31.5732 26.5198C31.5732 24.3865 29.8532 22.6665 27.7199 22.6665C25.5999 22.6665 23.8799 24.3865 23.8799 26.5198C23.8799 28.5998 25.5199 30.2932 27.5865 30.3598Z" fill="#4326F3"/>
<path d="M27.7332 37.1331C27.7332 38.4265 28.0132 39.6531 28.5199 40.7598C26.6399 40.9598 24.6799 40.5598 23.2399 39.6131C21.1332 38.2131 21.1332 35.9331 23.2399 34.5331C24.6666 33.5731 26.6799 33.1865 28.5732 33.3998C28.0266 34.5198 27.7332 35.7865 27.7332 37.1331Z" fill="#4326F3"/>
<path d="M35.1599 41.16C35.0532 41.1467 34.9332 41.1467 34.8132 41.16C32.3599 41.08 30.3999 39.0667 30.3999 36.5867C30.4132 34.0533 32.4532 32 34.9999 32C37.5332 32 39.5866 34.0533 39.5866 36.5867C39.5732 39.0667 37.6266 41.08 35.1599 41.16Z" fill="#4326F3"/>
<path d="M30.8267 43.92C28.8133 45.2667 28.8133 47.48 30.8267 48.8134C33.12 50.3467 36.88 50.3467 39.1733 48.8134C41.1867 47.4667 41.1867 45.2534 39.1733 43.92C36.8933 42.3867 33.1333 42.3867 30.8267 43.92Z" fill="#4326F3"/>
</svg>
