<svg width="70" height="71" viewBox="0 0 70 71" fill="none" xmlns="http://www.w3.org/2000/svg">
<circle opacity="0.1" cx="35" cy="35.5" r="35" fill="#F32626"/>
<path d="M43.7765 26.2382C44.0441 25.9705 44.3928 25.8407 44.7429 25.8255V24.887C44.7429 23.406 43.5396 22.2026 42.0586 22.2026H18.6331C17.1521 22.2026 15.9487 23.406 15.9487 24.887V39.7935C15.9487 41.3342 17.2025 42.5893 18.7445 42.5893H21.9101C23.6741 42.5893 25.1105 44.0311 25.1105 45.8034V48.9826C25.1105 50.5234 26.3643 51.7784 27.9063 51.7784H42.0598C43.5408 51.7784 44.7441 50.575 44.7441 49.094V41.6769L40.5984 45.8226C40.3155 46.1055 39.8623 46.3343 39.4732 46.3972L35.6272 46.7361C35.6244 46.7361 35.6216 46.7389 35.6188 46.7389L33.4686 46.9273C32.6432 47.0571 31.897 46.2509 32.024 45.4479L32.1354 44.2041L32.5482 39.5102C32.6123 39.1043 32.8299 38.6499 33.1268 38.353L42.4251 29.0547C42.135 28.5053 42.1992 27.8165 42.6592 27.3549L43.7765 26.2382ZM30.3282 38.3334H22.2053C21.9544 38.3334 21.7521 38.1298 21.7521 37.8802C21.7521 37.6306 21.9556 37.427 22.2053 37.427H30.3282C30.5791 37.427 30.7814 37.6306 30.7814 37.8802C30.7814 38.1298 30.5779 38.3334 30.3282 38.3334ZM34.7961 32.8545H22.2045C21.9536 32.8545 21.7513 32.6509 21.7513 32.4013C21.7513 32.1517 21.9548 31.9481 22.2045 31.9481H34.7961C35.047 31.9481 35.2493 32.1517 35.2493 32.4013C35.2493 32.6509 35.047 32.8545 34.7961 32.8545ZM38.4859 27.3744H22.2057C21.9548 27.3744 21.7525 27.1708 21.7525 26.9212C21.7525 26.6716 21.956 26.468 22.2057 26.468H38.4874C38.7383 26.468 38.9407 26.6716 38.9407 26.9212C38.9407 27.1708 38.7371 27.3744 38.4862 27.3744H38.4859Z" fill="#F32626"/>
<path d="M18.8977 48.8312C17.1477 47.0673 16.1059 44.6839 15.9749 42.2256C16.654 42.9981 17.637 43.4958 18.7442 43.4958H21.9098C23.1744 43.4958 24.2038 44.5304 24.2038 45.8035V48.9828C24.2038 50.0887 24.7015 51.0717 25.4728 51.7508C23.0242 51.6129 20.6536 50.5727 18.8977 48.8311V48.8312Z" fill="#F32626"/>
<path d="M35.9012 45.8039C35.6852 45.1707 35.3323 44.5877 34.8498 44.1053C34.3658 43.6229 33.7816 43.2686 33.1472 43.0526L33.4485 39.6221C33.4513 39.6069 33.4597 39.5929 33.4625 39.5776L35.5446 39.9876L36.0535 42.5422C36.0896 42.7221 36.229 42.8615 36.409 42.8976L38.9635 43.4053L39.375 45.4929C39.371 45.4942 39.3666 45.497 39.361 45.497L35.9012 45.8039Z" fill="#F32626"/>
<path d="M43.0092 29.7563L44.0703 30.8174L35.7792 39.1085L34.0068 38.7599L43.0092 29.7563Z" fill="#F32626"/>
<path d="M44.712 31.459L47.4912 34.238L39.2009 42.5283L36.882 42.0666L36.4216 39.749L44.712 31.459Z" fill="#F32626"/>
<path d="M48.1328 34.8789L49.1955 35.9403L40.1912 44.9446L39.8411 43.1706L48.1328 34.8789Z" fill="#F32626"/>
<path d="M33.3596 46.0286C33.0654 46.0647 32.8883 45.811 32.9272 45.5614L33.0081 44.6354L33.0667 43.9814C33.489 44.1558 33.8769 44.4166 34.2074 44.7472C34.538 45.0777 34.7972 45.4652 34.9731 45.8864L33.3596 46.0286Z" fill="#F32626"/>
<path d="M52.0715 34.5325L50.9547 35.6493C50.7287 35.8765 50.3704 35.8305 50.1584 35.6185L43.3324 28.7925C43.122 28.5824 43.0731 28.2238 43.3004 27.9966L44.4172 26.8797C44.6556 26.6397 44.9902 26.7235 45.2134 26.9077L52.0407 33.735C52.253 33.9455 52.2975 34.3077 52.0715 34.5325Z" fill="#F32626"/>
<path d="M52.3631 32.7721L46.1758 26.5863L47.2272 25.5364C48.0959 24.6661 49.609 24.6677 50.4778 25.5364L53.413 28.4704C54.3097 29.3671 54.3097 30.8257 53.413 31.7222L52.3631 32.7721Z" fill="#F32626"/>
</svg>
