<svg width="24" height="24" viewBox="0 0 24 24" fill="none" xmlns="http://www.w3.org/2000/svg">
<circle cx="12" cy="12" r="12" fill="#12BF0E"/>
<path d="M15.2315 10.1394C16.1852 10.1394 16.9582 9.36631 16.9582 8.4127C16.9582 7.45909 16.1852 6.68604 15.2315 6.68604C14.2779 6.68604 13.5049 7.45909 13.5049 8.4127C13.5049 9.36631 14.2779 10.1394 15.2315 10.1394Z" fill="white"/>
<path d="M8.76866 10.1394C9.72227 10.1394 10.4953 9.36631 10.4953 8.4127C10.4953 7.45909 9.72227 6.68604 8.76866 6.68604C7.81505 6.68604 7.04199 7.45909 7.04199 8.4127C7.04199 9.36631 7.81505 10.1394 8.76866 10.1394Z" fill="white"/>
<path d="M15.2315 17.3142C16.1852 17.3142 16.9582 16.5411 16.9582 15.5875C16.9582 14.6339 16.1852 13.8608 15.2315 13.8608C14.2779 13.8608 13.5049 14.6339 13.5049 15.5875C13.5049 16.5411 14.2779 17.3142 15.2315 17.3142Z" fill="white"/>
<path d="M8.76866 17.3142C9.72227 17.3142 10.4953 16.5411 10.4953 15.5875C10.4953 14.6339 9.72227 13.8608 8.76866 13.8608C7.81505 13.8608 7.04199 14.6339 7.04199 15.5875C7.04199 16.5411 7.81505 17.3142 8.76866 17.3142Z" fill="white"/>
</svg>
