<svg width="70" height="70" viewBox="0 0 70 70" fill="none" xmlns="http://www.w3.org/2000/svg">
<circle opacity="0.1" cx="35" cy="35" r="35" fill="#26F3E7"/>
<path d="M26.135 29.8301H22C21.4477 29.8301 21 30.2778 21 30.8301V46.5451C21 47.0974 21.4477 47.5451 22 47.5451H26.135C26.6873 47.5451 27.135 47.0974 27.135 46.5451V30.8301C27.135 30.2778 26.6873 29.8301 26.135 29.8301Z" fill="#07D7CA"/>
<path d="M33.425 38.6001H29.29C29.1587 38.6001 29.0287 38.6259 28.9073 38.6761C28.786 38.7264 28.6757 38.8 28.5828 38.8929C28.49 38.9858 28.4163 39.096 28.3661 39.2174C28.3158 39.3387 28.29 39.4688 28.29 39.6001V46.5451C28.29 46.6764 28.3158 46.8065 28.3661 46.9278C28.4163 47.0492 28.49 47.1594 28.5828 47.2523C28.6757 47.3452 28.786 47.4188 28.9073 47.4691C29.0287 47.5193 29.1587 47.5451 29.29 47.5451H33.425C33.69 47.5443 33.9439 47.4387 34.1313 47.2514C34.3187 47.064 34.4243 46.8101 34.425 46.5451V39.6001C34.4243 39.3351 34.3187 39.0812 34.1313 38.8938C33.9439 38.7065 33.69 38.6009 33.425 38.6001Z" fill="#07D7CA"/>
<path d="M48 42.4502H43.865C43.3127 42.4502 42.865 42.8979 42.865 43.4502V46.5452C42.865 47.0975 43.3127 47.5452 43.865 47.5452H48C48.5523 47.5452 49 47.0975 49 46.5452V43.4502C49 42.8979 48.5523 42.4502 48 42.4502Z" fill="#07D7CA"/>
<path d="M40.7099 36.2051H36.575C36.31 36.2059 36.0561 36.3115 35.8687 36.4988C35.6813 36.6862 35.5757 36.9401 35.575 37.2051V46.5451C35.5757 46.8101 35.6813 47.064 35.8687 47.2513C36.0561 47.4387 36.31 47.5443 36.575 47.5451H40.7099C40.8413 47.5451 40.9713 47.5193 41.0927 47.469C41.214 47.4188 41.3243 47.3451 41.4171 47.2523C41.51 47.1594 41.5837 47.0492 41.6339 46.9278C41.6842 46.8065 41.71 46.6764 41.7099 46.5451V37.2051C41.71 37.0737 41.6841 36.9437 41.6339 36.8223C41.5837 36.701 41.51 36.5908 41.4171 36.4979C41.3243 36.405 41.214 36.3314 41.0927 36.2811C40.9713 36.2309 40.8413 36.205 40.7099 36.2051Z" fill="#07D7CA"/>
<path d="M24.2901 25.4551C24.5024 25.4548 24.7122 25.4088 24.9051 25.3201L30.3101 31.1401C30.231 31.3474 30.1991 31.5698 30.2166 31.791C30.2341 32.0123 30.3005 32.2268 30.4111 32.4192C30.5217 32.6116 30.6737 32.777 30.8561 32.9034C31.0385 33.0298 31.2467 33.1141 31.4657 33.1502C31.6846 33.1862 31.9089 33.1731 32.1222 33.1119C32.3355 33.0506 32.5325 32.9427 32.6989 32.7959C32.8653 32.6491 32.9971 32.4671 33.0845 32.2632C33.172 32.0592 33.213 31.8384 33.2047 31.6166C33.2058 31.618 37.7899 29.2246 37.7901 29.2301C38.0232 29.4625 38.3257 29.6126 38.6518 29.6575C38.978 29.7024 39.3098 29.6396 39.597 29.4787L45.6508 35.4044C45.4131 35.6622 45.2733 35.9952 45.2558 36.3454C45.2384 36.6957 45.3444 37.0409 45.5553 37.3211C45.7662 37.6012 46.0688 37.7985 46.4102 37.8785C46.7516 37.9585 47.1103 37.9162 47.4238 37.759C47.7372 37.6017 47.9856 37.3395 48.1256 37.018C48.2655 36.6964 48.2883 36.336 48.1898 35.9994C48.0914 35.6628 47.878 35.3715 47.5868 35.1761C47.2956 34.9807 46.945 34.8936 46.5963 34.9301L40.2505 28.7186C40.3209 28.5461 40.3564 28.3614 40.3551 28.1751C40.3533 27.9733 40.3107 27.774 40.23 27.5891C40.1492 27.4042 40.0319 27.2375 39.8852 27.0991C39.7384 26.9606 39.5652 26.8532 39.3759 26.7834C39.1867 26.7135 38.9852 26.6826 38.7837 26.6925C38.5822 26.7024 38.3847 26.753 38.2032 26.8411C38.0217 26.9292 37.8599 27.053 37.7274 27.2052C37.595 27.3574 37.4946 27.5348 37.4324 27.7267C37.3702 27.9187 37.3474 28.1212 37.3654 28.3222L32.8324 30.6832C32.6039 30.427 32.2948 30.2564 31.9563 30.1994C31.6177 30.1425 31.2698 30.2027 30.9701 30.3701L25.6301 24.6301C25.777 24.3385 25.8248 24.0069 25.7661 23.6857C25.7075 23.3644 25.5456 23.0711 25.3051 22.8503C25.0646 22.6294 24.7586 22.493 24.4336 22.4619C24.1085 22.4308 23.7822 22.5066 23.5041 22.6778C23.2261 22.8489 23.0115 23.1062 22.8929 23.4105C22.7743 23.7147 22.7583 24.0493 22.8472 24.3635C22.9361 24.6777 23.1251 24.9543 23.3855 25.1513C23.646 25.3483 23.9635 25.455 24.2901 25.4551Z" fill="#07D7CA"/>
</svg>
