<svg width="70" height="70" viewBox="0 0 70 70" fill="none" xmlns="http://www.w3.org/2000/svg">
<circle opacity="0.1" cx="35" cy="35" r="35" fill="#4326F3"/>
<path d="M28.4595 44.7056V47.2521C28.5725 47.6591 29.0172 48.0207 29.3108 48.2012C30.554 49.0226 32.6861 49.5124 35.0144 49.5124C37.3426 49.5124 39.4748 49.0226 40.7179 48.2012C41.0119 48.0203 41.4562 47.6587 41.5692 47.2521V44.7207C38.4482 47.39 31.605 47.3803 28.4595 44.7056Z" fill="#4326F3"/>
<path d="M35.0138 51.0192C32.4071 51.0192 29.9658 50.439 28.4815 49.4596C28.4741 49.4522 28.4664 49.4522 28.459 49.4444V50.8534C28.459 52.7444 31.39 54.2815 35.0138 54.2815C38.6303 54.2815 41.5536 52.752 41.5687 50.8685V49.4443C41.5613 49.4517 41.5536 49.4517 41.5462 49.4595C40.0619 50.4389 37.6206 51.0191 35.0139 51.0191L35.0138 51.0192Z" fill="#4326F3"/>
<path d="M35.0138 38.3457C31.39 38.3457 28.459 39.8829 28.459 41.7812C28.459 41.8115 28.459 41.8491 28.4664 41.8791C28.5646 43.7253 31.4501 45.2093 35.0138 45.2093C38.6377 45.2093 41.5687 43.6721 41.5687 41.7812V41.7661C41.5536 39.8751 38.6303 38.3457 35.0138 38.3457Z" fill="#4326F3"/>
<path d="M31.2019 29.3279H38.8267C39.2428 29.3279 39.5802 28.9906 39.5802 28.5745L39.5798 20.6258L36.928 17.7402H31.2019C30.7859 17.7402 30.4485 18.0776 30.4485 18.4937V28.5742C30.4485 28.9902 30.7855 29.3276 31.2019 29.3276L31.2019 29.3279ZM33.5376 21.1757H36.4911C36.9055 21.1757 37.2445 21.5148 37.2445 21.9291C37.2445 22.3509 36.9055 22.6826 36.4911 22.6826H33.5376C33.1232 22.6826 32.7841 22.3509 32.7841 21.9291C32.7841 21.5148 33.1232 21.1757 33.5376 21.1757ZM33.5376 24.3778H36.4911C36.9055 24.3778 37.2445 24.7169 37.2445 25.1313C37.2445 25.5531 36.9055 25.8847 36.4911 25.8847H33.5376C33.1232 25.8847 32.7841 25.5531 32.7841 25.1313C32.7841 24.7169 33.1232 24.3778 33.5376 24.3778Z" fill="#4326F3"/>
<path d="M25.0306 37.0501V29.1014L22.3784 26.2158H16.6524C16.2363 26.2158 15.8989 26.5532 15.8989 26.9693V37.0497C15.8989 37.4658 16.2363 37.8032 16.6524 37.8032H24.2772C24.6932 37.8032 25.0306 37.4658 25.0306 37.0497V37.0501ZM21.9415 34.3603H18.988C18.5736 34.3603 18.2346 34.0286 18.2346 33.6069C18.2346 33.1925 18.5736 32.8534 18.988 32.8534H21.9415C22.3559 32.8534 22.695 33.1925 22.695 33.6069C22.695 34.029 22.3559 34.3603 21.9415 34.3603ZM21.9415 31.1582H18.988C18.5736 31.1582 18.2346 30.8265 18.2346 30.4047C18.2346 29.9903 18.5736 29.6513 18.988 29.6513H21.9415C22.3559 29.6513 22.695 29.9903 22.695 30.4047C22.695 30.8269 22.3559 31.1582 21.9415 31.1582Z" fill="#4326F3"/>
<path d="M53.3751 26.2158H47.649L44.9968 29.1014V37.0501C44.9968 37.4662 45.3342 37.8035 45.7503 37.8035H53.3751C53.7911 37.8035 54.1285 37.4662 54.1285 37.0501V26.9696C54.1285 26.5535 53.7911 26.2162 53.3751 26.2162V26.2158ZM51.0394 34.3603H48.0859C47.6715 34.3603 47.3325 34.0286 47.3325 33.6069C47.3325 33.1925 47.6715 32.8534 48.0859 32.8534H51.0394C51.4538 32.8534 51.7929 33.1925 51.7929 33.6069C51.7929 34.029 51.4538 34.3603 51.0394 34.3603ZM51.0394 31.1582H48.0859C47.6715 31.1582 47.3325 30.8265 47.3325 30.4047C47.3325 29.9903 47.6715 29.6513 48.0859 29.6513H51.0394C51.4538 29.6513 51.7929 29.9903 51.7929 30.4047C51.7929 30.8269 51.4538 31.1582 51.0394 31.1582Z" fill="#4326F3"/>
<path d="M35.0139 31.0064C34.5978 31.0064 34.2605 31.3437 34.2605 31.7598V35.0631L33.2824 34.085C32.9881 33.7907 32.5115 33.7907 32.2168 34.085C31.9225 34.3793 31.9225 34.8559 32.2168 35.1506L34.4808 37.4146C34.7698 37.7038 35.2481 37.7139 35.5467 37.4146L37.8107 35.1506C38.1051 34.8563 38.1051 34.3797 37.8107 34.085C37.5164 33.7907 37.0398 33.7907 36.7452 34.085L35.7674 35.0628V31.7594C35.7674 31.3434 35.4301 31.0063 35.014 31.0063L35.0139 31.0064Z" fill="#4326F3"/>
<path d="M25.5636 44.6772L23.2996 42.4136C23.0052 42.1193 22.5286 42.1193 22.234 42.4136C21.9397 42.7079 21.9397 43.1852 22.234 43.4792L23.2121 44.4569H21.2185V40.6255C21.2185 40.2094 20.8812 39.8721 20.4651 39.8721C20.049 39.8721 19.7117 40.2094 19.7117 40.6255V45.2103C19.7117 45.6264 20.049 45.9638 20.4651 45.9638H23.2121L22.234 46.9418C21.9397 47.2362 21.9397 47.7128 22.234 48.0074C22.3813 48.1547 22.574 48.2281 22.7668 48.2281C22.9595 48.2281 23.1522 48.1544 23.2996 48.0074L25.5636 45.7434C25.8528 45.4542 25.8626 44.9759 25.5636 44.6772V44.6772Z" fill="#4326F3"/>
<path d="M49.5622 39.8716C49.1462 39.8716 48.8088 40.2089 48.8088 40.625V44.4564H46.8153L47.7934 43.4787C48.0877 43.1847 48.0877 42.7078 47.7934 42.4131C47.499 42.1188 47.0224 42.1188 46.7278 42.4131L44.4638 44.6768C44.1648 44.9754 44.1745 45.4537 44.4638 45.7427L46.7278 48.0067C46.8751 48.154 47.0678 48.2273 47.2606 48.2273C47.4533 48.2273 47.646 48.1537 47.7934 48.0067C48.0877 47.7124 48.0877 47.2357 47.7934 46.9411L46.8153 45.963H49.5622C49.9783 45.963 50.3157 45.6257 50.3157 45.2096V40.6248C50.3157 40.209 49.9783 39.8716 49.5622 39.8716Z" fill="#4326F3"/>
</svg>
