<svg width="70" height="70" viewBox="0 0 70 70" fill="none" xmlns="http://www.w3.org/2000/svg">
<circle opacity="0.1" cx="35" cy="35" r="35" fill="#26A9F3"/>
<path d="M43.7765 24.2382C44.0441 23.9705 44.3928 23.8407 44.7429 23.8255V22.887C44.7429 21.406 43.5396 20.2026 42.0586 20.2026H18.6331C17.1521 20.2026 15.9487 21.406 15.9487 22.887V37.7935C15.9487 39.3342 17.2025 40.5893 18.7445 40.5893H21.9101C23.6741 40.5893 25.1105 42.0311 25.1105 43.8034V46.9826C25.1105 48.5234 26.3643 49.7784 27.9063 49.7784H42.0598C43.5408 49.7784 44.7441 48.575 44.7441 47.094V39.6769L40.5984 43.8226C40.3155 44.1055 39.8623 44.3343 39.4732 44.3972L35.6272 44.7361C35.6244 44.7361 35.6216 44.7389 35.6188 44.7389L33.4686 44.9273C32.6432 45.0571 31.897 44.2509 32.024 43.4479L32.1354 42.2041L32.5482 37.5102C32.6123 37.1043 32.8299 36.6499 33.1268 36.353L42.4251 27.0547C42.135 26.5053 42.1992 25.8165 42.6592 25.3549L43.7765 24.2382ZM30.3282 36.3334H22.2053C21.9544 36.3334 21.7521 36.1298 21.7521 35.8802C21.7521 35.6306 21.9556 35.427 22.2053 35.427H30.3282C30.5791 35.427 30.7814 35.6306 30.7814 35.8802C30.7814 36.1298 30.5779 36.3334 30.3282 36.3334ZM34.7961 30.8545H22.2045C21.9536 30.8545 21.7513 30.6509 21.7513 30.4013C21.7513 30.1517 21.9548 29.9481 22.2045 29.9481H34.7961C35.047 29.9481 35.2493 30.1517 35.2493 30.4013C35.2493 30.6509 35.047 30.8545 34.7961 30.8545ZM38.4859 25.3744H22.2057C21.9548 25.3744 21.7525 25.1708 21.7525 24.9212C21.7525 24.6716 21.956 24.468 22.2057 24.468H38.4874C38.7383 24.468 38.9407 24.6716 38.9407 24.9212C38.9407 25.1708 38.7371 25.3744 38.4862 25.3744H38.4859Z" fill="#26A9F3"/>
<path d="M18.8977 46.8312C17.1477 45.0673 16.1059 42.6839 15.9749 40.2256C16.654 40.9981 17.637 41.4958 18.7442 41.4958H21.9098C23.1744 41.4958 24.2038 42.5304 24.2038 43.8035V46.9828C24.2038 48.0887 24.7015 49.0717 25.4728 49.7508C23.0242 49.6129 20.6536 48.5727 18.8977 46.8311V46.8312Z" fill="#26A9F3"/>
<path d="M35.9012 43.8039C35.6852 43.1707 35.3323 42.5877 34.8498 42.1053C34.3658 41.6229 33.7816 41.2686 33.1472 41.0526L33.4485 37.6221C33.4513 37.6069 33.4597 37.5929 33.4625 37.5776L35.5446 37.9876L36.0535 40.5422C36.0896 40.7221 36.229 40.8615 36.409 40.8976L38.9635 41.4053L39.375 43.4929C39.371 43.4942 39.3666 43.497 39.361 43.497L35.9012 43.8039Z" fill="#26A9F3"/>
<path d="M43.0092 27.7563L44.0703 28.8174L35.7792 37.1085L34.0068 36.7599L43.0092 27.7563Z" fill="#26A9F3"/>
<path d="M44.712 29.459L47.4912 32.238L39.2009 40.5283L36.882 40.0666L36.4216 37.749L44.712 29.459Z" fill="#26A9F3"/>
<path d="M48.1328 32.8789L49.1955 33.9403L40.1912 42.9446L39.8411 41.1706L48.1328 32.8789Z" fill="#26A9F3"/>
<path d="M33.3596 44.0286C33.0654 44.0647 32.8883 43.811 32.9272 43.5614L33.0081 42.6354L33.0667 41.9814C33.489 42.1558 33.8769 42.4166 34.2074 42.7472C34.538 43.0777 34.7972 43.4652 34.9731 43.8864L33.3596 44.0286Z" fill="#26A9F3"/>
<path d="M52.0715 32.5325L50.9547 33.6493C50.7287 33.8765 50.3704 33.8305 50.1584 33.6185L43.3324 26.7925C43.122 26.5824 43.0731 26.2238 43.3004 25.9966L44.4172 24.8797C44.6556 24.6397 44.9902 24.7235 45.2134 24.9077L52.0407 31.735C52.253 31.9455 52.2975 32.3077 52.0715 32.5325Z" fill="#26A9F3"/>
<path d="M52.3631 30.7721L46.1758 24.5863L47.2272 23.5364C48.0959 22.6661 49.609 22.6677 50.4778 23.5364L53.413 26.4704C54.3097 27.3671 54.3097 28.8257 53.413 29.7222L52.3631 30.7721Z" fill="#26A9F3"/>
</svg>
