<svg width="70" height="70" viewBox="0 0 70 70" fill="none" xmlns="http://www.w3.org/2000/svg">
<circle opacity="0.1" cx="35" cy="35" r="35" fill="#F32626"/>
<path d="M39.1634 45.2586L33.5307 52.3649C31.9411 50.5126 28.15 46.0992 24.504 41.886L40.4693 28.7782L39.1547 45.064C39.149 45.1297 39.1524 45.1952 39.1633 45.2586L39.1634 45.2586ZM53.6566 29.4741V38.9763L42.7882 43.1864L53.6566 29.4741ZM52.9728 27.8363L40.8704 43.1049L42.1068 27.79H52.7452C52.8259 27.79 52.8982 27.8164 52.9729 27.8362L52.9728 27.8363ZM16.3818 34.9472C17.6823 36.4051 19.8246 38.8597 22.2844 41.6976L16.3818 46.5434V34.9472ZM16.3818 51.8966V48.5532L23.3018 42.872C26.0955 46.0997 29.1826 49.6849 31.864 52.8085H17.2936C16.7906 52.8085 16.3818 52.3997 16.3818 51.897V51.8966ZM52.7449 52.8081H35.1613L40.883 45.5898L53.6572 40.6415V51.8966C53.6572 52.3995 53.2483 52.8083 52.7454 52.8083L52.7449 52.8081ZM33.2056 27.7897C32.0096 30.4923 29.8119 33.5363 27.8703 35.944C27.28 36.6896 26.3946 37.1167 25.4472 37.1167C24.4998 37.1167 23.6144 36.6895 23.0164 35.944C21.0749 33.5209 18.8849 30.4769 17.6967 27.7897H17.293C16.7883 27.7897 16.3844 28.2014 16.3844 28.6983V32.6512C17.3318 33.6374 20.2596 36.9846 23.4824 40.7122L39.2235 27.7896L33.2056 27.7897Z" fill="#F32626"/>
<path d="M25.4478 17.2598C21.5259 17.2598 18.3499 20.4361 18.3499 24.35C18.3499 27.2996 22.3777 32.6601 24.2286 34.9737C24.8576 35.7581 26.0381 35.7581 26.6593 34.9737C28.497 32.6903 32.5458 27.2987 32.5458 24.35C32.5458 20.4361 29.3698 17.2598 25.4478 17.2598ZM25.4478 27.907C23.483 27.907 21.8911 26.3073 21.8911 24.3502C21.8911 22.3931 23.483 20.8012 25.4478 20.8012C27.4049 20.8012 28.9968 22.3931 28.9968 24.3502C28.9968 26.3073 27.4049 27.907 25.4478 27.907Z" fill="#F32626"/>
</svg>
