<svg width="71" height="70" viewBox="0 0 71 70" fill="none" xmlns="http://www.w3.org/2000/svg">
<circle opacity="0.1" cx="35.9331" cy="35" r="35" fill="#2CEC28"/>
<path d="M30.6707 32.5151C33.6353 35.4765 38.4507 35.4765 41.4225 32.5151C44.3943 29.5465 44.3943 24.7434 41.4225 21.7748C38.4507 18.8062 33.6425 18.8062 30.6707 21.7748C27.7061 24.7362 27.7061 29.5465 30.6707 32.5151ZM32.3446 30.843C34.3873 32.8835 37.7064 32.8835 39.7491 30.843C41.7918 28.8025 41.7918 25.4869 39.7491 23.4464C37.7064 21.4059 34.3873 21.4059 32.3446 23.4464C30.3019 25.4869 30.3019 28.8027 32.3446 30.843ZM36.0466 33.3651C32.6069 33.3651 29.8196 30.5808 29.8196 27.1447C29.8196 23.7086 32.6069 20.9243 36.0466 20.9243C39.4864 20.9243 42.2736 23.7086 42.2736 27.1447C42.2736 30.5808 39.4864 33.3651 36.0466 33.3651ZM36.5431 30.4533V30.9351C36.5431 31.2114 36.3232 31.4311 36.0466 31.4311C35.7701 31.4311 35.5502 31.2114 35.5502 30.9351V30.4533C34.4794 30.3186 33.2878 29.674 33.2878 28.5687C33.2878 28.2925 33.5077 28.0728 33.7842 28.0728C34.0608 28.0728 34.2807 28.2925 34.2807 28.5687C34.2807 28.7812 34.4437 28.9868 34.7133 29.1568C35.4296 29.6102 36.6638 29.6102 37.387 29.1568C37.6495 28.9868 37.8197 28.7812 37.8197 28.5687C37.8197 27.91 36.8977 27.7753 35.9828 27.6335C34.6352 27.4351 33.2947 27.2297 33.2947 25.7207C33.2947 24.6155 34.4862 23.9708 35.5571 23.8361V23.3543C35.5571 23.078 35.777 22.8584 36.0536 22.8584C36.3301 22.8584 36.55 23.0781 36.55 23.3543V23.8361C37.628 23.9708 38.8124 24.6155 38.8124 25.7207C38.8124 25.997 38.5925 26.2166 38.3159 26.2166C38.0394 26.2166 37.8195 25.997 37.8195 25.7207C37.8195 25.5082 37.6565 25.3026 37.3869 25.1326C36.6705 24.6792 35.4364 24.6792 34.7131 25.1326C34.4507 25.3026 34.2805 25.5082 34.2805 25.7207C34.2805 26.3726 35.2024 26.5142 36.1174 26.6488C37.4578 26.8472 38.8054 27.0526 38.8054 28.5616C38.8057 29.674 37.6213 30.3186 36.5431 30.4533ZM43.6639 39.3307C42.593 39.3519 41.5786 39.1254 40.7277 38.6719C40.5291 38.5798 40.4014 38.3601 40.444 38.1335C40.7915 36.079 42.3873 34.3218 44.3236 33.3868C45.3662 32.8838 46.4583 32.6288 47.4937 32.6075C48.5645 32.5863 49.579 32.8129 50.4299 33.2663C50.6285 33.3584 50.7561 33.5781 50.7136 33.8047C50.366 35.8593 48.7703 37.6164 46.834 38.5514C45.7916 39.0545 44.6993 39.3094 43.6639 39.3307ZM35.2386 40.5138C35.7138 40.5775 36.1536 40.7122 36.5932 40.8822V35.7102C36.1392 35.7387 35.6853 35.7315 35.2386 35.689V40.5138ZM31.3662 38.6719C29.5364 39.6497 27.196 39.4866 25.2668 38.5516C23.3235 37.6094 21.7348 35.8595 21.3872 33.8049C21.3447 33.5781 21.4723 33.3587 21.6709 33.2665C22.5221 32.8131 23.5291 32.5863 24.6071 32.6078C26.7774 32.6503 28.9759 33.713 30.3518 35.392C31.0397 36.228 31.4936 37.1845 31.6568 38.1338C31.6853 38.3602 31.5648 38.5798 31.3662 38.6719ZM24.607 41.9097H21.1675V50.4398H24.6072L24.607 41.9097ZM40.0897 44.7011L40.111 44.6445C40.2458 44.1202 39.9549 43.6739 39.4728 43.2984C38.8841 42.8449 38.026 42.4765 37.2033 42.1718C36.3309 41.8531 35.4656 41.4138 34.5508 41.4775C31.7635 41.6828 32.2034 43.1565 29.1039 43.1565C27.5082 43.1565 26.8416 42.9936 25.6075 42.8518V49.3912C30.0969 48.4844 31.629 48.6897 34.1252 49.0157C35.409 49.1857 36.9622 49.3912 39.3453 49.4832C39.7707 49.5044 47.9833 45.1543 48.2176 43.4681C48.2673 43.0856 48.0759 42.6038 47.6432 42.5472C47.4589 42.5259 47.2391 42.5684 46.9622 42.71C45.1395 43.6522 43.3594 44.7149 40.9479 45.2108C40.0401 46.9183 36.8556 45.6783 35.0118 44.8778C34.7635 44.7643 34.6502 44.474 34.7565 44.2259C34.8629 43.9778 35.1538 43.8646 35.4091 43.9709C36.9056 44.6228 38.0687 44.9912 38.8986 45.0618C39.5503 45.1122 39.9476 44.9988 40.0894 44.7013L40.0897 44.7011Z" fill="#12BF0E"/>
</svg>
