<svg width="70" height="70" viewBox="0 0 70 70" fill="none" xmlns="http://www.w3.org/2000/svg">
<circle opacity="0.1" cx="35" cy="35" r="35" fill="#F48334"/>
<g clip-path="url(#clip0_1745_7000)">
<path d="M46.2875 36.5369H46.1767C45.1666 33.0917 41.9563 30.6562 38.3242 30.6562C35.4254 30.6562 32.7894 32.1578 31.3159 34.6276C30.7208 34.4132 30.0981 34.3095 29.4618 34.3095C26.5977 34.3095 24.2246 36.4613 23.8785 39.2426C21.4086 39.1457 19.354 41.159 19.354 43.6218C19.354 46.0365 21.3189 48.0082 23.7404 48.0082H46.2879C49.4498 48.0082 52.0233 45.4346 52.0233 42.2728C52.023 39.1109 49.4494 36.5369 46.2875 36.5369Z" fill="#F48334"/>
<path d="M22.585 30.0402C22.585 31.9218 24.114 33.451 25.9958 33.451C27.8778 33.451 29.4066 31.9219 29.4066 30.0402C29.4066 28.1653 27.8775 26.6362 25.9958 26.6362C24.1141 26.6362 22.585 28.1649 22.585 30.0402Z" fill="#F48334"/>
<path d="M31.0742 23.9875L29.0817 25.9799C28.8048 26.2497 28.8048 26.6927 29.0817 26.9624C29.213 27.0937 29.393 27.1629 29.5659 27.1629C29.746 27.1629 29.9189 27.0937 30.057 26.9624L32.0563 24.9631C32.326 24.6934 32.326 24.2575 32.0563 23.9875C31.7865 23.7177 31.3439 23.7177 31.0742 23.9875Z" fill="#F48334"/>
<path d="M18.1223 30.7325H20.9452C21.3258 30.7325 21.6371 30.4279 21.6371 30.0405C21.6371 29.66 21.3258 29.3486 20.9452 29.3486H18.1223C17.7349 29.3486 17.4304 29.66 17.4304 30.0405C17.4304 30.4283 17.7349 30.7325 18.1223 30.7325Z" fill="#F48334"/>
<path d="M26.6878 24.99V22.1675C26.6878 21.7869 26.3764 21.4756 25.9959 21.4756C25.6153 21.4756 25.304 21.7869 25.304 22.1675V24.99C25.304 25.3774 25.6153 25.6819 25.9959 25.6819C26.3764 25.6819 26.6878 25.3774 26.6878 24.99Z" fill="#F48334"/>
<path d="M19.935 36.1006C20.0734 36.239 20.2531 36.3011 20.426 36.3011C20.6061 36.3011 20.779 36.2387 20.9174 36.1006L22.9099 34.1013C23.1865 33.8315 23.1865 33.3957 22.9099 33.1256C22.6402 32.8559 22.2044 32.8559 21.9343 33.1256L19.935 35.1249C19.6649 35.395 19.6649 35.8308 19.935 36.1006Z" fill="#F48334"/>
<path d="M20.9174 23.9875C20.6477 23.7177 20.2119 23.7177 19.935 23.9875C19.6652 24.2572 19.6652 24.693 19.935 24.9631L21.9343 26.9624C22.0727 27.0937 22.2456 27.1629 22.4257 27.1629C22.5985 27.1629 22.7786 27.0937 22.9099 26.9624C23.1864 26.6926 23.1864 26.2568 22.9099 25.9799L20.9174 23.9875Z" fill="#F48334"/>
<path d="M30.3542 30.0405C30.3542 30.4279 30.6656 30.7325 31.0462 30.7325H33.869C34.2564 30.7325 34.5609 30.4279 34.5609 30.0405C34.5609 29.66 34.2564 29.3486 33.869 29.3486H31.0462C30.6656 29.3486 30.3542 29.66 30.3542 30.0405Z" fill="#F48334"/>
</g>
<defs>
<clipPath id="clip0_1745_7000">
<rect width="35.454" height="35.454" fill="white" transform="translate(17 17)"/>
</clipPath>
</defs>
</svg>
