<svg width="24" height="24" viewBox="0 0 24 24" fill="none" xmlns="http://www.w3.org/2000/svg">
<path d="M13.6234 4.99963C12.8103 4.18653 11.3632 2.73921 10.9567 2.33299C11.0938 2.46979 10.6461 1.66633 12.2901 1.66633C13.5092 1.66633 13.29 0.666338 13.29 0.666338C13.29 0.666338 11.8426 1.07249 10.6234 0.666338C9.4037 0.25992 8.40207 1.333 8.40207 1.333L7.2901 0.333008C6.0704 1.14611 7.18238 2.33299 7.18238 2.33299H0V12.3329H3.28997C3.59239 12.3329 3.99343 13.0307 3.99985 13.3329C4.04308 15.3249 3.66652 15.3329 3.6233 16.6662L4.10194 16.7598C4.50194 16.7981 4.91286 16.8446 5.33526 16.9C5.35392 13.9643 6.19792 12.3332 6.9566 12.3332V14.9998V16.9998L8.66647 17.3329C8.74165 16.6662 8.81205 16.4785 8.66647 16.3329C8.33314 15.9996 8.33314 15.9996 8.28992 14.5606C8.27308 13.9974 8.62325 12.3328 8.62325 12.3328C9.95657 10.6662 9.62324 6.99955 9.62324 6.99955C9.62324 5.37344 11.2816 6.9137 11.9566 6.66622C12.3835 6.50998 13.9448 5.32119 13.6232 4.99957L13.6234 4.99963ZM9.99963 3.33298C9.81613 3.33298 9.66657 3.18394 9.66657 2.99965C9.66657 2.81536 9.81639 2.66659 9.99963 2.66659C10.1844 2.66659 10.3332 2.81537 10.3332 2.99965C10.3332 3.18393 10.1844 3.33298 9.99963 3.33298Z" fill="#D29434"/>
<path d="M23.3333 9.99158C22.7963 10.5286 21.6667 11.9916 20.3334 11.9916C19.6667 11.9916 19.247 11.987 19 11.6582C18 10.3249 17.9048 9.33203 16.3334 9.33203C15.6073 9.33203 14.6667 10.8112 14.6667 10.9987C14.6667 11.2072 14.8974 11.332 15.3334 11.332C16.3334 11.332 16.6667 11.3248 16.6667 11.9915C16.6667 12.3136 16.8334 14.0469 17.3334 14.6581C18.2974 15.8365 18.891 15.9741 19.4944 15.9893L18.8494 16.9562C19.1322 16.9167 19.4217 16.8863 19.7155 16.8599L20.0822 16.3095C22.3381 15.9479 22.6666 14.3248 22.6666 14.3248C23.6666 13.6581 23.3332 12.6581 23.3332 12.6581C24.4722 11.8984 23.713 9.61216 23.3332 9.99149L23.3333 9.99158ZM16.3332 10.6652C16.1497 10.6652 16.0001 10.5164 16.0001 10.3321C16.0001 10.1478 16.1499 9.99878 16.3332 9.99878C16.518 9.99878 16.6668 10.1478 16.6668 10.3321C16.6668 10.5164 16.518 10.6652 16.3332 10.6652ZM18.6667 13.332C20.6667 14.332 22.3333 13.332 22.3333 13.332C19.6667 16.332 17.7723 12.8848 18.6667 13.332Z" fill="#D29434"/>
<path d="M24 17.6669C19.6667 17.0002 16.6668 18.0002 13.6668 19.0002C16.6668 19.6668 17.3334 22.0002 17.3334 22.0002C13.0001 18.3335 4.33354 17.0002 0.000244141 17.3335V23.6668H24V17.6669Z" fill="#D29434"/>
</svg>
