<svg width="44" height="44" viewBox="0 0 44 44" fill="none" xmlns="http://www.w3.org/2000/svg">
<rect width="44" height="44" rx="8" fill="#003F35"/>
<path d="M31.6702 16.9499C31.0302 14.7799 29.2202 12.9699 27.0502 12.3299C25.4002 11.8499 24.2602 11.8899 23.4702 12.4799C22.5202 13.1899 22.4102 14.4699 22.4102 15.3799V17.8699C22.4102 20.3299 23.5302 21.5799 25.7302 21.5799H28.6002C29.5002 21.5799 30.7902 21.4699 31.5002 20.5199C32.1102 19.7399 32.1602 18.5999 31.6702 16.9499Z" fill="white"/>
<path d="M28.9104 23.3601C28.6504 23.0601 28.2704 22.8902 27.8804 22.8902H24.3004C22.5404 22.8902 21.1104 21.4601 21.1104 19.7001V16.1201C21.1104 15.7301 20.9404 15.3502 20.6404 15.0902C20.3504 14.8302 19.9504 14.7102 19.5704 14.7602C17.2204 15.0602 15.0604 16.3501 13.6504 18.2901C12.2304 20.2401 11.7104 22.6201 12.1604 25.0001C12.8104 28.4401 15.5604 31.1902 19.0104 31.8402C19.5604 31.9502 20.1104 32.0002 20.6604 32.0002C22.4704 32.0002 24.2204 31.4401 25.7104 30.3502C27.6504 28.9402 28.9404 26.7801 29.2404 24.4302C29.2904 24.0401 29.1704 23.6501 28.9104 23.3601Z" fill="white"/>
</svg>
