<svg width="58" height="58" viewBox="0 0 58 58" fill="none" xmlns="http://www.w3.org/2000/svg">
<path d="M29 0C33.5765 5.45742e-08 38.088 1.08312 42.1657 3.16081C46.2434 5.2385 49.7715 8.25176 52.4615 11.9542C55.1515 15.6567 56.927 19.9432 57.643 24.4634C58.3589 28.9836 57.9949 33.609 56.5806 37.9615C55.1664 42.314 52.7422 46.27 49.5061 49.5061C46.27 52.7422 42.314 55.1664 37.9615 56.5806C33.609 57.9949 28.9836 58.3589 24.4634 57.643C19.9433 56.927 15.6567 55.1515 11.9542 52.4615L29 29V0Z" fill="#165DFF"/>
<path d="M11.9542 52.4615C6.99965 48.8618 3.31184 43.786 1.41936 37.9615C-0.47312 32.137 -0.47312 25.863 1.41936 20.0385C3.31184 14.214 6.99965 9.13822 11.9542 5.53851C16.9088 1.93879 22.8758 -7.30303e-08 29 0L29 29L11.9542 52.4615Z" fill="#14C9C9"/>
</svg>
