<svg width="24" height="24" viewBox="0 0 24 24" fill="none" xmlns="http://www.w3.org/2000/svg">
<path d="M12.0303 2.18557C11.0554 2.18126 10.1435 2.69148 9.63985 3.53158C9.63266 3.54037 9.62627 3.54979 9.62036 3.55954L1.38966 17.6886C0.341215 19.4889 1.70788 21.8313 3.79086 21.8313V21.8311H3.79102H20.252C22.3348 21.8309 23.7016 19.4888 22.6532 17.6885L14.4225 3.55938C13.9527 2.7533 13.1049 2.24052 12.1748 2.18924V2.1894C12.167 2.18844 12.159 2.1878 12.1512 2.18764C12.1477 2.18748 12.1443 2.18796 12.1408 2.1878V2.18732C12.1355 2.18732 12.1303 2.18764 12.1251 2.18812C12.0935 2.18732 12.062 2.18637 12.0306 2.18637L12.0303 2.18557ZM12.0329 3.97774C12.0442 3.9779 12.0559 3.97822 12.0674 3.97854C12.4027 3.99483 12.7053 4.17726 12.8712 4.46208V4.46224C12.8722 4.46368 12.873 4.46511 12.8738 4.46655L21.1016 18.5903V18.5905C21.1109 18.6065 21.1181 18.6236 21.123 18.6415C21.2852 18.9552 21.2823 19.3026 21.1256 19.5704C20.9601 19.8525 20.6358 20.0368 20.2519 20.0368H3.79095H3.79079C3.40692 20.0368 3.0828 19.8523 2.91713 19.5704C2.75147 19.2883 2.75084 18.9169 2.94078 18.5905L11.1715 4.4614H11.1716H11.1718C11.3486 4.1582 11.6779 3.97258 12.0333 3.97688L12.0329 3.97774ZM12.0081 4.42631C11.8185 4.43063 11.6516 4.52951 11.5591 4.68813L3.32798 18.8168C3.20913 19.021 3.22127 19.2042 3.30354 19.3442C3.38581 19.4841 3.54396 19.5892 3.79045 19.5892H20.2514C20.4978 19.5892 20.6559 19.4844 20.738 19.3443C20.8201 19.2044 20.8323 19.021 20.7134 18.8169C20.7126 18.8154 20.7116 18.814 20.7108 18.8125L12.483 4.68876C12.4829 4.6886 12.4829 4.68845 12.4829 4.68845C12.3936 4.53573 12.2321 4.43637 12.0463 4.42774C12.0335 4.42726 12.0207 4.4271 12.0081 4.42726L12.0081 4.42631ZM13.2716 8.15349H13.2718H13.2726C13.3449 8.15653 13.4114 8.19423 13.451 8.25477C13.4906 8.31532 13.4988 8.39119 13.4726 8.45861C12.9919 9.69358 12.4768 11.0169 12.007 12.2241L14.7392 12.2302C14.8279 12.2303 14.9081 12.2826 14.944 12.3636C14.98 12.4446 14.9648 12.5391 14.9052 12.6048L9.53027 18.5472H9.53043C9.45807 18.627 9.33937 18.6443 9.24736 18.5882C9.15534 18.5323 9.1162 18.4189 9.1539 18.3181C9.75376 16.7192 10.3431 15.3117 10.8653 13.9019H8.73218C8.64448 13.9019 8.56493 13.8511 8.52818 13.7715C8.4916 13.692 8.50454 13.5984 8.56157 13.5319L13.0928 8.23238C13.1372 8.18046 13.2032 8.15155 13.2716 8.1541L13.2716 8.15349ZM12.5751 9.52763L9.21911 13.4529H11.192V13.4527C11.2652 13.4527 11.3337 13.4885 11.3757 13.5482C11.4177 13.6081 11.428 13.6847 11.403 13.7533C10.9792 14.9224 10.5019 16.1011 10.0167 17.3404L14.2347 12.6768L11.6789 12.6707V12.6709C11.605 12.6707 11.5358 12.6341 11.4941 12.5731C11.4524 12.5119 11.4434 12.4343 11.4703 12.3654C11.8179 11.4725 12.2004 10.4896 12.5751 9.52663L12.5751 9.52763Z" fill="#D29434"/>
</svg>
