<?xml version="1.0" encoding="UTF-8"?>
<svg width="20px" height="18px" viewBox="0 0 20 18" version="1.1" xmlns="http://www.w3.org/2000/svg" xmlns:xlink="http://www.w3.org/1999/xlink">
    <!-- Generator: Sketch 55.2 (78181) - https://sketchapp.com -->
    <title>Profile</title>
    <desc>Created with Sketch.</desc>
    <g id="Page-1" stroke="none" stroke-width="1" fill="none" fill-rule="evenodd">
        <g id="Indicator-Perspective-Copy" transform="translate(-1403.000000, -16.000000)">
            <g id="Profile" transform="translate(1398.000000, 10.000000)">
                <path d="M6.28155878,18.9279275 L5.03148723,22.6781421 C4.96898365,22.8690906 5.00023544,23.0784776 5.11899224,23.2412994 C5.23462386,23.4047462 5.42525977,23.5010017 5.62527122,23.5010017 L24.3763445,23.5010017 C24.576356,23.5010017 24.7638667,23.4047462 24.8826235,23.2412994 C24.9982551,23.0784776 25.0326321,22.8690906 24.9670033,22.6781421 L23.7169318,18.9279275 C23.651303,18.7326038 23.4950441,18.5816577 23.2981578,18.5247794 L18.9229074,17.2747079 C18.7697736,17.2315804 18.6103895,17.2468938 18.4697564,17.3165852 L15.0008079,19.0519971 L11.5287341,17.3165852 C11.3881011,17.2468938 11.228717,17.2315804 11.0787084,17.2747079 L6.70345793,18.5247794 C6.50344648,18.5816577 6.34718754,18.7326038 6.28155878,18.9279275 L6.28155878,18.9279275 Z M11.1880896,18.5435305 L14.7195418,20.3098816 C14.8945518,20.3980116 15.1039388,20.3980116 15.2789488,20.3098816 L18.8104009,18.5435305 L22.6356199,19.636093 L23.5075448,22.2509302 L6.49094577,22.2509302 L7.36287068,19.636093 L11.1880896,18.5435305 L11.1880896,18.5435305 Z M15.0008079,17.8756798 C17.5853308,17.8756798 19.6885762,15.2120898 19.6885762,11.9378399 C19.6885762,8.66390248 17.5853308,6 15.0008079,6 C12.4162849,6 10.3130395,8.66390248 10.3130395,11.9378399 C10.3130395,15.2120898 12.4162849,17.8756798 15.0008079,17.8756798 L15.0008079,17.8756798 Z M15.0008079,7.25007155 C16.8634145,7.25007155 18.4385046,9.39675693 18.4385046,11.9378399 C18.4385046,14.4789228 16.8634145,16.6256082 15.0008079,16.6256082 C13.1350761,16.6256082 11.5631111,14.4789228 11.5631111,11.9378399 C11.5631111,9.39675693 13.1350761,7.25007155 15.0008079,7.25007155 L15.0008079,7.25007155 Z" id="58" fill="#FFFFFF"></path>
                <rect id="Rectangle" opacity="0.300000012" x="0" y="0" width="30" height="30"></rect>
            </g>
        </g>
    </g>
</svg>