<svg width="96" height="94" viewBox="0 0 96 94" fill="none" xmlns="http://www.w3.org/2000/svg">
<path d="M93.2194 47C93.2194 71.5387 72.9917 91.5 47.9541 91.5C22.9165 91.5 2.68872 71.5387 2.68872 47C2.68872 22.4612 22.9165 2.5 47.9541 2.5C72.9917 2.5 93.2194 22.4612 93.2194 47Z" stroke="#00418C" stroke-width="5"/>
<ellipse opacity="0.1" cx="47.9541" cy="47" rx="37.6025" ry="37" fill="#00418C"/>
<g clip-path="url(#clip0_1518_8111)">
<path d="M58.7785 24.4838L58.7548 24.4605L58.3429 24.2733H58.3351C55.0721 22.8396 51.5955 22.1069 47.9995 22.1069C47.0569 22.1069 46.2175 22.1536 45.5048 22.2395C45.4256 22.2395 45.3387 22.2471 45.2831 22.2551C43.1685 22.4733 41.0856 22.9565 39.1375 23.6892C39.0661 23.7049 38.9714 23.7282 38.8604 23.7828C34.8686 25.3024 31.3047 27.8275 28.5483 31.0769L28.2315 31.0846V31.4586C24.6357 35.8692 22.6558 41.3944 22.6558 47.0446C22.6558 49.0162 22.8934 50.9725 23.3608 52.8504C23.3685 52.9284 23.3926 53.0139 23.4241 53.0999C25.5465 61.4773 32.0726 68.2807 40.4757 70.8519C40.5471 70.8832 40.6263 70.9142 40.7055 70.9299L40.7769 70.9532C43.1129 71.6312 45.5444 71.9819 47.9995 71.9819C61.9701 71.9819 73.3429 60.7912 73.3429 47.0443C73.3429 37.4273 67.6247 28.5824 58.7786 24.4837L58.7785 24.4838ZM47.9994 69.3253C45.9799 69.3253 43.9762 69.0602 42.0436 68.546C42.0118 68.5383 41.9722 68.5226 41.9407 68.5146C42.2338 64.2285 38.0759 61.8517 36.6977 61.1815C36.4283 61.057 36.1829 60.8385 35.9612 60.5348C34.4724 58.4696 32.6508 57.5968 31.3914 57.2304C30.33 56.9187 29.5858 55.9992 29.5225 54.9391L29.4907 54.3935C29.2609 52.6012 28.6118 51.5025 27.5822 51.1281C26.9486 50.902 26.3072 50.9956 25.7528 51.1904C25.5867 50.3408 25.4679 49.4916 25.4124 48.6576C25.4046 48.5564 25.4046 48.4705 25.3964 48.3692C26.7269 47.4264 27.2417 45.5637 27.2653 45.4625C27.289 45.3612 27.2972 45.252 27.2731 45.1431C27.2335 44.9093 27.4789 44.4104 28.3186 43.7794C28.9996 43.2572 29.4593 42.5168 29.6254 41.6829L30.4015 37.5915C30.4093 37.5369 30.4174 37.4823 30.4174 37.428L30.2827 33.2041C30.4252 33.0249 30.5599 32.8458 30.7105 32.6743C32.7064 30.3597 35.193 28.4504 37.9335 27.1023C37.2048 28.4974 36.096 30.1259 35.2804 31.186C35.0587 31.4744 35.0824 31.8874 35.3518 32.1445C35.4943 32.2927 35.6923 32.3626 35.8825 32.3626C36.0409 32.3626 36.1915 32.316 36.3259 32.2224C39.264 30.1107 45.3862 29.5262 45.4414 29.5262C45.6867 29.4949 45.9166 29.3547 46.0354 29.1442C46.1542 28.9338 46.1542 28.669 46.0431 28.4505L44.6098 25.7699L45.3304 24.9203C45.5361 24.897 45.7423 24.8657 45.948 24.85C46.6053 24.7878 47.2785 24.7565 48.0072 24.7565C51.1432 24.7565 54.1687 25.3722 57.0121 26.5954C57.1072 26.6344 57.1941 26.681 57.2893 26.72C57.3762 27.7407 57.6456 29.315 58.4299 31.0375L56.1094 31.918C55.8481 32.0116 55.555 32.0036 55.2856 31.8947C54.3275 31.5127 53.551 31.4195 52.9729 31.6453C52.6402 31.7698 52.4504 32.1052 52.5055 32.4479C52.5055 32.4792 52.9252 35.1441 51.9275 37.5057C51.262 36.1029 50.0189 34.178 48.0467 33.6948C47.841 33.6401 47.6271 33.6791 47.4528 33.7883C47.2784 33.8976 47.1597 34.0768 47.1201 34.2716L46.5102 37.529C46.4546 37.825 46.3281 38.1211 46.146 38.3629L43.9917 41.215C43.3818 42.0176 43.1364 43.0463 43.3107 44.0361L43.6275 45.8674C43.6594 46.039 43.7463 46.2025 43.8888 46.3117L45.1401 47.3325L45.1719 48.3379C45.2037 49.5534 45.9165 50.6292 47.0172 51.1434C47.8328 51.5174 48.9338 52.1798 49.5593 53.2398C50.0026 53.9878 50.7946 54.5024 51.7928 54.6816C52.7986 54.8688 53.4004 55.4922 53.638 56.6375C53.6776 56.7857 54.5725 60.2536 55.9507 62.4357C56.3308 63.0591 56.9803 63.4564 57.709 63.5424C57.8041 63.55 57.8992 63.558 57.994 63.558C58.6353 63.558 59.2534 63.3086 59.7204 62.849C61.542 61.0333 62.5715 59.5137 62.7696 58.3291L64.1082 54.9158C64.2825 54.4715 64.3854 54.012 64.409 53.5364C64.4646 52.4531 64.7021 48.7593 65.5892 46.8187C65.6684 46.6472 65.8191 46.5227 66.0089 46.4757C66.104 46.4524 66.302 46.4367 66.4919 46.5769C67.4263 47.3016 68.5037 48.5409 68.3056 50.3566C68.2738 50.6527 68.4244 50.9411 68.6857 51.0813C68.947 51.2295 69.2797 51.1982 69.5095 51.019L70.3807 50.349C68.7494 61.1968 59.2378 69.3256 47.9998 69.3256L47.9994 69.3253Z" fill="#00418C"/>
</g>
<defs>
<clipPath id="clip0_1518_8111">
<rect width="50.8142" height="50" fill="white" transform="translate(22.5469 22)"/>
</clipPath>
</defs>
</svg>
