<svg width="96" height="94" viewBox="0 0 96 94" fill="none" xmlns="http://www.w3.org/2000/svg">
<path d="M93.0307 47C93.0307 71.5387 72.803 91.5 47.7654 91.5C22.7278 91.5 2.5 71.5387 2.5 47C2.5 22.4612 22.7278 2.5 47.7654 2.5C72.803 2.5 93.0307 22.4612 93.0307 47Z" stroke="#D78203" stroke-width="5"/>
<ellipse opacity="0.1" cx="47.6025" cy="47" rx="37.6025" ry="37" fill="#D78203"/>
<path d="M30.1111 32.1113C27.292 32.1113 25 34.4033 25 37.2224V57.6669C25 60.486 27.292 62.778 30.1111 62.778H65.8889C68.708 62.778 71 60.486 71 57.6669V37.2224C71 34.4033 68.708 32.1113 65.8889 32.1113H30.1111ZM46.7222 42.3336H64.6111C65.3139 42.3336 65.8889 42.9086 65.8889 43.6113C65.8889 44.3141 65.3139 44.8891 64.6111 44.8891H46.7222C46.0194 44.8891 45.4444 44.3141 45.4444 43.6113C45.4444 42.9086 46.0194 42.3336 46.7222 42.3336ZM45.4444 51.278C45.4444 50.5752 46.0194 50.0002 46.7222 50.0002H64.6111C65.3139 50.0002 65.8889 50.5752 65.8889 51.278C65.8889 51.9808 65.3139 52.5558 64.6111 52.5558H46.7222C46.0194 52.5558 45.4444 51.9808 45.4444 51.278ZM38.0972 39.1391V40.2492C38.6962 40.345 39.2632 40.4808 39.7823 40.6245C40.6368 40.8481 41.1399 41.7266 40.9163 42.5811C40.6927 43.4356 39.8142 43.9388 38.9597 43.7151C38.0813 43.4836 37.2347 43.3158 36.4681 43.2999C35.8372 43.2919 35.1903 43.4436 34.751 43.6992C34.3677 43.9228 34.2559 44.1464 34.2559 44.4419C34.2559 44.5856 34.2639 44.7214 34.6792 44.977C35.1823 45.2804 35.917 45.512 36.9392 45.8155L36.9951 45.8315C37.8896 46.103 39.0396 46.4464 39.958 47.0294C40.9882 47.6763 41.8986 48.7304 41.9226 50.3516C41.9465 52.0207 41.084 53.2346 39.942 53.9454C39.367 54.3047 38.7281 54.5283 38.0892 54.6641V55.7502C38.0892 56.6287 37.3705 57.3474 36.492 57.3474C35.6135 57.3474 34.8948 56.6287 34.8948 55.7502V54.5842C34.0722 54.4086 33.2976 54.145 32.6427 53.9134C32.475 53.8575 32.3153 53.8016 32.1556 53.7457C31.317 53.4662 30.8698 52.5638 31.1493 51.7252C31.4288 50.8867 32.3313 50.4395 33.1698 50.719C33.3694 50.7829 33.5611 50.8547 33.7448 50.9106C34.8309 51.278 35.6615 51.5575 36.5479 51.5895C37.2347 51.6134 37.8656 51.4617 38.2569 51.2141C38.5844 51.0145 38.7361 50.7749 38.7281 50.3756C38.7281 50.144 38.6642 49.9763 38.2569 49.7207C37.7538 49.4013 37.0271 49.1697 36.0208 48.8662L35.8851 48.8263C35.0146 48.5627 33.9205 48.2353 33.042 47.7082C32.0278 47.0933 31.0774 46.0711 31.0694 44.4579C31.0615 42.7728 32.0118 41.6068 33.1299 40.952C33.6809 40.6245 34.2878 40.4089 34.9028 40.2731V39.1391C34.9028 38.2606 35.6215 37.5419 36.5 37.5419C37.3785 37.5419 38.0972 38.2606 38.0972 39.1391Z" fill="#D78203"/>
</svg>
