<svg width="96" height="94" viewBox="0 0 96 94" fill="none" xmlns="http://www.w3.org/2000/svg">
<path d="M93.0307 47C93.0307 71.5387 72.803 91.5 47.7654 91.5C22.7278 91.5 2.5 71.5387 2.5 47C2.5 22.4612 22.7278 2.5 47.7654 2.5C72.803 2.5 93.0307 22.4612 93.0307 47Z" stroke="#003F35" stroke-width="5"/>
<ellipse opacity="0.1" cx="47.6025" cy="47" rx="37.6025" ry="37" fill="#003F35"/>
<path d="M66.375 30.5H49.6875V27.5C49.6875 27.2937 49.5187 27.125 49.3125 27.125H46.6875C46.4813 27.125 46.3125 27.2937 46.3125 27.5V30.5H29.625C28.7953 30.5 28.125 31.1703 28.125 32V56.375C28.125 57.2047 28.7953 57.875 29.625 57.875H46.3312V59.375L38.6063 64.4422C38.4328 64.5547 38.3859 64.7844 38.4984 64.9578L39.9188 67.1703V67.175C40.0313 67.3484 40.2656 67.3953 40.4391 67.2828L48 62.3234L55.5609 67.2828C55.7344 67.3953 55.9688 67.3484 56.0813 67.175V67.1703L57.5016 64.9578C57.6141 64.7844 57.5625 64.5547 57.3938 64.4422L49.6875 59.3891V57.875H66.375C67.2047 57.875 67.875 57.2047 67.875 56.375V32C67.875 31.1703 67.2047 30.5 66.375 30.5Z" fill="#003F35"/>
<path d="M38.6296 50.7268C38.775 50.8721 39.014 50.8721 39.1593 50.7268L43.9312 45.9549L47.9671 49.9955C48.1125 50.1408 48.3515 50.1408 48.4968 49.9955L59.1046 39.3783C59.25 39.233 59.25 38.9939 59.1046 38.8486L57.3796 37.1236C57.2343 36.9783 56.9953 36.9783 56.85 37.1236L48.2343 45.7486L44.1984 41.708C44.0531 41.5627 43.814 41.5627 43.6687 41.708L36.9046 48.4721C36.7593 48.6174 36.7593 48.8564 36.9046 49.0018L38.6296 50.7268Z" fill="white"/>
</svg>
