<svg width="96" height="94" viewBox="0 0 96 94" fill="none" xmlns="http://www.w3.org/2000/svg">
<path d="M93.0307 47C93.0307 71.5387 72.803 91.5 47.7654 91.5C22.7278 91.5 2.5 71.5387 2.5 47C2.5 22.4612 22.7278 2.5 47.7654 2.5C72.803 2.5 93.0307 22.4612 93.0307 47Z" stroke="#5D06CB" stroke-width="5"/>
<ellipse opacity="0.1" cx="47.6025" cy="47" rx="37.6025" ry="37" fill="#5D06CB"/>
<path d="M54 33.7998C54 35.3911 53.3679 36.9172 52.2427 38.0424C51.1175 39.1677 49.5913 39.7998 48 39.7998C46.4087 39.7998 44.8826 39.1677 43.7574 38.0424C42.6322 36.9172 42 35.3911 42 33.7998C42 32.2085 42.6322 30.6824 43.7574 29.5572C44.8826 28.4319 46.4087 27.7998 48 27.7998C49.5913 27.7998 51.1175 28.4319 52.2427 29.5572C53.3679 30.6824 54 32.2085 54 33.7998ZM66 34.9998C66 36.2728 65.4943 37.4937 64.5942 38.3939C63.694 39.2941 62.4731 39.7998 61.2 39.7998C59.927 39.7998 58.7061 39.2941 57.8059 38.3939C56.9058 37.4937 56.4 36.2728 56.4 34.9998C56.4 33.7268 56.9058 32.5059 57.8059 31.6057C58.7061 30.7055 59.927 30.1998 61.2 30.1998C62.4731 30.1998 63.694 30.7055 64.5942 31.6057C65.4943 32.5059 66 33.7268 66 34.9998ZM34.8 39.7998C36.0731 39.7998 37.294 39.2941 38.1942 38.3939C39.0943 37.4937 39.6 36.2728 39.6 34.9998C39.6 33.7268 39.0943 32.5059 38.1942 31.6057C37.294 30.7055 36.0731 30.1998 34.8 30.1998C33.527 30.1998 32.3061 30.7055 31.4059 31.6057C30.5058 32.5059 30 33.7268 30 34.9998C30 36.2728 30.5058 37.4937 31.4059 38.3939C32.3061 39.2941 33.527 39.7998 34.8 39.7998ZM38.4 45.1998C38.4 43.5438 39.744 42.1998 41.4 42.1998H54.6C55.3019 42.1995 55.9816 42.4452 56.5209 42.8942C57.0603 43.3432 57.4252 43.9672 57.552 44.6574C55.1673 44.8834 52.889 45.754 50.9613 47.1759C49.0337 48.5979 47.5292 50.5176 46.6093 52.7293C45.6894 54.9411 45.3887 57.3614 45.7394 59.731C46.0901 62.1006 47.079 64.3301 48.6 66.1806C47.2914 66.2626 45.9799 66.0756 44.7463 65.6311C43.5127 65.1867 42.3832 64.4943 41.4275 63.5967C40.4718 62.699 39.7101 61.615 39.1895 60.4116C38.6688 59.2083 38.4001 57.911 38.4 56.5998V45.1998ZM59.9736 44.6502C62.7072 44.8902 65.2008 45.9654 67.2 47.6166V45.1998C67.2 43.5438 65.856 42.1998 64.2 42.1998H59.0904C59.5704 42.915 59.8824 43.7502 59.9712 44.6502H59.9736ZM36 45.1998C36 44.0886 36.336 43.059 36.9096 42.1998H31.8C30.144 42.1998 28.8 43.5438 28.8 45.1998V54.1998C28.7999 55.2273 29.0197 56.2429 29.4447 57.1784C29.8696 58.1139 30.4899 58.9476 31.2638 59.6235C32.0377 60.2994 32.9472 60.8018 33.9314 61.097C34.9156 61.3922 35.9515 61.4734 36.9696 61.335C36.3275 59.839 35.9976 58.2277 36 56.5998V45.1998ZM69.6 57.7998C69.6 60.6641 68.4622 63.4112 66.4368 65.4366C64.4114 67.4619 61.6644 68.5998 58.8 68.5998C55.9357 68.5998 53.1887 67.4619 51.1633 65.4366C49.1379 63.4112 48 60.6641 48 57.7998C48 54.9355 49.1379 52.1884 51.1633 50.163C53.1887 48.1377 55.9357 46.9998 58.8 46.9998C61.6644 46.9998 64.4114 48.1377 66.4368 50.163C68.4622 52.1884 69.6 54.9355 69.6 57.7998ZM60 52.9998C60 52.6815 59.8736 52.3763 59.6486 52.1513C59.4235 51.9262 59.1183 51.7998 58.8 51.7998C58.4818 51.7998 58.1766 51.9262 57.9515 52.1513C57.7265 52.3763 57.6 52.6815 57.6 52.9998V56.5998H54C53.6818 56.5998 53.3766 56.7262 53.1515 56.9513C52.9265 57.1763 52.8 57.4815 52.8 57.7998C52.8 58.1181 52.9265 58.4233 53.1515 58.6483C53.3766 58.8734 53.6818 58.9998 54 58.9998H57.6V62.5998C57.6 62.9181 57.7265 63.2233 57.9515 63.4483C58.1766 63.6734 58.4818 63.7998 58.8 63.7998C59.1183 63.7998 59.4235 63.6734 59.6486 63.4483C59.8736 63.2233 60 62.9181 60 62.5998V58.9998H63.6C63.9183 58.9998 64.2235 58.8734 64.4486 58.6483C64.6736 58.4233 64.8 58.1181 64.8 57.7998C64.8 57.4815 64.6736 57.1763 64.4486 56.9513C64.2235 56.7262 63.9183 56.5998 63.6 56.5998H60V52.9998Z" fill="#5D06CB"/>
</svg>
