<svg width="62" height="62" viewBox="0 0 62 62" fill="none" xmlns="http://www.w3.org/2000/svg">
<path d="M13.8241 20.9795H5.8125C4.74245 20.9795 3.875 21.8469 3.875 22.917V53.3648C3.875 54.4349 4.74245 55.3023 5.8125 55.3023H13.8241C14.8941 55.3023 15.7616 54.4349 15.7616 53.3648V22.917C15.7616 21.8469 14.8941 20.9795 13.8241 20.9795Z" fill="white"/>
<path d="M27.9466 37.978H19.9351C19.6806 37.9779 19.4286 38.028 19.1935 38.1254C18.9584 38.2227 18.7448 38.3654 18.5649 38.5453C18.3849 38.7253 18.2422 38.9389 18.1449 39.174C18.0475 39.4091 17.9975 39.6611 17.9976 39.9155V53.3715C17.9975 53.6259 18.0475 53.8779 18.1449 54.113C18.2422 54.3481 18.3849 54.5617 18.5649 54.7417C18.7448 54.9216 18.9584 55.0643 19.1935 55.1616C19.4286 55.259 19.6806 55.309 19.9351 55.309H27.9466C28.46 55.3075 28.952 55.1029 29.315 54.7398C29.678 54.3768 29.8826 53.8849 29.8841 53.3715V39.9155C29.8826 39.4021 29.678 38.9102 29.315 38.5472C28.952 38.1841 28.46 37.9795 27.9466 37.978Z" fill="white"/>
<path d="M56.1878 45.4329H48.1763C47.1062 45.4329 46.2388 46.3003 46.2388 47.3704V53.3669C46.2388 54.437 47.1062 55.3044 48.1763 55.3044H56.1878C57.2579 55.3044 58.1253 54.437 58.1253 53.3669V47.3704C58.1253 46.3003 57.2579 45.4329 56.1878 45.4329Z" fill="white"/>
<path d="M42.0616 33.3311H34.05C33.5367 33.3326 33.0447 33.5372 32.6817 33.9002C32.3187 34.2632 32.1141 34.7552 32.1125 35.2686V53.3648C32.114 53.8782 32.3186 54.3701 32.6817 54.7332C33.0447 55.0962 33.5367 55.3008 34.05 55.3023H42.0616C42.3161 55.3024 42.568 55.2523 42.8032 55.155C43.0383 55.0576 43.2519 54.9149 43.4318 54.735C43.6117 54.5551 43.7544 54.3414 43.8518 54.1063C43.9491 53.8712 43.9992 53.6193 43.9991 53.3648V35.2686C43.9992 35.0141 43.9491 34.7621 43.8518 34.527C43.7544 34.2919 43.6117 34.0783 43.4318 33.8984C43.2519 33.7184 43.0382 33.5757 42.8031 33.4784C42.568 33.381 42.3161 33.331 42.0616 33.3311Z" fill="white"/>
<path d="M10.2506 12.5029C10.662 12.5024 11.0684 12.4132 11.4421 12.2414L21.9143 23.5176C21.7612 23.9194 21.6993 24.3502 21.7332 24.7788C21.767 25.2075 21.8958 25.6232 22.1101 25.9959C22.3244 26.3687 22.6189 26.6892 22.9722 26.9341C23.3256 27.179 23.729 27.3423 24.1533 27.4122C24.5775 27.482 25.012 27.4567 25.4253 27.3379C25.8385 27.2192 26.2202 27.0101 26.5427 26.7257C26.8652 26.4413 27.1204 26.0888 27.2899 25.6937C27.4593 25.2985 27.5388 24.8706 27.5226 24.441C27.5247 24.4435 36.4065 19.8065 36.4068 19.817C36.8584 20.2674 37.4447 20.5581 38.0765 20.6451C38.7084 20.732 39.3514 20.6104 39.9078 20.2987L51.637 31.7797C51.1764 32.2792 50.9056 32.9244 50.8718 33.603C50.8379 34.2816 51.0433 34.9506 51.452 35.4933C51.8607 36.0361 52.4468 36.4183 53.1083 36.5734C53.7699 36.7284 54.4648 36.6464 55.0721 36.3418C55.6794 36.0371 56.1606 35.529 56.4318 34.906C56.703 34.2831 56.7471 33.5847 56.5564 32.9326C56.3656 32.2805 55.9521 31.7159 55.3879 31.3373C54.8237 30.9587 54.1446 30.7901 53.4688 30.8607L41.1739 18.8261C41.3103 18.4919 41.3792 18.1339 41.3765 17.7729C41.373 17.382 41.2905 16.9959 41.1341 16.6376C40.9777 16.2794 40.7505 15.9564 40.4661 15.6882C40.1818 15.4199 39.8462 15.2119 39.4794 15.0765C39.1127 14.9411 38.7224 14.8813 38.332 14.9005C37.9415 14.9197 37.559 15.0176 37.2073 15.1883C36.8556 15.359 36.5421 15.599 36.2854 15.8938C36.0288 16.1887 35.8344 16.5324 35.7139 16.9043C35.5933 17.2761 35.5492 17.6685 35.5841 18.0579L26.8014 22.6325C26.3586 22.1361 25.7598 21.8054 25.1038 21.6951C24.4478 21.5848 23.7739 21.7014 23.1931 22.0257L12.8468 10.9045C13.1315 10.3395 13.2241 9.69706 13.1105 9.07469C12.9968 8.45232 12.6832 7.88403 12.2172 7.4561C11.7512 7.02818 11.1583 6.764 10.5286 6.70367C9.89879 6.64335 9.26653 6.79018 8.72779 7.12187C8.18905 7.45356 7.77326 7.95198 7.54355 8.54147C7.31384 9.13095 7.28276 9.77929 7.45503 10.388C7.6273 10.9968 7.99351 11.5327 8.49806 11.9144C9.0026 12.2961 9.61792 12.5027 10.2506 12.5029Z" fill="white"/>
</svg>
