<svg width="96" height="94" viewBox="0 0 96 94" fill="none" xmlns="http://www.w3.org/2000/svg">
<path d="M93.0307 47C93.0307 71.5388 72.8029 91.5 47.7654 91.5C22.7278 91.5 2.5 71.5388 2.5 47C2.5 22.4612 22.7278 2.5 47.7654 2.5C72.8029 2.5 93.0307 22.4612 93.0307 47Z" stroke="#5D7D02" stroke-width="5"/>
<ellipse opacity="0.1" cx="47.7654" cy="47" rx="37.6025" ry="37" fill="#5D7D02"/>
<path d="M51.0218 32.2793C49.6249 32.3074 48.6218 32.5793 47.9562 33.0668L38.8343 37.9512L33.7624 44.8502C32.6937 46.5002 33.453 49.6877 36.7905 47.644L40.4468 42.8252C45.0874 38.823 54.5562 40.6596 50.0655 48.694C47.8624 53.344 48.8937 55.6127 51.7343 56.569L53.028 52.219C55.2687 47.1752 59.4499 46.2659 59.2812 42.1971L69.3312 42.919L69.2374 32.4105L51.0218 32.2793ZM45.9499 41.9721C44.3187 41.944 42.7155 42.619 41.553 43.594L37.8874 48.4127C38.8905 49.2096 39.903 48.7784 40.9062 47.8127C42.0874 48.4127 43.0062 47.4846 43.7562 45.6284C44.0655 44.3627 44.5249 43.4721 45.9499 41.9721ZM38.4874 50.9721C38.4499 50.9721 38.403 50.9721 38.3655 50.9815C38.0562 51.0471 37.6905 51.3752 37.4468 52.1252C37.1937 52.8752 37.1374 53.944 37.3624 55.0877C37.5874 56.2221 38.0562 57.1877 38.5812 57.7877C39.0874 58.3784 39.5562 58.5471 39.8655 58.4815C40.1843 58.4252 40.5405 58.0877 40.7843 57.3471C41.0374 56.5971 41.103 55.519 40.878 54.3846C40.6437 53.2409 40.1749 52.2752 39.6593 51.6846C39.2093 51.1596 38.7968 50.9721 38.4874 50.9721ZM46.2312 60.9846C45.4905 60.994 44.5624 61.2284 43.653 61.669C42.6124 62.1846 41.7968 62.8971 41.3562 63.5534C40.9155 64.2002 40.878 64.6877 41.0187 64.9784C41.1593 65.2596 41.5718 65.5315 42.3593 65.569C43.1468 65.6159 44.2062 65.4002 45.2468 64.8846C46.2874 64.369 47.103 63.6659 47.5437 63.0096C47.9843 62.3627 48.0218 61.8659 47.8812 61.5846C47.7405 61.294 47.328 61.0315 46.5405 60.994C46.4374 60.9846 46.3437 60.9846 46.2312 60.9846ZM37.0812 69.9471C36.6405 69.9565 36.2374 70.0221 35.8812 70.1252C35.0843 70.3596 34.6249 70.7815 34.4749 71.2784C34.3155 71.7846 34.4749 72.3846 35.0093 73.0315C35.553 73.669 36.4624 74.2784 37.5874 74.6159C38.703 74.9534 39.7905 74.944 40.5968 74.7002C41.403 74.4659 41.8624 74.044 42.0124 73.5471C42.1624 73.0409 42.0124 72.4409 41.4687 71.794C40.9343 71.1565 40.0249 70.5471 38.8999 70.2096C38.2624 70.0221 37.6437 69.9377 37.0812 69.9471Z" fill="#5D7D02"/>
</svg>
