<svg width="52" height="53" viewBox="0 0 52 53" fill="none" xmlns="http://www.w3.org/2000/svg">
<path d="M50.4705 26.4999C50.4705 32.3881 48.4058 37.7793 44.9264 41.9852L44.1234 42.9028C43.9322 43.094 43.7411 43.2852 43.5499 43.5146C42.2499 44.8528 40.7969 46.0764 39.1911 47.0705C36.744 48.6381 34.0293 49.7852 31.0852 50.4352C30.7411 50.5117 30.3969 50.5881 30.0146 50.6264C28.6764 50.8558 27.3381 50.9705 25.9617 50.9705C23.6293 50.9705 21.3352 50.6264 19.194 50.0146C18.1999 49.7087 17.244 49.4028 16.2881 48.9822C15.0264 48.4469 13.8411 47.7969 12.7322 47.0705C11.1264 46.0381 9.67341 44.8528 8.37341 43.5146C8.18224 43.3234 7.99106 43.1322 7.79989 42.9028C6.99694 42.0234 6.27047 41.1058 5.62047 40.1116C3.05871 36.2499 1.5293 31.5469 1.5293 26.4999C1.5293 21.2999 3.17341 16.4822 5.92636 12.5058C6.69106 11.4352 7.494 10.4411 8.41165 9.48518C10.8205 6.99989 13.7264 5.04989 16.9764 3.74989C17.2822 3.63518 17.5499 3.52047 17.8558 3.444C18.1234 3.3293 18.4293 3.25283 18.6969 3.17636C19.0028 3.06165 19.3469 2.98518 19.6528 2.90871C20.4558 2.71753 21.2587 2.52636 22.0617 2.41165C23.3617 2.144 24.6616 2.0293 25.9999 2.0293C27.9881 2.0293 29.9381 2.25871 31.8116 2.71753C32.0028 2.75577 32.1558 2.794 32.3469 2.83224C33.1499 3.06165 33.9528 3.29106 34.7558 3.59694C38.1205 4.89694 41.1411 6.88518 43.6264 9.44694C44.544 10.4028 45.3852 11.3969 46.1116 12.4675C46.2264 12.6205 46.3028 12.7352 46.3793 12.8881C48.9411 16.7881 50.4705 21.4528 50.4705 26.4999Z" fill="#F37C5A"/>
<path d="M38.3499 15.8323V43.4764H13.6499V9.52344H32.0411L38.3499 15.8323Z" fill="#F3F3F3"/>
<path d="M38.3501 15.8323H32.0412V9.52344L38.3501 15.8323ZM15.9824 12.6587H29.4795V13.6146H15.9824V12.6587ZM15.9824 15.3734H29.4795V16.3293H15.9824V15.3734ZM15.9824 18.0499H36.056V19.0058H15.9824V18.0499ZM15.9824 20.7264H36.056V21.6823H15.9824V20.7264ZM15.9824 23.4411H36.056V24.397H15.9824V23.4411ZM15.9824 26.1176H36.056V27.0734H15.9824V26.1176ZM15.9824 28.794H36.056V29.7499H15.9824V28.794Z" fill="#DAD9D8"/>
<path d="M36.5528 27.6854V25.2765L34.2205 24.8942C34.144 24.5118 34.0293 24.0912 33.9146 23.7471L35.7499 22.2559L34.5646 20.1912L32.347 21.0324C32.0793 20.7265 31.8117 20.4589 31.5058 20.1912L32.347 17.9736L30.2823 16.7883L28.7911 18.6236C28.4087 18.5089 28.0264 18.3942 27.6058 18.3177L27.2234 15.9854H24.8146L24.4323 18.3177C24.0499 18.3942 23.6293 18.5089 23.2852 18.6236L21.794 16.7883L19.7293 17.9736L20.5705 20.1912C20.2646 20.4589 19.997 20.7265 19.7293 21.0324L17.5117 20.1912L16.3264 22.2559L18.1617 23.7471C18.047 24.1295 17.9323 24.5118 17.8558 24.8942L15.5234 25.2765V27.6854L17.8558 28.0677C17.9323 28.4883 18.047 28.8706 18.1617 29.253L16.3264 30.7442L17.5117 32.8089L19.7293 31.9677C19.997 32.2736 20.2646 32.5412 20.5705 32.8089L19.7293 35.0265L21.794 36.2118L23.2852 34.3765C23.6676 34.5295 24.0499 34.6059 24.4323 34.6824L24.8146 37.0148H27.2234L27.6058 34.6824C28.0264 34.6059 28.4087 34.4912 28.7911 34.3765L30.2823 36.2118L32.347 35.0265L31.5058 32.8089C31.8117 32.5412 32.0793 32.2736 32.347 31.9677L34.5646 32.8089L35.7499 30.7442L33.9146 29.253C34.0676 28.8706 34.144 28.4883 34.2205 28.0677L36.5528 27.6854ZM25.9999 31.2795C23.3617 31.2795 21.2205 29.1383 21.2205 26.5001C21.2205 23.8618 23.3617 21.7206 25.9999 21.7206C28.6381 21.7206 30.7793 23.8618 30.7793 26.5001C30.7793 29.1383 28.6381 31.2795 25.9999 31.2795Z" fill="#474F59"/>
<path d="M41.9823 17.2085V38.4291H10.0176V14.5703H22.7117L24.2029 17.2085H41.9823Z" fill="#F6BB53"/>
<path d="M41.9825 38.4298H10.0178L8.2207 20.6504H43.7795L41.9825 38.4298Z" fill="#FDDA7F"/>
<path d="M27.5813 37.3232H26.0137L26.0137 16.5615H27.5813L27.5813 37.3232Z" fill="#474F59"/>
<path d="M25.9863 37.3232H24.4187L24.4187 16.5615H25.9863L25.9863 37.3232Z" fill="#25313B"/>
<path d="M27.5676 37.9258H24.3941V37.3523H27.5676V37.9258Z" fill="#FDDA7F"/>
<path d="M25.4647 40.1503H26.5735C27.1471 40.1503 27.6059 39.6914 27.6059 39.1179V37.9326H24.4324V39.1179C24.4324 39.6914 24.8912 40.1503 25.4647 40.1503Z" fill="#7DCEDC"/>
<path d="M26 12.8496L25.4265 14.2261H26.5736L26 12.8496Z" fill="#474F59"/>
<path d="M27.5677 16.5589L26.5735 14.2266H25.4265L24.4324 16.5589H27.5677Z" fill="#FDDA7F"/>
</svg>
