<svg width="79" height="79" viewBox="0 0 79 79" fill="none" xmlns="http://www.w3.org/2000/svg">
<path d="M13.2959 39.0043C13.2959 38.791 13.4618 38.6172 13.6751 38.6172H23.5343C23.7476 38.6172 23.9135 38.791 23.9135 39.0043C23.9135 39.2176 23.7476 39.3914 23.5343 39.3914H13.6751C13.4618 39.3914 13.2959 39.2176 13.2959 39.0043Z" fill="#4C9F74"/>
<path d="M13.6751 39.3914H23.5343C23.7476 39.3914 23.9135 39.2176 23.9135 39.0043C23.9135 38.791 23.7476 38.6172 23.5343 38.6172H13.6751C13.4618 38.6172 13.2959 38.791 13.2959 39.0043C13.2959 39.2176 13.4618 39.3914 13.6751 39.3914Z" fill="#4C9F74"/>
<path d="M7.20496 44.903H22.4678C22.6811 44.903 22.8549 44.7371 22.8549 44.5238C22.8549 44.3105 22.6811 44.1367 22.4678 44.1367H7.20496C6.99165 44.1367 6.81787 44.3105 6.81787 44.5238C6.81787 44.7371 6.99165 44.903 7.20496 44.903Z" fill="#4C9F74"/>
<path d="M23.8818 50.0394C23.8818 49.8262 23.7159 49.6523 23.4947 49.6523H4.56634C4.35302 49.6523 4.1792 49.8262 4.1792 50.0394C4.1792 50.2528 4.35302 50.4266 4.56634 50.4266H23.4947C23.7159 50.4266 23.8818 50.2528 23.8818 50.0394Z" fill="#4C9F74"/>
<path d="M25.4935 54.5898H13.6751C13.4618 54.5898 13.2959 54.7637 13.2959 54.9769C13.2959 55.1903 13.4618 55.3641 13.6751 55.3641H25.4935C25.7068 55.3641 25.8806 55.1903 25.8806 54.9769C25.8806 54.7637 25.7068 54.5898 25.4935 54.5898Z" fill="#4C9F74"/>
<path d="M61.1142 30.0512C60.9009 30.0512 60.6955 30.0512 60.4822 30.0591C58.3887 24.9636 53.3327 21.5508 47.8027 21.5508C40.7243 21.5508 34.7914 26.9939 34.1515 34.0012C28.5583 35.0519 24.5293 39.9025 24.5293 45.6221C24.5293 52.1475 29.8381 57.4563 36.3556 57.4563H61.1142C68.6745 57.4563 74.8207 51.3101 74.8207 43.7498C74.8207 36.1974 68.6745 30.0512 61.1142 30.0512Z" fill="#4C9F74"/>
</svg>
