<svg width="36" height="36" viewBox="0 0 36 36" fill="none" xmlns="http://www.w3.org/2000/svg"><path fill-rule="evenodd" clip-rule="evenodd" d="M17.9584 35.708C8.19071 35.708.291626 27.785.291625 17.9997V16.0266L1.6547 16.2999C1.7269 16.3144 1.79254 16.3278 1.85292 16.3402 2.18947 16.4089 2.3624 16.4442 2.59351 16.4442 4.02238 16.4442 5.20017 15.575 5.69593 14.3946L6.08757 13.4621 7.05986 13.7406c.4835.138499999999999.95938.2058 1.43046.2058 3.02258.0 5.50518-2.4848 5.50518-5.52189C13.9955 7.9478 13.9288 7.53472 13.8448 7.02934L13.7178 6.2655 14.3813 5.86637C15.2722 5.33053 15.9147 4.28559 15.9886 3.06722 15.9835 2.70604 15.8823 2.37723 15.7147 1.87315L15.3081.650195 16.5717.396836c.5275-.105753 1.0399-.105611 1.4329-.105504L18.0415.29134c9.7677.0 17.6668 7.92305 17.6668 17.70836.0 9.7927-7.9896 17.7083-17.7499 17.7083zM2.58643 18.7225c.37576 8.1958 7.10941 14.7072 15.37197 14.7072 8.5116.0 15.4716-6.905 15.4716-15.43.0-8.46786-6.7806-15.32557-15.1957-15.42891C18.2549 2.73864 18.267 2.91385 18.267 3.09572V3.1256L18.2655 3.15544C18.1785 4.81232 17.4196 6.35187 16.2006 7.36124 16.2425 7.68459 16.2737 8.03839 16.2737 8.42451c0 4.28999-3.4972 7.80009-7.78338 7.80009C8.1069 16.2246 7.72496 16.1941 7.34497 16.1338c-.98646 1.5336-2.71981 2.5887-4.75146 2.5887C2.59115 18.7225 2.58878 18.7225 2.58643 18.7225z" fill="#fff"/><path d="M11.4052 2.5294c0-1.17895-.9557-2.134671-2.13467-2.134671-1.17894.0-2.13467.955721-2.13467 2.134671.0 1.17894.95573 2.13466 2.13467 2.13466 1.17897.0 2.13467-.95572 2.13467-2.13466z" fill="#fff"/><path d="M10.2426 9.19713C10.2426 8.33923 9.54712 7.64376 8.68923 7.64376c-.8579.0-1.55337.69547-1.55337 1.55337.0.85787.69547 1.55337 1.55337 1.55337C9.54712 10.7505 10.2426 10.055 10.2426 9.19713z" fill="#fff"/><path d="M4.12412 10.2803c0-.88416-.71679-1.60095-1.601-1.60095S.922119 9.39614.922119 10.2803c0 .8843.716791 1.601 1.601001 1.601S4.12412 11.1646 4.12412 10.2803z" fill="#fff"/><path d="M16.7148 17.2523l1.016 1.8501L18.35 20.2155 23.1603 12h3.7149L20.1439 23.4923H16.429l-3.4291-6.24h3.7149z" fill="#fff"/><path d="M19.9414 25.7905H16.4725v3.4477h3.4689V25.7905z" fill="#fff"/></svg>