<svg width="24" height="24" viewBox="0 0 24 24" fill="none" xmlns="http://www.w3.org/2000/svg">
<circle cx="12" cy="12" r="12" fill="#53AA7E"/>
<g clip-path="url(#clip0_423_1389)">
<path d="M18.875 16.2738V15.1249C18.875 15.0586 18.8487 14.9951 18.8018 14.9482C18.7549 14.9013 18.6913 14.8749 18.625 14.8749H16.625V14.105C17.0441 14.0449 17.4271 13.8348 17.7029 13.5137C17.9788 13.1925 18.1287 12.7822 18.1249 12.3589C18.1211 11.9356 17.9638 11.528 17.6822 11.2119C17.4006 10.8958 17.0138 10.6926 16.5938 10.6401V9.49994C16.5938 9.43364 16.5674 9.37005 16.5205 9.32317C16.4736 9.27629 16.4101 9.24995 16.3438 9.24994H12.25V8.47998C12.6879 8.41677 13.0856 8.19005 13.3631 7.84544C13.6405 7.50082 13.7772 7.0639 13.7455 6.6226C13.7138 6.1813 13.5162 5.76838 13.1923 5.46695C12.8685 5.16551 12.4424 4.99792 12 4.99792C11.5576 4.99792 11.1316 5.16551 10.8077 5.46695C10.4838 5.76838 10.2862 6.1813 10.2545 6.6226C10.2228 7.0639 10.3595 7.50082 10.6369 7.84544C10.9144 8.19005 11.3121 8.41677 11.75 8.47998V9.24994H7.65625C7.58995 9.24995 7.52636 9.27629 7.47948 9.32317C7.4326 9.37005 7.40626 9.43364 7.40625 9.49994V10.6401C6.98617 10.6926 6.59942 10.8958 6.31782 11.2119C6.03621 11.528 5.87889 11.9356 5.87507 12.3589C5.87126 12.7822 6.0212 13.1925 6.29706 13.5137C6.57291 13.8348 6.95594 14.0449 7.375 14.105V14.8749H5.375C5.3087 14.8749 5.24511 14.9013 5.19823 14.9482C5.15135 14.9951 5.12501 15.0586 5.125 15.1249V16.2738C4.78778 16.3362 4.48602 16.5223 4.27895 16.7957C4.07188 17.069 3.97444 17.4099 4.00574 17.7514C4.03705 18.0929 4.19485 18.4104 4.44817 18.6416C4.7015 18.8728 5.03206 19.0009 5.375 19.0009C5.71795 19.0009 6.04851 18.8728 6.30183 18.6416C6.55516 18.4104 6.71295 18.0929 6.74426 17.7514C6.77557 17.4099 6.67813 17.069 6.47105 16.7957C6.26398 16.5223 5.96223 16.3362 5.625 16.2738V15.3749H9.625V16.2738C9.28778 16.3362 8.98602 16.5223 8.77895 16.7957C8.57188 17.069 8.47444 17.4099 8.50574 17.7514C8.53705 18.0929 8.69485 18.4104 8.94817 18.6416C9.2015 18.8728 9.53206 19.0009 9.875 19.0009C10.2179 19.0009 10.5485 18.8728 10.8018 18.6416C11.0552 18.4104 11.213 18.0929 11.2443 17.7514C11.2756 17.4099 11.1781 17.069 10.9711 16.7957C10.764 16.5223 10.4622 16.3362 10.125 16.2738V15.1249C10.125 15.0586 10.0987 14.9951 10.0518 14.9482C10.0049 14.9013 9.94131 14.8749 9.875 14.8749H7.875V14.105C8.28867 14.0458 8.66742 13.8403 8.9426 13.5258C9.21777 13.2113 9.37115 12.8086 9.37493 12.3908C9.37871 11.9729 9.23264 11.5675 8.96319 11.2481C8.69375 10.9287 8.31878 10.7164 7.90625 10.6497V9.74994H16.0938V10.6497C15.6812 10.7164 15.3063 10.9287 15.0368 11.2481C14.7674 11.5675 14.6213 11.9729 14.6251 12.3908C14.6289 12.8086 14.7822 13.2113 15.0574 13.5258C15.3326 13.8403 15.7113 14.0458 16.125 14.105V14.8749H14.125C14.0587 14.8749 13.9951 14.9013 13.9482 14.9482C13.9013 14.9951 13.875 15.0586 13.875 15.1249V16.2738C13.5378 16.3362 13.236 16.5223 13.029 16.7957C12.8219 17.069 12.7244 17.4099 12.7557 17.7514C12.7871 18.0929 12.9448 18.4104 13.1982 18.6416C13.4515 18.8728 13.7821 19.0009 14.125 19.0009C14.4679 19.0009 14.7985 18.8728 15.0518 18.6416C15.3052 18.4104 15.463 18.0929 15.4943 17.7514C15.5256 17.4099 15.4281 17.069 15.2211 16.7957C15.014 16.5223 14.7122 16.3362 14.375 16.2738V15.3749H18.375V16.2738C18.0378 16.3362 17.736 16.5223 17.529 16.7957C17.3219 17.069 17.2244 17.4099 17.2557 17.7514C17.2871 18.0929 17.4448 18.4104 17.6982 18.6416C17.9515 18.8728 18.2821 19.0009 18.625 19.0009C18.9679 19.0009 19.2985 18.8728 19.5518 18.6416C19.8052 18.4104 19.963 18.0929 19.9943 17.7514C20.0256 17.4099 19.9281 17.069 19.7211 16.7957C19.514 16.5223 19.2122 16.3362 18.875 16.2738ZM5.375 17.8749C5.32556 17.8749 5.27722 17.8603 5.23611 17.8328C5.195 17.8053 5.16295 17.7663 5.14403 17.7206C5.12511 17.6749 5.12016 17.6247 5.12981 17.5762C5.13945 17.5277 5.16326 17.4831 5.19823 17.4482C5.23319 17.4132 5.27773 17.3894 5.32623 17.3797C5.37473 17.3701 5.42499 17.3751 5.47067 17.394C5.51636 17.4129 5.5554 17.4449 5.58287 17.486C5.61034 17.5272 5.625 17.5755 5.625 17.6249C5.625 17.6912 5.59866 17.7548 5.55178 17.8017C5.5049 17.8486 5.44131 17.8749 5.375 17.8749ZM9.875 17.3749C9.92445 17.3749 9.97278 17.3896 10.0139 17.4171C10.055 17.4445 10.0871 17.4836 10.106 17.5293C10.1249 17.575 10.1298 17.6252 10.1202 17.6737C10.1106 17.7222 10.0867 17.7668 10.0518 17.8017C10.0168 17.8367 9.97227 17.8605 9.92378 17.8701C9.87528 17.8798 9.82501 17.8748 9.77933 17.8559C9.73365 17.837 9.69461 17.8049 9.66714 17.7638C9.63966 17.7227 9.625 17.6744 9.625 17.6249C9.625 17.5586 9.65134 17.495 9.69823 17.4482C9.74511 17.4013 9.8087 17.3749 9.875 17.3749ZM7.625 12.6249C7.57556 12.6249 7.52722 12.6103 7.48611 12.5828C7.445 12.5553 7.41295 12.5163 7.39403 12.4706C7.37511 12.4249 7.37016 12.3747 7.37981 12.3262C7.38945 12.2777 7.41326 12.2331 7.44823 12.1982C7.48319 12.1632 7.52773 12.1394 7.57623 12.1297C7.62473 12.1201 7.67499 12.1251 7.72067 12.144C7.76636 12.1629 7.8054 12.1949 7.83287 12.236C7.86034 12.2772 7.875 12.3255 7.875 12.3749C7.875 12.4412 7.84866 12.5048 7.80178 12.5517C7.7549 12.5986 7.69131 12.6249 7.625 12.6249ZM12 6.99994C11.9506 6.99994 11.9022 6.98528 11.8611 6.95781C11.82 6.93034 11.788 6.89129 11.769 6.84561C11.7501 6.79993 11.7452 6.74966 11.7548 6.70117C11.7645 6.65267 11.7883 6.60813 11.8232 6.57317C11.8582 6.5382 11.9027 6.51439 11.9512 6.50475C11.9997 6.4951 12.05 6.50005 12.0957 6.51897C12.1414 6.53789 12.1804 6.56994 12.2079 6.61105C12.2353 6.65216 12.25 6.7005 12.25 6.74994C12.25 6.81625 12.2237 6.87983 12.1768 6.92672C12.1299 6.9736 12.0663 6.99994 12 6.99994ZM14.125 17.8749C14.0756 17.8749 14.0272 17.8603 13.9861 17.8328C13.945 17.8053 13.913 17.7663 13.894 17.7206C13.8751 17.6749 13.8702 17.6247 13.8798 17.5762C13.8895 17.5277 13.9133 17.4831 13.9482 17.4482C13.9832 17.4132 14.0277 17.3894 14.0762 17.3797C14.1247 17.3701 14.175 17.3751 14.2207 17.394C14.2664 17.4129 14.3054 17.4449 14.3329 17.486C14.3603 17.5272 14.375 17.5755 14.375 17.6249C14.375 17.6912 14.3487 17.7548 14.3018 17.8017C14.2549 17.8486 14.1913 17.8749 14.125 17.8749ZM16.375 12.6249C16.3256 12.6249 16.2772 12.6103 16.2361 12.5828C16.195 12.5553 16.163 12.5163 16.144 12.4706C16.1251 12.4249 16.1202 12.3747 16.1298 12.3262C16.1395 12.2777 16.1633 12.2331 16.1982 12.1982C16.2332 12.1632 16.2777 12.1394 16.3262 12.1297C16.3747 12.1201 16.425 12.1251 16.4707 12.144C16.5164 12.1629 16.5554 12.1949 16.5829 12.236C16.6103 12.2772 16.625 12.3255 16.625 12.3749C16.625 12.4412 16.5987 12.5048 16.5518 12.5517C16.5049 12.5986 16.4413 12.6249 16.375 12.6249ZM18.625 17.8749C18.5756 17.8749 18.5272 17.8603 18.4861 17.8328C18.445 17.8053 18.413 17.7663 18.394 17.7206C18.3751 17.6749 18.3702 17.6247 18.3798 17.5762C18.3895 17.5277 18.4133 17.4831 18.4482 17.4482C18.4832 17.4132 18.5277 17.3894 18.5762 17.3797C18.6247 17.3701 18.675 17.3751 18.7207 17.394C18.7664 17.4129 18.8054 17.4449 18.8329 17.486C18.8603 17.5272 18.875 17.5755 18.875 17.6249C18.875 17.6912 18.8487 17.7548 18.8018 17.8017C18.7549 17.8486 18.6913 17.8749 18.625 17.8749Z" fill="white"/>
</g>
<defs>
<clipPath id="clip0_423_1389">
<rect width="16" height="16" fill="white" transform="translate(4 4)"/>
</clipPath>
</defs>
</svg>
