<svg xmlns="http://www.w3.org/2000/svg" width="160.9" height="160.9" viewBox="0 0 42.571 42.571"><path class="st2" d="M5.927 5.61h.026v6.56h1.429V3.599H6.244L4.921 5.16v1.508zm28.786 15.9c.662 0 1.164-.529 1.164-1.19 0-.661-.529-1.19-1.164-1.19-.661 0-1.19.529-1.19 1.19 0 .661.529 1.19 1.19 1.19zm1.376.45h-2.751c-.794.08-1.43.741-1.43 1.561v3.255c0 .238.212.45.45.45.265 0 .45-.212.45-.45V23.97c0-.106.027-.238.212-.238.132 0 .159.132.159.238v8.414c0 .37.29.661.661.661.37 0 .662-.29.662-.661v-4.868c0-.053.026-.186.185-.186s.185.133.185.186v4.842c0 .37.291.661.662.661.37 0 .661-.291.661-.661v-8.414c0-.08.026-.238.159-.238.185 0 .211.132.211.238v2.804c0 .238.212.45.45.45.265 0 .45-.212.45-.45v-3.228a1.477 1.477 0 00-1.376-1.56zm-10.689.106c.609 0 1.111-.502 1.111-1.111s-.502-1.111-1.111-1.111-1.111.502-1.111 1.111.502 1.111 1.111 1.111zm1.323 2.038c.159-.053.185.158.185.158l.741 2.514s.132.529.609.397c.476-.133.317-.688.317-.688l-.926-3.016s-.344-.874-1.058-.874h-2.382c-.74 0-1.058.874-1.058.874l-.926 3.016s-.159.555.318.688c.476.132.608-.397.608-.397l.74-2.514s.054-.185.186-.158c.159.052.08.238.08.238l-1.297 4.736h1.217v3.386c0 .318.265.582.582.582a.587.587 0 00.582-.582v-3.386h.318v3.386c0 .318.264.582.582.582a.587.587 0 00.582-.582v-3.386h1.217l-1.296-4.736s-.053-.186.079-.238zm-8.017-2.038c.609 0 1.111-.502 1.111-1.111s-.502-1.111-1.111-1.111c-.608 0-1.111.502-1.111 1.111s.503 1.111 1.111 1.111zm2.249 1.403s-.317-.874-1.058-.874h-2.382c-.74 0-1.058.874-1.058.874l-.926 3.016s-.026.08-.026.185a.326.326 0 00-.265-.132c-.132 0-.238.053-.291.158-.026.027-.45.794-.609.926-.158.16-.29.133-.29.133h-1.112s-.132.026-.29-.133c-.133-.132-.583-.926-.61-.926-.052-.105-.158-.158-.29-.158a.291.291 0 00-.265.158v-3.175c0-.82-.635-1.481-1.429-1.56H7.303c-.794.079-1.43.74-1.43 1.56v3.255c0 .185.107.317.239.397 0 0-.027.026-.027.053l-1.058 5.556c-.026.106.053.185.132.212h.027c.08 0 .159-.053.159-.133l1.058-5.556v-.053a.454.454 0 00.344-.45v-2.804c0-.106.026-.238.212-.238.132 0 .158.132.158.238v8.413c0 .37.291.662.662.662.37 0 .661-.291.661-.662v-4.894c0-.053.027-.186.185-.186.16 0 .186.133.186.186v4.842c0 .37.29.661.661.661.37 0 .662-.291.662-.661v-8.414c0-.08.026-.238.158-.238.186 0 .212.132.212.238v2.804c0 .238.212.45.45.45a.471.471 0 00.423-.264c0 .026.027.052.027.052l.926 1.694s.053.106.053.211v.344l-.503 1.826h.503v1.482c0 .264.211.45.45.45.264 0 .45-.212.45-.45v-1.482h.264v1.482c0 .264.211.45.45.45.264 0 .45-.212.45-.45v-1.482h.502l-.503-1.826v-.317c0-.106.053-.212.053-.212l.873-1.56s.053-.107.08-.212a.473.473 0 00.264.238c.477.132.609-.397.609-.397l.74-2.514s.054-.185.186-.158c.159.052.08.238.08.238l-1.297 4.736h1.217v3.386c0 .318.264.582.582.582a.587.587 0 00.582-.582v-3.386h.318v3.386c0 .318.264.582.582.582a.587.587 0 00.582-.582v-3.386h1.217l-1.297-4.736s-.053-.212.08-.238c.158-.053.185.158.185.158l.74 2.514s.133.529.61.397c.476-.133.317-.688.317-.688zm9.313 3.704a.937.937 0 00.926-.926.937.937 0 00-.926-.926.937.937 0 00-.926.926c0 .529.397.926.926.926zm2.196 2.646c0-.027-.582-1.456-.661-1.667-.212-.609-.582-.609-.953-.609H29.554c-.476.027-.635.265-1.164 1.64-.08.186-.344.847-.344.874-.053.105-.08.344.132.45.265.105.397-.133.397-.133l.503-1.614s.08-.106.08 0v3.784c0 .264.21.476.475.476a.474.474 0 00.477-.476v-1.508s-.027-.212.132-.212.132.212.132.212v1.508c0 .264.212.476.476.476a.474.474 0 00.477-.476V28.76c0-.106.053-.026.053-.026l.396 1.111s.16.503.212.503c.185.08.397 0 .45-.186.106-.105.08-.238.026-.343zM8.678 21.51c.662 0 1.191-.53 1.191-1.191s-.53-1.19-1.19-1.19c-.662 0-1.165.529-1.165 1.19 0 .661.53 1.19 1.164 1.19z" fill="#fff"/><path class="st2" d="M13.494 27.173a.937.937 0 00.926-.926.937.937 0 00-.926-.926.937.937 0 00-.926.926c0 .529.423.926.926.926zm-.768-22.358v2.196h-.502V3.545h.582l.635 1.985V3.545h.476v3.466h-.503zm1.588 1.297V4.419c0-.556.265-.927.873-.927.609 0 .9.397.9.927v1.693c0 .529-.265.926-.9.926-.608 0-.873-.397-.873-.926zm1.19.08v-1.88c0-.211-.079-.37-.29-.37-.212 0-.291.159-.291.37v1.88c0 .21.079.37.29.37.186 0 .292-.16.292-.37zM12.25 8.677h.873c.582 0 .794.291.794.768v.74c0 .477-.212.794-.794.794h-.29v1.19h-.583zm.582.477v1.375h.212c.212 0 .291-.105.291-.29v-.794c0-.186-.08-.291-.291-.291zm1.429 2.116V9.578c0-.556.265-.926.873-.926.609 0 .9.397.9.926v1.693c0 .53-.265.926-.9.926-.608 0-.873-.397-.873-.926zm1.19.08V9.472c0-.212-.079-.37-.29-.37-.212 0-.291.158-.291.37v1.879c0 .211.079.37.29.37.186 0 .292-.159.292-.37zm2.752-2.673l-.661 3.466h-.635l-.662-3.466h.583l.396 2.434.424-2.434zm.291 0h1.403v.477h-.82v1.005h.582v.476h-.583v1.059h.82v.476h-1.402zm2.329 1.879v1.587h-.582V8.678h.846c.582 0 .794.291.794.768v.45c0 .37-.132.581-.476.66l.555 1.588h-.608zm0-1.402v1.084h.185c.212 0 .291-.105.291-.29v-.503c0-.186-.08-.291-.291-.291zm1.323-.477h1.56v.477h-.476v3.016h-.582V9.18h-.476zm3.016 2.143v1.323h-.582v-1.323l-.662-2.143h.609l.344 1.323.344-1.323h.555z" fill="#fff"/></svg>