<svg width="79" height="78" viewBox="0 0 79 78" fill="none" xmlns="http://www.w3.org/2000/svg">
<path d="M76.5 38.8671C76.5 58.9141 59.9728 75.2342 39.5 75.2342C19.0272 75.2342 2.5 58.9141 2.5 38.8671C2.5 18.82 19.0272 2.5 39.5 2.5C59.9728 2.5 76.5 18.82 76.5 38.8671Z" stroke="#E85959" stroke-width="5"/>
<ellipse opacity="0.1" cx="39.3653" cy="38.867" rx="31.0957" ry="30.5975" fill="#EA0029"/>
<path d="M59.5 37.984C54.5 37.984 52.5546 39.859 49.4296 39.859C46.3046 39.859 43.1796 37.984 39.4296 37.984C35.6796 37.984 33.1796 39.859 29.4296 39.859C25.6796 39.859 21.375 37.984 19.5 37.984V52.5H59.5V37.984Z" fill="#E84131"/>
<path d="M20.0547 37.9839C21.9297 37.9839 25.6797 39.8589 29.4297 39.8589C33.1797 39.8589 35.6797 37.9839 39.4297 37.9839C43.1797 37.9839 46.3047 39.8589 49.4297 39.8589C52.5547 39.8589 53.8047 37.9839 58.8047 37.9839" stroke="black" stroke-width="1.5" stroke-linecap="round" stroke-linejoin="round"/>
<path d="M28.8262 34.7221V26.5581" stroke="black" stroke-width="1.5" stroke-miterlimit="10" stroke-linecap="round"/>
<path d="M25.7012 29.4415L28.7502 26.2034C28.775 26.1771 28.8165 26.1759 28.8428 26.2007C28.844 26.2018 28.8452 26.203 28.8463 26.2042L31.9512 29.6062" stroke="black" stroke-width="1.5" stroke-miterlimit="10" stroke-linecap="round"/>
<path d="M49.2109 34.7221V26.5581" stroke="black" stroke-width="1.5" stroke-miterlimit="10" stroke-linecap="round"/>
<path d="M46.0859 29.4415L49.1351 26.2034C49.1599 26.1771 49.2013 26.1759 49.2276 26.2007C49.2288 26.2018 49.23 26.203 49.2311 26.2042L52.3359 29.6062" stroke="black" stroke-width="1.5" stroke-miterlimit="10" stroke-linecap="round"/>
</svg>
