<svg width="65" height="65" viewBox="0 0 65 65" fill="none" xmlns="http://www.w3.org/2000/svg">
<path d="M61.3891 40.4219C54.1669 40.4219 51.3568 43.1302 46.8429 43.1302C42.329 43.1302 37.8151 40.4219 32.3985 40.4219C26.9818 40.4219 23.3707 43.1302 17.954 43.1302C12.5374 43.1302 6.31966 40.4219 3.61133 40.4219V61.3894H61.3891V40.4219Z" fill="#E88931"/>
<path d="M4.41211 40.4219C7.12044 40.4219 12.5371 43.1302 17.9538 43.1302C23.3704 43.1302 26.9816 40.4219 32.3982 40.4219C37.8149 40.4219 42.3288 43.1302 46.8427 43.1302C51.3566 43.1302 53.1621 40.4219 60.3843 40.4219" stroke="#E88931" stroke-width="1.5" stroke-linecap="round" stroke-linejoin="round"/>
<path d="M17.082 35.7104V23.918" stroke="#E88931" stroke-width="1.5" stroke-miterlimit="10" stroke-linecap="round"/>
<path d="M12.5684 28.0819L16.9726 23.4047C17.0084 23.3667 17.0683 23.3649 17.1063 23.4007C17.108 23.4024 17.1097 23.4041 17.1113 23.4058L21.5961 28.3198" stroke="#E88931" stroke-width="1.5" stroke-miterlimit="10" stroke-linecap="round"/>
<path d="M46.5273 35.7104V23.918" stroke="#E88931" stroke-width="1.5" stroke-miterlimit="10" stroke-linecap="round"/>
<path d="M42.0137 28.0819L46.418 23.4047C46.4538 23.3667 46.5137 23.3649 46.5517 23.4007C46.5534 23.4024 46.5551 23.4041 46.5567 23.4058L51.0414 28.3198" stroke="#E88931" stroke-width="1.5" stroke-miterlimit="10" stroke-linecap="round"/>
</svg>
