<?xml version="1.0" encoding="UTF-8"?>
<svg width="20px" height="20px" viewBox="0 0 20 20" version="1.1" xmlns="http://www.w3.org/2000/svg" xmlns:xlink="http://www.w3.org/1999/xlink">
    <!-- Generator: Sketch 55.2 (78181) - https://sketchapp.com -->
    <title>Search</title>
    <desc>Created with Sketch.</desc>
    <g id="Page-1" stroke="none" stroke-width="1" fill="none" fill-rule="evenodd">
        <g id="Indicator-Perspective-Copy" transform="translate(-1323.000000, -15.000000)">
            <g id="Search" transform="translate(1317.000000, 10.000000)">
                <path d="M20.1917337,16.433125 C19.9479647,16.1890625 19.5510587,16.1890625 19.3072896,16.433125 L18.8135011,16.92875 L17.622783,15.7378125 C18.5603563,14.6025 19.1260255,13.1475 19.1260255,11.5625 C19.1260255,7.9440625 16.1820455,5 12.5630127,5 C8.94398,5 6,7.9440625 6,11.5625 C6,15.18125 8.94398,18.125 12.5630127,18.125 C14.1475115,18.125 15.6007501,17.5603125 16.7383389,16.6215625 L17.929057,17.8125 L17.4321431,18.308125 C17.1883741,18.5521875 17.1883741,18.948125 17.4321431,19.191875 L23.0575826,24.8171875 C23.1794671,24.9390625 23.3419798,25 23.5013673,25 C23.6607547,25 23.8201422,24.9390625 23.9420267,24.8171875 L25.8171732,22.9421875 C26.0609423,22.698125 26.0609423,22.3021875 25.8171732,22.058125 L20.1917337,16.433125 L20.1917337,16.433125 Z M7.25009766,11.5625 C7.25009766,8.633125 9.63153371,6.25 12.5630127,6.25 C15.4913665,6.25 17.8759278,8.633125 17.8759278,11.5625 C17.8759278,14.491875 15.4913665,16.875 12.5630127,16.875 C9.63153371,16.875 7.25009766,14.491875 7.25009766,11.5625 L7.25009766,11.5625 Z M23.5013673,23.49125 L18.7603719,18.75 L19.7510743,17.7590625 L24.4920697,22.5 L23.5013673,23.49125 L23.5013673,23.49125 Z" id="48" fill="#FFFFFF"></path>
                <rect id="Rectangle" opacity="0.300000012" x="0" y="0" width="30" height="30"></rect>
            </g>
        </g>
    </g>
</svg>