<svg width="24" height="24" viewBox="0 0 24 24" fill="none" xmlns="http://www.w3.org/2000/svg">
<g clip-path="url(#clip0_1199_3369)">
<path d="M12.0001 23.8996C18.5723 23.8996 23.9001 18.5718 23.9001 11.9996C23.9001 5.42742 18.5723 0.0996094 12.0001 0.0996094C5.42791 0.0996094 0.100098 5.42742 0.100098 11.9996C0.100098 18.5718 5.42791 23.8996 12.0001 23.8996Z" fill="#FBCA60"/>
<path d="M6.10005 11.4996H8.00005L9.60005 9.69961C9.70005 9.54961 9.90005 9.49961 10.1 9.54961C10.3 9.59961 10.4 9.69961 10.45 9.89961L11 11.9996L12 9.34961C12.05 9.14961 12.25 9.04961 12.45 9.04961C12.65 9.04961 12.85 9.14961 12.9 9.29961L14.5 12.4496L14.75 11.5496C14.8 11.3496 15 11.1996 15.25 11.1996H17.9V6.59961C17.9 6.34961 17.7 6.09961 17.4 6.09961H6.55005C6.30005 6.09961 6.05005 6.29961 6.05005 6.59961L6.10005 11.4996Z" fill="white"/>
<path d="M15.65 12.1502L15.2 13.9502C15.15 14.1502 15 14.3002 14.8 14.3002H14.75C14.55 14.3002 14.4 14.2002 14.3 14.0502L12.6 10.7002L11.45 13.7002C11.35 13.9002 11.2 14.0502 10.95 14.0002C10.75 14.0002 10.55 13.8502 10.5 13.6502L9.75005 11.0002L8.60005 12.3002C8.50005 12.4502 8.35005 12.5002 8.20005 12.5002H6.10005H6.05005V17.4502C6.05005 17.7002 6.25005 17.9502 6.55005 17.9502H17.45C17.7 17.9502 17.95 17.7502 17.95 17.4502V12.1502H15.65Z" fill="white"/>
</g>
<defs>
<clipPath id="clip0_1199_3369">
<rect width="24" height="24" fill="white"/>
</clipPath>
</defs>
</svg>
