<svg width="24" height="24" viewBox="0 0 24 24" fill="none" xmlns="http://www.w3.org/2000/svg">
<g clip-path="url(#clip0_1199_3377)">
<path d="M12 24C18.6274 24 24 18.6274 24 12C24 5.37258 18.6274 0 12 0C5.37258 0 0 5.37258 0 12C0 18.6274 5.37258 24 12 24Z" fill="#42A5F5"/>
<path fill-rule="evenodd" clip-rule="evenodd" d="M12.5048 11.4952H18.0577C18.3364 11.4952 18.5625 11.7213 18.5625 12C18.5625 12.2787 18.3364 12.5048 18.0577 12.5048H12.5048V18.0577C12.5048 18.3364 12.2787 18.5625 12 18.5625C11.7213 18.5625 11.4952 18.3364 11.4952 18.0577V12.5048H5.94232C5.66361 12.5048 5.4375 12.2787 5.4375 12C5.4375 11.7213 5.66361 11.4952 5.94232 11.4952H11.4952V5.94231C11.4952 5.6636 11.7213 5.4375 12 5.4375C12.2787 5.4375 12.5048 5.6636 12.5048 5.94231V11.4952Z" fill="#FFFFFE"/>
</g>
<defs>
<clipPath id="clip0_1199_3377">
<rect width="24" height="24" fill="white"/>
</clipPath>
</defs>
</svg>
