<svg width="24" height="24" viewBox="0 0 24 24" fill="none" xmlns="http://www.w3.org/2000/svg">
<g clip-path="url(#clip0_1207_3386)">
<path d="M12 24C18.6274 24 24 18.6274 24 12C24 5.37258 18.6274 0 12 0C5.37258 0 0 5.37258 0 12C0 18.6274 5.37258 24 12 24Z" fill="#FFAE55"/>
<path d="M10.3462 16.1885V18.7535H13.6574V16.1285L11.9249 14.9697L10.3462 16.1885Z" fill="white"/>
<path d="M8.32126 18.75H9.91876V16.0837C9.91847 16.0511 9.92577 16.0189 9.94009 15.9896C9.95441 15.9603 9.97535 15.9348 10.0013 15.915L11.79 14.5425C11.8254 14.5122 11.8709 14.4961 11.9175 14.4975C11.9604 14.4972 12.0024 14.5103 12.0375 14.535L13.9875 15.8363C14.0165 15.8558 14.0405 15.882 14.0575 15.9126C14.0744 15.9433 14.0839 15.9775 14.085 16.0125V18.75H15.6788V5.25H8.32126V18.75ZM14.1 9.4125H9.90376C9.79395 9.41157 9.68878 9.36804 9.61044 9.29109C9.53209 9.21414 9.48667 9.10978 9.48376 9V8.1525C9.48376 8.09734 9.49462 8.04273 9.51573 7.99177C9.53684 7.94082 9.56777 7.89452 9.60678 7.85552C9.64578 7.81651 9.69208 7.78558 9.74303 7.76447C9.79399 7.74336 9.8486 7.7325 9.90376 7.7325H14.1C14.2114 7.7325 14.3182 7.77675 14.397 7.85552C14.4758 7.93428 14.52 8.04111 14.52 8.1525V9C14.5171 9.10978 14.4717 9.21414 14.3933 9.29109C14.315 9.36804 14.2098 9.41157 14.1 9.4125ZM9.90376 9.8475H14.1C14.1552 9.8475 14.2098 9.85836 14.2607 9.87947C14.3117 9.90058 14.358 9.93151 14.397 9.97052C14.436 10.0095 14.4669 10.0558 14.488 10.1068C14.5091 10.1577 14.52 10.2123 14.52 10.2675V11.1038C14.52 11.2151 14.4758 11.322 14.397 11.4007C14.3182 11.4795 14.2114 11.5237 14.1 11.5237H9.90376C9.8486 11.5237 9.79399 11.5129 9.74303 11.4918C9.69208 11.4707 9.64578 11.4397 9.60678 11.4007C9.56777 11.3617 9.53684 11.3154 9.51573 11.2645C9.49462 11.2135 9.48376 11.1589 9.48376 11.1038V10.2675C9.48376 10.2123 9.49462 10.1577 9.51573 10.1068C9.53684 10.0558 9.56777 10.0095 9.60678 9.97052C9.64578 9.93151 9.69208 9.90058 9.74303 9.87947C9.79399 9.85836 9.8486 9.8475 9.90376 9.8475ZM9.90376 11.9587H14.1C14.2105 11.9597 14.3162 12.0038 14.3946 12.0815C14.4731 12.1593 14.5181 12.2646 14.52 12.375V13.2112C14.52 13.3226 14.4758 13.4295 14.397 13.5082C14.3182 13.587 14.2114 13.6312 14.1 13.6312H9.90376C9.8486 13.6312 9.79399 13.6204 9.74303 13.5993C9.69208 13.5782 9.64578 13.5472 9.60678 13.5082C9.56777 13.4692 9.53684 13.4229 9.51573 13.372C9.49462 13.321 9.48376 13.2664 9.48376 13.2112V12.375C9.48571 12.2646 9.5307 12.1593 9.60915 12.0815C9.6876 12.0038 9.79331 11.9597 9.90376 11.9587ZM3.69751 18.75H7.89376V10.7737H3.69751V18.75ZM4.84876 16.1512H6.75001C6.87502 16.1522 6.99464 16.2023 7.08303 16.2907C7.17143 16.3791 7.22153 16.4987 7.22251 16.6238V17.1C7.22251 17.2257 7.17285 17.3462 7.08435 17.4354C6.99584 17.5246 6.87567 17.5753 6.75001 17.5763H4.84876C4.72345 17.5763 4.60326 17.5265 4.51465 17.4379C4.42604 17.3492 4.37626 17.2291 4.37626 17.1038V16.6275C4.37626 16.5022 4.42604 16.382 4.51465 16.2934C4.60326 16.2048 4.72345 16.155 4.84876 16.155V16.1512ZM6.75001 15.4762H4.84876C4.78639 15.4763 4.72464 15.4639 4.66707 15.4399C4.6095 15.4159 4.55724 15.3808 4.51332 15.3365C4.46939 15.2923 4.43467 15.2397 4.41114 15.182C4.38762 15.1242 4.37577 15.0624 4.37626 15V14.5275C4.37576 14.4653 4.38764 14.4036 4.41121 14.3461C4.43478 14.2885 4.46956 14.2363 4.51354 14.1923C4.55751 14.1483 4.6098 14.1135 4.66735 14.09C4.7249 14.0664 4.78657 14.0545 4.84876 14.055H6.75001C6.87532 14.055 6.99551 14.1048 7.08412 14.1934C7.17273 14.282 7.22251 14.4022 7.22251 14.5275V15C7.22251 15.1257 7.17285 15.2462 7.08435 15.3354C6.99584 15.4246 6.87567 15.4753 6.75001 15.4762ZM6.75001 13.3725H4.84876C4.78657 13.373 4.7249 13.3611 4.66735 13.3376C4.6098 13.314 4.55751 13.2792 4.51354 13.2352C4.46956 13.1912 4.43478 13.139 4.41121 13.0814C4.38764 13.0239 4.37576 12.9622 4.37626 12.9V12.4275C4.37576 12.3653 4.38764 12.3036 4.41121 12.2461C4.43478 12.1885 4.46956 12.1363 4.51354 12.0923C4.55751 12.0483 4.6098 12.0135 4.66735 11.9899C4.7249 11.9664 4.78657 11.9545 4.84876 11.955H6.75001C6.81206 11.955 6.8735 11.9672 6.93083 11.991C6.98815 12.0147 7.04024 12.0495 7.08412 12.0934C7.12799 12.1373 7.1628 12.1894 7.18654 12.2467C7.21029 12.304 7.22251 12.3655 7.22251 12.4275V12.9C7.22251 13.0253 7.17273 13.1455 7.08412 13.2341C6.99551 13.3227 6.87532 13.3725 6.75001 13.3725Z" fill="white"/>
<path d="M4.80373 12.9522L6.79123 12.9484V12.3747L4.79248 12.3784L4.80373 12.9522ZM4.80373 15.0559L6.79123 15.0484V14.4709L4.79248 14.4822L4.80373 15.0559ZM6.79123 17.1484V16.5747L4.79248 16.5822L4.80373 17.1559L6.79123 17.1484ZM16.125 10.7734V18.7497H20.3025V10.7734H16.125ZM19.17 13.3722H17.25C17.1881 13.3722 17.1268 13.3599 17.0697 13.3362C17.0126 13.3124 16.9608 13.2775 16.9172 13.2336C16.8736 13.1896 16.8392 13.1375 16.8158 13.0802C16.7925 13.0229 16.7807 12.9616 16.7812 12.8997V12.4272C16.7807 12.3653 16.7925 12.304 16.8158 12.2467C16.8392 12.1893 16.8736 12.1372 16.9172 12.0933C16.9608 12.0494 17.0126 12.0145 17.0697 11.9907C17.1268 11.9669 17.1881 11.9547 17.25 11.9547H19.1475C19.2098 11.9542 19.2717 11.966 19.3295 11.9896C19.3872 12.0131 19.4397 12.0478 19.484 12.0917C19.5283 12.1357 19.5634 12.1879 19.5874 12.2455C19.6114 12.3031 19.6237 12.3648 19.6237 12.4272V12.8997C19.6237 13.025 19.5739 13.1452 19.4853 13.2338C19.3967 13.3224 19.2765 13.3722 19.1512 13.3722H19.17ZM17.25 14.0547H19.1475C19.2098 14.0542 19.2717 14.066 19.3295 14.0896C19.3872 14.1131 19.4397 14.1478 19.484 14.1917C19.5283 14.2357 19.5634 14.2879 19.5874 14.3455C19.6114 14.4031 19.6237 14.4648 19.6237 14.5272V14.9997C19.6227 15.1253 19.5721 15.2455 19.4829 15.334C19.3937 15.4225 19.2731 15.4722 19.1475 15.4722H17.25C17.126 15.4702 17.0077 15.4196 16.9207 15.3312C16.8337 15.2428 16.785 15.1237 16.785 14.9997V14.5272C16.7845 14.4656 16.7961 14.4046 16.8192 14.3475C16.8423 14.2905 16.8764 14.2385 16.9196 14.1946C16.9628 14.1508 17.0142 14.1158 17.0709 14.0918C17.1276 14.0678 17.1884 14.0552 17.25 14.0547ZM17.25 16.1547H19.1475C19.2731 16.1547 19.3937 16.2043 19.4829 16.2929C19.5721 16.3814 19.6227 16.5015 19.6237 16.6272V17.1034C19.6227 17.2291 19.5721 17.3493 19.4829 17.4378C19.3937 17.5263 19.2731 17.5759 19.1475 17.5759H17.25C17.1253 17.5749 17.0061 17.5247 16.9183 17.4362C16.8305 17.3477 16.7812 17.2281 16.7812 17.1034V16.6272C16.7812 16.5025 16.8305 16.3829 16.9183 16.2944C17.0061 16.2059 17.1253 16.1557 17.25 16.1547Z" fill="white"/>
<path d="M17.2012 12.3789L17.2125 12.9489H19.2075L19.2 12.3752L17.2012 12.3789ZM19.2075 15.0489L19.2 14.4714L17.2012 14.4827L17.2125 15.0489H19.2075ZM19.2075 17.1489L19.2 16.5752L17.2012 16.5827L17.2125 17.1489H19.2075ZM9.90747 8.16016H14.0925V8.98891H9.90747V8.16016ZM9.90747 10.2714H14.0925V11.1002H9.90747V10.2714ZM9.90747 12.3864H14.0925V13.2152H9.90747V12.3864Z" fill="white"/>
</g>
<defs>
<clipPath id="clip0_1207_3386">
<rect width="24" height="24" fill="white"/>
</clipPath>
</defs>
</svg>
