<svg width="24" height="24" viewBox="0 0 24 24" fill="none" xmlns="http://www.w3.org/2000/svg">
<g clip-path="url(#clip0_1207_3383)">
<path d="M12.0001 23.8766C18.5592 23.8766 23.8764 18.5594 23.8764 12.0003C23.8764 5.44122 18.5592 0.124023 12.0001 0.124023C5.44097 0.124023 0.123779 5.44122 0.123779 12.0003C0.123779 18.5594 5.44097 23.8766 12.0001 23.8766Z" fill="#CD4141"/>
<path d="M11.9999 11.0845C11.3814 11.0845 10.8618 10.5897 10.8618 9.94639C10.8618 9.30309 11.3566 8.80824 11.9999 8.80824C12.6432 8.80824 13.1381 9.30309 13.1381 9.94639C13.1381 10.4412 13.5587 10.8619 14.0535 10.8619C14.5484 10.8619 14.969 10.4412 14.969 9.94639C14.969 8.65979 14.1278 7.52165 12.9154 7.12577V6.95257C12.9154 6.45773 12.4948 6.03711 11.9999 6.03711C11.5051 6.03711 11.0845 6.45773 11.0845 6.95257V7.12577C9.87208 7.52165 9.03085 8.63505 9.03085 9.94639C9.03085 11.5794 10.3669 12.8907 11.9752 12.8907C12.5937 12.8907 13.1133 13.3856 13.1133 14.0289C13.1133 14.6722 12.6185 15.167 11.9752 15.167C11.3319 15.167 10.837 14.6722 10.837 14.0289C10.837 13.534 10.4164 13.1134 9.92157 13.1134C9.42672 13.1134 9.0061 13.534 9.0061 14.0289C9.0061 15.3155 9.84734 16.4536 11.0597 16.8495V17.0227C11.0597 17.5175 11.4803 17.9381 11.9752 17.9381C12.47 17.9381 12.8906 17.5175 12.8906 17.0227V16.8495C14.103 16.4536 14.9442 15.3402 14.9442 14.0289C14.9442 12.4206 13.6329 11.0845 11.9999 11.0845Z" fill="white"/>
</g>
<defs>
<clipPath id="clip0_1207_3383">
<rect width="24" height="24" fill="white"/>
</clipPath>
</defs>
</svg>
