<svg width="24" height="24" viewBox="0 0 24 24" fill="none" xmlns="http://www.w3.org/2000/svg">
<circle cx="12" cy="12" r="12" fill="#D87042"/>
<path d="M7.5675 9.41504H5.5C5.22386 9.41504 5 9.6389 5 9.91504V17.7725C5 18.0487 5.22386 18.2725 5.5 18.2725H7.5675C7.84364 18.2725 8.0675 18.0487 8.0675 17.7725V9.91504C8.0675 9.6389 7.84364 9.41504 7.5675 9.41504Z" fill="white"/>
<path d="M11.2125 13.8H9.145C9.07934 13.8 9.01431 13.8129 8.95364 13.8381C8.89297 13.8632 8.83784 13.9 8.79141 13.9465C8.74497 13.9929 8.70814 14.048 8.68302 14.1087C8.6579 14.1694 8.64498 14.2344 8.645 14.3V17.7725C8.64498 17.8382 8.6579 17.9032 8.68302 17.9639C8.70814 18.0246 8.74497 18.0797 8.79141 18.1261C8.83784 18.1726 8.89297 18.2094 8.95364 18.2345C9.01431 18.2596 9.07934 18.2726 9.145 18.2725H11.2125C11.345 18.2722 11.4719 18.2194 11.5656 18.1257C11.6593 18.032 11.7121 17.905 11.7125 17.7725V14.3C11.7121 14.1676 11.6593 14.0406 11.5656 13.9469C11.4719 13.8532 11.345 13.8004 11.2125 13.8Z" fill="white"/>
<path d="M18.5 15.725H16.4325C16.1564 15.725 15.9325 15.9488 15.9325 16.225V17.7725C15.9325 18.0486 16.1564 18.2725 16.4325 18.2725H18.5C18.7761 18.2725 19 18.0486 19 17.7725V16.225C19 15.9488 18.7761 15.725 18.5 15.725Z" fill="white"/>
<path d="M14.855 12.6025H12.7875C12.655 12.6029 12.5281 12.6557 12.4344 12.7494C12.3407 12.8431 12.2879 12.9701 12.2875 13.1025V17.7725C12.2879 17.905 12.3407 18.032 12.4344 18.1257C12.5281 18.2194 12.655 18.2722 12.7875 18.2725H14.855C14.9207 18.2726 14.9857 18.2596 15.0464 18.2345C15.107 18.2094 15.1622 18.1726 15.2086 18.1261C15.255 18.0797 15.2919 18.0246 15.317 17.9639C15.3421 17.9032 15.355 17.8382 15.355 17.7725V13.1025C15.355 13.0369 15.3421 12.9718 15.317 12.9112C15.2919 12.8505 15.255 12.7954 15.2086 12.7489C15.1622 12.7025 15.107 12.6657 15.0464 12.6406C14.9857 12.6154 14.9207 12.6025 14.855 12.6025Z" fill="white"/>
<path d="M6.645 7.22754C6.75117 7.22741 6.85605 7.20439 6.9525 7.16004L9.655 10.07C9.61549 10.1737 9.59952 10.2849 9.60826 10.3955C9.617 10.5061 9.65022 10.6134 9.70552 10.7096C9.76082 10.8058 9.83682 10.8885 9.92801 10.9517C10.0192 11.0149 10.1233 11.0571 10.2328 11.0751C10.3423 11.0931 10.4544 11.0866 10.5611 11.0559C10.6677 11.0253 10.7662 10.9713 10.8494 10.8979C10.9326 10.8245 10.9985 10.7336 11.0422 10.6316C11.086 10.5296 11.1065 10.4192 11.1023 10.3083C11.1029 10.309 13.3949 9.11232 13.395 9.11504C13.5115 9.23127 13.6628 9.3063 13.8259 9.32874C13.989 9.35118 14.1549 9.3198 14.2985 9.23936L17.3254 12.2022C17.2065 12.3311 17.1366 12.4976 17.1279 12.6727C17.1192 12.8478 17.1721 13.0205 17.2776 13.1605C17.3831 13.3006 17.5344 13.3993 17.7051 13.4393C17.8758 13.4793 18.0551 13.4581 18.2119 13.3795C18.3686 13.3009 18.4928 13.1698 18.5627 13.009C18.6327 12.8482 18.6441 12.668 18.5949 12.4997C18.5457 12.3314 18.4389 12.1857 18.2933 12.088C18.1477 11.9903 17.9725 11.9468 17.7981 11.965L14.6252 8.85932C14.6604 8.77307 14.6782 8.6807 14.6775 8.58754C14.6766 8.48666 14.6553 8.38701 14.6149 8.29456C14.5746 8.20211 14.5159 8.11877 14.4426 8.04954C14.3692 7.98031 14.2826 7.92662 14.1879 7.89169C14.0933 7.85676 13.9926 7.8413 13.8918 7.84626C13.7911 7.85122 13.6923 7.87648 13.6016 7.92053C13.5108 7.96458 13.4299 8.02652 13.3637 8.10261C13.2975 8.17871 13.2473 8.2674 13.2162 8.36337C13.1851 8.45933 13.1737 8.5606 13.1827 8.66107L10.9162 9.84161C10.8019 9.71351 10.6474 9.62818 10.4781 9.59972C10.3088 9.57125 10.1349 9.60135 9.985 9.68504L7.315 6.81504C7.38847 6.66924 7.41236 6.50344 7.38304 6.34283C7.35371 6.18222 7.27278 6.03556 7.15253 5.92513C7.03227 5.8147 6.87927 5.74652 6.71674 5.73096C6.55422 5.71539 6.39106 5.75328 6.25203 5.83888C6.113 5.92447 6.0057 6.0531 5.94642 6.20523C5.88714 6.35735 5.87912 6.52466 5.92357 6.68176C5.96803 6.83886 6.06254 6.97716 6.19274 7.07566C6.32295 7.17417 6.48174 7.22749 6.645 7.22754Z" fill="white"/>
</svg>
