<svg width="231" height="396" viewBox="0 0 231 396" fill="none" xmlns="http://www.w3.org/2000/svg">
<path d="M36.3801 56.1149L36.7781 55.7169L37.5741 54.9209V54.1249L37.1761 53.7269L36.3801 53.3289L35.584 54.1249L34.7881 54.523L36.3801 56.1149ZM23.2461 27.0609H24.0421L24.4401 26.663L24.8381 24.673L24.4401 23.0809L23.2461 22.2849H22.4501V22.683L22.8481 23.8769L22.4501 24.2749H21.654L20.8581 23.4789L20.0621 21.4889L19.664 21.0909L19.2661 21.4889V25.4689L20.0621 26.2649L23.2461 27.0609ZM214.286 216.111V217.305L214.684 218.499L215.48 220.489V221.683L219.062 226.459L219.46 227.255L220.654 228.051L221.052 230.439L220.654 237.205V238.399L221.45 239.195L223.042 240.389L224.634 239.195V237.205L223.042 228.449L219.46 222.877L218.266 219.693L217.47 218.499L216.276 215.713L215.082 214.519L215.48 215.713V216.509L214.286 216.111ZM8.12207 74.423L7.72405 75.2189L8.12207 76.0149L9.31615 76.413L11.7041 76.8109L14.0921 77.6069L18.0721 79.5969L22.4501 83.1789L23.644 83.5769L24.4401 84.373L25.634 85.5669L27.2261 86.7609L29.614 87.1589L28.8181 85.5669L24.0421 80.393L25.634 80.7909L28.4201 82.383L30.0121 82.7809L26.4301 79.5969L22.4501 77.2089L18.0721 75.6169L14.0921 74.423H9.71405H8.12207ZM26.4301 20.2949L28.0221 21.4889H29.2161L31.2061 20.2949H32.0021L33.1961 21.0909L34.7881 21.4889H35.9821L36.7781 20.693L36.3801 19.8969L35.1861 19.1009L33.594 18.3049L32.4001 17.5089L32.0021 16.713V15.1209L31.604 14.723H29.614H29.2161L28.4201 13.9269L28.0221 12.733V11.5389V9.94692L28.4201 8.75297L28.8181 7.5589V6.76297L27.6241 6.36494L25.2361 6.76297L24.4401 8.75297L24.0421 11.1409L22.8481 12.733L25.2361 17.5089L26.4301 20.2949ZM231.002 284.169L229.808 280.587L229.41 278.995L229.808 255.115L227.42 246.359L225.828 243.971L225.43 241.981L225.032 241.185L224.236 240.389L223.838 239.991V240.389L224.236 241.185V241.981L223.44 242.777L223.042 243.971L222.644 245.563V247.155H221.848V245.563L221.052 241.583H220.256L219.46 242.777H218.664V241.981L219.858 241.185L219.062 240.389L218.664 239.991L218.266 239.593L217.868 238.797L217.47 238.001L217.868 237.205L218.664 236.807L219.062 236.011V235.613L218.664 234.817V234.419L219.46 232.031V231.633L217.47 226.857L217.072 226.061L214.684 224.469L213.49 224.071L213.888 225.663L213.092 226.459L212.694 225.663V224.867V224.469L213.092 223.673L211.898 221.683L210.704 220.489L207.918 218.101V216.907L207.122 216.111L205.928 215.713L204.734 215.315L203.938 216.509L202.744 216.907H201.55L200.356 216.509L201.152 214.121L202.346 212.927H203.938L205.53 213.723L206.724 214.917L209.112 218.101L210.306 218.897L212.694 218.101L212.296 216.111L210.704 213.723L206.326 209.345L205.132 207.753L204.336 205.763H203.54L201.55 206.161L199.56 203.773L198.366 200.191L199.162 197.803L199.56 197.405L199.958 197.007H200.356L199.56 195.813L197.57 194.221L196.774 193.027V191.833L197.172 191.037L197.57 190.241L197.172 189.047L196.774 189.445L195.58 189.843L195.182 190.241V189.843V189.445L194.784 189.047L194.386 188.649L194.784 188.251L194.386 187.455L193.988 187.853L193.192 188.251L192.794 188.649L191.6 185.863L190.804 184.669L189.61 183.475L188.814 181.883L188.018 178.301L187.222 176.709H186.426L185.63 179.097H184.038L182.446 177.903L181.65 175.913V175.515L180.854 175.117L180.456 174.719V173.923V173.525V173.127V171.933V168.749H181.252L182.844 173.127L184.038 177.903L186.028 175.515L185.232 170.739L182.844 162.381L182.446 160.789L181.65 157.605L180.854 153.625L179.66 153.227H178.466L177.272 152.431L176.874 151.237L176.476 147.655V146.859L177.67 147.257L178.864 150.043L180.058 150.839V148.053L178.466 142.879L177.67 138.899L176.874 137.307L175.68 136.113L174.486 135.317H173.292L172.098 135.715L169.312 136.909L170.506 139.297L168.914 140.491H164.138L161.75 139.695L160.158 138.103L158.964 136.113L157.372 134.521L155.382 136.113L153.79 136.511L153.392 135.715L154.586 134.123L156.178 133.327L157.77 133.725L159.362 134.919L160.954 136.113L161.75 134.521L161.352 133.327L160.556 132.531L160.158 131.337L160.954 129.745H162.148L162.944 130.939L162.546 132.531L164.934 132.133L164.536 129.745L162.148 124.969L161.75 125.367L160.158 125.765L160.954 124.571L162.148 124.173L162.944 123.377V121.387L162.148 119.795L159.362 116.611L159.76 115.815L158.964 115.417H158.566L158.168 115.815L157.77 116.611L156.178 111.437L154.984 108.651L152.596 107.457L151.402 106.263L149.412 101.089L147.82 99.8949L145.83 99.4969L144.636 98.303L141.452 92.7309L137.87 88.353L137.074 89.9449L135.88 91.9349L134.686 93.1289H133.094L131.502 91.9349L132.298 90.7409L133.492 89.5469L132.298 88.7509V86.7609L128.716 83.1789L127.522 81.5869L129.114 82.383L131.9 83.1789L133.094 83.9749L134.288 85.5669L134.686 85.9649L135.482 85.5669L135.88 84.7709V83.9749L135.482 83.5769L133.492 82.383L131.502 79.5969L129.91 76.413L129.512 74.0249L129.114 74.423H128.716L128.318 74.8209L127.92 75.2189H127.124L126.726 72.8309L125.134 72.0349L123.542 71.6369L122.746 71.2389L123.144 69.6469H124.338L127.124 70.8409L122.348 61.2889L121.154 58.1049L120.358 57.7069L118.766 58.1049L118.368 58.9009L118.766 60.0949L119.562 61.2889L117.572 60.0949L112.398 55.3189L112 54.1249L112.796 53.7269L114.786 54.1249L115.582 54.523L116.776 55.7169L117.572 56.1149L118.766 55.3189L117.572 53.7269L115.184 51.7369L113.99 50.1449L113.194 48.9509L84.9361 26.2649L80.9561 23.8769L78.9661 22.2849L65.4341 6.76297L64.6381 5.17087L63.8421 1.98692L62.2501 1.19087L60.2601 0.792969L55.8821 1.19087L53.0961 1.5889L51.1061 2.38494V3.97692L52.6981 5.17087L58.6681 6.36494L62.2501 8.35494L69.414 16.713L78.1701 23.8769L81.7521 25.8669V26.663L74.1901 23.0809L71.0061 21.0909L59.0661 8.35494L57.8721 7.5589H57.0761L55.8821 7.95692H54.6881L54.2901 7.16087L53.8921 6.76297L51.5041 5.96692H50.7081L49.9121 5.5689L49.514 4.77297V2.78297L49.1161 1.5889H47.524L43.544 1.98692L35.584 1.19087L33.594 1.98692L29.614 5.5689L27.2261 6.76297L28.0221 7.95692L29.614 9.94692L30.4101 11.1409L30.8081 12.3349V13.5289L31.2061 14.3249L32.4001 15.1209V14.3249L33.1961 14.723L34.3901 15.5189L36.7781 16.3149L40.7581 19.4989L45.534 22.2849L47.9221 23.4789L50.3101 23.8769L49.1161 22.683L47.1261 21.0909L45.9321 19.8969L48.3201 20.693L52.3001 23.8769L54.2901 25.0709L55.0861 25.4689L55.8821 25.8669L56.6781 25.4689L57.4741 24.2749L56.6781 23.0809L55.4841 22.2849L54.6881 21.4889L54.2901 19.1009H55.4841L57.4741 20.2949L63.8421 23.0809L67.0261 25.0709L74.1901 31.4389L74.9861 31.8369H78.1701H78.5681L79.7621 32.633L80.1601 32.2349L80.5581 31.8369L81.354 31.4389H83.344H84.1401L84.9361 31.8369L86.9261 33.0309L87.7221 33.4289L89.7121 33.8269L92.1001 35.0209L98.8661 39.7969L94.0901 39.0009L87.7221 36.2149L82.1501 34.623L79.7621 34.2249L70.6081 37.8069L65.4341 39.0009L63.444 37.4089L64.2401 36.613L63.8421 35.8169L63.444 35.0209L64.6381 34.2249L64.2401 33.0309L61.8521 31.0409L60.2601 30.2449L54.2901 28.653L48.3201 25.0709L45.1361 23.8769H41.9521L43.544 25.8669L51.1061 30.2449L53.0961 31.8369L54.6881 33.4289L55.8821 35.0209L56.6781 36.613H55.4841L54.6881 37.0109L53.8921 37.4089L53.0961 37.8069L50.7081 40.593L49.9121 40.9909L47.9221 41.3889L45.534 42.1849L43.1461 43.3789L41.9521 44.573V45.7669L42.3501 48.1549L43.1461 50.543L44.3401 51.7369L47.1261 53.3289L48.3201 53.7269V54.1249L47.9221 54.9209V60.8909L46.7281 64.8709L43.544 73.2289L42.7481 76.8109L41.5541 79.1989L40.7581 81.5869L39.564 82.7809L36.3801 84.373L30.4101 89.5469L29.614 89.9449L28.4201 90.343L27.6241 90.7409L28.0221 91.9349L28.4201 92.7309L28.8181 93.9249L29.2161 96.313V103.477V104.671L31.604 111.039L30.8081 120.989L30.0121 122.979L29.614 123.775L29.2161 124.173L28.0221 127.755L26.8281 129.347L25.2361 130.541L24.0421 131.735L23.644 133.725V138.103L23.2461 139.695L22.8481 140.491L22.0521 140.889L21.2561 142.083L20.4601 152.033L19.664 156.411L19.2661 158.401L18.8681 159.595L17.674 161.187L17.2761 161.983V163.177V163.575L17.674 163.973L18.0721 164.769V165.565V167.555V168.749L18.4701 169.545L18.8681 170.341L19.2661 171.137V172.331L15.684 178.699L16.0821 179.893L17.2761 180.689L18.4701 182.281L19.664 184.271L20.0621 186.261L17.674 187.853L12.8981 187.455L9.71405 185.067L11.7041 180.689L9.31615 177.903V174.719L10.9081 169.147V168.351V165.963V164.769L11.3061 164.371H11.7041L12.1021 163.973L13.2961 161.983L14.4901 159.197H13.2961L12.5001 158.799L11.7041 158.003L11.3061 156.809L13.2961 153.227L14.8881 149.645L11.7041 154.421L11.3061 155.615L10.9081 157.605L9.71405 159.993L8.12207 161.983L6.5301 163.177L6.92812 165.167L7.32615 171.137L6.92812 173.127L6.5301 172.729H6.13207V175.913L8.5201 187.455L10.1121 191.435L11.3061 196.609L12.5001 198.997L15.2861 211.733V215.315L15.684 217.305L16.4801 218.897L16.8781 220.489L16.4801 222.479L16.0821 224.469V226.061L15.2861 225.663H14.8881L14.4901 226.061L15.2861 227.255L20.4601 263.473L20.0621 264.269L19.664 265.065V265.861L20.0621 266.657L20.8581 267.055L22.0521 267.453L22.4501 267.851L22.8481 269.045L23.2461 270.239V273.423H22.8481L22.4501 273.821V274.617H21.654L21.2561 273.821L20.4601 270.239L20.0621 269.443L19.664 268.647L19.2661 267.851V266.259L18.4701 268.647L23.2461 285.761V286.955L22.8481 288.149L21.654 290.935V298.099L23.2461 306.457L33.9921 334.317L34.7881 339.889H34.3901H33.9921H33.594V340.287L33.9921 340.685L34.3901 341.083L34.7881 341.481H35.1861L36.7781 347.849L38.7681 351.033L39.564 355.809L40.3601 357.401V357.799V359.391V360.187L45.1361 370.137L46.3301 371.729L46.7281 372.127V372.923V373.321L47.1261 373.719L47.9221 374.117L56.2801 382.873L58.2701 384.465L59.0661 383.669L60.6581 384.465L63.0462 386.057L66.2301 386.853L71.4041 388.843L71.8021 389.241L72.5981 390.037L72.9961 390.435H73.3941L73.7921 390.037L74.1901 389.639H74.5881L75.384 390.037L75.7821 390.435L76.1801 390.833L76.5781 391.231L80.1601 391.629H81.7521L83.344 390.435L84.1401 391.629L84.5381 392.823L85.3341 393.619L86.9261 394.017L92.8961 393.221L94.4881 393.619L96.0801 394.415L97.6721 395.211L99.2641 394.813L101.652 392.823L102.846 392.027L104.04 391.629L105.632 391.231L109.612 391.629L111.602 389.639L119.562 383.669L122.348 382.475L125.134 382.873L126.726 380.883L129.114 380.087L134.686 378.893L139.86 377.301L150.606 374.913L152.994 374.117L155.382 372.923L156.576 372.525L157.372 372.127L157.77 371.331L158.168 369.739L158.566 368.943L159.362 368.545L160.158 368.943V370.535L172.496 366.157L176.476 364.167L195.58 349.441L198.366 348.247L200.356 347.849L206.326 343.869L209.51 340.685L219.062 325.561L220.256 322.775L219.46 320.387L222.246 316.009L222.644 314.417L223.042 313.223L224.634 310.437L225.032 308.447V306.059L225.43 304.467L230.206 288.149L230.604 284.169H231.002ZM30.0121 89.9449L29.614 89.1489L29.2161 90.7409L30.0121 89.9449ZM11.3061 33.4289L10.1121 31.0409L9.71405 30.643H7.72405L6.13207 30.2449L5.73405 29.0509L4.93812 28.2549H4.14207L3.74405 29.4489V33.4289L4.93812 34.623L7.32615 35.4189H9.71405L11.3061 33.4289ZM2.15207 76.8109L0.958122 77.6069H2.15207L2.5501 77.2089H4.5401L4.14207 76.8109H2.15207Z" fill="#2E5F44"/>
</svg>
