<?xml version="1.0" encoding="utf-8"?>
<!-- Generator: Adobe Illustrator 24.1.0, SVG Export Plug-In . SVG Version: 6.00 Build 0)  -->
<svg version="1.1" id="Layer_1" xmlns="http://www.w3.org/2000/svg" xmlns:xlink="http://www.w3.org/1999/xlink" x="0px" y="0px"
	 viewBox="0 0 30 30" style="enable-background:new 0 0 30 30;" xml:space="preserve">
<style type="text/css">
	.st0{fill:#E6E6E6;}
	.st1{fill:#6080c0;}
	.st2{fill:#2050be;}
</style>
<g>
	<g>
		<polygon class="st0" points="28,3 2,3 2,27 8,27 8,7 28,7 		"/>
	</g>
	<path class="st1" d="M27,7v4h-3V7h-1v4h-3V7h-1v4h-3V7h-1v4h-3V7h-1v4H8v1h3v4H8v1h3v4H8v1h3v4H8v1h3h1h3h1h3h1h3h1h3h1v-1v-4v-1
		v-4v-1v-4v-1V7H27z M23,12v4h-3v-4H23z M20,17h3v4h-3V17z M19,21h-3v-4h3V21z M19,12v4h-3v-4H19z M12,12h3v4h-3V12z M12,17h3v4h-3
		V17z M12,26v-4h3v4H12z M16,26v-4h3v4H16z M20,26v-4h3v4H20z M27,26h-3v-4h3V26z M27,21h-3v-4h3V21z M27,16h-3v-4h3V16z"/>
	<path class="st2" d="M24,3h-1h-3h-1h-3h-1h-3h-1H8H7H2v3v1v4v1v4v1v4v1v5h5h1v-1v-4v-1v-4v-1v-4v-1V7h3h1h3h1h3h1h3h1h3h1V6V3H24z
		 M3,4h4v2H3V4z M7,26H3v-4h4V26z M7,21H3v-4h4V21z M7,16H3v-4h4V16z M7,11H3V7h4V11z M8,6V4h3v2H8z M12,6V4h3v2H12z M16,6V4h3v2H16
		z M20,6V4h3v2H20z M24,6V4h3v2H24z"/>
</g>
</svg>
