<svg width="24" height="24" viewBox="0 0 24 24" fill="none" xmlns="http://www.w3.org/2000/svg">
<path d="M23.3342 0H0.699894C0.332115 0 0.0341797 0.297936 0.0341797 0.665714V23.3C0.0341797 23.6678 0.332115 23.9657 0.699894 23.9657H23.3342C23.702 23.9657 23.9999 23.6678 23.9999 23.3V0.665714C23.9999 0.297936 23.702 0 23.3342 0ZM7.57862 22.6343H1.36561V16.4213H7.57862V22.6343ZM7.57862 15.0898H1.36561V8.87635H7.57862V15.0898ZM7.57862 7.54492H1.36561V1.3319H7.57862V7.54492ZM15.1235 22.6348H8.91005V16.4217H15.1231V22.6348H15.1235ZM15.1235 15.0903H8.91005V8.87682H15.1231V15.0903H15.1235ZM15.1235 7.5454H8.91005V1.33238H15.1231V7.5454H15.1235ZM22.668 22.6352H16.455V16.4222H22.668V22.6352ZM22.668 15.0908H16.455V8.8773H22.668V15.0908ZM22.668 7.54587H16.455V1.33286H22.668V7.54587Z" fill="black"/>
</svg>
