<svg width="24" height="24" viewBox="0 0 24 24" fill="none" xmlns="http://www.w3.org/2000/svg">
<path d="M14.3354 5.25336C14.2486 5.04768 14.3308 4.81054 14.5264 4.70187C14.8406 4.52733 15.4754 4.21362 16.2048 4.0584V3.48826C15.8846 3.50611 15.0254 3.70383 13.7206 5.11163C13.6218 5.2182 13.4841 5.27644 13.344 5.27644C13.2935 5.27644 13.2429 5.26881 13.1936 5.25324C12.9459 5.17522 12.7977 4.9238 12.8487 4.66832C12.9662 4.08162 13.3036 2.76694 14.0886 1.76109C13.8732 1.70253 13.6502 1.65711 13.4226 1.62402C13.2993 1.76579 13.1616 1.9061 13.0249 2.04496C12.6176 2.45842 12.1967 2.88584 12.2116 3.27675C12.2152 3.3671 12.1543 3.44739 12.0666 3.46897C12.0515 3.4727 12.0362 3.47432 12.0215 3.47432C11.9491 3.47432 11.8813 3.4328 11.8494 3.36499C11.6495 2.94098 11.5924 2.26604 11.6886 1.63391C10.849 1.76497 10.0922 2.07316 9.47291 2.53724C10.5323 3.18897 11.6794 4.25645 12.1003 5.20973C12.1866 5.40487 12.1741 5.60844 12.0667 5.75408C11.9676 5.88904 11.8056 5.95571 11.6152 5.93283C11.5426 5.92472 11.4761 5.91888 11.4067 5.91223L11.8272 6.54291L12.4312 5.63813C12.4666 5.58541 12.5259 5.55362 12.5895 5.55362H12.5897C12.6533 5.55362 12.7126 5.58557 12.7478 5.63845L13.3496 6.54245L13.9524 5.63816C13.9988 5.56825 14.0859 5.53711 14.1659 5.5616C14.2462 5.58593 14.301 5.66006 14.301 5.74376V17.3134C15.1373 17.8829 15.6332 18.8153 15.6332 19.8279C15.6332 21.5069 14.2671 22.8732 12.5879 22.8732C10.9089 22.8732 9.54265 21.5071 9.54265 19.8279C9.54265 18.8153 10.0387 17.8827 10.8749 17.3134L10.8755 5.86999C10.0191 5.82425 9.42815 5.89935 8.97217 6.03349V22.0666C8.97217 22.1716 9.01824 22.2752 9.09869 22.3512C10.9222 24.0759 14.2486 24.0761 16.0774 22.351C16.1583 22.2751 16.2045 22.1711 16.2045 22.066L16.2047 5.7891C15.8574 5.65722 15.3756 5.54303 14.7223 5.51983C14.5526 5.51351 14.4008 5.40872 14.3354 5.25349L14.3354 5.25336Z" fill="#D29434"/>
<path d="M13.5081 6.99136C13.4727 7.04424 13.4134 7.07604 13.3498 7.07604C13.286 7.07604 13.2267 7.04408 13.1915 6.9912L12.5897 6.08691L11.9856 6.99153C11.9503 7.04425 11.8909 7.07604 11.8273 7.07604C11.7636 7.07604 11.7044 7.04425 11.669 6.99137L11.2562 6.3724V17.4159C11.2562 17.4811 11.2226 17.542 11.1676 17.5767C10.3889 18.0694 9.92383 18.911 9.92383 19.8278C9.92383 21.297 11.1191 22.4923 12.5884 22.4923C14.0577 22.4923 15.253 21.297 15.253 19.8278C15.253 18.911 14.7881 18.0693 14.0092 17.5767C13.9542 17.5418 13.9208 17.4811 13.9208 17.4158V6.37224L13.5081 6.99136ZM14.3013 19.8275C14.3013 20.7902 13.5071 21.5675 12.5383 21.5396C11.6471 21.5141 10.9042 20.773 10.8763 19.882C10.8523 19.1128 11.3363 18.4551 12.0173 18.214L12.0175 7.83697C12.0175 7.73187 12.1028 7.64671 12.2077 7.64671H12.969C13.0741 7.64671 13.1592 7.73203 13.1592 7.83697V18.214C13.8243 18.4494 14.3013 19.0818 14.3013 19.8273L14.3013 19.8275Z" fill="#D29434"/>
<path d="M8.97192 4.55966C9.26876 4.58172 9.5338 4.61935 9.75051 4.65877C9.5291 4.49932 9.25853 4.38447 8.97192 4.29883V4.55966Z" fill="#D29434"/>
<path d="M6.63487 6.70281C7.06959 6.57986 7.37858 6.39786 7.70625 6.20563C8.4772 5.75193 9.27414 5.28316 11.6586 5.55453C11.6863 5.55745 11.7381 5.55858 11.7604 5.52825C11.7791 5.50294 11.7882 5.44455 11.7523 5.36328C11.3397 4.42897 10.109 3.32533 9.06003 2.7326C9.05825 2.73179 9.05695 2.73066 9.05549 2.73001C8.78866 2.57948 8.53319 2.46058 8.30659 2.38791C7.47319 2.18402 7.1152 2.40511 6.97746 2.5558C6.83553 2.71152 6.79563 2.93487 6.87089 3.15355C6.96189 3.41714 7.19012 3.60368 7.48143 3.6528L7.62207 3.66967C8.53902 3.77948 9.92524 3.94542 10.4696 4.88718C10.5087 4.95482 10.5024 5.03965 10.4535 5.10064C10.4045 5.16196 10.3236 5.18693 10.2487 5.16422C10.2352 5.16001 9.45238 4.92643 8.44769 4.92643C7.68857 4.92643 6.80227 5.0596 6.02497 5.52596C5.65173 5.75386 5.59967 6.11674 5.71385 6.37543C5.82189 6.61939 6.12764 6.85135 6.63487 6.70277L6.63487 6.70281Z" fill="#D29434"/>
<path d="M12.7537 1.77718C13.184 1.34034 13.5903 0.927711 13.438 0.613659C13.4025 0.540343 13.3306 0.479513 13.2406 0.445936C13.1413 0.409278 13.0481 0.390625 12.9603 0.390625C12.7846 0.390625 12.6307 0.464589 12.494 0.613173C12.1128 1.02794 11.965 1.9173 12.0419 2.6057C12.2208 2.31778 12.4897 2.04498 12.7537 1.77718Z" fill="#D29434"/>
<path d="M13.3084 4.88916C13.3541 4.90376 13.4068 4.88932 13.4414 4.85185C15.189 2.96671 16.2607 3.08771 16.4247 3.12014C17.5929 3.23872 18.1989 2.69485 18.2678 2.13684C18.3319 1.61744 17.9436 0.99345 16.9394 0.851019C16.832 0.840152 16.7272 0.834961 16.6255 0.834961C14.1999 0.834961 13.4106 3.80058 13.2223 4.7417C13.2094 4.80626 13.2462 4.86953 13.3084 4.88916Z" fill="#D29434"/>
<path d="M18.8199 5.26404C17.6585 3.58083 15.3812 4.66276 14.7111 5.03452C14.6851 5.04896 14.6747 5.07864 14.6858 5.10557C14.6942 5.12536 14.7137 5.13849 14.736 5.13947C15.5121 5.16704 16.0709 5.31546 16.4661 5.484C16.4682 5.48481 16.4702 5.48578 16.4723 5.48643C17.0457 5.73217 17.2687 6.01977 17.2837 6.03971C17.7886 6.77822 18.3914 6.86501 18.7398 6.63613C19.0619 6.42428 19.2245 5.90477 18.8199 5.26404Z" fill="#D29434"/>
<path d="M19.4399 3.55501C19.4399 3.71268 19.312 3.8405 19.1544 3.8405C18.9967 3.8405 18.8689 3.71268 18.8689 3.55501C18.8689 3.39735 18.9967 3.26953 19.1544 3.26953C19.312 3.26953 19.4399 3.39735 19.4399 3.55501Z" fill="#D29434"/>
<path d="M9.16244 1.17574C9.16244 1.42943 8.78174 1.42943 8.78174 1.17574C8.78174 0.921888 9.16244 0.921888 9.16244 1.17574Z" fill="#D29434"/>
<path d="M5.54615 3.74528C5.54615 4.00805 5.33317 4.2212 5.0704 4.2212C4.80763 4.2212 4.59448 4.00806 4.59448 3.74528C4.59448 3.4825 4.80762 3.26953 5.0704 3.26953C5.33318 3.26953 5.54615 3.48251 5.54615 3.74528Z" fill="#D29434"/>
<path d="M7.62065 16.2115C7.72593 16.2115 7.81092 16.1265 7.81092 16.0213C7.81092 15.7218 7.69592 15.5622 7.60362 15.4339C7.52495 15.3246 7.46818 15.2457 7.46818 15.0689C7.46818 14.8921 7.52511 14.8131 7.60362 14.704C7.69592 14.5757 7.81092 14.416 7.81092 14.1166C7.81092 13.8173 7.69592 13.6577 7.60362 13.5296C7.52495 13.4202 7.46818 13.3416 7.46818 13.1649C7.46818 12.9886 7.52511 12.9099 7.60362 12.8008C7.69592 12.6725 7.81092 12.5132 7.81092 12.2141C7.81092 11.9148 7.69592 11.7553 7.60362 11.627C7.52495 11.518 7.46818 11.4392 7.46818 11.2625C7.46818 11.0862 7.52511 11.0076 7.60362 10.8984C7.69592 10.7701 7.81092 10.6106 7.81092 10.3114C7.81092 10.2061 7.72592 10.1211 7.62065 10.1211C7.51539 10.1211 7.43039 10.2061 7.43039 10.3114C7.43039 10.4878 7.37345 10.5665 7.29495 10.6757C7.20265 10.804 7.08765 10.9634 7.08765 11.2624C7.08765 11.5618 7.20265 11.7213 7.29495 11.8496C7.37362 11.9586 7.43039 12.0374 7.43039 12.2139C7.43039 12.3902 7.37345 12.4689 7.29495 12.578C7.20265 12.7063 7.08765 12.8656 7.08765 13.1648C7.08765 13.464 7.20265 13.6236 7.29495 13.7518C7.37362 13.8611 7.43039 13.9398 7.43039 14.1164C7.43039 14.2932 7.37345 14.3722 7.29495 14.4814C7.20265 14.6097 7.08765 14.7693 7.08765 15.0688C7.08765 15.3682 7.20265 15.5278 7.29495 15.6561C7.37362 15.7655 7.43039 15.8443 7.43039 16.0211C7.43023 16.1264 7.51555 16.2115 7.62065 16.2115Z" fill="#D29434"/>
<path d="M7.82993 17.1637C7.83025 17.0585 7.74542 16.973 7.64031 16.9727H7.6395C7.53455 16.9727 7.44955 17.0573 7.44923 17.1623C7.44907 17.195 7.44826 17.9704 7.65004 18.5571C7.67729 18.6359 7.75093 18.6856 7.82993 18.6856C7.85036 18.6856 7.87145 18.6822 7.89173 18.675C7.991 18.641 8.04404 18.5326 8.00965 18.4332C7.8296 17.9083 7.82993 17.1712 7.82993 17.1637Z" fill="#D29434"/>
<path d="M6.31261 15.0502C6.30677 14.9451 6.21642 14.867 6.11164 14.8713C6.00653 14.8774 5.9264 14.9674 5.93272 15.0722C5.93483 15.1089 5.98658 15.9767 6.13289 16.4619C6.1577 16.5443 6.23313 16.5971 6.31504 16.5971C6.33305 16.5971 6.35154 16.5945 6.37003 16.589C6.4706 16.5587 6.5277 16.4526 6.4972 16.3519C6.36403 15.9096 6.31326 15.0585 6.31261 15.0502Z" fill="#D29434"/>
<path d="M6.56516 9.5533C6.46508 9.52443 6.35884 9.5825 6.32996 9.68372C6.32315 9.70789 6.16014 10.2797 6.11391 10.8518C6.10547 10.9564 6.18349 11.0482 6.28844 11.0568C6.29363 11.0571 6.29866 11.0574 6.30385 11.0574C6.40198 11.0574 6.4852 10.982 6.49347 10.8824C6.53645 10.3492 6.69428 9.79452 6.69574 9.789C6.72461 9.68762 6.66638 9.58218 6.56516 9.5533Z" fill="#D29434"/>
<path d="M7.87237 8.40636C7.76823 8.38738 7.67059 8.4594 7.65388 8.56321C7.65031 8.58446 7.56743 9.08941 7.54974 9.34425C7.54277 9.4492 7.62193 9.53987 7.72671 9.54717C7.73109 9.54733 7.73547 9.5475 7.73985 9.5475C7.83896 9.5475 7.92249 9.47077 7.92963 9.37004C7.94585 9.13322 8.02858 8.62991 8.02922 8.62471C8.04625 8.52139 7.97602 8.42355 7.87237 8.40636Z" fill="#D29434"/>
<path d="M17.7649 13.3207C17.9177 13.1721 18.108 12.9871 18.108 12.5853C18.108 12.1768 17.9047 12.0023 17.756 11.8748C17.6243 11.7614 17.537 11.6868 17.537 11.4529C17.537 11.3704 17.5897 11.2945 17.6757 11.1773C17.9279 10.834 18.1031 10.4705 17.4867 9.80151C17.4155 9.7243 17.2953 9.71943 17.2178 9.79048C17.1406 9.86168 17.1355 9.9822 17.2067 10.0594C17.6621 10.5534 17.5391 10.7206 17.3691 10.952C17.2694 11.0876 17.1563 11.2414 17.1563 11.4529C17.1563 11.8615 17.3595 12.036 17.5083 12.1635C17.6402 12.2767 17.7274 12.3518 17.7274 12.5852C17.7274 12.8264 17.6319 12.9192 17.4995 13.0482C17.3467 13.1967 17.1563 13.382 17.1563 13.7836C17.1563 13.9654 17.2548 14.1406 17.3586 14.3262C17.579 14.7189 17.7693 15.0581 17.2277 15.4913C17.1456 15.5572 17.1323 15.6769 17.198 15.759C17.2356 15.806 17.2909 15.8303 17.3469 15.8303C17.3886 15.8303 17.4304 15.8169 17.4656 15.7886C18.2596 15.1533 17.9036 14.5187 17.6908 14.1397C17.615 14.005 17.537 13.866 17.537 13.7836C17.537 13.5426 17.6325 13.4495 17.7649 13.3207Z" fill="#D29434"/>
<path d="M17.5367 16.5957H17.5359C17.4308 16.596 17.346 16.6815 17.3463 16.7868C17.3463 16.7943 17.3466 17.5313 17.1664 18.0564C17.1322 18.1556 17.1851 18.2642 17.2843 18.2982C17.3048 18.3052 17.3259 18.3088 17.3461 18.3088C17.4251 18.3088 17.4989 18.2591 17.526 18.1803C17.7278 17.5936 17.727 16.8181 17.7268 16.7855C17.7267 16.6804 17.6417 16.5957 17.5367 16.5957Z" fill="#D29434"/>
<path d="M19.0644 14.4945C18.9595 14.4882 18.8695 14.5685 18.8635 14.6734C18.8628 14.6818 18.812 15.5329 18.6789 15.9751C18.6484 16.0757 18.7055 16.1818 18.8062 16.2121C18.8245 16.2176 18.8429 16.2202 18.861 16.2202C18.9429 16.2202 19.0184 16.1672 19.0432 16.0848C19.1895 15.5996 19.2412 14.7323 19.2433 14.6955C19.2497 14.5907 19.1695 14.5008 19.0644 14.4945Z" fill="#D29434"/>
<path d="M18.8727 10.6804C18.8777 10.6804 18.8829 10.6802 18.8881 10.6797C18.993 10.6711 19.071 10.5795 19.0626 10.4747C19.0164 9.9026 18.8534 9.3308 18.8465 9.30664C18.8177 9.20558 18.7114 9.14768 18.6113 9.17622C18.5103 9.2051 18.4519 9.31053 18.4808 9.41142C18.4822 9.41694 18.6401 9.97168 18.683 10.5049C18.6912 10.6049 18.7744 10.6804 18.8727 10.6804Z" fill="#D29434"/>
<path d="M17.4367 9.17131C17.4411 9.17131 17.4455 9.17114 17.4498 9.17098C17.5548 9.16368 17.6339 9.07285 17.6268 8.96806C17.6091 8.71324 17.5262 8.20845 17.5227 8.18702C17.5058 8.08337 17.4078 8.012 17.3042 8.03017C17.2005 8.04737 17.1303 8.14517 17.1473 8.24866C17.1481 8.25385 17.2307 8.75718 17.2469 8.99399C17.2541 9.0944 17.3374 9.17131 17.4367 9.17131Z" fill="#D29434"/>
</svg>
