<svg width="80" height="79" viewBox="0 0 80 79" fill="none" xmlns="http://www.w3.org/2000/svg">
<path d="M77.5609 39.5C77.5609 59.8619 60.7762 76.4255 40.0003 76.4255C19.2244 76.4255 2.4397 59.8619 2.4397 39.5C2.4397 19.1381 19.2244 2.57447 40.0003 2.57447C60.7762 2.57447 77.5609 19.1381 77.5609 39.5Z" stroke="#E85959" stroke-width="4.14894"/>
<ellipse opacity="0.1" cx="39.8642" cy="39.5" rx="31.2021" ry="30.7021" fill="#EA0029"/>
<g clip-path="url(#clip0_633_817)">
<path fill-rule="evenodd" clip-rule="evenodd" d="M43.6363 22.7865C43.6363 21.903 43.2953 21.0991 42.7446 20.5164C42.1947 19.9338 41.4368 19.5716 40.603 19.5716C39.7692 19.5716 39.0113 19.9338 38.4606 20.5164C37.9108 21.0991 37.5697 21.903 37.5697 22.7865V45.2848C35.468 46.4269 34.0304 48.7451 34.0304 51.4197C34.0304 55.2256 36.9417 58.3104 40.5334 58.3104C44.1244 58.3104 47.0356 55.2256 47.0356 51.4197C47.0356 48.8047 45.6614 46.5305 43.6363 45.3627V22.7865ZM46.8299 25.7653V24.2734H50.4983C50.685 24.2734 50.8641 24.352 50.9961 24.4919C51.1281 24.6318 51.2023 24.8215 51.2023 25.0194C51.2023 25.2172 51.1281 25.4069 50.9961 25.5468C50.8641 25.6867 50.685 25.7653 50.4983 25.7653H46.8299ZM46.8299 29.8381V28.3462H50.4983C50.685 28.3462 50.8641 28.4248 50.9961 28.5647C51.1281 28.7046 51.2023 28.8943 51.2023 29.0922C51.2023 29.29 51.1281 29.4797 50.9961 29.6196C50.8641 29.7595 50.685 29.8381 50.4983 29.8381H46.8299ZM46.8299 33.9109V32.419H50.4983C50.685 32.419 50.8641 32.4976 50.9961 32.6375C51.1281 32.7774 51.2023 32.9671 51.2023 33.165C51.2023 33.3628 51.1281 33.5525 50.9961 33.6924C50.8641 33.8323 50.685 33.9109 50.4983 33.9109H46.8299ZM46.8299 37.9837V36.4918H50.4983C50.685 36.4918 50.8641 36.5704 50.9961 36.7103C51.1281 36.8502 51.2023 37.0399 51.2023 37.2378C51.2023 37.4356 51.1281 37.6253 50.9961 37.7652C50.8641 37.9051 50.685 37.9837 50.4983 37.9837H46.8299ZM46.8299 42.0565V40.5646H50.4983C50.685 40.5646 50.8641 40.6432 50.9961 40.7831C51.1281 40.923 51.2023 41.1127 51.2023 41.3106C51.2023 41.5084 51.1281 41.6981 50.9961 41.838C50.8641 41.9779 50.685 42.0565 50.4983 42.0565H46.8299ZM45.1897 43.991C47.4557 45.5889 48.9488 48.3191 48.9488 51.4197C48.9488 56.3445 45.1811 60.3369 40.5334 60.3369C35.8849 60.3369 32.1172 56.3445 32.1172 51.4197C32.1172 48.2561 33.6722 45.4779 36.0156 43.8948V22.7865C36.0156 21.4488 36.5318 20.233 37.3625 19.3528C38.1939 18.4717 39.3406 17.9255 40.603 17.9255C41.8647 17.9255 43.0121 18.4717 43.8436 19.3528C44.6742 20.233 45.1897 21.4488 45.1897 22.7865V43.991Z" fill="white"/>
<path fill-rule="evenodd" clip-rule="evenodd" d="M41.8565 46.5487C43.8541 47.157 45.3152 49.1072 45.3152 51.4196C45.3152 54.2185 43.1744 56.487 40.533 56.487C37.8916 56.487 35.75 54.2185 35.75 51.4196C35.75 49.108 37.2119 47.157 39.2088 46.5487V23.6626C39.2088 21.9196 41.8565 21.9884 41.8565 23.6626V46.5487Z" fill="#E85959"/>
</g>
<defs>
<clipPath id="clip0_633_817">
<rect width="19.0851" height="42.4114" fill="white" transform="translate(32.1172 17.9255)"/>
</clipPath>
</defs>
</svg>
