<svg width="16" height="34" viewBox="0 0 16 34" fill="none" xmlns="http://www.w3.org/2000/svg">
<path d="M5.45327 19.1599L6.47002 18.7454V0.483154H10.0298V18.7454L11.0397 19.1599C12.6155 19.7986 13.9175 20.9568 14.7236 22.4367C15.5297 23.9165 15.7898 25.6264 15.4596 27.2743C15.1294 28.9222 14.2293 30.406 12.913 31.4725C11.5966 32.539 9.94569 33.1219 8.24192 33.1219C6.53815 33.1219 4.88719 32.539 3.57086 31.4725C2.25454 30.406 1.35444 28.9222 1.02423 27.2743C0.694011 25.6264 0.954145 23.9165 1.76023 22.4367C2.56631 20.9568 3.86836 19.7986 5.44412 19.1599H5.45327Z" fill="#E84131"/>
</svg>
