<svg width="97" height="94" viewBox="0 0 97 94" fill="none" xmlns="http://www.w3.org/2000/svg">
<path d="M93.7651 47C93.7651 71.5387 73.5373 91.5 48.4997 91.5C23.4621 91.5 3.23438 71.5387 3.23438 47C3.23438 22.4612 23.4621 2.5 48.4997 2.5C73.5373 2.5 93.7651 22.4612 93.7651 47Z" stroke="#E85959" stroke-width="5"/>
<ellipse opacity="0.1" cx="48.3369" cy="47" rx="37.6025" ry="37" fill="#EA0029"/>
<g clip-path="url(#clip0_1871_10434)">
<path fill-rule="evenodd" clip-rule="evenodd" d="M52.882 26.8581C52.882 25.7934 52.471 24.8245 51.8074 24.1223C51.1448 23.4202 50.2314 22.9837 49.2265 22.9837C48.2217 22.9837 47.3083 23.4202 46.6447 24.1223C45.982 24.8245 45.571 25.7934 45.571 26.8581V53.9714C43.0382 55.3478 41.3057 58.1415 41.3057 61.3647C41.3057 65.9513 44.8141 69.669 49.1426 69.669C53.4702 69.669 56.9786 65.9513 56.9786 61.3647C56.9786 58.2134 55.3225 55.4726 52.882 54.0653V26.8581ZM56.7307 30.4479V28.65H61.1516C61.3766 28.65 61.5924 28.7447 61.7515 28.9133C61.9106 29.0819 62 29.3106 62 29.549C62 29.7874 61.9106 30.0161 61.7515 30.1846C61.5924 30.3532 61.3766 30.4479 61.1516 30.4479H56.7307ZM56.7307 35.3562V33.5583H61.1516C61.3766 33.5583 61.5924 33.653 61.7515 33.8216C61.9106 33.9902 62 34.2188 62 34.4572C62 34.6956 61.9106 34.9243 61.7515 35.0929C61.5924 35.2615 61.3766 35.3562 61.1516 35.3562H56.7307ZM56.7307 40.2644V38.4665H61.1516C61.3766 38.4665 61.5924 38.5612 61.7515 38.7298C61.9106 38.8984 62 39.1271 62 39.3655C62 39.6039 61.9106 39.8325 61.7515 40.0011C61.5924 40.1697 61.3766 40.2644 61.1516 40.2644H56.7307ZM56.7307 45.1727V43.3748H61.1516C61.3766 43.3748 61.5924 43.4695 61.7515 43.6381C61.9106 43.8067 62 44.0353 62 44.2737C62 44.5121 61.9106 44.7408 61.7515 44.9094C61.5924 45.078 61.3766 45.1727 61.1516 45.1727H56.7307ZM56.7307 50.0809V48.283H61.1516C61.3766 48.283 61.5924 48.3777 61.7515 48.5463C61.9106 48.7149 62 48.9436 62 49.182C62 49.4204 61.9106 49.649 61.7515 49.8176C61.5924 49.9862 61.3766 50.0809 61.1516 50.0809H56.7307ZM54.7541 52.4122C57.4848 54.3379 59.2843 57.6281 59.2843 61.3647C59.2843 67.2998 54.7437 72.1111 49.1426 72.1111C43.5406 72.1111 39 67.2998 39 61.3647C39 57.5522 40.8739 54.2041 43.698 52.2963V26.8581C43.698 25.246 44.3202 23.7807 45.3212 22.72C46.3232 21.6582 47.7051 21 49.2265 21C50.747 21 52.1298 21.6582 53.1318 22.72C54.1329 23.7807 54.7541 25.246 54.7541 26.8581V52.4122Z" fill="white"/>
<path fill-rule="evenodd" clip-rule="evenodd" d="M50.738 55.4948C53.1454 56.2279 54.9062 58.5782 54.9062 61.3649C54.9062 64.738 52.3263 67.4718 49.143 67.4718C45.9598 67.4718 43.3789 64.738 43.3789 61.3649C43.3789 58.5792 45.1407 56.2279 47.5472 55.4948V27.9141C47.5472 25.8136 50.738 25.8965 50.738 27.9141V55.4948Z" fill="#E85959"/>
</g>
<defs>
<clipPath id="clip0_1871_10434">
<rect width="23" height="51.1111" fill="white" transform="translate(39 21)"/>
</clipPath>
</defs>
</svg>
