<svg width="24" height="24" viewBox="0 0 24 24" fill="none" xmlns="http://www.w3.org/2000/svg">
<path fill-rule="evenodd" clip-rule="evenodd" d="M16.3206 0.489258C14.8207 0.489258 13.4692 1.13854 12.5445 2.17731C12.2435 2.05445 11.9138 1.99338 11.5685 1.99338C10.2467 1.99338 9.16219 2.98515 9.00845 4.26534C9.2747 4.22426 9.53737 4.20051 9.80845 4.20141C11.9143 4.16337 13.986 5.40338 14.9285 7.28141C16.2442 7.73947 17.291 8.87675 17.6246 10.2334C17.6288 10.2489 17.6285 10.2659 17.6326 10.2814H20.0726C21.981 10.2814 23.5287 8.73375 23.5287 6.82531C23.5287 5.21228 22.4233 3.86192 20.9287 3.4814C20.1413 1.7187 18.376 0.489441 16.3207 0.489441L16.3206 0.489258ZM9.86486 4.85731C8.36489 4.85731 7.01343 5.51464 6.08877 6.5534C5.7877 6.43054 5.45805 6.36144 5.11267 6.36144C3.68552 6.36144 2.52876 7.51842 2.52876 8.94535C2.52876 9.14642 2.55733 9.3416 2.60073 9.52926C1.40018 9.75194 0.48877 10.8082 0.48877 12.0732C0.48877 13.5003 1.64575 14.6573 3.07268 14.6573H13.6167C15.5251 14.6573 17.0728 13.1096 17.0728 11.2012C17.0728 9.58814 15.9674 8.22974 14.4728 7.84921C13.6854 6.08651 11.9201 4.85725 9.86478 4.85725L9.86486 4.85731ZM4.92086 15.1375C4.65782 15.5227 4.03619 15.764 3.94477 16.2015C3.85012 16.5604 4.05941 16.9377 4.41672 17.0334C4.77403 17.1291 5.14335 16.9116 5.24063 16.5534C5.24117 16.5525 5.24063 16.5463 5.24063 16.5454C5.38027 16.1207 4.95598 15.6025 4.92063 15.1373L4.92086 15.1375ZM8.68891 15.1375L6.745 19.2336H9.08109L7.97718 21.5217H7.00109L7.665 23.5137L10.273 21.5217H9.25696L10.833 18.2497H8.47304L9.96091 15.1376L8.68891 15.1375ZM14.4407 15.1375C14.1777 15.5227 13.5482 15.764 13.4568 16.2015C13.3621 16.5604 13.5714 16.9377 13.9287 17.0334C14.286 17.1291 14.6554 16.9116 14.7526 16.5534C14.7532 16.5525 14.7526 16.5463 14.7526 16.5454C14.8923 16.1207 14.476 15.6026 14.4407 15.1375ZM4.35245 18.0735C4.08941 18.4586 3.46778 18.6999 3.37635 19.1374C3.28171 19.4963 3.491 19.8736 3.84831 19.9693C4.20562 20.0651 4.56689 19.8475 4.6644 19.4893C4.66494 19.4884 4.6644 19.4822 4.6644 19.4813C4.80404 19.0566 4.38761 18.5384 4.35244 18.0732L4.35245 18.0735ZM13.8007 18.0735C13.5377 18.4586 12.916 18.6999 12.8246 19.1374C12.73 19.4963 12.9392 19.8736 13.2965 19.9693C13.6539 20.0651 14.0232 19.8475 14.1205 19.4893C14.121 19.4884 14.1205 19.4822 14.1205 19.4813C14.2601 19.0566 13.8358 18.5384 13.8005 18.0732L13.8007 18.0735ZM3.78467 21.0096C3.52164 21.3947 2.90001 21.636 2.80858 22.0735C2.71394 22.4324 2.91519 22.8097 3.27249 22.9054C3.62981 23.0011 3.99912 22.7836 4.0964 22.4254C4.09693 22.4245 4.0964 22.4183 4.0964 22.4174C4.23604 21.9927 3.81961 21.4745 3.78444 21.0093L3.78467 21.0096ZM13.1685 21.0096C12.9052 21.3947 12.276 21.636 12.1845 22.0735C12.0899 22.4324 12.2992 22.8097 12.6565 22.9054C13.0138 23.0011 13.3831 22.7836 13.4804 22.4254C13.4809 22.4245 13.4804 22.4183 13.4804 22.4174C13.6201 21.9927 13.2036 21.4745 13.1684 21.0093L13.1685 21.0096Z" fill="#D29434"/>
</svg>
