<svg width="40" height="41" viewBox="0 0 40 41" fill="none" xmlns="http://www.w3.org/2000/svg">
<path d="M20 8.11475C12.0334 8.11475 5.55005 14.5981 5.55005 22.5647C5.55005 30.5314 12.0334 37.0314 20 37.0314C27.9667 37.0314 34.4501 30.5481 34.4501 22.5814C34.4501 14.6147 27.9667 8.11475 20 8.11475ZM21.25 22.0314C21.25 22.7147 20.6834 23.2814 20 23.2814C19.3167 23.2814 18.75 22.7147 18.75 22.0314V13.6981C18.75 13.0147 19.3167 12.4481 20 12.4481C20.6834 12.4481 21.25 13.0147 21.25 13.6981V22.0314Z" fill="#FB8036"/>
<path d="M24.8166 6.11491H15.1833C14.5166 6.11491 13.9833 5.58158 13.9833 4.91491C13.9833 4.24824 14.5166 3.69824 15.1833 3.69824H24.8166C25.4833 3.69824 26.0166 4.23158 26.0166 4.89824C26.0166 5.56491 25.4833 6.11491 24.8166 6.11491Z" fill="#FB8036"/>
</svg>
