<svg width="52" height="53" viewBox="0 0 52 53" fill="none" xmlns="http://www.w3.org/2000/svg">
<g clip-path="url(#clip0_1107_3449)">
<mask id="mask0_1107_3449" style="mask-type:luminance" maskUnits="userSpaceOnUse" x="0" y="0" width="52" height="53">
<path d="M26 52.5C40.3594 52.5 52 40.8594 52 26.5C52 12.1406 40.3594 0.5 26 0.5C11.6406 0.5 0 12.1406 0 26.5C0 40.8594 11.6406 52.5 26 52.5Z" fill="white"/>
</mask>
<g mask="url(#mask0_1107_3449)">
<path d="M26 52.5C40.3594 52.5 52 40.8594 52 26.5C52 12.1406 40.3594 0.5 26 0.5C11.6406 0.5 0 12.1406 0 26.5C0 40.8594 11.6406 52.5 26 52.5Z" fill="#70A45E"/>
</g>
<mask id="mask1_1107_3449" style="mask-type:luminance" maskUnits="userSpaceOnUse" x="0" y="0" width="52" height="53">
<path d="M26 52.5C40.3594 52.5 52 40.8594 52 26.5C52 12.1406 40.3594 0.5 26 0.5C11.6406 0.5 0 12.1406 0 26.5C0 40.8594 11.6406 52.5 26 52.5Z" fill="white"/>
</mask>
<g mask="url(#mask1_1107_3449)">
<path d="M28.3615 26.7398C28.5245 25.3045 30.8313 22.0287 31.859 20.63C33.659 18.3744 34.8089 15.3309 34.8519 12.7324H18.1545C18.1976 15.3309 19.3474 18.3744 21.1475 20.63C22.1753 22.0287 24.482 25.3045 24.6451 26.7398C24.482 28.175 22.1753 31.4512 21.1475 32.8497C19.3474 35.1052 18.1976 38.1488 18.1545 40.7472H34.8519C34.8089 38.1488 33.659 35.1052 31.859 32.8497C30.8313 31.4512 28.5245 28.175 28.3615 26.7398Z" fill="#F4F4F4"/>
<path d="M16.1467 13.0088H17.2215V41.3507H16.1467V13.0088Z" fill="#202630"/>
<path d="M28.3616 26.7395C28.5246 25.3042 30.8314 22.0284 31.8591 20.6297C32.4896 19.8396 33.0381 18.9519 33.4894 18.0215H19.5174C19.9688 18.9519 20.5172 19.8395 21.1477 20.6297C22.1755 22.0284 24.4822 25.3042 24.6453 26.7395C24.4822 28.1747 22.1755 31.4509 21.1477 32.8494C19.3476 35.1049 18.1978 38.1485 18.1548 40.7469H34.8521C34.809 38.1485 33.6591 35.1049 31.8591 32.8494C30.8314 31.4509 28.5246 28.1747 28.3616 26.7395Z" fill="#CB993D"/>
<path d="M35.5825 12.7324H36.6573V41.0742H35.5825V12.7324Z" fill="#202630"/>
<path opacity="0.3" d="M28.3615 26.7398C28.5245 25.3045 30.8313 22.0287 31.859 20.63C33.659 18.3744 34.8089 15.3309 34.8519 12.7324H31.1177C31.1439 12.9668 31.1578 13.2043 31.1565 13.4452C31.1371 16.8499 29.0137 19.7483 27.6228 22.7153C26.8221 24.4236 26.1621 26.3103 26.2801 28.226C26.4097 30.3282 27.3995 32.1393 28.4145 33.9357C29.6388 36.1028 30.3711 38.3913 30.7974 40.7472H34.8519C34.8089 38.1488 33.659 35.1052 31.859 32.8497C30.8313 31.4512 28.5245 28.175 28.3615 26.7398Z" fill="#F4F4F4"/>
<path opacity="0.3" d="M33.4893 18.0215H30.0056C29.2824 19.6224 28.3522 21.1593 27.6228 22.715C26.8221 24.4233 26.1621 26.31 26.2801 28.2257C26.4097 30.3279 27.3995 32.139 28.4145 33.9354C29.6388 36.1025 30.3711 38.391 30.7974 40.7469H34.8519C34.8089 38.1485 33.659 35.1049 31.859 32.8494C30.8313 31.4508 28.5245 28.1747 28.3615 26.7395C28.5245 25.3042 30.8313 22.0284 31.859 20.6297C32.4894 19.8395 33.0379 18.9519 33.4893 18.0215Z" fill="#CB993D"/>
<path opacity="0.3" d="M35.5825 12.7324H36.6573V41.0742H35.5825V12.7324Z" fill="#202630"/>
<path d="M36.7961 12.7319C36.7961 13.4549 36.2101 14.041 35.4871 14.041H17.2407C16.5178 14.041 15.9316 13.4549 15.9316 12.7319C15.9316 12.009 16.5178 11.4229 17.2407 11.4229H35.4871C36.2101 11.4229 36.7961 12.0089 36.7961 12.7319Z" fill="#2E3644"/>
<path d="M38.0004 11.927C38.0004 12.7333 37.3467 13.387 36.5404 13.387H16.1875C15.3811 13.387 14.7273 12.7333 14.7273 11.927C14.7273 11.1205 15.3811 10.4668 16.1875 10.4668H36.5404C37.3468 10.4668 38.0004 11.1204 38.0004 11.927Z" fill="#202630"/>
<path d="M36.9355 40.269C36.9355 39.5459 36.3494 38.96 35.6265 38.96H17.3802C16.6572 38.96 16.071 39.5459 16.071 40.269C16.071 40.9919 16.6572 41.5779 17.3802 41.5779H35.6265C36.3495 41.5779 36.9355 40.992 36.9355 40.269Z" fill="#2E3644"/>
<path d="M38.1398 41.0734C38.1398 40.2671 37.4861 39.6133 36.6798 39.6133H16.3269C15.5205 39.6133 14.8667 40.2671 14.8667 41.0734C14.8667 41.8799 15.5205 42.5335 16.3269 42.5335H36.6798C37.4862 42.5335 38.1398 41.88 38.1398 41.0734Z" fill="#202630"/>
</g>
</g>
<defs>
<clipPath id="clip0_1107_3449">
<rect width="52" height="52" fill="white" transform="translate(0 0.5)"/>
</clipPath>
</defs>
</svg>
