<svg width="70" height="71" viewBox="0 0 70 71" fill="none" xmlns="http://www.w3.org/2000/svg">
<circle opacity="0.1" cx="35" cy="35.5" r="35" fill="#12BF0E"/>
<path d="M32.6667 33.3735C32.6667 34.0935 32.8667 34.2002 33.3201 34.3602L34.0001 34.6002V32.3335H33.6001C33.0934 32.3335 32.6667 32.8002 32.6667 33.3735Z" fill="#12BF0E"/>
<path d="M36 39.6666H36.4C36.92 39.6666 37.3333 39.1999 37.3333 38.6266C37.3333 37.9066 37.1333 37.7999 36.68 37.6399L36 37.3999V39.6666Z" fill="#12BF0E"/>
<path d="M45.1067 27.3065L42.3734 30.0398C42.1734 30.2398 41.9201 30.3332 41.6667 30.3332C41.4134 30.3332 41.1601 30.2398 40.9601 30.0398C40.5734 29.6532 40.5734 29.0132 40.9601 28.6265L43.6934 25.8932C41.3467 23.8932 38.3201 22.6665 35.0001 22.6665C27.6401 22.6665 21.6667 28.6398 21.6667 35.9998C21.6667 43.3598 27.6401 49.3332 35.0001 49.3332C42.3601 49.3332 48.3334 43.3598 48.3334 35.9998C48.3334 32.6798 47.1067 29.6532 45.1067 27.3065ZM37.3334 35.7598C38.1867 36.0665 39.3334 36.6798 39.3334 38.6398C39.3334 40.3065 38.0134 41.6798 36.4001 41.6798H36.0001V42.0132C36.0001 42.5598 35.5467 43.0132 35.0001 43.0132C34.4534 43.0132 34.0001 42.5598 34.0001 42.0132V41.6798H33.8934C32.1201 41.6798 30.6667 40.1865 30.6667 38.3465C30.6667 37.7865 31.1201 37.3332 31.6667 37.3332C32.2134 37.3332 32.6667 37.7865 32.6667 38.3332C32.6667 39.0665 33.2134 39.6665 33.8934 39.6665H34.0001V36.7065L32.6667 36.2398C31.8134 35.9332 30.6667 35.3198 30.6667 33.3598C30.6667 31.6932 31.9867 30.3198 33.6001 30.3198H34.0001V29.9998C34.0001 29.4532 34.4534 28.9998 35.0001 28.9998C35.5467 28.9998 36.0001 29.4532 36.0001 29.9998V30.3332H36.1067C37.8801 30.3332 39.3334 31.8265 39.3334 33.6665C39.3334 34.2132 38.8801 34.6665 38.3334 34.6665C37.7867 34.6665 37.3334 34.2132 37.3334 33.6665C37.3334 32.9332 36.7867 32.3332 36.1067 32.3332H36.0001V35.2932L37.3334 35.7598Z" fill="#12BF0E"/>
<path d="M49.2533 22.2798C49.1467 22.0398 48.96 21.8398 48.7067 21.7332C48.5867 21.6932 48.4667 21.6665 48.3333 21.6665H43C42.4533 21.6665 42 22.1198 42 22.6665C42 23.2132 42.4533 23.6665 43 23.6665H45.92L43.6933 25.8932C44.2 26.3332 44.6667 26.7998 45.1067 27.3065L47.3333 25.0798V27.9998C47.3333 28.5465 47.7867 28.9998 48.3333 28.9998C48.88 28.9998 49.3333 28.5465 49.3333 27.9998V22.6665C49.3333 22.5332 49.3067 22.4132 49.2533 22.2798Z" fill="#12BF0E"/>
</svg>
