<svg width="24" height="24" viewBox="0 0 24 24" fill="none" xmlns="http://www.w3.org/2000/svg">
<path d="M22.776 19.2057C21.8568 19.1836 19.7376 19.2425 15.876 17.6143C14.784 17.155 10.548 14.704 10.848 10.3178C10.992 8.20578 12.4056 7.39534 13.584 7.51814C14.76 7.64093 15.204 8.44891 15.192 9.18813C15.1824 9.77263 14.868 10.2736 14.5032 10.4234C13.8888 10.6789 13.5144 9.95682 13.176 10.2687C12.8472 10.5708 13.68 11.5531 14.796 11.536C16.8 11.5089 17.4816 9.48775 17.592 8.14193C17.8056 5.51414 16.5792 2.87898 13.416 1.56017C10.1376 0.192247 6.264 1.26547 3.8064 5.48958C3.0696 6.75436 2.7936 7.34868 1.848 8.22788C1.4088 8.63802 0.9696 8.77063 0.4728 8.84431C0.4584 8.84677 0.4416 8.84922 0.4272 8.84922C0.1848 8.87869 0 9.08744 0 9.33794V21.1581C0 22.1748 0.8064 23 1.8 23H22.2C23.1936 23 24 22.1748 24 21.1581V19.6895C24 19.4144 23.7816 19.1934 23.5128 19.1983C23.184 19.2032 23.052 19.2081 22.776 19.2057Z" fill="#83B4FF"/>
</svg>
