<svg width="23" height="22" viewBox="0 0 23 22" fill="none" xmlns="http://www.w3.org/2000/svg">
<path d="M20.0232 0.00390625H2.83569C1.54175 0.00390625 0.491943 1.05371 0.491943 2.34766V19.5352C0.491943 20.8291 1.54175 21.8789 2.83569 21.8789H20.0232C21.3171 21.8789 22.3669 20.8291 22.3669 19.5352V2.34766C22.3669 1.05371 21.3171 0.00390625 20.0232 0.00390625ZM17.6355 7.75781C17.6453 7.89453 17.6453 8.03613 17.6453 8.17285C17.6453 12.4062 14.4226 17.2842 8.53394 17.2842C6.71753 17.2842 5.03296 16.7568 3.61694 15.8486C3.87573 15.8779 4.12476 15.8877 4.38843 15.8877C5.88745 15.8877 7.2644 15.3799 8.36304 14.5205C6.95679 14.4912 5.77515 13.5684 5.36987 12.2988C5.86304 12.3721 6.30737 12.3721 6.81519 12.2402C5.35034 11.9424 4.25171 10.6533 4.25171 9.0957V9.05664C4.67651 9.2959 5.17456 9.44238 5.69702 9.46191C5.25778 9.16974 4.8977 8.77337 4.64891 8.30818C4.40013 7.84299 4.27038 7.32344 4.27124 6.7959C4.27124 6.2002 4.42749 5.65332 4.70581 5.17969C6.28296 7.12305 8.65112 8.39258 11.3074 8.5293C10.8533 6.35645 12.4792 4.59375 14.4324 4.59375C15.3552 4.59375 16.1853 4.97949 16.7712 5.60449C17.4939 5.46777 18.1873 5.19922 18.8025 4.83301C18.5632 5.5752 18.0603 6.2002 17.3962 6.5957C18.0408 6.52734 18.6658 6.34668 19.2419 6.09766C18.8074 6.7373 18.2605 7.30371 17.6355 7.75781Z" fill="white"/>
</svg>
