<svg width="1087" height="237" viewBox="0 0 1087 237" fill="none" xmlns="http://www.w3.org/2000/svg">
<path d="M43 119H94.3789H1025" stroke="#4573C7" stroke-width="3" stroke-dasharray="5.69 5.69"/>
<path d="M215 119H183.621H56.5C26.9528 119 3 142.953 3 172.5V172.5C3 202.047 26.9528 226 56.5 226H993.621H1085" stroke="#FFC000" stroke-width="3" stroke-dasharray="5.69 5.69"/>
<path d="M4 10.5C3.17157 10.5 2.5 11.1716 2.5 12C2.5 12.8284 3.17157 13.5 4 13.5V10.5ZM4 13.5H6.84172V10.5H4V13.5ZM12.5252 13.5H18.2086V10.5H12.5252V13.5ZM23.8921 13.5H29.5755V10.5H23.8921V13.5ZM35.2589 13.5H40.9424V10.5H35.2589V13.5ZM46.6258 13.5H52.3093V10.5H46.6258V13.5ZM57.9927 13.5H63.6762V10.5H57.9927V13.5ZM69.3596 13.5H75.0431V10.5H69.3596V13.5ZM80.7265 13.5H86.4099V10.5H80.7265V13.5ZM92.0934 13.5H94.9351V10.5H92.0934V13.5ZM94.9351 13.5H97.7661V10.5H94.9351V13.5ZM103.428 13.5H109.09V10.5H103.428V13.5ZM114.752 13.5H120.414V10.5H114.752V13.5ZM126.076 13.5H131.738V10.5H126.076V13.5ZM137.4 13.5H143.062V10.5H137.4V13.5ZM148.724 13.5H154.386V10.5H148.724V13.5ZM160.048 13.5H165.71V10.5H160.048V13.5ZM171.372 13.5H177.034V10.5H171.372V13.5ZM182.696 13.5H188.358V10.5H182.696V13.5ZM194.02 13.5H199.682V10.5H194.02V13.5ZM205.344 13.5H211.006V10.5H205.344V13.5ZM216.668 13.5H222.33V10.5H216.668V13.5ZM227.992 13.5H233.654V10.5H227.992V13.5ZM239.316 13.5H244.978V10.5H239.316V13.5ZM250.64 13.5H256.302V10.5H250.64V13.5ZM261.964 13.5H267.626V10.5H261.964V13.5ZM273.288 13.5H278.95V10.5H273.288V13.5ZM284.612 13.5H290.273V10.5H284.612V13.5ZM295.936 13.5H301.598V10.5H295.936V13.5ZM307.259 13.5H312.921V10.5H307.259V13.5ZM318.583 13.5H324.245V10.5H318.583V13.5ZM329.907 13.5H335.569V10.5H329.907V13.5ZM341.231 13.5H346.893V10.5H341.231V13.5ZM352.555 13.5H358.217V10.5H352.555V13.5ZM363.879 13.5H369.541V10.5H363.879V13.5ZM375.203 13.5H380.865V10.5H375.203V13.5ZM386.527 13.5H392.189V10.5H386.527V13.5ZM397.851 13.5H403.513V10.5H397.851V13.5ZM409.175 13.5H414.837V10.5H409.175V13.5ZM420.499 13.5H426.161V10.5H420.499V13.5ZM431.823 13.5H437.485V10.5H431.823V13.5ZM443.147 13.5H448.809V10.5H443.147V13.5ZM454.471 13.5H460.133V10.5H454.471V13.5ZM465.795 13.5H471.457V10.5H465.795V13.5ZM477.119 13.5H482.781V10.5H477.119V13.5ZM488.443 13.5H494.105V10.5H488.443V13.5ZM499.767 13.5H505.429V10.5H499.767V13.5ZM511.091 13.5H516.753V10.5H511.091V13.5ZM522.415 13.5H528.077V10.5H522.415V13.5ZM533.739 13.5H539.401V10.5H533.739V13.5ZM545.063 13.5H550.725V10.5H545.063V13.5ZM556.387 13.5H562.049V10.5H556.387V13.5ZM567.711 13.5H573.373V10.5H567.711V13.5ZM579.035 13.5H584.697V10.5H579.035V13.5ZM590.359 13.5H596.021V10.5H590.359V13.5ZM601.683 13.5H607.345V10.5H601.683V13.5ZM613.007 13.5H618.669V10.5H613.007V13.5ZM624.331 13.5H629.993V10.5H624.331V13.5ZM635.655 13.5H641.317V10.5H635.655V13.5ZM646.979 13.5H652.641V10.5H646.979V13.5ZM658.303 13.5H663.965V10.5H658.303V13.5ZM669.627 13.5H675.289V10.5H669.627V13.5ZM680.951 13.5H686.613V10.5H680.951V13.5ZM692.275 13.5H697.937V10.5H692.275V13.5ZM703.599 13.5H709.261V10.5H703.599V13.5ZM714.923 13.5H720.585V10.5H714.923V13.5ZM726.247 13.5H731.909V10.5H726.247V13.5ZM737.57 13.5H743.232V10.5H737.57V13.5ZM748.894 13.5H754.556V10.5H748.894V13.5ZM760.218 13.5H765.88V10.5H760.218V13.5ZM771.542 13.5H777.204V10.5H771.542V13.5ZM782.866 13.5H788.528V10.5H782.866V13.5ZM794.19 13.5H799.852V10.5H794.19V13.5ZM805.514 13.5H811.176V10.5H805.514V13.5ZM816.838 13.5H822.5V10.5H816.838V13.5ZM828.162 13.5H833.824V10.5H828.162V13.5ZM839.486 13.5H845.148V10.5H839.486V13.5ZM850.81 13.5H856.472V10.5H850.81V13.5ZM862.134 13.5H867.796V10.5H862.134V13.5ZM873.458 13.5H879.12V10.5H873.458V13.5ZM884.782 13.5H890.444V10.5H884.782V13.5ZM896.106 13.5H901.768V10.5H896.106V13.5ZM907.43 13.5H913.092V10.5H907.43V13.5ZM918.754 13.5H924.416V10.5H918.754V13.5ZM930.078 13.5H935.74V10.5H930.078V13.5ZM941.402 13.5H947.064V10.5H941.402V13.5ZM952.726 13.5H958.388V10.5H952.726V13.5ZM964.05 13.5H969.712V10.5H964.05V13.5ZM975.374 13.5H981.036V10.5H975.374V13.5ZM986.698 13.5H992.36V10.5H986.698V13.5ZM998.022 13.5H1003.68V10.5H998.022V13.5ZM1009.35 13.5H1015.01V10.5H1009.35V13.5ZM1020.67 13.5H1023.5V10.5H1020.67V13.5ZM1023.5 13.5C1024.48 13.5 1025.45 13.5271 1026.42 13.5805L1026.58 10.5851C1025.56 10.5286 1024.53 10.5 1023.5 10.5V13.5ZM1032.22 14.2271C1034.15 14.5534 1036.05 14.9864 1037.9 15.5198L1038.73 12.6367C1036.77 12.0722 1034.76 11.6141 1032.72 11.2689L1032.22 14.2271ZM1043.4 17.4452C1045.21 18.1933 1046.96 19.0401 1048.66 19.9789L1050.11 17.3545C1048.32 16.3614 1046.46 15.4656 1044.55 14.674L1043.4 17.4452ZM1053.59 23.0863C1055.18 24.2148 1056.7 25.4302 1058.15 26.7257L1060.15 24.4894C1058.62 23.1197 1057.01 21.8345 1055.33 20.6411L1053.59 23.0863ZM1062.27 30.8502C1063.57 32.2988 1064.79 33.8204 1065.91 35.408L1068.36 33.6699C1067.17 31.991 1065.88 30.3821 1064.51 28.8504L1062.27 30.8502ZM1069.02 40.3435C1069.96 42.0385 1070.81 43.7914 1071.55 45.5954L1074.33 44.4463C1073.53 42.5375 1072.64 40.683 1071.65 38.89L1069.02 40.3435ZM1073.48 51.0979C1074.01 52.9526 1074.45 54.8499 1074.77 56.7836L1077.73 56.2844C1077.39 54.2387 1076.93 52.2313 1076.36 50.2687L1073.48 51.0979ZM1075.42 62.5814C1075.47 63.5473 1075.5 64.5204 1075.5 65.5H1078.5C1078.5 64.4651 1078.47 63.4368 1078.41 62.4158L1075.42 62.5814ZM1075.5 65.5C1075.5 66.4796 1075.47 67.4527 1075.42 68.4186L1078.41 68.5842C1078.47 67.5632 1078.5 66.5349 1078.5 65.5H1075.5ZM1074.77 74.2164C1074.45 76.1501 1074.01 78.0474 1073.48 79.9021L1076.36 80.7313C1076.93 78.7687 1077.39 76.7613 1077.73 74.7156L1074.77 74.2164ZM1071.55 85.4046C1070.81 87.2086 1069.96 88.9615 1069.02 90.6565L1071.65 92.11C1072.64 90.317 1073.53 88.4625 1074.33 86.5537L1071.55 85.4046ZM1065.91 95.592C1064.79 97.1796 1063.57 98.7012 1062.27 100.15L1064.51 102.15C1065.88 100.618 1067.17 99.0089 1068.36 97.33L1065.91 95.592ZM1058.15 104.274C1056.7 105.57 1055.18 106.785 1053.59 107.914L1055.33 110.359C1057.01 109.166 1058.62 107.88 1060.15 106.511L1058.15 104.274ZM1048.66 111.021C1046.96 111.96 1045.21 112.807 1043.4 113.555L1044.55 116.326C1046.46 115.534 1048.32 114.639 1050.11 113.646L1048.66 111.021ZM1037.9 115.48C1036.05 116.014 1034.15 116.447 1032.22 116.773L1032.72 119.731C1034.76 119.386 1036.77 118.928 1038.73 118.363L1037.9 115.48ZM1026.42 117.42C1025.45 117.473 1024.48 117.5 1023.5 117.5V120.5C1024.53 120.5 1025.56 120.471 1026.58 120.415L1026.42 117.42ZM1023.5 117.5H1020.64V120.5H1023.5V117.5ZM1014.93 117.5H1009.21V120.5H1014.93V117.5ZM1003.5 117.5H997.787V120.5H1003.5V117.5ZM992.073 117.5H986.359V120.5H992.073V117.5ZM980.645 117.5H974.931V120.5H980.645V117.5ZM969.217 117.5H963.503V120.5H969.217V117.5ZM957.789 117.5H952.075V120.5H957.789V117.5ZM946.361 117.5H940.646V120.5H946.361V117.5ZM934.932 117.5H929.218V120.5H934.932V117.5ZM923.504 117.5H917.79V120.5H923.504V117.5ZM912.076 117.5H906.362V120.5H912.076V117.5ZM900.648 117.5H894.934V120.5H900.648V117.5ZM889.22 117.5H883.506V120.5H889.22V117.5ZM877.792 117.5H874.935V120.5H877.792V117.5ZM4 9C2.34315 9 1 10.3431 1 12C1 13.6569 2.34315 15 4 15V9ZM4 15H6.84172V9H4V15ZM12.5252 15H18.2086V9H12.5252V15ZM23.8921 15H29.5755V9H23.8921V15ZM35.2589 15H40.9424V9H35.2589V15ZM46.6258 15H52.3093V9H46.6258V15ZM57.9927 15H63.6762V9H57.9927V15ZM69.3596 15H75.0431V9H69.3596V15ZM80.7265 15H86.4099V9H80.7265V15ZM92.0934 15H94.9351V9H92.0934V15ZM94.9351 15H97.7661V9H94.9351V15ZM103.428 15H109.09V9H103.428V15ZM114.752 15H120.414V9H114.752V15ZM126.076 15H131.738V9H126.076V15ZM137.4 15H143.062V9H137.4V15ZM148.724 15H154.386V9H148.724V15ZM160.048 15H165.71V9H160.048V15ZM171.372 15H177.034V9H171.372V15ZM182.696 15H188.358V9H182.696V15ZM194.02 15H199.682V9H194.02V15ZM205.344 15H211.006V9H205.344V15ZM216.668 15H222.33V9H216.668V15ZM227.992 15H233.654V9H227.992V15ZM239.316 15H244.978V9H239.316V15ZM250.64 15H256.302V9H250.64V15ZM261.964 15H267.626V9H261.964V15ZM273.288 15H278.95V9H273.288V15ZM284.612 15H290.273V9H284.612V15ZM295.936 15H301.598V9H295.936V15ZM307.259 15H312.921V9H307.259V15ZM318.583 15H324.245V9H318.583V15ZM329.907 15H335.569V9H329.907V15ZM341.231 15H346.893V9H341.231V15ZM352.555 15H358.217V9H352.555V15ZM363.879 15H369.541V9H363.879V15ZM375.203 15H380.865V9H375.203V15ZM386.527 15H392.189V9H386.527V15ZM397.851 15H403.513V9H397.851V15ZM409.175 15H414.837V9H409.175V15ZM420.499 15H426.161V9H420.499V15ZM431.823 15H437.485V9H431.823V15ZM443.147 15H448.809V9H443.147V15ZM454.471 15H460.133V9H454.471V15ZM465.795 15H471.457V9H465.795V15ZM477.119 15H482.781V9H477.119V15ZM488.443 15H494.105V9H488.443V15ZM499.767 15H505.429V9H499.767V15ZM511.091 15H516.753V9H511.091V15ZM522.415 15H528.077V9H522.415V15ZM533.739 15H539.401V9H533.739V15ZM545.063 15H550.725V9H545.063V15ZM556.387 15H562.049V9H556.387V15ZM567.711 15H573.373V9H567.711V15ZM579.035 15H584.697V9H579.035V15ZM590.359 15H596.021V9H590.359V15ZM601.683 15H607.345V9H601.683V15ZM613.007 15H618.669V9H613.007V15ZM624.331 15H629.993V9H624.331V15ZM635.655 15H641.317V9H635.655V15ZM646.979 15H652.641V9H646.979V15ZM658.303 15H663.965V9H658.303V15ZM669.627 15H675.289V9H669.627V15ZM680.951 15H686.613V9H680.951V15ZM692.275 15H697.937V9H692.275V15ZM703.599 15H709.261V9H703.599V15ZM714.923 15H720.585V9H714.923V15ZM726.247 15H731.909V9H726.247V15ZM737.57 15H743.232V9H737.57V15ZM748.894 15H754.556V9H748.894V15ZM760.218 15H765.88V9H760.218V15ZM771.542 15H777.204V9H771.542V15ZM782.866 15H788.528V9H782.866V15ZM794.19 15H799.852V9H794.19V15ZM805.514 15H811.176V9H805.514V15ZM816.838 15H822.5V9H816.838V15ZM828.162 15H833.824V9H828.162V15ZM839.486 15H845.148V9H839.486V15ZM850.81 15H856.472V9H850.81V15ZM862.134 15H867.796V9H862.134V15ZM873.458 15H879.12V9H873.458V15ZM884.782 15H890.444V9H884.782V15ZM896.106 15H901.768V9H896.106V15ZM907.43 15H913.092V9H907.43V15ZM918.754 15H924.416V9H918.754V15ZM930.078 15H935.74V9H930.078V15ZM941.402 15H947.064V9H941.402V15ZM952.726 15H958.388V9H952.726V15ZM964.05 15H969.712V9H964.05V15ZM975.374 15H981.036V9H975.374V15ZM986.698 15H992.36V9H986.698V15ZM998.022 15H1003.68V9H998.022V15ZM1009.35 15H1015.01V9H1009.35V15ZM1020.67 15H1023.5V9H1020.67V15ZM1023.5 15C1024.45 15 1025.4 15.0263 1026.34 15.0782L1026.67 9.08735C1025.62 9.02936 1024.56 9 1023.5 9V15ZM1031.97 15.7062C1033.84 16.023 1035.69 16.4435 1037.49 16.9614L1039.15 11.1951C1037.13 10.6151 1035.07 10.1444 1032.97 9.78982L1031.97 15.7062ZM1042.83 18.8308C1044.58 19.5572 1046.28 20.3794 1047.93 21.2911L1050.84 16.0423C1048.99 15.0221 1047.09 14.1017 1045.13 13.2884L1042.83 18.8308ZM1052.72 24.3089C1054.26 25.405 1055.74 26.5855 1057.15 27.8438L1061.15 23.3713C1059.58 21.9644 1057.92 20.6443 1056.2 19.4185L1052.72 24.3089ZM1061.16 31.8501C1062.41 33.2572 1063.59 34.7351 1064.69 36.2771L1069.58 32.8009C1068.36 31.0763 1067.04 29.4237 1065.63 27.8505L1061.16 31.8501ZM1067.71 41.0702C1068.62 42.7163 1069.44 44.4184 1070.17 46.17L1075.71 43.8717C1074.9 41.9105 1073.98 40.0052 1072.96 38.1632L1067.71 41.0702ZM1072.04 51.5125C1072.56 53.3132 1072.98 55.1554 1073.29 57.0332L1079.21 56.0349C1078.86 53.9332 1078.38 51.8706 1077.8 49.8541L1072.04 51.5125ZM1073.92 62.6642C1073.97 63.6026 1074 64.5481 1074 65.5H1080C1080 64.4375 1079.97 63.3816 1079.91 62.3329L1073.92 62.6642ZM1074 65.5C1074 66.4519 1073.97 67.3974 1073.92 68.3358L1079.91 68.6671C1079.97 67.6184 1080 66.5625 1080 65.5H1074ZM1073.29 73.9669C1072.98 75.8446 1072.56 77.6868 1072.04 79.4875L1077.8 81.1459C1078.38 79.1294 1078.86 77.0668 1079.21 74.9651L1073.29 73.9669ZM1070.17 84.83C1069.44 86.5816 1068.62 88.2837 1067.71 89.9298L1072.96 92.8368C1073.98 90.9948 1074.9 89.0895 1075.71 87.1283L1070.17 84.83ZM1064.69 94.7229C1063.59 96.2649 1062.41 97.7428 1061.16 99.1499L1065.63 103.149C1067.04 101.576 1068.36 99.9236 1069.58 98.1991L1064.69 94.7229ZM1057.15 103.156C1055.74 104.414 1054.26 105.595 1052.72 106.691L1056.2 111.581C1057.92 110.356 1059.58 109.036 1061.15 107.629L1057.15 103.156ZM1047.93 109.709C1046.28 110.621 1044.58 111.443 1042.83 112.169L1045.13 117.712C1047.09 116.898 1048.99 115.978 1050.84 114.958L1047.93 109.709ZM1037.49 114.039C1035.69 114.557 1033.84 114.977 1031.97 115.294L1032.97 121.21C1035.07 120.856 1037.13 120.385 1039.15 119.805L1037.49 114.039ZM1026.34 115.922C1025.4 115.974 1024.45 116 1023.5 116V122C1024.56 122 1025.62 121.971 1026.67 121.913L1026.34 115.922ZM1023.5 116H1020.64V122H1023.5V116ZM1014.93 116H1009.21V122H1014.93V116ZM1003.5 116H997.787V122H1003.5V116ZM992.073 116H986.359V122H992.073V116ZM980.645 116H974.931V122H980.645V116ZM969.217 116H963.503V122H969.217V116ZM957.789 116H952.075V122H957.789V116ZM946.361 116H940.646V122H946.361V116ZM934.932 116H929.218V122H934.932V116ZM923.504 116H917.79V122H923.504V116ZM912.076 116H906.362V122H912.076V116ZM900.648 116H894.934V122H900.648V116ZM889.22 116H883.506V122H889.22V116ZM877.792 116H874.935V122H877.792V116Z" fill="#1F4E78"/>
<path d="M1075.5 234L1084.5 225L1075.5 216" stroke="#FFC000" stroke-width="4.5" stroke-linecap="round" stroke-linejoin="round"/>
<path d="M12.5 21L3.5 12L12.5 3" stroke="#1F4E78" stroke-width="4.5" stroke-linecap="round" stroke-linejoin="round"/>
</svg>
