<svg width="40" height="26" viewBox="0 0 40 26" fill="none" xmlns="http://www.w3.org/2000/svg">
<path fill-rule="evenodd" clip-rule="evenodd" d="M36.1793 9.53832C36.1793 12.1666 34.0488 14.2972 31.4208 14.2972C28.7928 14.2972 26.6622 12.1666 26.6622 9.53832C26.6622 6.91033 28.7928 4.77979 31.4208 4.77979C34.0488 4.77979 36.1793 6.91033 36.1793 9.53832Z" fill="#FB8036"/>
<path fill-rule="evenodd" clip-rule="evenodd" d="M13.3375 9.53832C13.3375 12.1666 11.207 14.2972 8.57897 14.2972C5.95098 14.2972 3.82043 12.1666 3.82043 9.53832C3.82043 6.91033 5.95098 4.77979 8.57897 4.77979C11.207 4.77979 13.3375 6.91033 13.3375 9.53832Z" fill="#FB8036"/>
<path fill-rule="evenodd" clip-rule="evenodd" d="M24.7582 5.73201C24.7582 8.36 22.6276 10.4905 19.9996 10.4905C17.3716 10.4905 15.2411 8.36 15.2411 5.73201C15.2411 3.10368 17.3716 0.973145 19.9996 0.973145C22.6276 0.973145 24.7582 3.10368 24.7582 5.73201Z" fill="#FB8036"/>
<path fill-rule="evenodd" clip-rule="evenodd" d="M31.2277 16.2007C31.9727 17.6607 32.3716 19.2891 32.3716 20.9592V24.7662C32.3716 25.0935 32.3152 25.4154 32.2078 25.7181H39.0335C39.2859 25.7181 39.5284 25.618 39.7065 25.4393C39.8853 25.2611 39.9853 25.0183 39.9853 24.7662V22.8629C39.9853 19.1834 37.0027 16.2007 33.3231 16.2007H31.2277Z" fill="#FB8036"/>
<path fill-rule="evenodd" clip-rule="evenodd" d="M30.4686 20.9591V24.7661C30.4686 25.0182 30.3688 25.261 30.1897 25.4391C30.0119 25.6179 29.7691 25.718 29.517 25.718H10.4819C10.2299 25.718 9.98704 25.6179 9.80922 25.4391C9.63014 25.261 9.5304 25.0182 9.5304 24.7661V20.9591C9.5304 18.6874 10.4326 16.509 12.0392 14.9024C13.6455 13.296 15.824 12.3936 18.096 12.3936H21.9027C24.1747 12.3936 26.3531 13.296 27.9594 14.9024C29.5661 16.509 30.4682 18.6874 30.4682 20.9591H30.4686Z" fill="#FB8036"/>
<path fill-rule="evenodd" clip-rule="evenodd" d="M8.77155 16.2007H6.67601C2.99649 16.2007 0.0137939 19.1833 0.0137939 22.8629V24.7662C0.0137939 25.0183 0.113856 25.2611 0.292623 25.4393C0.470754 25.618 0.713249 25.7181 0.965632 25.7181H7.79132C7.68394 25.4154 7.62753 25.0935 7.62753 24.7662V20.9592C7.62753 19.2891 8.02656 17.6607 8.77155 16.2007Z" fill="#FB8036"/>
</svg>
