<svg width="19" height="23" viewBox="0 0 19 23" fill="none" xmlns="http://www.w3.org/2000/svg">
<path d="M3.57396 7.05595C4.32278 7.05502 5.04069 6.7572 5.57021 6.22767C6.09972 5.69813 6.39754 4.98036 6.39849 4.23142C6.39849 3.56317 5.99094 2.76826 5.15261 1.80232C4.79396 1.39076 4.41031 1.00169 4.00371 0.637452C3.88484 0.533162 3.73213 0.475586 3.574 0.475586C3.41587 0.475586 3.26315 0.533162 3.14429 0.637452C2.73769 1.00169 2.35403 1.39076 1.99539 1.80232C1.15702 2.76838 0.749512 3.56313 0.749512 4.23142C0.750443 4.9804 1.04826 5.69815 1.57779 6.22767C2.10733 6.75718 2.82522 7.055 3.57404 7.05595H3.57396Z" fill="#D29434"/>
<path d="M6.83302 17.2929C6.83302 13.9843 9.23078 11.2254 12.3801 10.6628C12.1581 10.3853 11.9218 10.1017 11.6708 9.81206V9.81191C10.7015 8.69996 9.66478 7.64852 8.56646 6.66366C8.44758 6.55937 8.29487 6.50195 8.13675 6.50195C7.97862 6.50195 7.8259 6.55937 7.70703 6.66366C6.60871 7.64852 5.57205 8.69996 4.60269 9.81191C2.47855 12.2601 1.40137 14.2894 1.40137 15.8448C1.40137 19.5585 4.42268 22.5802 8.13671 22.5802C8.51972 22.58 8.90213 22.5473 9.27957 22.4824C8.5143 21.8514 7.89805 21.059 7.47513 20.1618C7.05209 19.2646 6.83294 18.2849 6.8331 17.2931L6.83302 17.2929Z" fill="#D29434"/>
<path d="M13.5683 11.8613C12.1276 11.8613 10.7461 12.4335 9.72736 13.4522C8.70866 14.4709 8.13647 15.8524 8.13647 17.2931C8.13647 18.7338 8.70866 20.1153 9.72736 21.134C10.7461 22.1527 12.1276 22.7249 13.5683 22.7249C15.0089 22.7249 16.3904 22.1527 17.4091 21.134C18.4278 20.1153 19 18.7338 19 17.2931C18.9985 15.8531 18.4257 14.4723 17.4073 13.4541C16.389 12.4357 15.0083 11.8629 13.5683 11.8613ZM15.7675 18.57C15.9321 18.7349 15.9965 18.9749 15.9362 19.1998C15.876 19.4249 15.7001 19.6007 15.4751 19.6609C15.2502 19.7213 15.0102 19.6569 14.8453 19.4922L13.5682 18.2147L12.2911 19.4922C12.1263 19.6569 11.8862 19.7213 11.6613 19.6609C11.4363 19.6007 11.2604 19.4249 11.2003 19.1998C11.1399 18.975 11.2043 18.7349 11.369 18.57L12.6465 17.2929L11.369 16.0158C11.2043 15.851 11.1399 15.611 11.2003 15.386C11.2605 15.161 11.4363 14.9852 11.6613 14.925C11.8862 14.8646 12.1263 14.929 12.2911 15.0937L13.5682 16.3712L14.8453 15.0937C15.0101 14.929 15.2502 14.8646 15.4751 14.925C15.7001 14.9852 15.876 15.161 15.9362 15.386C15.9965 15.6109 15.9321 15.851 15.7675 16.0158L14.4899 17.2929L15.7675 18.57Z" fill="#D29434"/>
</svg>
