<svg width="24" height="24" viewBox="0 0 24 24" fill="none" xmlns="http://www.w3.org/2000/svg">
<path fill-rule="evenodd" clip-rule="evenodd" d="M0 22.5004V12.7284C1.98796 12.351 1.79994 11.0828 3.47151 11.2918C3.23473 12.3713 4.40522 13.0306 5.99786 12.7284C7.98582 12.351 7.7978 11.0828 9.46937 11.2918C9.23259 12.3713 10.4031 13.0306 11.9957 12.7284C13.9837 12.351 13.7957 11.0828 15.4672 11.2918C15.2304 12.3713 16.4009 13.0306 17.9936 12.7284C19.9815 12.351 19.7935 11.0828 21.4651 11.2918C21.2283 12.3713 22.3988 13.0306 23.9914 12.7284V22.5004H0ZM14.5324 20.2643C14.5324 19.9561 14.2819 19.706 13.9732 19.706C13.6647 19.706 13.4141 19.9561 13.4141 20.2643C13.4141 20.5727 13.6647 20.8231 13.9732 20.8231C14.2819 20.8231 14.5324 20.5727 14.5324 20.2643ZM8.19625 17.6913C8.19625 17.4507 8.0006 17.2552 7.7598 17.2552C7.51901 17.2552 7.32354 17.4507 7.32354 17.6913C7.32354 17.9319 7.51901 18.1274 7.7598 18.1274C8.0006 18.1274 8.19625 17.9319 8.19625 17.6913ZM18.7432 16.6294C18.7432 16.3888 18.5475 16.1933 18.3067 16.1933C18.0659 16.1933 17.8703 16.3888 17.8703 16.6294C17.8703 16.87 18.0659 17.0655 18.3067 17.0655C18.5475 17.0655 18.7432 16.87 18.7432 16.6294ZM9.54516 10.428C9.3256 10.4007 9.12879 10.3945 8.94998 10.4056L8.95036 1.94562C8.95036 1.70962 9.14219 1.51758 9.37878 1.51758H15.0104C15.2466 1.51758 15.4388 1.70962 15.4388 1.94562L15.4384 10.4164C15.1043 10.3839 14.8241 10.4024 14.5816 10.4563L14.582 2.37348H9.80739V3.62414H12.4427C12.6789 3.62414 12.8711 3.81618 12.8711 4.05218C12.8711 4.28836 12.6789 4.48021 12.4427 4.48021H9.80739V5.44558H11.3522C11.5884 5.44558 11.7806 5.63762 11.7806 5.87361C11.7806 6.1098 11.5884 6.30165 11.3522 6.30165H9.80739V7.26819H11.2439C11.4801 7.26819 11.6724 7.46024 11.6724 7.69623C11.6724 7.93241 11.4801 8.12427 11.2439 8.12427H9.80739V9.08983H12.446C12.6822 9.08983 12.8744 9.28187 12.8744 9.51786C12.8744 9.75424 12.6822 9.9459 12.446 9.9459H9.80739V10.5249C9.73127 10.4741 9.64253 10.4399 9.54537 10.4276L9.54516 10.428Z" fill="#D29434"/>
</svg>
