<svg width="17" height="17" viewBox="0 0 17 17" fill="none" xmlns="http://www.w3.org/2000/svg">
<g id="Calendar">
<path id="icon" fill-rule="evenodd" clip-rule="evenodd" d="M3.06929 2.35881V0.36499H5.00235V2.35881H11.9779V0.36499H13.9109V2.35881H14.3308C16.1766 2.35881 16.4664 2.6901 16.4902 4.30923V14.3653C16.4902 15.781 16.3628 16.365 14.6223 16.365H2.36901C0.628546 16.365 0.490234 15.9406 0.490234 14.2219V4.5052C0.513601 3.13897 0.645776 2.35881 2.49103 2.35881L3.06929 2.35881ZM2.03719 13.9438C2.03719 14.4846 2.20029 14.5205 2.55433 14.5205H14.4911C14.8447 14.5205 14.9438 14.5121 14.9438 13.9704V5.85396C14.9339 5.43588 14.7984 5.36239 14.5235 5.36239H2.42806C2.15285 5.36239 2.03342 5.42281 2.0372 5.74454L2.03719 13.9438Z" fill="#8E8EA9"/>
</g>
</svg>
