<svg width="24" height="24" viewBox="0 0 24 24" fill="none" xmlns="http://www.w3.org/2000/svg">
<path d="M23.2226 2.79489C22.8832 2.18949 22.2528 1.82634 21.5496 1.82634L2.46766 1.82617C1.7646 1.82617 1.15844 2.18934 0.794619 2.79472C0.455179 3.40012 0.455179 4.12664 0.794619 4.70769L10.3477 21.2233C10.6871 21.8287 11.3175 22.1919 12.0207 22.1919C12.7238 22.1919 13.33 21.8287 13.6938 21.2233L23.2226 4.70812C23.562 4.12702 23.562 3.40055 23.2226 2.79515V2.79489ZM11.0752 13.1108C11.3419 12.8445 11.6328 12.7234 11.9966 12.7234C12.3602 12.7234 12.6755 12.8445 12.918 13.1108C13.1847 13.3772 13.306 13.6678 13.306 14.0311C13.306 14.3943 13.1847 14.7091 12.918 14.9513C12.6513 15.2177 12.3604 15.3388 11.9966 15.3388C11.6329 15.3388 11.3177 15.2177 11.0752 14.9513C10.8084 14.685 10.6872 14.3944 10.6872 14.0311C10.7114 13.6678 10.8326 13.353 11.0752 13.1108ZM10.9539 11.9244V5.19235H13.0876V11.9244H10.9539Z" fill="#D29434"/>
</svg>
