<svg width="456" height="394" viewBox="0 0 456 394" fill="none" xmlns="http://www.w3.org/2000/svg">
<path d="M456 93.0251L455.544 92.5691V91.201H454.632L454.176 90.7451L453.264 88.921L452.808 88.4651L451.896 87.5531L451.44 87.097L450.528 84.817V83.4491V81.6251V80.257L450.072 79.801L449.16 78.8891L448.248 77.977L447.336 77.521L446.88 77.0651L445.968 76.6091L445.056 75.697L441.864 74.3291L441.408 73.417V72.5051L441.864 71.5931L442.32 69.7691L443.688 67.9451L444.144 67.0331L443.688 66.121L443.232 64.297H442.776L441.408 63.841L440.952 63.3851L440.496 62.9291L440.04 62.4731L439.584 61.561L439.128 61.1051L438.216 60.1931L437.76 59.737V59.281V58.8251L438.216 58.3691V57.457L437.76 57.001L437.304 56.0891L436.392 55.6331L434.568 55.177L433.656 54.721L433.2 56.0891V57.001L432.744 57.9131L431.832 57.457V57.001V56.5451L431.376 56.0891H430.92H430.464L430.008 56.5451H429.552H429.096L428.64 55.6331L429.552 52.441V51.5291H429.096L428.64 51.0731L428.184 50.617H427.728V51.0731H427.272L426.816 50.617V50.161V47.881L425.904 47.4251L423.168 46.5131L421.344 45.1451H420.888H420.432H419.976V44.6891L419.52 44.2331V43.777L419.064 43.321L418.608 42.8651H415.872L412.224 41.9531H410.856L410.4 41.497L409.944 40.5851L409.032 38.761L408.576 38.3051L407.208 37.3931L405.84 36.937L400.368 37.3931L399.912 36.937H399L398.088 36.0251L396.72 34.657L395.808 34.201L394.896 34.657H394.44H393.984L393.072 33.7451H392.16H391.248L390.792 34.201L389.88 34.657L388.512 34.201L387.6 32.8331V31.0091L388.056 29.1851L382.584 27.817H381.672L380.304 28.2731L379.392 28.7291H378.48L378.024 28.2731L374.376 25.537L373.464 24.1691L373.008 22.801V21.4331L372.552 20.0651L372.096 19.6091L370.272 19.1531L369.816 18.697L368.904 17.7851L368.448 17.3291H367.992H367.08H366.624H366.168V16.8731V15.961H365.712V15.5051H365.256V15.961H364.8H364.344L362.52 16.8731H362.064V17.3291L361.608 16.8731H361.152L360.24 15.5051H359.784H358.872L357.96 15.961L357.048 16.417L356.592 16.8731H354.768L352.944 15.961L351.576 15.0491L350.208 14.137L347.472 11.401L345.192 7.75306L342.912 4.10511L342 0.457031L335.616 1.36909L325.584 2.73703L317.376 4.10511L307.344 5.47306L296.856 7.29703L288.192 8.66511L281.808 9.57703L274.968 10.4891L270.408 11.401H269.496V12.3131L271.32 15.961L270.864 19.1531L269.496 22.801L264.48 29.1851L258.096 35.5691L254.448 38.3051L250.8 40.1291L249.432 41.041L248.52 42.4091L248.976 43.777L250.8 44.6891L252.624 45.1451L253.992 45.601L254.904 46.5131V47.4251V48.337V48.7931V49.2491L255.36 49.7051L256.272 50.617L256.728 51.0731V51.5291V51.9851V52.441L257.184 52.897L257.64 53.3531H259.008H258.552L257.64 53.8091V54.2651L258.552 55.177V55.6331V56.0891L259.008 57.001V57.457V59.281L259.464 59.737L259.92 60.6491L260.376 61.1051H260.832V62.017L262.2 62.9291H261.744L261.288 63.3851L260.832 64.297L260.376 65.6651L259.008 68.401V69.3131L259.464 72.0491V75.241L259.008 76.6091L258.096 77.977L257.184 78.8891V79.801L258.096 80.7131L258.552 81.1691V81.6251L259.008 82.081L259.464 82.9931L259.008 83.4491V83.9051V84.817V85.7291L259.464 86.641V87.097L259.92 88.0091V88.4651V88.921V89.377L259.464 89.8331V90.2891V90.7451V91.201V91.657L259.92 92.1131L260.832 93.481V93.937V94.8491V95.3051L261.744 96.217L262.2 96.6731L261.744 97.1291L261.288 98.041L260.832 98.497L260.376 98.9531H259.92H259.464H259.008V99.4091L258.552 100.321L258.096 101.233V101.689L257.184 102.145L256.728 103.057L256.272 103.969V104.881V106.705V107.161L255.816 108.073V108.529H255.36L254.904 109.441L254.448 109.897V110.353V111.265V111.721L253.992 112.633L253.536 113.545V114.001V116.281V116.737V117.649H253.08V118.105V119.473L252.624 120.841L252.168 121.297L251.712 121.753V122.665V124.489L250.8 124.945V125.401L248.52 128.137V129.049V130.873L248.976 131.785L249.432 133.153L249.888 133.609L250.344 134.065V134.521L251.256 136.801V137.257V137.713L251.712 138.169L252.168 138.625V141.361L252.624 141.817L253.536 142.273H253.992V144.553L254.448 145.009L254.904 144.553H255.36L255.816 145.009L256.272 145.465L256.728 146.377V146.833L257.64 145.921L258.552 146.377L259.008 148.201H259.464L261.288 149.569H262.2H263.568H264.024V150.937L264.48 151.393L264.936 151.849L266.304 152.761L266.76 153.217L267.216 153.673L267.672 154.585L268.128 155.041V155.497L270.408 156.865L271.776 158.233L274.968 164.161V164.617V165.073H275.424H275.88L276.336 165.529L277.248 165.073H277.704L278.16 165.529L278.616 165.073H279.528L280.44 164.617H283.632H284.088L285 165.529L285.456 165.985H285.912L287.736 166.441L289.56 167.353H290.472L290.928 167.809L291.384 167.353H291.84V167.809H292.296V168.265L293.208 167.809H293.664L294.12 166.897V166.441V165.529H293.664H293.208L292.296 165.073L291.384 163.705L290.928 163.249L291.384 162.793V161.881L291.84 160.057L292.296 159.601L292.752 159.145L294.576 158.689L295.488 158.233L295.944 157.777L296.4 157.321H296.856L297.312 157.777L297.768 158.233L298.224 158.689H299.136L300.96 157.777L302.328 156.409H303.24L305.064 155.953V156.409V160.513V165.073V171.913V177.841V184.681V190.609V196.081V202.009V206.569L304.152 207.937H303.696H300.96L299.592 207.481L298.68 207.025H298.224L297.768 206.569V206.113L297.312 205.657V205.201V204.745V204.289H297.768H298.224V203.833V202.921V202.465H299.136L299.592 202.009V201.553L300.048 201.097L299.592 200.641V200.185H299.136H298.68H298.224L297.312 199.729L296.856 199.273L295.944 198.817H295.032L294.12 199.273L291.84 201.097L291.384 201.553L285.912 203.833L283.632 205.201L282.72 205.657L282.264 206.113L281.352 207.025H280.896H280.44L279.984 206.569L279.528 206.113V205.657L278.616 205.201H277.704H276.792H275.424L274.968 205.657H274.056H273.6L273.144 204.745L271.776 203.833L271.32 202.009L269.952 196.081L269.496 195.625H269.04H268.584L268.128 195.169L267.672 193.801H267.216L266.76 193.345V192.889V192.433L267.216 191.977V191.521H266.304V191.065L265.848 189.697V189.241L264.936 188.785L262.2 185.593L260.832 183.769L259.008 183.313L258.552 183.769L258.096 184.681L257.64 185.137L256.728 185.593H256.272L255.816 185.137V183.313L255.36 182.401L254.448 181.489L253.536 180.121L253.08 179.209L253.536 178.753L254.448 178.297L254.904 177.385V176.473L254.448 176.017L253.08 174.649L252.624 173.737L251.712 171.457L251.256 170.545L248.064 167.809L247.152 167.353H246.696H245.784H244.872H243.96L243.504 166.897L242.592 166.441L242.136 165.985L241.224 166.441L240.312 166.897H239.856L238.944 166.441V165.985L238.488 165.529V165.073H238.032L235.296 164.617H234.84L233.928 165.073L233.016 164.617V163.705L232.56 162.793L232.104 161.881L229.824 160.969L229.368 160.513H228H227.544L227.088 161.425L226.632 161.881L225.264 162.337H223.44L221.616 161.881H220.704L218.88 160.057L216.6 157.777L216.144 157.321L214.32 151.849L213.864 150.025L212.04 146.833L204.744 142.729L203.832 139.081V137.713V135.889L203.376 134.065L202.92 133.153H202.464L201.552 133.609H199.728L198.36 134.065H197.904H196.992H196.536L196.08 134.521V135.433L196.536 137.257V138.169L196.08 138.625L195.624 139.081L195.168 139.993L194.712 141.817L194.256 145.009L193.8 146.377L192.432 147.745L191.064 148.657L189.24 149.113L187.416 148.657H186.504L185.592 149.113L185.136 150.025L184.68 150.481L183.768 150.937L183.312 150.481L182.4 150.025L181.944 149.569L180.576 149.113H177.384L176.016 148.657L175.104 147.745L174.648 147.289L173.736 146.833L172.824 146.377L171.456 146.833H170.088H169.632L168.72 147.745H168.264H167.808L166.896 147.289H165.528L165.072 146.833L164.16 146.377H163.248H156.408H155.952L155.496 145.921L154.584 144.553L154.128 144.097H153.216L151.392 142.273L150.936 141.817H150.48H150.024L149.568 142.273H149.112H146.832H145.92L144.552 141.361L143.184 139.993L141.816 139.537L139.992 139.081V139.537V139.993L139.536 140.449H139.08H138.624V140.905H138.168L137.712 141.361H137.256L136.344 140.905V140.449L136.8 139.537V139.081L136.344 138.625L135.888 138.169L133.608 137.257L133.152 136.801V136.345H132.696L132.24 135.889H131.784H131.328L130.872 135.433L130.416 134.977L129.504 131.785V130.873V130.417L129.96 129.505V129.049V128.593L129.048 126.769L128.592 126.313V125.401L129.048 124.945L129.504 124.489V123.577V123.121H129.048V122.665L129.504 122.209H129.96L130.416 121.753V121.297V120.385V119.473V118.561L129.96 118.105L128.592 118.561L124.944 120.385L122.664 120.841L117.192 121.297H115.368L114 121.753L110.808 123.121L109.44 123.577H106.704L104.88 124.033L104.424 124.489L103.968 125.401L103.512 125.857H103.056L102.144 126.313H101.688V126.769H101.232V127.225V127.681L100.776 128.137H100.32H99.864H99.4079L98.04 128.593L97.1279 129.049H96.216L95.304 128.593L93.936 127.225L93.024 126.769H92.5679H90.744L90.2879 126.313L89.8321 125.401L90.2879 124.945L92.1121 124.489L92.5679 124.033L93.936 122.209V121.753L94.3921 120.841V119.929V119.017L93.936 118.561V118.105L93.024 117.649V117.193V116.281L93.48 115.825V115.369L93.024 114.457L92.1121 113.545L91.2 113.089L90.2879 112.633H89.376H88.0079L87.096 112.177L85.7279 111.721H85.2721L84.36 112.177H83.4479V111.721V110.353V109.897L82.9921 108.985V108.529L83.4479 107.617V107.161L82.536 106.705L80.7121 105.793L78.8879 105.337H77.52L77.976 107.617V108.073L78.8879 109.441V109.897V110.809L78.4321 111.265V113.545V114.913V115.369L79.344 115.825V121.297V122.209L81.1679 126.313V126.769L80.7121 127.225L79.8 128.137L79.344 128.593L78.8879 129.049V129.505L79.344 130.417V131.329L78.8879 131.785L77.976 133.153L77.064 134.977V135.889V136.801L77.52 137.257V138.169L77.976 139.081L78.4321 142.273V143.185V143.641L77.52 145.465L77.064 150.481V155.953V157.777L77.976 159.145L78.8879 160.057L79.344 160.969L79.8 163.705V165.529V165.985L79.344 166.897L78.4321 168.721L76.6079 171.001L76.1521 172.369L75.24 175.105L74.784 177.841L73.8721 179.665L73.416 181.489L73.8721 182.857L74.784 183.769L76.6079 186.049L77.52 186.961L78.4321 188.329L78.8879 189.697H77.52H72.504H67.944H62.9279H58.3679H53.3521H48.336H43.776H38.76H33.744H29.184H24.1679H19.6079H14.5921H9.57603H5.01603H0V195.625V202.009V207.937V213.865V219.793V225.721V231.649V238.033V243.961V249.889V255.817V262.201V268.129V274.057V279.985V286.369V287.737V288.649V290.017V291.841V295.945V300.049V304.153V308.257V310.081V312.361V315.097V315.553V316.465L1.36794 317.833L2.73603 320.113H1.36794L1.82397 320.569V321.025V321.481V322.393H2.28L2.73603 322.849V323.305V324.217L3.19206 324.673H4.10397L5.01603 325.129V325.585L4.56 326.041L4.10397 326.953V327.409V328.321V328.777L4.56 330.145L5.01603 330.601V331.057V331.513V331.969H5.92794H6.38397V332.881V333.337L6.84 333.793L10.0321 336.529L10.4879 336.985H10.944L11.4 336.529H11.856H12.3121L12.7679 336.985H13.68L14.136 337.441L14.5921 337.897L15.0479 338.809L15.504 339.265V339.721H15.96H16.416L16.8721 340.177L20.064 344.737V346.105L20.52 346.561L20.976 347.017H22.344L22.8 347.929V348.841L23.256 349.297H23.7121L25.9921 350.209L26.904 350.665L28.2721 352.489L29.184 353.401L29.64 354.769L30.096 356.593L30.5521 357.049L31.0079 357.505L32.376 358.417L33.744 359.785L35.1121 360.241L37.3921 361.153L39.216 362.065H39.6721L41.496 363.889V364.345L41.9521 365.257L42.4079 366.625L43.776 367.993L44.6879 368.449L46.056 369.361L46.5121 369.817L46.9679 370.273L46.5121 370.729V371.641L46.9679 372.097H47.88H48.336H49.2479H49.704H51.0721H51.5279L52.44 372.553L52.896 373.009L53.8079 373.921L54.72 374.833L54.264 375.289V375.745L54.72 376.201L56.0879 375.745H57.456H58.3679L59.736 375.289H61.104L62.9279 374.833L64.296 374.377L66.12 373.921H67.944L69.3121 373.465L71.136 373.009L72.96 372.553H74.3279L76.1521 372.097L77.976 371.641L79.344 371.185H81.1679L82.9921 370.729L84.36 370.273L86.184 369.817H87.5521H88.0079H88.92H90.744L91.2 370.273L91.656 369.817L93.48 369.361H93.936H94.8479L96.216 370.273H97.584L98.04 370.729H99.4079V371.185H99.864V371.641H100.776L101.232 372.097L101.688 371.641L102.6 371.185L103.056 370.729L103.512 370.273H105.336L108.984 370.729V371.185H109.44H109.896H111.264L114 371.641L114.912 372.097L115.368 373.009L116.28 372.553L116.736 373.009L117.192 373.465L117.648 373.921H118.104H119.016H119.472L119.016 374.833L119.472 375.289H119.928H120.384V375.745L121.296 376.201L121.752 377.569V378.025H122.208L122.664 378.481V378.025H123.12L123.576 378.937H124.032V379.393V379.849L124.488 380.305L125.4 380.761V381.217H126.312H126.768L127.224 381.673L127.68 382.129V382.585H128.136L129.048 383.041L129.96 383.953L130.872 384.409H131.328H132.24L133.608 384.865H134.064H137.256L137.712 385.321H138.168L138.624 384.865L141.36 384.409L143.184 383.497L144.552 383.041L145.008 383.497L145.464 383.953L146.832 384.409L147.744 384.865L148.2 385.321L148.656 385.777L149.112 386.233L150.936 387.145L151.392 387.601L150.936 388.057V388.513V389.425L151.392 389.881L153.672 390.793H155.496H155.952L158.232 389.881L158.688 389.425H159.144H160.056L160.512 388.969V388.513V388.057H161.424L161.88 387.601H162.792L163.248 387.145L164.616 386.233H165.072H165.528V386.689L165.984 387.145H166.44L168.264 387.601H168.72V388.057H169.176H169.632H171L172.824 388.513L175.56 389.881L177.384 390.793H178.296H179.208L179.664 391.249L180.12 392.161L180.576 392.617L181.488 393.073L183.312 393.529H184.224H184.68L185.592 392.617L186.048 392.161H186.96H187.872L191.52 390.337L192.432 390.793L193.8 389.425H194.256H196.08L196.536 388.969L197.448 388.513L198.816 387.601L200.184 386.233L201.552 384.409V383.497V382.585V382.129L202.008 381.673L212.04 370.729L216.144 367.081L218.424 364.801L219.336 362.977L220.248 359.785L220.704 358.417L226.176 350.209L227.544 348.385L229.824 347.473L239.4 343.369L243.048 340.177L245.784 338.353L259.92 332.881L261.744 332.425H262.656H263.112L263.568 331.969L264.48 331.513L264.936 330.601L266.304 329.689L266.76 328.777L267.216 327.409V326.953L268.128 325.585V324.673L267.672 322.849L267.216 322.393L267.672 321.481L268.584 319.201L267.672 317.833L268.128 316.465L268.584 314.641V313.273V312.817H268.128V312.361V311.905L269.04 310.993V310.537L269.952 309.625L271.32 308.257L271.776 307.801H272.688H274.512H275.424L275.88 307.345L276.792 305.521L277.248 305.065L277.704 304.609L278.616 304.153H279.072L279.528 303.697L280.896 302.329L289.56 298.225H290.016L293.664 297.769L294.12 297.313L295.488 296.401L296.856 295.945H297.312L298.224 296.401H299.136H300.048L302.328 295.489L303.696 295.033L305.52 294.577L306.432 294.121L308.256 294.577L311.448 295.489H313.272H314.64L316.008 295.033L317.832 294.577L319.2 295.033L320.568 295.489L321.024 295.945H321.48L321.936 295.489L322.392 295.033H322.848H323.76L325.584 295.945H326.496L328.32 295.033H328.776L328.32 293.665V293.209L326.952 292.297V291.385L327.408 290.929L327.864 289.561V289.105V288.649L327.408 287.737V287.281L326.952 284.545V283.633L326.496 283.177V282.265L325.584 281.809H325.128L323.76 280.897L322.848 279.073L321.48 274.057V272.233V270.409L321.024 269.041L321.936 268.585L325.128 268.129L327.864 266.761L331.512 264.937L335.616 263.569L339.264 262.201L344.736 260.377L348.384 259.465L353.856 258.097H354.768L358.872 257.185L363.888 255.817L367.536 254.905L371.184 253.537L374.832 251.713L377.568 250.345L383.04 248.521L388.056 246.697L392.16 245.329L394.896 243.961L396.264 243.505L399.456 243.049L403.104 241.681L407.208 240.313L413.136 238.489L419.976 236.209L426.36 233.929L431.376 232.105L434.568 231.193L437.76 230.281L436.848 229.369L435.936 227.089L435.024 226.633H434.568V228.001H434.112L432.744 228.457L432.288 228.913L431.832 229.369L430.464 231.649H429.552L428.64 230.281V229.825V228.001V227.545V227.089H428.184H427.728L427.272 226.633L426.816 226.177V225.265V224.809L424.992 222.529L424.08 222.073L423.168 221.617L421.8 221.161L420.432 220.705V219.793L420.888 219.337L422.256 218.425V217.969V217.513L420.888 215.689L419.52 215.233H418.152L417.24 214.777L416.784 213.409V212.497H417.24H417.696H418.608H419.064L419.976 211.585L420.432 211.129H421.8L422.256 210.673L422.712 209.761V209.305V208.393L423.168 207.937H423.624L424.992 207.481L425.448 205.657L426.36 201.553L427.272 199.729L428.184 198.817L429.552 198.361V197.905V197.449L429.096 196.537L428.64 195.625V195.169L428.184 194.257L429.096 190.153L430.008 187.417V186.505V185.593L429.096 184.681L427.728 183.769V183.313L427.272 180.577L427.728 180.121L428.184 178.753L429.552 176.929L430.464 174.193L430.92 173.737L431.832 173.281H432.288L432.744 173.737V174.193L433.2 173.737H433.656V173.281H434.568H435.024L435.48 173.737L435.936 174.649H436.392H436.848V174.193V173.737H437.304H437.76L438.216 173.281L438.672 172.825L439.128 171.457L439.584 171.001H440.04H440.952H441.408H441.864L442.32 171.457L443.232 171.001L444.144 170.545L445.056 169.633L445.512 168.721H445.968L447.336 167.809L447.792 167.353V166.441L448.248 165.985L448.704 165.529L450.072 164.617V164.161V163.249H449.616H449.16L447.792 162.793L444.6 163.705L443.232 163.249L442.776 161.881L441.864 159.145L441.408 157.777L440.952 157.321L440.04 156.409L439.584 155.497V154.129V152.761L440.952 149.113L441.408 147.289L441.864 146.833V145.921V145.465L441.408 144.553V144.097L441.864 142.273V140.905L441.408 134.521V134.065L440.952 133.153H440.04H439.584H438.672H438.216V132.697L438.672 131.785V130.873V130.417V126.769L439.128 126.313L440.04 127.225L440.496 126.769V126.313V125.857V124.945L440.952 124.489H441.408V124.033V123.577L444.144 119.473L444.6 118.105L445.056 117.193L443.688 114.913L442.776 114.001L442.32 113.089L441.408 111.721L440.952 110.809V108.529L440.496 107.161L440.04 106.705H439.584H439.128H438.672V105.793L439.128 105.337L439.584 104.881L440.04 105.337H440.496L440.952 104.881L441.864 103.969L442.32 103.513L442.776 103.057H443.688L444.144 102.601H444.6L445.968 103.057H446.424L447.336 102.601L447.792 102.145L448.248 101.689L449.16 101.233L449.616 100.777L450.528 98.9531L452.352 97.1291L452.808 96.6731H453.264L454.632 95.3051L455.544 94.8491L456 93.937V93.0251Z" fill="#2E5F44"/>
</svg>
